<?xml version="1.0" encoding="UTF-8"?>
<svg xmlns="http://www.w3.org/2000/svg" xmlns:xlink="http://www.w3.org/1999/xlink" width="50pt" height="50pt"
  viewBox="-5 -5 60 60" version="1.1">
  <g id="surface2873">
    <path style="fill-opacity:1;"
      d="M 42.84375 10.488281 C 42.519531 10.164062 39.835938 7.480469 39.511719 7.15625 C 38.859375 6.503906 37.804688 6.503906 37.15625 7.15625 C 36.828125 7.480469 7.480469 36.828125 7.15625 37.15625 C 6.503906 37.808594 6.503906 38.863281 7.15625 39.511719 C 7.621094 39.976562 10.023438 42.378906 10.488281 42.84375 C 11.140625 43.496094 12.195312 43.496094 12.84375 42.84375 C 13.171875 42.519531 42.519531 13.171875 42.84375 12.84375 C 43.496094 12.195312 43.496094 11.136719 42.84375 10.488281 Z M 42.84375 10.488281 " />
    <path style="fill-opacity:1;"
      d="M 39.511719 42.84375 C 39.835938 42.519531 42.519531 39.835938 42.84375 39.511719 C 43.496094 38.859375 43.496094 37.804688 42.84375 37.15625 C 42.519531 36.828125 13.171875 7.480469 12.84375 7.15625 C 12.191406 6.503906 11.136719 6.503906 10.488281 7.15625 C 10.023438 7.621094 7.621094 10.023438 7.15625 10.488281 C 6.503906 11.140625 6.503906 12.195312 7.15625 12.84375 C 7.480469 13.171875 36.828125 42.519531 37.15625 42.84375 C 37.804688 43.496094 38.863281 43.496094 39.511719 42.84375 Z M 39.511719 42.84375 " />
  </g>
</svg>