<?xml version="1.0" encoding="UTF-8"?>
<svg xmlns="http://www.w3.org/2000/svg" xmlns:xlink="http://www.w3.org/1999/xlink" width="100pt" height="100pt" viewBox="0 0 100 100" version="1.1">
<g id="surface422">
<path style=" stroke:none;fill-rule:nonzero;fill:rgb(54.509804%,54.509804%,75.686275%);fill-opacity:1;" d="M 72.652344 29 L 21.652344 29 L 21.652344 34 L 26.652344 39 L 26.652344 75.308594 C 26.652344 82.289062 31.949219 86 38.421875 86 L 60.6875 86 C 67.269531 86 72.652344 82.289062 72.652344 75.308594 L 72.652344 38.917969 L 77.652344 34 L 77.652344 29 Z M 72.652344 29 "/>
<path style=" stroke:none;fill-rule:nonzero;fill:rgb(12.156863%,12.941176%,16.862745%);fill-opacity:1;" d="M 60.6875 87 L 38.421875 87 C 30.785156 87 25.652344 82.300781 25.652344 75.308594 L 25.652344 39.414062 L 20.945312 34.707031 C 20.757812 34.519531 20.652344 34.265625 20.652344 34 L 20.652344 29 C 20.652344 28.449219 21.101562 28 21.652344 28 L 77.652344 28 C 78.207031 28 78.652344 28.449219 78.652344 29 L 78.652344 34 C 78.652344 34.269531 78.546875 34.523438 78.355469 34.714844 L 73.652344 39.335938 L 73.652344 75.308594 C 73.652344 82.300781 68.441406 87 60.6875 87 Z M 22.652344 33.585938 L 27.359375 38.292969 C 27.550781 38.480469 27.652344 38.734375 27.652344 39 L 27.652344 75.308594 C 27.652344 82.460938 33.453125 85 38.421875 85 L 60.6875 85 C 65.746094 85 71.652344 82.460938 71.652344 75.308594 L 71.652344 38.917969 C 71.652344 38.648438 71.761719 38.390625 71.953125 38.203125 L 76.652344 33.582031 L 76.652344 30 L 22.652344 30 Z M 22.652344 33.585938 "/>
<path style=" stroke:none;fill-rule:nonzero;fill:rgb(99.607843%,99.215686%,93.72549%);fill-opacity:1;" d="M 68.578125 28 L 72.160156 18.929688 L 58.207031 13.421875 L 52.453125 28 Z M 68.578125 28 "/>
<path style=" stroke:none;fill-rule:nonzero;fill:rgb(12.156863%,12.941176%,16.862745%);fill-opacity:1;" d="M 68.578125 29 L 52.453125 29 C 52.121094 29 51.8125 28.835938 51.625 28.5625 C 51.4375 28.289062 51.402344 27.941406 51.523438 27.632812 L 57.277344 13.054688 C 57.480469 12.539062 58.058594 12.289062 58.574219 12.492188 L 72.527344 18 C 72.773438 18.097656 72.972656 18.289062 73.078125 18.53125 C 73.183594 18.773438 73.1875 19.050781 73.089844 19.296875 L 69.511719 28.367188 C 69.359375 28.75 68.988281 29 68.578125 29 Z M 53.921875 27 L 67.898438 27 L 70.863281 19.492188 L 58.769531 14.722656 Z M 53.921875 27 "/>
<path style=" stroke:none;fill-rule:nonzero;fill:rgb(40.784314%,41.176471%,67.843137%);fill-opacity:1;" d="M 44.652344 76.5 C 43.277344 76.5 42.152344 75.375 42.152344 74 L 42.152344 40 C 42.152344 38.625 43.277344 37.5 44.652344 37.5 C 46.027344 37.5 47.152344 38.625 47.152344 40 L 47.152344 74 C 47.152344 75.375 46.027344 76.5 44.652344 76.5 Z M 44.652344 76.5 "/>
<path style=" stroke:none;fill-rule:nonzero;fill:rgb(12.156863%,12.941176%,16.862745%);fill-opacity:1;" d="M 44.652344 77 C 43 77 41.652344 75.652344 41.652344 74 L 41.652344 40 C 41.652344 38.347656 43 37 44.652344 37 C 46.308594 37 47.652344 38.347656 47.652344 40 L 47.652344 74 C 47.652344 75.652344 46.308594 77 44.652344 77 Z M 44.652344 38 C 43.550781 38 42.652344 38.898438 42.652344 40 L 42.652344 74 C 42.652344 75.101562 43.550781 76 44.652344 76 C 45.757812 76 46.652344 75.101562 46.652344 74 L 46.652344 40 C 46.652344 38.898438 45.757812 38 44.652344 38 Z M 44.652344 38 "/>
<path style=" stroke:none;fill-rule:nonzero;fill:rgb(40.784314%,41.176471%,67.843137%);fill-opacity:1;" d="M 54.652344 76.5 C 53.277344 76.5 52.152344 75.375 52.152344 74 L 52.152344 40 C 52.152344 38.625 53.277344 37.5 54.652344 37.5 C 56.027344 37.5 57.152344 38.625 57.152344 40 L 57.152344 74 C 57.152344 75.375 56.027344 76.5 54.652344 76.5 Z M 54.652344 76.5 "/>
<path style=" stroke:none;fill-rule:nonzero;fill:rgb(12.156863%,12.941176%,16.862745%);fill-opacity:1;" d="M 54.652344 77 C 53 77 51.652344 75.652344 51.652344 74 L 51.652344 40 C 51.652344 38.347656 53 37 54.652344 37 C 56.308594 37 57.652344 38.347656 57.652344 40 L 57.652344 74 C 57.652344 75.652344 56.308594 77 54.652344 77 Z M 54.652344 38 C 53.550781 38 52.652344 38.898438 52.652344 40 L 52.652344 74 C 52.652344 75.101562 53.550781 76 54.652344 76 C 55.757812 76 56.652344 75.101562 56.652344 74 L 56.652344 40 C 56.652344 38.898438 55.757812 38 54.652344 38 Z M 54.652344 38 "/>
<path style=" stroke:none;fill-rule:nonzero;fill:rgb(40.784314%,41.176471%,67.843137%);fill-opacity:1;" d="M 64.652344 76.5 C 63.277344 76.5 62.152344 75.375 62.152344 74 L 62.152344 40 C 62.152344 38.625 63.277344 37.5 64.652344 37.5 C 66.027344 37.5 67.152344 38.625 67.152344 40 L 67.152344 74 C 67.152344 75.375 66.027344 76.5 64.652344 76.5 Z M 64.652344 76.5 "/>
<path style=" stroke:none;fill-rule:nonzero;fill:rgb(12.156863%,12.941176%,16.862745%);fill-opacity:1;" d="M 64.652344 77 C 63 77 61.652344 75.652344 61.652344 74 L 61.652344 40 C 61.652344 38.347656 63 37 64.652344 37 C 66.308594 37 67.652344 38.347656 67.652344 40 L 67.652344 74 C 67.652344 75.652344 66.308594 77 64.652344 77 Z M 64.652344 38 C 63.550781 38 62.652344 38.898438 62.652344 40 L 62.652344 74 C 62.652344 75.101562 63.550781 76 64.652344 76 C 65.757812 76 66.652344 75.101562 66.652344 74 L 66.652344 40 C 66.652344 38.898438 65.757812 38 64.652344 38 Z M 64.652344 38 "/>
<path style=" stroke:none;fill-rule:nonzero;fill:rgb(40.784314%,41.176471%,67.843137%);fill-opacity:1;" d="M 32.152344 59.5 L 32.152344 40.078125 C 32.152344 38.703125 33.277344 37.578125 34.652344 37.578125 C 36.027344 37.578125 37.152344 38.703125 37.152344 40.078125 L 37.152344 74.078125 C 37.152344 75.453125 36.027344 76.578125 34.652344 76.578125 C 33.277344 76.578125 32.152344 75.453125 32.152344 74.078125 L 32.152344 70.5 "/>
<path style=" stroke:none;fill-rule:nonzero;fill:rgb(12.156863%,12.941176%,16.862745%);fill-opacity:1;" d="M 34.652344 77.078125 C 33 77.078125 31.652344 75.734375 31.652344 74.078125 L 31.652344 70.5 C 31.652344 70.222656 31.878906 70 32.152344 70 C 32.429688 70 32.652344 70.222656 32.652344 70.5 L 32.652344 74.078125 C 32.652344 75.183594 33.550781 76.078125 34.652344 76.078125 C 35.757812 76.078125 36.652344 75.183594 36.652344 74.078125 L 36.652344 40.078125 C 36.652344 38.976562 35.757812 38.078125 34.652344 38.078125 C 33.550781 38.078125 32.652344 38.976562 32.652344 40.078125 L 32.652344 59.5 C 32.652344 59.777344 32.429688 60 32.152344 60 C 31.878906 60 31.652344 59.777344 31.652344 59.5 L 31.652344 40.078125 C 31.652344 38.425781 33 37.078125 34.652344 37.078125 C 36.308594 37.078125 37.652344 38.425781 37.652344 40.078125 L 37.652344 74.078125 C 37.652344 75.734375 36.308594 77.078125 34.652344 77.078125 Z M 34.652344 77.078125 "/>
<path style=" stroke:none;fill-rule:nonzero;fill:rgb(12.156863%,12.941176%,16.862745%);fill-opacity:1;" d="M 32.152344 64 C 31.878906 64 31.652344 63.777344 31.652344 63.5 L 31.652344 60.5 C 31.652344 60.222656 31.878906 60 32.152344 60 C 32.429688 60 32.652344 60.222656 32.652344 60.5 L 32.652344 63.5 C 32.652344 63.777344 32.429688 64 32.152344 64 Z M 70.152344 33 L 22.152344 33 C 21.878906 33 21.652344 32.777344 21.652344 32.5 C 21.652344 32.222656 21.878906 32 22.152344 32 L 70.152344 32 C 70.429688 32 70.652344 32.222656 70.652344 32.5 C 70.652344 32.777344 70.429688 33 70.152344 33 Z M 71.152344 82 L 29.152344 82 C 28.878906 82 28.652344 81.777344 28.652344 81.5 C 28.652344 81.222656 28.878906 81 29.152344 81 L 71.152344 81 C 71.429688 81 71.652344 81.222656 71.652344 81.5 C 71.652344 81.777344 71.429688 82 71.152344 82 Z M 72.652344 58.078125 C 72.101562 58.078125 71.652344 57.632812 71.652344 57.078125 L 71.652344 43.078125 C 71.652344 42.527344 72.101562 42.078125 72.652344 42.078125 C 75.410156 42.078125 77.652344 44.324219 77.652344 47.078125 L 77.652344 53.078125 C 77.652344 55.835938 75.410156 58.078125 72.652344 58.078125 Z M 73.652344 44.25 L 73.652344 55.90625 C 74.816406 55.496094 75.652344 54.382812 75.652344 53.078125 L 75.652344 47.078125 C 75.652344 45.777344 74.816406 44.664062 73.652344 44.25 Z M 26.652344 58.078125 C 23.898438 58.078125 21.652344 55.835938 21.652344 53.078125 L 21.652344 47.078125 C 21.652344 44.324219 23.898438 42.078125 26.652344 42.078125 C 27.207031 42.078125 27.652344 42.527344 27.652344 43.078125 L 27.652344 57.078125 C 27.652344 57.632812 27.207031 58.078125 26.652344 58.078125 Z M 25.652344 44.25 C 24.488281 44.664062 23.652344 45.777344 23.652344 47.078125 L 23.652344 53.078125 C 23.652344 54.382812 24.488281 55.496094 25.652344 55.910156 Z M 25.652344 44.25 "/>
<path style=" stroke:none;fill-rule:nonzero;fill:rgb(99.607843%,96.470588%,66.666667%);fill-opacity:1;" d="M 70.609375 29 C 70.378906 27.320312 68.609375 26 66.453125 26 L 64.761719 26 C 64.761719 26 62.335938 26.054688 61.652344 26.863281 L 61.652344 27.078125 C 61.5625 25.046875 57.363281 23 57.363281 23 L 54.652344 23 L 54.652344 17.777344 C 54.652344 15.699219 52.765625 14 50.457031 14 L 42.851562 14 C 40.542969 14 38.652344 15.699219 38.652344 17.777344 L 38.652344 20.398438 C 29.652344 20.398438 28.652344 21.910156 28.652344 23.757812 L 28.652344 29 Z M 70.609375 29 "/>
<path style=" stroke:none;fill-rule:nonzero;fill:rgb(12.156863%,12.941176%,16.862745%);fill-opacity:1;" d="M 70.609375 30 L 28.652344 30 C 28.101562 30 27.652344 29.550781 27.652344 29 L 27.652344 23.757812 C 27.652344 20.675781 30.296875 19.5 37.652344 19.40625 L 37.652344 17.777344 C 37.652344 15.144531 39.984375 13 42.851562 13 L 50.457031 13 C 53.320312 13 55.652344 15.144531 55.652344 17.777344 L 55.652344 22 L 57.363281 22 C 57.515625 22 57.667969 22.035156 57.804688 22.101562 C 58.417969 22.402344 60.941406 23.707031 62.085938 25.449219 C 63.089844 25.074219 64.28125 25.011719 64.738281 25 L 66.457031 25 C 69.089844 25 71.300781 26.664062 71.601562 28.867188 C 71.640625 29.152344 71.554688 29.441406 71.363281 29.65625 C 71.171875 29.875 70.898438 30 70.609375 30 Z M 62.046875 28 L 69.035156 28 C 68.453125 27.394531 67.5 27 66.453125 27 L 64.761719 27 C 63.953125 27.019531 63.023438 27.191406 62.605469 27.386719 C 62.515625 27.664062 62.3125 27.886719 62.046875 28 Z M 29.652344 28 L 61.261719 28 C 60.917969 27.855469 60.671875 27.519531 60.65625 27.125 C 60.613281 26.226562 58.644531 24.78125 57.128906 24 L 54.652344 24 C 54.101562 24 53.652344 23.550781 53.652344 23 L 53.652344 17.777344 C 53.652344 16.246094 52.21875 15 50.457031 15 L 42.851562 15 C 41.089844 15 39.652344 16.246094 39.652344 17.777344 L 39.652344 20.398438 C 39.652344 20.953125 39.207031 21.398438 38.652344 21.398438 C 29.652344 21.398438 29.652344 22.933594 29.652344 23.757812 Z M 29.652344 28 "/>
<path style=" stroke:none;fill-rule:nonzero;fill:rgb(12.156863%,12.941176%,16.862745%);fill-opacity:1;" d="M 39.152344 26 C 38.878906 26 38.652344 25.777344 38.652344 25.5 L 38.652344 20.5 C 38.652344 20.222656 38.878906 20 39.152344 20 C 39.429688 20 39.652344 20.222656 39.652344 20.5 L 39.652344 25.5 C 39.652344 25.777344 39.429688 26 39.152344 26 Z M 54.152344 27 C 53.878906 27 53.652344 26.777344 53.652344 26.5 L 53.652344 21.5 C 53.652344 21.222656 53.878906 21 54.152344 21 C 54.429688 21 54.652344 21.222656 54.652344 21.5 L 54.652344 26.5 C 54.652344 26.777344 54.429688 27 54.152344 27 Z M 74.152344 33 L 72.152344 33 C 71.878906 33 71.652344 32.777344 71.652344 32.5 C 71.652344 32.222656 71.878906 32 72.152344 32 L 74.152344 32 C 74.429688 32 74.652344 32.222656 74.652344 32.5 C 74.652344 32.777344 74.429688 33 74.152344 33 Z M 74.152344 33 "/>
</g>
</svg>
