<?xml version="1.0" encoding="UTF-8"?>
<svg xmlns="http://www.w3.org/2000/svg" xmlns:xlink="http://www.w3.org/1999/xlink" width="100pt" height="100pt" viewBox="0 0 100 100" version="1.1">
<g id="surface552">
<path style=" stroke:none;fill-rule:nonzero;fill:rgb(37.647059%,74.509804%,57.254902%);fill-opacity:1;" d="M 64.371094 43.988281 L 54 53.746094 L 54 15 L 46 15 L 46 53.746094 L 35.628906 43.988281 L 29.980469 49.648438 L 50 68.996094 L 70.019531 49.648438 Z M 81 70 L 81 83 L 19 83 L 19 69 L 25 69 L 25 77 L 75 77 L 75 70 Z M 81 70 "/>
<path style=" stroke:none;fill-rule:nonzero;fill:rgb(12.156863%,12.941176%,16.862745%);fill-opacity:1;" d="M 50 69.996094 C 49.75 69.996094 49.5 69.902344 49.304688 69.714844 L 29.285156 50.367188 C 29.09375 50.183594 28.980469 49.929688 28.980469 49.660156 C 28.976562 49.390625 29.082031 49.132812 29.273438 48.945312 L 34.921875 43.285156 C 35.304688 42.902344 35.921875 42.890625 36.316406 43.261719 L 45 51.433594 L 45 15 C 45 14.445312 45.449219 14 46 14 L 54 14 C 54.550781 14 55 14.445312 55 15 L 55 51.433594 L 63.683594 43.261719 C 64.078125 42.890625 64.695312 42.902344 65.078125 43.285156 L 70.726562 48.945312 C 70.917969 49.132812 71.023438 49.390625 71.019531 49.660156 C 71.019531 49.929688 70.90625 50.183594 70.714844 50.367188 L 50.695312 69.714844 C 50.5 69.902344 50.25 69.996094 50 69.996094 Z M 31.40625 49.636719 L 50 67.605469 L 68.59375 49.636719 L 64.347656 45.382812 L 54.683594 54.476562 C 54.394531 54.746094 53.96875 54.824219 53.601562 54.664062 C 53.238281 54.507812 53 54.144531 53 53.746094 L 53 16 L 47 16 L 47 53.746094 C 47 54.144531 46.761719 54.507812 46.394531 54.664062 C 46.03125 54.820312 45.605469 54.75 45.3125 54.476562 L 35.652344 45.382812 Z M 31.40625 49.636719 "/>
<path style=" stroke:none;fill-rule:nonzero;fill:rgb(12.156863%,12.941176%,16.862745%);fill-opacity:1;" d="M 81 84 L 19 84 C 18.449219 84 18 83.554688 18 83 L 18 69 C 18 68.445312 18.449219 68 19 68 L 25 68 C 25.550781 68 26 68.445312 26 69 L 26 76 L 74 76 L 74 70 C 74 69.445312 74.449219 69 75 69 L 81 69 C 81.550781 69 82 69.445312 82 70 L 82 83 C 82 83.554688 81.550781 84 81 84 Z M 20 82 L 80 82 L 80 71 L 76 71 L 76 77 C 76 77.554688 75.550781 78 75 78 L 25 78 C 24.449219 78 24 77.554688 24 77 L 24 70 L 20 70 Z M 20 82 "/>
<path style=" stroke:none;fill-rule:nonzero;fill:rgb(12.156863%,12.941176%,16.862745%);fill-opacity:1;" d="M 60.5 74 L 29.5 74 C 29.222656 74 29 73.777344 29 73.5 C 29 73.222656 29.222656 73 29.5 73 L 60.5 73 C 60.777344 73 61 73.222656 61 73.5 C 61 73.777344 60.777344 74 60.5 74 Z M 66.5 74 L 63.5 74 C 63.222656 74 63 73.777344 63 73.5 C 63 73.222656 63.222656 73 63.5 73 L 66.5 73 C 66.777344 73 67 73.222656 67 73.5 C 67 73.777344 66.777344 74 66.5 74 Z M 70.5 74 L 68.5 74 C 68.222656 74 68 73.777344 68 73.5 C 68 73.222656 68.222656 73 68.5 73 L 70.5 73 C 70.777344 73 71 73.222656 71 73.5 C 71 73.777344 70.777344 74 70.5 74 Z M 70.5 74 "/>
</g>
</svg>
