<?xml version="1.0" encoding="UTF-8"?>
<svg xmlns="http://www.w3.org/2000/svg" xmlns:xlink="http://www.w3.org/1999/xlink" width="100pt" height="100pt" viewBox="0 0 100 100" version="1.1">
<g id="surface432">
<path style=" stroke:none;fill-rule:nonzero;fill:rgb(47.058824%,63.137255%,81.960784%);fill-opacity:1;" d="M 69.308594 81.652344 L 30.308594 81.652344 C 23.707031 81.652344 18.308594 76.253906 18.308594 69.652344 L 18.308594 30.652344 C 18.308594 24.054688 23.707031 18.652344 30.308594 18.652344 L 69.308594 18.652344 C 75.90625 18.652344 81.308594 24.054688 81.308594 30.652344 L 81.308594 69.652344 C 81.308594 76.253906 75.90625 81.652344 69.308594 81.652344 Z M 69.308594 81.652344 "/>
<path style=" stroke:none;fill-rule:nonzero;fill:rgb(12.156863%,12.941176%,16.862745%);fill-opacity:1;" d="M 69.308594 82.652344 L 30.308594 82.652344 C 23.140625 82.652344 17.308594 76.820312 17.308594 69.652344 L 17.308594 30.652344 C 17.308594 23.484375 23.140625 17.652344 30.308594 17.652344 L 69.308594 17.652344 C 76.476562 17.652344 82.308594 23.484375 82.308594 30.652344 L 82.308594 69.652344 C 82.308594 76.820312 76.476562 82.652344 69.308594 82.652344 Z M 30.308594 19.652344 C 24.242188 19.652344 19.308594 24.589844 19.308594 30.652344 L 19.308594 69.652344 C 19.308594 75.71875 24.242188 80.652344 30.308594 80.652344 L 69.308594 80.652344 C 75.371094 80.652344 80.308594 75.71875 80.308594 69.652344 L 80.308594 30.652344 C 80.308594 24.589844 75.371094 19.652344 69.308594 19.652344 Z M 30.308594 19.652344 "/>
<path style=" stroke:none;fill-rule:nonzero;fill:rgb(47.058824%,63.137255%,81.960784%);fill-opacity:1;" d="M 76.808594 48.152344 L 76.808594 66.816406 C 76.808594 72.503906 72.15625 77.152344 66.46875 77.152344 L 33.144531 77.152344 C 27.460938 77.152344 22.808594 72.503906 22.808594 66.816406 L 22.808594 33.492188 C 22.808594 27.804688 27.460938 23.152344 33.144531 23.152344 L 66.808594 23.152344 "/>
<path style=" stroke:none;fill-rule:nonzero;fill:rgb(12.156863%,12.941176%,16.862745%);fill-opacity:1;" d="M 66.46875 77.652344 L 33.144531 77.652344 C 27.167969 77.652344 22.308594 72.792969 22.308594 66.816406 L 22.308594 33.488281 C 22.308594 27.515625 27.167969 22.652344 33.144531 22.652344 L 66.808594 22.652344 C 67.082031 22.652344 67.308594 22.878906 67.308594 23.152344 C 67.308594 23.429688 67.082031 23.652344 66.808594 23.652344 L 33.144531 23.652344 C 27.71875 23.652344 23.308594 28.066406 23.308594 33.488281 L 23.308594 66.816406 C 23.308594 72.238281 27.71875 76.652344 33.144531 76.652344 L 66.46875 76.652344 C 71.894531 76.652344 76.308594 72.238281 76.308594 66.816406 L 76.308594 48.152344 C 76.308594 47.878906 76.53125 47.652344 76.808594 47.652344 C 77.082031 47.652344 77.308594 47.878906 77.308594 48.152344 L 77.308594 66.816406 C 77.308594 72.792969 72.445312 77.652344 66.46875 77.652344 Z M 66.46875 77.652344 "/>
<path style=" stroke:none;fill-rule:nonzero;fill:rgb(12.156863%,12.941176%,16.862745%);fill-opacity:1;" d="M 76.808594 46.652344 C 76.53125 46.652344 76.308594 46.429688 76.308594 46.152344 L 76.308594 42.152344 C 76.308594 41.878906 76.53125 41.652344 76.808594 41.652344 C 77.082031 41.652344 77.308594 41.878906 77.308594 42.152344 L 77.308594 46.152344 C 77.308594 46.429688 77.082031 46.652344 76.808594 46.652344 Z M 76.808594 40.652344 C 76.53125 40.652344 76.308594 40.429688 76.308594 40.152344 L 76.308594 38.152344 C 76.308594 37.878906 76.53125 37.652344 76.808594 37.652344 C 77.082031 37.652344 77.308594 37.878906 77.308594 38.152344 L 77.308594 40.152344 C 77.308594 40.429688 77.082031 40.652344 76.808594 40.652344 Z M 76.808594 40.652344 "/>
<path style=" stroke:none;fill-rule:nonzero;fill:rgb(99.215686%,98.823529%,93.333333%);fill-opacity:1;" d="M 64.808594 53.972656 L 64.808594 64.152344 L 58.808594 64.152344 L 58.722656 54.0625 C 58.722656 51.503906 57.5625 49.6875 55.269531 49.6875 C 53.515625 49.6875 52.480469 50.859375 52.019531 51.996094 C 51.855469 52.402344 51.808594 52.972656 51.808594 53.539062 L 51.808594 64.152344 L 45.730469 64.152344 C 45.730469 64.152344 45.8125 46.933594 45.730469 45.152344 L 51.808594 45.152344 L 51.808594 48.085938 C 51.792969 48.109375 51.78125 48.132812 51.765625 48.152344 L 51.808594 48.152344 L 51.808594 48.085938 C 52.652344 46.675781 54.195312 45.03125 57.558594 45.03125 C 61.726562 45.027344 64.808594 47.625 64.808594 53.972656 Z M 38.824219 36.195312 C 36.949219 36.195312 35.722656 37.480469 35.722656 39.175781 C 35.722656 40.828125 36.910156 42.152344 38.753906 42.152344 L 38.789062 42.152344 C 40.703125 42.152344 41.890625 40.828125 41.890625 39.175781 C 41.847656 37.484375 40.695312 36.195312 38.824219 36.195312 Z M 35.808594 64.152344 L 41.808594 64.152344 L 41.808594 45.152344 L 35.808594 45.152344 Z M 35.808594 64.152344 "/>
<path style=" stroke:none;fill-rule:nonzero;fill:rgb(12.156863%,12.941176%,16.862745%);fill-opacity:1;" d="M 64.808594 64.652344 L 58.808594 64.652344 C 58.53125 64.652344 58.308594 64.433594 58.308594 64.15625 L 58.222656 54.066406 C 58.222656 52.898438 57.9375 50.191406 55.269531 50.191406 C 53.484375 50.191406 52.726562 51.585938 52.484375 52.1875 C 52.367188 52.472656 52.308594 52.929688 52.308594 53.539062 L 52.308594 64.152344 C 52.308594 64.429688 52.085938 64.652344 51.808594 64.652344 L 45.730469 64.652344 C 45.597656 64.652344 45.46875 64.601562 45.375 64.507812 C 45.28125 64.414062 45.230469 64.285156 45.230469 64.152344 C 45.230469 63.980469 45.3125 46.925781 45.230469 45.175781 C 45.222656 45.039062 45.273438 44.90625 45.367188 44.808594 C 45.464844 44.710938 45.59375 44.652344 45.730469 44.652344 L 51.808594 44.652344 C 52.082031 44.652344 52.308594 44.878906 52.308594 45.152344 L 52.308594 46.585938 C 53.59375 45.203125 55.378906 44.546875 57.578125 44.535156 C 59.765625 44.535156 61.546875 45.203125 62.867188 46.519531 C 64.484375 48.136719 65.308594 50.644531 65.308594 53.976562 L 65.308594 64.15625 C 65.308594 64.429688 65.082031 64.652344 64.808594 64.652344 Z M 59.304688 63.652344 L 64.308594 63.652344 L 64.308594 53.976562 C 64.308594 50.921875 63.585938 48.648438 62.160156 47.226562 C 61.035156 46.101562 59.492188 45.535156 57.578125 45.535156 C 57.570312 45.535156 57.566406 45.535156 57.558594 45.535156 C 54.34375 45.535156 53 47.089844 52.269531 48.289062 C 52.191406 48.488281 52.015625 48.652344 51.808594 48.652344 C 51.625 48.652344 51.4375 48.554688 51.351562 48.398438 C 51.273438 48.261719 51.25 48.097656 51.308594 47.957031 L 51.308594 45.652344 L 46.242188 45.652344 C 46.296875 48.679688 46.242188 60.957031 46.230469 63.652344 L 51.308594 63.652344 L 51.308594 53.539062 C 51.308594 52.785156 51.390625 52.222656 51.558594 51.808594 C 52.21875 50.167969 53.609375 49.1875 55.265625 49.1875 C 57.707031 49.1875 59.222656 51.054688 59.222656 54.0625 Z M 41.808594 64.652344 L 35.808594 64.652344 C 35.53125 64.652344 35.308594 64.429688 35.308594 64.152344 L 35.308594 45.152344 C 35.308594 44.878906 35.53125 44.652344 35.808594 44.652344 L 41.808594 44.652344 C 42.082031 44.652344 42.308594 44.878906 42.308594 45.152344 L 42.308594 64.152344 C 42.308594 64.429688 42.082031 64.652344 41.808594 64.652344 Z M 36.308594 63.652344 L 41.308594 63.652344 L 41.308594 45.652344 L 36.308594 45.652344 Z M 38.789062 42.652344 C 36.707031 42.652344 35.222656 41.191406 35.222656 39.175781 C 35.222656 37.160156 36.738281 35.695312 38.824219 35.695312 C 40.875 35.695312 42.339844 37.121094 42.390625 39.164062 C 42.390625 41.191406 40.875 42.652344 38.789062 42.652344 Z M 38.824219 36.695312 C 37.292969 36.695312 36.222656 37.714844 36.222656 39.175781 C 36.222656 40.632812 37.265625 41.652344 38.753906 41.652344 C 40.320312 41.652344 41.390625 40.632812 41.390625 39.175781 C 41.351562 37.671875 40.347656 36.695312 38.824219 36.695312 Z M 38.824219 36.695312 "/>
</g>
</svg>
