<?xml version="1.0" encoding="UTF-8"?>
<svg xmlns="http://www.w3.org/2000/svg" xmlns:xlink="http://www.w3.org/1999/xlink" width="100pt" height="100pt" viewBox="0 0 100 100" version="1.1">
<g id="surface467">
<path style=" stroke:none;fill-rule:nonzero;fill:rgb(99.607843%,99.215686%,93.72549%);fill-opacity:1;" d="M 77 37 L 77 33 C 77 22.507812 68.492188 14 58 14 L 42 14 C 31.507812 14 23 22.507812 23 33 L 23 39 C 21.894531 39 21 39.894531 21 41 L 21 50 C 21 51.105469 21.894531 52 23 52 C 21 53.5 17 57.5 17 62.5 C 17 67.246094 20.121094 70.730469 21.429688 71.984375 C 21.15625 72.945312 21 73.953125 21 75 C 21 81.074219 27 86 34.5 86 C 43 86 44.210938 81 50 81 L 49.988281 81 C 55.777344 81 56.988281 86 65.488281 86 C 72.988281 86 78.988281 81.074219 78.988281 75 C 78.988281 73.953125 78.835938 72.945312 78.5625 71.984375 C 79.867188 70.730469 82.988281 67.246094 82.988281 62.5 C 82.988281 57.5 78.988281 53.5 76.988281 52 C 78.09375 52 78.988281 51.105469 78.988281 50 L 78.988281 41 C 78.988281 39.894531 78.09375 39 76.988281 39 Z M 77 37 "/>
<path style=" stroke:none;fill-rule:nonzero;fill:rgb(12.156863%,12.941176%,16.862745%);fill-opacity:1;" d="M 65.5 53 C 61.957031 53 59.1875 50.925781 56.253906 48.726562 C 55.714844 48.320312 55.160156 47.90625 54.589844 47.492188 C 51.886719 45.539062 48.109375 45.539062 45.410156 47.492188 C 44.839844 47.90625 44.285156 48.320312 43.746094 48.726562 C 40.8125 50.925781 38.042969 53 34.5 53 C 29.65625 53 24 49.464844 24 39.5 L 24 39 L 76 39 L 76 39.5 C 76 49.464844 70.34375 53 65.5 53 Z M 50 45 C 51.863281 45 53.652344 45.582031 55.175781 46.683594 C 55.75 47.097656 56.308594 47.515625 56.855469 47.925781 C 59.769531 50.113281 62.289062 52 65.5 52 C 69.804688 52 74.8125 48.847656 74.996094 40 L 25.003906 40 C 25.1875 48.847656 30.195312 52 34.5 52 C 37.710938 52 40.230469 50.113281 43.144531 47.925781 C 43.691406 47.515625 44.25 47.097656 44.824219 46.679688 C 46.347656 45.582031 48.136719 45 50 45 Z M 50 45 "/>
<path style=" stroke:none;fill-rule:nonzero;fill:rgb(12.156863%,12.941176%,16.862745%);fill-opacity:1;" d="M 29.039062 65.695312 L 23.171875 52 L 21.5 52 L 21.5 51 L 23.171875 51 C 23.570312 51 23.929688 51.238281 24.089844 51.605469 L 29.960938 65.304688 Z M 29.039062 65.695312 "/>
<path style=" stroke:none;fill-rule:nonzero;fill:rgb(12.156863%,12.941176%,16.862745%);fill-opacity:1;" d="M 70.949219 65.695312 L 70.03125 65.304688 L 75.898438 51.605469 C 76.058594 51.238281 76.421875 51 76.820312 51 L 78.488281 51 L 78.488281 52 L 76.820312 52 Z M 70.949219 65.695312 "/>
<path style=" stroke:none;fill-rule:nonzero;fill:rgb(12.156863%,12.941176%,16.862745%);fill-opacity:1;" d="M 65.488281 87 C 60.550781 87 57.925781 85.402344 55.609375 83.996094 C 53.851562 82.925781 52.328125 82.003906 49.996094 82 C 47.660156 82 46.140625 82.925781 44.378906 83.996094 C 42.0625 85.402344 39.4375 87 34.5 87 C 26.503906 87 20 81.617188 20 75 C 20 74.097656 20.105469 73.1875 20.316406 72.289062 C 18.75 70.671875 16 67.160156 16 62.5 C 16 57.789062 19.195312 54.09375 21.09375 52.3125 C 20.425781 51.761719 20 50.929688 20 50 L 20 41 C 20 39.347656 21.347656 38 23 38 L 23 40 C 22.449219 40 22 40.449219 22 41 L 22 50 C 22 50.550781 22.449219 51 23 51 C 23.429688 51 23.8125 51.273438 23.949219 51.683594 C 24.085938 52.09375 23.945312 52.542969 23.597656 52.800781 C 23.027344 53.230469 18 57.152344 18 62.5 C 18 66.84375 20.882812 70.074219 22.121094 71.261719 C 22.386719 71.519531 22.492188 71.902344 22.390625 72.257812 C 22.132812 73.167969 22 74.089844 22 75 C 22 80.515625 27.605469 85 34.5 85 C 38.878906 85 41.144531 83.621094 43.339844 82.289062 C 45.1875 81.164062 47.097656 80.003906 49.984375 80 C 49.988281 80 49.992188 80 49.996094 80 C 49.996094 80 50 80 50.003906 80 C 52.894531 80.003906 54.804688 81.164062 56.648438 82.289062 C 58.84375 83.621094 61.113281 85 65.488281 85 C 72.382812 85 77.988281 80.515625 77.988281 75 C 77.988281 74.089844 77.859375 73.167969 77.597656 72.257812 C 77.496094 71.902344 77.601562 71.519531 77.867188 71.261719 C 79.109375 70.074219 81.988281 66.84375 81.988281 62.5 C 81.988281 57.152344 76.964844 53.230469 76.390625 52.800781 C 76.046875 52.542969 75.90625 52.09375 76.039062 51.683594 C 76.179688 51.273438 76.558594 51 76.988281 51 C 77.542969 51 78 50.550781 78 50 L 78 41 C 78 40.449219 77.542969 40 76.988281 40 L 76.988281 38 C 78.644531 38 80 39.347656 80 41 L 80 50 C 80 50.929688 79.5625 51.761719 78.898438 52.3125 C 80.792969 54.09375 83.988281 57.789062 83.988281 62.5 C 83.988281 67.160156 81.238281 70.671875 79.671875 72.289062 C 79.882812 73.1875 79.988281 74.097656 79.988281 75 C 79.988281 81.617188 73.484375 87 65.488281 87 Z M 65.488281 87 "/>
<path style=" stroke:none;fill-rule:nonzero;fill:rgb(12.156863%,12.941176%,16.862745%);fill-opacity:1;" d="M 65 75 C 63.273438 75 61.78125 75.453125 60.957031 75.765625 C 60.53125 71.582031 56.984375 66.007812 50 66 C 49.996094 66 49.996094 66 49.996094 66 C 49.992188 66 49.992188 66 49.988281 66 C 43.011719 66.003906 39.46875 71.582031 39.042969 75.761719 C 38.222656 75.453125 36.730469 75 35 75 C 29.867188 75 26 77.363281 26 80.5 C 26 83.585938 30.171875 86 35.5 86 L 35.5 85 C 30.894531 85 27 82.9375 27 80.5 C 27 77.976562 30.515625 76 35 76 C 37.34375 76 39.257812 76.9375 39.277344 76.945312 C 39.429688 77.023438 39.613281 77.015625 39.757812 76.925781 C 39.90625 76.835938 39.996094 76.679688 40 76.507812 C 40.054688 72.675781 43.269531 67.003906 49.992188 67 C 56.722656 67.003906 59.941406 72.675781 60 76.507812 C 60.003906 76.679688 60.09375 76.835938 60.238281 76.925781 C 60.386719 77.015625 60.566406 77.023438 60.722656 76.945312 C 60.742188 76.9375 62.652344 76 65 76 C 69.480469 76 72.988281 77.976562 72.988281 80.5 C 72.988281 82.9375 69.097656 85 64.488281 85 L 64.488281 86 C 69.816406 86 73.988281 83.585938 73.988281 80.5 C 73.988281 77.363281 70.125 75 65 75 Z M 65 75 "/>
<path style=" stroke:none;fill-rule:nonzero;fill:rgb(12.156863%,12.941176%,16.862745%);fill-opacity:1;" d="M 67.972656 23 C 67.847656 23 67.722656 22.953125 67.628906 22.863281 C 66.132812 21.441406 64.308594 20.347656 62.34375 19.703125 C 62.082031 19.617188 61.9375 19.335938 62.027344 19.070312 C 62.109375 18.808594 62.394531 18.664062 62.65625 18.753906 C 64.761719 19.441406 66.71875 20.613281 68.316406 22.140625 C 68.515625 22.328125 68.523438 22.644531 68.335938 22.847656 C 68.234375 22.949219 68.105469 23 67.972656 23 Z M 67.972656 23 "/>
<path style=" stroke:none;fill-rule:nonzero;fill:rgb(12.156863%,12.941176%,16.862745%);fill-opacity:1;" d="M 70.375 26 C 70.207031 26 70.042969 25.914062 69.949219 25.757812 C 69.746094 25.429688 69.539062 25.105469 69.3125 24.792969 C 69.152344 24.570312 69.199219 24.257812 69.421875 24.09375 C 69.644531 23.933594 69.957031 23.980469 70.121094 24.207031 C 70.363281 24.539062 70.589844 24.886719 70.804688 25.242188 C 70.945312 25.476562 70.871094 25.785156 70.632812 25.929688 C 70.554688 25.976562 70.464844 26 70.375 26 Z M 70.375 26 "/>
<path style=" stroke:none;fill-rule:nonzero;fill:rgb(12.156863%,12.941176%,16.862745%);fill-opacity:1;" d="M 29.625 26 C 29.535156 26 29.445312 25.976562 29.363281 25.929688 C 29.128906 25.785156 29.054688 25.476562 29.195312 25.242188 C 31.945312 20.707031 36.730469 18 42 18 L 53.5 18 C 53.777344 18 54 18.222656 54 18.5 C 54 18.777344 53.777344 19 53.5 19 L 42 19 C 37.085938 19 32.617188 21.527344 30.050781 25.757812 C 29.957031 25.914062 29.792969 26 29.625 26 Z M 29.625 26 "/>
<path style=" stroke:none;fill-rule:nonzero;fill:rgb(12.156863%,12.941176%,16.862745%);fill-opacity:1;" d="M 78 37 L 76 37 L 76 33 C 76 23.074219 67.925781 15 58 15 L 42 15 C 32.074219 15 24 23.074219 24 33 L 24 37 L 22 37 L 22 33 C 22 21.972656 30.972656 13 42 13 L 58 13 C 69.027344 13 78 21.972656 78 33 Z M 78 37 "/>
<path style=" stroke:none;fill-rule:nonzero;fill:rgb(26.666667%,26.666667%,27.058824%);fill-opacity:1;" d="M 46.5 39.5 C 45.5 43.292969 37.5 47.5 33.5 47.5 C 28.5 47.5 27.5 43.804688 27.5 39.5 Z M 46.5 39.5 "/>
<path style=" stroke:none;fill-rule:nonzero;fill:rgb(26.666667%,26.666667%,27.058824%);fill-opacity:1;" d="M 53.5 39.5 C 54.5 43.292969 62.5 47.5 66.5 47.5 C 71.5 47.5 72.5 43.804688 72.5 39.5 Z M 53.5 39.5 "/>
<path style=" stroke:none;fill-rule:nonzero;fill:rgb(12.156863%,12.941176%,16.862745%);fill-opacity:1;" d="M 33.5 48 C 27.675781 48 27 43.148438 27 39.5 L 28 39.5 C 28 44.757812 29.644531 47 33.5 47 C 37.492188 47 45.128906 42.738281 46.015625 39.371094 L 46.984375 39.628906 C 45.890625 43.78125 37.542969 48 33.5 48 Z M 33.5 48 "/>
<path style=" stroke:none;fill-rule:nonzero;fill:rgb(12.156863%,12.941176%,16.862745%);fill-opacity:1;" d="M 66.5 48 C 62.457031 48 54.109375 43.78125 53.015625 39.628906 L 53.984375 39.371094 C 54.871094 42.738281 62.507812 47 66.5 47 C 70.355469 47 72 44.757812 72 39.5 L 73 39.5 C 73 43.148438 72.324219 48 66.5 48 Z M 66.5 48 "/>
<path style=" stroke:none;fill-rule:nonzero;fill:rgb(69.411765%,74.117647%,81.568627%);fill-opacity:1;" d="M 22.5 36.5 L 77.5 36.5 L 77.5 39.5 L 22.5 39.5 Z M 22.5 36.5 "/>
<path style=" stroke:none;fill-rule:nonzero;fill:rgb(12.156863%,12.941176%,16.862745%);fill-opacity:1;" d="M 78 40 L 22 40 L 22 36 L 78 36 Z M 23 39 L 77 39 L 77 37 L 23 37 Z M 23 39 "/>
<path style=" stroke:none;fill-rule:nonzero;fill:rgb(26.666667%,26.666667%,27.058824%);fill-opacity:1;" d="M 51.5 71 C 51.5 70.171875 50.828125 69.5 50 69.5 C 49.171875 69.5 48.5 70.171875 48.5 71 C 48.5 71.671875 48.5 81.328125 48.5 82 C 48.5 82.828125 49.171875 83.5 50 83.5 C 50.828125 83.5 51.5 82.828125 51.5 82 C 51.5 81.328125 51.5 71.671875 51.5 71 Z M 51.5 71 "/>
<path style=" stroke:none;fill-rule:nonzero;fill:rgb(26.666667%,26.666667%,27.058824%);fill-opacity:1;" d="M 48.5 73 C 48.5 72.171875 47.828125 71.5 47 71.5 C 46.171875 71.5 45.5 72.171875 45.5 73 C 45.5 73.628906 45.5 81.371094 45.5 82 C 45.5 82.828125 46.171875 83.5 47 83.5 C 47.828125 83.5 48.5 82.828125 48.5 82 C 48.5 81.371094 48.5 73.628906 48.5 73 Z M 48.5 73 "/>
<path style=" stroke:none;fill-rule:nonzero;fill:rgb(26.666667%,26.666667%,27.058824%);fill-opacity:1;" d="M 54.5 73.003906 C 54.5 72.171875 53.828125 71.5 53 71.5 C 52.171875 71.5 51.5 72.171875 51.5 73.003906 C 51.5 73.726562 51.5 81.273438 51.5 81.996094 C 51.5 82.828125 52.171875 83.5 53 83.5 C 53.828125 83.5 54.5 82.828125 54.5 81.996094 C 54.5 81.273438 54.5 73.726562 54.5 73.003906 Z M 54.5 73.003906 "/>
<path style=" stroke:none;fill-rule:nonzero;fill:rgb(26.666667%,26.666667%,27.058824%);fill-opacity:1;" d="M 57.5 77 C 57.5 76.171875 56.828125 75.5 56 75.5 C 55.171875 75.5 54.5 76.171875 54.5 77 C 54.5 77.722656 54.5 79.777344 54.5 80.5 C 54.5 81.328125 55.171875 82 56 82 C 56.828125 82 57.5 81.328125 57.5 80.5 C 57.5 79.777344 57.5 77.722656 57.5 77 Z M 57.5 77 "/>
<path style=" stroke:none;fill-rule:nonzero;fill:rgb(26.666667%,26.666667%,27.058824%);fill-opacity:1;" d="M 45.5 77 C 45.5 76.171875 44.828125 75.5 44 75.5 C 43.171875 75.5 42.5 76.171875 42.5 77 C 42.5 77.722656 42.5 79.777344 42.5 80.5 C 42.5 81.328125 43.171875 82 44 82 C 44.828125 82 45.5 81.328125 45.5 80.5 C 45.5 79.777344 45.5 77.722656 45.5 77 Z M 45.5 77 "/>
<path style=" stroke:none;fill-rule:nonzero;fill:rgb(12.156863%,12.941176%,16.862745%);fill-opacity:1;" d="M 50 84 C 48.898438 84 48 83.101562 48 82 L 48 71 C 48 69.898438 48.898438 69 50 69 C 51.101562 69 52 69.898438 52 71 L 52 82 C 52 83.101562 51.101562 84 50 84 Z M 50 70 C 49.449219 70 49 70.449219 49 71 L 49 82 C 49 82.550781 49.449219 83 50 83 C 50.550781 83 51 82.550781 51 82 L 51 71 C 51 70.449219 50.550781 70 50 70 Z M 50 70 "/>
<path style=" stroke:none;fill-rule:nonzero;fill:rgb(12.156863%,12.941176%,16.862745%);fill-opacity:1;" d="M 47 84 C 45.898438 84 45 83.101562 45 82 L 45 73 C 45 71.898438 45.898438 71 47 71 C 48.101562 71 49 71.898438 49 73 L 49 82 C 49 83.101562 48.101562 84 47 84 Z M 47 72 C 46.449219 72 46 72.449219 46 73 L 46 82 C 46 82.550781 46.449219 83 47 83 C 47.550781 83 48 82.550781 48 82 L 48 73 C 48 72.449219 47.550781 72 47 72 Z M 47 72 "/>
<path style=" stroke:none;fill-rule:nonzero;fill:rgb(12.156863%,12.941176%,16.862745%);fill-opacity:1;" d="M 53 84 C 51.898438 84 51 83.101562 51 81.996094 L 51 73.003906 C 51 71.898438 51.898438 71 53 71 C 54.101562 71 55 71.898438 55 73.003906 L 55 81.996094 C 55 83.101562 54.101562 84 53 84 Z M 53 72 C 52.449219 72 52 72.449219 52 73.003906 L 52 81.996094 C 52 82.550781 52.449219 83 53 83 C 53.550781 83 54 82.550781 54 81.996094 L 54 73.003906 C 54 72.449219 53.550781 72 53 72 Z M 53 72 "/>
<path style=" stroke:none;fill-rule:nonzero;fill:rgb(12.156863%,12.941176%,16.862745%);fill-opacity:1;" d="M 56 82.5 C 54.898438 82.5 54 81.601562 54 80.5 L 54 77 C 54 75.898438 54.898438 75 56 75 C 57.101562 75 58 75.898438 58 77 L 58 80.5 C 58 81.601562 57.101562 82.5 56 82.5 Z M 56 76 C 55.449219 76 55 76.449219 55 77 L 55 80.5 C 55 81.050781 55.449219 81.5 56 81.5 C 56.550781 81.5 57 81.050781 57 80.5 L 57 77 C 57 76.449219 56.550781 76 56 76 Z M 56 76 "/>
<path style=" stroke:none;fill-rule:nonzero;fill:rgb(12.156863%,12.941176%,16.862745%);fill-opacity:1;" d="M 44 82.5 C 42.898438 82.5 42 81.601562 42 80.5 L 42 77 C 42 75.898438 42.898438 75 44 75 C 45.101562 75 46 75.898438 46 77 L 46 80.5 C 46 81.601562 45.101562 82.5 44 82.5 Z M 44 76 C 43.449219 76 43 76.449219 43 77 L 43 80.5 C 43 81.050781 43.449219 81.5 44 81.5 C 44.550781 81.5 45 81.050781 45 80.5 L 45 77 C 45 76.449219 44.550781 76 44 76 Z M 44 76 "/>
<path style=" stroke:none;fill-rule:nonzero;fill:rgb(69.411765%,74.117647%,81.568627%);fill-opacity:1;" d="M 37.5 78.5 C 37.5 80.15625 36.15625 81.5 34.5 81.5 C 32.84375 81.5 31.5 80.15625 31.5 78.5 C 31.5 76.84375 32.84375 75.5 34.5 75.5 C 36.15625 75.5 37.5 76.84375 37.5 78.5 Z M 37.5 78.5 "/>
<path style=" stroke:none;fill-rule:nonzero;fill:rgb(69.411765%,74.117647%,81.568627%);fill-opacity:1;" d="M 68.5 78.5 C 68.5 80.15625 67.15625 81.5 65.5 81.5 C 63.84375 81.5 62.5 80.15625 62.5 78.5 C 62.5 76.84375 63.84375 75.5 65.5 75.5 C 67.15625 75.5 68.5 76.84375 68.5 78.5 Z M 68.5 78.5 "/>
<path style=" stroke:none;fill-rule:nonzero;fill:rgb(12.156863%,12.941176%,16.862745%);fill-opacity:1;" d="M 34.5 82 C 32.570312 82 31 80.429688 31 78.5 C 31 76.570312 32.570312 75 34.5 75 C 36.429688 75 38 76.570312 38 78.5 C 38 80.429688 36.429688 82 34.5 82 Z M 34.5 76 C 33.121094 76 32 77.121094 32 78.5 C 32 79.878906 33.121094 81 34.5 81 C 35.878906 81 37 79.878906 37 78.5 C 37 77.121094 35.878906 76 34.5 76 Z M 34.5 76 "/>
<path style=" stroke:none;fill-rule:nonzero;fill:rgb(12.156863%,12.941176%,16.862745%);fill-opacity:1;" d="M 65.5 82 C 63.570312 82 62 80.429688 62 78.5 C 62 76.570312 63.570312 75 65.5 75 C 67.429688 75 69 76.570312 69 78.5 C 69 80.429688 67.429688 82 65.5 82 Z M 65.5 76 C 64.121094 76 63 77.121094 63 78.5 C 63 79.878906 64.121094 81 65.5 81 C 66.878906 81 68 79.878906 68 78.5 C 68 77.121094 66.878906 76 65.5 76 Z M 65.5 76 "/>
<path style=" stroke:none;fill-rule:nonzero;fill:rgb(69.411765%,74.117647%,81.568627%);fill-opacity:1;" d="M 49.980469 57.503906 L 50.011719 57.503906 C 50.003906 57.503906 50 57.503906 49.996094 57.503906 C 55.996094 57.511719 60 61.503906 70.492188 65.5 L 70.5 65.5 C 61.5 59.5 55.5 51.5 50 51.5 C 44.5 51.5 38.5 59.5 29.5 65.5 C 39.992188 61.503906 43.996094 57.511719 49.996094 57.503906 C 49.988281 57.503906 49.984375 57.503906 49.980469 57.503906 Z M 49.980469 57.503906 "/>
<path style=" stroke:none;fill-rule:nonzero;fill:rgb(26.666667%,26.666667%,27.058824%);fill-opacity:1;" d="M 51.5 51.691406 L 51.5 57.589844 C 51.011719 57.53125 50.511719 57.5 50 57.5 C 49.488281 57.5 48.988281 57.53125 48.5 57.589844 L 48.5 51.691406 C 49 51.570312 49.5 51.5 50 51.5 C 50.5 51.5 51 51.570312 51.5 51.691406 Z M 51.5 51.691406 "/>
<path style=" stroke:none;fill-rule:nonzero;fill:rgb(26.666667%,26.666667%,27.058824%);fill-opacity:1;" d="M 57.5 55.089844 L 57.5 59.488281 C 56.460938 59.011719 55.480469 58.601562 54.5 58.28125 L 54.5 52.988281 C 55.460938 53.558594 56.460938 54.269531 57.5 55.089844 Z M 57.5 55.089844 "/>
<path style=" stroke:none;fill-rule:nonzero;fill:rgb(26.666667%,26.666667%,27.058824%);fill-opacity:1;" d="M 63.5 60.128906 L 63.5 62.460938 C 62.421875 61.941406 61.429688 61.441406 60.5 60.96875 L 60.5 57.570312 C 61.460938 58.390625 62.460938 59.25 63.5 60.128906 Z M 63.5 60.128906 "/>
<path style=" stroke:none;fill-rule:nonzero;fill:rgb(26.666667%,26.666667%,27.058824%);fill-opacity:1;" d="M 45.5 52.988281 L 45.5 58.269531 C 44.53125 58.589844 43.539062 59 42.5 59.488281 L 42.5 55.089844 C 43.539062 54.269531 44.539062 53.558594 45.5 52.988281 Z M 45.5 52.988281 "/>
<path style=" stroke:none;fill-rule:nonzero;fill:rgb(26.666667%,26.666667%,27.058824%);fill-opacity:1;" d="M 39.5 57.570312 L 39.5 60.96875 C 38.570312 61.441406 37.578125 61.941406 36.5 62.460938 L 36.5 60.128906 C 37.539062 59.25 38.539062 58.390625 39.5 57.570312 Z M 39.5 57.570312 "/>
<path style=" stroke:none;fill-rule:nonzero;fill:rgb(12.156863%,12.941176%,16.862745%);fill-opacity:1;" d="M 52 58.15625 L 51.4375 58.085938 C 50.503906 57.972656 49.492188 57.972656 48.558594 58.085938 L 48 58.15625 L 48 51.296875 L 48.382812 51.203125 C 49.527344 50.929688 50.476562 50.929688 51.617188 51.203125 L 52 51.296875 Z M 50 57 C 50.335938 57 50.671875 57.011719 51 57.039062 L 51 52.09375 C 50.304688 51.96875 49.695312 51.96875 49 52.09375 L 49 57.039062 C 49.328125 57.011719 49.664062 57 50 57 Z M 50 57 "/>
<path style=" stroke:none;fill-rule:nonzero;fill:rgb(12.156863%,12.941176%,16.862745%);fill-opacity:1;" d="M 58 60.273438 L 57.289062 59.945312 C 56.144531 59.414062 55.210938 59.039062 54.34375 58.753906 L 54 58.644531 L 54 52.113281 L 54.753906 52.558594 C 55.691406 53.117188 56.691406 53.8125 57.808594 54.695312 L 58 54.847656 Z M 55 57.921875 C 55.613281 58.132812 56.269531 58.394531 57 58.714844 L 57 55.335938 C 56.285156 54.777344 55.625 54.300781 55 53.890625 Z M 55 57.921875 "/>
<path style=" stroke:none;fill-rule:nonzero;fill:rgb(12.156863%,12.941176%,16.862745%);fill-opacity:1;" d="M 64 63.257812 L 63.28125 62.910156 C 62.199219 62.390625 61.207031 61.886719 60.273438 61.414062 L 60 61.277344 L 60 56.484375 L 61.613281 57.863281 C 62.328125 58.476562 63.0625 59.105469 63.824219 59.746094 L 64 59.898438 Z M 61 60.660156 C 61.636719 60.984375 62.300781 61.316406 63 61.660156 L 63 60.363281 C 62.316406 59.78125 61.648438 59.210938 61 58.65625 Z M 61 60.660156 "/>
<path style=" stroke:none;fill-rule:nonzero;fill:rgb(12.156863%,12.941176%,16.862745%);fill-opacity:1;" d="M 42 60.277344 L 42 54.847656 L 42.191406 54.695312 C 43.308594 53.8125 44.308594 53.113281 45.246094 52.558594 L 46 52.113281 L 46 58.632812 L 45.65625 58.746094 C 44.753906 59.042969 43.792969 59.433594 42.714844 59.941406 Z M 43 55.332031 L 43 58.710938 C 43.707031 58.394531 44.367188 58.132812 45 57.910156 L 45 53.890625 C 44.375 54.300781 43.714844 54.777344 43 55.332031 Z M 43 55.332031 "/>
<path style=" stroke:none;fill-rule:nonzero;fill:rgb(12.156863%,12.941176%,16.862745%);fill-opacity:1;" d="M 36 63.257812 L 36 59.898438 L 36.175781 59.746094 C 36.9375 59.105469 37.671875 58.476562 38.386719 57.863281 L 40 56.484375 L 40 61.277344 L 39.726562 61.414062 C 38.792969 61.886719 37.800781 62.390625 36.71875 62.910156 Z M 37 60.363281 L 37 61.660156 C 37.699219 61.316406 38.363281 60.984375 39 60.660156 L 39 58.65625 C 38.351562 59.210938 37.683594 59.78125 37 60.363281 Z M 37 60.363281 "/>
<path style=" stroke:none;fill-rule:nonzero;fill:rgb(12.156863%,12.941176%,16.862745%);fill-opacity:1;" d="M 70.5 66 C 70.402344 66 70.308594 65.972656 70.222656 65.914062 C 66.808594 63.640625 63.800781 61.058594 61.148438 58.78125 C 56.730469 54.992188 53.242188 52 50 52 C 46.757812 52 43.269531 54.992188 38.851562 58.78125 C 36.199219 61.058594 33.191406 63.640625 29.777344 65.914062 C 29.550781 66.066406 29.238281 66.007812 29.085938 65.777344 C 28.933594 65.546875 28.992188 65.238281 29.222656 65.085938 C 32.589844 62.839844 35.570312 60.28125 38.203125 58.023438 C 42.773438 54.101562 46.386719 51 50 51 C 53.613281 51 57.226562 54.101562 61.800781 58.023438 C 64.429688 60.28125 67.414062 62.839844 70.777344 65.085938 C 71.007812 65.238281 71.070312 65.546875 70.917969 65.777344 C 70.820312 65.921875 70.660156 66 70.5 66 Z M 70.5 66 "/>
<path style=" stroke:none;fill-rule:nonzero;fill:rgb(12.156863%,12.941176%,16.862745%);fill-opacity:1;" d="M 78.988281 75 L 77.988281 75 C 77.988281 68.890625 72.839844 66.929688 70.363281 65.988281 C 66.136719 64.378906 62.921875 62.757812 60.335938 61.453125 C 56.371094 59.453125 53.503906 58.007812 49.996094 58.003906 C 46.484375 58.007812 43.617188 59.453125 39.652344 61.453125 C 37.066406 62.753906 33.851562 64.378906 29.675781 65.96875 C 27.148438 66.929688 22 68.890625 22 75 L 21 75 C 21 68.203125 26.796875 65.996094 29.269531 65.054688 C 33.449219 63.460938 36.503906 61.921875 39.203125 60.558594 C 43.285156 58.503906 46.238281 57.015625 49.976562 57.003906 C 49.980469 57.003906 49.984375 57.003906 49.988281 57.003906 C 49.992188 57.003906 49.992188 57.003906 49.992188 57.003906 C 50.003906 57.003906 50.007812 57.003906 50.011719 57.003906 C 50.015625 57.003906 50.015625 57.003906 50.019531 57.003906 C 53.753906 57.015625 56.707031 58.503906 60.789062 60.558594 C 63.488281 61.921875 66.546875 63.460938 70.671875 65.03125 C 73.195312 65.996094 78.988281 68.203125 78.988281 75 Z M 78.988281 75 "/>
</g>
</svg>
