<?xml version="1.0" encoding="UTF-8"?>
<svg xmlns="http://www.w3.org/2000/svg" xmlns:xlink="http://www.w3.org/1999/xlink" width="100pt" height="100pt" viewBox="0 0 100 100" version="1.1">
<g id="surface537">
<path style=" stroke:none;fill-rule:nonzero;fill:rgb(97.647059%,90.196078%,36.078431%);fill-opacity:1;" d="M 38 66 C 38 67.65625 36.65625 69 35 69 C 33.34375 69 32 67.65625 32 66 C 32 64.34375 33.34375 63 35 63 C 36.65625 63 38 64.34375 38 66 Z M 38 66 "/>
<path style=" stroke:none;fill-rule:nonzero;fill:rgb(100%,100%,100%);fill-opacity:1;" d="M 70 19 L 31 19 C 24.398438 19 19 24.398438 19 31 L 19 70 C 19 76.601562 24.398438 82 31 82 L 70 82 C 76.601562 82 82 76.601562 82 70 L 82 31 C 82 24.398438 76.601562 19 70 19 Z M 70 19 "/>
<path style=" stroke:none;fill-rule:nonzero;fill:rgb(12.156863%,12.941176%,16.862745%);fill-opacity:1;" d="M 70 82.988281 L 31 82.988281 C 23.820312 82.988281 18 77.167969 18 69.988281 L 18 30.988281 C 18 23.808594 23.820312 17.988281 31 17.988281 L 70 17.988281 C 77.179688 17.988281 83 23.808594 83 30.988281 L 83 69.988281 C 83 77.167969 77.179688 82.988281 70 82.988281 Z M 20 30.988281 L 20 69.988281 C 20 76.0625 24.925781 80.988281 31 80.988281 L 70 80.988281 C 76.074219 80.988281 81 76.0625 81 69.988281 L 81 30.988281 C 81 24.914062 76.074219 19.988281 70 19.988281 L 31 19.988281 C 24.925781 19.988281 20 24.914062 20 30.988281 Z M 20 30.988281 "/>
<path style=" stroke:none;fill-rule:nonzero;fill:rgb(12.156863%,12.941176%,16.862745%);fill-opacity:1;" d="M 67.148438 77.988281 L 33.824219 77.988281 C 27.839844 77.988281 22.984375 73.136719 22.984375 67.152344 L 22.984375 33.824219 C 22.984375 27.839844 27.839844 22.988281 33.824219 22.988281 L 67.484375 22.988281 C 67.761719 22.988281 67.984375 23.210938 67.984375 23.488281 C 67.984375 23.765625 67.761719 23.988281 67.484375 23.988281 L 33.824219 23.988281 C 28.390625 23.988281 23.984375 28.390625 23.984375 33.824219 L 23.984375 67.148438 C 23.984375 72.582031 28.390625 76.988281 33.824219 76.988281 L 67.148438 76.988281 C 72.582031 76.988281 76.984375 72.585938 76.984375 67.152344 L 76.984375 48.488281 C 76.984375 48.210938 77.210938 47.988281 77.484375 47.988281 C 77.761719 47.988281 77.984375 48.210938 77.984375 48.488281 L 77.984375 67.148438 C 77.984375 73.136719 73.132812 77.988281 67.148438 77.988281 Z M 77.484375 45.566406 C 77.210938 45.566406 76.984375 45.34375 76.984375 45.066406 L 76.984375 41.066406 C 76.984375 40.789062 77.210938 40.566406 77.484375 40.566406 C 77.761719 40.566406 77.984375 40.789062 77.984375 41.066406 L 77.984375 45.066406 C 77.984375 45.34375 77.761719 45.566406 77.484375 45.566406 Z M 77.484375 39.566406 C 77.210938 39.566406 76.984375 39.34375 76.984375 39.066406 L 76.984375 37.066406 C 76.984375 36.789062 77.210938 36.566406 77.484375 36.566406 C 77.761719 36.566406 77.984375 36.789062 77.984375 37.066406 L 77.984375 39.066406 C 77.984375 39.34375 77.761719 39.566406 77.484375 39.566406 Z M 77.484375 39.566406 "/>
<path style=" stroke:none;fill-rule:nonzero;fill:rgb(94.509804%,35.686275%,42.352941%);fill-opacity:1;" d="M 38 50 C 38 51.65625 36.65625 53 35 53 C 33.34375 53 32 51.65625 32 50 C 32 48.34375 33.34375 47 35 47 C 36.65625 47 38 48.34375 38 50 Z M 38 50 "/>
<path style=" stroke:none;fill-rule:nonzero;fill:rgb(12.156863%,12.941176%,16.862745%);fill-opacity:1;" d="M 35 48 C 36.101562 48 37 48.898438 37 50 C 37 51.101562 36.101562 52 35 52 C 33.898438 52 33 51.101562 33 50 C 33 48.898438 33.898438 48 35 48 M 35 47 C 33.34375 47 32 48.34375 32 50 C 32 51.65625 33.34375 53 35 53 C 36.65625 53 38 51.65625 38 50 C 38 48.34375 36.65625 47 35 47 Z M 35 47 "/>
<path style="fill:none;stroke-width:1;stroke-linecap:round;stroke-linejoin:round;stroke:rgb(12.156863%,12.941176%,16.862745%);stroke-opacity:1;stroke-miterlimit:10;" d="M 35 44.5 C 31.96875 44.5 29.5 46.96875 29.5 50 C 29.5 53.03125 31.96875 55.5 35 55.5 C 38.03125 55.5 40.5 53.03125 40.5 50 C 40.5 46.96875 38.03125 44.5 35 44.5 Z M 35 44.5 "/>
<path style=" stroke:none;fill-rule:nonzero;fill:rgb(47.058824%,63.529412%,82.352941%);fill-opacity:1;" d="M 38 34 C 38 35.65625 36.65625 37 35 37 C 33.34375 37 32 35.65625 32 34 C 32 32.34375 33.34375 31 35 31 C 36.65625 31 38 32.34375 38 34 Z M 38 34 "/>
<path style=" stroke:none;fill-rule:nonzero;fill:rgb(12.156863%,12.941176%,16.862745%);fill-opacity:1;" d="M 35 32 C 36.101562 32 37 32.898438 37 34 C 37 35.101562 36.101562 36 35 36 C 33.898438 36 33 35.101562 33 34 C 33 32.898438 33.898438 32 35 32 M 35 31 C 33.34375 31 32 32.34375 32 34 C 32 35.65625 33.34375 37 35 37 C 36.65625 37 38 35.65625 38 34 C 38 32.34375 36.65625 31 35 31 Z M 35 31 "/>
<path style="fill:none;stroke-width:1;stroke-linecap:round;stroke-linejoin:round;stroke:rgb(12.156863%,12.941176%,16.862745%);stroke-opacity:1;stroke-miterlimit:10;" d="M 35 28.507812 C 31.972656 28.507812 29.507812 30.972656 29.507812 34 C 29.507812 37.027344 31.972656 39.492188 35 39.492188 C 38.027344 39.492188 40.492188 37.027344 40.492188 34 C 40.492188 30.972656 38.027344 28.507812 35 28.507812 Z M 35 28.507812 "/>
<path style=" stroke:none;fill-rule:nonzero;fill:rgb(97.647059%,90.196078%,36.078431%);fill-opacity:1;" d="M 38 66 C 38 67.65625 36.65625 69 35 69 C 33.34375 69 32 67.65625 32 66 C 32 64.34375 33.34375 63 35 63 C 36.65625 63 38 64.34375 38 66 Z M 38 66 "/>
<path style="fill:none;stroke-width:1;stroke-linecap:round;stroke-linejoin:round;stroke:rgb(12.156863%,12.941176%,16.862745%);stroke-opacity:1;stroke-miterlimit:10;" d="M 35 60.507812 C 31.972656 60.507812 29.507812 62.972656 29.507812 66 C 29.507812 69.027344 31.972656 71.492188 35 71.492188 C 38.027344 71.492188 40.492188 69.027344 40.492188 66 C 40.492188 62.972656 38.027344 60.507812 35 60.507812 Z M 35 60.507812 "/>
<path style=" stroke:none;fill-rule:nonzero;fill:rgb(12.156863%,12.941176%,16.862745%);fill-opacity:1;" d="M 35 69 C 33.347656 69 32 67.652344 32 66 C 32 64.347656 33.347656 63 35 63 C 36.652344 63 38 64.347656 38 66 C 38 67.652344 36.652344 69 35 69 Z M 35 64 C 33.898438 64 33 64.898438 33 66 C 33 67.101562 33.898438 68 35 68 C 36.101562 68 37 67.101562 37 66 C 37 64.898438 36.101562 64 35 64 Z M 35 64 "/>
<path style="fill:none;stroke-width:1;stroke-linecap:round;stroke-linejoin:round;stroke:rgb(12.156863%,12.941176%,16.862745%);stroke-opacity:1;stroke-miterlimit:10;" d="M 45.5 34.5 L 71.5 34.5 "/>
<path style="fill:none;stroke-width:1;stroke-linecap:round;stroke-linejoin:round;stroke:rgb(12.156863%,12.941176%,16.862745%);stroke-opacity:1;stroke-miterlimit:10;" d="M 45.5 50.5 L 71.5 50.5 "/>
<path style="fill:none;stroke-width:1;stroke-linecap:round;stroke-linejoin:round;stroke:rgb(12.156863%,12.941176%,16.862745%);stroke-opacity:1;stroke-miterlimit:10;" d="M 45.5 66.5 L 71.5 66.5 "/>
</g>
</svg>
