<?xml version="1.0" encoding="UTF-8"?>
<svg xmlns="http://www.w3.org/2000/svg" xmlns:xlink="http://www.w3.org/1999/xlink" width="100pt" height="100pt" viewBox="0 0 100 100" version="1.1">
<g id="surface517">
<path style=" stroke:none;fill-rule:nonzero;fill:rgb(37.647059%,74.509804%,57.254902%);fill-opacity:1;" d="M 35.625 64.375 C 45.542969 74.292969 57.460938 81.285156 64.820312 83.835938 C 65.449219 84.054688 66.125 84.050781 66.75 83.84375 C 66.855469 83.808594 76.070312 80.65625 76.070312 80.65625 C 77.34375 80.222656 78.503906 79.511719 79.46875 78.566406 C 80.367188 77.6875 81.535156 76.535156 82.535156 75.535156 C 84.488281 73.582031 84.488281 70.417969 82.535156 68.464844 C 80.058594 65.984375 76.015625 61.941406 73.535156 59.464844 C 71.585938 57.511719 68.417969 57.511719 66.464844 59.464844 C 65.21875 60.710938 60.546875 65.410156 56.988281 68.988281 C 51.683594 66.273438 45.804688 63.148438 41.328125 58.671875 C 36.855469 54.195312 33.726562 48.316406 31.011719 43.011719 C 34.589844 39.453125 39.289062 34.78125 40.535156 33.535156 C 42.488281 31.582031 42.488281 28.414062 40.535156 26.464844 C 38.058594 23.984375 34.015625 19.941406 31.535156 17.464844 C 29.582031 15.511719 26.417969 15.511719 24.464844 17.464844 C 23.464844 18.464844 22.3125 19.632812 21.433594 20.53125 C 20.488281 21.496094 19.777344 22.65625 19.34375 23.929688 C 19.34375 23.929688 16.191406 33.144531 16.15625 33.25 C 15.949219 33.875 15.945312 34.550781 16.164062 35.179688 C 18.714844 42.539062 25.707031 54.457031 35.625 64.375 Z M 35.625 64.375 "/>
<path style=" stroke:none;fill-rule:nonzero;fill:rgb(12.156863%,12.941176%,16.862745%);fill-opacity:1;" d="M 29.5 25 C 29.371094 25 29.242188 24.949219 29.144531 24.855469 L 27.144531 22.855469 C 26.949219 22.660156 26.949219 22.34375 27.144531 22.148438 C 27.339844 21.953125 27.65625 21.953125 27.851562 22.148438 L 29.851562 24.148438 C 30.046875 24.34375 30.046875 24.660156 29.851562 24.855469 C 29.757812 24.949219 29.628906 25 29.5 25 Z M 39.5 35 C 39.371094 35 39.242188 34.949219 39.144531 34.855469 L 31.144531 26.855469 C 30.949219 26.660156 30.949219 26.34375 31.144531 26.148438 C 31.339844 25.953125 31.65625 25.953125 31.851562 26.148438 L 39.851562 34.148438 C 40.046875 34.34375 40.046875 34.660156 39.851562 34.855469 C 39.757812 34.949219 39.628906 35 39.5 35 Z M 39.5 35 "/>
<path style=" stroke:none;fill-rule:nonzero;fill:rgb(12.156863%,12.941176%,16.862745%);fill-opacity:1;" d="M 65.796875 84.996094 C 65.355469 84.996094 64.914062 84.925781 64.496094 84.78125 C 56.976562 82.175781 44.910156 75.074219 34.917969 65.082031 C 24.925781 55.089844 17.824219 43.027344 15.21875 35.503906 C 14.933594 34.679688 14.929688 33.765625 15.207031 32.933594 C 15.242188 32.828125 18.398438 23.609375 18.398438 23.609375 C 18.875 22.203125 19.679688 20.894531 20.71875 19.835938 C 21.601562 18.933594 22.753906 17.761719 23.757812 16.757812 C 24.890625 15.625 26.398438 15 28 15 C 29.601562 15 31.109375 15.625 32.242188 16.757812 L 41.242188 25.757812 C 42.375 26.890625 43 28.394531 43 30 C 43 31.601562 42.375 33.109375 41.242188 34.242188 C 40.140625 35.34375 36.335938 39.128906 32.996094 42.449219 L 32.234375 43.203125 C 35.042969 48.664062 37.945312 53.875 42.035156 57.964844 C 46.128906 62.054688 51.339844 64.957031 56.796875 67.765625 L 58.136719 66.417969 C 61.304688 63.230469 64.722656 59.796875 65.757812 58.757812 C 66.890625 57.625 68.398438 57 70 57 C 71.601562 57 73.109375 57.625 74.242188 58.757812 L 83.242188 67.757812 C 84.375 68.890625 85 70.398438 85 72 C 85 73.601562 84.375 75.109375 83.242188 76.242188 C 82.238281 77.246094 81.066406 78.398438 80.167969 79.28125 C 79.105469 80.320312 77.800781 81.125 76.390625 81.601562 C 76.390625 81.601562 67.171875 84.757812 67.066406 84.789062 C 66.65625 84.929688 66.226562 84.996094 65.796875 84.996094 Z M 28 17 C 26.933594 17 25.925781 17.414062 25.171875 18.171875 C 24.171875 19.171875 23.023438 20.335938 22.148438 21.234375 C 21.316406 22.082031 20.671875 23.128906 20.289062 24.253906 C 20.289062 24.257812 17.152344 33.425781 17.105469 33.570312 C 16.964844 33.992188 16.964844 34.433594 17.109375 34.851562 C 19.636719 42.15625 26.5625 53.898438 36.332031 63.667969 C 46.101562 73.4375 57.84375 80.363281 65.148438 82.890625 C 65.566406 83.035156 66.007812 83.039062 66.433594 82.894531 C 66.589844 82.84375 75.746094 79.710938 75.746094 79.710938 C 76.875 79.324219 77.917969 78.683594 78.765625 77.855469 C 79.664062 76.976562 80.828125 75.828125 81.828125 74.828125 C 82.585938 74.070312 83 73.066406 83 72 C 83 70.933594 82.585938 69.929688 81.828125 69.171875 L 72.828125 60.171875 C 72.074219 59.414062 71.070312 59 70 59 C 68.933594 59 67.925781 59.414062 67.171875 60.171875 C 66.132812 61.210938 62.71875 64.644531 59.554688 67.828125 L 57.699219 69.695312 C 57.390625 70.003906 56.921875 70.074219 56.53125 69.878906 C 50.691406 66.890625 45.078125 63.839844 40.621094 59.378906 C 36.160156 54.921875 33.109375 49.308594 30.121094 43.46875 C 29.921875 43.078125 29.996094 42.609375 30.304688 42.300781 L 31.585938 41.03125 C 34.921875 37.714844 38.726562 33.929688 39.828125 32.828125 C 40.585938 32.070312 41 31.066406 41 30 C 41 28.929688 40.585938 27.925781 39.828125 27.171875 L 30.828125 18.171875 C 30.074219 17.414062 29.066406 17 28 17 Z M 28 17 "/>
<path style=" stroke:none;fill-rule:nonzero;fill:rgb(12.156863%,12.941176%,16.862745%);fill-opacity:1;" d="M 71.5 67 C 71.371094 67 71.242188 66.949219 71.144531 66.855469 L 69.144531 64.855469 C 68.949219 64.660156 68.949219 64.34375 69.144531 64.148438 C 69.339844 63.953125 69.65625 63.953125 69.851562 64.148438 L 71.851562 66.148438 C 72.046875 66.34375 72.046875 66.660156 71.851562 66.855469 C 71.757812 66.949219 71.628906 67 71.5 67 Z M 81.5 77 C 81.371094 77 81.242188 76.949219 81.144531 76.855469 L 73.144531 68.855469 C 72.949219 68.660156 72.949219 68.34375 73.144531 68.148438 C 73.339844 67.953125 73.65625 67.953125 73.851562 68.148438 L 81.851562 76.148438 C 82.046875 76.34375 82.046875 76.660156 81.851562 76.855469 C 81.757812 76.949219 81.628906 77 81.5 77 Z M 81.5 77 "/>
</g>
</svg>
