<?xml version="1.0" encoding="UTF-8"?>
<svg xmlns="http://www.w3.org/2000/svg" xmlns:xlink="http://www.w3.org/1999/xlink" width="100pt" height="100pt" viewBox="0 0 100 100" version="1.1">
<g id="surface512">
<path style=" stroke:none;fill-rule:nonzero;fill:rgb(70.196078%,69.803922%,76.470588%);fill-opacity:1;" d="M 15 22 L 85 22 L 85 78 L 15 78 Z M 15 22 "/>
<path style=" stroke:none;fill-rule:nonzero;fill:rgb(47.058824%,63.529412%,82.352941%);fill-opacity:1;" d="M 79 29 L 79 71 C 79 71.550781 78.550781 72 78 72 L 22 72 C 21.449219 72 21 71.550781 21 71 L 21 29 C 21 28.449219 21.449219 28 22 28 L 78 28 C 78.550781 28 79 28.449219 79 29 Z M 79 29 "/>
<path style=" stroke:none;fill-rule:nonzero;fill:rgb(99.607843%,99.215686%,93.72549%);fill-opacity:1;" d="M 58 65.5 C 60.484375 65.5 62.5 63.484375 62.5 61 C 62.5 58.515625 60.484375 56.5 58 56.5 C 57.757812 56.5 57.523438 56.535156 57.289062 56.570312 C 57.414062 56.148438 57.5 55.710938 57.5 55.25 C 57.5 52.628906 55.371094 50.5 52.75 50.5 C 52.269531 50.5 51.8125 50.59375 51.375 50.726562 C 50.78125 47.746094 48.152344 45.5 45 45.5 C 42.027344 45.5 39.523438 47.5 38.75 50.226562 C 38.023438 49.773438 37.171875 49.5 36.25 49.5 C 33.628906 49.5 31.5 51.628906 31.5 54.25 C 31.5 55.074219 31.726562 55.835938 32.097656 56.511719 C 32.0625 56.507812 32.03125 56.5 32 56.5 C 29.515625 56.5 27.5 58.515625 27.5 61 C 27.5 63.484375 29.515625 65.5 32 65.5 Z M 58 65.5 "/>
<path style=" stroke:none;fill-rule:nonzero;fill:rgb(99.607843%,96.470588%,66.666667%);fill-opacity:1;" d="M 67 35 C 64.238281 35 62 37.238281 62 40 C 62 42.761719 64.238281 45 67 45 C 69.761719 45 72 42.761719 72 40 C 72 37.238281 69.761719 35 67 35 Z M 67 35 "/>
<path style=" stroke:none;fill-rule:nonzero;fill:rgb(12.156863%,12.941176%,16.862745%);fill-opacity:1;" d="M 85 21 L 15 21 C 14.449219 21 14 21.445312 14 22 L 14 78 C 14 78.554688 14.449219 79 15 79 L 85 79 C 85.550781 79 86 78.554688 86 78 L 86 22 C 86 21.445312 85.550781 21 85 21 Z M 84 77 L 16 77 L 16 23 L 84 23 Z M 84 77 "/>
<path style=" stroke:none;fill-rule:nonzero;fill:rgb(12.156863%,12.941176%,16.862745%);fill-opacity:1;" d="M 68.5 29 L 71.5 29 C 71.777344 29 72 28.777344 72 28.5 C 72 28.222656 71.777344 28 71.5 28 L 68.5 28 C 68.222656 28 68 28.222656 68 28.5 C 68 28.777344 68.222656 29 68.5 29 Z M 21.5 72 L 30.5 72 C 30.777344 72 31 71.777344 31 71.5 C 31 71.222656 30.777344 71 30.5 71 L 22 71 L 22 29 L 64.5 29 C 64.777344 29 65 28.777344 65 28.5 C 65 28.222656 64.777344 28 64.5 28 L 21.5 28 C 21.222656 28 21 28.222656 21 28.5 L 21 71.5 C 21 71.777344 21.222656 72 21.5 72 Z M 35.5 71 L 32.5 71 C 32.222656 71 32 71.222656 32 71.5 C 32 71.777344 32.222656 72 32.5 72 L 35.5 72 C 35.777344 72 36 71.777344 36 71.5 C 36 71.222656 35.777344 71 35.5 71 Z M 75.5 71 L 38.5 71 C 38.222656 71 38 71.222656 38 71.5 C 38 71.777344 38.222656 72 38.5 72 L 75.5 72 C 75.777344 72 76 71.777344 76 71.5 C 76 71.222656 75.777344 71 75.5 71 Z M 74.5 29 L 78 29 L 78 68.5 C 78 68.777344 78.222656 69 78.5 69 C 78.777344 69 79 68.777344 79 68.5 L 79 28.5 C 79 28.222656 78.777344 28 78.5 28 L 74.5 28 C 74.222656 28 74 28.222656 74 28.5 C 74 28.777344 74.222656 29 74.5 29 Z M 74.5 29 "/>
<path style=" stroke:none;fill-rule:nonzero;fill:rgb(12.156863%,12.941176%,16.862745%);fill-opacity:1;" d="M 27 61 C 27 63.757812 29.242188 66 32 66 L 58 66 C 60.757812 66 63 63.757812 63 61 C 63 58.222656 60.71875 55.914062 57.9375 56 C 57.980469 55.742188 58 55.496094 58 55.25 C 58 52.355469 55.644531 50 52.75 50 C 52.425781 50 52.09375 50.035156 51.742188 50.113281 C 50.90625 47.121094 48.152344 45 45 45 C 42.09375 45 39.488281 46.824219 38.464844 49.503906 C 37.765625 49.171875 37.011719 49 36.25 49 C 33.355469 49 31 51.355469 31 54.25 C 31 54.859375 31.109375 55.460938 31.332031 56.042969 C 28.890625 56.371094 27 58.46875 27 61 Z M 31.980469 57 C 31.996094 57.003906 32.0625 57.007812 32.082031 57.011719 C 32.085938 57.011719 32.085938 57.007812 32.089844 57.007812 C 33.042969 57.027344 33.957031 57.382812 34.667969 58.019531 C 34.765625 58.101562 34.882812 58.144531 35 58.144531 C 35.136719 58.144531 35.273438 58.089844 35.375 57.976562 C 35.558594 57.773438 35.539062 57.457031 35.335938 57.273438 C 34.523438 56.546875 33.503906 56.132812 32.425781 56.039062 C 32.148438 55.457031 32 54.859375 32 54.25 C 32 51.90625 33.90625 50 36.25 50 C 37.027344 50 37.804688 50.226562 38.484375 50.652344 C 38.621094 50.734375 38.785156 50.75 38.929688 50.695312 C 39.078125 50.636719 39.1875 50.515625 39.230469 50.363281 C 39.960938 47.796875 42.332031 46 45 46 C 47.851562 46 50.328125 48.027344 50.882812 50.824219 C 50.910156 50.964844 50.996094 51.082031 51.117188 51.15625 C 51.238281 51.226562 51.382812 51.246094 51.519531 51.203125 C 51.976562 51.066406 52.367188 51 52.75 51 C 55.09375 51 57 52.90625 57 55.25 C 57 55.613281 56.941406 55.988281 56.8125 56.433594 C 56.761719 56.597656 56.804688 56.773438 56.914062 56.902344 C 57.027344 57.03125 57.203125 57.09375 57.371094 57.066406 C 57.574219 57.03125 57.785156 57 58 57 C 60.207031 57 62 58.792969 62 61 C 62 63.207031 60.207031 65 58 65 L 32 65 C 29.792969 65 28 63.207031 28 61 C 28 58.792969 29.792969 57 31.980469 57 Z M 62 40 C 62 42.757812 64.242188 45 67 45 C 69.757812 45 72 42.757812 72 40 C 72 37.242188 69.757812 35 67 35 C 64.242188 35 62 37.242188 62 40 Z M 67 36 C 69.207031 36 71 37.792969 71 40 C 71 42.207031 69.207031 44 67 44 C 64.792969 44 63 42.207031 63 40 C 63 37.792969 64.792969 36 67 36 Z M 67 36 "/>
<path style=" stroke:none;fill-rule:nonzero;fill:rgb(12.156863%,12.941176%,16.862745%);fill-opacity:1;" d="M 35.976562 60.554688 C 36.003906 60.8125 36.222656 61 36.472656 61 C 36.492188 61 36.507812 61 36.527344 60.996094 C 36.800781 60.96875 37 60.71875 36.96875 60.445312 C 36.929688 60.066406 36.84375 59.691406 36.714844 59.335938 C 36.625 59.074219 36.339844 58.9375 36.078125 59.027344 C 35.816406 59.121094 35.679688 59.40625 35.773438 59.664062 C 35.875 59.953125 35.941406 60.253906 35.976562 60.554688 Z M 35.976562 60.554688 "/>
</g>
</svg>
