<?xml version="1.0" encoding="UTF-8"?>
<svg xmlns="http://www.w3.org/2000/svg" xmlns:xlink="http://www.w3.org/1999/xlink" width="100pt" height="100pt" viewBox="0 0 100 100" version="1.1">
<g id="surface527">
<path style=" stroke:none;fill-rule:nonzero;fill:rgb(94.901961%,48.627451%,48.627451%);fill-opacity:1;" d="M 85 50 C 85 69.328125 69.328125 85 50 85 C 30.671875 85 15 69.328125 15 50 C 15 30.671875 30.671875 15 50 15 C 69.328125 15 85 30.671875 85 50 Z M 85 50 "/>
<path style=" stroke:none;fill-rule:nonzero;fill:rgb(100%,100%,100%);fill-opacity:1;" d="M 73.28125 70.453125 C 78.082031 64.996094 81 57.839844 81 50 C 81 32.878906 67.121094 19 50 19 C 42.160156 19 35.003906 21.917969 29.546875 26.71875 Z M 73.28125 70.453125 "/>
<path style=" stroke:none;fill-rule:nonzero;fill:rgb(100%,100%,100%);fill-opacity:1;" d="M 27.070312 29.898438 C 22.359375 35.265625 19.5 42.296875 19.5 50 C 19.5 66.84375 33.15625 80.5 50 80.5 C 57.703125 80.5 64.734375 77.640625 70.101562 72.929688 Z M 27.070312 29.898438 "/>
<path style=" stroke:none;fill-rule:nonzero;fill:rgb(36.078431%,46.27451%,60.784314%);fill-opacity:1;" d="M 65.691406 68.519531 C 65.21875 69 64.699219 69.519531 64.210938 70.011719 C 62.210938 72 58.988281 72 56.988281 70.011719 C 55 68.011719 55 64.789062 56.988281 62.789062 C 57.480469 62.300781 58 61.78125 58.480469 61.308594 Z M 65.691406 68.519531 "/>
<path style=" stroke:none;fill-rule:nonzero;fill:rgb(36.078431%,46.27451%,60.784314%);fill-opacity:1;" d="M 44.5 58.5 L 44.5 66 L 50.058594 67.589844 C 50.910156 67.828125 51.5 68.609375 51.5 69.5 L 34.5 69.5 C 34.5 68.609375 35.089844 67.828125 35.941406 67.589844 L 41.5 66 L 41.5 58.5 C 34.75 57.949219 30.5 53.710938 30.5 48.570312 C 30.5 44.96875 32.261719 39.980469 33.691406 36.519531 L 52.480469 55.308594 C 50.570312 57.050781 47.851562 58.21875 44.5 58.5 Z M 44.5 58.5 "/>
<path style=" stroke:none;fill-rule:nonzero;fill:rgb(36.078431%,46.27451%,60.784314%);fill-opacity:1;" d="M 55.5 48.570312 C 55.5 49.78125 55.269531 50.929688 54.820312 52 L 35.441406 32.621094 C 35.480469 32.539062 35.5 32.5 35.5 32.5 L 50.5 32.5 C 50.5 32.5 55.5 42.5 55.5 48.570312 Z M 55.5 48.570312 "/>
<path style=" stroke:none;fill-rule:nonzero;fill:rgb(12.156863%,12.941176%,16.862745%);fill-opacity:1;" d="M 50 86 C 30.148438 86 14 69.851562 14 50 C 14 30.148438 30.148438 14 50 14 C 69.851562 14 86 30.148438 86 50 C 86 69.851562 69.851562 86 50 86 Z M 50 16 C 31.253906 16 16 31.253906 16 50 C 16 68.746094 31.253906 84 50 84 C 68.746094 84 84 68.746094 84 50 C 84 31.253906 68.746094 16 50 16 Z M 50 16 "/>
<path style=" stroke:none;fill-rule:nonzero;fill:rgb(12.156863%,12.941176%,16.862745%);fill-opacity:1;" d="M 65.5 24.226562 C 65.414062 24.226562 65.324219 24.203125 65.246094 24.15625 C 64.601562 23.777344 63.941406 23.421875 63.277344 23.09375 C 63.03125 22.96875 62.929688 22.671875 63.050781 22.421875 C 63.171875 22.175781 63.476562 22.074219 63.722656 22.195312 C 64.40625 22.535156 65.089844 22.90625 65.753906 23.296875 C 65.992188 23.4375 66.070312 23.742188 65.929688 23.980469 C 65.835938 24.140625 65.671875 24.226562 65.5 24.226562 Z M 65.5 24.226562 "/>
<path style=" stroke:none;fill-rule:nonzero;fill:rgb(12.156863%,12.941176%,16.862745%);fill-opacity:1;" d="M 68.5 26.25 C 68.394531 26.25 68.285156 26.214844 68.195312 26.144531 C 67.875 25.898438 67.546875 25.660156 67.214844 25.425781 C 66.988281 25.269531 66.933594 24.957031 67.089844 24.730469 C 67.246094 24.503906 67.5625 24.449219 67.785156 24.605469 C 68.132812 24.847656 68.46875 25.097656 68.804688 25.351562 C 69.023438 25.519531 69.066406 25.832031 68.898438 26.054688 C 68.800781 26.183594 68.648438 26.25 68.5 26.25 Z M 68.5 26.25 "/>
<path style=" stroke:none;fill-rule:nonzero;fill:rgb(12.156863%,12.941176%,16.862745%);fill-opacity:1;" d="M 55.277344 52.179688 L 54.355469 51.796875 C 54.78125 50.761719 55 49.675781 55 48.566406 C 55 43.238281 50.980469 34.644531 50.1875 33 L 35.5 33 L 35.5 32.644531 L 34.996094 32.394531 L 35.054688 32.277344 C 35.136719 32.105469 35.3125 32 35.5 32 L 50.5 32 C 50.6875 32 50.863281 32.105469 50.945312 32.277344 C 51.152344 32.6875 56 42.453125 56 48.566406 C 56 49.804688 55.757812 51.023438 55.277344 52.179688 Z M 55.277344 52.179688 "/>
<path style=" stroke:none;fill-rule:nonzero;fill:rgb(12.156863%,12.941176%,16.862745%);fill-opacity:1;" d="M 51.5 70 L 34.5 70 C 34.222656 70 34 69.777344 34 69.5 C 34 68.394531 34.742188 67.410156 35.804688 67.105469 L 41 65.621094 L 41 58.953125 C 34.5 58.25 30 54.027344 30 48.566406 C 30 44.902344 31.757812 39.890625 33.230469 36.328125 L 34.15625 36.714844 C 32.714844 40.1875 31 45.066406 31 48.566406 C 31 53.613281 35.335938 57.492188 41.539062 58.003906 C 41.800781 58.023438 42 58.238281 42 58.5 L 42 66 C 42 66.222656 41.851562 66.421875 41.636719 66.480469 L 36.078125 68.066406 C 35.609375 68.203125 35.246094 68.558594 35.085938 69 L 50.910156 69 C 50.753906 68.558594 50.390625 68.203125 49.921875 68.066406 L 44.363281 66.480469 C 44.148438 66.421875 44 66.222656 44 66 L 44 58.5 C 44 58.238281 44.199219 58.023438 44.460938 58.003906 C 47.570312 57.746094 50.222656 56.6875 52.136719 54.933594 L 52.8125 55.671875 C 50.832031 57.484375 48.136719 58.617188 45 58.953125 L 45 65.621094 L 50.195312 67.105469 C 51.257812 67.410156 52 68.394531 52 69.5 C 52 69.777344 51.777344 70 51.5 70 Z M 51.5 70 "/>
<path style=" stroke:none;fill-rule:nonzero;fill:rgb(12.156863%,12.941176%,16.862745%);fill-opacity:1;" d="M 68.871094 66.046875 L 68.164062 65.339844 L 69.652344 63.851562 C 70.519531 62.984375 71 61.828125 71 60.601562 C 71 59.371094 70.519531 58.21875 69.652344 57.347656 C 68.78125 56.480469 67.628906 56 66.398438 56 C 65.171875 56 64.015625 56.480469 63.148438 57.347656 L 61.660156 58.835938 L 60.953125 58.128906 L 62.441406 56.640625 C 63.496094 55.582031 64.902344 55 66.398438 55 C 67.894531 55 69.300781 55.582031 70.359375 56.640625 C 71.417969 57.699219 72 59.105469 72 60.601562 C 72 62.097656 71.417969 63.503906 70.359375 64.558594 Z M 68.871094 66.046875 "/>
<path style=" stroke:none;fill-rule:nonzero;fill:rgb(12.156863%,12.941176%,16.862745%);fill-opacity:1;" d="M 60.601562 72 C 59.105469 72 57.699219 71.417969 56.640625 70.359375 C 55.582031 69.300781 55 67.894531 55 66.398438 C 55 64.902344 55.582031 63.496094 56.640625 62.441406 L 58.128906 60.953125 L 58.835938 61.660156 L 57.347656 63.148438 C 56.480469 64.015625 56 65.171875 56 66.398438 C 56 67.628906 56.480469 68.78125 57.347656 69.652344 C 58.21875 70.519531 59.371094 71 60.601562 71 C 61.828125 71 62.984375 70.519531 63.851562 69.652344 L 65.339844 68.164062 L 66.046875 68.871094 L 64.558594 70.359375 C 63.503906 71.417969 62.097656 72 60.601562 72 Z M 60.601562 72 "/>
<path style=" stroke:none;fill-rule:nonzero;fill:rgb(12.156863%,12.941176%,16.862745%);fill-opacity:1;" d="M 72.929688 70.601562 C 72.796875 70.601562 72.667969 70.546875 72.574219 70.453125 L 29.546875 27.425781 C 29.445312 27.328125 29.394531 27.195312 29.398438 27.054688 C 29.402344 26.917969 29.464844 26.785156 29.570312 26.695312 C 35.226562 21.734375 42.480469 19 50 19 C 53.664062 19 57.257812 19.636719 60.671875 20.886719 C 60.933594 20.980469 61.066406 21.269531 60.96875 21.527344 C 60.875 21.789062 60.585938 21.921875 60.328125 21.824219 C 57.023438 20.613281 53.550781 20 50 20 C 42.902344 20 36.046875 22.515625 30.632812 27.097656 L 72.902344 69.367188 C 77.484375 63.953125 80 57.097656 80 50 C 80 41.5625 76.414062 33.464844 70.164062 27.785156 C 69.960938 27.601562 69.945312 27.285156 70.128906 27.082031 C 70.316406 26.875 70.632812 26.863281 70.835938 27.046875 C 77.296875 32.914062 81 41.28125 81 50 C 81 57.519531 78.265625 64.773438 73.304688 70.429688 C 73.214844 70.535156 73.082031 70.597656 72.945312 70.601562 C 72.9375 70.601562 72.933594 70.601562 72.929688 70.601562 Z M 72.929688 70.601562 "/>
<path style=" stroke:none;fill-rule:nonzero;fill:rgb(12.156863%,12.941176%,16.862745%);fill-opacity:1;" d="M 50 81 C 32.90625 81 19 67.09375 19 50 C 19 42.480469 21.734375 35.226562 26.695312 29.570312 C 26.785156 29.464844 26.917969 29.402344 27.054688 29.398438 C 27.1875 29.375 27.328125 29.445312 27.425781 29.546875 L 70.453125 72.574219 C 70.554688 72.671875 70.605469 72.804688 70.601562 72.945312 C 70.597656 73.082031 70.535156 73.214844 70.429688 73.304688 C 64.773438 78.265625 57.519531 81 50 81 Z M 27.097656 30.632812 C 22.515625 36.046875 20 42.902344 20 50 C 20 66.542969 33.457031 80 50 80 C 57.097656 80 63.953125 77.484375 69.367188 72.902344 Z M 27.097656 30.632812 "/>
</g>
</svg>
