<?xml version="1.0" encoding="UTF-8"?>
<svg xmlns="http://www.w3.org/2000/svg" xmlns:xlink="http://www.w3.org/1999/xlink" width="100pt" height="100pt" viewBox="0 0 100 100" version="1.1">
<g id="surface29382">
<path style=" stroke:none;fill-rule:nonzero;fill:rgb(47.058824%,80%,82.745098%);fill-opacity:1;" d="M 69.269531 81.652344 L 30.269531 81.652344 C 23.667969 81.652344 18.269531 76.253906 18.269531 69.652344 L 18.269531 30.652344 C 18.269531 24.054688 23.667969 18.652344 30.269531 18.652344 L 69.269531 18.652344 C 75.867188 18.652344 81.269531 24.054688 81.269531 30.652344 L 81.269531 69.652344 C 81.269531 76.253906 75.867188 81.652344 69.269531 81.652344 Z M 69.269531 81.652344 "/>
<path style=" stroke:none;fill-rule:nonzero;fill:rgb(12.156863%,12.941176%,16.862745%);fill-opacity:1;" d="M 69.269531 82.652344 L 30.269531 82.652344 C 23.101562 82.652344 17.269531 76.820312 17.269531 69.652344 L 17.269531 30.652344 C 17.269531 23.484375 23.101562 17.652344 30.269531 17.652344 L 69.269531 17.652344 C 76.4375 17.652344 82.269531 23.484375 82.269531 30.652344 L 82.269531 69.652344 C 82.269531 76.820312 76.4375 82.652344 69.269531 82.652344 Z M 30.269531 19.652344 C 24.203125 19.652344 19.269531 24.589844 19.269531 30.652344 L 19.269531 69.652344 C 19.269531 75.71875 24.203125 80.652344 30.269531 80.652344 L 69.269531 80.652344 C 75.332031 80.652344 80.269531 75.71875 80.269531 69.652344 L 80.269531 30.652344 C 80.269531 24.589844 75.332031 19.652344 69.269531 19.652344 Z M 30.269531 19.652344 "/>
<path style=" stroke:none;fill-rule:nonzero;fill:rgb(47.058824%,80%,82.745098%);fill-opacity:1;" d="M 76.769531 48.152344 L 76.769531 66.816406 C 76.769531 72.503906 72.117188 77.152344 66.429688 77.152344 L 33.105469 77.152344 C 27.421875 77.152344 22.769531 72.503906 22.769531 66.816406 L 22.769531 33.492188 C 22.769531 27.804688 27.421875 23.152344 33.105469 23.152344 L 66.769531 23.152344 "/>
<path style=" stroke:none;fill-rule:nonzero;fill:rgb(12.156863%,12.941176%,16.862745%);fill-opacity:1;" d="M 66.429688 77.652344 L 33.105469 77.652344 C 27.128906 77.652344 22.269531 72.792969 22.269531 66.816406 L 22.269531 33.488281 C 22.269531 27.515625 27.128906 22.652344 33.105469 22.652344 L 66.769531 22.652344 C 67.042969 22.652344 67.269531 22.878906 67.269531 23.152344 C 67.269531 23.429688 67.042969 23.652344 66.769531 23.652344 L 33.105469 23.652344 C 27.679688 23.652344 23.269531 28.066406 23.269531 33.488281 L 23.269531 66.816406 C 23.269531 72.238281 27.679688 76.652344 33.105469 76.652344 L 66.429688 76.652344 C 71.855469 76.652344 76.269531 72.238281 76.269531 66.816406 L 76.269531 48.152344 C 76.269531 47.878906 76.492188 47.652344 76.769531 47.652344 C 77.042969 47.652344 77.269531 47.878906 77.269531 48.152344 L 77.269531 66.816406 C 77.269531 72.792969 72.40625 77.652344 66.429688 77.652344 Z M 66.429688 77.652344 "/>
<path style=" stroke:none;fill-rule:nonzero;fill:rgb(12.156863%,12.941176%,16.862745%);fill-opacity:1;" d="M 76.769531 46.652344 C 76.492188 46.652344 76.269531 46.429688 76.269531 46.152344 L 76.269531 42.152344 C 76.269531 41.878906 76.492188 41.652344 76.769531 41.652344 C 77.042969 41.652344 77.269531 41.878906 77.269531 42.152344 L 77.269531 46.152344 C 77.269531 46.429688 77.042969 46.652344 76.769531 46.652344 Z M 76.769531 40.652344 C 76.492188 40.652344 76.269531 40.429688 76.269531 40.152344 L 76.269531 38.152344 C 76.269531 37.878906 76.492188 37.652344 76.769531 37.652344 C 77.042969 37.652344 77.269531 37.878906 77.269531 38.152344 L 77.269531 40.152344 C 77.269531 40.429688 77.042969 40.652344 76.769531 40.652344 Z M 76.769531 40.652344 "/>
<path style=" stroke:none;fill-rule:nonzero;fill:rgb(22.352941%,75.686275%,84.313725%);fill-opacity:1;" d="M 65.394531 53.3125 C 65.628906 52.25 65.757812 51.148438 65.757812 50.015625 C 65.757812 41.535156 58.78125 34.664062 50.175781 34.664062 C 49.261719 34.664062 48.375 34.742188 47.507812 34.886719 C 46.117188 34.023438 44.46875 33.523438 42.699219 33.523438 C 37.710938 33.523438 33.664062 37.507812 33.664062 42.425781 C 33.664062 44.066406 34.121094 45.609375 34.90625 46.929688 C 34.699219 47.925781 34.59375 48.960938 34.59375 50.015625 C 34.59375 58.496094 41.566406 65.371094 50.175781 65.371094 C 51.148438 65.371094 52.101562 65.28125 53.027344 65.113281 C 54.296875 65.785156 55.753906 66.171875 57.300781 66.171875 C 62.289062 66.171875 66.335938 62.183594 66.335938 57.265625 C 66.335938 55.84375 65.996094 54.503906 65.394531 53.3125 Z M 65.394531 53.3125 "/>
<path style=" stroke:none;fill-rule:nonzero;fill:rgb(12.156863%,12.941176%,16.862745%);fill-opacity:1;" d="M 57.300781 66.671875 C 55.785156 66.671875 54.285156 66.3125 52.945312 65.636719 C 52.035156 65.792969 51.105469 65.871094 50.175781 65.871094 C 41.308594 65.871094 34.09375 58.757812 34.09375 50.015625 C 34.09375 49.007812 34.1875 47.996094 34.378906 47.015625 C 33.582031 45.617188 33.164062 44.03125 33.164062 42.425781 C 33.164062 37.242188 37.441406 33.023438 42.699219 33.023438 C 44.4375 33.023438 46.128906 33.484375 47.609375 34.363281 C 48.453125 34.230469 49.316406 34.164062 50.171875 34.164062 C 59.039062 34.164062 66.253906 41.277344 66.253906 50.019531 C 66.253906 51.101562 66.140625 52.1875 65.914062 53.246094 C 66.523438 54.507812 66.832031 55.859375 66.832031 57.265625 C 66.835938 62.453125 62.558594 66.671875 57.300781 66.671875 Z M 53.027344 64.613281 C 53.105469 64.613281 53.1875 64.632812 53.261719 64.671875 C 54.492188 65.324219 55.890625 65.671875 57.300781 65.671875 C 62.007812 65.671875 65.835938 61.902344 65.835938 57.265625 C 65.835938 55.957031 65.535156 54.703125 64.945312 53.539062 C 64.894531 53.433594 64.878906 53.316406 64.902344 53.203125 C 65.136719 52.160156 65.257812 51.089844 65.257812 50.019531 C 65.257812 41.828125 58.488281 35.164062 50.175781 35.164062 C 49.3125 35.164062 48.441406 35.238281 47.59375 35.382812 C 47.472656 35.402344 47.347656 35.378906 47.242188 35.3125 C 45.886719 34.46875 44.3125 34.023438 42.699219 34.023438 C 37.992188 34.023438 34.164062 37.792969 34.164062 42.425781 C 34.164062 43.917969 34.570312 45.386719 35.335938 46.675781 C 35.398438 46.78125 35.421875 46.910156 35.394531 47.03125 C 35.195312 48.007812 35.09375 49.011719 35.09375 50.019531 C 35.09375 58.210938 41.859375 64.871094 50.175781 64.871094 C 51.101562 64.871094 52.03125 64.789062 52.9375 64.621094 C 52.964844 64.613281 52.996094 64.613281 53.027344 64.613281 Z M 53.027344 64.613281 "/>
<path style=" stroke:none;fill-rule:nonzero;fill:rgb(99.215686%,98.823529%,93.333333%);fill-opacity:1;" d="M 45.859375 40.359375 C 44.691406 40.835938 43.777344 41.535156 43.15625 42.433594 C 42.527344 43.339844 42.210938 44.390625 42.210938 45.554688 C 42.210938 46.773438 42.511719 47.816406 43.109375 48.640625 C 43.699219 49.457031 44.503906 50.109375 45.503906 50.578125 C 46.480469 51.039062 47.707031 51.445312 49.15625 51.789062 C 50.21875 52.035156 51.074219 52.269531 51.710938 52.488281 C 52.316406 52.699219 52.816406 53.003906 53.195312 53.394531 C 53.558594 53.769531 53.734375 54.25 53.734375 54.859375 C 53.734375 55.628906 53.398438 56.257812 52.703125 56.78125 C 51.992188 57.316406 51.050781 57.589844 49.894531 57.589844 C 49.058594 57.589844 48.378906 57.453125 47.875 57.191406 C 47.371094 56.925781 46.980469 56.589844 46.707031 56.191406 C 46.425781 55.773438 46.152344 55.246094 45.90625 54.621094 C 45.6875 54.046875 45.410156 53.601562 45.089844 53.304688 C 44.753906 52.988281 44.339844 52.828125 43.863281 52.828125 C 43.28125 52.828125 42.792969 53.03125 42.410156 53.429688 C 42.023438 53.828125 41.828125 54.320312 41.828125 54.882812 C 41.828125 55.785156 42.128906 56.726562 42.722656 57.667969 C 43.304688 58.605469 44.078125 59.363281 45.011719 59.921875 C 46.320312 60.6875 48 61.078125 50 61.078125 C 51.664062 61.078125 53.128906 60.792969 54.351562 60.230469 C 55.585938 59.664062 56.539062 58.867188 57.183594 57.855469 C 57.828125 56.84375 58.15625 55.6875 58.15625 54.414062 C 58.15625 53.355469 57.96875 52.441406 57.589844 51.703125 C 57.21875 50.964844 56.6875 50.347656 56.023438 49.867188 C 55.367188 49.398438 54.566406 48.992188 53.636719 48.664062 C 52.722656 48.339844 51.6875 48.039062 50.558594 47.769531 C 49.667969 47.542969 49.015625 47.367188 48.628906 47.25 C 48.253906 47.132812 47.875 46.972656 47.511719 46.769531 C 47.15625 46.574219 46.875 46.335938 46.679688 46.070312 C 46.492188 45.816406 46.398438 45.523438 46.398438 45.171875 C 46.398438 44.597656 46.683594 44.117188 47.265625 43.695312 C 47.867188 43.257812 48.679688 43.035156 49.675781 43.035156 C 50.753906 43.035156 51.535156 43.234375 52.003906 43.628906 C 52.488281 44.03125 52.90625 44.609375 53.253906 45.339844 C 53.554688 45.910156 53.824219 46.308594 54.085938 46.566406 C 54.367188 46.839844 54.769531 46.976562 55.285156 46.976562 C 55.851562 46.976562 56.332031 46.757812 56.714844 46.316406 C 57.09375 45.882812 57.285156 45.382812 57.285156 44.828125 C 57.285156 44.257812 57.140625 43.664062 56.851562 43.070312 C 56.5625 42.484375 56.105469 41.917969 55.496094 41.386719 C 54.886719 40.863281 54.113281 40.433594 53.195312 40.117188 C 52.28125 39.804688 51.1875 39.644531 49.945312 39.644531 C 48.390625 39.644531 47.015625 39.886719 45.859375 40.359375 Z M 45.859375 40.359375 "/>
<path style=" stroke:none;fill-rule:nonzero;fill:rgb(12.156863%,12.941176%,16.862745%);fill-opacity:1;" d="M 50 61.578125 C 47.90625 61.578125 46.144531 61.164062 44.757812 60.351562 C 43.75 59.75 42.921875 58.9375 42.296875 57.933594 C 41.652344 56.910156 41.328125 55.882812 41.328125 54.882812 C 41.328125 54.1875 41.570312 53.578125 42.046875 53.082031 C 42.527344 52.582031 43.136719 52.328125 43.859375 52.328125 C 44.464844 52.328125 45.007812 52.539062 45.429688 52.9375 C 45.804688 53.285156 46.121094 53.792969 46.371094 54.441406 C 46.601562 55.027344 46.851562 55.523438 47.117188 55.910156 C 47.347656 56.242188 47.679688 56.523438 48.105469 56.746094 C 48.539062 56.976562 49.144531 57.089844 49.894531 57.089844 C 50.933594 57.089844 51.777344 56.851562 52.398438 56.382812 C 52.96875 55.953125 53.230469 55.46875 53.230469 54.859375 C 53.230469 54.378906 53.105469 54.023438 52.835938 53.742188 C 52.511719 53.40625 52.078125 53.144531 51.546875 52.960938 C 50.929688 52.746094 50.089844 52.515625 49.039062 52.273438 C 47.5625 51.925781 46.304688 51.507812 45.289062 51.03125 C 44.214844 50.523438 43.34375 49.816406 42.703125 48.933594 C 42.042969 48.019531 41.710938 46.882812 41.710938 45.550781 C 41.710938 44.28125 42.058594 43.136719 42.746094 42.148438 C 43.421875 41.167969 44.40625 40.410156 45.667969 39.894531 C 46.882812 39.394531 48.316406 39.144531 49.933594 39.144531 C 49.9375 39.144531 49.941406 39.144531 49.945312 39.144531 C 51.242188 39.144531 52.390625 39.3125 53.359375 39.644531 C 54.332031 39.980469 55.160156 40.4375 55.820312 41.007812 C 56.484375 41.582031 56.984375 42.203125 57.300781 42.851562 C 57.621094 43.515625 57.785156 44.179688 57.785156 44.828125 C 57.785156 45.503906 57.550781 46.113281 57.089844 46.644531 C 56.617188 47.1875 55.992188 47.476562 55.285156 47.476562 C 54.632812 47.476562 54.113281 47.289062 53.734375 46.921875 C 53.433594 46.625 53.128906 46.183594 52.808594 45.570312 C 52.484375 44.886719 52.105469 44.367188 51.683594 44.011719 C 51.3125 43.699219 50.617188 43.535156 49.675781 43.535156 C 48.785156 43.535156 48.070312 43.722656 47.558594 44.097656 C 46.96875 44.527344 46.898438 44.914062 46.898438 45.171875 C 46.898438 45.414062 46.957031 45.605469 47.078125 45.769531 C 47.234375 45.980469 47.460938 46.167969 47.753906 46.328125 C 48.085938 46.515625 48.433594 46.664062 48.777344 46.769531 C 49.15625 46.886719 49.800781 47.058594 50.679688 47.285156 C 51.828125 47.558594 52.882812 47.863281 53.804688 48.191406 C 54.773438 48.53125 55.617188 48.960938 56.3125 49.460938 C 57.042969 49.988281 57.625 50.667969 58.035156 51.472656 C 58.445312 52.28125 58.65625 53.269531 58.65625 54.414062 C 58.65625 55.78125 58.300781 57.03125 57.601562 58.121094 C 56.910156 59.210938 55.886719 60.070312 54.5625 60.683594 C 53.273438 61.277344 51.738281 61.578125 50 61.578125 Z M 43.859375 53.328125 C 43.414062 53.328125 43.054688 53.476562 42.769531 53.773438 C 42.472656 54.085938 42.328125 54.445312 42.328125 54.882812 C 42.328125 55.691406 42.601562 56.539062 43.144531 57.402344 C 43.683594 58.269531 44.398438 58.972656 45.269531 59.488281 C 46.496094 60.210938 48.089844 60.578125 50 60.578125 C 51.59375 60.578125 52.984375 60.308594 54.144531 59.777344 C 55.289062 59.246094 56.171875 58.511719 56.757812 57.585938 C 57.355469 56.65625 57.65625 55.589844 57.65625 54.414062 C 57.65625 53.433594 57.484375 52.597656 57.144531 51.929688 C 56.804688 51.265625 56.328125 50.707031 55.726562 50.273438 C 55.109375 49.828125 54.351562 49.445312 53.46875 49.136719 C 52.582031 48.820312 51.5625 48.523438 50.441406 48.257812 C 49.53125 48.023438 48.875 47.847656 48.480469 47.726562 C 48.070312 47.601562 47.660156 47.425781 47.265625 47.207031 C 46.847656 46.976562 46.515625 46.691406 46.273438 46.367188 C 46.023438 46.027344 45.898438 45.636719 45.898438 45.171875 C 45.898438 44.441406 46.257812 43.808594 46.96875 43.292969 C 47.65625 42.789062 48.566406 42.535156 49.675781 42.535156 C 50.871094 42.535156 51.761719 42.777344 52.320312 43.246094 C 52.859375 43.695312 53.320312 44.328125 53.703125 45.125 C 53.960938 45.621094 54.210938 45.988281 54.433594 46.210938 C 54.617188 46.386719 54.902344 46.480469 55.285156 46.480469 C 55.703125 46.480469 56.046875 46.320312 56.332031 45.992188 C 56.636719 45.644531 56.785156 45.265625 56.785156 44.832031 C 56.785156 44.335938 56.652344 43.820312 56.398438 43.292969 C 56.140625 42.765625 55.726562 42.253906 55.164062 41.769531 C 54.601562 41.28125 53.882812 40.886719 53.03125 40.59375 C 52.171875 40.296875 51.128906 40.148438 49.941406 40.148438 C 49.9375 40.148438 49.9375 40.148438 49.933594 40.148438 C 48.445312 40.148438 47.140625 40.375 46.046875 40.820312 C 44.964844 41.265625 44.132812 41.902344 43.566406 42.71875 C 42.996094 43.539062 42.707031 44.492188 42.707031 45.554688 C 42.707031 46.671875 42.980469 47.609375 43.515625 48.347656 C 44.054688 49.097656 44.792969 49.695312 45.714844 50.128906 C 46.664062 50.574219 47.859375 50.96875 49.269531 51.300781 C 50.347656 51.550781 51.226562 51.792969 51.871094 52.015625 C 52.554688 52.25 53.121094 52.597656 53.558594 53.050781 C 54.003906 53.515625 54.234375 54.125 54.234375 54.859375 C 54.234375 55.78125 53.820312 56.5625 53.003906 57.179688 C 52.203125 57.785156 51.15625 58.089844 49.894531 58.089844 C 48.980469 58.089844 48.222656 57.9375 47.644531 57.632812 C 47.070312 57.332031 46.617188 56.941406 46.292969 56.472656 C 45.984375 56.023438 45.699219 55.460938 45.441406 54.804688 C 45.242188 54.296875 45.011719 53.914062 44.746094 53.667969 C 44.503906 53.441406 44.214844 53.328125 43.859375 53.328125 Z M 45.859375 40.359375 L 45.871094 40.359375 Z M 45.859375 40.359375 "/>
</g>
</svg>
