<?xml version="1.0" encoding="UTF-8"?>
<svg xmlns="http://www.w3.org/2000/svg" xmlns:xlink="http://www.w3.org/1999/xlink" width="100pt" height="100pt" viewBox="0 0 100 100" version="1.1">
<g id="surface497">
<path style=" stroke:none;fill-rule:nonzero;fill:rgb(47.058824%,63.529412%,82.352941%);fill-opacity:1;" d="M 50 15 C 30.671875 15 15 30.671875 15 50 C 15 69.328125 30.671875 85 50 85 C 69.328125 85 85 69.328125 85 50 C 85 30.671875 69.328125 15 50 15 Z M 50 15 "/>
<path style=" stroke:none;fill-rule:nonzero;fill:rgb(99.607843%,99.215686%,93.72549%);fill-opacity:1;" d="M 50 20 C 33.457031 20 20 33.457031 20 50 C 20 66.542969 33.457031 80 50 80 C 53.78125 80 57.46875 79.304688 60.960938 77.933594 L 58.039062 70.488281 C 55.480469 71.492188 52.773438 72 50 72 C 37.867188 72 28 62.132812 28 50 C 28 37.867188 37.867188 28 50 28 C 62.132812 28 72 37.867188 72 50 L 72 53 C 72 54.929688 70.429688 56.5 68.5 56.5 C 66.570312 56.5 65 54.929688 65 53 L 65 50 C 65 41.730469 58.269531 35 50 35 C 41.730469 35 35 41.730469 35 50 C 35 58.269531 41.730469 65 50 65 C 53.824219 65 57.4375 63.570312 60.226562 60.964844 C 62.394531 63.21875 65.382812 64.5 68.5 64.5 C 74.839844 64.5 80 59.339844 80 53 L 80 50 C 80 33.457031 66.542969 20 50 20 Z M 50 57 C 46.140625 57 43 53.859375 43 50 C 43 46.140625 46.140625 43 50 43 C 53.859375 43 57 46.140625 57 50 C 57 53.859375 53.859375 57 50 57 Z M 50 57 "/>
<path style=" stroke:none;fill-rule:nonzero;fill:rgb(12.156863%,12.941176%,16.862745%);fill-opacity:1;" d="M 50 86 C 30.148438 86 14 69.851562 14 50 C 14 30.148438 30.148438 14 50 14 C 69.851562 14 86 30.148438 86 50 C 86 69.851562 69.851562 86 50 86 Z M 50 16 C 31.253906 16 16 31.253906 16 50 C 16 68.746094 31.253906 84 50 84 C 68.746094 84 84 68.746094 84 50 C 84 31.253906 68.746094 16 50 16 Z M 50 16 "/>
<path style=" stroke:none;fill-rule:nonzero;fill:rgb(12.156863%,12.941176%,16.862745%);fill-opacity:1;" d="M 50 80 C 49.488281 80 48.980469 79.988281 48.476562 79.960938 C 48.199219 79.949219 47.988281 79.714844 48 79.4375 C 48.015625 79.160156 48.226562 78.953125 48.523438 78.964844 C 49.015625 78.988281 49.507812 79 50 79 L 50.492188 78.996094 C 50.496094 78.996094 50.496094 78.996094 50.5 78.996094 C 50.773438 78.996094 50.996094 79.214844 51 79.488281 C 51.003906 79.765625 50.78125 79.992188 50.507812 79.996094 Z M 52.5 79.894531 C 52.242188 79.894531 52.023438 79.699219 52.003906 79.4375 C 51.980469 79.164062 52.183594 78.921875 52.457031 78.898438 C 55.085938 78.679688 57.664062 78.101562 60.128906 77.179688 L 57.9375 71.59375 C 55.398438 72.527344 52.730469 73 50 73 C 37.316406 73 27 62.683594 27 50 C 27 44.582031 28.925781 39.320312 32.425781 35.175781 C 32.605469 34.964844 32.921875 34.941406 33.132812 35.117188 C 33.34375 35.296875 33.367188 35.613281 33.191406 35.824219 C 29.84375 39.785156 28 44.820312 28 50 C 28 62.132812 37.867188 72 50 72 C 52.773438 72 55.480469 71.492188 58.039062 70.488281 C 58.292969 70.386719 58.585938 70.511719 58.6875 70.769531 L 61.246094 77.285156 C 61.292969 77.410156 61.289062 77.546875 61.238281 77.667969 C 61.183594 77.789062 61.085938 77.886719 60.960938 77.933594 C 58.265625 78.992188 55.433594 79.652344 52.542969 79.894531 C 52.527344 79.894531 52.515625 79.894531 52.5 79.894531 Z M 45.5 79.65625 C 45.476562 79.65625 45.449219 79.65625 45.425781 79.652344 C 30.929688 77.425781 20 64.675781 20 50 C 20 33.457031 33.457031 20 50 20 C 66.542969 20 80 33.457031 80 50 L 80 53 C 80 59.339844 74.839844 64.5 68.5 64.5 C 65.382812 64.5 62.394531 63.21875 60.226562 60.964844 C 57.4375 63.570312 53.824219 65 50 65 C 41.730469 65 35 58.269531 35 50 C 35 41.730469 41.730469 35 50 35 C 53.414062 35 56.636719 36.121094 59.3125 38.246094 C 59.527344 38.421875 59.5625 38.734375 59.390625 38.949219 C 59.21875 39.167969 58.90625 39.203125 58.691406 39.03125 C 56.191406 37.046875 53.1875 36 50 36 C 42.28125 36 36 42.28125 36 50 C 36 57.71875 42.28125 64 50 64 C 53.734375 64 57.246094 62.542969 59.894531 59.894531 C 59.992188 59.800781 60.136719 59.742188 60.261719 59.75 C 60.402344 59.753906 60.53125 59.816406 60.621094 59.917969 C 62.625 62.195312 65.496094 63.5 68.5 63.5 C 74.289062 63.5 79 58.789062 79 53 L 79 50 C 79 34.007812 65.988281 21 50 21 C 34.011719 21 21 34.007812 21 50 C 21 64.1875 31.566406 76.511719 45.574219 78.664062 C 45.847656 78.703125 46.035156 78.960938 45.992188 79.234375 C 45.957031 79.480469 45.742188 79.65625 45.5 79.65625 Z M 50 58 C 45.589844 58 42 54.410156 42 50 C 42 45.589844 45.589844 42 50 42 C 54.410156 42 58 45.589844 58 50 C 58 54.410156 54.410156 58 50 58 Z M 50 43 C 46.140625 43 43 46.140625 43 50 C 43 53.859375 46.140625 57 50 57 C 53.859375 57 57 53.859375 57 50 C 57 46.140625 53.859375 43 50 43 Z M 68.5 57.5 C 66.019531 57.5 64 55.480469 64 53 L 64 50 C 64 48.859375 63.859375 47.722656 63.589844 46.621094 C 63.523438 46.351562 63.683594 46.082031 63.953125 46.015625 C 64.222656 45.949219 64.492188 46.113281 64.558594 46.378906 C 64.851562 47.558594 65 48.777344 65 50 L 65 53 C 65 54.929688 66.570312 56.5 68.5 56.5 C 70.429688 56.5 72 54.929688 72 53 L 72 50 C 72 37.867188 62.132812 28 50 28 C 46.757812 28 43.632812 28.691406 40.710938 30.058594 C 40.464844 30.175781 40.164062 30.066406 40.046875 29.816406 C 39.929688 29.566406 40.039062 29.269531 40.289062 29.152344 C 43.34375 27.722656 46.609375 27 50 27 C 62.683594 27 73 37.316406 73 50 L 73 53 C 73 55.480469 70.980469 57.5 68.5 57.5 Z M 63.417969 45 C 63.222656 45 63.035156 44.882812 62.953125 44.691406 C 62.820312 44.363281 62.671875 44.039062 62.515625 43.722656 C 62.390625 43.476562 62.488281 43.175781 62.734375 43.054688 C 62.980469 42.929688 63.28125 43.027344 63.40625 43.273438 C 63.578125 43.613281 63.734375 43.957031 63.878906 44.308594 C 63.984375 44.5625 63.863281 44.855469 63.609375 44.960938 C 63.546875 44.988281 63.480469 45 63.417969 45 Z M 61.738281 42 C 61.585938 42 61.433594 41.929688 61.335938 41.792969 C 61.09375 41.460938 60.839844 41.136719 60.566406 40.828125 C 60.386719 40.621094 60.410156 40.304688 60.617188 40.121094 C 60.824219 39.941406 61.140625 39.964844 61.320312 40.171875 C 61.609375 40.503906 61.886719 40.847656 62.144531 41.203125 C 62.304688 41.429688 62.257812 41.742188 62.035156 41.902344 C 61.945312 41.96875 61.84375 42 61.738281 42 Z M 61.738281 42 "/>
</g>
</svg>
