<?xml version="1.0" encoding="UTF-8"?>
<svg xmlns="http://www.w3.org/2000/svg" xmlns:xlink="http://www.w3.org/1999/xlink" width="100pt" height="100pt" viewBox="0 0 100 100" version="1.1">
<g id="surface387">
<path style=" stroke:none;fill-rule:nonzero;fill:rgb(99.607843%,96.470588%,66.666667%);fill-opacity:1;" d="M 59.886719 70.332031 C 61.917969 69.054688 62.761719 66.09375 62.308594 64.566406 L 61.769531 60.152344 C 69.777344 56.046875 75.6875 47.769531 75.6875 38.15625 C 75.6875 24.476562 64.179688 13.34375 50.496094 13.34375 C 36.816406 13.34375 25.730469 24.433594 25.730469 38.113281 C 25.730469 47.730469 31.21875 56.046875 39.226562 60.152344 L 38.6875 64.566406 C 38.6875 67.132812 40.359375 69.328125 42.671875 70.117188 "/>
<path style=" stroke:none;fill-rule:nonzero;fill:rgb(12.156863%,12.941176%,16.862745%);fill-opacity:1;" d="M 59.890625 71.332031 C 59.558594 71.332031 59.230469 71.164062 59.039062 70.863281 C 58.746094 70.394531 58.886719 69.777344 59.355469 69.484375 C 60.976562 68.464844 61.683594 65.972656 61.351562 64.851562 C 61.335938 64.796875 61.324219 64.742188 61.316406 64.6875 L 60.777344 60.273438 C 60.722656 59.855469 60.9375 59.453125 61.3125 59.261719 C 69.4375 55.097656 74.6875 46.8125 74.6875 38.15625 C 74.6875 25.027344 63.835938 14.34375 50.496094 14.34375 C 37.390625 14.34375 26.726562 25.007812 26.726562 38.113281 C 26.726562 47.0625 31.691406 55.167969 39.683594 59.261719 C 40.054688 59.453125 40.269531 59.855469 40.21875 60.273438 L 39.683594 64.625 C 39.707031 66.679688 41.03125 68.503906 42.992188 69.171875 C 43.515625 69.347656 43.796875 69.914062 43.617188 70.4375 C 43.441406 70.960938 42.878906 71.242188 42.347656 71.0625 C 39.558594 70.113281 37.683594 67.503906 37.683594 64.566406 C 37.683594 64.523438 37.6875 64.484375 37.691406 64.445312 L 38.148438 60.714844 C 29.851562 56.179688 24.726562 47.582031 24.726562 38.113281 C 24.726562 23.90625 36.289062 12.34375 50.496094 12.34375 C 64.9375 12.34375 76.6875 23.921875 76.6875 38.15625 C 76.6875 47.332031 71.277344 56.113281 62.84375 60.714844 L 63.292969 64.371094 C 63.839844 66.410156 62.746094 69.714844 60.417969 71.179688 C 60.253906 71.28125 60.070312 71.332031 59.890625 71.332031 Z M 59.890625 71.332031 "/>
<path style=" stroke:none;fill-rule:nonzero;fill:rgb(12.156863%,12.941176%,16.862745%);fill-opacity:1;" d="M 47.542969 67.738281 C 47.527344 67.738281 47.511719 67.738281 47.496094 67.738281 C 47.222656 67.714844 47.019531 67.46875 47.042969 67.195312 C 47.566406 61.296875 47.144531 56.566406 45.683594 52.476562 C 44.121094 52.898438 42.480469 52.671875 41.253906 51.785156 C 40.164062 50.996094 39.503906 49.921875 39.4375 48.839844 C 39.382812 47.9375 39.738281 47.105469 40.46875 46.429688 C 40.839844 46.085938 41.238281 45.875 41.648438 45.808594 C 42.601562 45.644531 43.613281 46.257812 44.34375 47.433594 C 45.097656 48.640625 45.738281 49.890625 46.265625 51.199219 C 46.539062 51.074219 46.800781 50.921875 47.050781 50.746094 C 47.40625 50.496094 47.722656 50.21875 48.007812 49.914062 C 48.007812 49.914062 48.007812 49.914062 48.003906 49.914062 C 47.117188 48.835938 46.945312 47.3125 47.496094 45.394531 C 47.734375 44.5625 48.507812 43.765625 49.289062 43.542969 C 49.800781 43.398438 50.285156 43.5 50.652344 43.832031 C 51.179688 44.3125 51.308594 45.089844 51.039062 46.148438 C 50.761719 47.242188 50.261719 48.601562 49.386719 49.8125 C 50.179688 50.328125 51.34375 50.550781 52.699219 50.4375 C 53.816406 50.34375 54.851562 49.832031 55.648438 48.992188 C 54.265625 48.074219 53.632812 46.824219 53.898438 45.472656 C 54.070312 44.601562 54.847656 43.675781 55.710938 43.324219 C 56.273438 43.09375 56.824219 43.132812 57.261719 43.433594 C 57.855469 43.839844 57.925781 44.523438 57.984375 45.078125 C 58.113281 46.316406 57.8125 47.585938 57.152344 48.671875 C 57.542969 48.839844 57.949219 48.976562 58.351562 49.085938 C 59.277344 47.332031 60.238281 46.070312 61.144531 45.722656 C 61.566406 45.558594 62.378906 45.429688 63.089844 46.402344 C 64.175781 47.886719 63.878906 48.832031 63.4375 49.363281 C 62.644531 50.324219 60.753906 50.539062 58.898438 50.214844 C 56.496094 55.253906 54.160156 64.074219 54.453125 66.882812 C 54.484375 67.15625 54.285156 67.402344 54.011719 67.429688 C 53.746094 67.460938 53.488281 67.261719 53.460938 66.984375 C 53.164062 64.152344 55.324219 55.371094 57.898438 49.988281 C 57.425781 49.855469 56.96875 49.6875 56.546875 49.492188 C 55.558594 50.621094 54.230469 51.3125 52.785156 51.433594 C 51.152344 51.570312 49.738281 51.265625 48.746094 50.589844 C 48.417969 50.941406 48.046875 51.273438 47.628906 51.566406 C 47.308594 51.789062 46.972656 51.980469 46.625 52.136719 C 48.140625 56.363281 48.574219 61.230469 48.039062 67.28125 C 48.015625 67.542969 47.796875 67.738281 47.542969 67.738281 Z M 41.953125 46.78125 C 41.90625 46.78125 41.859375 46.785156 41.808594 46.796875 C 41.597656 46.832031 41.371094 46.953125 41.144531 47.164062 C 40.636719 47.636719 40.398438 48.179688 40.433594 48.777344 C 40.480469 49.5625 40.996094 50.363281 41.839844 50.972656 C 42.777344 51.652344 44.078125 51.832031 45.320312 51.53125 C 44.8125 50.289062 44.207031 49.105469 43.496094 47.960938 C 43.132812 47.375 42.546875 46.78125 41.953125 46.78125 Z M 59.363281 49.285156 C 60.878906 49.492188 62.21875 49.265625 62.667969 48.722656 C 63.054688 48.257812 62.671875 47.523438 62.28125 46.992188 C 61.960938 46.554688 61.722656 46.570312 61.503906 46.65625 C 60.851562 46.90625 60.113281 47.882812 59.363281 49.285156 Z M 49.734375 44.480469 C 49.6875 44.480469 49.628906 44.488281 49.5625 44.507812 C 49.109375 44.636719 48.601562 45.167969 48.460938 45.667969 C 48.035156 47.152344 48.101562 48.308594 48.652344 49.117188 C 49.394531 48.054688 49.824219 46.867188 50.070312 45.902344 C 50.1875 45.441406 50.269531 44.835938 49.980469 44.574219 C 49.945312 44.542969 49.878906 44.480469 49.734375 44.480469 Z M 56.421875 44.175781 C 56.320312 44.175781 56.210938 44.199219 56.085938 44.25 C 55.539062 44.476562 54.984375 45.121094 54.878906 45.667969 C 54.644531 46.851562 55.464844 47.683594 56.265625 48.199219 C 56.835938 47.289062 57.097656 46.222656 56.992188 45.1875 C 56.941406 44.710938 56.894531 44.390625 56.695312 44.257812 C 56.617188 44.203125 56.527344 44.175781 56.421875 44.175781 Z M 56.421875 44.175781 "/>
<path style=" stroke:none;fill-rule:nonzero;fill:rgb(56.078431%,61.960784%,71.372549%);fill-opacity:1;" d="M 57.226562 76.613281 L 43.59375 76.613281 C 42.019531 76.613281 40.730469 75.265625 40.730469 73.613281 C 40.730469 71.964844 42.019531 70.613281 43.59375 70.613281 L 57.917969 70.613281 C 59.488281 70.613281 60.777344 71.964844 60.777344 73.613281 C 60.777344 74.507812 60.777344 74.507812 60.179688 75.335938 "/>
<path style=" stroke:none;fill-rule:nonzero;fill:rgb(12.156863%,12.941176%,16.862745%);fill-opacity:1;" d="M 57.226562 77.613281 L 43.59375 77.613281 C 41.464844 77.613281 39.730469 75.820312 39.730469 73.613281 C 39.730469 71.40625 41.464844 69.613281 43.59375 69.613281 L 57.917969 69.613281 C 60.046875 69.613281 61.777344 71.40625 61.777344 73.613281 C 61.777344 74.765625 61.6875 74.957031 60.988281 75.921875 C 60.664062 76.367188 60.039062 76.46875 59.59375 76.144531 C 59.144531 75.820312 59.046875 75.195312 59.371094 74.75 C 59.777344 74.1875 59.777344 74.1875 59.777344 73.613281 C 59.777344 72.511719 58.941406 71.613281 57.917969 71.613281 L 43.59375 71.613281 C 42.566406 71.613281 41.730469 72.511719 41.730469 73.613281 C 41.730469 74.71875 42.566406 75.613281 43.59375 75.613281 L 57.230469 75.613281 C 57.78125 75.613281 58.230469 76.0625 58.230469 76.613281 C 58.230469 77.167969 57.78125 77.613281 57.226562 77.613281 Z M 57.226562 77.613281 "/>
<path style=" stroke:none;fill-rule:nonzero;fill:rgb(56.078431%,61.960784%,71.372549%);fill-opacity:1;" d="M 57.683594 82.613281 L 44.773438 82.613281 C 43.375 82.613281 42.226562 81.46875 42.226562 80.066406 L 42.226562 79.160156 C 42.226562 77.757812 43.375 76.613281 44.773438 76.613281 L 57.683594 76.613281 C 59.082031 76.613281 60.230469 77.757812 60.230469 79.160156 L 60.230469 80.066406 C 60.226562 81.46875 59.082031 82.613281 57.683594 82.613281 Z M 57.683594 82.613281 "/>
<path style=" stroke:none;fill-rule:nonzero;fill:rgb(12.156863%,12.941176%,16.862745%);fill-opacity:1;" d="M 57.679688 83.613281 L 44.773438 83.613281 C 42.820312 83.613281 41.226562 82.023438 41.226562 80.066406 L 41.226562 79.160156 C 41.226562 77.203125 42.820312 75.613281 44.773438 75.613281 L 57.679688 75.613281 C 59.636719 75.613281 61.226562 77.203125 61.226562 79.160156 L 61.226562 80.066406 C 61.226562 82.023438 59.636719 83.613281 57.679688 83.613281 Z M 44.773438 77.613281 C 43.921875 77.613281 43.226562 78.308594 43.226562 79.160156 L 43.226562 80.066406 C 43.226562 80.921875 43.921875 81.613281 44.773438 81.613281 L 57.679688 81.613281 C 58.535156 81.613281 59.226562 80.921875 59.226562 80.066406 L 59.226562 79.160156 C 59.226562 78.308594 58.535156 77.613281 57.679688 77.613281 Z M 44.773438 77.613281 "/>
<path style=" stroke:none;fill-rule:nonzero;fill:rgb(39.215686%,45.490196%,65.098039%);fill-opacity:1;" d="M 56.875 83.074219 C 56.875 85.90625 52.445312 86.625 51.128906 86.625 C 48.023438 86.625 45.507812 84.980469 45.507812 82.949219 "/>
<path style=" stroke:none;fill-rule:nonzero;fill:rgb(12.156863%,12.941176%,16.862745%);fill-opacity:1;" d="M 51.128906 87.625 C 47.414062 87.625 44.507812 85.570312 44.507812 82.949219 C 44.507812 82.394531 44.953125 81.949219 45.507812 81.949219 C 46.058594 81.949219 46.507812 82.394531 46.507812 82.949219 C 46.507812 84.398438 48.621094 85.625 51.128906 85.625 C 52.175781 85.625 55.875 85.015625 55.875 83.074219 C 55.875 82.519531 56.320312 82.074219 56.875 82.074219 C 57.425781 82.074219 57.875 82.519531 57.875 83.074219 C 57.875 86.511719 53.328125 87.625 51.128906 87.625 Z M 70.101562 38.738281 C 69.828125 38.738281 69.601562 38.515625 69.601562 38.238281 C 69.601562 36.558594 69.371094 34.894531 68.910156 33.296875 C 68.835938 33.027344 68.988281 32.753906 69.253906 32.675781 C 69.519531 32.597656 69.796875 32.753906 69.871094 33.019531 C 70.355469 34.707031 70.601562 36.464844 70.601562 38.238281 C 70.601562 38.515625 70.378906 38.738281 70.101562 38.738281 Z M 68.148438 30.480469 C 67.964844 30.480469 67.789062 30.382812 67.703125 30.207031 C 65.140625 25.121094 60.269531 21.53125 54.671875 20.605469 C 53.707031 20.445312 52.714844 20.363281 51.730469 20.363281 C 51.453125 20.363281 51.230469 20.140625 51.230469 19.863281 C 51.230469 19.589844 51.453125 19.363281 51.730469 19.363281 C 52.769531 19.363281 53.816406 19.449219 54.835938 19.617188 C 60.746094 20.597656 65.890625 24.386719 68.59375 29.757812 C 68.71875 30.003906 68.621094 30.304688 68.371094 30.429688 C 68.300781 30.464844 68.222656 30.480469 68.148438 30.480469 Z M 68.148438 30.480469 "/>
</g>
</svg>
