<?xml version="1.0" encoding="UTF-8"?>
<svg xmlns="http://www.w3.org/2000/svg" xmlns:xlink="http://www.w3.org/1999/xlink" width="100pt" height="100pt" viewBox="0 0 100 100" version="1.1">
<g id="surface477">
<path style=" stroke:none;fill-rule:nonzero;fill:rgb(37.647059%,74.509804%,57.254902%);fill-opacity:1;" d="M 35.808594 53 L 27.4375 53 C 26.609375 53 25.867188 53.511719 25.574219 54.285156 L 14.132812 84.285156 C 13.632812 85.59375 14.597656 87 15.996094 87 L 84.003906 87 C 85.402344 87 86.367188 85.59375 85.867188 84.285156 L 74.425781 54.285156 C 74.132812 53.511719 73.390625 53 72.5625 53 L 64.191406 53 "/>
<path style=" stroke:none;fill-rule:nonzero;fill:rgb(12.156863%,12.941176%,16.862745%);fill-opacity:1;" d="M 62.5 83 L 19.632812 83 C 19.46875 83 19.3125 82.917969 19.21875 82.785156 C 19.125 82.648438 19.105469 82.476562 19.164062 82.320312 L 28.695312 57.320312 C 28.769531 57.128906 28.957031 57 29.164062 57 L 33.5 57 C 33.777344 57 34 57.222656 34 57.5 C 34 57.777344 33.777344 58 33.5 58 L 29.507812 58 L 20.355469 82 L 62.5 82 C 62.777344 82 63 82.222656 63 82.5 C 63 82.777344 62.777344 83 62.5 83 Z M 62.5 83 "/>
<path style=" stroke:none;fill-rule:nonzero;fill:rgb(12.156863%,12.941176%,16.862745%);fill-opacity:1;" d="M 78.464844 78 C 78.261719 78 78.070312 77.878906 77.996094 77.679688 L 70.492188 58 L 66.5 58 C 66.222656 58 66 57.777344 66 57.5 C 66 57.222656 66.222656 57 66.5 57 L 70.835938 57 C 71.042969 57 71.230469 57.128906 71.304688 57.320312 L 78.929688 77.320312 C 79.027344 77.578125 78.898438 77.867188 78.640625 77.96875 C 78.582031 77.988281 78.523438 78 78.464844 78 Z M 78.464844 78 "/>
<path style=" stroke:none;fill-rule:nonzero;fill:rgb(12.156863%,12.941176%,16.862745%);fill-opacity:1;" d="M 69.5 83 L 64.5 83 C 64.222656 83 64 82.777344 64 82.5 C 64 82.222656 64.222656 82 64.5 82 L 69.5 82 C 69.777344 82 70 82.222656 70 82.5 C 70 82.777344 69.777344 83 69.5 83 Z M 69.5 83 "/>
<path style=" stroke:none;fill-rule:nonzero;fill:rgb(12.156863%,12.941176%,16.862745%);fill-opacity:1;" d="M 72.5 83 L 71.5 83 C 71.222656 83 71 82.777344 71 82.5 C 71 82.222656 71.222656 82 71.5 82 L 72.5 82 C 72.777344 82 73 82.222656 73 82.5 C 73 82.777344 72.777344 83 72.5 83 Z M 72.5 83 "/>
<path style=" stroke:none;fill-rule:nonzero;fill:rgb(12.156863%,12.941176%,16.862745%);fill-opacity:1;" d="M 84.003906 88 L 15.996094 88 C 15.011719 88 14.089844 87.515625 13.53125 86.703125 C 12.96875 85.890625 12.847656 84.851562 13.199219 83.929688 L 24.636719 53.929688 C 25.078125 52.773438 26.203125 52 27.4375 52 L 35.808594 52 L 35.808594 54 L 27.4375 54 C 27.023438 54 26.65625 54.253906 26.507812 54.644531 L 15.070312 84.644531 C 14.949219 84.957031 14.988281 85.292969 15.179688 85.570312 C 15.367188 85.84375 15.664062 86 15.996094 86 L 84.003906 86 C 84.335938 86 84.632812 85.84375 84.820312 85.570312 C 85.011719 85.292969 85.050781 84.953125 84.929688 84.640625 L 73.492188 54.640625 C 73.34375 54.253906 72.980469 54 72.5625 54 L 64.191406 54 L 64.191406 52 L 72.5625 52 C 73.796875 52 74.917969 52.773438 75.359375 53.929688 L 86.800781 83.929688 C 87.152344 84.851562 87.027344 85.890625 86.46875 86.703125 C 85.910156 87.515625 84.988281 88 84.003906 88 Z M 84.003906 88 "/>
<path style=" stroke:none;fill-rule:nonzero;fill:rgb(94.509804%,35.686275%,42.352941%);fill-opacity:1;" d="M 71 34 C 71 50 50 71 50 71 C 50 71 29 50 29 34 C 29 22.402344 38.402344 13 50 13 C 61.597656 13 71 22.402344 71 34 Z M 71 34 "/>
<path style=" stroke:none;fill-rule:nonzero;fill:rgb(99.607843%,99.215686%,93.72549%);fill-opacity:1;" d="M 61.5 34 C 61.5 40.351562 56.351562 45.5 50 45.5 C 43.648438 45.5 38.5 40.351562 38.5 34 C 38.5 27.648438 43.648438 22.5 50 22.5 C 56.351562 22.5 61.5 27.648438 61.5 34 Z M 61.5 34 "/>
<path style=" stroke:none;fill-rule:nonzero;fill:rgb(12.156863%,12.941176%,16.862745%);fill-opacity:1;" d="M 50 72 C 49.734375 72 49.480469 71.894531 49.292969 71.707031 C 48.425781 70.839844 28 50.226562 28 34 C 28 21.867188 37.867188 12 50 12 C 62.132812 12 72 21.867188 72 34 C 72 50.226562 51.574219 70.839844 50.707031 71.707031 C 50.519531 71.894531 50.265625 72 50 72 Z M 50 14 C 38.972656 14 30 22.972656 30 34 C 30 47.765625 46.367188 65.742188 50 69.5625 C 53.632812 65.742188 70 47.761719 70 34 C 70 22.972656 61.027344 14 50 14 Z M 50 14 "/>
<path style=" stroke:none;fill-rule:nonzero;fill:rgb(12.156863%,12.941176%,16.862745%);fill-opacity:1;" d="M 50 46 C 43.382812 46 38 40.617188 38 34 C 38 27.382812 43.382812 22 50 22 C 56.617188 22 62 27.382812 62 34 C 62 40.617188 56.617188 46 50 46 Z M 50 23 C 43.933594 23 39 27.933594 39 34 C 39 40.066406 43.933594 45 50 45 C 56.066406 45 61 40.066406 61 34 C 61 27.933594 56.066406 23 50 23 Z M 50 23 "/>
<path style=" stroke:none;fill-rule:nonzero;fill:rgb(12.156863%,12.941176%,16.862745%);fill-opacity:1;" d="M 50 50 C 41.179688 50 34 42.820312 34 34 C 34 25.179688 41.179688 18 50 18 C 52.320312 18 54.578125 18.5 56.710938 19.488281 C 56.960938 19.605469 57.070312 19.902344 56.953125 20.152344 C 56.839844 20.402344 56.539062 20.511719 56.289062 20.394531 C 54.289062 19.46875 52.175781 19 50 19 C 41.730469 19 35 25.730469 35 34 C 35 42.269531 41.730469 49 50 49 C 58.136719 49 64.714844 42.625 64.976562 34.484375 C 64.984375 34.210938 65.195312 33.964844 65.492188 34 C 65.765625 34.011719 65.984375 34.238281 65.976562 34.515625 C 65.695312 43.199219 58.679688 50 50 50 Z M 50 50 "/>
<path style=" stroke:none;fill-rule:nonzero;fill:rgb(12.156863%,12.941176%,16.862745%);fill-opacity:1;" d="M 62.230469 25 C 62.082031 25 61.933594 24.933594 61.835938 24.808594 C 60.808594 23.488281 59.59375 22.363281 58.226562 21.464844 C 57.996094 21.3125 57.929688 21.003906 58.082031 20.773438 C 58.230469 20.539062 58.542969 20.476562 58.773438 20.628906 C 60.234375 21.589844 61.53125 22.789062 62.621094 24.191406 C 62.792969 24.410156 62.753906 24.722656 62.535156 24.894531 C 62.445312 24.964844 62.335938 25 62.230469 25 Z M 62.230469 25 "/>
<path style=" stroke:none;fill-rule:nonzero;fill:rgb(12.156863%,12.941176%,16.862745%);fill-opacity:1;" d="M 64.476562 29 C 64.277344 29 64.085938 28.878906 64.011719 28.679688 C 63.886719 28.351562 63.75 28.027344 63.605469 27.710938 C 63.488281 27.460938 63.597656 27.164062 63.847656 27.046875 C 64.097656 26.933594 64.394531 27.039062 64.511719 27.289062 C 64.667969 27.628906 64.8125 27.972656 64.945312 28.320312 C 65.042969 28.578125 64.914062 28.867188 64.65625 28.96875 C 64.597656 28.988281 64.535156 29 64.476562 29 Z M 64.476562 29 "/>
</g>
</svg>
