<?xml version="1.0" encoding="UTF-8"?>
<svg xmlns="http://www.w3.org/2000/svg" xmlns:xlink="http://www.w3.org/1999/xlink" width="100pt" height="100pt" viewBox="0 0 100 100" version="1.1">
<g id="surface487">
<path style=" stroke:none;fill-rule:nonzero;fill:rgb(95.294118%,49.411765%,59.607843%);fill-opacity:1;" d="M 63.179688 31.648438 C 63.113281 31.824219 62.371094 33.941406 61.617188 37.464844 C 58.40625 33.511719 53.722656 31 48.5 31 C 38.851562 31 31 39.523438 31 50 C 31 60.476562 38.851562 69 48.5 69 C 53.808594 69 58.5625 66.410156 61.773438 62.347656 C 62.453125 63.796875 63.324219 65.042969 64.394531 66.070312 C 67.34375 68.902344 70.664062 69.019531 71.363281 69 C 79.648438 68.980469 85 61.527344 85 50 C 85 30.699219 69.300781 15 50 15 C 30.699219 15 15 30.699219 15 50 C 15 69.300781 30.699219 85 50 85 C 57.164062 85 66.425781 84.167969 74.539062 77.675781 L 70.792969 72.988281 C 65.597656 77.144531 59.183594 79 50 79 C 34.007812 79 21 65.992188 21 50 C 21 34.007812 34.007812 21 50 21 C 65.988281 21 79 34.007812 79 50 C 79 52.171875 78.628906 63 71.28125 63 C 70.738281 62.996094 66 62.675781 66 53 C 66 41.730469 68.796875 33.757812 68.820312 33.683594 Z M 48.5 63 C 42.160156 63 37 57.167969 37 50 C 37 42.832031 42.160156 37 48.5 37 C 54.839844 37 60 42.832031 60 50 C 60 57.167969 54.839844 63 48.5 63 Z M 48.5 63 "/>
<path style=" stroke:none;fill-rule:nonzero;fill:rgb(12.156863%,12.941176%,16.862745%);fill-opacity:1;" d="M 48.5 36 C 41.605469 36 36 42.28125 36 50 C 36 57.71875 41.605469 64 48.5 64 C 55.394531 64 61 57.71875 61 50 C 61 42.28125 55.394531 36 48.5 36 Z M 48.5 62 C 42.710938 62 38 56.617188 38 50 C 38 43.382812 42.710938 38 48.5 38 C 54.289062 38 59 43.382812 59 50 C 59 56.617188 54.289062 62 48.5 62 Z M 48.5 62 "/>
<path style=" stroke:none;fill-rule:nonzero;fill:rgb(12.156863%,12.941176%,16.862745%);fill-opacity:1;" d="M 69.160156 32.742188 L 63.515625 30.710938 C 62.996094 30.523438 62.425781 30.792969 62.238281 31.3125 C 62.210938 31.386719 61.6875 32.839844 61.070312 35.363281 C 57.660156 31.933594 53.171875 30 48.5 30 C 38.300781 30 30 38.972656 30 50 C 30 61.027344 38.300781 70 48.5 70 C 53.421875 70 58.113281 67.871094 61.582031 64.113281 C 62.1875 65.121094 62.898438 66.019531 63.703125 66.789062 C 67.007812 69.96875 70.695312 70.019531 71.367188 70 C 80.253906 69.980469 86 62.128906 86 50 C 86 30.148438 69.851562 14 50 14 C 30.148438 14 14 30.148438 14 50 C 14 69.851562 30.148438 86 50 86 C 57.324219 86 66.808594 85.144531 75.164062 78.457031 C 75.371094 78.289062 75.507812 78.050781 75.535156 77.785156 C 75.5625 77.523438 75.488281 77.257812 75.320312 77.050781 L 71.574219 72.367188 C 71.230469 71.933594 70.597656 71.863281 70.167969 72.210938 C 65.160156 76.214844 58.941406 78 50 78 C 34.5625 78 22 65.4375 22 50 C 22 34.5625 34.5625 22 50 22 C 65.4375 22 78 34.5625 78 50 C 78 52.003906 77.675781 62 71.289062 62 C 69.695312 61.988281 67 60.074219 67 53 C 67 42.027344 69.652344 34.335938 69.765625 34.015625 C 69.949219 33.496094 69.679688 32.929688 69.160156 32.742188 Z M 65 53 C 65 63.636719 70.628906 63.996094 71.28125 64 C 77.710938 64 80 56.769531 80 50 C 80 33.457031 66.542969 20 50 20 C 33.457031 20 20 33.457031 20 50 C 20 66.542969 33.457031 80 50 80 C 58.96875 80 65.386719 78.261719 70.625 74.382812 L 73.125 77.507812 C 65.441406 83.246094 56.765625 84 50 84 C 31.253906 84 16 68.746094 16 50 C 16 31.253906 31.253906 16 50 16 C 68.746094 16 84 31.253906 84 50 C 84 60.917969 79.039062 67.984375 71.332031 68 C 70.988281 68.003906 67.875 68.023438 65.089844 65.347656 C 64.121094 64.421875 63.3125 63.265625 62.679688 61.921875 C 62.53125 61.609375 62.234375 61.394531 61.890625 61.355469 C 61.539062 61.3125 61.203125 61.457031 60.988281 61.726562 C 57.839844 65.714844 53.285156 68 48.5 68 C 39.402344 68 32 59.925781 32 50 C 32 40.074219 39.402344 32 48.5 32 C 53.199219 32 57.695312 34.222656 60.839844 38.097656 C 61.085938 38.394531 61.480469 38.53125 61.851562 38.4375 C 62.226562 38.347656 62.515625 38.050781 62.597656 37.675781 C 63.054688 35.515625 63.515625 33.890625 63.808594 32.941406 L 67.578125 34.296875 C 66.835938 36.761719 65 43.78125 65 53 Z M 65 53 "/>
<path style=" stroke:none;fill-rule:nonzero;fill:rgb(12.156863%,12.941176%,16.862745%);fill-opacity:1;" d="M 64.6875 39.992188 C 64.71875 39.996094 64.75 40 64.78125 40 C 65.019531 40 65.226562 39.832031 65.273438 39.59375 C 65.410156 38.882812 65.550781 38.21875 65.6875 37.609375 C 65.746094 37.339844 65.578125 37.070312 65.308594 37.011719 C 65.039062 36.953125 64.769531 37.121094 64.710938 37.390625 C 64.570312 38.007812 64.429688 38.683594 64.292969 39.40625 C 64.238281 39.675781 64.417969 39.9375 64.6875 39.992188 Z M 63.949219 44.996094 C 63.96875 45 63.988281 45 64.007812 45 C 64.257812 45 64.472656 44.8125 64.503906 44.558594 C 64.628906 43.507812 64.773438 42.511719 64.921875 41.578125 C 64.964844 41.308594 64.78125 41.050781 64.507812 41.007812 C 64.230469 40.960938 63.976562 41.148438 63.933594 41.421875 C 63.78125 42.363281 63.636719 43.375 63.511719 44.441406 C 63.476562 44.714844 63.675781 44.964844 63.949219 44.996094 Z M 64.296875 46.546875 C 64.320312 46.269531 64.117188 46.027344 63.84375 46.003906 C 63.5625 45.980469 63.324219 46.179688 63.300781 46.453125 C 63.101562 48.636719 63 50.835938 63 53 C 63 65.539062 70.425781 65.988281 71.273438 66 C 71.277344 66 71.277344 66 71.28125 66 C 71.554688 66 71.777344 65.78125 71.78125 65.507812 C 71.78125 65.230469 71.5625 65.003906 71.285156 65 C 70.539062 64.992188 64 64.578125 64 53 C 64 50.867188 64.097656 48.695312 64.296875 46.546875 Z M 48.5 65 C 43.957031 65 39.742188 62.476562 37.226562 58.246094 C 37.085938 58.007812 36.777344 57.929688 36.542969 58.070312 C 36.304688 58.210938 36.226562 58.519531 36.367188 58.757812 C 39.0625 63.292969 43.597656 66 48.5 66 C 48.777344 66 49 65.777344 49 65.5 C 49 65.222656 48.777344 65 48.5 65 Z M 35.347656 53.398438 C 35.292969 53.128906 35.027344 52.953125 34.757812 53.011719 C 34.488281 53.066406 34.3125 53.332031 34.371094 53.601562 C 34.59375 54.664062 34.914062 55.703125 35.328125 56.691406 C 35.410156 56.886719 35.59375 57 35.789062 57 C 35.855469 57 35.921875 56.988281 35.984375 56.960938 C 36.238281 56.855469 36.359375 56.5625 36.253906 56.308594 C 35.863281 55.375 35.558594 54.394531 35.347656 53.398438 Z M 35.347656 53.398438 "/>
</g>
</svg>
