<?xml version="1.0" encoding="UTF-8"?>
<svg xmlns="http://www.w3.org/2000/svg" xmlns:xlink="http://www.w3.org/1999/xlink" width="100pt" height="100pt" viewBox="0 0 100 100" version="1.1">
<g id="surface437">
<path style=" stroke:none;fill-rule:nonzero;fill:rgb(77.647059%,87.45098%,94.509804%);fill-opacity:1;" d="M 60.5 11 L 28 11 C 23.582031 11 20 14.582031 20 19 L 20 82 C 20 86.417969 23.582031 90 28 90 L 72 90 C 76.417969 90 80 86.417969 80 82 L 80 30.5 Z M 60.5 11 "/>
<path style=" stroke:none;fill-rule:nonzero;fill:rgb(47.058824%,63.137255%,81.960784%);fill-opacity:1;" d="M 80.5 30.5 L 69 30.5 C 64.304688 30.5 60.5 26.695312 60.5 22 L 60.5 10.5 Z M 80.5 30.5 "/>
<path style=" stroke:none;fill-rule:nonzero;fill:rgb(12.156863%,12.941176%,16.862745%);fill-opacity:1;" d="M 80.5 31 L 69 31 C 64.035156 31 60 26.964844 60 22 L 60 10.5 C 60 10.296875 60.121094 10.113281 60.308594 10.039062 C 60.496094 9.964844 60.710938 10.003906 60.855469 10.144531 L 80.855469 30.144531 C 80.996094 30.289062 81.039062 30.503906 80.960938 30.691406 C 80.882812 30.878906 80.703125 31 80.5 31 Z M 61 11.707031 L 61 22 C 61 26.410156 64.589844 30 69 30 L 79.292969 30 Z M 61 11.707031 "/>
<path style=" stroke:none;fill-rule:nonzero;fill:rgb(12.156863%,12.941176%,16.862745%);fill-opacity:1;" d="M 67.5 85 L 32.5 85 C 28.363281 85 25 81.636719 25 77.5 L 25 23.5 C 25 21.054688 26.199219 18.757812 28.214844 17.351562 C 28.4375 17.195312 28.75 17.246094 28.910156 17.472656 C 29.066406 17.699219 29.011719 18.011719 28.785156 18.171875 C 27.042969 19.390625 26 21.382812 26 23.5 L 26 77.5 C 26 81.085938 28.914062 84 32.5 84 L 67.5 84 C 71.085938 84 74 81.085938 74 77.5 L 74 60.5 C 74 60.222656 74.222656 60 74.5 60 C 74.777344 60 75 60.222656 75 60.5 L 75 77.5 C 75 81.636719 71.636719 85 67.5 85 Z M 67.5 85 "/>
<path style=" stroke:none;fill-rule:nonzero;fill:rgb(12.156863%,12.941176%,16.862745%);fill-opacity:1;" d="M 74.5 59 C 74.222656 59 74 58.777344 74 58.5 L 74 51.5 C 74 51.222656 74.222656 51 74.5 51 C 74.777344 51 75 51.222656 75 51.5 L 75 58.5 C 75 58.777344 74.777344 59 74.5 59 Z M 74.5 59 "/>
<path style=" stroke:none;fill-rule:nonzero;fill:rgb(12.156863%,12.941176%,16.862745%);fill-opacity:1;" d="M 74.5 50.070312 C 74.222656 50.070312 74 49.847656 74 49.570312 L 74 46.5 C 74 46.222656 74.222656 46 74.5 46 C 74.777344 46 75 46.222656 75 46.5 L 75 49.570312 C 75 49.847656 74.777344 50.070312 74.5 50.070312 Z M 74.5 50.070312 "/>
<path style=" stroke:none;fill-rule:nonzero;fill:rgb(12.156863%,12.941176%,16.862745%);fill-opacity:1;" d="M 72 91 L 28 91 C 23.035156 91 19 86.964844 19 82 L 19 19 C 19 14.035156 23.035156 10 28 10 L 60.5 10 L 60.5 12 L 28 12 C 24.140625 12 21 15.140625 21 19 L 21 82 C 21 85.859375 24.140625 89 28 89 L 72 89 C 75.859375 89 79 85.859375 79 82 L 79 30.5 L 81 30.5 L 81 82 C 81 86.964844 76.964844 91 72 91 Z M 72 91 "/>
<path style=" stroke:none;fill-rule:nonzero;fill:rgb(12.156863%,12.941176%,16.862745%);fill-opacity:1;" d="M 37.042969 60.238281 L 37.042969 53.839844 C 37.042969 52.148438 37.488281 50.910156 38.386719 50.117188 C 39.28125 49.328125 40.453125 48.929688 41.90625 48.929688 C 43.386719 48.929688 44.59375 49.300781 45.523438 50.042969 C 46.457031 50.78125 46.921875 51.769531 46.921875 53 C 46.921875 53.425781 46.828125 53.71875 46.644531 53.878906 C 46.460938 54.042969 46.164062 54.121094 45.753906 54.121094 C 44.992188 54.121094 44.601562 53.867188 44.589844 53.351562 C 44.425781 51.78125 43.554688 51 41.972656 51 C 40.238281 51 39.375 51.945312 39.375 53.839844 L 39.375 60.238281 C 39.375 62.132812 40.238281 63.078125 41.972656 63.078125 C 42.808594 63.078125 43.449219 62.84375 43.90625 62.367188 C 44.359375 61.898438 44.589844 61.183594 44.589844 60.226562 L 44.589844 58.414062 L 42.367188 58.414062 C 42.132812 58.414062 41.949219 58.320312 41.816406 58.140625 C 41.683594 57.960938 41.617188 57.738281 41.617188 57.476562 C 41.617188 57.246094 41.683594 57.035156 41.816406 56.847656 C 41.949219 56.660156 42.132812 56.5625 42.367188 56.5625 L 46.152344 56.5625 C 46.386719 56.5625 46.574219 56.640625 46.710938 56.796875 C 46.851562 56.949219 46.921875 57.136719 46.921875 57.355469 L 46.921875 60.238281 C 46.921875 61.925781 46.46875 63.164062 45.566406 63.957031 C 44.664062 64.75 43.46875 65.144531 41.972656 65.144531 C 40.476562 65.144531 39.28125 64.75 38.386719 63.957031 C 37.488281 63.164062 37.042969 61.925781 37.042969 60.238281 Z M 37.042969 60.238281 "/>
<path style=" stroke:none;fill-rule:nonzero;fill:rgb(12.156863%,12.941176%,16.862745%);fill-opacity:1;" d="M 49.429688 64.242188 L 49.429688 49.679688 C 49.429688 49.429688 49.539062 49.242188 49.769531 49.117188 C 49.996094 48.992188 50.273438 48.929688 50.59375 48.929688 C 50.914062 48.929688 51.191406 48.992188 51.417969 49.117188 C 51.648438 49.242188 51.761719 49.429688 51.761719 49.679688 L 51.761719 64.242188 C 51.761719 64.476562 51.648438 64.664062 51.417969 64.804688 C 51.191406 64.945312 50.914062 65.015625 50.59375 65.015625 C 50.285156 65.015625 50.015625 64.945312 49.78125 64.804688 C 49.546875 64.664062 49.429688 64.480469 49.429688 64.242188 Z M 49.429688 64.242188 "/>
<path style=" stroke:none;fill-rule:nonzero;fill:rgb(12.156863%,12.941176%,16.862745%);fill-opacity:1;" d="M 54.664062 64.242188 L 54.664062 49.699219 C 54.664062 49.46875 54.765625 49.277344 54.972656 49.140625 C 55.179688 49 55.417969 48.929688 55.699219 48.929688 L 63.421875 48.929688 C 63.671875 48.929688 63.855469 49.027344 63.980469 49.226562 C 64.105469 49.425781 64.171875 49.664062 64.171875 49.941406 C 64.171875 50.234375 64.105469 50.484375 63.972656 50.691406 C 63.839844 50.894531 63.652344 51 63.421875 51 L 56.996094 51 L 56.996094 56.035156 L 60.40625 56.035156 C 60.640625 56.035156 60.824219 56.128906 60.957031 56.3125 C 61.089844 56.496094 61.152344 56.71875 61.152344 56.980469 C 61.152344 57.21875 61.089844 57.425781 60.964844 57.609375 C 60.839844 57.792969 60.652344 57.882812 60.40625 57.882812 L 56.996094 57.882812 L 56.996094 64.242188 C 56.996094 64.492188 56.882812 64.683594 56.652344 64.8125 C 56.425781 64.945312 56.152344 65.011719 55.828125 65.011719 C 55.519531 65.011719 55.25 64.945312 55.015625 64.8125 C 54.78125 64.683594 54.664062 64.492188 54.664062 64.242188 Z M 54.664062 64.242188 "/>
</g>
</svg>
