<?xml version="1.0" encoding="UTF-8"?>
<svg xmlns="http://www.w3.org/2000/svg" xmlns:xlink="http://www.w3.org/1999/xlink" width="100pt" height="100pt" viewBox="0 0 100 100" version="1.1">
<g id="surface412">
<path style=" stroke:none;fill-rule:nonzero;fill:rgb(87.843137%,87.058824%,81.176471%);fill-opacity:1;" d="M 79 85 L 37 85 C 33.6875 85 31 82.3125 31 79 L 31 37 C 31 33.6875 33.6875 31 37 31 L 79 31 C 82.3125 31 85 33.6875 85 37 L 85 79 C 85 82.3125 82.3125 85 79 85 Z M 79 85 "/>
<path style=" stroke:none;fill-rule:nonzero;fill:rgb(12.156863%,12.941176%,16.862745%);fill-opacity:1;" d="M 79 86 L 37 86 C 33.140625 86 30 82.859375 30 79 L 30 37 C 30 33.140625 33.140625 30 37 30 L 79 30 C 82.859375 30 86 33.140625 86 37 L 86 79 C 86 82.859375 82.859375 86 79 86 Z M 37 32 C 34.242188 32 32 34.242188 32 37 L 32 79 C 32 81.757812 34.242188 84 37 84 L 79 84 C 81.757812 84 84 81.757812 84 79 L 84 37 C 84 34.242188 81.757812 32 79 32 Z M 37 32 "/>
<path style=" stroke:none;fill-rule:nonzero;fill:rgb(93.333333%,92.54902%,85.098039%);fill-opacity:1;" d="M 71 77 L 29 77 C 25.6875 77 23 74.3125 23 71 L 23 29 C 23 25.6875 25.6875 23 29 23 L 71 23 C 74.3125 23 77 25.6875 77 29 L 77 71 C 77 74.3125 74.3125 77 71 77 Z M 71 77 "/>
<path style=" stroke:none;fill-rule:nonzero;fill:rgb(12.156863%,12.941176%,16.862745%);fill-opacity:1;" d="M 71 78 L 29 78 C 25.140625 78 22 74.859375 22 71 L 22 29 C 22 25.140625 25.140625 22 29 22 L 71 22 C 74.859375 22 78 25.140625 78 29 L 78 71 C 78 74.859375 74.859375 78 71 78 Z M 29 24 C 26.242188 24 24 26.242188 24 29 L 24 71 C 24 73.757812 26.242188 76 29 76 L 71 76 C 73.757812 76 76 73.757812 76 71 L 76 29 C 76 26.242188 73.757812 24 71 24 Z M 29 24 "/>
<path style=" stroke:none;fill-rule:nonzero;fill:rgb(99.607843%,99.215686%,93.72549%);fill-opacity:1;" d="M 63 69 L 21 69 C 17.6875 69 15 66.3125 15 63 L 15 21 C 15 17.6875 17.6875 15 21 15 L 63 15 C 66.3125 15 69 17.6875 69 21 L 69 63 C 69 66.3125 66.3125 69 63 69 Z M 63 69 "/>
<path style=" stroke:none;fill-rule:nonzero;fill:rgb(12.156863%,12.941176%,16.862745%);fill-opacity:1;" d="M 63 70 L 21 70 C 17.140625 70 14 66.859375 14 63 L 14 21 C 14 17.140625 17.140625 14 21 14 L 63 14 C 66.859375 14 70 17.140625 70 21 L 70 63 C 70 66.859375 66.859375 70 63 70 Z M 21 16 C 18.242188 16 16 18.242188 16 21 L 16 63 C 16 65.757812 18.242188 68 21 68 L 63 68 C 65.757812 68 68 65.757812 68 63 L 68 21 C 68 18.242188 65.757812 16 63 16 Z M 21 16 "/>
<path style=" stroke:none;fill-rule:nonzero;fill:rgb(70.196078%,88.235294%,90.196078%);fill-opacity:1;" d="M 58.5 62.5 L 25.5 62.5 C 23.289062 62.5 21.5 60.710938 21.5 58.5 L 21.5 25.5 C 21.5 23.289062 23.289062 21.5 25.5 21.5 L 58.5 21.5 C 60.710938 21.5 62.5 23.289062 62.5 25.5 L 62.5 58.5 C 62.5 60.710938 60.710938 62.5 58.5 62.5 Z M 58.5 62.5 "/>
<path style=" stroke:none;fill-rule:nonzero;fill:rgb(97.647059%,90.196078%,36.078431%);fill-opacity:1;" d="M 39.5 31 C 39.5 34.039062 37.039062 36.5 34 36.5 C 30.960938 36.5 28.5 34.039062 28.5 31 C 28.5 27.960938 30.960938 25.5 34 25.5 C 37.039062 25.5 39.5 27.960938 39.5 31 Z M 39.5 31 "/>
<path style=" stroke:none;fill-rule:nonzero;fill:rgb(0%,65.490196%,65.490196%);fill-opacity:1;" d="M 21.5 52.5 L 31.5 41.5 L 47.25 62.5 L 25.5 62.5 C 23.289062 62.5 21.5 60.710938 21.5 58.5 Z M 21.5 52.5 "/>
<path style=" stroke:none;fill-rule:nonzero;fill:rgb(0%,65.490196%,65.490196%);fill-opacity:1;" d="M 32.5 62.5 L 51.5 34.5 L 62.5 50.5 L 62.5 58.5 C 62.5 60.710938 60.710938 62.5 58.5 62.5 Z M 32.5 62.5 "/>
<path style=" stroke:none;fill-rule:nonzero;fill:rgb(12.156863%,12.941176%,16.862745%);fill-opacity:1;" d="M 34 37 C 30.691406 37 28 34.308594 28 31 C 28 27.691406 30.691406 25 34 25 C 37.308594 25 40 27.691406 40 31 C 40 34.308594 37.308594 37 34 37 Z M 34 26 C 31.242188 26 29 28.242188 29 31 C 29 33.757812 31.242188 36 34 36 C 36.757812 36 39 33.757812 39 31 C 39 28.242188 36.757812 26 34 26 Z M 34 26 "/>
<path style=" stroke:none;fill-rule:nonzero;fill:rgb(12.156863%,12.941176%,16.862745%);fill-opacity:1;" d="M 21.871094 52.835938 L 21.128906 52.164062 L 31.128906 41.164062 C 31.230469 41.054688 31.375 40.976562 31.523438 41 C 31.671875 41.007812 31.8125 41.082031 31.902344 41.199219 L 39.953125 51.933594 L 39.152344 52.535156 L 31.464844 42.285156 Z M 21.871094 52.835938 "/>
<path style=" stroke:none;fill-rule:nonzero;fill:rgb(12.156863%,12.941176%,16.862745%);fill-opacity:1;" d="M 32.914062 62.78125 L 32.085938 62.21875 L 51.085938 34.21875 C 51.179688 34.082031 51.332031 34 51.496094 34 C 51.5 34 51.5 34 51.5 34 C 51.664062 34 51.816406 34.078125 51.910156 34.214844 L 62.910156 50.214844 L 62.089844 50.78125 L 51.503906 35.386719 Z M 32.914062 62.78125 "/>
<path style=" stroke:none;fill-rule:nonzero;fill:rgb(12.156863%,12.941176%,16.862745%);fill-opacity:1;" d="M 58.5 63 L 25.5 63 C 23.019531 63 21 60.980469 21 58.5 L 21 25.5 C 21 23.019531 23.019531 21 25.5 21 L 58.5 21 C 60.980469 21 63 23.019531 63 25.5 L 63 58.5 C 63 60.980469 60.980469 63 58.5 63 Z M 25.5 22 C 23.570312 22 22 23.570312 22 25.5 L 22 58.5 C 22 60.429688 23.570312 62 25.5 62 L 58.5 62 C 60.429688 62 62 60.429688 62 58.5 L 62 25.5 C 62 23.570312 60.429688 22 58.5 22 Z M 25.5 22 "/>
</g>
</svg>
