<?xml version="1.0" encoding="UTF-8"?>
<svg xmlns="http://www.w3.org/2000/svg" xmlns:xlink="http://www.w3.org/1999/xlink" width="100pt" height="100pt" viewBox="0 0 100 100" version="1.1">
<g id="surface547">
<path style=" stroke:none;fill-rule:nonzero;fill:rgb(99.607843%,99.215686%,93.72549%);fill-opacity:1;" d="M 22 70.21875 C 22 77 22 83 18 87 C 24.710938 87 33 85 38.179688 77.625 C 41.914062 78.519531 45.886719 79 50 79 C 72.089844 79 90 65.121094 90 48 C 90 30.878906 72.089844 17 50 17 C 27.910156 17 10 30.878906 10 48 C 10 56.671875 14.59375 64.515625 22 70.140625 Z M 22 70.21875 "/>
<path style=" stroke:none;fill-rule:nonzero;fill:rgb(12.156863%,12.941176%,16.862745%);fill-opacity:1;" d="M 18 88 C 17.597656 88 17.230469 87.757812 17.074219 87.382812 C 16.921875 87.007812 17.007812 86.578125 17.292969 86.292969 C 20.921875 82.664062 21 77.09375 21 70.632812 C 13.257812 64.59375 9 56.574219 9 48 C 9 30.355469 27.394531 16 50 16 C 72.605469 16 91 30.355469 91 48 C 91 65.644531 72.605469 80 50 80 C 46.121094 80 42.289062 79.578125 38.601562 78.746094 C 32.585938 86.78125 23.15625 88 18 88 Z M 50 18 C 28.496094 18 11 31.457031 11 48 C 11 56.078125 15.121094 63.65625 22.605469 69.34375 C 22.855469 69.53125 23 69.828125 23 70.140625 L 23 70.21875 C 23 76.117188 23 81.738281 20.175781 85.925781 C 25.242188 85.566406 32.628906 83.789062 37.359375 77.050781 C 37.597656 76.714844 38.011719 76.558594 38.410156 76.652344 C 42.148438 77.546875 46.046875 78 50 78 C 71.503906 78 89 64.542969 89 48 C 89 31.457031 71.503906 18 50 18 Z M 50 18 "/>
<path style=" stroke:none;fill-rule:nonzero;fill:rgb(12.156863%,12.941176%,16.862745%);fill-opacity:1;" d="M 20.296875 63 C 20.160156 63 20.019531 62.941406 19.921875 62.828125 C 16.046875 58.421875 14 53.296875 14 48 C 14 33.113281 30.148438 21 50 21 C 59.378906 21 68.265625 23.695312 75.015625 28.597656 C 75.238281 28.757812 75.289062 29.070312 75.128906 29.292969 C 74.964844 29.515625 74.648438 29.566406 74.429688 29.402344 C 67.847656 24.628906 59.171875 22 50 22 C 30.699219 22 15 33.664062 15 48 C 15 53.046875 16.960938 57.945312 20.675781 62.171875 C 20.855469 62.378906 20.835938 62.691406 20.628906 62.875 C 20.535156 62.960938 20.414062 63 20.296875 63 Z M 50 75 C 48.816406 75 47.625 74.957031 46.464844 74.871094 C 46.1875 74.851562 45.980469 74.609375 46 74.335938 C 46.019531 74.058594 46.257812 73.84375 46.535156 73.871094 C 47.675781 73.957031 48.839844 74 50 74 C 69.300781 74 85 62.335938 85 48 C 85 43.554688 83.453125 39.164062 80.527344 35.300781 C 80.363281 35.082031 80.40625 34.769531 80.625 34.601562 C 80.847656 34.433594 81.160156 34.476562 81.324219 34.699219 C 84.382812 38.734375 86 43.335938 86 48 C 86 62.886719 69.851562 75 50 75 Z M 79.703125 34 C 79.5625 34 79.425781 33.941406 79.328125 33.828125 C 79.035156 33.496094 78.730469 33.171875 78.421875 32.847656 C 78.226562 32.652344 78.230469 32.335938 78.429688 32.140625 C 78.628906 31.949219 78.945312 31.953125 79.136719 32.152344 C 79.460938 32.484375 79.773438 32.824219 80.078125 33.171875 C 80.261719 33.378906 80.238281 33.695312 80.03125 33.878906 C 79.9375 33.960938 79.820312 34 79.703125 34 Z M 77.210938 31.5 C 77.09375 31.5 76.972656 31.457031 76.878906 31.371094 C 76.648438 31.167969 76.417969 30.96875 76.179688 30.769531 C 75.96875 30.589844 75.9375 30.277344 76.117188 30.066406 C 76.292969 29.851562 76.609375 29.824219 76.820312 30.003906 C 77.066406 30.207031 77.308594 30.414062 77.546875 30.628906 C 77.75 30.8125 77.769531 31.128906 77.585938 31.335938 C 77.484375 31.441406 77.347656 31.5 77.210938 31.5 Z M 77.210938 31.5 "/>
<path style=" stroke:none;fill-rule:nonzero;fill:rgb(12.156863%,12.941176%,16.862745%);fill-opacity:1;" d="M 52.5 36 L 28.5 36 C 28.222656 36 28 35.777344 28 35.5 C 28 35.222656 28.222656 35 28.5 35 L 52.5 35 C 52.777344 35 53 35.222656 53 35.5 C 53 35.777344 52.777344 36 52.5 36 Z M 68.5 36 L 57.5 36 C 57.222656 36 57 35.777344 57 35.5 C 57 35.222656 57.222656 35 57.5 35 L 68.5 35 C 68.777344 35 69 35.222656 69 35.5 C 69 35.777344 68.777344 36 68.5 36 Z M 38.5 44 L 22.5 44 C 22.222656 44 22 43.777344 22 43.5 C 22 43.222656 22.222656 43 22.5 43 L 38.5 43 C 38.777344 43 39 43.222656 39 43.5 C 39 43.777344 38.777344 44 38.5 44 Z M 77.5 44 L 43.5 44 C 43.222656 44 43 43.777344 43 43.5 C 43 43.222656 43.222656 43 43.5 43 L 77.5 43 C 77.777344 43 78 43.222656 78 43.5 C 78 43.777344 77.777344 44 77.5 44 Z M 77.5 52 L 22.5 52 C 22.222656 52 22 51.777344 22 51.5 C 22 51.222656 22.222656 51 22.5 51 L 77.5 51 C 77.777344 51 78 51.222656 78 51.5 C 78 51.777344 77.777344 52 77.5 52 Z M 48.5 60 L 28.5 60 C 28.222656 60 28 59.777344 28 59.5 C 28 59.222656 28.222656 59 28.5 59 L 48.5 59 C 48.777344 59 49 59.222656 49 59.5 C 49 59.777344 48.777344 60 48.5 60 Z M 68.5 60 L 53.5 60 C 53.222656 60 53 59.777344 53 59.5 C 53 59.222656 53.222656 59 53.5 59 L 68.5 59 C 68.777344 59 69 59.222656 69 59.5 C 69 59.777344 68.777344 60 68.5 60 Z M 68.5 60 "/>
</g>
</svg>
