<?xml version="1.0" encoding="UTF-8"?>
<svg xmlns="http://www.w3.org/2000/svg" xmlns:xlink="http://www.w3.org/1999/xlink" width="100pt" height="100pt" viewBox="0 0 100 100" version="1.1">
<g id="surface522">
<path style=" stroke:none;fill-rule:nonzero;fill:rgb(47.058824%,80.392157%,83.137255%);fill-opacity:1;" d="M 83 25 L 50 25 L 50 23 C 50 21.894531 49.105469 21 48 21 L 17 21 C 15.894531 21 15 21.894531 15 23 L 15 77 C 15 78.105469 15.894531 79 17 79 L 23 79 L 23 75 C 23 73.894531 23.894531 73 25 73 L 29 73 C 30.105469 73 31 73.894531 31 75 L 31 79 L 69 79 L 69 75 C 69 73.894531 69.894531 73 71 73 L 75 73 C 76.105469 73 77 73.894531 77 75 L 77 79 L 83 79 C 84.105469 79 85 78.105469 85 77 L 85 27 C 85 25.894531 84.105469 25 83 25 Z M 83 25 "/>
<path style=" stroke:none;fill-rule:nonzero;fill:rgb(99.607843%,99.215686%,93.72549%);fill-opacity:1;" d="M 42.5 63 C 42.5 57.46875 39.339844 52.394531 35.054688 51 L 29.945312 51 C 25.660156 52.398438 22.5 57.46875 22.5 63 Z M 42.5 63 "/>
<path style=" stroke:none;fill-rule:nonzero;fill:rgb(99.607843%,99.215686%,93.72549%);fill-opacity:1;" d="M 32.5 39.5 C 29.1875 39.5 26.5 42.1875 26.5 45.5 C 26.5 48.8125 29.1875 51.5 32.5 51.5 C 35.8125 51.5 38.5 48.8125 38.5 45.5 C 38.5 42.1875 35.8125 39.5 32.5 39.5 Z M 32.5 39.5 "/>
<path style=" stroke:none;fill-rule:nonzero;fill:rgb(12.156863%,12.941176%,16.862745%);fill-opacity:1;" d="M 68.5 30 L 19.5 30 C 19.222656 30 19 29.777344 19 29.5 C 19 29.222656 19.222656 29 19.5 29 L 68.5 29 C 68.777344 29 69 29.222656 69 29.5 C 69 29.777344 68.777344 30 68.5 30 Z M 75.5 30 L 71.5 30 C 71.222656 30 71 29.777344 71 29.5 C 71 29.222656 71.222656 29 71.5 29 L 75.5 29 C 75.777344 29 76 29.222656 76 29.5 C 76 29.777344 75.777344 30 75.5 30 Z M 77.5 42 L 50.5 42 C 50.222656 42 50 41.777344 50 41.5 C 50 41.222656 50.222656 41 50.5 41 L 77.5 41 C 77.777344 41 78 41.222656 78 41.5 C 78 41.777344 77.777344 42 77.5 42 Z M 69.5 49 L 50.5 49 C 50.222656 49 50 48.777344 50 48.5 C 50 48.222656 50.222656 48 50.5 48 L 69.5 48 C 69.777344 48 70 48.222656 70 48.5 C 70 48.777344 69.777344 49 69.5 49 Z M 77.5 49 L 72.5 49 C 72.222656 49 72 48.777344 72 48.5 C 72 48.222656 72.222656 48 72.5 48 L 77.5 48 C 77.777344 48 78 48.222656 78 48.5 C 78 48.777344 77.777344 49 77.5 49 Z M 69.5 63 L 50.5 63 C 50.222656 63 50 62.777344 50 62.5 C 50 62.222656 50.222656 62 50.5 62 L 69.5 62 C 69.777344 62 70 62.222656 70 62.5 C 70 62.777344 69.777344 63 69.5 63 Z M 77.5 63 L 72.5 63 C 72.222656 63 72 62.777344 72 62.5 C 72 62.222656 72.222656 62 72.5 62 L 77.5 62 C 77.777344 62 78 62.222656 78 62.5 C 78 62.777344 77.777344 63 77.5 63 Z M 65.5 56 L 50.5 56 C 50.222656 56 50 55.777344 50 55.5 C 50 55.222656 50.222656 55 50.5 55 L 65.5 55 C 65.777344 55 66 55.222656 66 55.5 C 66 55.777344 65.777344 56 65.5 56 Z M 77.5 56 L 75.5 56 C 75.222656 56 75 55.777344 75 55.5 C 75 55.222656 75.222656 55 75.5 55 L 77.5 55 C 77.777344 55 78 55.222656 78 55.5 C 78 55.777344 77.777344 56 77.5 56 Z M 72.5 56 L 68.5 56 C 68.222656 56 68 55.777344 68 55.5 C 68 55.222656 68.222656 55 68.5 55 L 72.5 55 C 72.777344 55 73 55.222656 73 55.5 C 73 55.777344 72.777344 56 72.5 56 Z M 80.5 30 L 78.5 30 C 78.222656 30 78 29.777344 78 29.5 C 78 29.222656 78.222656 29 78.5 29 L 80.5 29 C 80.777344 29 81 29.222656 81 29.5 C 81 29.777344 80.777344 30 80.5 30 Z M 80.5 30 "/>
<path style=" stroke:none;fill-rule:nonzero;fill:rgb(12.156863%,12.941176%,16.862745%);fill-opacity:1;" d="M 83 80 L 77 80 C 76.445312 80 76 79.550781 76 79 L 76 75 C 76 74.449219 75.550781 74 75 74 L 71 74 C 70.449219 74 70 74.449219 70 75 L 70 79 C 70 79.550781 69.554688 80 69 80 L 31 80 C 30.445312 80 30 79.550781 30 79 L 30 75 C 30 74.449219 29.550781 74 29 74 L 25 74 C 24.449219 74 24 74.449219 24 75 L 24 79 C 24 79.550781 23.554688 80 23 80 L 17 80 C 15.347656 80 14 78.652344 14 77 L 14 23 C 14 21.347656 15.347656 20 17 20 L 48 20 C 49.652344 20 51 21.347656 51 23 L 51 24 L 83 24 C 84.652344 24 86 25.347656 86 27 L 86 77 C 86 78.652344 84.652344 80 83 80 Z M 78 78 L 83 78 C 83.550781 78 84 77.550781 84 77 L 84 27 C 84 26.449219 83.550781 26 83 26 L 50 26 C 49.445312 26 49 25.550781 49 25 L 49 23 C 49 22.449219 48.550781 22 48 22 L 17 22 C 16.449219 22 16 22.449219 16 23 L 16 77 C 16 77.550781 16.449219 78 17 78 L 22 78 L 22 75 C 22 73.347656 23.347656 72 25 72 L 29 72 C 30.652344 72 32 73.347656 32 75 L 32 78 L 68 78 L 68 75 C 68 73.347656 69.347656 72 71 72 L 75 72 C 76.652344 72 78 73.347656 78 75 Z M 78 78 "/>
<path style=" stroke:none;fill-rule:nonzero;fill:rgb(12.156863%,12.941176%,16.862745%);fill-opacity:1;" d="M 22.5 64 C 22.222656 64 22 63.777344 22 63.5 C 22 57.390625 25.199219 52.027344 29.78125 50.453125 C 30.042969 50.367188 30.328125 50.503906 30.417969 50.765625 C 30.507812 51.027344 30.367188 51.3125 30.105469 51.402344 C 25.921875 52.835938 23 57.8125 23 63.5 C 23 63.777344 22.777344 64 22.5 64 Z M 42.5 64 C 42.222656 64 42 63.777344 42 63.5 C 42 57.808594 39.078125 52.835938 34.894531 51.402344 C 34.632812 51.3125 34.492188 51.027344 34.582031 50.765625 C 34.671875 50.503906 34.953125 50.367188 35.21875 50.453125 C 39.800781 52.023438 43 57.390625 43 63.5 C 43 63.777344 42.777344 64 42.5 64 Z M 42.5 64 "/>
<path style=" stroke:none;fill-rule:nonzero;fill:rgb(12.156863%,12.941176%,16.862745%);fill-opacity:1;" d="M 32.5 52 C 28.914062 52 26 49.085938 26 45.5 C 26 41.914062 28.914062 39 32.5 39 C 36.085938 39 39 41.914062 39 45.5 C 39 49.085938 36.085938 52 32.5 52 Z M 32.5 40 C 29.46875 40 27 42.46875 27 45.5 C 27 48.53125 29.46875 51 32.5 51 C 35.53125 51 38 48.53125 38 45.5 C 38 42.46875 35.53125 40 32.5 40 Z M 32.5 40 "/>
</g>
</svg>
