<?xml version="1.0" encoding="UTF-8"?>
<svg xmlns="http://www.w3.org/2000/svg" xmlns:xlink="http://www.w3.org/1999/xlink" width="100pt" height="100pt" viewBox="0 0 100 100" version="1.1">
<g id="surface417">
<path style=" stroke:none;fill-rule:nonzero;fill:rgb(99.607843%,99.215686%,93.72549%);fill-opacity:1;" d="M 28 11 C 23.582031 11 20 14.582031 20 19 L 20 82 C 20 86.417969 23.582031 90 28 90 L 72 90 C 76.417969 90 80 86.417969 80 82 L 80 30 L 61 11 L 39 11 L 39 10 L 28 10 Z M 28 11 "/>
<path style=" stroke:none;fill-rule:nonzero;fill:rgb(99.607843%,96.470588%,66.666667%);fill-opacity:1;" d="M 80.5 30.5 L 69 30.5 C 64.304688 30.5 60.5 26.695312 60.5 22 L 60.5 10.5 Z M 80.5 30.5 "/>
<path style=" stroke:none;fill-rule:nonzero;fill:rgb(12.156863%,12.941176%,16.862745%);fill-opacity:1;" d="M 80.5 31 L 69 31 C 64.035156 31 60 26.960938 60 22 L 60 10.5 C 60 10.296875 60.121094 10.113281 60.308594 10.039062 C 60.496094 9.960938 60.710938 10.003906 60.855469 10.144531 L 80.855469 30.144531 C 80.996094 30.289062 81.039062 30.503906 80.960938 30.691406 C 80.882812 30.878906 80.703125 31 80.5 31 Z M 61 11.707031 L 61 22 C 61 26.410156 64.589844 30 69 30 L 79.292969 30 Z M 61 11.707031 "/>
<path style=" stroke:none;fill-rule:nonzero;fill:rgb(12.156863%,12.941176%,16.862745%);fill-opacity:1;" d="M 67.5 85 L 32.5 85 C 28.363281 85 25 81.636719 25 77.5 L 25 23.5 C 25 21.054688 26.199219 18.753906 28.214844 17.351562 C 28.4375 17.195312 28.75 17.246094 28.910156 17.472656 C 29.066406 17.699219 29.011719 18.011719 28.785156 18.171875 C 27.042969 19.386719 26 21.378906 26 23.5 L 26 77.5 C 26 81.085938 28.914062 84 32.5 84 L 67.5 84 C 71.085938 84 74 81.085938 74 77.5 L 74 60.5 C 74 60.222656 74.222656 60 74.5 60 C 74.777344 60 75 60.222656 75 60.5 L 75 77.5 C 75 81.636719 71.636719 85 67.5 85 Z M 67.5 85 "/>
<path style=" stroke:none;fill-rule:nonzero;fill:rgb(12.156863%,12.941176%,16.862745%);fill-opacity:1;" d="M 74.5 59 C 74.222656 59 74 58.777344 74 58.5 L 74 51.5 C 74 51.222656 74.222656 51 74.5 51 C 74.777344 51 75 51.222656 75 51.5 L 75 58.5 C 75 58.777344 74.777344 59 74.5 59 Z M 74.5 59 "/>
<path style=" stroke:none;fill-rule:nonzero;fill:rgb(12.156863%,12.941176%,16.862745%);fill-opacity:1;" d="M 74.5 50.070312 C 74.222656 50.070312 74 49.847656 74 49.570312 L 74 46.5 C 74 46.222656 74.222656 46 74.5 46 C 74.777344 46 75 46.222656 75 46.5 L 75 49.570312 C 75 49.847656 74.777344 50.070312 74.5 50.070312 Z M 74.5 50.070312 "/>
<path style=" stroke:none;fill-rule:nonzero;fill:rgb(12.156863%,12.941176%,16.862745%);fill-opacity:1;" d="M 34 64.21875 L 34 49.742188 C 34 49.539062 34.082031 49.363281 34.253906 49.21875 C 34.421875 49.074219 34.636719 49 34.898438 49 L 39.175781 49 C 40.636719 49 41.804688 49.386719 42.675781 50.160156 C 43.542969 50.933594 43.980469 52.148438 43.980469 53.808594 L 43.980469 53.984375 C 43.980469 55.648438 43.527344 56.867188 42.628906 57.648438 C 41.730469 58.429688 40.535156 58.816406 39.042969 58.816406 L 36.324219 58.816406 L 36.324219 64.21875 C 36.324219 64.453125 36.210938 64.636719 35.984375 64.777344 C 35.757812 64.914062 35.484375 64.984375 35.160156 64.984375 C 34.855469 64.984375 34.585938 64.914062 34.351562 64.777344 C 34.117188 64.636719 34 64.453125 34 64.21875 Z M 36.324219 57.035156 L 39.046875 57.035156 C 39.878906 57.035156 40.523438 56.796875 40.976562 56.3125 C 41.429688 55.832031 41.65625 55.105469 41.65625 54.140625 L 41.65625 53.875 C 41.65625 52.910156 41.429688 52.1875 40.976562 51.714844 C 40.523438 51.238281 39.878906 51 39.046875 51 L 36.324219 51 C 36.324219 51 36.324219 57.035156 36.324219 57.035156 Z M 36.324219 57.035156 "/>
<path style=" stroke:none;fill-rule:nonzero;fill:rgb(12.156863%,12.941176%,16.862745%);fill-opacity:1;" d="M 46 64.242188 L 46 49.742188 C 46 49.539062 46.097656 49.363281 46.296875 49.21875 C 46.492188 49.074219 46.738281 49 47.027344 49 L 50.910156 49 C 52.402344 49 53.597656 49.394531 54.5 50.179688 C 55.398438 50.96875 55.847656 52.199219 55.847656 53.878906 L 55.847656 60.109375 C 55.847656 61.785156 55.398438 63.015625 54.5 63.804688 C 53.601562 64.589844 52.402344 64.984375 50.910156 64.984375 L 47.027344 64.984375 C 46.738281 64.984375 46.492188 64.910156 46.292969 64.765625 C 46.097656 64.621094 46 64.445312 46 64.242188 Z M 48.324219 63 L 50.910156 63 C 52.652344 63 53.523438 62.050781 53.523438 60.148438 L 53.523438 53.851562 C 53.523438 51.949219 52.652344 51 50.910156 51 L 48.324219 51 C 48.324219 51 48.324219 63 48.324219 63 Z M 48.324219 63 "/>
<path style=" stroke:none;fill-rule:nonzero;fill:rgb(12.156863%,12.941176%,16.862745%);fill-opacity:1;" d="M 58.523438 64.21875 L 58.523438 49.765625 C 58.523438 49.53125 58.625 49.347656 58.828125 49.207031 C 59.035156 49.070312 59.277344 49 59.554688 49 L 67.253906 49 C 67.503906 49 67.6875 49.097656 67.8125 49.296875 C 67.9375 49.492188 68 49.730469 68 50.007812 C 68 50.296875 67.933594 50.546875 67.800781 50.75 C 67.671875 50.953125 67.488281 51 67.253906 51 L 60.847656 51 L 60.847656 56.0625 L 64.25 56.0625 C 64.480469 56.0625 64.664062 56.152344 64.796875 56.335938 C 64.929688 56.519531 64.996094 56.742188 64.996094 57.003906 C 64.996094 57.234375 64.933594 57.445312 64.808594 57.625 C 64.683594 57.808594 64.5 57.898438 64.25 57.898438 L 60.847656 57.898438 L 60.847656 64.21875 C 60.847656 64.464844 60.734375 64.65625 60.511719 64.785156 C 60.28125 64.917969 60.007812 64.984375 59.6875 64.984375 C 59.378906 64.984375 59.109375 64.917969 58.875 64.785156 C 58.640625 64.65625 58.523438 64.46875 58.523438 64.21875 Z M 58.523438 64.21875 "/>
<path style=" stroke:none;fill-rule:nonzero;fill:rgb(12.156863%,12.941176%,16.862745%);fill-opacity:1;" d="M 79 30.5 L 79 82 C 79 85.859375 75.859375 89 72 89 L 28 89 C 24.140625 89 21 85.859375 21 82 L 21 19 C 21 15.140625 24.140625 12 28 12 L 60.5 12 L 60.5 10 L 28 10 C 23.035156 10 19 14.039062 19 19 L 19 82 C 19 86.960938 23.035156 91 28 91 L 72 91 C 76.964844 91 81 86.960938 81 82 L 81 30.5 Z M 79 30.5 "/>
</g>
</svg>
