<?xml version="1.0" encoding="UTF-8"?>
<svg xmlns="http://www.w3.org/2000/svg" xmlns:xlink="http://www.w3.org/1999/xlink" width="100pt" height="100pt" viewBox="0 0 100 100" version="1.1">
<g id="surface36535">
<path style=" stroke:none;fill-rule:nonzero;fill:rgb(99.607843%,99.215686%,93.72549%);fill-opacity:1;" d="M 82 29 L 82 71 C 82 77.070312 77.070312 82 71 82 L 29 82 C 22.929688 82 18 77.070312 18 71 L 18 29 C 18 22.929688 22.929688 18 29 18 L 71 18 C 77.070312 18 82 22.929688 82 29 Z M 82 29 "/>
<path style=" stroke:none;fill-rule:nonzero;fill:rgb(97.647059%,90.196078%,36.078431%);fill-opacity:1;" d="M 66.5 27 C 62.359375 27 59 30.359375 59 34.5 C 59 38.640625 62.359375 42 66.5 42 C 70.640625 42 74 38.640625 74 34.5 C 74 30.359375 70.640625 27 66.5 27 Z M 66.5 27 "/>
<path style=" stroke:none;fill-rule:nonzero;fill:rgb(94.509804%,35.686275%,42.352941%);fill-opacity:1;" d="M 45 63.988281 C 45 65.511719 44.140625 66.960938 42.679688 67.628906 C 41.949219 67.96875 40.839844 68.230469 39.699219 68.339844 C 40.480469 68.871094 41.160156 69.449219 41.578125 69.960938 C 42.96875 71.671875 42.730469 74.191406 41.019531 75.589844 C 40.300781 76.179688 39.421875 76.5 38.5 76.5 C 38.371094 76.5 38.230469 76.488281 38.101562 76.480469 C 37.039062 76.378906 36.078125 75.859375 35.398438 75.039062 C 34.910156 74.441406 34.398438 73.449219 34 72.410156 C 33.601562 73.449219 33.089844 74.441406 32.601562 75.039062 C 31.921875 75.859375 30.960938 76.378906 29.898438 76.480469 C 28.839844 76.578125 27.800781 76.269531 26.980469 75.589844 C 25.269531 74.191406 25.03125 71.671875 26.421875 69.960938 C 26.839844 69.449219 27.519531 68.871094 28.300781 68.339844 C 27.160156 68.230469 26.050781 67.96875 25.320312 67.628906 C 23.320312 66.710938 22.449219 64.320312 23.371094 62.320312 C 23.820312 61.351562 24.621094 60.609375 25.621094 60.25 C 26.621094 59.878906 27.699219 59.921875 28.671875 60.371094 C 29.210938 60.621094 29.851562 61.058594 30.480469 61.589844 C 30.171875 60.601562 30.011719 59.648438 30.011719 59 C 30.011719 56.789062 31.800781 55 34 55 C 36.199219 55 37.988281 56.789062 37.988281 59 C 37.988281 59.648438 37.828125 60.601562 37.519531 61.589844 C 38.148438 61.058594 38.789062 60.621094 39.328125 60.371094 C 40.300781 59.921875 41.378906 59.878906 42.378906 60.25 C 43.378906 60.609375 44.179688 61.351562 44.628906 62.320312 C 44.878906 62.859375 45 63.429688 45 63.988281 Z M 45 63.988281 "/>
<path style=" stroke:none;fill-rule:nonzero;fill:rgb(47.058824%,63.529412%,82.352941%);fill-opacity:1;" d="M 78 71.5 C 78 73.980469 75.980469 76 73.5 76 L 59.5 76 C 57.019531 76 55 73.980469 55 71.5 C 55 69.570312 56.21875 67.890625 58.011719 67.261719 C 58 67.179688 58 67.089844 58 67 C 58 64.488281 60.328125 62.449219 62.929688 63.121094 C 63.871094 61.789062 65.371094 61 67 61 C 69.019531 61 70.851562 62.261719 71.609375 64.121094 C 71.898438 64.039062 72.199219 64 72.5 64 C 74.429688 64 76 65.570312 76 67.5 C 76 67.589844 76 67.679688 75.988281 67.769531 C 77.238281 68.601562 78 70 78 71.5 Z M 78 71.5 "/>
<path style=" stroke:none;fill-rule:nonzero;fill:rgb(97.647059%,90.196078%,36.078431%);fill-opacity:1;" d="M 41.5 23 C 39.566406 23 38 24.566406 38 26.5 C 38 28.433594 39.566406 30 41.5 30 C 43.433594 30 45 28.433594 45 26.5 C 45 24.566406 43.433594 23 41.5 23 Z M 57.5 54 C 55.566406 54 54 55.566406 54 57.5 C 54 59.433594 55.566406 61 57.5 61 C 59.433594 61 61 59.433594 61 57.5 C 61 55.566406 59.433594 54 57.5 54 Z M 57.5 54 "/>
<path style=" stroke:none;fill-rule:nonzero;fill:rgb(96.470588%,57.254902%,44.705882%);fill-opacity:1;" d="M 46.5 45 L 33.5 45 L 33.5 44 L 36.980469 38.226562 L 39.578125 34.226562 C 39.765625 33.945312 40.234375 33.945312 40.417969 34.226562 L 46.917969 44.226562 C 47.019531 44.382812 47.027344 44.578125 46.9375 44.738281 C 46.851562 44.898438 46.683594 45 46.5 45 Z M 46.5 45 "/>
<path style=" stroke:none;fill-rule:nonzero;fill:rgb(98.823529%,72.941176%,49.803922%);fill-opacity:1;" d="M 41.941406 44.738281 C 41.851562 44.898438 41.679688 45 41.5 45 L 21.5 45 C 21.320312 45 21.148438 44.898438 21.058594 44.738281 C 20.96875 44.570312 20.980469 44.378906 21.078125 44.21875 L 31.078125 29.21875 C 31.269531 28.949219 31.730469 28.949219 31.921875 29.21875 L 41.921875 44.21875 C 42.019531 44.378906 42.03125 44.570312 41.941406 44.738281 Z M 41.941406 44.738281 "/>
<path style=" stroke:none;fill-rule:nonzero;fill:rgb(12.156863%,12.941176%,16.862745%);fill-opacity:1;" d="M 71 83 L 29 83 C 22.382812 83 17 77.617188 17 71 L 17 29 C 17 22.382812 22.382812 17 29 17 L 71 17 C 77.617188 17 83 22.382812 83 29 L 83 71 C 83 77.617188 77.617188 83 71 83 Z M 29 19 C 23.484375 19 19 23.484375 19 29 L 19 71 C 19 76.515625 23.484375 81 29 81 L 71 81 C 76.515625 81 81 76.515625 81 71 L 81 29 C 81 23.484375 76.515625 19 71 19 Z M 29 19 "/>
<path style=" stroke:none;fill-rule:nonzero;fill:rgb(12.156863%,12.941176%,16.862745%);fill-opacity:1;" d="M 49 18 L 51 18 L 51 82 L 49 82 Z M 49 18 "/>
<path style=" stroke:none;fill-rule:nonzero;fill:rgb(12.156863%,12.941176%,16.862745%);fill-opacity:1;" d="M 18 49 L 82 49 L 82 51 L 18 51 Z M 46.5 45 L 40.5 45 C 40.222656 45 40 44.777344 40 44.5 C 40 44.222656 40.222656 44 40.5 44 L 45.578125 44 L 40 35.417969 L 37.917969 38.617188 C 37.769531 38.847656 37.460938 38.914062 37.226562 38.765625 C 36.996094 38.613281 36.929688 38.304688 37.078125 38.074219 L 39.578125 34.226562 C 39.765625 33.945312 40.234375 33.945312 40.417969 34.226562 L 46.917969 44.226562 C 47.019531 44.378906 47.027344 44.578125 46.9375 44.738281 C 46.851562 44.898438 46.683594 45 46.5 45 Z M 73.5 76 L 59.5 76 C 57.019531 76 55 73.980469 55 71.5 C 55 69.570312 56.21875 67.890625 58.011719 67.265625 C 58.003906 67.175781 58 67.089844 58 67 C 58 64.792969 59.792969 63 62 63 C 62.199219 63 62.390625 63.015625 62.578125 63.046875 C 62.851562 63.09375 63.039062 63.347656 62.992188 63.621094 C 62.949219 63.890625 62.695312 64.085938 62.421875 64.035156 C 62.28125 64.011719 62.144531 64 62 64 C 60.347656 64 59 65.347656 59 67 C 59 67.183594 59.023438 67.359375 59.054688 67.535156 C 59.101562 67.796875 58.9375 68.046875 58.679688 68.109375 C 57.101562 68.488281 56 69.882812 56 71.5 C 56 73.429688 57.570312 75 59.5 75 L 73.5 75 C 75.429688 75 77 73.429688 77 71.5 C 77 70.25 76.3125 69.085938 75.203125 68.460938 C 75.015625 68.359375 74.917969 68.148438 74.953125 67.9375 C 74.980469 67.796875 75 67.648438 75 67.5 C 75 66.121094 73.878906 65 72.5 65 C 72.15625 65 71.820312 65.070312 71.503906 65.210938 C 71.371094 65.269531 71.21875 65.265625 71.089844 65.203125 C 70.960938 65.144531 70.863281 65.027344 70.820312 64.890625 C 70.328125 63.1875 68.757812 62 67 62 C 66.542969 62 66.09375 62.078125 65.667969 62.230469 C 65.410156 62.320312 65.121094 62.1875 65.027344 61.929688 C 64.933594 61.667969 65.070312 61.382812 65.332031 61.289062 C 65.867188 61.097656 66.425781 61 67 61 C 69.023438 61 70.851562 62.257812 71.609375 64.117188 C 71.898438 64.039062 72.199219 64 72.5 64 C 74.429688 64 76 65.570312 76 67.5 C 76 67.59375 75.996094 67.683594 75.988281 67.769531 C 77.238281 68.605469 78 70.003906 78 71.5 C 78 73.980469 75.980469 76 73.5 76 Z M 57.5 61 C 55.570312 61 54 59.429688 54 57.5 C 54 55.570312 55.570312 54 57.5 54 C 59.429688 54 61 55.570312 61 57.5 C 61 59.429688 59.429688 61 57.5 61 Z M 57.5 55 C 56.121094 55 55 56.121094 55 57.5 C 55 58.878906 56.121094 60 57.5 60 C 58.878906 60 60 58.878906 60 57.5 C 60 56.121094 58.878906 55 57.5 55 Z M 66.5 42 C 62.363281 42 59 38.636719 59 34.5 C 59 30.363281 62.363281 27 66.5 27 C 70.636719 27 74 30.363281 74 34.5 C 74 38.636719 70.636719 42 66.5 42 Z M 66.5 28 C 62.914062 28 60 30.914062 60 34.5 C 60 38.085938 62.914062 41 66.5 41 C 70.085938 41 73 38.085938 73 34.5 C 73 30.914062 70.085938 28 66.5 28 Z M 41.5 30 C 39.570312 30 38 28.429688 38 26.5 C 38 24.570312 39.570312 23 41.5 23 C 43.429688 23 45 24.570312 45 26.5 C 45 28.429688 43.429688 30 41.5 30 Z M 41.5 24 C 40.121094 24 39 25.121094 39 26.5 C 39 27.878906 40.121094 29 41.5 29 C 42.878906 29 44 27.878906 44 26.5 C 44 25.121094 42.878906 24 41.5 24 Z M 41.5 24 "/>
<path style=" stroke:none;fill-rule:nonzero;fill:rgb(12.156863%,12.941176%,16.862745%);fill-opacity:1;" d="M 66.5 28 C 66.222656 28 66 27.777344 66 27.5 L 66 23.5 C 66 23.222656 66.222656 23 66.5 23 C 66.777344 23 67 23.222656 67 23.5 L 67 27.5 C 67 27.777344 66.777344 28 66.5 28 Z M 66.5 46 C 66.222656 46 66 45.777344 66 45.5 L 66 41.5 C 66 41.222656 66.222656 41 66.5 41 C 66.777344 41 67 41.222656 67 41.5 L 67 45.5 C 67 45.777344 66.777344 46 66.5 46 Z M 59.5 35 L 55.5 35 C 55.222656 35 55 34.777344 55 34.5 C 55 34.222656 55.222656 34 55.5 34 L 59.5 34 C 59.777344 34 60 34.222656 60 34.5 C 60 34.777344 59.777344 35 59.5 35 Z M 77.5 35 L 73.5 35 C 73.222656 35 73 34.777344 73 34.5 C 73 34.222656 73.222656 34 73.5 34 L 77.5 34 C 77.777344 34 78 34.222656 78 34.5 C 78 34.777344 77.777344 35 77.5 35 Z M 61.550781 30.050781 C 61.421875 30.050781 61.292969 30 61.195312 29.902344 L 58.144531 26.855469 C 57.949219 26.660156 57.949219 26.34375 58.144531 26.148438 C 58.339844 25.953125 58.65625 25.953125 58.851562 26.148438 L 61.902344 29.195312 C 62.097656 29.390625 62.097656 29.710938 61.902344 29.902344 C 61.804688 30 61.679688 30.050781 61.550781 30.050781 Z M 74.5 43 C 74.371094 43 74.242188 42.949219 74.144531 42.855469 L 71.097656 39.804688 C 70.902344 39.609375 70.902344 39.292969 71.097656 39.097656 C 71.289062 38.902344 71.609375 38.902344 71.804688 39.097656 L 74.851562 42.148438 C 75.046875 42.34375 75.046875 42.660156 74.851562 42.855469 C 74.757812 42.949219 74.628906 43 74.5 43 Z M 58.5 43 C 58.371094 43 58.242188 42.949219 58.144531 42.855469 C 57.949219 42.660156 57.949219 42.34375 58.144531 42.148438 L 61.195312 39.097656 C 61.390625 38.902344 61.707031 38.902344 61.902344 39.097656 C 62.097656 39.292969 62.097656 39.609375 61.902344 39.804688 L 58.851562 42.855469 C 58.757812 42.949219 58.628906 43 58.5 43 Z M 71.449219 30.050781 C 71.320312 30.050781 71.195312 30 71.097656 29.902344 C 70.902344 29.710938 70.902344 29.390625 71.097656 29.195312 L 74.144531 26.148438 C 74.339844 25.953125 74.65625 25.953125 74.851562 26.148438 C 75.046875 26.34375 75.046875 26.660156 74.851562 26.855469 L 71.804688 29.902344 C 71.707031 30 71.578125 30.050781 71.449219 30.050781 Z M 41.5 45 L 21.5 45 C 21.316406 45 21.144531 44.898438 21.058594 44.734375 C 20.972656 44.574219 20.980469 44.375 21.085938 44.222656 L 24.417969 39.222656 C 24.570312 38.992188 24.878906 38.929688 25.109375 39.082031 C 25.339844 39.234375 25.402344 39.546875 25.25 39.777344 L 22.433594 44 L 40.566406 44 L 31.5 30.402344 L 31.25 30.777344 C 31.097656 31.007812 30.785156 31.066406 30.558594 30.914062 C 30.328125 30.761719 30.265625 30.453125 30.417969 30.222656 L 31.085938 29.222656 C 31.269531 28.945312 31.730469 28.945312 31.917969 29.222656 L 41.917969 44.222656 C 42.019531 44.375 42.027344 44.574219 41.941406 44.738281 C 41.855469 44.898438 41.683594 45 41.5 45 Z M 41.5 45 "/>
<path style=" stroke:none;fill-rule:nonzero;fill:rgb(12.156863%,12.941176%,16.862745%);fill-opacity:1;" d="M 26.164062 38 C 26.070312 38 25.976562 37.972656 25.890625 37.914062 C 25.660156 37.761719 25.597656 37.453125 25.75 37.222656 L 27.082031 35.222656 C 27.234375 34.992188 27.546875 34.929688 27.777344 35.085938 C 28.007812 35.238281 28.066406 35.546875 27.914062 35.777344 L 26.582031 37.777344 C 26.484375 37.921875 26.328125 38 26.164062 38 Z M 28.832031 34 C 28.738281 34 28.640625 33.972656 28.554688 33.914062 C 28.324219 33.761719 28.265625 33.453125 28.417969 33.222656 L 29.085938 32.222656 C 29.238281 31.992188 29.546875 31.929688 29.777344 32.085938 C 30.007812 32.238281 30.070312 32.546875 29.914062 32.777344 L 29.25 33.777344 C 29.152344 33.921875 28.996094 34 28.832031 34 Z M 38.496094 76.5 C 38.367188 76.5 38.230469 76.492188 38.097656 76.480469 C 37.035156 76.375 36.078125 75.863281 35.402344 75.035156 C 34.914062 74.4375 34.394531 73.453125 34 72.40625 C 33.605469 73.453125 33.085938 74.4375 32.597656 75.035156 C 31.921875 75.863281 30.964844 76.375 29.902344 76.480469 C 28.84375 76.585938 27.800781 76.269531 26.976562 75.59375 C 25.273438 74.191406 25.027344 71.667969 26.421875 69.964844 C 26.839844 69.453125 27.519531 68.871094 28.296875 68.34375 C 27.160156 68.226562 26.050781 67.96875 25.316406 67.632812 C 23.320312 66.703125 22.445312 64.324219 23.367188 62.320312 C 23.574219 61.875 23.855469 61.480469 24.199219 61.140625 C 24.398438 60.949219 24.714844 60.953125 24.90625 61.148438 C 25.097656 61.347656 25.09375 61.664062 24.898438 61.855469 C 24.640625 62.109375 24.429688 62.40625 24.277344 62.742188 C 23.585938 64.242188 24.238281 66.027344 25.738281 66.722656 C 26.566406 67.105469 28.339844 67.484375 30.003906 67.402344 C 30.25 67.402344 30.449219 67.550781 30.507812 67.777344 C 30.566406 68.007812 30.460938 68.242188 30.246094 68.351562 C 29.035156 68.957031 27.777344 69.882812 27.195312 70.59375 C 26.148438 71.875 26.335938 73.769531 27.609375 74.816406 C 28.230469 75.324219 29.007812 75.558594 29.800781 75.484375 C 30.597656 75.40625 31.316406 75.019531 31.824219 74.402344 C 32.367188 73.738281 33.144531 72.179688 33.511719 70.601562 C 33.617188 70.148438 34.382812 70.148438 34.488281 70.601562 C 34.855469 72.179688 35.632812 73.738281 36.175781 74.402344 C 36.683594 75.019531 37.402344 75.40625 38.195312 75.484375 C 38.992188 75.558594 39.769531 75.324219 40.386719 74.816406 C 41.664062 73.769531 41.851562 71.875 40.804688 70.59375 C 40.628906 70.382812 40.660156 70.066406 40.875 69.890625 C 41.089844 69.714844 41.402344 69.746094 41.578125 69.960938 C 42.972656 71.667969 42.726562 74.191406 41.023438 75.589844 C 40.304688 76.183594 39.417969 76.5 38.496094 76.5 Z M 38.402344 68.414062 C 38.25 68.414062 38.101562 68.410156 37.953125 68.402344 C 37.679688 68.390625 37.464844 68.160156 37.476562 67.882812 C 37.488281 67.609375 37.734375 67.402344 37.996094 67.402344 C 39.660156 67.484375 41.433594 67.105469 42.261719 66.722656 C 43.761719 66.027344 44.414062 64.242188 43.722656 62.742188 C 43.386719 62.011719 42.785156 61.460938 42.035156 61.183594 C 41.285156 60.90625 40.476562 60.941406 39.75 61.277344 C 38.863281 61.6875 37.355469 62.902344 36.367188 64.226562 C 36.207031 64.441406 35.910156 64.488281 35.6875 64.339844 C 35.464844 64.191406 35.398438 63.894531 35.539062 63.664062 C 36.410156 62.242188 36.992188 60.105469 36.992188 59 C 36.992188 57.34375 35.648438 56 34 56 C 32.347656 56 31.007812 57.34375 31.007812 59 C 31.007812 60.105469 31.589844 62.242188 32.457031 63.664062 C 32.597656 63.894531 32.53125 64.191406 32.3125 64.339844 C 32.089844 64.488281 31.789062 64.441406 31.632812 64.226562 C 30.644531 62.902344 29.136719 61.6875 28.25 61.277344 C 27.988281 61.15625 27.710938 61.074219 27.425781 61.03125 C 27.152344 60.992188 26.964844 60.738281 27.003906 60.464844 C 27.046875 60.191406 27.292969 60.007812 27.574219 60.042969 C 27.953125 60.097656 28.324219 60.210938 28.671875 60.371094 C 29.210938 60.621094 29.847656 61.058594 30.476562 61.585938 C 30.175781 60.597656 30.007812 59.648438 30.007812 59 C 30.007812 56.792969 31.800781 55 34 55 C 36.199219 55 37.992188 56.792969 37.992188 59 C 37.992188 59.648438 37.824219 60.597656 37.523438 61.585938 C 38.152344 61.058594 38.789062 60.621094 39.328125 60.371094 C 40.296875 59.921875 41.378906 59.878906 42.382812 60.246094 C 43.382812 60.613281 44.183594 61.351562 44.632812 62.320312 C 45.554688 64.324219 44.679688 66.703125 42.683594 67.632812 C 41.664062 68.101562 39.929688 68.414062 38.402344 68.414062 Z M 38.402344 68.414062 "/>
</g>
</svg>
