<?xml version="1.0" encoding="UTF-8"?>
<svg xmlns="http://www.w3.org/2000/svg" xmlns:xlink="http://www.w3.org/1999/xlink" width="100pt" height="100pt" viewBox="0 0 100 100" version="1.1">
<g id="surface462">
<path style=" stroke:none;fill-rule:nonzero;fill:rgb(92.941176%,86.27451%,40.392157%);fill-opacity:1;" d="M 23.5 46.5 L 27.5 46.5 L 27.5 50.5 L 23.5 50.5 Z M 23.5 46.5 "/>
<path style=" stroke:none;fill-rule:nonzero;fill:rgb(92.941176%,86.27451%,40.392157%);fill-opacity:1;" d="M 67.5 46.5 L 71.5 46.5 L 71.5 50.5 L 67.5 50.5 Z M 67.5 46.5 "/>
<path style=" stroke:none;fill-rule:nonzero;fill:rgb(92.941176%,86.27451%,40.392157%);fill-opacity:1;" d="M 71.5 46.5 L 75.5 46.5 L 75.5 50.5 L 71.5 50.5 Z M 71.5 46.5 "/>
<path style=" stroke:none;fill-rule:nonzero;fill:rgb(92.941176%,86.27451%,40.392157%);fill-opacity:1;" d="M 67.5 50.5 L 71.5 50.5 L 71.5 54.5 L 67.5 54.5 Z M 67.5 50.5 "/>
<path style=" stroke:none;fill-rule:nonzero;fill:rgb(92.941176%,86.27451%,40.392157%);fill-opacity:1;" d="M 31.5 50.5 L 35.5 50.5 L 35.5 54.5 L 31.5 54.5 Z M 31.5 50.5 "/>
<path style=" stroke:none;fill-rule:nonzero;fill:rgb(92.941176%,86.27451%,40.392157%);fill-opacity:1;" d="M 63.5 50.5 L 67.5 50.5 L 67.5 54.5 L 63.5 54.5 Z M 63.5 50.5 "/>
<path style=" stroke:none;fill-rule:nonzero;fill:rgb(92.941176%,86.27451%,40.392157%);fill-opacity:1;" d="M 31.5 54.5 L 35.5 54.5 L 35.5 58.5 L 31.5 58.5 Z M 31.5 54.5 "/>
<path style=" stroke:none;fill-rule:nonzero;fill:rgb(92.941176%,86.27451%,40.392157%);fill-opacity:1;" d="M 27.5 54.5 L 31.5 54.5 L 31.5 58.5 L 27.5 58.5 Z M 27.5 54.5 "/>
<path style=" stroke:none;fill-rule:nonzero;fill:rgb(92.941176%,86.27451%,40.392157%);fill-opacity:1;" d="M 63.5 54.5 L 67.5 54.5 L 67.5 58.5 L 63.5 58.5 Z M 63.5 54.5 "/>
<path style=" stroke:none;fill-rule:nonzero;fill:rgb(92.941176%,86.27451%,40.392157%);fill-opacity:1;" d="M 67.5 54.5 L 71.5 54.5 L 71.5 58.5 L 67.5 58.5 Z M 67.5 54.5 "/>
<path style=" stroke:none;fill-rule:nonzero;fill:rgb(92.941176%,86.27451%,40.392157%);fill-opacity:1;" d="M 31.5 58.5 L 35.5 58.5 L 35.5 62.5 L 31.5 62.5 Z M 31.5 58.5 "/>
<path style=" stroke:none;fill-rule:nonzero;fill:rgb(92.941176%,86.27451%,40.392157%);fill-opacity:1;" d="M 63.5 58.5 L 67.5 58.5 L 67.5 62.5 L 63.5 62.5 Z M 63.5 58.5 "/>
<path style=" stroke:none;fill-rule:nonzero;fill:rgb(92.941176%,86.27451%,40.392157%);fill-opacity:1;" d="M 27.5 62.5 L 31.5 62.5 L 31.5 66.5 L 27.5 66.5 Z M 27.5 62.5 "/>
<path style=" stroke:none;fill-rule:nonzero;fill:rgb(92.941176%,86.27451%,40.392157%);fill-opacity:1;" d="M 27.5 58.5 L 31.5 58.5 L 31.5 62.5 L 27.5 62.5 Z M 27.5 58.5 "/>
<path style=" stroke:none;fill-rule:nonzero;fill:rgb(92.941176%,86.27451%,40.392157%);fill-opacity:1;" d="M 43.5 66.5 L 47.5 66.5 L 47.5 70.5 L 43.5 70.5 Z M 43.5 66.5 "/>
<path style=" stroke:none;fill-rule:nonzero;fill:rgb(92.941176%,86.27451%,40.392157%);fill-opacity:1;" d="M 47.5 66.5 L 51.5 66.5 L 51.5 70.5 L 47.5 70.5 Z M 47.5 66.5 "/>
<path style=" stroke:none;fill-rule:nonzero;fill:rgb(92.941176%,86.27451%,40.392157%);fill-opacity:1;" d="M 27.5 66.5 L 31.5 66.5 L 31.5 70.5 L 27.5 70.5 Z M 27.5 66.5 "/>
<path style=" stroke:none;fill-rule:nonzero;fill:rgb(92.941176%,86.27451%,40.392157%);fill-opacity:1;" d="M 43.5 70.5 L 47.5 70.5 L 47.5 74.5 L 43.5 74.5 Z M 43.5 70.5 "/>
<path style=" stroke:none;fill-rule:nonzero;fill:rgb(92.941176%,86.27451%,40.392157%);fill-opacity:1;" d="M 51.5 70.5 L 55.5 70.5 L 55.5 74.5 L 51.5 74.5 Z M 51.5 70.5 "/>
<path style=" stroke:none;fill-rule:nonzero;fill:rgb(92.941176%,86.27451%,40.392157%);fill-opacity:1;" d="M 39.5 70.5 L 43.5 70.5 L 43.5 74.5 L 39.5 74.5 Z M 39.5 70.5 "/>
<path style=" stroke:none;fill-rule:nonzero;fill:rgb(92.941176%,86.27451%,40.392157%);fill-opacity:1;" d="M 35.5 70.5 L 39.5 70.5 L 39.5 74.5 L 35.5 74.5 Z M 35.5 70.5 "/>
<path style=" stroke:none;fill-rule:nonzero;fill:rgb(92.941176%,86.27451%,40.392157%);fill-opacity:1;" d="M 23.5 70.5 L 27.5 70.5 L 27.5 74.5 L 23.5 74.5 Z M 23.5 70.5 "/>
<path style=" stroke:none;fill-rule:nonzero;fill:rgb(92.941176%,86.27451%,40.392157%);fill-opacity:1;" d="M 23.5 66.5 L 27.5 66.5 L 27.5 70.5 L 23.5 70.5 Z M 23.5 66.5 "/>
<path style=" stroke:none;fill-rule:nonzero;fill:rgb(92.941176%,86.27451%,40.392157%);fill-opacity:1;" d="M 67.5 66.5 L 71.5 66.5 L 71.5 70.5 L 67.5 70.5 Z M 67.5 66.5 "/>
<path style=" stroke:none;fill-rule:nonzero;fill:rgb(92.941176%,86.27451%,40.392157%);fill-opacity:1;" d="M 71.5 70.5 L 75.5 70.5 L 75.5 74.5 L 71.5 74.5 Z M 71.5 70.5 "/>
<path style=" stroke:none;fill-rule:nonzero;fill:rgb(92.941176%,86.27451%,40.392157%);fill-opacity:1;" d="M 71.5 66.5 L 75.5 66.5 L 75.5 70.5 L 71.5 70.5 Z M 71.5 66.5 "/>
<path style=" stroke:none;fill-rule:nonzero;fill:rgb(92.941176%,86.27451%,40.392157%);fill-opacity:1;" d="M 59.5 70.5 L 63.5 70.5 L 63.5 74.5 L 59.5 74.5 Z M 59.5 70.5 "/>
<path style=" stroke:none;fill-rule:nonzero;fill:rgb(92.941176%,86.27451%,40.392157%);fill-opacity:1;" d="M 51.5 66.5 L 55.5 66.5 L 55.5 70.5 L 51.5 70.5 Z M 51.5 66.5 "/>
<path style=" stroke:none;fill-rule:nonzero;fill:rgb(92.941176%,86.27451%,40.392157%);fill-opacity:1;" d="M 47.5 70.5 L 51.5 70.5 L 51.5 74.5 L 47.5 74.5 Z M 47.5 70.5 "/>
<path style=" stroke:none;fill-rule:nonzero;fill:rgb(92.941176%,86.27451%,40.392157%);fill-opacity:1;" d="M 55.5 70.5 L 59.5 70.5 L 59.5 74.5 L 55.5 74.5 Z M 55.5 70.5 "/>
<path style=" stroke:none;fill-rule:nonzero;fill:rgb(92.941176%,86.27451%,40.392157%);fill-opacity:1;" d="M 31.5 74.5 L 35.5 74.5 L 35.5 78.5 L 31.5 78.5 Z M 31.5 74.5 "/>
<path style=" stroke:none;fill-rule:nonzero;fill:rgb(92.941176%,86.27451%,40.392157%);fill-opacity:1;" d="M 35.5 74.5 L 39.5 74.5 L 39.5 78.5 L 35.5 78.5 Z M 35.5 74.5 "/>
<path style=" stroke:none;fill-rule:nonzero;fill:rgb(92.941176%,86.27451%,40.392157%);fill-opacity:1;" d="M 23.5 74.5 L 27.5 74.5 L 27.5 78.5 L 23.5 78.5 Z M 23.5 74.5 "/>
<path style=" stroke:none;fill-rule:nonzero;fill:rgb(92.941176%,86.27451%,40.392157%);fill-opacity:1;" d="M 71.5 74.5 L 75.5 74.5 L 75.5 78.5 L 71.5 78.5 Z M 71.5 74.5 "/>
<path style=" stroke:none;fill-rule:nonzero;fill:rgb(92.941176%,86.27451%,40.392157%);fill-opacity:1;" d="M 63.5 74.5 L 67.5 74.5 L 67.5 78.5 L 63.5 78.5 Z M 63.5 74.5 "/>
<path style=" stroke:none;fill-rule:nonzero;fill:rgb(92.941176%,86.27451%,40.392157%);fill-opacity:1;" d="M 27.5 78.5 L 31.5 78.5 L 31.5 82.5 L 27.5 82.5 Z M 27.5 78.5 "/>
<path style=" stroke:none;fill-rule:nonzero;fill:rgb(92.941176%,86.27451%,40.392157%);fill-opacity:1;" d="M 23.5 78.5 L 27.5 78.5 L 27.5 82.5 L 23.5 82.5 Z M 23.5 78.5 "/>
<path style=" stroke:none;fill-rule:nonzero;fill:rgb(92.941176%,86.27451%,40.392157%);fill-opacity:1;" d="M 19.5 78.5 L 23.5 78.5 L 23.5 82.5 L 19.5 82.5 Z M 19.5 78.5 "/>
<path style=" stroke:none;fill-rule:nonzero;fill:rgb(92.941176%,86.27451%,40.392157%);fill-opacity:1;" d="M 75.5 78.5 L 79.5 78.5 L 79.5 82.5 L 75.5 82.5 Z M 75.5 78.5 "/>
<path style=" stroke:none;fill-rule:nonzero;fill:rgb(92.941176%,86.27451%,40.392157%);fill-opacity:1;" d="M 71.5 78.5 L 75.5 78.5 L 75.5 82.5 L 71.5 82.5 Z M 71.5 78.5 "/>
<path style=" stroke:none;fill-rule:nonzero;fill:rgb(92.941176%,86.27451%,40.392157%);fill-opacity:1;" d="M 67.5 78.5 L 71.5 78.5 L 71.5 82.5 L 67.5 82.5 Z M 67.5 78.5 "/>
<path style=" stroke:none;fill-rule:nonzero;fill:rgb(92.941176%,86.27451%,40.392157%);fill-opacity:1;" d="M 19.5 82.5 L 23.5 82.5 L 23.5 86.5 L 19.5 86.5 Z M 19.5 82.5 "/>
<path style=" stroke:none;fill-rule:nonzero;fill:rgb(92.941176%,86.27451%,40.392157%);fill-opacity:1;" d="M 23.5 82.5 L 27.5 82.5 L 27.5 86.5 L 23.5 86.5 Z M 23.5 82.5 "/>
<path style=" stroke:none;fill-rule:nonzero;fill:rgb(92.941176%,86.27451%,40.392157%);fill-opacity:1;" d="M 71.5 82.5 L 75.5 82.5 L 75.5 86.5 L 71.5 86.5 Z M 71.5 82.5 "/>
<path style=" stroke:none;fill-rule:nonzero;fill:rgb(92.941176%,86.27451%,40.392157%);fill-opacity:1;" d="M 75.5 82.5 L 79.5 82.5 L 79.5 86.5 L 75.5 86.5 Z M 75.5 82.5 "/>
<path style=" stroke:none;fill-rule:nonzero;fill:rgb(92.941176%,86.27451%,40.392157%);fill-opacity:1;" d="M 67.5 62.5 L 71.5 62.5 L 71.5 66.5 L 67.5 66.5 Z M 67.5 62.5 "/>
<path style=" stroke:none;fill-rule:nonzero;fill:rgb(92.941176%,86.27451%,40.392157%);fill-opacity:1;" d="M 67.5 58.5 L 71.5 58.5 L 71.5 62.5 L 67.5 62.5 Z M 67.5 58.5 "/>
<path style=" stroke:none;fill-rule:nonzero;fill:rgb(99.607843%,96.470588%,66.666667%);fill-opacity:1;" d="M 55.5 38.5 L 55.5 30.5 L 51.5 30.5 L 51.5 22.5 L 47.5 22.5 L 47.5 30.5 L 43.5 30.5 L 43.5 38.5 L 23.5 38.5 L 23.5 42.5 L 27.5 42.5 L 27.5 46.5 L 31.5 46.5 L 31.5 50.5 L 35.5 50.5 L 35.5 62.5 L 31.5 62.5 L 31.5 70.5 L 27.5 70.5 L 27.5 74.5 L 35.5 74.5 L 35.5 70.5 L 43.5 70.5 L 43.5 66.5 L 55.5 66.5 L 55.5 70.5 L 63.5 70.5 L 63.5 74.5 L 71.5 74.5 L 71.5 70.5 L 67.5 70.5 L 67.5 62.5 L 63.5 62.5 L 63.5 50.5 L 67.5 50.5 L 67.5 46.5 L 71.5 46.5 L 71.5 42.5 L 75.5 42.5 L 75.5 38.5 Z M 55.5 38.5 "/>
<path style=" stroke:none;fill-rule:nonzero;fill:rgb(92.941176%,86.27451%,40.392157%);fill-opacity:1;" d="M 47.5 14.5 L 51.5 14.5 L 51.5 18.5 L 47.5 18.5 Z M 47.5 14.5 "/>
<path style=" stroke:none;fill-rule:nonzero;fill:rgb(92.941176%,86.27451%,40.392157%);fill-opacity:1;" d="M 27.5 74.5 L 31.5 74.5 L 31.5 78.5 L 27.5 78.5 Z M 27.5 74.5 "/>
<path style=" stroke:none;fill-rule:nonzero;fill:rgb(92.941176%,86.27451%,40.392157%);fill-opacity:1;" d="M 67.5 74.5 L 71.5 74.5 L 71.5 78.5 L 67.5 78.5 Z M 67.5 74.5 "/>
<path style=" stroke:none;fill-rule:nonzero;fill:rgb(92.941176%,86.27451%,40.392157%);fill-opacity:1;" d="M 59.5 74.5 L 63.5 74.5 L 63.5 78.5 L 59.5 78.5 Z M 59.5 74.5 "/>
<path style=" stroke:none;fill-rule:nonzero;fill:rgb(92.941176%,86.27451%,40.392157%);fill-opacity:1;" d="M 43.5 18.5 L 47.5 18.5 L 47.5 22.5 L 43.5 22.5 Z M 43.5 18.5 "/>
<path style=" stroke:none;fill-rule:nonzero;fill:rgb(92.941176%,86.27451%,40.392157%);fill-opacity:1;" d="M 47.5 18.5 L 51.5 18.5 L 51.5 22.5 L 47.5 22.5 Z M 47.5 18.5 "/>
<path style=" stroke:none;fill-rule:nonzero;fill:rgb(92.941176%,86.27451%,40.392157%);fill-opacity:1;" d="M 51.5 18.5 L 55.5 18.5 L 55.5 22.5 L 51.5 22.5 Z M 51.5 18.5 "/>
<path style=" stroke:none;fill-rule:nonzero;fill:rgb(92.941176%,86.27451%,40.392157%);fill-opacity:1;" d="M 43.5 22.5 L 47.5 22.5 L 47.5 26.5 L 43.5 26.5 Z M 43.5 22.5 "/>
<path style=" stroke:none;fill-rule:nonzero;fill:rgb(92.941176%,86.27451%,40.392157%);fill-opacity:1;" d="M 51.5 22.5 L 55.5 22.5 L 55.5 26.5 L 51.5 26.5 Z M 51.5 22.5 "/>
<path style=" stroke:none;fill-rule:nonzero;fill:rgb(92.941176%,86.27451%,40.392157%);fill-opacity:1;" d="M 43.5 26.5 L 47.5 26.5 L 47.5 30.5 L 43.5 30.5 Z M 43.5 26.5 "/>
<path style=" stroke:none;fill-rule:nonzero;fill:rgb(92.941176%,86.27451%,40.392157%);fill-opacity:1;" d="M 51.5 26.5 L 55.5 26.5 L 55.5 30.5 L 51.5 30.5 Z M 51.5 26.5 "/>
<path style=" stroke:none;fill-rule:nonzero;fill:rgb(92.941176%,86.27451%,40.392157%);fill-opacity:1;" d="M 55.5 26.5 L 59.5 26.5 L 59.5 30.5 L 55.5 30.5 Z M 55.5 26.5 "/>
<path style=" stroke:none;fill-rule:nonzero;fill:rgb(92.941176%,86.27451%,40.392157%);fill-opacity:1;" d="M 39.5 26.5 L 43.5 26.5 L 43.5 30.5 L 39.5 30.5 Z M 39.5 26.5 "/>
<path style=" stroke:none;fill-rule:nonzero;fill:rgb(92.941176%,86.27451%,40.392157%);fill-opacity:1;" d="M 39.5 30.5 L 43.5 30.5 L 43.5 34.5 L 39.5 34.5 Z M 39.5 30.5 "/>
<path style=" stroke:none;fill-rule:nonzero;fill:rgb(92.941176%,86.27451%,40.392157%);fill-opacity:1;" d="M 55.5 30.5 L 59.5 30.5 L 59.5 34.5 L 55.5 34.5 Z M 55.5 30.5 "/>
<path style=" stroke:none;fill-rule:nonzero;fill:rgb(92.941176%,86.27451%,40.392157%);fill-opacity:1;" d="M 39.5 34.5 L 43.5 34.5 L 43.5 38.5 L 39.5 38.5 Z M 39.5 34.5 "/>
<path style=" stroke:none;fill-rule:nonzero;fill:rgb(92.941176%,86.27451%,40.392157%);fill-opacity:1;" d="M 35.5 34.5 L 39.5 34.5 L 39.5 38.5 L 35.5 38.5 Z M 35.5 34.5 "/>
<path style=" stroke:none;fill-rule:nonzero;fill:rgb(92.941176%,86.27451%,40.392157%);fill-opacity:1;" d="M 31.5 34.5 L 35.5 34.5 L 35.5 38.5 L 31.5 38.5 Z M 31.5 34.5 "/>
<path style=" stroke:none;fill-rule:nonzero;fill:rgb(92.941176%,86.27451%,40.392157%);fill-opacity:1;" d="M 27.5 34.5 L 31.5 34.5 L 31.5 38.5 L 27.5 38.5 Z M 27.5 34.5 "/>
<path style=" stroke:none;fill-rule:nonzero;fill:rgb(92.941176%,86.27451%,40.392157%);fill-opacity:1;" d="M 23.5 34.5 L 27.5 34.5 L 27.5 38.5 L 23.5 38.5 Z M 23.5 34.5 "/>
<path style=" stroke:none;fill-rule:nonzero;fill:rgb(92.941176%,86.27451%,40.392157%);fill-opacity:1;" d="M 19.5 34.5 L 23.5 34.5 L 23.5 38.5 L 19.5 38.5 Z M 19.5 34.5 "/>
<path style=" stroke:none;fill-rule:nonzero;fill:rgb(92.941176%,86.27451%,40.392157%);fill-opacity:1;" d="M 15.5 34.5 L 19.5 34.5 L 19.5 38.5 L 15.5 38.5 Z M 15.5 34.5 "/>
<path style=" stroke:none;fill-rule:nonzero;fill:rgb(92.941176%,86.27451%,40.392157%);fill-opacity:1;" d="M 11.5 34.5 L 15.5 34.5 L 15.5 38.5 L 11.5 38.5 Z M 11.5 34.5 "/>
<path style=" stroke:none;fill-rule:nonzero;fill:rgb(92.941176%,86.27451%,40.392157%);fill-opacity:1;" d="M 55.5 34.5 L 59.5 34.5 L 59.5 38.5 L 55.5 38.5 Z M 55.5 34.5 "/>
<path style=" stroke:none;fill-rule:nonzero;fill:rgb(92.941176%,86.27451%,40.392157%);fill-opacity:1;" d="M 59.5 34.5 L 63.5 34.5 L 63.5 38.5 L 59.5 38.5 Z M 59.5 34.5 "/>
<path style=" stroke:none;fill-rule:nonzero;fill:rgb(92.941176%,86.27451%,40.392157%);fill-opacity:1;" d="M 63.5 34.5 L 67.5 34.5 L 67.5 38.5 L 63.5 38.5 Z M 63.5 34.5 "/>
<path style=" stroke:none;fill-rule:nonzero;fill:rgb(92.941176%,86.27451%,40.392157%);fill-opacity:1;" d="M 67.5 34.5 L 71.5 34.5 L 71.5 38.5 L 67.5 38.5 Z M 67.5 34.5 "/>
<path style=" stroke:none;fill-rule:nonzero;fill:rgb(92.941176%,86.27451%,40.392157%);fill-opacity:1;" d="M 71.5 34.5 L 75.5 34.5 L 75.5 38.5 L 71.5 38.5 Z M 71.5 34.5 "/>
<path style=" stroke:none;fill-rule:nonzero;fill:rgb(92.941176%,86.27451%,40.392157%);fill-opacity:1;" d="M 75.5 34.5 L 79.5 34.5 L 79.5 38.5 L 75.5 38.5 Z M 75.5 34.5 "/>
<path style=" stroke:none;fill-rule:nonzero;fill:rgb(92.941176%,86.27451%,40.392157%);fill-opacity:1;" d="M 79.5 34.5 L 83.5 34.5 L 83.5 38.5 L 79.5 38.5 Z M 79.5 34.5 "/>
<path style=" stroke:none;fill-rule:nonzero;fill:rgb(92.941176%,86.27451%,40.392157%);fill-opacity:1;" d="M 83.5 34.5 L 87.5 34.5 L 87.5 38.5 L 83.5 38.5 Z M 83.5 34.5 "/>
<path style=" stroke:none;fill-rule:nonzero;fill:rgb(92.941176%,86.27451%,40.392157%);fill-opacity:1;" d="M 19.5 38.5 L 23.5 38.5 L 23.5 42.5 L 19.5 42.5 Z M 19.5 38.5 "/>
<path style=" stroke:none;fill-rule:nonzero;fill:rgb(92.941176%,86.27451%,40.392157%);fill-opacity:1;" d="M 15.5 38.5 L 19.5 38.5 L 19.5 42.5 L 15.5 42.5 Z M 15.5 38.5 "/>
<path style=" stroke:none;fill-rule:nonzero;fill:rgb(92.941176%,86.27451%,40.392157%);fill-opacity:1;" d="M 75.5 38.5 L 79.5 38.5 L 79.5 42.5 L 75.5 42.5 Z M 75.5 38.5 "/>
<path style=" stroke:none;fill-rule:nonzero;fill:rgb(92.941176%,86.27451%,40.392157%);fill-opacity:1;" d="M 79.5 38.5 L 83.5 38.5 L 83.5 42.5 L 79.5 42.5 Z M 79.5 38.5 "/>
<path style=" stroke:none;fill-rule:nonzero;fill:rgb(92.941176%,86.27451%,40.392157%);fill-opacity:1;" d="M 23.5 42.5 L 27.5 42.5 L 27.5 46.5 L 23.5 46.5 Z M 23.5 42.5 "/>
<path style=" stroke:none;fill-rule:nonzero;fill:rgb(92.941176%,86.27451%,40.392157%);fill-opacity:1;" d="M 19.5 42.5 L 23.5 42.5 L 23.5 46.5 L 19.5 46.5 Z M 19.5 42.5 "/>
<path style=" stroke:none;fill-rule:nonzero;fill:rgb(92.941176%,86.27451%,40.392157%);fill-opacity:1;" d="M 71.5 42.5 L 75.5 42.5 L 75.5 46.5 L 71.5 46.5 Z M 71.5 42.5 "/>
<path style=" stroke:none;fill-rule:nonzero;fill:rgb(92.941176%,86.27451%,40.392157%);fill-opacity:1;" d="M 75.5 42.5 L 79.5 42.5 L 79.5 46.5 L 75.5 46.5 Z M 75.5 42.5 "/>
<path style=" stroke:none;fill-rule:nonzero;fill:rgb(92.941176%,86.27451%,40.392157%);fill-opacity:1;" d="M 27.5 46.5 L 31.5 46.5 L 31.5 50.5 L 27.5 50.5 Z M 27.5 46.5 "/>
<path style=" stroke:none;fill-rule:nonzero;fill:rgb(92.941176%,86.27451%,40.392157%);fill-opacity:1;" d="M 27.5 50.5 L 31.5 50.5 L 31.5 54.5 L 27.5 54.5 Z M 27.5 50.5 "/>
<path style=" stroke:none;fill-rule:nonzero;fill:rgb(12.156863%,12.941176%,16.862745%);fill-opacity:1;" d="M 83.5 43 L 79.5 43 C 79.199219 43 79 42.800781 79 42.5 L 79 38.5 C 79 38.199219 79.199219 38 79.5 38 L 83.5 38 C 83.800781 38 84 38.199219 84 38.5 L 84 42.5 C 84 42.800781 83.800781 43 83.5 43 Z M 80 42 L 83 42 L 83 39 L 80 39 Z M 80 42 "/>
<path style=" stroke:none;fill-rule:nonzero;fill:rgb(12.156863%,12.941176%,16.862745%);fill-opacity:1;" d="M 27.5 47 L 23.5 47 C 23.199219 47 23 46.800781 23 46.5 L 23 42.5 C 23 42.199219 23.199219 42 23.5 42 L 27.5 42 C 27.800781 42 28 42.199219 28 42.5 L 28 46.5 C 28 46.800781 27.800781 47 27.5 47 Z M 24 46 L 27 46 L 27 43 L 24 43 Z M 24 46 "/>
<path style=" stroke:none;fill-rule:nonzero;fill:rgb(12.156863%,12.941176%,16.862745%);fill-opacity:1;" d="M 71.5 63 L 67.5 63 C 67.199219 63 67 62.800781 67 62.5 L 67 58.5 C 67 58.199219 67.199219 58 67.5 58 L 71.5 58 C 71.800781 58 72 58.199219 72 58.5 L 72 62.5 C 72 62.800781 71.800781 63 71.5 63 Z M 68 62 L 71 62 L 71 59 L 68 59 Z M 68 62 "/>
<path style=" stroke:none;fill-rule:nonzero;fill:rgb(12.156863%,12.941176%,16.862745%);fill-opacity:1;" d="M 51.5 19 L 47.5 19 C 47.199219 19 47 18.800781 47 18.5 L 47 14.5 C 47 14.199219 47.199219 14 47.5 14 L 51.5 14 C 51.800781 14 52 14.199219 52 14.5 L 52 18.5 C 52 18.800781 51.800781 19 51.5 19 Z M 48 18 L 51 18 L 51 15 L 48 15 Z M 48 18 "/>
<path style=" stroke:none;fill-rule:nonzero;fill:rgb(12.156863%,12.941176%,16.862745%);fill-opacity:1;" d="M 47.5 23 L 43.5 23 C 43.199219 23 43 22.800781 43 22.5 L 43 18.5 C 43 18.199219 43.199219 18 43.5 18 L 47.5 18 C 47.800781 18 48 18.199219 48 18.5 L 48 22.5 C 48 22.800781 47.800781 23 47.5 23 Z M 44 22 L 47 22 L 47 19 L 44 19 Z M 44 22 "/>
<path style=" stroke:none;fill-rule:nonzero;fill:rgb(12.156863%,12.941176%,16.862745%);fill-opacity:1;" d="M 51.5 23 L 47.5 23 C 47.199219 23 47 22.800781 47 22.5 L 47 18.5 C 47 18.199219 47.199219 18 47.5 18 L 51.5 18 C 51.800781 18 52 18.199219 52 18.5 L 52 22.5 C 52 22.800781 51.800781 23 51.5 23 Z M 48 22 L 51 22 L 51 19 L 48 19 Z M 48 22 "/>
<path style=" stroke:none;fill-rule:nonzero;fill:rgb(12.156863%,12.941176%,16.862745%);fill-opacity:1;" d="M 55.5 23 L 51.5 23 C 51.199219 23 51 22.800781 51 22.5 L 51 18.5 C 51 18.199219 51.199219 18 51.5 18 L 55.5 18 C 55.800781 18 56 18.199219 56 18.5 L 56 22.5 C 56 22.800781 55.800781 23 55.5 23 Z M 52 22 L 55 22 L 55 19 L 52 19 Z M 52 22 "/>
<path style=" stroke:none;fill-rule:nonzero;fill:rgb(12.156863%,12.941176%,16.862745%);fill-opacity:1;" d="M 47.5 27 L 43.5 27 C 43.199219 27 43 26.800781 43 26.5 L 43 22.5 C 43 22.199219 43.199219 22 43.5 22 L 47.5 22 C 47.800781 22 48 22.199219 48 22.5 L 48 26.5 C 48 26.800781 47.800781 27 47.5 27 Z M 44 26 L 47 26 L 47 23 L 44 23 Z M 44 26 "/>
<path style=" stroke:none;fill-rule:nonzero;fill:rgb(12.156863%,12.941176%,16.862745%);fill-opacity:1;" d="M 55.5 27 L 51.5 27 C 51.199219 27 51 26.800781 51 26.5 L 51 22.5 C 51 22.199219 51.199219 22 51.5 22 L 55.5 22 C 55.800781 22 56 22.199219 56 22.5 L 56 26.5 C 56 26.800781 55.800781 27 55.5 27 Z M 52 26 L 55 26 L 55 23 L 52 23 Z M 52 26 "/>
<path style=" stroke:none;fill-rule:nonzero;fill:rgb(12.156863%,12.941176%,16.862745%);fill-opacity:1;" d="M 47.5 31 L 43.5 31 C 43.199219 31 43 30.800781 43 30.5 L 43 26.5 C 43 26.199219 43.199219 26 43.5 26 L 47.5 26 C 47.800781 26 48 26.199219 48 26.5 L 48 30.5 C 48 30.800781 47.800781 31 47.5 31 Z M 44 30 L 47 30 L 47 27 L 44 27 Z M 44 30 "/>
<path style=" stroke:none;fill-rule:nonzero;fill:rgb(12.156863%,12.941176%,16.862745%);fill-opacity:1;" d="M 55.5 31 L 51.5 31 C 51.199219 31 51 30.800781 51 30.5 L 51 26.5 C 51 26.199219 51.199219 26 51.5 26 L 55.5 26 C 55.800781 26 56 26.199219 56 26.5 L 56 30.5 C 56 30.800781 55.800781 31 55.5 31 Z M 52 30 L 55 30 L 55 27 L 52 27 Z M 52 30 "/>
<path style=" stroke:none;fill-rule:nonzero;fill:rgb(12.156863%,12.941176%,16.862745%);fill-opacity:1;" d="M 59.5 31 L 55.5 31 C 55.199219 31 55 30.800781 55 30.5 L 55 26.5 C 55 26.199219 55.199219 26 55.5 26 L 59.5 26 C 59.800781 26 60 26.199219 60 26.5 L 60 30.5 C 60 30.800781 59.800781 31 59.5 31 Z M 56 30 L 59 30 L 59 27 L 56 27 Z M 56 30 "/>
<path style=" stroke:none;fill-rule:nonzero;fill:rgb(12.156863%,12.941176%,16.862745%);fill-opacity:1;" d="M 43.5 31 L 39.5 31 C 39.199219 31 39 30.800781 39 30.5 L 39 26.5 C 39 26.199219 39.199219 26 39.5 26 L 43.5 26 C 43.800781 26 44 26.199219 44 26.5 L 44 30.5 C 44 30.800781 43.800781 31 43.5 31 Z M 40 30 L 43 30 L 43 27 L 40 27 Z M 40 30 "/>
<path style=" stroke:none;fill-rule:nonzero;fill:rgb(12.156863%,12.941176%,16.862745%);fill-opacity:1;" d="M 43.5 35 L 39.5 35 C 39.199219 35 39 34.800781 39 34.5 L 39 30.5 C 39 30.199219 39.199219 30 39.5 30 L 43.5 30 C 43.800781 30 44 30.199219 44 30.5 L 44 34.5 C 44 34.800781 43.800781 35 43.5 35 Z M 40 34 L 43 34 L 43 31 L 40 31 Z M 40 34 "/>
<path style=" stroke:none;fill-rule:nonzero;fill:rgb(12.156863%,12.941176%,16.862745%);fill-opacity:1;" d="M 59.5 35 L 55.5 35 C 55.199219 35 55 34.800781 55 34.5 L 55 30.5 C 55 30.199219 55.199219 30 55.5 30 L 59.5 30 C 59.800781 30 60 30.199219 60 30.5 L 60 34.5 C 60 34.800781 59.800781 35 59.5 35 Z M 56 34 L 59 34 L 59 31 L 56 31 Z M 56 34 "/>
<path style=" stroke:none;fill-rule:nonzero;fill:rgb(12.156863%,12.941176%,16.862745%);fill-opacity:1;" d="M 43.5 39 L 39.5 39 C 39.199219 39 39 38.800781 39 38.5 L 39 34.5 C 39 34.199219 39.199219 34 39.5 34 L 43.5 34 C 43.800781 34 44 34.199219 44 34.5 L 44 38.5 C 44 38.800781 43.800781 39 43.5 39 Z M 40 38 L 43 38 L 43 35 L 40 35 Z M 40 38 "/>
<path style=" stroke:none;fill-rule:nonzero;fill:rgb(12.156863%,12.941176%,16.862745%);fill-opacity:1;" d="M 39.5 39 L 35.5 39 C 35.199219 39 35 38.800781 35 38.5 L 35 34.5 C 35 34.199219 35.199219 34 35.5 34 L 39.5 34 C 39.800781 34 40 34.199219 40 34.5 L 40 38.5 C 40 38.800781 39.800781 39 39.5 39 Z M 36 38 L 39 38 L 39 35 L 36 35 Z M 36 38 "/>
<path style=" stroke:none;fill-rule:nonzero;fill:rgb(12.156863%,12.941176%,16.862745%);fill-opacity:1;" d="M 35.5 39 L 31.5 39 C 31.199219 39 31 38.800781 31 38.5 L 31 34.5 C 31 34.199219 31.199219 34 31.5 34 L 35.5 34 C 35.800781 34 36 34.199219 36 34.5 L 36 38.5 C 36 38.800781 35.800781 39 35.5 39 Z M 32 38 L 35 38 L 35 35 L 32 35 Z M 32 38 "/>
<path style=" stroke:none;fill-rule:nonzero;fill:rgb(12.156863%,12.941176%,16.862745%);fill-opacity:1;" d="M 31.5 39 L 27.5 39 C 27.199219 39 27 38.800781 27 38.5 L 27 34.5 C 27 34.199219 27.199219 34 27.5 34 L 31.5 34 C 31.800781 34 32 34.199219 32 34.5 L 32 38.5 C 32 38.800781 31.800781 39 31.5 39 Z M 28 38 L 31 38 L 31 35 L 28 35 Z M 28 38 "/>
<path style=" stroke:none;fill-rule:nonzero;fill:rgb(12.156863%,12.941176%,16.862745%);fill-opacity:1;" d="M 27.5 39 L 23.5 39 C 23.199219 39 23 38.800781 23 38.5 L 23 34.5 C 23 34.199219 23.199219 34 23.5 34 L 27.5 34 C 27.800781 34 28 34.199219 28 34.5 L 28 38.5 C 28 38.800781 27.800781 39 27.5 39 Z M 24 38 L 27 38 L 27 35 L 24 35 Z M 24 38 "/>
<path style=" stroke:none;fill-rule:nonzero;fill:rgb(12.156863%,12.941176%,16.862745%);fill-opacity:1;" d="M 23.5 39 L 19.5 39 C 19.199219 39 19 38.800781 19 38.5 L 19 34.5 C 19 34.199219 19.199219 34 19.5 34 L 23.5 34 C 23.800781 34 24 34.199219 24 34.5 L 24 38.5 C 24 38.800781 23.800781 39 23.5 39 Z M 20 38 L 23 38 L 23 35 L 20 35 Z M 20 38 "/>
<path style=" stroke:none;fill-rule:nonzero;fill:rgb(12.156863%,12.941176%,16.862745%);fill-opacity:1;" d="M 19.5 39 L 15.5 39 C 15.199219 39 15 38.800781 15 38.5 L 15 34.5 C 15 34.199219 15.199219 34 15.5 34 L 19.5 34 C 19.800781 34 20 34.199219 20 34.5 L 20 38.5 C 20 38.800781 19.800781 39 19.5 39 Z M 16 38 L 19 38 L 19 35 L 16 35 Z M 16 38 "/>
<path style=" stroke:none;fill-rule:nonzero;fill:rgb(12.156863%,12.941176%,16.862745%);fill-opacity:1;" d="M 15.5 39 L 11.5 39 C 11.199219 39 11 38.800781 11 38.5 L 11 34.5 C 11 34.199219 11.199219 34 11.5 34 L 15.5 34 C 15.800781 34 16 34.199219 16 34.5 L 16 38.5 C 16 38.800781 15.800781 39 15.5 39 Z M 12 38 L 15 38 L 15 35 L 12 35 Z M 12 38 "/>
<path style=" stroke:none;fill-rule:nonzero;fill:rgb(12.156863%,12.941176%,16.862745%);fill-opacity:1;" d="M 59.5 39 L 55.5 39 C 55.199219 39 55 38.800781 55 38.5 L 55 34.5 C 55 34.199219 55.199219 34 55.5 34 L 59.5 34 C 59.800781 34 60 34.199219 60 34.5 L 60 38.5 C 60 38.800781 59.800781 39 59.5 39 Z M 56 38 L 59 38 L 59 35 L 56 35 Z M 56 38 "/>
<path style=" stroke:none;fill-rule:nonzero;fill:rgb(12.156863%,12.941176%,16.862745%);fill-opacity:1;" d="M 63.5 39 L 59.5 39 C 59.199219 39 59 38.800781 59 38.5 L 59 34.5 C 59 34.199219 59.199219 34 59.5 34 L 63.5 34 C 63.800781 34 64 34.199219 64 34.5 L 64 38.5 C 64 38.800781 63.800781 39 63.5 39 Z M 60 38 L 63 38 L 63 35 L 60 35 Z M 60 38 "/>
<path style=" stroke:none;fill-rule:nonzero;fill:rgb(12.156863%,12.941176%,16.862745%);fill-opacity:1;" d="M 67.5 39 L 63.5 39 C 63.199219 39 63 38.800781 63 38.5 L 63 34.5 C 63 34.199219 63.199219 34 63.5 34 L 67.5 34 C 67.800781 34 68 34.199219 68 34.5 L 68 38.5 C 68 38.800781 67.800781 39 67.5 39 Z M 64 38 L 67 38 L 67 35 L 64 35 Z M 64 38 "/>
<path style=" stroke:none;fill-rule:nonzero;fill:rgb(12.156863%,12.941176%,16.862745%);fill-opacity:1;" d="M 71.5 39 L 67.5 39 C 67.199219 39 67 38.800781 67 38.5 L 67 34.5 C 67 34.199219 67.199219 34 67.5 34 L 71.5 34 C 71.800781 34 72 34.199219 72 34.5 L 72 38.5 C 72 38.800781 71.800781 39 71.5 39 Z M 68 38 L 71 38 L 71 35 L 68 35 Z M 68 38 "/>
<path style=" stroke:none;fill-rule:nonzero;fill:rgb(12.156863%,12.941176%,16.862745%);fill-opacity:1;" d="M 75.5 39 L 71.5 39 C 71.199219 39 71 38.800781 71 38.5 L 71 34.5 C 71 34.199219 71.199219 34 71.5 34 L 75.5 34 C 75.800781 34 76 34.199219 76 34.5 L 76 38.5 C 76 38.800781 75.800781 39 75.5 39 Z M 72 38 L 75 38 L 75 35 L 72 35 Z M 72 38 "/>
<path style=" stroke:none;fill-rule:nonzero;fill:rgb(12.156863%,12.941176%,16.862745%);fill-opacity:1;" d="M 79.5 39 L 75.5 39 C 75.199219 39 75 38.800781 75 38.5 L 75 34.5 C 75 34.199219 75.199219 34 75.5 34 L 79.5 34 C 79.800781 34 80 34.199219 80 34.5 L 80 38.5 C 80 38.800781 79.800781 39 79.5 39 Z M 76 38 L 79 38 L 79 35 L 76 35 Z M 76 38 "/>
<path style=" stroke:none;fill-rule:nonzero;fill:rgb(12.156863%,12.941176%,16.862745%);fill-opacity:1;" d="M 83.5 39 L 79.5 39 C 79.199219 39 79 38.800781 79 38.5 L 79 34.5 C 79 34.199219 79.199219 34 79.5 34 L 83.5 34 C 83.800781 34 84 34.199219 84 34.5 L 84 38.5 C 84 38.800781 83.800781 39 83.5 39 Z M 80 38 L 83 38 L 83 35 L 80 35 Z M 80 38 "/>
<path style=" stroke:none;fill-rule:nonzero;fill:rgb(12.156863%,12.941176%,16.862745%);fill-opacity:1;" d="M 87.5 39 L 83.5 39 C 83.199219 39 83 38.800781 83 38.5 L 83 34.5 C 83 34.199219 83.199219 34 83.5 34 L 87.5 34 C 87.800781 34 88 34.199219 88 34.5 L 88 38.5 C 88 38.800781 87.800781 39 87.5 39 Z M 84 38 L 87 38 L 87 35 L 84 35 Z M 84 38 "/>
<path style=" stroke:none;fill-rule:nonzero;fill:rgb(12.156863%,12.941176%,16.862745%);fill-opacity:1;" d="M 23.5 43 L 19.5 43 C 19.199219 43 19 42.800781 19 42.5 L 19 38.5 C 19 38.199219 19.199219 38 19.5 38 L 23.5 38 C 23.800781 38 24 38.199219 24 38.5 L 24 42.5 C 24 42.800781 23.800781 43 23.5 43 Z M 20 42 L 23 42 L 23 39 L 20 39 Z M 20 42 "/>
<path style=" stroke:none;fill-rule:nonzero;fill:rgb(12.156863%,12.941176%,16.862745%);fill-opacity:1;" d="M 19.5 43 L 15.5 43 C 15.199219 43 15 42.800781 15 42.5 L 15 38.5 C 15 38.199219 15.199219 38 15.5 38 L 19.5 38 C 19.800781 38 20 38.199219 20 38.5 L 20 42.5 C 20 42.800781 19.800781 43 19.5 43 Z M 16 42 L 19 42 L 19 39 L 16 39 Z M 16 42 "/>
<path style=" stroke:none;fill-rule:nonzero;fill:rgb(12.156863%,12.941176%,16.862745%);fill-opacity:1;" d="M 79.5 43 L 75.5 43 C 75.199219 43 75 42.800781 75 42.5 L 75 38.5 C 75 38.199219 75.199219 38 75.5 38 L 79.5 38 C 79.800781 38 80 38.199219 80 38.5 L 80 42.5 C 80 42.800781 79.800781 43 79.5 43 Z M 76 42 L 79 42 L 79 39 L 76 39 Z M 76 42 "/>
<path style=" stroke:none;fill-rule:nonzero;fill:rgb(12.156863%,12.941176%,16.862745%);fill-opacity:1;" d="M 23.5 47 L 19.5 47 C 19.199219 47 19 46.800781 19 46.5 L 19 42.5 C 19 42.199219 19.199219 42 19.5 42 L 23.5 42 C 23.800781 42 24 42.199219 24 42.5 L 24 46.5 C 24 46.800781 23.800781 47 23.5 47 Z M 20 46 L 23 46 L 23 43 L 20 43 Z M 20 46 "/>
<path style=" stroke:none;fill-rule:nonzero;fill:rgb(12.156863%,12.941176%,16.862745%);fill-opacity:1;" d="M 75.5 47 L 71.5 47 C 71.199219 47 71 46.800781 71 46.5 L 71 42.5 C 71 42.199219 71.199219 42 71.5 42 L 75.5 42 C 75.800781 42 76 42.199219 76 42.5 L 76 46.5 C 76 46.800781 75.800781 47 75.5 47 Z M 72 46 L 75 46 L 75 43 L 72 43 Z M 72 46 "/>
<path style=" stroke:none;fill-rule:nonzero;fill:rgb(12.156863%,12.941176%,16.862745%);fill-opacity:1;" d="M 79.5 47 L 75.5 47 C 75.199219 47 75 46.800781 75 46.5 L 75 42.5 C 75 42.199219 75.199219 42 75.5 42 L 79.5 42 C 79.800781 42 80 42.199219 80 42.5 L 80 46.5 C 80 46.800781 79.800781 47 79.5 47 Z M 76 46 L 79 46 L 79 43 L 76 43 Z M 76 46 "/>
<path style=" stroke:none;fill-rule:nonzero;fill:rgb(12.156863%,12.941176%,16.862745%);fill-opacity:1;" d="M 31.5 51 L 27.5 51 C 27.199219 51 27 50.800781 27 50.5 L 27 46.5 C 27 46.199219 27.199219 46 27.5 46 L 31.5 46 C 31.800781 46 32 46.199219 32 46.5 L 32 50.5 C 32 50.800781 31.800781 51 31.5 51 Z M 28 50 L 31 50 L 31 47 L 28 47 Z M 28 50 "/>
<path style=" stroke:none;fill-rule:nonzero;fill:rgb(12.156863%,12.941176%,16.862745%);fill-opacity:1;" d="M 31.5 55 L 27.5 55 C 27.199219 55 27 54.800781 27 54.5 L 27 50.5 C 27 50.199219 27.199219 50 27.5 50 L 31.5 50 C 31.800781 50 32 50.199219 32 50.5 L 32 54.5 C 32 54.800781 31.800781 55 31.5 55 Z M 28 54 L 31 54 L 31 51 L 28 51 Z M 28 54 "/>
<path style=" stroke:none;fill-rule:nonzero;fill:rgb(12.156863%,12.941176%,16.862745%);fill-opacity:1;" d="M 27.5 51 L 23.5 51 C 23.199219 51 23 50.800781 23 50.5 L 23 46.5 C 23 46.199219 23.199219 46 23.5 46 L 27.5 46 C 27.800781 46 28 46.199219 28 46.5 L 28 50.5 C 28 50.800781 27.800781 51 27.5 51 Z M 24 50 L 27 50 L 27 47 L 24 47 Z M 24 50 "/>
<path style=" stroke:none;fill-rule:nonzero;fill:rgb(12.156863%,12.941176%,16.862745%);fill-opacity:1;" d="M 71.5 51 L 67.5 51 C 67.199219 51 67 50.800781 67 50.5 L 67 46.5 C 67 46.199219 67.199219 46 67.5 46 L 71.5 46 C 71.800781 46 72 46.199219 72 46.5 L 72 50.5 C 72 50.800781 71.800781 51 71.5 51 Z M 68 50 L 71 50 L 71 47 L 68 47 Z M 68 50 "/>
<path style=" stroke:none;fill-rule:nonzero;fill:rgb(12.156863%,12.941176%,16.862745%);fill-opacity:1;" d="M 75.5 51 L 71.5 51 C 71.199219 51 71 50.800781 71 50.5 L 71 46.5 C 71 46.199219 71.199219 46 71.5 46 L 75.5 46 C 75.800781 46 76 46.199219 76 46.5 L 76 50.5 C 76 50.800781 75.800781 51 75.5 51 Z M 72 50 L 75 50 L 75 47 L 72 47 Z M 72 50 "/>
<path style=" stroke:none;fill-rule:nonzero;fill:rgb(12.156863%,12.941176%,16.862745%);fill-opacity:1;" d="M 71.5 55 L 67.5 55 C 67.199219 55 67 54.800781 67 54.5 L 67 50.5 C 67 50.199219 67.199219 50 67.5 50 L 71.5 50 C 71.800781 50 72 50.199219 72 50.5 L 72 54.5 C 72 54.800781 71.800781 55 71.5 55 Z M 68 54 L 71 54 L 71 51 L 68 51 Z M 68 54 "/>
<path style=" stroke:none;fill-rule:nonzero;fill:rgb(12.156863%,12.941176%,16.862745%);fill-opacity:1;" d="M 35.5 55 L 31.5 55 C 31.199219 55 31 54.800781 31 54.5 L 31 50.5 C 31 50.199219 31.199219 50 31.5 50 L 35.5 50 C 35.800781 50 36 50.199219 36 50.5 L 36 54.5 C 36 54.800781 35.800781 55 35.5 55 Z M 32 54 L 35 54 L 35 51 L 32 51 Z M 32 54 "/>
<path style=" stroke:none;fill-rule:nonzero;fill:rgb(12.156863%,12.941176%,16.862745%);fill-opacity:1;" d="M 67.5 55 L 63.5 55 C 63.199219 55 63 54.800781 63 54.5 L 63 50.5 C 63 50.199219 63.199219 50 63.5 50 L 67.5 50 C 67.800781 50 68 50.199219 68 50.5 L 68 54.5 C 68 54.800781 67.800781 55 67.5 55 Z M 64 54 L 67 54 L 67 51 L 64 51 Z M 64 54 "/>
<path style=" stroke:none;fill-rule:nonzero;fill:rgb(12.156863%,12.941176%,16.862745%);fill-opacity:1;" d="M 35.5 59 L 31.5 59 C 31.199219 59 31 58.800781 31 58.5 L 31 54.5 C 31 54.199219 31.199219 54 31.5 54 L 35.5 54 C 35.800781 54 36 54.199219 36 54.5 L 36 58.5 C 36 58.800781 35.800781 59 35.5 59 Z M 32 58 L 35 58 L 35 55 L 32 55 Z M 32 58 "/>
<path style=" stroke:none;fill-rule:nonzero;fill:rgb(12.156863%,12.941176%,16.862745%);fill-opacity:1;" d="M 31.5 59 L 27.5 59 C 27.199219 59 27 58.800781 27 58.5 L 27 54.5 C 27 54.199219 27.199219 54 27.5 54 L 31.5 54 C 31.800781 54 32 54.199219 32 54.5 L 32 58.5 C 32 58.800781 31.800781 59 31.5 59 Z M 28 58 L 31 58 L 31 55 L 28 55 Z M 28 58 "/>
<path style=" stroke:none;fill-rule:nonzero;fill:rgb(12.156863%,12.941176%,16.862745%);fill-opacity:1;" d="M 67.5 59 L 63.5 59 C 63.199219 59 63 58.800781 63 58.5 L 63 54.5 C 63 54.199219 63.199219 54 63.5 54 L 67.5 54 C 67.800781 54 68 54.199219 68 54.5 L 68 58.5 C 68 58.800781 67.800781 59 67.5 59 Z M 64 58 L 67 58 L 67 55 L 64 55 Z M 64 58 "/>
<path style=" stroke:none;fill-rule:nonzero;fill:rgb(12.156863%,12.941176%,16.862745%);fill-opacity:1;" d="M 71.5 59 L 67.5 59 C 67.199219 59 67 58.800781 67 58.5 L 67 54.5 C 67 54.199219 67.199219 54 67.5 54 L 71.5 54 C 71.800781 54 72 54.199219 72 54.5 L 72 58.5 C 72 58.800781 71.800781 59 71.5 59 Z M 68 58 L 71 58 L 71 55 L 68 55 Z M 68 58 "/>
<path style=" stroke:none;fill-rule:nonzero;fill:rgb(12.156863%,12.941176%,16.862745%);fill-opacity:1;" d="M 35.5 63 L 31.5 63 C 31.199219 63 31 62.800781 31 62.5 L 31 58.5 C 31 58.199219 31.199219 58 31.5 58 L 35.5 58 C 35.800781 58 36 58.199219 36 58.5 L 36 62.5 C 36 62.800781 35.800781 63 35.5 63 Z M 32 62 L 35 62 L 35 59 L 32 59 Z M 32 62 "/>
<path style=" stroke:none;fill-rule:nonzero;fill:rgb(12.156863%,12.941176%,16.862745%);fill-opacity:1;" d="M 67.5 63 L 63.5 63 C 63.199219 63 63 62.800781 63 62.5 L 63 58.5 C 63 58.199219 63.199219 58 63.5 58 L 67.5 58 C 67.800781 58 68 58.199219 68 58.5 L 68 62.5 C 68 62.800781 67.800781 63 67.5 63 Z M 64 62 L 67 62 L 67 59 L 64 59 Z M 64 62 "/>
<path style=" stroke:none;fill-rule:nonzero;fill:rgb(12.156863%,12.941176%,16.862745%);fill-opacity:1;" d="M 31.5 67 L 27.5 67 C 27.199219 67 27 66.800781 27 66.5 L 27 62.5 C 27 62.199219 27.199219 62 27.5 62 L 31.5 62 C 31.800781 62 32 62.199219 32 62.5 L 32 66.5 C 32 66.800781 31.800781 67 31.5 67 Z M 28 66 L 31 66 L 31 63 L 28 63 Z M 28 66 "/>
<path style=" stroke:none;fill-rule:nonzero;fill:rgb(12.156863%,12.941176%,16.862745%);fill-opacity:1;" d="M 31.5 63 L 27.5 63 C 27.199219 63 27 62.800781 27 62.5 L 27 58.5 C 27 58.199219 27.199219 58 27.5 58 L 31.5 58 C 31.800781 58 32 58.199219 32 58.5 L 32 62.5 C 32 62.800781 31.800781 63 31.5 63 Z M 28 62 L 31 62 L 31 59 L 28 59 Z M 28 62 "/>
<path style=" stroke:none;fill-rule:nonzero;fill:rgb(12.156863%,12.941176%,16.862745%);fill-opacity:1;" d="M 47.5 71 L 43.5 71 C 43.199219 71 43 70.800781 43 70.5 L 43 66.5 C 43 66.199219 43.199219 66 43.5 66 L 47.5 66 C 47.800781 66 48 66.199219 48 66.5 L 48 70.5 C 48 70.800781 47.800781 71 47.5 71 Z M 44 70 L 47 70 L 47 67 L 44 67 Z M 44 70 "/>
<path style=" stroke:none;fill-rule:nonzero;fill:rgb(12.156863%,12.941176%,16.862745%);fill-opacity:1;" d="M 51.5 71 L 47.5 71 C 47.199219 71 47 70.800781 47 70.5 L 47 66.5 C 47 66.199219 47.199219 66 47.5 66 L 51.5 66 C 51.800781 66 52 66.199219 52 66.5 L 52 70.5 C 52 70.800781 51.800781 71 51.5 71 Z M 48 70 L 51 70 L 51 67 L 48 67 Z M 48 70 "/>
<path style=" stroke:none;fill-rule:nonzero;fill:rgb(12.156863%,12.941176%,16.862745%);fill-opacity:1;" d="M 31.5 71 L 27.5 71 C 27.199219 71 27 70.800781 27 70.5 L 27 66.5 C 27 66.199219 27.199219 66 27.5 66 L 31.5 66 C 31.800781 66 32 66.199219 32 66.5 L 32 70.5 C 32 70.800781 31.800781 71 31.5 71 Z M 28 70 L 31 70 L 31 67 L 28 67 Z M 28 70 "/>
<path style=" stroke:none;fill-rule:nonzero;fill:rgb(12.156863%,12.941176%,16.862745%);fill-opacity:1;" d="M 47.5 75 L 43.5 75 C 43.199219 75 43 74.800781 43 74.5 L 43 70.5 C 43 70.199219 43.199219 70 43.5 70 L 47.5 70 C 47.800781 70 48 70.199219 48 70.5 L 48 74.5 C 48 74.800781 47.800781 75 47.5 75 Z M 44 74 L 47 74 L 47 71 L 44 71 Z M 44 74 "/>
<path style=" stroke:none;fill-rule:nonzero;fill:rgb(12.156863%,12.941176%,16.862745%);fill-opacity:1;" d="M 55.5 75 L 51.5 75 C 51.199219 75 51 74.800781 51 74.5 L 51 70.5 C 51 70.199219 51.199219 70 51.5 70 L 55.5 70 C 55.800781 70 56 70.199219 56 70.5 L 56 74.5 C 56 74.800781 55.800781 75 55.5 75 Z M 52 74 L 55 74 L 55 71 L 52 71 Z M 52 74 "/>
<path style=" stroke:none;fill-rule:nonzero;fill:rgb(12.156863%,12.941176%,16.862745%);fill-opacity:1;" d="M 43.5 75 L 39.5 75 C 39.199219 75 39 74.800781 39 74.5 L 39 70.5 C 39 70.199219 39.199219 70 39.5 70 L 43.5 70 C 43.800781 70 44 70.199219 44 70.5 L 44 74.5 C 44 74.800781 43.800781 75 43.5 75 Z M 40 74 L 43 74 L 43 71 L 40 71 Z M 40 74 "/>
<path style=" stroke:none;fill-rule:nonzero;fill:rgb(12.156863%,12.941176%,16.862745%);fill-opacity:1;" d="M 39.5 75 L 35.5 75 C 35.199219 75 35 74.800781 35 74.5 L 35 70.5 C 35 70.199219 35.199219 70 35.5 70 L 39.5 70 C 39.800781 70 40 70.199219 40 70.5 L 40 74.5 C 40 74.800781 39.800781 75 39.5 75 Z M 36 74 L 39 74 L 39 71 L 36 71 Z M 36 74 "/>
<path style=" stroke:none;fill-rule:nonzero;fill:rgb(12.156863%,12.941176%,16.862745%);fill-opacity:1;" d="M 27.5 75 L 23.5 75 C 23.199219 75 23 74.800781 23 74.5 L 23 70.5 C 23 70.199219 23.199219 70 23.5 70 L 27.5 70 C 27.800781 70 28 70.199219 28 70.5 L 28 74.5 C 28 74.800781 27.800781 75 27.5 75 Z M 24 74 L 27 74 L 27 71 L 24 71 Z M 24 74 "/>
<path style=" stroke:none;fill-rule:nonzero;fill:rgb(12.156863%,12.941176%,16.862745%);fill-opacity:1;" d="M 27.5 71 L 23.5 71 C 23.199219 71 23 70.800781 23 70.5 L 23 66.5 C 23 66.199219 23.199219 66 23.5 66 L 27.5 66 C 27.800781 66 28 66.199219 28 66.5 L 28 70.5 C 28 70.800781 27.800781 71 27.5 71 Z M 24 70 L 27 70 L 27 67 L 24 67 Z M 24 70 "/>
<path style=" stroke:none;fill-rule:nonzero;fill:rgb(12.156863%,12.941176%,16.862745%);fill-opacity:1;" d="M 71.5 71 L 67.5 71 C 67.199219 71 67 70.800781 67 70.5 L 67 66.5 C 67 66.199219 67.199219 66 67.5 66 L 71.5 66 C 71.800781 66 72 66.199219 72 66.5 L 72 70.5 C 72 70.800781 71.800781 71 71.5 71 Z M 68 70 L 71 70 L 71 67 L 68 67 Z M 68 70 "/>
<path style=" stroke:none;fill-rule:nonzero;fill:rgb(12.156863%,12.941176%,16.862745%);fill-opacity:1;" d="M 75.5 75 L 71.5 75 C 71.199219 75 71 74.800781 71 74.5 L 71 70.5 C 71 70.199219 71.199219 70 71.5 70 L 75.5 70 C 75.800781 70 76 70.199219 76 70.5 L 76 74.5 C 76 74.800781 75.800781 75 75.5 75 Z M 72 74 L 75 74 L 75 71 L 72 71 Z M 72 74 "/>
<path style=" stroke:none;fill-rule:nonzero;fill:rgb(12.156863%,12.941176%,16.862745%);fill-opacity:1;" d="M 75.5 71 L 71.5 71 C 71.199219 71 71 70.800781 71 70.5 L 71 66.5 C 71 66.199219 71.199219 66 71.5 66 L 75.5 66 C 75.800781 66 76 66.199219 76 66.5 L 76 70.5 C 76 70.800781 75.800781 71 75.5 71 Z M 72 70 L 75 70 L 75 67 L 72 67 Z M 72 70 "/>
<path style=" stroke:none;fill-rule:nonzero;fill:rgb(12.156863%,12.941176%,16.862745%);fill-opacity:1;" d="M 63.5 75 L 59.5 75 C 59.199219 75 59 74.800781 59 74.5 L 59 70.5 C 59 70.199219 59.199219 70 59.5 70 L 63.5 70 C 63.800781 70 64 70.199219 64 70.5 L 64 74.5 C 64 74.800781 63.800781 75 63.5 75 Z M 60 74 L 63 74 L 63 71 L 60 71 Z M 60 74 "/>
<path style=" stroke:none;fill-rule:nonzero;fill:rgb(12.156863%,12.941176%,16.862745%);fill-opacity:1;" d="M 55.5 71 L 51.5 71 C 51.199219 71 51 70.800781 51 70.5 L 51 66.5 C 51 66.199219 51.199219 66 51.5 66 L 55.5 66 C 55.800781 66 56 66.199219 56 66.5 L 56 70.5 C 56 70.800781 55.800781 71 55.5 71 Z M 52 70 L 55 70 L 55 67 L 52 67 Z M 52 70 "/>
<path style=" stroke:none;fill-rule:nonzero;fill:rgb(12.156863%,12.941176%,16.862745%);fill-opacity:1;" d="M 51.5 75 L 47.5 75 C 47.199219 75 47 74.800781 47 74.5 L 47 70.5 C 47 70.199219 47.199219 70 47.5 70 L 51.5 70 C 51.800781 70 52 70.199219 52 70.5 L 52 74.5 C 52 74.800781 51.800781 75 51.5 75 Z M 48 74 L 51 74 L 51 71 L 48 71 Z M 48 74 "/>
<path style=" stroke:none;fill-rule:nonzero;fill:rgb(12.156863%,12.941176%,16.862745%);fill-opacity:1;" d="M 59.5 75 L 55.5 75 C 55.199219 75 55 74.800781 55 74.5 L 55 70.5 C 55 70.199219 55.199219 70 55.5 70 L 59.5 70 C 59.800781 70 60 70.199219 60 70.5 L 60 74.5 C 60 74.800781 59.800781 75 59.5 75 Z M 56 74 L 59 74 L 59 71 L 56 71 Z M 56 74 "/>
<path style=" stroke:none;fill-rule:nonzero;fill:rgb(12.156863%,12.941176%,16.862745%);fill-opacity:1;" d="M 35.5 79 L 31.5 79 C 31.199219 79 31 78.800781 31 78.5 L 31 74.5 C 31 74.199219 31.199219 74 31.5 74 L 35.5 74 C 35.800781 74 36 74.199219 36 74.5 L 36 78.5 C 36 78.800781 35.800781 79 35.5 79 Z M 32 78 L 35 78 L 35 75 L 32 75 Z M 32 78 "/>
<path style=" stroke:none;fill-rule:nonzero;fill:rgb(12.156863%,12.941176%,16.862745%);fill-opacity:1;" d="M 31.5 79 L 27.5 79 C 27.199219 79 27 78.800781 27 78.5 L 27 74.5 C 27 74.199219 27.199219 74 27.5 74 L 31.5 74 C 31.800781 74 32 74.199219 32 74.5 L 32 78.5 C 32 78.800781 31.800781 79 31.5 79 Z M 28 78 L 31 78 L 31 75 L 28 75 Z M 28 78 "/>
<path style=" stroke:none;fill-rule:nonzero;fill:rgb(12.156863%,12.941176%,16.862745%);fill-opacity:1;" d="M 39.5 79 L 35.5 79 C 35.199219 79 35 78.800781 35 78.5 L 35 74.5 C 35 74.199219 35.199219 74 35.5 74 L 39.5 74 C 39.800781 74 40 74.199219 40 74.5 L 40 78.5 C 40 78.800781 39.800781 79 39.5 79 Z M 36 78 L 39 78 L 39 75 L 36 75 Z M 36 78 "/>
<path style=" stroke:none;fill-rule:nonzero;fill:rgb(12.156863%,12.941176%,16.862745%);fill-opacity:1;" d="M 27.5 79 L 23.5 79 C 23.199219 79 23 78.800781 23 78.5 L 23 74.5 C 23 74.199219 23.199219 74 23.5 74 L 27.5 74 C 27.800781 74 28 74.199219 28 74.5 L 28 78.5 C 28 78.800781 27.800781 79 27.5 79 Z M 24 78 L 27 78 L 27 75 L 24 75 Z M 24 78 "/>
<path style=" stroke:none;fill-rule:nonzero;fill:rgb(12.156863%,12.941176%,16.862745%);fill-opacity:1;" d="M 75.5 79 L 71.5 79 C 71.199219 79 71 78.800781 71 78.5 L 71 74.5 C 71 74.199219 71.199219 74 71.5 74 L 75.5 74 C 75.800781 74 76 74.199219 76 74.5 L 76 78.5 C 76 78.800781 75.800781 79 75.5 79 Z M 72 78 L 75 78 L 75 75 L 72 75 Z M 72 78 "/>
<path style=" stroke:none;fill-rule:nonzero;fill:rgb(12.156863%,12.941176%,16.862745%);fill-opacity:1;" d="M 67.5 79 L 63.5 79 C 63.199219 79 63 78.800781 63 78.5 L 63 74.5 C 63 74.199219 63.199219 74 63.5 74 L 67.5 74 C 67.800781 74 68 74.199219 68 74.5 L 68 78.5 C 68 78.800781 67.800781 79 67.5 79 Z M 64 78 L 67 78 L 67 75 L 64 75 Z M 64 78 "/>
<path style=" stroke:none;fill-rule:nonzero;fill:rgb(12.156863%,12.941176%,16.862745%);fill-opacity:1;" d="M 71.5 79 L 67.5 79 C 67.199219 79 67 78.800781 67 78.5 L 67 74.5 C 67 74.199219 67.199219 74 67.5 74 L 71.5 74 C 71.800781 74 72 74.199219 72 74.5 L 72 78.5 C 72 78.800781 71.800781 79 71.5 79 Z M 68 78 L 71 78 L 71 75 L 68 75 Z M 68 78 "/>
<path style=" stroke:none;fill-rule:nonzero;fill:rgb(12.156863%,12.941176%,16.862745%);fill-opacity:1;" d="M 63.5 79 L 59.5 79 C 59.199219 79 59 78.800781 59 78.5 L 59 74.5 C 59 74.199219 59.199219 74 59.5 74 L 63.5 74 C 63.800781 74 64 74.199219 64 74.5 L 64 78.5 C 64 78.800781 63.800781 79 63.5 79 Z M 60 78 L 63 78 L 63 75 L 60 75 Z M 60 78 "/>
<path style=" stroke:none;fill-rule:nonzero;fill:rgb(12.156863%,12.941176%,16.862745%);fill-opacity:1;" d="M 31.5 83 L 27.5 83 C 27.199219 83 27 82.800781 27 82.5 L 27 78.5 C 27 78.199219 27.199219 78 27.5 78 L 31.5 78 C 31.800781 78 32 78.199219 32 78.5 L 32 82.5 C 32 82.800781 31.800781 83 31.5 83 Z M 28 82 L 31 82 L 31 79 L 28 79 Z M 28 82 "/>
<path style=" stroke:none;fill-rule:nonzero;fill:rgb(12.156863%,12.941176%,16.862745%);fill-opacity:1;" d="M 27.5 83 L 23.5 83 C 23.199219 83 23 82.800781 23 82.5 L 23 78.5 C 23 78.199219 23.199219 78 23.5 78 L 27.5 78 C 27.800781 78 28 78.199219 28 78.5 L 28 82.5 C 28 82.800781 27.800781 83 27.5 83 Z M 24 82 L 27 82 L 27 79 L 24 79 Z M 24 82 "/>
<path style=" stroke:none;fill-rule:nonzero;fill:rgb(12.156863%,12.941176%,16.862745%);fill-opacity:1;" d="M 23.5 83 L 19.5 83 C 19.199219 83 19 82.800781 19 82.5 L 19 78.5 C 19 78.199219 19.199219 78 19.5 78 L 23.5 78 C 23.800781 78 24 78.199219 24 78.5 L 24 82.5 C 24 82.800781 23.800781 83 23.5 83 Z M 20 82 L 23 82 L 23 79 L 20 79 Z M 20 82 "/>
<path style=" stroke:none;fill-rule:nonzero;fill:rgb(12.156863%,12.941176%,16.862745%);fill-opacity:1;" d="M 79.5 83 L 75.5 83 C 75.199219 83 75 82.800781 75 82.5 L 75 78.5 C 75 78.199219 75.199219 78 75.5 78 L 79.5 78 C 79.800781 78 80 78.199219 80 78.5 L 80 82.5 C 80 82.800781 79.800781 83 79.5 83 Z M 76 82 L 79 82 L 79 79 L 76 79 Z M 76 82 "/>
<path style=" stroke:none;fill-rule:nonzero;fill:rgb(12.156863%,12.941176%,16.862745%);fill-opacity:1;" d="M 75.5 83 L 71.5 83 C 71.199219 83 71 82.800781 71 82.5 L 71 78.5 C 71 78.199219 71.199219 78 71.5 78 L 75.5 78 C 75.800781 78 76 78.199219 76 78.5 L 76 82.5 C 76 82.800781 75.800781 83 75.5 83 Z M 72 82 L 75 82 L 75 79 L 72 79 Z M 72 82 "/>
<path style=" stroke:none;fill-rule:nonzero;fill:rgb(12.156863%,12.941176%,16.862745%);fill-opacity:1;" d="M 71.5 83 L 67.5 83 C 67.199219 83 67 82.800781 67 82.5 L 67 78.5 C 67 78.199219 67.199219 78 67.5 78 L 71.5 78 C 71.800781 78 72 78.199219 72 78.5 L 72 82.5 C 72 82.800781 71.800781 83 71.5 83 Z M 68 82 L 71 82 L 71 79 L 68 79 Z M 68 82 "/>
<path style=" stroke:none;fill-rule:nonzero;fill:rgb(12.156863%,12.941176%,16.862745%);fill-opacity:1;" d="M 23.5 87 L 19.5 87 C 19.199219 87 19 86.800781 19 86.5 L 19 82.5 C 19 82.199219 19.199219 82 19.5 82 L 23.5 82 C 23.800781 82 24 82.199219 24 82.5 L 24 86.5 C 24 86.800781 23.800781 87 23.5 87 Z M 20 86 L 23 86 L 23 83 L 20 83 Z M 20 86 "/>
<path style=" stroke:none;fill-rule:nonzero;fill:rgb(12.156863%,12.941176%,16.862745%);fill-opacity:1;" d="M 27.5 87 L 23.5 87 C 23.199219 87 23 86.800781 23 86.5 L 23 82.5 C 23 82.199219 23.199219 82 23.5 82 L 27.5 82 C 27.800781 82 28 82.199219 28 82.5 L 28 86.5 C 28 86.800781 27.800781 87 27.5 87 Z M 24 86 L 27 86 L 27 83 L 24 83 Z M 24 86 "/>
<path style=" stroke:none;fill-rule:nonzero;fill:rgb(12.156863%,12.941176%,16.862745%);fill-opacity:1;" d="M 75.5 87 L 71.5 87 C 71.199219 87 71 86.800781 71 86.5 L 71 82.5 C 71 82.199219 71.199219 82 71.5 82 L 75.5 82 C 75.800781 82 76 82.199219 76 82.5 L 76 86.5 C 76 86.800781 75.800781 87 75.5 87 Z M 72 86 L 75 86 L 75 83 L 72 83 Z M 72 86 "/>
<path style=" stroke:none;fill-rule:nonzero;fill:rgb(12.156863%,12.941176%,16.862745%);fill-opacity:1;" d="M 79.5 87 L 75.5 87 C 75.199219 87 75 86.800781 75 86.5 L 75 82.5 C 75 82.199219 75.199219 82 75.5 82 L 79.5 82 C 79.800781 82 80 82.199219 80 82.5 L 80 86.5 C 80 86.800781 79.800781 87 79.5 87 Z M 76 86 L 79 86 L 79 83 L 76 83 Z M 76 86 "/>
<path style=" stroke:none;fill-rule:nonzero;fill:rgb(12.156863%,12.941176%,16.862745%);fill-opacity:1;" d="M 71.5 67 L 67.5 67 C 67.199219 67 67 66.800781 67 66.5 L 67 62.5 C 67 62.199219 67.199219 62 67.5 62 L 71.5 62 C 71.800781 62 72 62.199219 72 62.5 L 72 66.5 C 72 66.800781 71.800781 67 71.5 67 Z M 68 66 L 71 66 L 71 63 L 68 63 Z M 68 66 "/>
<path style=" stroke:none;fill-rule:nonzero;fill:rgb(12.156863%,12.941176%,16.862745%);fill-opacity:1;" d="M 80 88 L 71 88 C 70.398438 88 70 87.601562 70 87 L 70 84 L 67 84 C 66.398438 84 66 83.601562 66 83 L 66 80 L 59 80 C 58.398438 80 58 79.601562 58 79 L 58 76 L 41 76 L 41 79 C 41 79.601562 40.601562 80 40 80 L 33 80 L 33 83 C 33 83.601562 32.601562 84 32 84 L 29 84 L 29 87 C 29 87.601562 28.601562 88 28 88 L 19 88 C 18.398438 88 18 87.601562 18 87 L 18 78 C 18 77.398438 18.398438 77 19 77 L 22 77 L 22 66 C 22 65.398438 22.398438 65 23 65 L 26 65 L 26 52 L 23 52 C 22.398438 52 22 51.601562 22 51 L 22 48 L 19 48 C 18.398438 48 18 47.601562 18 47 L 18 44 L 15 44 C 14.398438 44 14 43.601562 14 43 L 14 40 L 11 40 C 10.398438 40 10 39.601562 10 39 L 10 34 C 10 33.398438 10.398438 33 11 33 L 38 33 L 38 26 C 38 25.398438 38.398438 25 39 25 L 42 25 L 42 18 C 42 17.398438 42.398438 17 43 17 L 46 17 L 46 14 C 46 13.398438 46.398438 13 47 13 L 52 13 C 52.601562 13 53 13.398438 53 14 L 53 17 L 56 17 C 56.601562 17 57 17.398438 57 18 L 57 25 L 60 25 C 60.601562 25 61 25.398438 61 26 L 61 33 L 88 33 C 88.601562 33 89 33.398438 89 34 L 89 39 C 89 39.601562 88.601562 40 88 40 L 85 40 L 85 43 C 85 43.601562 84.601562 44 84 44 L 81 44 L 81 47 C 81 47.601562 80.601562 48 80 48 L 77 48 L 77 51 C 77 51.601562 76.601562 52 76 52 L 73 52 L 73 65 L 76 65 C 76.601562 65 77 65.398438 77 66 L 77 77 L 80 77 C 80.601562 77 81 77.398438 81 78 L 81 87 C 81 87.601562 80.601562 88 80 88 Z M 72 86 L 79 86 L 79 79 L 76 79 C 75.398438 79 75 78.601562 75 78 L 75 67 L 72 67 C 71.398438 67 71 66.601562 71 66 L 71 51 C 71 50.398438 71.398438 50 72 50 L 75 50 L 75 47 C 75 46.398438 75.398438 46 76 46 L 79 46 L 79 43 C 79 42.398438 79.398438 42 80 42 L 83 42 L 83 39 C 83 38.398438 83.398438 38 84 38 L 87 38 L 87 35 L 60 35 C 59.398438 35 59 34.601562 59 34 L 59 27 L 56 27 C 55.398438 27 55 26.601562 55 26 L 55 19 L 52 19 C 51.398438 19 51 18.601562 51 18 L 51 15 L 48 15 L 48 18 C 48 18.601562 47.601562 19 47 19 L 44 19 L 44 26 C 44 26.601562 43.601562 27 43 27 L 40 27 L 40 34 C 40 34.601562 39.601562 35 39 35 L 12 35 L 12 38 L 15 38 C 15.601562 38 16 38.398438 16 39 L 16 42 L 19 42 C 19.601562 42 20 42.398438 20 43 L 20 46 L 23 46 C 23.601562 46 24 46.398438 24 47 L 24 50 L 27 50 C 27.601562 50 28 50.398438 28 51 L 28 66 C 28 66.601562 27.601562 67 27 67 L 24 67 L 24 78 C 24 78.601562 23.601562 79 23 79 L 20 79 L 20 86 L 27 86 L 27 83 C 27 82.398438 27.398438 82 28 82 L 31 82 L 31 79 C 31 78.398438 31.398438 78 32 78 L 39 78 L 39 75 C 39 74.398438 39.398438 74 40 74 L 59 74 C 59.601562 74 60 74.398438 60 75 L 60 78 L 67 78 C 67.601562 78 68 78.398438 68 79 L 68 82 L 71 82 C 71.601562 82 72 82.398438 72 83 Z M 72 86 "/>
</g>
</svg>
