<?xml version="1.0" encoding="UTF-8"?>
<svg xmlns="http://www.w3.org/2000/svg" xmlns:xlink="http://www.w3.org/1999/xlink" width="100pt" height="100pt" viewBox="0 0 100 100" version="1.1">
<g id="surface447">
<path style=" stroke:none;fill-rule:nonzero;fill:rgb(30.588235%,43.137255%,56.862745%);fill-opacity:1;" d="M 80 50 C 80 66.570312 66.570312 80 50 80 C 33.429688 80 20 66.570312 20 50 C 20 33.429688 33.429688 20 50 20 C 66.570312 20 80 33.429688 80 50 Z M 80 50 "/>
<path style=" stroke:none;fill-rule:nonzero;fill:rgb(40%,57.647059%,75.686275%);fill-opacity:1;" d="M 50 83 C 31.804688 83 17 68.195312 17 50 C 17 31.804688 31.804688 17 50 17 C 68.195312 17 83 31.804688 83 50 C 83 68.195312 68.195312 83 50 83 Z M 50 22 C 34.5625 22 22 34.5625 22 50 C 22 65.4375 34.5625 78 50 78 C 65.4375 78 78 65.4375 78 50 C 78 34.5625 65.4375 22 50 22 Z M 50 22 "/>
<path style=" stroke:none;fill-rule:nonzero;fill:rgb(93.333333%,92.54902%,85.098039%);fill-opacity:1;" d="M 69.457031 49.039062 C 69.457031 45.71875 68.152344 42.703125 66.039062 40.464844 C 66.433594 38.261719 66.390625 35.164062 65.5 32.5 C 61.023438 32.5 57.386719 35.945312 56.796875 36.5 L 43.992188 36.5 C 43.40625 35.949219 39.976562 32.5 35.5 32.5 C 34.699219 34.902344 34.414062 37.734375 34.652344 39.796875 C 32.136719 42.082031 30.546875 45.371094 30.546875 49.039062 C 30.546875 55.949219 36.144531 61.5 43.054688 61.5 L 45.5 61.5 C 43.496094 62.414062 41.863281 64.253906 41.5 66.5 C 39.5 66.5 36.636719 66.316406 35.320312 64.339844 C 32.859375 60.652344 31.730469 60.652344 30.5 60.652344 C 29.269531 60.652344 29.171875 61.882812 30.398438 63.109375 C 31.628906 64.339844 31.628906 64.339844 32.859375 66.800781 C 33.871094 68.828125 36.5 70.5 41.5 70.5 L 41.5 77.101562 C 41.5 77.101562 47.847656 78.5 50 78.5 C 52.152344 78.5 58.5 77.101562 58.5 77.101562 L 58.5 67.65625 C 58.5 64.9375 56.820312 62.5625 54.5 61.5 L 56.949219 61.5 C 63.859375 61.5 69.457031 55.945312 69.457031 49.039062 Z M 69.457031 49.039062 "/>
<path style=" stroke:none;fill-rule:nonzero;fill:rgb(12.156863%,12.941176%,16.862745%);fill-opacity:1;" d="M 50 85 C 30.699219 85 15 69.300781 15 50 C 15 30.699219 30.699219 15 50 15 C 69.300781 15 85 30.699219 85 50 C 85 69.300781 69.300781 85 50 85 Z M 50 17 C 31.804688 17 17 31.804688 17 50 C 17 68.195312 31.804688 83 50 83 C 68.195312 83 83 68.195312 83 50 C 83 31.804688 68.195312 17 50 17 Z M 50 17 "/>
<path style=" stroke:none;fill-rule:nonzero;fill:rgb(12.156863%,12.941176%,16.862745%);fill-opacity:1;" d="M 50 79 C 34.011719 79 21 65.992188 21 50 C 21 34.007812 34.011719 21 50 21 C 65.988281 21 79 34.007812 79 50 C 79 52.925781 78.566406 55.8125 77.710938 58.582031 C 77.628906 58.84375 77.34375 58.992188 77.085938 58.910156 C 76.820312 58.828125 76.671875 58.550781 76.753906 58.285156 C 77.582031 55.613281 78 52.824219 78 50 C 78 34.5625 65.4375 22 50 22 C 34.5625 22 22 34.5625 22 50 C 22 65.4375 34.5625 78 50 78 C 55.855469 78 61.464844 76.210938 66.21875 72.828125 C 66.441406 72.667969 66.753906 72.722656 66.914062 72.945312 C 67.074219 73.171875 67.019531 73.484375 66.796875 73.644531 C 61.871094 77.148438 56.066406 79 50 79 Z M 50 79 "/>
<path style=" stroke:none;fill-rule:nonzero;fill:rgb(12.156863%,12.941176%,16.862745%);fill-opacity:1;" d="M 68.632812 72.066406 C 68.492188 72.066406 68.351562 72.007812 68.253906 71.894531 C 68.070312 71.6875 68.09375 71.371094 68.304688 71.1875 C 69.042969 70.550781 69.757812 69.863281 70.425781 69.152344 C 70.613281 68.949219 70.929688 68.941406 71.132812 69.128906 C 71.332031 69.316406 71.34375 69.632812 71.15625 69.835938 C 70.460938 70.574219 69.722656 71.285156 68.957031 71.945312 C 68.863281 72.027344 68.746094 72.066406 68.632812 72.066406 Z M 68.632812 72.066406 "/>
<path style=" stroke:none;fill-rule:nonzero;fill:rgb(12.156863%,12.941176%,16.862745%);fill-opacity:1;" d="M 72.492188 68.003906 C 72.386719 68.003906 72.277344 67.96875 72.1875 67.898438 C 71.96875 67.726562 71.929688 67.414062 72.097656 67.195312 C 73.746094 65.078125 75.082031 62.742188 76.0625 60.257812 C 76.164062 60 76.453125 59.875 76.710938 59.976562 C 76.96875 60.078125 77.09375 60.367188 76.992188 60.621094 C 75.976562 63.199219 74.59375 65.617188 72.886719 67.808594 C 72.789062 67.9375 72.644531 68.003906 72.492188 68.003906 Z M 72.492188 68.003906 "/>
<path style=" stroke:none;fill-rule:nonzero;fill:rgb(12.156863%,12.941176%,16.862745%);fill-opacity:1;" d="M 58.5 77.601562 C 58.222656 77.601562 58 77.375 58 77.101562 L 58 67.65625 C 58 65.222656 56.542969 62.988281 54.292969 61.953125 C 54.078125 61.855469 53.960938 61.621094 54.011719 61.394531 C 54.0625 61.164062 54.265625 61 54.5 61 L 56.949219 61 C 63.570312 61 68.957031 55.632812 68.957031 49.039062 C 68.957031 45.976562 67.789062 43.050781 65.675781 40.808594 C 65.566406 40.695312 65.519531 40.535156 65.546875 40.378906 C 65.878906 38.523438 65.9375 35.652344 65.136719 33.007812 C 61.453125 33.171875 58.34375 35.734375 57.148438 36.855469 C 57.058594 36.941406 56.925781 37 56.796875 37 L 43.992188 37 C 43.867188 37 43.742188 36.953125 43.652344 36.863281 L 43.558594 36.777344 C 40.480469 33.851562 37.730469 33.09375 35.863281 33.007812 C 35.199219 35.171875 34.921875 37.769531 35.148438 39.738281 C 35.167969 39.898438 35.109375 40.054688 34.988281 40.164062 C 32.484375 42.441406 31.046875 45.675781 31.046875 49.039062 C 31.046875 55.636719 36.433594 61 43.054688 61 L 45.5 61 C 45.734375 61 45.9375 61.164062 45.988281 61.394531 C 46.039062 61.621094 45.921875 61.855469 45.707031 61.953125 C 43.734375 62.859375 42.3125 64.632812 41.992188 66.578125 C 41.953125 66.820312 41.746094 67 41.5 67 C 39.167969 67 36.308594 66.730469 34.902344 64.621094 C 32.589844 61.152344 31.621094 61.152344 30.5 61.152344 C 30.359375 61.152344 30.113281 61.175781 30.050781 61.332031 C 29.964844 61.535156 30.082031 62.085938 30.753906 62.757812 C 32.039062 64.046875 32.0625 64.09375 33.308594 66.578125 C 34.410156 68.785156 37.320312 70 41.5 70 C 41.777344 70 42 70.222656 42 70.5 L 42 77.101562 C 42 77.375 41.777344 77.601562 41.5 77.601562 C 41.222656 77.601562 41 77.375 41 77.101562 L 41 70.996094 C 35.203125 70.863281 33.132812 68.46875 32.410156 67.027344 C 31.21875 64.640625 31.21875 64.640625 30.046875 63.464844 C 29.175781 62.597656 28.832031 61.65625 29.128906 60.949219 C 29.335938 60.441406 29.835938 60.152344 30.5 60.152344 C 32.085938 60.152344 33.308594 60.425781 35.734375 64.066406 C 36.804688 65.667969 39.09375 65.964844 41.089844 65.996094 C 41.453125 64.453125 42.398438 63.03125 43.71875 62 L 43.050781 62 C 35.878906 62 30.046875 56.1875 30.046875 49.039062 C 30.046875 45.480469 31.53125 42.054688 34.128906 39.597656 C 33.921875 37.394531 34.257812 34.644531 35.023438 32.34375 C 35.09375 32.136719 35.285156 32 35.5 32 C 37.535156 32 40.691406 32.695312 44.191406 36 L 56.601562 36 C 58.027344 34.6875 61.449219 32 65.5 32 C 65.714844 32 65.90625 32.136719 65.972656 32.34375 C 66.910156 35.144531 66.902344 38.242188 66.570312 40.308594 C 68.757812 42.710938 69.957031 45.800781 69.957031 49.039062 C 69.957031 56.1875 64.121094 62 56.949219 62 L 56.257812 62 C 57.964844 63.367188 59 65.441406 59 67.65625 L 59 77.101562 C 59 77.375 58.777344 77.601562 58.5 77.601562 Z M 58.5 77.601562 "/>
<path style=" stroke:none;fill-rule:nonzero;fill:rgb(12.156863%,12.941176%,16.862745%);fill-opacity:1;" d="M 34.238281 45.96875 C 34.175781 45.96875 34.109375 45.957031 34.050781 45.933594 C 33.792969 45.828125 33.671875 45.535156 33.777344 45.28125 C 34.253906 44.113281 34.941406 43.054688 35.832031 42.132812 C 36.023438 41.9375 36.34375 41.929688 36.539062 42.121094 C 36.738281 42.3125 36.746094 42.628906 36.554688 42.828125 C 35.753906 43.660156 35.128906 44.609375 34.703125 45.660156 C 34.621094 45.851562 34.4375 45.96875 34.238281 45.96875 Z M 34.238281 45.96875 "/>
<path style=" stroke:none;fill-rule:nonzero;fill:rgb(12.156863%,12.941176%,16.862745%);fill-opacity:1;" d="M 33.660156 51.019531 C 33.417969 51.019531 33.207031 50.84375 33.167969 50.597656 C 33.085938 50.089844 33.046875 49.566406 33.046875 49.039062 C 33.046875 48.507812 33.089844 47.972656 33.171875 47.449219 C 33.214844 47.179688 33.476562 46.992188 33.742188 47.035156 C 34.015625 47.078125 34.199219 47.335938 34.15625 47.605469 C 34.085938 48.078125 34.046875 48.558594 34.046875 49.039062 C 34.046875 49.511719 34.082031 49.984375 34.15625 50.441406 C 34.199219 50.714844 34.011719 50.972656 33.738281 51.015625 C 33.714844 51.019531 33.6875 51.019531 33.660156 51.019531 Z M 33.660156 51.019531 "/>
<path style=" stroke:none;fill-rule:nonzero;fill:rgb(12.156863%,12.941176%,16.862745%);fill-opacity:1;" d="M 41.457031 58.914062 C 41.429688 58.914062 41.398438 58.910156 41.371094 58.90625 C 37.929688 58.320312 35 55.933594 33.726562 52.667969 C 33.625 52.410156 33.753906 52.121094 34.011719 52.023438 C 34.265625 51.921875 34.558594 52.050781 34.65625 52.304688 C 35.804688 55.242188 38.441406 57.394531 41.539062 57.921875 C 41.808594 57.96875 41.992188 58.226562 41.949219 58.496094 C 41.90625 58.742188 41.695312 58.914062 41.457031 58.914062 Z M 41.457031 58.914062 "/>
</g>
</svg>
