<?xml version="1.0" encoding="UTF-8"?>
<svg xmlns="http://www.w3.org/2000/svg" xmlns:xlink="http://www.w3.org/1999/xlink" width="100pt" height="100pt" viewBox="0 0 100 100" version="1.1">
<g id="surface532">
<path style=" stroke:none;fill-rule:nonzero;fill:rgb(99.607843%,99.215686%,93.72549%);fill-opacity:1;" d="M 74.03125 69.109375 L 25.867188 69.109375 C 23.300781 69.109375 21.199219 67.011719 21.199219 64.441406 L 21.199219 34.632812 C 21.199219 32.0625 23.300781 29.964844 25.867188 29.964844 L 74.03125 29.964844 C 76.601562 29.964844 78.699219 32.0625 78.699219 34.632812 L 78.699219 64.441406 C 78.699219 67.011719 76.601562 69.109375 74.03125 69.109375 Z M 74.03125 69.109375 "/>
<path style=" stroke:none;fill-rule:nonzero;fill:rgb(92.941176%,86.27451%,40.392157%);fill-opacity:1;" d="M 67.59375 30.3125 C 67.59375 25.273438 73.039062 21.191406 79.757812 21.191406 C 86.472656 21.191406 91.917969 25.273438 91.917969 30.3125 C 91.917969 35.347656 86.472656 39.429688 79.757812 39.429688 L 78.234375 39.429688 C 76.941406 40.722656 74.550781 42.015625 71.992188 42.375 C 71.472656 42.449219 71.074219 41.910156 71.296875 41.433594 C 71.78125 40.378906 72.15625 38.835938 72.15625 37.4375 C 69.269531 35.703125 67.59375 33.082031 67.59375 30.3125 "/>
<path style=" stroke:none;fill-rule:nonzero;fill:rgb(12.156863%,12.941176%,16.862745%);fill-opacity:1;" d="M 81.914062 27.925781 L 81.59375 30.578125 C 81.582031 30.679688 81.570312 30.769531 81.566406 30.859375 C 81.5625 30.949219 81.558594 31.035156 81.558594 31.109375 C 81.558594 31.363281 81.664062 31.488281 81.871094 31.488281 C 82.164062 31.488281 82.433594 31.28125 82.671875 30.867188 C 82.90625 30.460938 83.023438 29.996094 83.023438 29.472656 C 83.023438 28.640625 82.734375 27.964844 82.15625 27.433594 C 81.578125 26.898438 80.84375 26.628906 79.945312 26.628906 C 79.007812 26.628906 78.21875 26.949219 77.578125 27.589844 C 76.941406 28.226562 76.621094 29.015625 76.621094 29.957031 C 76.621094 30.476562 76.738281 30.984375 76.964844 31.484375 C 77.199219 31.953125 77.523438 32.339844 77.941406 32.644531 C 78.503906 33.050781 79.203125 33.25 80.046875 33.25 C 80.835938 33.25 81.660156 33.050781 82.523438 32.648438 L 82.601562 32.609375 L 82.863281 33.335938 L 82.804688 33.367188 C 81.921875 33.792969 81.007812 34.003906 80.050781 34.003906 C 78.996094 34.003906 78.113281 33.75 77.402344 33.238281 C 76.878906 32.867188 76.46875 32.394531 76.175781 31.820312 C 75.886719 31.210938 75.742188 30.59375 75.742188 29.96875 C 75.742188 28.824219 76.144531 27.863281 76.949219 27.089844 C 77.757812 26.3125 78.753906 25.925781 79.933594 25.925781 C 81.023438 25.925781 81.9375 26.261719 82.671875 26.929688 C 83.402344 27.589844 83.769531 28.417969 83.769531 29.414062 C 83.769531 30.183594 83.570312 30.839844 83.171875 31.390625 C 82.769531 31.945312 82.300781 32.226562 81.761719 32.226562 C 81.328125 32.226562 81.035156 32.023438 80.882812 31.613281 C 80.464844 32.039062 80.003906 32.25 79.496094 32.25 C 78.9375 32.25 78.476562 32.050781 78.105469 31.648438 C 77.738281 31.25 77.558594 30.742188 77.558594 30.125 C 77.558594 29.460938 77.761719 28.914062 78.171875 28.488281 C 78.578125 28.050781 79.089844 27.828125 79.707031 27.828125 C 80.273438 27.828125 80.730469 28.046875 81.078125 28.488281 L 81.148438 27.925781 Z M 80.882812 29.875 C 80.882812 29.5625 80.773438 29.300781 80.5625 29.09375 C 80.34375 28.882812 80.074219 28.777344 79.761719 28.777344 C 79.421875 28.777344 79.144531 28.910156 78.929688 29.171875 C 78.710938 29.433594 78.597656 29.765625 78.597656 30.167969 C 78.597656 30.519531 78.6875 30.808594 78.863281 31.035156 C 79.035156 31.261719 79.261719 31.371094 79.539062 31.371094 C 79.894531 31.371094 80.207031 31.222656 80.476562 30.921875 C 80.746094 30.621094 80.882812 30.273438 80.882812 29.875 Z M 80.882812 29.875 "/>
<path style=" stroke:none;fill-rule:nonzero;fill:rgb(12.156863%,12.941176%,16.862745%);fill-opacity:1;" d="M 92.964844 30.832031 C 92.964844 25.253906 87.0625 20.710938 79.804688 20.710938 C 72.933594 20.710938 67.285156 24.785156 66.703125 29.953125 L 25.667969 29.953125 C 22.542969 29.953125 20 32.496094 20 35.621094 L 20 65.285156 C 20 68.410156 22.542969 70.953125 25.667969 70.953125 L 74.335938 70.953125 C 77.460938 70.953125 80 68.410156 80 65.285156 L 80 40.945312 C 87.167969 40.863281 92.964844 36.363281 92.964844 30.832031 Z M 66.722656 31.953125 C 67.015625 34.015625 68.117188 35.925781 69.871094 37.472656 L 50.746094 53.214844 L 23.984375 32.382812 C 24.488281 32.117188 25.058594 31.953125 25.667969 31.953125 Z M 76.71875 68.046875 C 76.777344 67.863281 76.730469 67.65625 76.578125 67.519531 L 59.378906 52.152344 C 59.171875 51.96875 58.855469 51.984375 58.671875 52.191406 C 58.488281 52.398438 58.507812 52.710938 58.710938 52.898438 L 75.910156 68.265625 C 76.007812 68.351562 76.125 68.390625 76.246094 68.390625 C 76.253906 68.390625 76.261719 68.386719 76.269531 68.386719 C 75.707031 68.738281 75.046875 68.953125 74.335938 68.953125 L 25.667969 68.953125 C 24.953125 68.953125 24.296875 68.738281 23.730469 68.386719 C 23.738281 68.386719 23.746094 68.390625 23.757812 68.390625 C 23.875 68.390625 23.992188 68.351562 24.089844 68.265625 L 41.289062 52.898438 C 41.496094 52.710938 41.511719 52.398438 41.328125 52.191406 C 41.144531 51.984375 40.828125 51.96875 40.621094 52.152344 L 23.421875 67.519531 C 23.269531 67.65625 23.222656 67.863281 23.28125 68.046875 C 22.503906 67.375 22 66.394531 22 65.285156 L 22 35.621094 C 22 34.585938 22.4375 33.652344 23.128906 32.984375 L 50.449219 54.25 C 50.539062 54.320312 50.648438 54.355469 50.753906 54.355469 C 50.867188 54.355469 50.980469 54.316406 51.074219 54.242188 L 70.664062 38.113281 C 70.839844 38.238281 71.003906 38.375 71.1875 38.496094 C 71.109375 39.53125 70.832031 40.679688 70.4375 41.539062 C 70.179688 42.097656 70.246094 42.746094 70.613281 43.238281 C 70.925781 43.660156 71.417969 43.90625 71.933594 43.90625 C 72.011719 43.90625 72.085938 43.898438 72.160156 43.890625 C 74.230469 43.605469 76.394531 42.707031 78 41.511719 L 78 65.285156 C 78 66.394531 77.496094 67.375 76.71875 68.046875 Z M 79.804688 38.953125 L 78.285156 38.953125 C 78.019531 38.953125 77.765625 39.058594 77.578125 39.246094 C 76.585938 40.238281 74.671875 41.367188 72.488281 41.808594 C 72.9375 40.621094 73.207031 39.199219 73.207031 37.957031 C 73.207031 37.605469 73.023438 37.28125 72.722656 37.101562 C 70.128906 35.542969 68.644531 33.261719 68.644531 30.835938 C 68.644531 30.832031 68.644531 30.832031 68.644531 30.832031 C 68.644531 26.355469 73.652344 22.710938 79.808594 22.710938 C 85.960938 22.710938 90.96875 26.355469 90.96875 30.832031 C 90.96875 35.308594 85.960938 38.953125 79.804688 38.953125 Z M 79.804688 38.953125 "/>
<path style=" stroke:none;fill-rule:nonzero;fill:rgb(12.156863%,12.941176%,16.862745%);fill-opacity:1;" d="M 83.070312 27.316406 C 82.285156 26.40625 81.253906 25.953125 79.984375 25.953125 C 78.800781 25.953125 77.808594 26.34375 77 27.117188 C 76.195312 27.894531 75.792969 28.851562 75.792969 29.996094 C 75.792969 30.621094 75.9375 31.238281 76.226562 31.847656 C 76.519531 32.425781 76.929688 32.898438 77.449219 33.269531 C 78.160156 33.777344 79.046875 34.03125 80.101562 34.03125 C 81.054688 34.03125 81.972656 33.820312 82.855469 33.394531 L 82.914062 33.363281 L 82.652344 32.636719 L 82.574219 32.679688 C 81.714844 33.078125 80.886719 33.28125 80.097656 33.28125 C 79.253906 33.28125 78.554688 33.078125 77.992188 32.671875 C 77.574219 32.371094 77.25 31.984375 77.015625 31.515625 C 76.789062 31.015625 76.671875 30.507812 76.671875 29.988281 C 76.671875 29.046875 76.992188 28.257812 77.628906 27.621094 C 78.269531 26.980469 79.058594 26.660156 79.996094 26.660156 C 80.894531 26.660156 81.628906 26.925781 82.207031 27.464844 C 82.785156 27.992188 83.074219 28.671875 83.074219 29.503906 C 83.074219 30.023438 82.957031 30.488281 82.722656 30.898438 C 82.484375 31.3125 82.214844 31.519531 81.921875 31.519531 C 81.714844 31.519531 81.609375 31.394531 81.609375 31.140625 C 81.609375 31.0625 81.613281 30.980469 81.617188 30.890625 C 81.621094 30.800781 81.632812 30.707031 81.644531 30.609375 L 81.964844 27.953125 L 81.199219 27.953125 L 81.128906 28.515625 C 80.78125 28.078125 80.324219 27.859375 79.757812 27.859375 C 79.140625 27.859375 78.628906 28.078125 78.21875 28.515625 C 77.8125 28.945312 77.609375 29.488281 77.609375 30.15625 C 77.609375 30.773438 77.789062 31.28125 78.152344 31.679688 C 78.523438 32.078125 78.988281 32.28125 79.546875 32.28125 C 80.054688 32.28125 80.515625 32.066406 80.929688 31.644531 C 81.085938 32.050781 81.378906 32.253906 81.8125 32.253906 C 82.351562 32.253906 82.820312 31.976562 83.222656 31.421875 C 83.679688 30.789062 83.871094 30.011719 83.804688 29.09375 C 83.757812 28.441406 83.5 27.808594 83.070312 27.316406 Z M 80.476562 31.128906 C 80.175781 31.492188 79.824219 31.675781 79.429688 31.675781 C 79.117188 31.675781 78.867188 31.539062 78.671875 31.261719 C 78.472656 30.988281 78.375 30.636719 78.375 30.210938 C 78.375 29.714844 78.496094 29.3125 78.742188 28.996094 C 78.984375 28.675781 79.296875 28.515625 79.679688 28.515625 C 80.027344 28.515625 80.328125 28.640625 80.574219 28.894531 C 80.8125 29.152344 80.929688 29.46875 80.929688 29.851562 C 80.929688 30.335938 80.78125 30.761719 80.476562 31.128906 Z M 80.476562 31.128906 "/>
</g>
</svg>
