<?xml version="1.0" encoding="UTF-8"?>
<svg xmlns="http://www.w3.org/2000/svg" xmlns:xlink="http://www.w3.org/1999/xlink" width="100pt" height="100pt" viewBox="0 0 100 100" version="1.1">
<g id="surface492">
<path style=" stroke:none;fill-rule:nonzero;fill:rgb(99.607843%,99.215686%,93.72549%);fill-opacity:1;" d="M 88 34 L 88 66 C 88 71.519531 83.519531 76 78 76 L 22 76 C 16.480469 76 12 71.519531 12 66 L 12 34 C 12 30.511719 13.789062 27.441406 16.5 25.648438 C 18.078125 24.609375 19.96875 24 22 24 L 78 24 C 80.03125 24 81.921875 24.609375 83.5 25.648438 C 86.210938 27.441406 88 30.511719 88 34 Z M 88 34 "/>
<path style=" stroke:none;fill-rule:nonzero;fill:rgb(12.156863%,12.941176%,16.862745%);fill-opacity:1;" d="M 78 77 L 22 77 C 15.933594 77 11 72.066406 11 66 L 11 34 C 11 27.933594 15.933594 23 22 23 L 78 23 C 84.066406 23 89 27.933594 89 34 L 89 66 C 89 72.066406 84.066406 77 78 77 Z M 22 25 C 17.035156 25 13 29.035156 13 34 L 13 66 C 13 70.964844 17.035156 75 22 75 L 78 75 C 82.964844 75 87 70.964844 87 66 L 87 34 C 87 29.035156 82.964844 25 78 25 Z M 22 25 "/>
<path style=" stroke:none;fill-rule:nonzero;fill:rgb(12.156863%,12.941176%,16.862745%);fill-opacity:1;" d="M 50 55 C 49.886719 55 49.773438 54.960938 49.679688 54.882812 L 16.179688 26.882812 C 15.96875 26.707031 15.941406 26.390625 16.117188 26.179688 C 16.296875 25.96875 16.613281 25.941406 16.820312 26.117188 L 50 53.847656 L 83.179688 26.117188 C 83.390625 25.941406 83.707031 25.96875 83.882812 26.179688 C 84.0625 26.390625 84.03125 26.707031 83.820312 26.882812 L 50.320312 54.882812 C 50.226562 54.960938 50.113281 55 50 55 Z M 83.5 74 C 83.386719 74 83.273438 73.960938 83.179688 73.882812 L 60.449219 54.882812 C 60.234375 54.707031 60.207031 54.390625 60.386719 54.179688 C 60.5625 53.96875 60.878906 53.941406 61.089844 54.117188 L 83.820312 73.117188 C 84.03125 73.292969 84.0625 73.609375 83.882812 73.820312 C 83.785156 73.9375 83.644531 74 83.5 74 Z M 16.5 74 C 16.355469 74 16.214844 73.9375 16.117188 73.820312 C 15.9375 73.609375 15.96875 73.292969 16.179688 73.117188 L 38.910156 54.117188 C 39.121094 53.9375 39.4375 53.964844 39.613281 54.179688 C 39.792969 54.390625 39.761719 54.707031 39.550781 54.882812 L 16.820312 73.882812 C 16.726562 73.960938 16.613281 74 16.5 74 Z M 16.5 74 "/>
</g>
</svg>
