<?xml version="1.0" encoding="UTF-8"?>
<svg xmlns="http://www.w3.org/2000/svg" xmlns:xlink="http://www.w3.org/1999/xlink" width="100pt" height="100pt" viewBox="0 0 100 100" version="1.1">
<g id="surface542">
<path style=" stroke:none;fill-rule:nonzero;fill:rgb(94.901961%,48.627451%,48.627451%);fill-opacity:1;" d="M 85 50 C 85 69.328125 69.328125 85 50 85 C 30.671875 85 15 69.328125 15 50 C 15 30.671875 30.671875 15 50 15 C 69.328125 15 85 30.671875 85 50 Z M 85 50 "/>
<path style=" stroke:none;fill-rule:nonzero;fill:rgb(100%,100%,100%);fill-opacity:1;" d="M 73.28125 70.453125 C 78.082031 64.996094 81 57.839844 81 50 C 81 32.878906 67.121094 19 50 19 C 42.160156 19 35.003906 21.917969 29.546875 26.71875 Z M 73.28125 70.453125 "/>
<path style=" stroke:none;fill-rule:nonzero;fill:rgb(100%,100%,100%);fill-opacity:1;" d="M 27.070312 29.898438 C 22.359375 35.265625 19.5 42.296875 19.5 50 C 19.5 66.84375 33.15625 80.5 50 80.5 C 57.703125 80.5 64.734375 77.640625 70.101562 72.929688 Z M 27.070312 29.898438 "/>
<path style=" stroke:none;fill-rule:nonzero;fill:rgb(36.078431%,46.27451%,60.784314%);fill-opacity:1;" d="M 60.328125 57.5 L 65 57.5 C 65.277344 57.5 65.5 57.277344 65.5 57 L 65.5 51 C 65.5 50.722656 65.277344 50.5 65 50.5 L 53.328125 50.5 Z M 60.328125 57.5 "/>
<path style=" stroke:none;fill-rule:nonzero;fill:rgb(36.078431%,46.27451%,60.784314%);fill-opacity:1;" d="M 47.671875 50.5 L 29 50.5 C 28.722656 50.5 28.5 50.722656 28.5 51 L 28.5 57 C 28.5 57.277344 28.722656 57.5 29 57.5 L 54.671875 57.5 Z M 47.671875 50.5 "/>
<path style=" stroke:none;fill-rule:nonzero;fill:rgb(12.156863%,12.941176%,16.862745%);fill-opacity:1;" d="M 50 86 C 30.148438 86 14 69.851562 14 50 C 14 30.148438 30.148438 14 50 14 C 69.851562 14 86 30.148438 86 50 C 86 69.851562 69.851562 86 50 86 Z M 50 16 C 31.253906 16 16 31.253906 16 50 C 16 68.746094 31.253906 84 50 84 C 68.746094 84 84 68.746094 84 50 C 84 31.253906 68.746094 16 50 16 Z M 50 16 "/>
<path style=" stroke:none;fill-rule:nonzero;fill:rgb(12.156863%,12.941176%,16.862745%);fill-opacity:1;" d="M 65.5 24.226562 C 65.414062 24.226562 65.324219 24.203125 65.246094 24.15625 C 64.601562 23.777344 63.941406 23.421875 63.277344 23.09375 C 63.03125 22.96875 62.929688 22.671875 63.050781 22.421875 C 63.175781 22.171875 63.476562 22.074219 63.722656 22.195312 C 64.40625 22.535156 65.089844 22.90625 65.753906 23.296875 C 65.992188 23.4375 66.070312 23.742188 65.929688 23.980469 C 65.835938 24.140625 65.671875 24.226562 65.5 24.226562 Z M 65.5 24.226562 "/>
<path style=" stroke:none;fill-rule:nonzero;fill:rgb(12.156863%,12.941176%,16.862745%);fill-opacity:1;" d="M 68.5 26.25 C 68.394531 26.25 68.285156 26.214844 68.195312 26.144531 C 67.875 25.898438 67.546875 25.660156 67.214844 25.425781 C 66.988281 25.269531 66.933594 24.957031 67.089844 24.730469 C 67.25 24.503906 67.5625 24.449219 67.785156 24.605469 C 68.132812 24.847656 68.46875 25.097656 68.804688 25.351562 C 69.023438 25.519531 69.066406 25.832031 68.898438 26.054688 C 68.800781 26.183594 68.648438 26.25 68.5 26.25 Z M 68.5 26.25 "/>
<path style=" stroke:none;fill-rule:nonzero;fill:rgb(12.156863%,12.941176%,16.862745%);fill-opacity:1;" d="M 65 58 L 60.5 58 L 60.5 57 L 65 57 L 65 51 L 53.5 51 L 53.5 50 L 65 50 C 65.550781 50 66 50.449219 66 51 L 66 57 C 66 57.550781 65.550781 58 65 58 Z M 65 58 "/>
<path style=" stroke:none;fill-rule:nonzero;fill:rgb(12.156863%,12.941176%,16.862745%);fill-opacity:1;" d="M 54.5 58 L 29 58 C 28.449219 58 28 57.550781 28 57 L 28 51 C 28 50.449219 28.449219 50 29 50 L 47.5 50 L 47.5 51 L 29 51 L 29 57 L 54.5 57 Z M 54.5 58 "/>
<path style=" stroke:none;fill-rule:nonzero;fill:rgb(12.156863%,12.941176%,16.862745%);fill-opacity:1;" d="M 68 58 C 67.445312 58 67 57.550781 67 57 L 67 51 C 67 50.449219 67.445312 50 68 50 C 68.554688 50 69 50.449219 69 51 L 69 57 C 69 57.550781 68.554688 58 68 58 Z M 68 58 "/>
<path style=" stroke:none;fill-rule:nonzero;fill:rgb(12.156863%,12.941176%,16.862745%);fill-opacity:1;" d="M 71 58 C 70.445312 58 70 57.550781 70 57 L 70 51 C 70 50.449219 70.445312 50 71 50 C 71.554688 50 72 50.449219 72 51 L 72 57 C 72 57.550781 71.554688 58 71 58 Z M 71 58 "/>
<path style=" stroke:none;fill-rule:nonzero;fill:rgb(12.156863%,12.941176%,16.862745%);fill-opacity:1;" d="M 70.5 48 C 70.222656 48 70 47.777344 70 47.5 C 70 39.828125 65.976562 37.613281 64.742188 37.117188 C 64.617188 37.066406 64.515625 36.964844 64.46875 36.839844 C 64.417969 36.714844 64.417969 36.570312 64.476562 36.445312 C 64.824219 35.667969 65 34.847656 65 34 C 65 30.691406 62.308594 28 59 28 C 58.613281 28 58.210938 28.046875 57.738281 28.148438 C 57.511719 28.203125 57.28125 28.082031 57.183594 27.871094 C 56.644531 26.734375 55.496094 26 54.25 26 C 52.457031 26 51 27.457031 51 29.25 C 51 30.433594 51.65625 31.523438 52.71875 32.097656 C 52.867188 32.179688 52.96875 32.328125 52.980469 32.496094 C 52.992188 32.667969 52.921875 32.832031 52.785156 32.933594 C 51.648438 33.800781 51 35.101562 51 36.5 C 51 38.980469 53.019531 41 55.5 41 L 62.5 41 C 66.085938 41 69 43.914062 69 47.5 C 69 47.777344 68.777344 48 68.5 48 C 68.222656 48 68 47.777344 68 47.5 C 68 44.46875 65.53125 42 62.5 42 L 55.5 42 C 52.46875 42 50 39.53125 50 36.5 C 50 35.015625 50.59375 33.625 51.652344 32.59375 C 50.617188 31.796875 50 30.566406 50 29.25 C 50 26.90625 51.90625 25 54.25 25 C 55.75 25 57.144531 25.8125 57.902344 27.097656 C 58.292969 27.03125 58.652344 27 59 27 C 62.859375 27 66 30.140625 66 34 C 66 34.820312 65.855469 35.625 65.574219 36.394531 C 67.292969 37.25 71 39.96875 71 47.5 C 71 47.777344 70.777344 48 70.5 48 Z M 70.5 48 "/>
<path style=" stroke:none;fill-rule:nonzero;fill:rgb(12.156863%,12.941176%,16.862745%);fill-opacity:1;" d="M 72.929688 70.601562 C 72.796875 70.601562 72.667969 70.546875 72.574219 70.453125 L 29.546875 27.425781 C 29.449219 27.328125 29.394531 27.195312 29.398438 27.054688 C 29.40625 26.917969 29.464844 26.785156 29.570312 26.695312 C 35.226562 21.734375 42.480469 19 50 19 C 53.664062 19 57.257812 19.636719 60.671875 20.886719 C 60.933594 20.980469 61.066406 21.269531 60.96875 21.527344 C 60.875 21.789062 60.585938 21.917969 60.328125 21.824219 C 57.023438 20.613281 53.546875 20 50 20 C 42.902344 20 36.046875 22.515625 30.632812 27.097656 L 72.902344 69.367188 C 77.484375 63.953125 80 57.097656 80 50 C 80 41.5625 76.414062 33.464844 70.164062 27.785156 C 69.960938 27.601562 69.945312 27.285156 70.128906 27.082031 C 70.316406 26.875 70.632812 26.863281 70.835938 27.046875 C 77.296875 32.914062 81 41.28125 81 50 C 81 57.519531 78.265625 64.773438 73.304688 70.429688 C 73.214844 70.535156 73.082031 70.597656 72.945312 70.601562 C 72.9375 70.601562 72.933594 70.601562 72.929688 70.601562 Z M 72.929688 70.601562 "/>
<path style=" stroke:none;fill-rule:nonzero;fill:rgb(12.156863%,12.941176%,16.862745%);fill-opacity:1;" d="M 50 81 C 32.90625 81 19 67.09375 19 50 C 19 42.480469 21.734375 35.226562 26.695312 29.570312 C 26.785156 29.464844 26.917969 29.402344 27.054688 29.398438 C 27.183594 29.386719 27.324219 29.445312 27.425781 29.546875 L 70.453125 72.574219 C 70.550781 72.671875 70.601562 72.804688 70.597656 72.945312 C 70.59375 73.082031 70.53125 73.214844 70.429688 73.304688 C 64.773438 78.265625 57.519531 81 50 81 Z M 27.097656 30.632812 C 22.515625 36.046875 20 42.902344 20 50 C 20 66.542969 33.457031 80 50 80 C 57.097656 80 63.953125 77.484375 69.367188 72.902344 Z M 27.097656 30.632812 "/>
</g>
</svg>
