<?xml version="1.0" encoding="UTF-8"?>
<svg xmlns="http://www.w3.org/2000/svg" xmlns:xlink="http://www.w3.org/1999/xlink" width="100pt" height="100pt" viewBox="0 0 100 100" version="1.1">
<g id="surface557">
<path style=" stroke:none;fill-rule:nonzero;fill:rgb(99.607843%,99.215686%,93.72549%);fill-opacity:1;" d="M 29.613281 12.308594 L 28.347656 12.308594 C 23.542969 12.308594 19.613281 16.238281 19.613281 21.039062 L 19.613281 82.574219 C 19.613281 87.378906 23.542969 91.304688 28.347656 91.304688 L 71.882812 91.304688 C 76.683594 91.304688 80.613281 87.375 80.613281 82.574219 L 80.613281 32.554688 C 72.738281 24.679688 68.242188 20.183594 60.367188 12.308594 L 41.613281 12.308594 "/>
<path style=" stroke:none;fill-rule:nonzero;fill:rgb(12.156863%,12.941176%,16.862745%);fill-opacity:1;" d="M 71.882812 92.308594 L 28.347656 92.308594 C 22.980469 92.308594 18.613281 87.941406 18.613281 82.574219 L 18.613281 21.039062 C 18.613281 15.671875 22.980469 11.308594 28.347656 11.308594 L 29.613281 11.308594 C 30.167969 11.308594 30.613281 11.757812 30.613281 12.308594 C 30.613281 12.859375 30.167969 13.308594 29.613281 13.308594 L 28.347656 13.308594 C 24.082031 13.308594 20.613281 16.777344 20.613281 21.039062 L 20.613281 82.574219 C 20.613281 86.839844 24.085938 90.308594 28.347656 90.308594 L 71.882812 90.308594 C 76.144531 90.308594 79.613281 86.839844 79.613281 82.574219 L 79.613281 32.96875 L 59.953125 13.308594 L 41.613281 13.308594 C 41.0625 13.308594 40.613281 12.859375 40.613281 12.308594 C 40.613281 11.753906 41.0625 11.308594 41.613281 11.308594 L 60.367188 11.308594 C 60.632812 11.308594 60.886719 11.410156 61.074219 11.601562 L 81.320312 31.847656 C 81.507812 32.035156 81.613281 32.289062 81.613281 32.554688 L 81.613281 82.574219 C 81.613281 87.941406 77.246094 92.308594 71.882812 92.308594 Z M 71.882812 92.308594 "/>
<path style=" stroke:none;fill-rule:nonzero;fill:rgb(99.607843%,96.470588%,66.666667%);fill-opacity:1;" d="M 60.113281 12.808594 L 60.113281 23.792969 C 60.113281 28.75 64.171875 32.808594 69.128906 32.808594 L 81.113281 32.808594 "/>
<path style=" stroke:none;fill-rule:nonzero;fill:rgb(12.156863%,12.941176%,16.862745%);fill-opacity:1;" d="M 81.113281 33.308594 L 69.128906 33.308594 C 63.882812 33.308594 59.613281 29.039062 59.613281 23.792969 L 59.613281 12.808594 C 59.613281 12.53125 59.839844 12.308594 60.113281 12.308594 C 60.390625 12.308594 60.613281 12.53125 60.613281 12.808594 L 60.613281 23.792969 C 60.613281 28.488281 64.433594 32.308594 69.128906 32.308594 L 81.113281 32.308594 C 81.390625 32.308594 81.613281 32.53125 81.613281 32.808594 C 81.613281 33.082031 81.390625 33.308594 81.113281 33.308594 Z M 75.113281 51.308594 C 74.839844 51.308594 74.613281 51.082031 74.613281 50.808594 L 74.613281 47.808594 C 74.613281 47.53125 74.839844 47.308594 75.113281 47.308594 C 75.390625 47.308594 75.613281 47.53125 75.613281 47.808594 L 75.613281 50.808594 C 75.613281 51.082031 75.390625 51.308594 75.113281 51.308594 Z M 75.113281 59.308594 C 74.839844 59.308594 74.613281 59.082031 74.613281 58.808594 L 74.613281 52.808594 C 74.613281 52.53125 74.839844 52.308594 75.113281 52.308594 C 75.390625 52.308594 75.613281 52.53125 75.613281 52.808594 L 75.613281 58.808594 C 75.613281 59.082031 75.390625 59.308594 75.113281 59.308594 Z M 67.957031 86.308594 L 32.273438 86.308594 C 28.050781 86.308594 24.613281 82.855469 24.613281 78.617188 L 24.613281 25.953125 C 24.613281 23.40625 25.878906 21.023438 27.996094 19.585938 C 28.222656 19.429688 28.535156 19.488281 28.691406 19.714844 C 28.847656 19.945312 28.785156 20.257812 28.558594 20.410156 C 26.714844 21.664062 25.613281 23.738281 25.613281 25.953125 L 25.613281 78.617188 C 25.613281 82.304688 28.601562 85.308594 32.273438 85.308594 L 67.957031 85.308594 C 71.628906 85.308594 74.617188 82.304688 74.617188 78.617188 L 74.617188 60.808594 C 74.617188 60.53125 74.839844 60.308594 75.117188 60.308594 C 75.390625 60.308594 75.617188 60.53125 75.617188 60.808594 L 75.617188 78.617188 C 75.613281 82.855469 72.179688 86.308594 67.957031 86.308594 Z M 67.957031 86.308594 "/>
<path style=" stroke:none;fill-rule:nonzero;fill:rgb(12.156863%,12.941176%,16.862745%);fill-opacity:1;" d="M 39.800781 14.308594 L 39.683594 26.140625 C 39.683594 28.351562 37.601562 29.808594 35.648438 29.808594 C 33.699219 29.808594 31.433594 28.367188 31.433594 26.15625 L 31.46875 13.578125 C 31.46875 12.269531 33.074219 11.128906 34.269531 11.128906 C 35.464844 11.128906 36.613281 12.277344 36.613281 13.582031 L 36.636719 24.410156 C 36.636719 24.410156 36.554688 25.078125 35.632812 25.058594 C 35.125 25.046875 34.484375 24.699219 34.613281 24.152344 L 34.613281 14.308594 L 33.800781 14.308594 L 33.78125 24.015625 C 33.78125 25.394531 34.320312 25.964844 35.65625 25.964844 C 36.992188 25.964844 37.613281 25.25 37.613281 23.871094 L 37.613281 13.664062 C 37.613281 11.394531 36.253906 10.164062 34.179688 10.164062 C 32.101562 10.164062 30.613281 11.425781 30.613281 13.695312 L 30.648438 25.808594 C 30.648438 28.847656 32.769531 30.714844 35.613281 30.714844 C 38.460938 30.714844 40.613281 29.003906 40.613281 25.964844 L 40.613281 14.308594 Z M 53.113281 52.308594 L 30.113281 52.308594 C 29.839844 52.308594 29.613281 52.082031 29.613281 51.808594 C 29.613281 51.53125 29.839844 51.308594 30.113281 51.308594 L 53.113281 51.308594 C 53.390625 51.308594 53.613281 51.53125 53.613281 51.808594 C 53.613281 52.082031 53.390625 52.308594 53.113281 52.308594 Z M 44.113281 59.308594 L 30.113281 59.308594 C 29.839844 59.308594 29.613281 59.082031 29.613281 58.808594 C 29.613281 58.53125 29.839844 58.308594 30.113281 58.308594 L 44.113281 58.308594 C 44.390625 58.308594 44.613281 58.53125 44.613281 58.808594 C 44.613281 59.082031 44.390625 59.308594 44.113281 59.308594 Z M 70.113281 59.308594 L 46.113281 59.308594 C 45.839844 59.308594 45.613281 59.082031 45.613281 58.808594 C 45.613281 58.53125 45.839844 58.308594 46.113281 58.308594 L 70.113281 58.308594 C 70.390625 58.308594 70.613281 58.53125 70.613281 58.808594 C 70.613281 59.082031 70.390625 59.308594 70.113281 59.308594 Z M 61.113281 66.308594 L 50.113281 66.308594 C 49.839844 66.308594 49.613281 66.082031 49.613281 65.808594 C 49.613281 65.53125 49.839844 65.308594 50.113281 65.308594 L 61.113281 65.308594 C 61.390625 65.308594 61.613281 65.53125 61.613281 65.808594 C 61.613281 66.082031 61.390625 66.308594 61.113281 66.308594 Z M 71.113281 66.308594 L 63.113281 66.308594 C 62.839844 66.308594 62.613281 66.082031 62.613281 65.808594 C 62.613281 65.53125 62.839844 65.308594 63.113281 65.308594 L 71.113281 65.308594 C 71.390625 65.308594 71.613281 65.53125 71.613281 65.808594 C 71.613281 66.082031 71.390625 66.308594 71.113281 66.308594 Z M 48.113281 66.308594 L 30.113281 66.308594 C 29.839844 66.308594 29.613281 66.082031 29.613281 65.808594 C 29.613281 65.53125 29.839844 65.308594 30.113281 65.308594 L 48.113281 65.308594 C 48.390625 65.308594 48.613281 65.53125 48.613281 65.808594 C 48.613281 66.082031 48.390625 66.308594 48.113281 66.308594 Z M 70.113281 73.308594 L 57.113281 73.308594 C 56.839844 73.308594 56.613281 73.082031 56.613281 72.808594 C 56.613281 72.53125 56.839844 72.308594 57.113281 72.308594 L 70.113281 72.308594 C 70.390625 72.308594 70.613281 72.53125 70.613281 72.808594 C 70.613281 73.082031 70.390625 73.308594 70.113281 73.308594 Z M 54.113281 73.308594 L 30.113281 73.308594 C 29.839844 73.308594 29.613281 73.082031 29.613281 72.808594 C 29.613281 72.53125 29.839844 72.308594 30.113281 72.308594 L 54.113281 72.308594 C 54.390625 72.308594 54.613281 72.53125 54.613281 72.808594 C 54.613281 73.082031 54.390625 73.308594 54.113281 73.308594 Z M 54.113281 73.308594 "/>
</g>
</svg>
