<?xml version="1.0" encoding="UTF-8"?>
<svg xmlns="http://www.w3.org/2000/svg" xmlns:xlink="http://www.w3.org/1999/xlink" width="100pt" height="100pt" viewBox="0 0 100 100" version="1.1">
<g id="surface36364">
<path style=" stroke:none;fill-rule:nonzero;fill:rgb(99.607843%,99.215686%,93.72549%);fill-opacity:1;" d="M 32 82 L 16 82 C 15.449219 82 15 81.550781 15 81 L 15 65 C 15 64.449219 15.449219 64 16 64 L 32 64 C 32.550781 64 33 64.449219 33 65 L 33 81 C 33 81.550781 32.550781 82 32 82 Z M 32 82 "/>
<path style=" stroke:none;fill-rule:nonzero;fill:rgb(99.607843%,83.529412%,70.196078%);fill-opacity:1;" d="M 32 36 L 16 36 C 15.449219 36 15 35.550781 15 35 L 15 19 C 15 18.449219 15.449219 18 16 18 L 32 18 C 32.550781 18 33 18.449219 33 19 L 33 35 C 33 35.550781 32.550781 36 32 36 Z M 32 36 "/>
<path style=" stroke:none;fill-rule:nonzero;fill:rgb(95.686275%,80%,79.607843%);fill-opacity:1;" d="M 32 59 L 16 59 C 15.449219 59 15 58.550781 15 58 L 15 42 C 15 41.449219 15.449219 41 16 41 L 32 41 C 32.550781 41 33 41.449219 33 42 L 33 58 C 33 58.550781 32.550781 59 32 59 Z M 32 59 "/>
<path style=" stroke:none;fill-rule:nonzero;fill:rgb(93.72549%,32.54902%,56.470588%);fill-opacity:1;" d="M 29.5 49.101562 C 29.5 49.878906 29.070312 50.621094 28.339844 50.960938 C 27.976562 51.136719 27.421875 51.269531 26.851562 51.324219 C 27.238281 51.597656 27.578125 51.894531 27.789062 52.152344 C 28.484375 53.027344 28.363281 54.316406 27.511719 55.035156 C 27.148438 55.335938 26.710938 55.5 26.25 55.5 C 26.183594 55.5 26.113281 55.496094 26.050781 55.488281 C 25.519531 55.4375 25.039062 55.171875 24.699219 54.753906 C 24.453125 54.445312 24.199219 53.941406 24 53.40625 C 23.800781 53.9375 23.546875 54.445312 23.300781 54.753906 C 22.960938 55.171875 22.480469 55.4375 21.949219 55.488281 C 21.421875 55.539062 20.898438 55.382812 20.488281 55.035156 C 19.636719 54.320312 19.515625 53.027344 20.210938 52.15625 C 20.421875 51.894531 20.761719 51.597656 21.148438 51.324219 C 20.578125 51.269531 20.023438 51.136719 19.660156 50.964844 C 18.660156 50.492188 18.226562 49.269531 18.683594 48.246094 C 18.910156 47.75 19.308594 47.371094 19.808594 47.1875 C 20.308594 46.996094 20.851562 47.019531 21.335938 47.246094 C 21.605469 47.375 21.925781 47.601562 22.238281 47.871094 C 22.085938 47.363281 22.003906 46.878906 22.003906 46.546875 C 22.003906 45.414062 22.898438 44.5 24 44.5 C 25.101562 44.5 25.996094 45.414062 25.996094 46.546875 C 25.996094 46.878906 25.914062 47.367188 25.761719 47.871094 C 26.074219 47.601562 26.394531 47.375 26.664062 47.246094 C 27.148438 47.019531 27.691406 46.996094 28.191406 47.1875 C 28.691406 47.371094 29.089844 47.75 29.316406 48.246094 C 29.441406 48.519531 29.5 48.8125 29.5 49.101562 Z M 29.5 49.101562 "/>
<path style=" stroke:none;fill-rule:nonzero;fill:rgb(12.156863%,12.941176%,16.862745%);fill-opacity:1;" d="M 20.5 72.351562 C 20.449219 72.351562 20.394531 72.34375 20.347656 72.328125 L 17.832031 71.511719 C 17.570312 71.425781 17.425781 71.144531 17.511719 70.882812 C 17.597656 70.621094 17.882812 70.476562 18.140625 70.5625 L 20.65625 71.378906 C 20.917969 71.460938 21.0625 71.746094 20.976562 72.007812 C 20.90625 72.21875 20.710938 72.351562 20.5 72.351562 Z M 20.285156 78.605469 C 20.179688 78.605469 20.078125 78.574219 19.988281 78.507812 C 19.765625 78.347656 19.71875 78.035156 19.878906 77.808594 L 21.464844 75.625 C 21.628906 75.402344 21.941406 75.351562 22.164062 75.515625 C 22.386719 75.679688 22.4375 75.988281 22.273438 76.214844 L 20.6875 78.398438 C 20.589844 78.53125 20.4375 78.605469 20.285156 78.605469 Z M 27.714844 78.605469 C 27.5625 78.605469 27.410156 78.53125 27.3125 78.398438 L 25.738281 76.234375 C 25.578125 76.011719 25.628906 75.699219 25.851562 75.535156 C 26.074219 75.375 26.386719 75.421875 26.546875 75.644531 L 28.121094 77.808594 C 28.28125 78.035156 28.234375 78.347656 28.011719 78.507812 C 27.921875 78.574219 27.816406 78.605469 27.714844 78.605469 Z M 27.5 72.351562 C 27.289062 72.351562 27.09375 72.21875 27.023438 72.007812 C 26.9375 71.742188 27.082031 71.460938 27.34375 71.375 L 29.859375 70.558594 C 30.117188 70.476562 30.402344 70.617188 30.488281 70.882812 C 30.574219 71.144531 30.429688 71.425781 30.167969 71.511719 L 27.652344 72.328125 C 27.605469 72.34375 27.550781 72.351562 27.5 72.351562 Z M 24 69.832031 C 23.722656 69.832031 23.5 69.609375 23.5 69.332031 L 23.5 66.667969 C 23.5 66.390625 23.722656 66.167969 24 66.167969 C 24.277344 66.167969 24.5 66.390625 24.5 66.667969 L 24.5 69.332031 C 24.5 69.609375 24.277344 69.832031 24 69.832031 Z M 32 37 L 16 37 C 14.898438 37 14 36.101562 14 35 L 14 19 C 14 17.898438 14.898438 17 16 17 L 32 17 C 33.101562 17 34 17.898438 34 19 L 34 35 C 34 36.101562 33.101562 37 32 37 Z M 16 19 L 16 35 L 32 35 L 32 19 Z M 16 19 "/>
<path style=" stroke:none;fill-rule:nonzero;fill:rgb(12.156863%,12.941176%,16.862745%);fill-opacity:1;" d="M 32 83 L 16 83 C 14.898438 83 14 82.101562 14 81 L 14 65 C 14 63.898438 14.898438 63 16 63 L 32 63 C 33.101562 63 34 63.898438 34 65 L 34 81 C 34 82.101562 33.101562 83 32 83 Z M 16 65 L 16 81 L 32 81 L 32 65 Z M 32 60 L 16 60 C 14.898438 60 14 59.101562 14 58 L 14 42 C 14 40.898438 14.898438 40 16 40 L 32 40 C 33.101562 40 34 40.898438 34 42 L 34 58 C 34 59.101562 33.101562 60 32 60 Z M 16 42 L 16 58 L 32 58 L 32 42 Z M 60 32 L 41 32 C 40.445312 32 40 31.550781 40 31 L 40 23 C 40 22.449219 40.445312 22 41 22 L 60 22 C 60.554688 22 61 22.449219 61 23 L 61 31 C 61 31.550781 60.554688 32 60 32 Z M 42 30 L 59 30 L 59 24 L 42 24 Z M 85 32 L 66 32 C 65.445312 32 65 31.550781 65 31 L 65 23 C 65 22.449219 65.445312 22 66 22 L 85 22 C 85.554688 22 86 22.449219 86 23 L 86 31 C 86 31.550781 85.554688 32 85 32 Z M 67 30 L 84 30 L 84 24 L 67 24 Z M 60 55 L 41 55 C 40.445312 55 40 54.550781 40 54 L 40 46 C 40 45.449219 40.445312 45 41 45 L 60 45 C 60.554688 45 61 45.449219 61 46 L 61 54 C 61 54.550781 60.554688 55 60 55 Z M 42 53 L 59 53 L 59 47 L 42 47 Z M 85 55 L 66 55 C 65.445312 55 65 54.550781 65 54 L 65 46 C 65 45.449219 65.445312 45 66 45 L 85 45 C 85.554688 45 86 45.449219 86 46 L 86 54 C 86 54.550781 85.554688 55 85 55 Z M 67 53 L 84 53 L 84 47 L 67 47 Z M 60 78 L 41 78 C 40.445312 78 40 77.550781 40 77 L 40 69 C 40 68.449219 40.445312 68 41 68 L 60 68 C 60.554688 68 61 68.449219 61 69 L 61 77 C 61 77.550781 60.554688 78 60 78 Z M 42 76 L 59 76 L 59 70 L 42 70 Z M 85 78 L 66 78 C 65.445312 78 65 77.550781 65 77 L 65 69 C 65 68.449219 65.445312 68 66 68 L 85 68 C 85.554688 68 86 68.449219 86 69 L 86 77 C 86 77.550781 85.554688 78 85 78 Z M 67 76 L 84 76 L 84 70 L 67 70 Z M 67 76 "/>
<path style=" stroke:none;fill-rule:nonzero;fill:rgb(12.156863%,12.941176%,16.862745%);fill-opacity:1;" d="M 26.25 56 C 26.171875 56 26.085938 55.996094 26.007812 55.988281 C 25.339844 55.925781 24.738281 55.597656 24.3125 55.066406 C 24.199219 54.925781 24.09375 54.765625 24 54.601562 C 23.90625 54.765625 23.800781 54.925781 23.6875 55.066406 C 23.257812 55.597656 22.65625 55.921875 21.996094 55.988281 C 21.332031 56.050781 20.675781 55.847656 20.164062 55.414062 C 19.109375 54.53125 18.953125 52.929688 19.816406 51.84375 C 19.875 51.769531 19.941406 51.695312 20.011719 51.621094 C 19.800781 51.558594 19.605469 51.488281 19.441406 51.414062 C 18.199219 50.828125 17.652344 49.3125 18.226562 48.039062 C 18.507812 47.414062 19.007812 46.945312 19.636719 46.714844 C 20.246094 46.484375 20.914062 46.507812 21.511719 46.777344 C 21.507812 46.695312 21.503906 46.617188 21.503906 46.546875 C 21.503906 45.140625 22.621094 44 23.996094 44 C 25.375 44 26.492188 45.140625 26.492188 46.546875 C 26.492188 46.617188 26.488281 46.695312 26.484375 46.777344 C 27.078125 46.503906 27.746094 46.480469 28.363281 46.714844 C 28.984375 46.945312 29.488281 47.414062 29.769531 48.035156 C 29.921875 48.375 30 48.730469 30 49.101562 C 30 50.09375 29.433594 51.003906 28.554688 51.414062 C 28.390625 51.492188 28.199219 51.5625 27.984375 51.621094 C 28.058594 51.695312 28.121094 51.769531 28.179688 51.839844 C 29.042969 52.929688 28.886719 54.535156 27.832031 55.417969 C 27.378906 55.796875 26.828125 56 26.25 56 Z M 24 52.90625 C 24.207031 52.90625 24.394531 53.035156 24.46875 53.230469 C 24.65625 53.738281 24.890625 54.191406 25.089844 54.441406 C 25.347656 54.757812 25.703125 54.953125 26.097656 54.992188 C 26.4375 55.019531 26.875 54.914062 27.1875 54.652344 C 27.835938 54.113281 27.925781 53.132812 27.398438 52.464844 C 27.226562 52.25 26.921875 51.984375 26.566406 51.734375 C 26.394531 51.617188 26.3125 51.402344 26.367188 51.199219 C 26.421875 50.996094 26.59375 50.847656 26.800781 50.828125 C 27.320312 50.777344 27.816406 50.65625 28.125 50.511719 C 28.65625 50.261719 29 49.707031 29 49.101562 C 29 48.875 28.953125 48.65625 28.859375 48.453125 C 28.6875 48.078125 28.390625 47.792969 28.015625 47.65625 C 27.640625 47.511719 27.238281 47.53125 26.878906 47.699219 C 26.65625 47.804688 26.378906 48 26.085938 48.25 C 25.917969 48.394531 25.675781 48.414062 25.484375 48.289062 C 25.296875 48.167969 25.214844 47.9375 25.28125 47.726562 C 25.410156 47.296875 25.492188 46.84375 25.492188 46.546875 C 25.492188 45.695312 24.820312 45 23.996094 45 C 23.175781 45 22.503906 45.695312 22.503906 46.546875 C 22.503906 46.84375 22.585938 47.296875 22.71875 47.726562 C 22.78125 47.9375 22.699219 48.167969 22.511719 48.289062 C 22.328125 48.414062 22.082031 48.398438 21.910156 48.253906 C 21.617188 48 21.335938 47.804688 21.117188 47.699219 C 20.761719 47.53125 20.359375 47.511719 19.984375 47.65625 C 19.605469 47.792969 19.308594 48.074219 19.136719 48.453125 C 18.785156 49.230469 19.117188 50.15625 19.867188 50.511719 C 20.175781 50.65625 20.683594 50.777344 21.195312 50.828125 C 21.402344 50.851562 21.578125 50.996094 21.628906 51.199219 C 21.683594 51.402344 21.605469 51.617188 21.433594 51.738281 C 21.078125 51.984375 20.773438 52.253906 20.597656 52.46875 C 20.070312 53.132812 20.164062 54.113281 20.808594 54.652344 C 21.113281 54.910156 21.503906 55.027344 21.898438 54.992188 C 22.292969 54.957031 22.648438 54.757812 22.910156 54.441406 C 23.105469 54.195312 23.339844 53.742188 23.53125 53.234375 C 23.605469 53.035156 23.789062 52.90625 24 52.90625 Z M 29.714844 32.480469 L 18.285156 32.480469 C 17.996094 32.480469 17.730469 32.316406 17.59375 32.050781 C 17.464844 31.785156 17.472656 31.488281 17.613281 31.246094 L 23.332031 21.867188 C 23.632812 21.398438 24.375 21.410156 24.660156 21.855469 L 30.378906 31.234375 C 30.527344 31.488281 30.535156 31.785156 30.414062 32.039062 L 30.40625 32.050781 C 30.269531 32.316406 30.003906 32.480469 29.714844 32.480469 Z M 18.640625 31.480469 L 29.359375 31.480469 L 24 22.691406 Z M 24 77 C 21.792969 77 20 75.207031 20 73 C 20 70.792969 21.792969 69 24 69 C 26.207031 69 28 70.792969 28 73 C 28 75.207031 26.207031 77 24 77 Z M 24 70 C 22.347656 70 21 71.347656 21 73 C 21 74.652344 22.347656 76 24 76 C 25.652344 76 27 74.652344 27 73 C 27 71.347656 25.652344 70 24 70 Z M 24 70 "/>
<path style=" stroke:none;fill-rule:nonzero;fill:rgb(12.156863%,12.941176%,16.862745%);fill-opacity:1;" d="M 84.5 28 L 76.5 28 C 76.222656 28 76 27.777344 76 27.5 C 76 27.222656 76.222656 27 76.5 27 L 84.5 27 C 84.777344 27 85 27.222656 85 27.5 C 85 27.777344 84.777344 28 84.5 28 Z M 84.5 28 "/>
<path style=" stroke:none;fill-rule:nonzero;fill:rgb(12.156863%,12.941176%,16.862745%);fill-opacity:1;" d="M 55.5 51 L 41.5 51 C 41.222656 51 41 50.777344 41 50.5 C 41 50.222656 41.222656 50 41.5 50 L 55.5 50 C 55.777344 50 56 50.222656 56 50.5 C 56 50.777344 55.777344 51 55.5 51 Z M 55.5 51 "/>
<path style=" stroke:none;fill-rule:nonzero;fill:rgb(12.156863%,12.941176%,16.862745%);fill-opacity:1;" d="M 60.5 51 L 57.5 51 C 57.222656 51 57 50.777344 57 50.5 C 57 50.222656 57.222656 50 57.5 50 L 60.5 50 C 60.777344 50 61 50.222656 61 50.5 C 61 50.777344 60.777344 51 60.5 51 Z M 60.5 51 "/>
<path style=" stroke:none;fill-rule:nonzero;fill:rgb(12.156863%,12.941176%,16.862745%);fill-opacity:1;" d="M 59.5 73 L 51.5 73 C 51.222656 73 51 72.777344 51 72.5 C 51 72.222656 51.222656 72 51.5 72 L 59.5 72 C 59.777344 72 60 72.222656 60 72.5 C 60 72.777344 59.777344 73 59.5 73 Z M 59.5 73 "/>
</g>
</svg>
