<?xml version="1.0" encoding="UTF-8"?>
<svg xmlns="http://www.w3.org/2000/svg" xmlns:xlink="http://www.w3.org/1999/xlink" width="50pt" height="50pt"
  viewBox="0 0 50 50" version="1.1">
  <g id="surface13455">
    <path style="fill-opacity:1;"
      d="M 32.292969 12.5 L 35.417969 12.5 C 36.566406 12.5 37.5 13.433594 37.5 14.582031 L 37.5 17.707031 C 37.5 19.433594 38.898438 20.832031 40.625 20.832031 C 42.351562 20.832031 43.75 19.433594 43.75 17.707031 L 43.75 12.5 C 43.75 9.046875 40.953125 6.25 37.5 6.25 L 32.292969 6.25 C 30.566406 6.25 29.167969 7.648438 29.167969 9.375 C 29.167969 11.101562 30.566406 12.5 32.292969 12.5 Z M 32.292969 12.5 " />
    <path style="fill-opacity:1;"
      d="M 12.5 17.707031 L 12.5 14.582031 C 12.5 13.433594 13.433594 12.5 14.582031 12.5 L 17.707031 12.5 C 19.433594 12.5 20.832031 11.101562 20.832031 9.375 C 20.832031 7.648438 19.433594 6.25 17.707031 6.25 L 12.5 6.25 C 9.046875 6.25 6.25 9.046875 6.25 12.5 L 6.25 17.707031 C 6.25 19.433594 7.648438 20.832031 9.375 20.832031 C 11.101562 20.832031 12.5 19.433594 12.5 17.707031 Z M 12.5 17.707031 " />
    <path style="fill-opacity:1;"
      d="M 37.5 32.292969 L 37.5 35.417969 C 37.5 36.566406 36.566406 37.5 35.417969 37.5 L 32.292969 37.5 C 30.566406 37.5 29.167969 38.898438 29.167969 40.625 C 29.167969 42.351562 30.566406 43.75 32.292969 43.75 L 37.5 43.75 C 40.953125 43.75 43.75 40.953125 43.75 37.5 L 43.75 32.292969 C 43.75 30.566406 42.351562 29.167969 40.625 29.167969 C 38.898438 29.167969 37.5 30.566406 37.5 32.292969 Z M 37.5 32.292969 " />
    <path style="fill-opacity:1;"
      d="M 17.707031 37.5 L 14.582031 37.5 C 13.433594 37.5 12.5 36.566406 12.5 35.417969 L 12.5 32.292969 C 12.5 30.566406 11.101562 29.167969 9.375 29.167969 C 7.648438 29.167969 6.25 30.566406 6.25 32.292969 L 6.25 37.5 C 6.25 40.953125 9.046875 43.75 12.5 43.75 L 17.707031 43.75 C 19.433594 43.75 20.832031 42.351562 20.832031 40.625 C 20.832031 38.898438 19.433594 37.5 17.707031 37.5 Z M 17.707031 37.5 " />
  </g>
</svg>