<?xml version="1.0" encoding="UTF-8"?>
<svg xmlns="http://www.w3.org/2000/svg" xmlns:xlink="http://www.w3.org/1999/xlink" width="100pt" height="100pt" viewBox="0 0 100 100" version="1.1">
<g id="surface472">
<path style=" stroke:none;fill-rule:nonzero;fill:rgb(46.666667%,51.372549%,67.843137%);fill-opacity:1;" d="M 86.214844 64.535156 C 86.078125 58.851562 83.722656 45.128906 83.722656 45.128906 C 81.671875 42.105469 77.015625 39.84375 71.0625 38.335938 L 32.535156 38.335938 C 32.269531 38.335938 32.203125 38.03125 32.328125 37.875 C 25.441406 39.363281 19.972656 41.78125 17.703125 45.128906 C 17.703125 45.128906 15.347656 58.851562 15.207031 64.535156 C 15.078125 69.90625 12.113281 83.953125 25.253906 81.371094 C 26.730469 81.078125 27.996094 80.136719 28.6875 78.800781 C 31.289062 73.789062 38.304688 60.851562 41.542969 60.515625 C 44.644531 60.195312 56.777344 60.195312 59.878906 60.515625 C 62.996094 60.839844 69.613281 72.839844 72.425781 78.203125 C 73.351562 79.972656 75.050781 81.222656 77.023438 81.519531 C 89.183594 83.335938 86.34375 69.789062 86.214844 64.535156 Z M 86.214844 64.535156 "/>
<path style=" stroke:none;fill-rule:nonzero;fill:rgb(56.078431%,61.960784%,71.372549%);fill-opacity:1;" d="M 44.363281 56.652344 C 45.484375 54.546875 46.117188 52.148438 46.117188 49.597656 C 46.117188 41.292969 39.386719 34.558594 31.078125 34.558594 C 22.773438 34.558594 16.039062 41.292969 16.039062 49.597656 C 16.039062 57.605469 22.292969 64.144531 30.183594 64.609375 C 30.222656 69.703125 34.363281 73.820312 39.464844 73.820312 C 44.59375 73.820312 48.753906 69.660156 48.753906 64.53125 C 48.753906 61.203125 46.996094 58.289062 44.363281 56.652344 Z M 85.347656 49.597656 C 85.347656 41.292969 78.613281 34.558594 70.304688 34.558594 C 62 34.558594 55.265625 41.292969 55.265625 49.597656 C 55.265625 52.148438 55.902344 54.550781 57.023438 56.652344 C 54.390625 58.289062 52.632812 61.203125 52.632812 64.53125 C 52.632812 69.660156 56.789062 73.820312 61.917969 73.820312 C 67.023438 73.820312 71.160156 69.703125 71.203125 64.609375 C 79.09375 64.144531 85.347656 57.605469 85.347656 49.597656 Z M 85.347656 49.597656 "/>
<path style=" stroke:none;fill-rule:nonzero;fill:rgb(39.215686%,45.490196%,65.098039%);fill-opacity:1;" d="M 40.492188 61.539062 C 38.316406 61.539062 36.554688 63.300781 36.554688 65.476562 C 36.554688 67.652344 38.316406 69.414062 40.492188 69.414062 C 42.667969 69.414062 44.429688 67.652344 44.429688 65.476562 C 44.429688 63.300781 42.667969 61.539062 40.492188 61.539062 Z M 62.070312 61.539062 C 59.898438 61.539062 58.132812 63.300781 58.132812 65.476562 C 58.132812 67.652344 59.898438 69.414062 62.070312 69.414062 C 64.246094 69.414062 66.011719 67.652344 66.011719 65.476562 C 66.011719 63.300781 64.246094 61.539062 62.070312 61.539062 Z M 36.757812 47.242188 L 32.859375 47.242188 L 32.859375 43.34375 C 32.859375 42.691406 32.324219 42.15625 31.671875 42.15625 L 29.714844 42.15625 C 29.0625 42.15625 28.53125 42.691406 28.53125 43.34375 L 28.53125 47.242188 L 24.628906 47.242188 C 23.976562 47.242188 23.445312 47.777344 23.445312 48.429688 L 23.445312 50.386719 C 23.445312 51.039062 23.976562 51.570312 24.628906 51.570312 L 28.53125 51.570312 L 28.53125 55.472656 C 28.53125 56.125 29.0625 56.65625 29.714844 56.65625 L 31.671875 56.65625 C 32.324219 56.65625 32.859375 56.125 32.859375 55.472656 L 32.859375 51.570312 L 36.757812 51.570312 C 37.410156 51.570312 37.945312 51.039062 37.945312 50.386719 L 37.945312 48.429688 C 37.945312 47.777344 37.410156 47.242188 36.757812 47.242188 Z M 36.757812 47.242188 "/>
<path style=" stroke:none;fill-rule:nonzero;fill:rgb(37.647059%,74.509804%,57.254902%);fill-opacity:1;" d="M 70.425781 40.65625 C 68.890625 40.65625 67.644531 41.902344 67.644531 43.4375 C 67.644531 44.972656 68.890625 46.21875 70.425781 46.21875 C 71.960938 46.21875 73.207031 44.972656 73.207031 43.4375 C 73.207031 41.902344 71.960938 40.65625 70.425781 40.65625 Z M 70.425781 40.65625 "/>
<path style=" stroke:none;fill-rule:nonzero;fill:rgb(22.352941%,76.078431%,84.705882%);fill-opacity:1;" d="M 70.425781 52.59375 C 68.890625 52.59375 67.644531 53.839844 67.644531 55.375 C 67.644531 56.910156 68.890625 58.15625 70.425781 58.15625 C 71.960938 58.15625 73.207031 56.910156 73.207031 55.375 C 73.207031 53.839844 71.960938 52.59375 70.425781 52.59375 Z M 70.425781 52.59375 "/>
<path style=" stroke:none;fill-rule:nonzero;fill:rgb(94.901961%,43.137255%,48.627451%);fill-opacity:1;" d="M 76.394531 46.625 C 74.859375 46.625 73.613281 47.871094 73.613281 49.40625 C 73.613281 50.941406 74.859375 52.1875 76.394531 52.1875 C 77.929688 52.1875 79.175781 50.941406 79.175781 49.40625 C 79.175781 47.871094 77.929688 46.625 76.394531 46.625 Z M 76.394531 46.625 "/>
<path style=" stroke:none;fill-rule:nonzero;fill:rgb(93.72549%,32.54902%,56.470588%);fill-opacity:1;" d="M 64.457031 46.625 C 62.921875 46.625 61.675781 47.871094 61.675781 49.40625 C 61.675781 50.941406 62.921875 52.1875 64.457031 52.1875 C 65.992188 52.1875 67.238281 50.941406 67.238281 49.40625 C 67.238281 47.871094 65.992188 46.625 64.457031 46.625 Z M 64.457031 46.625 "/>
<path style=" stroke:none;fill-rule:nonzero;fill:rgb(100%,100%,100%);fill-opacity:1;" d="M 52.320312 35.535156 L 48.738281 35.535156 C 48.015625 35.535156 47.425781 36.488281 47.425781 37.660156 L 53.632812 37.660156 C 53.632812 36.488281 53.042969 35.535156 52.320312 35.535156 Z M 52.320312 35.535156 "/>
<path style=" stroke:none;fill-rule:nonzero;fill:rgb(12.156863%,12.941176%,16.862745%);fill-opacity:1;" d="M 87.597656 66.53125 C 87.527344 65.636719 87.464844 64.824219 87.449219 64.152344 C 87.382812 61.378906 86.808594 56.800781 86.222656 52.769531 C 86.449219 51.699219 86.578125 50.59375 86.578125 49.460938 C 86.578125 40.613281 79.386719 33.417969 70.539062 33.417969 C 66.734375 33.417969 63.242188 34.757812 60.488281 36.976562 L 54.148438 36.976562 C 53.992188 35.824219 53.300781 34.976562 52.449219 34.976562 L 51.164062 34.976562 C 51.15625 34.964844 51.15625 34.949219 51.152344 34.933594 C 48.960938 30.988281 49.839844 28.445312 50.964844 27.011719 C 52.644531 24.859375 55.808594 23.960938 57.707031 24.472656 C 60.320312 25.175781 61.339844 26.578125 62.328125 27.9375 C 63.304688 29.285156 64.230469 30.558594 66.488281 30.648438 C 69.328125 30.78125 72.910156 28.773438 73.796875 25.355469 C 74.695312 21.890625 72.613281 18.09375 68.949219 16.519531 C 68.695312 16.410156 68.402344 16.527344 68.289062 16.78125 C 68.183594 17.03125 68.300781 17.328125 68.554688 17.4375 C 71.765625 18.816406 73.605469 22.113281 72.828125 25.101562 C 72.0625 28.039062 68.941406 29.757812 66.527344 29.652344 C 64.753906 29.578125 64.074219 28.644531 63.136719 27.351562 C 62.148438 25.992188 60.921875 24.300781 57.964844 23.503906 C 55.765625 22.914062 52.164062 23.851562 50.175781 26.394531 C 48.910156 28.011719 47.902344 30.800781 50.046875 34.976562 L 49.078125 34.976562 C 48.222656 34.976562 47.53125 35.824219 47.375 36.976562 L 41.363281 36.976562 C 38.609375 34.757812 35.117188 33.417969 31.3125 33.417969 C 22.46875 33.417969 15.273438 40.613281 15.273438 49.460938 C 15.273438 50.628906 15.414062 51.769531 15.652344 52.871094 C 15.074219 56.878906 14.511719 61.402344 14.441406 64.152344 C 14.425781 64.824219 14.363281 65.636719 14.296875 66.53125 C 13.96875 70.824219 13.476562 77.3125 17.058594 80.492188 C 19.027344 82.234375 21.941406 82.738281 25.71875 81.988281 C 27.484375 81.636719 28.972656 80.515625 29.808594 78.910156 C 31.066406 76.484375 32.238281 74.351562 33.328125 72.445312 C 35.085938 73.84375 37.300781 74.683594 39.699219 74.683594 C 45.371094 74.683594 49.988281 70.066406 49.988281 64.394531 C 49.988281 63.1875 49.777344 62.019531 49.386719 60.925781 C 50.410156 60.917969 51.445312 60.917969 52.46875 60.925781 C 52.078125 62.019531 51.867188 63.191406 51.867188 64.394531 C 51.867188 70.066406 56.480469 74.683594 62.152344 74.683594 C 64.566406 74.683594 66.789062 73.832031 68.550781 72.425781 C 69.554688 74.179688 70.628906 76.125 71.773438 78.3125 C 72.859375 80.382812 74.863281 81.820312 77.140625 82.15625 C 77.910156 82.269531 78.644531 82.328125 79.339844 82.328125 C 81.683594 82.328125 83.566406 81.675781 84.957031 80.378906 C 88.40625 77.164062 87.917969 70.765625 87.597656 66.53125 Z M 49.078125 35.976562 L 52.449219 35.976562 C 52.6875 35.976562 53.019531 36.351562 53.136719 36.976562 L 48.386719 36.976562 C 48.507812 36.351562 48.835938 35.976562 49.078125 35.976562 Z M 28.03125 77.984375 C 27.480469 79.050781 26.496094 79.792969 25.328125 80.023438 C 22.195312 80.644531 19.859375 80.300781 18.386719 78.992188 C 15.542969 76.472656 15.992188 70.582031 16.289062 66.683594 C 16.359375 65.746094 16.425781 64.902344 16.441406 64.199219 C 16.484375 62.382812 16.765625 59.695312 17.121094 56.90625 C 19.527344 61.476562 24.070312 64.773438 29.464844 65.390625 C 29.671875 67.515625 30.535156 69.445312 31.84375 70.996094 C 30.652344 73.0625 29.382812 75.382812 28.03125 77.984375 Z M 39.699219 72.679688 C 35.171875 72.679688 31.453125 68.992188 31.417969 64.460938 C 31.414062 63.933594 31 63.503906 30.476562 63.472656 C 23.074219 63.035156 17.273438 56.878906 17.273438 49.457031 C 17.273438 41.71875 23.570312 35.417969 31.3125 35.417969 C 39.054688 35.417969 45.355469 41.714844 45.355469 49.457031 C 45.355469 51.75 44.785156 54.027344 43.714844 56.039062 C 43.46875 56.503906 43.621094 57.082031 44.070312 57.359375 C 46.523438 58.886719 47.988281 61.515625 47.988281 64.390625 C 47.988281 68.960938 44.269531 72.679688 39.699219 72.679688 Z M 50.945312 58.914062 C 50.085938 58.914062 49.238281 58.917969 48.40625 58.929688 C 47.746094 57.878906 46.898438 56.945312 45.878906 56.179688 C 46.84375 54.082031 47.351562 51.777344 47.351562 49.460938 C 47.351562 45.449219 45.863281 41.792969 43.425781 38.976562 L 58.429688 38.976562 C 55.988281 41.789062 54.503906 45.449219 54.503906 49.460938 C 54.503906 51.777344 55.011719 54.082031 55.976562 56.179688 C 54.957031 56.945312 54.109375 57.878906 53.449219 58.925781 C 52.625 58.917969 51.792969 58.914062 50.945312 58.914062 Z M 62.152344 72.679688 C 57.585938 72.679688 53.867188 68.960938 53.867188 64.394531 C 53.867188 61.519531 55.332031 58.890625 57.785156 57.359375 C 58.230469 57.082031 58.386719 56.507812 58.140625 56.042969 C 57.066406 54.027344 56.5 51.75 56.5 49.460938 C 56.5 41.71875 62.796875 35.421875 70.539062 35.421875 C 78.28125 35.421875 84.578125 41.71875 84.578125 49.460938 C 84.578125 56.882812 78.78125 63.035156 71.378906 63.472656 C 70.855469 63.503906 70.441406 63.9375 70.4375 64.464844 C 70.398438 68.992188 66.683594 72.679688 62.152344 72.679688 Z M 83.59375 78.914062 C 82.257812 80.15625 80.183594 80.582031 77.429688 80.175781 C 75.785156 79.929688 74.332031 78.886719 73.546875 77.382812 C 72.253906 74.917969 71.09375 72.808594 70.03125 70.96875 C 71.324219 69.421875 72.183594 67.5 72.390625 65.390625 C 77.804688 64.765625 82.363281 61.449219 84.761719 56.851562 C 85.121094 59.660156 85.40625 62.367188 85.449219 64.199219 C 85.46875 64.902344 85.53125 65.746094 85.601562 66.683594 C 85.894531 70.535156 86.339844 76.355469 83.59375 78.914062 Z M 83.59375 78.914062 "/>
<path style=" stroke:none;fill-rule:nonzero;fill:rgb(12.156863%,12.941176%,16.862745%);fill-opacity:1;" d="M 40.492188 60.976562 C 38.011719 60.976562 35.992188 62.996094 35.992188 65.476562 C 35.992188 67.957031 38.011719 69.976562 40.492188 69.976562 C 42.972656 69.976562 44.992188 67.957031 44.992188 65.476562 C 44.992188 62.996094 42.972656 60.976562 40.492188 60.976562 Z M 40.492188 68.976562 C 38.5625 68.976562 36.992188 67.40625 36.992188 65.476562 C 36.992188 63.546875 38.5625 61.976562 40.492188 61.976562 C 42.421875 61.976562 43.992188 63.546875 43.992188 65.476562 C 43.992188 67.40625 42.421875 68.976562 40.492188 68.976562 Z M 62.492188 60.976562 C 60.011719 60.976562 57.992188 62.996094 57.992188 65.476562 C 57.992188 67.957031 60.011719 69.976562 62.492188 69.976562 C 64.972656 69.976562 66.992188 67.957031 66.992188 65.476562 C 66.992188 62.996094 64.972656 60.976562 62.492188 60.976562 Z M 62.492188 68.976562 C 60.5625 68.976562 58.992188 67.40625 58.992188 65.476562 C 58.992188 63.546875 60.5625 61.976562 62.492188 61.976562 C 64.421875 61.976562 65.992188 63.546875 65.992188 65.476562 C 65.992188 67.40625 64.421875 68.976562 62.492188 68.976562 Z M 70.492188 46.976562 C 72.421875 46.976562 73.992188 45.40625 73.992188 43.476562 C 73.992188 41.546875 72.421875 39.976562 70.492188 39.976562 C 68.5625 39.976562 66.992188 41.546875 66.992188 43.476562 C 66.992188 45.40625 68.5625 46.976562 70.492188 46.976562 Z M 70.492188 40.976562 C 71.871094 40.976562 72.992188 42.097656 72.992188 43.476562 C 72.992188 44.855469 71.871094 45.976562 70.492188 45.976562 C 69.113281 45.976562 67.992188 44.855469 67.992188 43.476562 C 67.992188 42.097656 69.113281 40.976562 70.492188 40.976562 Z M 73.992188 55.476562 C 73.992188 53.546875 72.421875 51.976562 70.492188 51.976562 C 68.5625 51.976562 66.992188 53.546875 66.992188 55.476562 C 66.992188 57.40625 68.5625 58.976562 70.492188 58.976562 C 72.421875 58.976562 73.992188 57.40625 73.992188 55.476562 Z M 67.992188 55.476562 C 67.992188 54.097656 69.113281 52.976562 70.492188 52.976562 C 71.871094 52.976562 72.992188 54.097656 72.992188 55.476562 C 72.992188 56.855469 71.871094 57.976562 70.492188 57.976562 C 69.113281 57.976562 67.992188 56.855469 67.992188 55.476562 Z M 76.492188 52.976562 C 78.421875 52.976562 79.992188 51.40625 79.992188 49.476562 C 79.992188 47.546875 78.421875 45.976562 76.492188 45.976562 C 74.5625 45.976562 72.992188 47.546875 72.992188 49.476562 C 72.992188 51.40625 74.5625 52.976562 76.492188 52.976562 Z M 76.492188 46.976562 C 77.871094 46.976562 78.992188 48.097656 78.992188 49.476562 C 78.992188 50.855469 77.871094 51.976562 76.492188 51.976562 C 75.113281 51.976562 73.992188 50.855469 73.992188 49.476562 C 73.992188 48.097656 75.113281 46.976562 76.492188 46.976562 Z M 64.492188 52.976562 C 66.421875 52.976562 67.992188 51.40625 67.992188 49.476562 C 67.992188 47.546875 66.421875 45.976562 64.492188 45.976562 C 62.5625 45.976562 60.992188 47.546875 60.992188 49.476562 C 60.992188 51.40625 62.5625 52.976562 64.492188 52.976562 Z M 64.492188 46.976562 C 65.871094 46.976562 66.992188 48.097656 66.992188 49.476562 C 66.992188 50.855469 65.871094 51.976562 64.492188 51.976562 C 63.113281 51.976562 61.992188 50.855469 61.992188 49.476562 C 61.992188 48.097656 63.113281 46.976562 64.492188 46.976562 Z M 38.492188 50.453125 L 38.492188 48.496094 C 38.492188 47.570312 37.734375 46.8125 36.804688 46.8125 L 33.40625 46.8125 L 33.40625 43.410156 C 33.40625 42.484375 32.648438 41.726562 31.71875 41.726562 L 29.761719 41.726562 C 28.835938 41.726562 28.078125 42.480469 28.078125 43.410156 L 28.078125 46.8125 L 24.675781 46.8125 C 23.746094 46.8125 22.992188 47.566406 22.992188 48.496094 L 22.992188 50.453125 C 22.992188 51.382812 23.746094 52.140625 24.675781 52.140625 L 28.078125 52.140625 L 28.078125 55.539062 C 28.078125 56.46875 28.832031 57.226562 29.761719 57.226562 L 31.71875 57.226562 C 32.648438 57.226562 33.40625 56.472656 33.40625 55.539062 L 33.40625 52.140625 L 36.804688 52.140625 C 37.734375 52.140625 38.492188 51.382812 38.492188 50.453125 Z M 32.90625 51.140625 C 32.628906 51.140625 32.40625 51.363281 32.40625 51.640625 L 32.40625 55.539062 C 32.40625 55.917969 32.097656 56.226562 31.71875 56.226562 L 29.761719 56.226562 C 29.386719 56.226562 29.078125 55.917969 29.078125 55.539062 L 29.078125 51.640625 C 29.078125 51.363281 28.851562 51.140625 28.578125 51.140625 L 24.675781 51.140625 C 24.300781 51.140625 23.992188 50.832031 23.992188 50.453125 L 23.992188 48.496094 C 23.992188 48.117188 24.300781 47.8125 24.675781 47.8125 L 28.578125 47.8125 C 28.851562 47.8125 29.078125 47.585938 29.078125 47.3125 L 29.078125 43.410156 C 29.078125 43.03125 29.386719 42.726562 29.761719 42.726562 L 31.71875 42.726562 C 32.097656 42.726562 32.40625 43.03125 32.40625 43.410156 L 32.40625 47.3125 C 32.40625 47.585938 32.628906 47.8125 32.90625 47.8125 L 36.804688 47.8125 C 37.183594 47.8125 37.492188 48.117188 37.492188 48.496094 L 37.492188 50.453125 C 37.492188 50.832031 37.183594 51.140625 36.804688 51.140625 Z M 32.90625 51.140625 "/>
</g>
</svg>
