<?xml version="1.0" encoding="UTF-8"?>
<svg xmlns="http://www.w3.org/2000/svg" xmlns:xlink="http://www.w3.org/1999/xlink" width="100pt" height="100pt" viewBox="0 0 100 100" version="1.1">
<g id="surface457">
<path style=" stroke:none;fill-rule:nonzero;fill:rgb(97.647059%,90.196078%,36.078431%);fill-opacity:1;" d="M 15 74.5 L 15 26 C 15 23.238281 17.238281 21 20 21 L 45 21 C 47.761719 21 50 23.238281 50 26 L 50 30 L 75 30 C 76.105469 30 77 30.894531 77 32 L 77 40 L 23 40 Z M 15 74.5 "/>
<path style=" stroke:none;fill-rule:nonzero;fill:rgb(99.607843%,96.470588%,66.666667%);fill-opacity:1;" d="M 15 74.667969 L 23 40 L 85 40 L 76 79 L 15 79 "/>
<path style=" stroke:none;fill-rule:nonzero;fill:rgb(47.058824%,63.529412%,82.352941%);fill-opacity:1;" d="M 48.347656 55 L 26.917969 55 C 26.765625 55 26.621094 54.929688 26.527344 54.8125 C 26.433594 54.691406 26.398438 54.535156 26.429688 54.390625 L 28.511719 45.386719 C 28.566406 45.160156 28.765625 45 29 45 L 50.46875 45 C 50.621094 45 50.765625 45.070312 50.859375 45.1875 C 50.957031 45.308594 50.988281 45.464844 50.957031 45.613281 L 48.832031 54.613281 C 48.78125 54.839844 48.578125 55 48.347656 55 Z M 48.347656 55 "/>
<path style=" stroke:none;fill-rule:nonzero;fill:rgb(12.156863%,12.941176%,16.862745%);fill-opacity:1;" d="M 76 80 L 15 80 C 14.449219 80 14 79.554688 14 79 L 14 26 C 14 22.691406 16.691406 20 20 20 L 45 20 C 48.308594 20 51 22.691406 51 26 L 51 29 L 75 29 C 76.652344 29 78 30.347656 78 32 L 78 39 L 85 39 C 85.304688 39 85.59375 39.140625 85.78125 39.378906 C 85.972656 39.617188 86.042969 39.929688 85.976562 40.226562 L 76.976562 79.226562 C 76.871094 79.679688 76.464844 80 76 80 Z M 16 78 L 75.203125 78 L 83.742188 41 L 23.796875 41 L 16 74.78125 Z M 20 22 C 17.792969 22 16 23.792969 16 26 L 16 65.886719 L 22.023438 39.777344 C 22.128906 39.320312 22.535156 39 23 39 L 76 39 L 76 32 C 76 31.449219 75.550781 31 75 31 L 50 31 C 49.449219 31 49 30.554688 49 30 L 49 26 C 49 23.792969 47.207031 22 45 22 Z M 20 22 "/>
<path style=" stroke:none;fill-rule:nonzero;fill:rgb(12.156863%,12.941176%,16.862745%);fill-opacity:1;" d="M 46.5 30 C 46.222656 30 46 29.777344 46 29.5 L 46 26 C 46 25.449219 45.550781 25 45 25 L 44.5 25 C 44.222656 25 44 24.777344 44 24.5 C 44 24.222656 44.222656 24 44.5 24 L 45 24 C 46.101562 24 47 24.898438 47 26 L 47 29.5 C 47 29.777344 46.777344 30 46.5 30 Z M 41.5 25 L 39.5 25 C 39.222656 25 39 24.777344 39 24.5 C 39 24.222656 39.222656 24 39.5 24 L 41.5 24 C 41.777344 24 42 24.222656 42 24.5 C 42 24.777344 41.777344 25 41.5 25 Z M 18.5 34 C 18.222656 34 18 33.777344 18 33.5 L 18 26 C 18 24.898438 18.898438 24 20 24 L 36.5 24 C 36.777344 24 37 24.222656 37 24.5 C 37 24.777344 36.777344 25 36.5 25 L 20 25 C 19.449219 25 19 25.449219 19 26 L 19 33.5 C 19 33.777344 18.777344 34 18.5 34 Z M 18.5 34 "/>
<path style=" stroke:none;fill-rule:nonzero;fill:rgb(12.156863%,12.941176%,16.862745%);fill-opacity:1;" d="M 48.347656 55 L 26.917969 55 C 26.765625 55 26.621094 54.929688 26.527344 54.8125 C 26.433594 54.691406 26.398438 54.535156 26.429688 54.390625 L 28.511719 45.386719 C 28.566406 45.160156 28.765625 45 29 45 L 40.5 45 C 40.777344 45 41 45.222656 41 45.5 C 41 45.773438 40.777344 45.996094 40.5 45.996094 L 29.398438 45.996094 L 27.546875 54.003906 L 47.949219 54.003906 L 49.835938 45.996094 L 48 45.996094 C 47.722656 45.996094 47.5 45.773438 47.5 45.5 C 47.5 45.222656 47.722656 45 48 45 L 50.46875 45 C 50.621094 45 50.765625 45.070312 50.859375 45.1875 C 50.957031 45.308594 50.988281 45.464844 50.957031 45.613281 L 48.832031 54.613281 C 48.78125 54.839844 48.578125 55 48.347656 55 Z M 48.347656 55 "/>
<path style=" stroke:none;fill-rule:nonzero;fill:rgb(12.156863%,12.941176%,16.862745%);fill-opacity:1;" d="M 45.5 46 L 43.5 46 C 43.222656 46 43 45.777344 43 45.5 C 43 45.222656 43.222656 45 43.5 45 L 45.5 45 C 45.777344 45 46 45.222656 46 45.5 C 46 45.777344 45.777344 46 45.5 46 Z M 45.5 46 "/>
</g>
</svg>
