<?xml version="1.0" encoding="UTF-8"?>
<svg xmlns="http://www.w3.org/2000/svg" xmlns:xlink="http://www.w3.org/1999/xlink" width="100pt" height="100pt" viewBox="0 0 100 100" version="1.1">
<g id="surface407">
<path style=" stroke:none;fill-rule:nonzero;fill:rgb(69.803922%,69.411765%,76.078431%);fill-opacity:1;" d="M 73 80 L 27 80 C 20.925781 80 16 75.074219 16 69 L 16 31 C 16 24.925781 20.925781 20 27 20 L 73 20 C 79.074219 20 84 24.925781 84 31 L 84 69 C 84 75.074219 79.074219 80 73 80 Z M 73 80 "/>
<path style=" stroke:none;fill-rule:nonzero;fill:rgb(76.862745%,90.588235%,92.941176%);fill-opacity:1;" d="M 73 76 L 27 76 C 23.132812 76 20 72.867188 20 69 L 20 31 C 20 27.132812 23.132812 24 27 24 L 73 24 C 76.867188 24 80 27.132812 80 31 L 80 69 C 80 72.867188 76.867188 76 73 76 Z M 73 76 "/>
<path style=" stroke:none;fill-rule:nonzero;fill:rgb(12.156863%,12.941176%,16.862745%);fill-opacity:1;" d="M 73 81 L 27 81 C 20.382812 81 15 75.617188 15 69 L 15 31 C 15 24.382812 20.382812 19 27 19 L 73 19 C 79.617188 19 85 24.382812 85 31 L 85 69 C 85 75.617188 79.617188 81 73 81 Z M 27 21 C 21.484375 21 17 25.484375 17 31 L 17 69 C 17 74.515625 21.484375 79 27 79 L 73 79 C 78.515625 79 83 74.515625 83 69 L 83 31 C 83 25.484375 78.515625 21 73 21 Z M 27 21 "/>
<path style=" stroke:none;fill-rule:nonzero;fill:rgb(32.156863%,74.509804%,62.745098%);fill-opacity:1;" d="M 79.5 69 L 79.5 64.5 L 66.207031 51.207031 C 65.734375 50.734375 65.117188 50.5 64.5 50.5 C 63.882812 50.5 63.265625 50.734375 62.792969 51.207031 L 38.5 75.5 L 73 75.5 C 76.589844 75.5 79.5 72.589844 79.5 69 Z M 79.5 69 "/>
<path style=" stroke:none;fill-rule:nonzero;fill:rgb(12.156863%,12.941176%,16.862745%);fill-opacity:1;" d="M 73 76 L 38.5 76 C 38.296875 76 38.113281 75.878906 38.039062 75.691406 C 37.960938 75.503906 38.003906 75.289062 38.144531 75.144531 L 62.441406 50.851562 C 63.539062 49.753906 65.460938 49.753906 66.558594 50.851562 L 79.851562 64.144531 C 79.945312 64.238281 80 64.367188 80 64.5 L 80 69 C 80 72.859375 76.859375 76 73 76 Z M 39.707031 75 L 73 75 C 76.308594 75 79 72.308594 79 69 L 79 64.707031 L 65.851562 51.558594 C 65.132812 50.839844 63.867188 50.839844 63.148438 51.558594 Z M 39.707031 75 "/>
<path style=" stroke:none;fill-rule:nonzero;fill:rgb(0%,65.098039%,65.098039%);fill-opacity:1;" d="M 27 75.5 L 67.5 75.5 L 36.207031 44.207031 C 35.734375 43.734375 35.117188 43.5 34.5 43.5 C 33.882812 43.5 33.265625 43.734375 32.792969 44.207031 L 20.5 56.5 L 20.5 69 C 20.5 72.589844 23.410156 75.5 27 75.5 Z M 27 75.5 "/>
<path style=" stroke:none;fill-rule:nonzero;fill:rgb(12.156863%,12.941176%,16.862745%);fill-opacity:1;" d="M 67.5 76 L 27 76 C 23.140625 76 20 72.859375 20 69 L 20 56.5 C 20 56.367188 20.054688 56.238281 20.144531 56.144531 L 32.441406 43.851562 C 33.539062 42.753906 35.460938 42.753906 36.558594 43.851562 L 67.851562 75.144531 C 67.996094 75.289062 68.039062 75.503906 67.960938 75.691406 C 67.886719 75.878906 67.703125 76 67.5 76 Z M 21 56.707031 L 21 69 C 21 72.308594 23.691406 75 27 75 L 66.292969 75 L 35.851562 44.558594 C 35.132812 43.839844 33.867188 43.839844 33.148438 44.558594 Z M 21 56.707031 "/>
<path style=" stroke:none;fill-rule:nonzero;fill:rgb(12.156863%,12.941176%,16.862745%);fill-opacity:1;" d="M 73 76 L 27 76 C 23.140625 76 20 72.859375 20 69 L 20 31 C 20 27.140625 23.140625 24 27 24 L 68.5 24 C 68.777344 24 69 24.222656 69 24.5 C 69 24.777344 68.777344 25 68.5 25 L 27 25 C 23.691406 25 21 27.691406 21 31 L 21 69 C 21 72.308594 23.691406 75 27 75 L 73 75 C 76.308594 75 79 72.308594 79 69 L 79 53.5 C 79 53.222656 79.222656 53 79.5 53 C 79.777344 53 80 53.222656 80 53.5 L 80 69 C 80 72.859375 76.859375 76 73 76 Z M 73 76 "/>
<path style=" stroke:none;fill-rule:nonzero;fill:rgb(12.156863%,12.941176%,16.862745%);fill-opacity:1;" d="M 79.5 44 C 79.222656 44 79 43.777344 79 43.5 L 79 41.5 C 79 41.222656 79.222656 41 79.5 41 C 79.777344 41 80 41.222656 80 41.5 L 80 43.5 C 80 43.777344 79.777344 44 79.5 44 Z M 79.5 44 "/>
<path style=" stroke:none;fill-rule:nonzero;fill:rgb(12.156863%,12.941176%,16.862745%);fill-opacity:1;" d="M 79.5 51 C 79.222656 51 79 50.777344 79 50.5 L 79 46.5 C 79 46.222656 79.222656 46 79.5 46 C 79.777344 46 80 46.222656 80 46.5 L 80 50.5 C 80 50.777344 79.777344 51 79.5 51 Z M 79.5 51 "/>
<path style=" stroke:none;fill-rule:nonzero;fill:rgb(97.647059%,90.196078%,36.078431%);fill-opacity:1;" d="M 71.5 37.5 C 71.5 40.261719 69.261719 42.5 66.5 42.5 C 63.738281 42.5 61.5 40.261719 61.5 37.5 C 61.5 34.738281 63.738281 32.5 66.5 32.5 C 69.261719 32.5 71.5 34.738281 71.5 37.5 Z M 71.5 37.5 "/>
<path style=" stroke:none;fill-rule:nonzero;fill:rgb(12.156863%,12.941176%,16.862745%);fill-opacity:1;" d="M 66.5 43 C 63.46875 43 61 40.53125 61 37.5 C 61 34.46875 63.46875 32 66.5 32 C 69.53125 32 72 34.46875 72 37.5 C 72 40.53125 69.53125 43 66.5 43 Z M 66.5 33 C 64.019531 33 62 35.019531 62 37.5 C 62 39.980469 64.019531 42 66.5 42 C 68.980469 42 71 39.980469 71 37.5 C 71 35.019531 68.980469 33 66.5 33 Z M 66.5 33 "/>
</g>
</svg>
