<?xml version="1.0" encoding="UTF-8"?>
<svg xmlns="http://www.w3.org/2000/svg" xmlns:xlink="http://www.w3.org/1999/xlink" width="100pt" height="100pt" viewBox="0 0 100 100" version="1.1">
<g id="surface21617">
<path style=" stroke:none;fill-rule:nonzero;fill:rgb(99.607843%,99.215686%,93.72549%);fill-opacity:1;" d="M 83.574219 29.554688 C 75.699219 21.679688 71.203125 17.183594 63.328125 9.308594 L 31.308594 9.308594 C 26.503906 9.308594 22.574219 13.238281 22.574219 18.039062 L 22.574219 79.574219 C 22.574219 84.378906 26.503906 88.304688 31.308594 88.304688 L 74.84375 88.304688 C 79.644531 88.304688 83.574219 84.375 83.574219 79.574219 Z M 83.574219 29.554688 "/>
<path style=" stroke:none;fill-rule:nonzero;fill:rgb(12.156863%,12.941176%,16.862745%);fill-opacity:1;" d="M 74.84375 89.308594 L 31.308594 89.308594 C 25.941406 89.308594 21.574219 84.941406 21.574219 79.574219 L 21.574219 18.039062 C 21.574219 12.671875 25.941406 8.308594 31.308594 8.308594 L 63.328125 8.308594 C 63.59375 8.308594 63.847656 8.414062 64.035156 8.601562 L 84.28125 28.847656 C 84.46875 29.035156 84.574219 29.289062 84.574219 29.554688 L 84.574219 79.574219 C 84.574219 84.941406 80.210938 89.308594 74.84375 89.308594 Z M 31.308594 10.308594 C 27.042969 10.308594 23.574219 13.777344 23.574219 18.039062 L 23.574219 79.574219 C 23.574219 83.839844 27.042969 87.304688 31.308594 87.304688 L 74.84375 87.304688 C 79.105469 87.304688 82.574219 83.835938 82.574219 79.574219 L 82.574219 29.96875 L 62.914062 10.308594 Z M 31.308594 10.308594 "/>
<path style=" stroke:none;fill-rule:nonzero;fill:rgb(99.607843%,96.470588%,66.666667%);fill-opacity:1;" d="M 63.074219 9.808594 L 63.074219 20.792969 C 63.074219 25.75 67.132812 29.808594 72.089844 29.808594 L 84.074219 29.808594 "/>
<path style=" stroke:none;fill-rule:nonzero;fill:rgb(12.156863%,12.941176%,16.862745%);fill-opacity:1;" d="M 84.074219 30.308594 L 72.089844 30.308594 C 66.84375 30.308594 62.574219 26.039062 62.574219 20.792969 L 62.574219 9.808594 C 62.574219 9.53125 62.796875 9.308594 63.074219 9.308594 C 63.351562 9.308594 63.574219 9.53125 63.574219 9.808594 L 63.574219 20.792969 C 63.574219 25.488281 67.394531 29.308594 72.089844 29.308594 L 84.074219 29.308594 C 84.351562 29.308594 84.574219 29.53125 84.574219 29.808594 C 84.574219 30.082031 84.351562 30.308594 84.074219 30.308594 Z M 78.074219 48.308594 C 77.800781 48.308594 77.574219 48.082031 77.574219 47.808594 L 77.574219 44.808594 C 77.574219 44.53125 77.800781 44.308594 78.074219 44.308594 C 78.351562 44.308594 78.574219 44.53125 78.574219 44.808594 L 78.574219 47.808594 C 78.574219 48.082031 78.351562 48.308594 78.074219 48.308594 Z M 78.074219 56.308594 C 77.800781 56.308594 77.574219 56.082031 77.574219 55.808594 L 77.574219 49.808594 C 77.574219 49.53125 77.800781 49.308594 78.074219 49.308594 C 78.351562 49.308594 78.574219 49.53125 78.574219 49.808594 L 78.574219 55.808594 C 78.574219 56.082031 78.351562 56.308594 78.074219 56.308594 Z M 70.917969 83.308594 L 35.234375 83.308594 C 31.011719 83.308594 27.574219 79.855469 27.574219 75.617188 L 27.574219 22.953125 C 27.574219 20.496094 28.769531 18.164062 30.769531 16.71875 C 32.078125 15.769531 33.621094 15.265625 35.234375 15.265625 C 35.507812 15.265625 35.734375 15.488281 35.734375 15.765625 C 35.734375 16.042969 35.507812 16.265625 35.234375 16.265625 C 33.835938 16.265625 32.492188 16.703125 31.355469 17.527344 C 29.613281 18.789062 28.574219 20.816406 28.574219 22.957031 L 28.574219 75.617188 C 28.574219 79.308594 31.5625 82.308594 35.234375 82.308594 L 70.917969 82.308594 C 74.589844 82.308594 77.574219 79.308594 77.574219 75.617188 L 77.574219 57.808594 C 77.574219 57.53125 77.800781 57.308594 78.074219 57.308594 C 78.351562 57.308594 78.574219 57.53125 78.574219 57.808594 L 78.574219 75.617188 C 78.574219 79.855469 75.140625 83.308594 70.917969 83.308594 Z M 70.917969 83.308594 "/>
<path style=" stroke:none;fill-rule:nonzero;fill:rgb(70.196078%,88.235294%,90.196078%);fill-opacity:1;" d="M 69.140625 76.808594 L 38.007812 76.808594 C 35.84375 76.808594 34.074219 75.035156 34.074219 72.875 L 34.074219 40.742188 C 34.074219 38.578125 35.84375 36.808594 38.007812 36.808594 L 69.140625 36.808594 C 71.304688 36.808594 73.074219 38.578125 73.074219 40.742188 L 73.074219 72.875 C 73.074219 75.035156 71.304688 76.808594 69.140625 76.808594 Z M 69.140625 76.808594 "/>
<path style=" stroke:none;fill-rule:nonzero;fill:rgb(12.156863%,12.941176%,16.862745%);fill-opacity:1;" d="M 69.140625 77.308594 L 38.007812 77.308594 C 35.5625 77.308594 33.574219 75.316406 33.574219 72.871094 L 33.574219 40.742188 C 33.574219 38.296875 35.5625 36.308594 38.007812 36.308594 L 69.140625 36.308594 C 71.585938 36.308594 73.574219 38.296875 73.574219 40.742188 L 73.574219 72.875 C 73.574219 75.316406 71.585938 77.308594 69.140625 77.308594 Z M 38.007812 37.308594 C 36.113281 37.308594 34.574219 38.847656 34.574219 40.742188 L 34.574219 72.875 C 34.574219 74.765625 36.113281 76.308594 38.007812 76.308594 L 69.140625 76.308594 C 71.035156 76.308594 72.574219 74.765625 72.574219 72.875 L 72.574219 40.742188 C 72.574219 38.847656 71.035156 37.308594 69.140625 37.308594 Z M 38.007812 37.308594 "/>
<path style=" stroke:none;fill-rule:nonzero;fill:rgb(97.647059%,90.196078%,36.078431%);fill-opacity:1;" d="M 45.574219 39.808594 C 42.539062 39.808594 40.074219 42.269531 40.074219 45.308594 C 40.074219 48.34375 42.539062 50.808594 45.574219 50.808594 C 48.613281 50.808594 51.074219 48.34375 51.074219 45.308594 C 51.074219 42.269531 48.613281 39.808594 45.574219 39.808594 Z M 45.574219 39.808594 "/>
<path style=" stroke:none;fill-rule:nonzero;fill:rgb(12.156863%,12.941176%,16.862745%);fill-opacity:1;" d="M 45.574219 51.308594 C 42.265625 51.308594 39.574219 48.617188 39.574219 45.308594 C 39.574219 41.996094 42.265625 39.308594 45.574219 39.308594 C 48.882812 39.308594 51.574219 41.996094 51.574219 45.308594 C 51.574219 48.617188 48.882812 51.308594 45.574219 51.308594 Z M 45.574219 40.308594 C 42.816406 40.308594 40.574219 42.550781 40.574219 45.308594 C 40.574219 48.0625 42.816406 50.308594 45.574219 50.308594 C 48.332031 50.308594 50.574219 48.0625 50.574219 45.308594 C 50.574219 42.550781 48.332031 40.308594 45.574219 40.308594 Z M 45.574219 40.308594 "/>
<path style=" stroke:none;fill-rule:nonzero;fill:rgb(0%,65.490196%,65.490196%);fill-opacity:1;" d="M 34.074219 67.335938 L 43.402344 56.789062 L 50.949219 67.199219 L 44.824219 76.808594 L 37.589844 76.726562 C 37.589844 76.726562 34.074219 76.132812 34.074219 72.730469 C 34.074219 69.324219 34.074219 67.335938 34.074219 67.335938 Z M 34.074219 67.335938 "/>
<path style=" stroke:none;fill-rule:nonzero;fill:rgb(12.156863%,12.941176%,16.862745%);fill-opacity:1;" d="M 44.824219 77.308594 C 44.824219 77.308594 44.820312 77.308594 44.820312 77.308594 L 37.585938 77.226562 C 36.148438 76.992188 33.574219 75.757812 33.574219 72.730469 L 33.574219 67.335938 C 33.574219 67.210938 33.621094 67.09375 33.699219 67.003906 L 43.03125 56.457031 C 43.128906 56.34375 43.273438 56.273438 43.429688 56.289062 C 43.578125 56.296875 43.71875 56.371094 43.808594 56.496094 L 51.355469 66.90625 C 51.476562 67.070312 51.480469 67.292969 51.371094 67.46875 L 45.246094 77.078125 C 45.15625 77.222656 44.996094 77.308594 44.824219 77.308594 Z M 34.574219 67.523438 L 34.574219 72.730469 C 34.574219 75.679688 37.546875 76.214844 37.675781 76.234375 L 44.554688 76.304688 L 50.347656 67.214844 L 43.367188 57.585938 Z M 34.574219 67.523438 "/>
<path style=" stroke:none;fill-rule:nonzero;fill:rgb(0%,65.490196%,65.490196%);fill-opacity:1;" d="M 72.949219 64.058594 L 63.011719 49.382812 L 44.890625 76.808594 L 69.140625 76.808594 C 71.304688 76.808594 73.074219 75.035156 73.074219 72.875 L 73.074219 64.074219 Z M 72.949219 64.058594 "/>
<path style=" stroke:none;fill-rule:nonzero;fill:rgb(12.156863%,12.941176%,16.862745%);fill-opacity:1;" d="M 69.140625 77.308594 L 44.886719 77.308594 C 44.703125 77.308594 44.535156 77.207031 44.449219 77.042969 C 44.363281 76.882812 44.371094 76.683594 44.472656 76.53125 L 62.59375 49.105469 C 62.6875 48.964844 62.886719 48.894531 63.011719 48.882812 C 63.179688 48.882812 63.332031 48.964844 63.425781 49.101562 L 73.246094 63.605469 C 73.441406 63.675781 73.574219 63.863281 73.574219 64.074219 L 73.574219 72.875 C 73.574219 75.316406 71.585938 77.308594 69.140625 77.308594 Z M 45.816406 76.308594 L 69.140625 76.308594 C 71.035156 76.308594 72.574219 74.765625 72.574219 72.871094 L 72.574219 64.386719 C 72.5625 64.371094 72.550781 64.355469 72.535156 64.335938 L 63.015625 50.28125 Z M 45.816406 76.308594 "/>
</g>
</svg>
