<?xml version="1.0" encoding="UTF-8"?>
<svg xmlns="http://www.w3.org/2000/svg" xmlns:xlink="http://www.w3.org/1999/xlink" width="100pt" height="100pt" viewBox="0 0 100 100" version="1.1">
<g id="surface21222">
<path style=" stroke:none;fill-rule:nonzero;fill:rgb(63.921569%,63.921569%,80.392157%);fill-opacity:1;" d="M 70.921875 82.921875 L 29.921875 82.921875 C 23.320312 82.921875 17.921875 77.519531 17.921875 70.921875 L 17.921875 29.921875 C 17.921875 23.320312 23.320312 17.921875 29.921875 17.921875 L 70.921875 17.921875 C 77.519531 17.921875 82.921875 23.320312 82.921875 29.921875 L 82.921875 70.921875 C 82.921875 77.519531 77.519531 82.921875 70.921875 82.921875 Z M 70.921875 82.921875 "/>
<path style=" stroke:none;fill-rule:nonzero;fill:rgb(0%,0%,0%);fill-opacity:1;" d="M 70.921875 83.921875 L 29.921875 83.921875 C 22.753906 83.921875 16.921875 78.089844 16.921875 70.921875 L 16.921875 29.921875 C 16.921875 22.753906 22.753906 16.921875 29.921875 16.921875 L 70.921875 16.921875 C 78.089844 16.921875 83.921875 22.753906 83.921875 29.921875 L 83.921875 70.921875 C 83.921875 78.089844 78.089844 83.921875 70.921875 83.921875 Z M 29.921875 18.921875 C 23.855469 18.921875 18.921875 23.855469 18.921875 29.921875 L 18.921875 70.921875 C 18.921875 76.984375 23.855469 81.921875 29.921875 81.921875 L 70.921875 81.921875 C 76.984375 81.921875 81.921875 76.984375 81.921875 70.921875 L 81.921875 29.921875 C 81.921875 23.855469 76.984375 18.921875 70.921875 18.921875 Z M 29.921875 18.921875 "/>
<path style=" stroke:none;fill-rule:nonzero;fill:rgb(63.921569%,63.921569%,80.392157%);fill-opacity:1;" d="M 78.421875 48.421875 L 78.421875 67.734375 C 78.421875 73.613281 73.613281 78.421875 67.734375 78.421875 L 33.105469 78.421875 C 27.230469 78.421875 22.421875 73.613281 22.421875 67.734375 L 22.421875 33.105469 C 22.421875 27.230469 27.230469 22.421875 33.105469 22.421875 L 68.421875 22.421875 "/>
<path style=" stroke:none;fill-rule:nonzero;fill:rgb(0%,0%,0%);fill-opacity:1;" d="M 67.734375 78.921875 L 33.105469 78.921875 C 26.9375 78.921875 21.921875 73.902344 21.921875 67.734375 L 21.921875 33.105469 C 21.921875 26.9375 26.9375 21.921875 33.105469 21.921875 L 68.421875 21.921875 C 68.695312 21.921875 68.921875 22.144531 68.921875 22.421875 C 68.921875 22.695312 68.695312 22.921875 68.421875 22.921875 L 33.105469 22.921875 C 27.492188 22.921875 22.921875 27.488281 22.921875 33.105469 L 22.921875 67.734375 C 22.921875 73.351562 27.488281 77.921875 33.105469 77.921875 L 67.734375 77.921875 C 73.351562 77.921875 77.921875 73.351562 77.921875 67.734375 L 77.921875 48.421875 C 77.921875 48.144531 78.144531 47.921875 78.421875 47.921875 C 78.699219 47.921875 78.921875 48.144531 78.921875 48.421875 L 78.921875 67.734375 C 78.921875 73.902344 73.902344 78.921875 67.734375 78.921875 Z M 78.421875 45.921875 C 78.144531 45.921875 77.921875 45.695312 77.921875 45.421875 L 77.921875 41.421875 C 77.921875 41.144531 78.144531 40.921875 78.421875 40.921875 C 78.695312 40.921875 78.921875 41.144531 78.921875 41.421875 L 78.921875 45.421875 C 78.921875 45.699219 78.699219 45.921875 78.421875 45.921875 Z M 78.421875 39.921875 C 78.144531 39.921875 77.921875 39.695312 77.921875 39.421875 L 77.921875 37.421875 C 77.921875 37.144531 78.144531 36.921875 78.421875 36.921875 C 78.695312 36.921875 78.921875 37.144531 78.921875 37.421875 L 78.921875 39.421875 C 78.921875 39.699219 78.699219 39.921875 78.421875 39.921875 Z M 78.421875 39.921875 "/>
<path style=" stroke:none;fill-rule:nonzero;fill:rgb(0%,0%,0%);fill-opacity:1;" d="M 50.421875 63.921875 C 50.144531 63.921875 49.921875 63.695312 49.921875 63.421875 L 49.921875 29.421875 C 49.921875 29.144531 50.144531 28.921875 50.421875 28.921875 C 50.695312 28.921875 50.921875 29.144531 50.921875 29.421875 L 50.921875 63.421875 C 50.921875 63.699219 50.699219 63.921875 50.421875 63.921875 Z M 50.421875 72.921875 C 50.144531 72.921875 49.921875 72.695312 49.921875 72.421875 L 49.921875 65.421875 C 49.921875 65.144531 50.144531 64.921875 50.421875 64.921875 C 50.695312 64.921875 50.921875 65.144531 50.921875 65.421875 L 50.921875 72.421875 C 50.921875 72.699219 50.699219 72.921875 50.421875 72.921875 Z M 32.421875 38.921875 C 32.144531 38.921875 31.921875 38.695312 31.921875 38.421875 L 31.921875 29.421875 C 31.921875 29.144531 32.144531 28.921875 32.421875 28.921875 C 32.695312 28.921875 32.921875 29.144531 32.921875 29.421875 L 32.921875 38.421875 C 32.921875 38.699219 32.699219 38.921875 32.421875 38.921875 Z M 32.421875 72.921875 C 32.144531 72.921875 31.921875 72.695312 31.921875 72.421875 L 31.921875 40.421875 C 31.921875 40.144531 32.144531 39.921875 32.421875 39.921875 C 32.695312 39.921875 32.921875 40.144531 32.921875 40.421875 L 32.921875 72.421875 C 32.921875 72.699219 32.699219 72.921875 32.421875 72.921875 Z M 41.421875 50.921875 C 41.144531 50.921875 40.921875 50.695312 40.921875 50.421875 L 40.921875 29.421875 C 40.921875 29.144531 41.144531 28.921875 41.421875 28.921875 C 41.695312 28.921875 41.921875 29.144531 41.921875 29.421875 L 41.921875 50.421875 C 41.921875 50.699219 41.699219 50.921875 41.421875 50.921875 Z M 41.421875 72.921875 C 41.144531 72.921875 40.921875 72.695312 40.921875 72.421875 L 40.921875 52.421875 C 40.921875 52.144531 41.144531 51.921875 41.421875 51.921875 C 41.695312 51.921875 41.921875 52.144531 41.921875 52.421875 L 41.921875 72.421875 C 41.921875 72.699219 41.699219 72.921875 41.421875 72.921875 Z M 41.421875 72.921875 "/>
<path style=" stroke:none;fill-rule:nonzero;fill:rgb(33.72549%,37.254902%,63.137255%);fill-opacity:1;" d="M 32.421875 32.421875 C 30.765625 32.421875 29.421875 33.765625 29.421875 35.421875 C 29.421875 37.078125 30.765625 38.421875 32.421875 38.421875 C 34.078125 38.421875 35.421875 37.078125 35.421875 35.421875 C 35.421875 33.765625 34.078125 32.421875 32.421875 32.421875 Z M 32.421875 32.421875 "/>
<path style=" stroke:none;fill-rule:nonzero;fill:rgb(0%,0%,0%);fill-opacity:1;" d="M 32.421875 38.921875 C 30.492188 38.921875 28.921875 37.351562 28.921875 35.421875 C 28.921875 33.492188 30.492188 31.921875 32.421875 31.921875 C 34.351562 31.921875 35.921875 33.492188 35.921875 35.421875 C 35.921875 37.351562 34.351562 38.921875 32.421875 38.921875 Z M 32.421875 32.921875 C 31.042969 32.921875 29.921875 34.042969 29.921875 35.421875 C 29.921875 36.800781 31.042969 37.921875 32.421875 37.921875 C 33.800781 37.921875 34.921875 36.800781 34.921875 35.421875 C 34.921875 34.042969 33.800781 32.921875 32.421875 32.921875 Z M 32.421875 32.921875 "/>
<path style=" stroke:none;fill-rule:nonzero;fill:rgb(33.72549%,37.254902%,63.137255%);fill-opacity:1;" d="M 41.421875 44.421875 C 39.765625 44.421875 38.421875 45.765625 38.421875 47.421875 C 38.421875 49.078125 39.765625 50.421875 41.421875 50.421875 C 43.078125 50.421875 44.421875 49.078125 44.421875 47.421875 C 44.421875 45.765625 43.078125 44.421875 41.421875 44.421875 Z M 41.421875 44.421875 "/>
<path style=" stroke:none;fill-rule:nonzero;fill:rgb(0%,0%,0%);fill-opacity:1;" d="M 41.421875 50.921875 C 39.492188 50.921875 37.921875 49.351562 37.921875 47.421875 C 37.921875 45.492188 39.492188 43.921875 41.421875 43.921875 C 43.351562 43.921875 44.921875 45.492188 44.921875 47.421875 C 44.921875 49.351562 43.351562 50.921875 41.421875 50.921875 Z M 41.421875 44.921875 C 40.042969 44.921875 38.921875 46.042969 38.921875 47.421875 C 38.921875 48.800781 40.042969 49.921875 41.421875 49.921875 C 42.800781 49.921875 43.921875 48.800781 43.921875 47.421875 C 43.921875 46.042969 42.800781 44.921875 41.421875 44.921875 Z M 41.421875 44.921875 "/>
<path style=" stroke:none;fill-rule:nonzero;fill:rgb(33.72549%,37.254902%,63.137255%);fill-opacity:1;" d="M 50.421875 57.421875 C 48.765625 57.421875 47.421875 58.765625 47.421875 60.421875 C 47.421875 62.078125 48.765625 63.421875 50.421875 63.421875 C 52.078125 63.421875 53.421875 62.078125 53.421875 60.421875 C 53.421875 58.765625 52.078125 57.421875 50.421875 57.421875 Z M 50.421875 57.421875 "/>
<path style=" stroke:none;fill-rule:nonzero;fill:rgb(0%,0%,0%);fill-opacity:1;" d="M 50.421875 63.921875 C 48.492188 63.921875 46.921875 62.351562 46.921875 60.421875 C 46.921875 58.492188 48.492188 56.921875 50.421875 56.921875 C 52.351562 56.921875 53.921875 58.492188 53.921875 60.421875 C 53.921875 62.351562 52.351562 63.921875 50.421875 63.921875 Z M 50.421875 57.921875 C 49.042969 57.921875 47.921875 59.042969 47.921875 60.421875 C 47.921875 61.800781 49.042969 62.921875 50.421875 62.921875 C 51.800781 62.921875 52.921875 61.800781 52.921875 60.421875 C 52.921875 59.042969 51.800781 57.921875 50.421875 57.921875 Z M 50.421875 57.921875 "/>
<path style=" stroke:none;fill-rule:nonzero;fill:rgb(0%,0%,0%);fill-opacity:1;" d="M 67.421875 38.921875 C 67.144531 38.921875 66.921875 38.695312 66.921875 38.421875 L 66.921875 29.421875 C 66.921875 29.144531 67.144531 28.921875 67.421875 28.921875 C 67.695312 28.921875 67.921875 29.144531 67.921875 29.421875 L 67.921875 38.421875 C 67.921875 38.699219 67.699219 38.921875 67.421875 38.921875 Z M 67.421875 72.921875 C 67.144531 72.921875 66.921875 72.695312 66.921875 72.421875 L 66.921875 40.421875 C 66.921875 40.144531 67.144531 39.921875 67.421875 39.921875 C 67.695312 39.921875 67.921875 40.144531 67.921875 40.421875 L 67.921875 72.421875 C 67.921875 72.699219 67.699219 72.921875 67.421875 72.921875 Z M 67.421875 72.921875 "/>
<path style=" stroke:none;fill-rule:nonzero;fill:rgb(0%,0%,0%);fill-opacity:1;" d="M 58.421875 50.921875 C 58.144531 50.921875 57.921875 50.695312 57.921875 50.421875 L 57.921875 29.421875 C 57.921875 29.144531 58.144531 28.921875 58.421875 28.921875 C 58.695312 28.921875 58.921875 29.144531 58.921875 29.421875 L 58.921875 50.421875 C 58.921875 50.699219 58.699219 50.921875 58.421875 50.921875 Z M 58.421875 72.921875 C 58.144531 72.921875 57.921875 72.695312 57.921875 72.421875 L 57.921875 52.421875 C 57.921875 52.144531 58.144531 51.921875 58.421875 51.921875 C 58.695312 51.921875 58.921875 52.144531 58.921875 52.421875 L 58.921875 72.421875 C 58.921875 72.699219 58.699219 72.921875 58.421875 72.921875 Z M 58.421875 72.921875 "/>
<path style=" stroke:none;fill-rule:nonzero;fill:rgb(33.72549%,37.254902%,63.137255%);fill-opacity:1;" d="M 67.421875 32.421875 C 65.765625 32.421875 64.421875 33.765625 64.421875 35.421875 C 64.421875 37.078125 65.765625 38.421875 67.421875 38.421875 C 69.078125 38.421875 70.421875 37.078125 70.421875 35.421875 C 70.421875 33.765625 69.078125 32.421875 67.421875 32.421875 Z M 67.421875 32.421875 "/>
<path style=" stroke:none;fill-rule:nonzero;fill:rgb(0%,0%,0%);fill-opacity:1;" d="M 67.421875 38.921875 C 65.492188 38.921875 63.921875 37.351562 63.921875 35.421875 C 63.921875 33.492188 65.492188 31.921875 67.421875 31.921875 C 69.351562 31.921875 70.921875 33.492188 70.921875 35.421875 C 70.921875 37.351562 69.351562 38.921875 67.421875 38.921875 Z M 67.421875 32.921875 C 66.042969 32.921875 64.921875 34.042969 64.921875 35.421875 C 64.921875 36.800781 66.042969 37.921875 67.421875 37.921875 C 68.800781 37.921875 69.921875 36.800781 69.921875 35.421875 C 69.921875 34.042969 68.800781 32.921875 67.421875 32.921875 Z M 67.421875 32.921875 "/>
<path style=" stroke:none;fill-rule:nonzero;fill:rgb(33.72549%,37.254902%,63.137255%);fill-opacity:1;" d="M 58.421875 44.421875 C 56.765625 44.421875 55.421875 45.765625 55.421875 47.421875 C 55.421875 49.078125 56.765625 50.421875 58.421875 50.421875 C 60.078125 50.421875 61.421875 49.078125 61.421875 47.421875 C 61.421875 45.765625 60.078125 44.421875 58.421875 44.421875 Z M 58.421875 44.421875 "/>
<path style=" stroke:none;fill-rule:nonzero;fill:rgb(0%,0%,0%);fill-opacity:1;" d="M 58.421875 50.921875 C 56.492188 50.921875 54.921875 49.351562 54.921875 47.421875 C 54.921875 45.492188 56.492188 43.921875 58.421875 43.921875 C 60.351562 43.921875 61.921875 45.492188 61.921875 47.421875 C 61.921875 49.351562 60.351562 50.921875 58.421875 50.921875 Z M 58.421875 44.921875 C 57.042969 44.921875 55.921875 46.042969 55.921875 47.421875 C 55.921875 48.800781 57.042969 49.921875 58.421875 49.921875 C 59.800781 49.921875 60.921875 48.800781 60.921875 47.421875 C 60.921875 46.042969 59.800781 44.921875 58.421875 44.921875 Z M 58.421875 44.921875 "/>
</g>
</svg>
