<svg xmlns="http://www.w3.org/2000/svg" version="1.1" viewBox="0 0 3000 2000" width="3000" height="2000">
<defs/><!--ITEM: Illustration component 1--><g transform="translate(275.0 175.0) rotate(0.0 1137.5 725.0)  scale(2.6685903977665952 2.668629796632005)"><svg width="852.51" height="543.35" viewBox="0.0 0.0 852.51 543.35"><title>abstract_background_14</title><path d="M359.26,25.8c-92,10.28-148.86-1.82-240,43.2C5.47,125.26-53.1,371.27,64,493s356.33-18.47,429.74,3.36,264.7,57.47,325-22.67c70.12-93.2,28-322.43-99-420.66C596.76-42.09,426.9,18.24,359.26,25.8Z" style="fill:#fece2f;"/></svg></g><!--ITEM: Illustration component 2--><g transform="translate(470.0 370.0) rotate(0.0 317.5 246.25)  scale(1.2067654884074495 1.2041564792176038)"><svg width="526.2" height="409.0" viewBox="0.0 0.0 526.2 409.0"><g>
	<g>
		<g>
			<path d="M215.3,3.5l-5.5,380.3c0,0-0.1,0-0.1,0c-8.2,0.1-52.4-0.1-60.7-0.1l-6.7,0c3.3-108,3.8-291.3,3.4-380.7     L215.3,3.5z" style="fill:#FECE2F;"/>
		</g>
		<g>
			<path d="M149,386.7l-9.8-0.1l0.1-3.1c3.2-106.7,3.8-290,3.4-380.6l0-3l75.7,0.6l-5.6,385.8l-2.4,0.5     c-0.2,0-0.5,0.1-0.7,0.1C201.3,387,156.2,386.8,149,386.7z M145.4,380.7l3.6,0c8.4,0.1,45.4,0.2,57.8,0.2l5.5-374.4L148.8,6     C149.1,96.7,148.5,274.7,145.4,380.7z M209.6,380.9C209.6,380.9,209.6,380.9,209.6,380.9C209.6,380.9,209.6,380.9,209.6,380.9     C209.6,380.9,209.6,380.9,209.6,380.9z" style="fill:#1A1A1A;"/>
		</g>
	</g>
	<g>
		<g>
			<path d="M145.3,158.2l-4.4,225.3c0,0-0.1,0-0.1,0c-8.2,0.1-52.4-0.2-60.7-0.3l-6.7,0c2.9-63.9,2.9-172.6,2.2-225.5     L145.3,158.2z" style="fill:#FECE2F;"/>
		</g>
		<g>
			<path d="M80.1,386.2l-9.8-0.1l0.1-3.1c2.9-63.1,2.9-171.7,2.2-225.3l0-3.1l75.7,0.6l-4.5,231l-2.6,0.3     c-0.1,0-0.3,0-0.4,0C132.8,386.5,89.3,386.3,80.1,386.2z M76.6,380.2l3.6,0c8.4,0.1,45.4,0.3,57.8,0.3l4.3-219.3l-63.5-0.5     C79.4,214.5,79.3,317.7,76.6,380.2z M140.8,380.5C140.8,380.5,140.8,380.5,140.8,380.5C140.8,380.5,140.8,380.5,140.8,380.5     C140.8,380.5,140.8,380.5,140.8,380.5z" style="fill:#1A1A1A;"/>
		</g>
	</g>
	<g>
		<g>
			<path d="M312.1,31l105.1,322.7c0,0-0.1,0-0.1,0.1c-11.1,4-71.8,24.6-83.1,28.4l-9.2,3.1     c-27.6-92.4-81.2-246.9-108.2-321.9L312.1,31z" style="fill:#FECE2F;"/>
		</g>
		<g>
			<path d="M322.9,389.1l-0.9-3c-27.2-91.3-80.8-245.8-108.1-321.8l-1-2.9L314,27.1l106.9,328l-2.4,1.1     c-0.2,0.1-0.3,0.1-0.5,0.2c-10.9,3.9-70.5,24.2-83.1,28.4L322.9,389.1z M220.5,65.2c27.4,76.1,79.2,225.6,106.3,316.2l6.2-2.1     c11.8-4,64.8-22.1,80.4-27.5l-103.3-317L220.5,65.2z M416.1,350.8C416.1,350.8,416.1,350.8,416.1,350.8     C416.1,350.8,416.1,350.8,416.1,350.8z" style="fill:#1A1A1A;"/>
		</g>
	</g>
	<g>
		<g>
			<circle cx="108.1" cy="263.4" r="24.7" style="fill:#FFFFFF;"/>
		</g>
		<g>
			<path d="M107.9,291.1c-15.3-0.1-27.6-12.6-27.5-27.9c0.1-15.3,12.6-27.6,27.9-27.5s27.6,12.6,27.5,27.9     C135.7,278.9,123.2,291.2,107.9,291.1z M108.3,241.7c-12-0.1-21.8,9.6-21.9,21.5c-0.1,12,9.6,21.8,21.5,21.9s21.8-9.6,21.9-21.5     C129.9,251.6,120.2,241.8,108.3,241.7z" style="fill:#1A1A1A;"/>
		</g>
	</g>
	<g>
		<g>
			
				<rect x="145.8" y="90.3" transform="matrix(1 7.391076e-03 -7.391076e-03 1 0.7647 -1.327)" width="68.2" height="25.1" style="fill:#FECE2F;"/>
		</g>
		<g>
			<path d="M216.9,118.6l-74.2-0.5l0.2-31.1l74.2,0.5L216.9,118.6z M148.8,112.1l62.2,0.5l0.1-19.1L148.9,93     L148.8,112.1z" style="fill:#1A1A1A;"/>
		</g>
	</g>
	<g>
		<g>
			
				<rect x="144.4" y="283.7" transform="matrix(1 7.391076e-03 -7.391076e-03 1 2.1946 -1.3112)" width="68.2" height="25.1" style="fill:#FECE2F;"/>
		</g>
		<g>
			<path d="M215.5,312.1l-74.2-0.5l0.2-31.1l74.2,0.5L215.5,312.1z M147.3,305.6l62.2,0.5l0.1-19.1l-62.2-0.5     L147.3,305.6z" style="fill:#1A1A1A;"/>
		</g>
	</g>
	<g>
		<g>
			<path d="M413.5,354.7c0,0-73.5-2.2-98.6-63.8c-34.1-83.3-93.2-228.2-93.2-228.2l-3.8,1.7l107.1,320.8L413.5,354.7z" style="fill:#1A1A1A;"/>
		</g>
		<g>
			<path d="M323,389L214.1,62.7l9.1-4.1l1.2,2.9c0,0,59.2,144.9,93.2,228.2c24.1,59.1,95.2,61.9,95.9,61.9l16.4,0.5     L323,389z M229.7,90.5l97.1,290.9l73.2-25.2c-7.3-1.2-17-3.5-27.5-7.5c-28.9-11.1-49.8-30.7-60.4-56.6     C287,230.8,248.4,136.2,229.7,90.5z" style="fill:#1A1A1A;"/>
		</g>
	</g>
	<g>
		<g>
			<path d="M478.7,121.5l3.4,264.3c0,0-0.1,0-0.1,0c-8.1,0.2-52.2,0.8-60.3,0.9l-6.6,0.1c0.7-75.1-3.1-202.4-5.6-264.5     L478.7,121.5z" style="fill:#FECE2F;"/>
		</g>
		<g>
			<path d="M412,389.8l0-3.1c0.7-74.1-3.1-201.5-5.6-264.3l-0.1-3.1l75.3-0.9l3.5,269.8l-3.1,0.5     c-8.3,0.2-52.9,0.8-60.4,0.9L412,389.8z M412.6,125.2c2.5,63,6,185.1,5.5,258.5l3.6,0c6.8-0.1,44.7-0.6,57.4-0.8l-3.4-258.3     L412.6,125.2z M482,382.8C482,382.8,482,382.8,482,382.8C482,382.8,482,382.8,482,382.8z" style="fill:#1A1A1A;"/>
		</g>
	</g>
	<g>
		<g>
			
				<rect x="367.6" y="243.7" transform="matrix(7.391076e-03 -1 1 7.391076e-03 187.3841 699.8881)" width="157.2" height="23.7" style="fill:#FECE2F;"/>
		</g>
		<g>
			<path d="M460.5,337.3l-29.7-0.2l1.2-163.2l29.7,0.2L460.5,337.3z M436.8,331.1l17.7,0.1l1.1-151.2l-17.7-0.1     L436.8,331.1z" style="fill:#1A1A1A;"/>
		</g>
	</g>
	<g>
		<g>
			
				<rect x="3.1" y="384.6" transform="matrix(1 7.391076e-03 -7.391076e-03 1 2.9217 -1.9337)" width="520" height="19.5" style="fill:#FECE2F;"/>
		</g>
		<g>
			<path d="M526,409L0,405.1l0.2-25.5l526,3.9L526,409z M6,399.2l514,3.8l0.1-13.5l-514-3.8L6,399.2z" style="fill:#1A1A1A;"/>
		</g>
	</g>
</g>
</svg></g><!--ITEM: Illustration component 3--><g transform="translate(2130.0 375.0) rotate(0.0 262.5 543.75)  scale(2.159196532124732 2.159619192113766)"><svg width="243.146" height="503.561" viewBox="0.0 0.0 243.146 503.561"><g>
    <g>
      <g>
        <path d="M33.568,110.238l26.721-7.428c2.784,9.054,5.407,18.434,7.882,28.074l-32.19,1.583Q34.789,121.663,33.568,110.238Z" style="         fill: #feffff;       "/>
        <path d="M35.98,133.966a1.5,1.5,0,0,1-1.489-1.335q-1.2-10.806-2.415-22.233a1.5,1.5,0,0,1,1.09-1.6l26.721-7.428a1.5,1.5,0,0,1,1.835,1c2.716,8.829,5.375,18.3,7.9,28.142a1.5,1.5,0,0,1-1.379,1.871l-32.19,1.582ZM35.2,111.343q1.071,10.021,2.122,19.556l28.942-1.423c-2.245-8.645-4.587-16.983-6.976-24.829Z" style="         fill: #1a1a1a;       "/>
      </g>
      <g>
        <path d="M29.473,70.8l19.006-1.741c4.236,10.572,8.159,21.884,11.81,33.755l-26.721,7.428C32.231,97.713,30.868,84.6,29.473,70.8Z" style="         fill: #fece2f;       "/>
        <path d="M33.568,111.739a1.5,1.5,0,0,1-1.492-1.341c-1.345-12.6-2.723-25.875-4.1-39.451A1.5,1.5,0,0,1,29.336,69.3l19.006-1.74a1.49,1.49,0,0,1,1.529.937c4.1,10.221,8.083,21.617,11.851,33.871a1.5,1.5,0,0,1-1.031,1.886L33.97,111.684A1.493,1.493,0,0,1,33.568,111.739ZM31.117,72.151c1.258,12.417,2.52,24.567,3.755,36.169L58.4,101.779c-3.482-11.2-7.144-21.664-10.9-31.128Z" style="         fill: #1a1a1a;       "/>
      </g>
      <g>
        <path d="M109.181,402.751c1.22,11.18,9.28,67.6,13.69,98.31H98.331c-.24-.46-.48-.93-.72-1.4-8.29-16.17-15.91-37.99-21.24-57.25a285.8,285.8,0,0,1-6.5-28.4c-.08-.5-.16-.99-.23-1.47-1.37-8.9-2.57-21.01-3.71-33.91-1.24-13.91-2.4-28.75-3.61-41.5-.78-8.31-1.59-15.74-2.44-21.44l10.84-2.11,26.61-5.2,1.35-.26C102.811,342.431,106.131,374.911,109.181,402.751Z" style="         fill: #fece2f;       "/>
        <path d="M122.871,502.561H98.331A1.5,1.5,0,0,1,97,501.755c-.242-.463-.484-.937-.725-1.41-7.5-14.624-15.28-35.6-21.351-57.534a289.026,289.026,0,0,1-6.535-28.557l-.039-.245c-.068-.425-.135-.842-.2-1.252-1.49-9.675-2.77-23.251-3.72-34-.51-5.723-1.007-11.607-1.5-17.437-.718-8.515-1.4-16.557-2.109-24.053-.863-9.191-1.658-16.178-2.43-21.359a1.5,1.5,0,0,1,1.2-1.695l38.8-7.57a1.5,1.5,0,0,1,1.773,1.293c3.013,25.031,5.639,49.491,7.955,71.072.876,8.161,1.722,16.037,2.547,23.574h0c.884,8.1,5.616,42.078,13.684,98.261a1.5,1.5,0,0,1-1.485,1.713Zm-23.626-3H121.14c-7.923-55.194-12.572-88.6-13.45-96.647-.826-7.539-1.672-15.417-2.548-23.581-2.266-21.112-4.828-44.98-7.758-69.434L61.571,316.89c.716,5.068,1.452,11.666,2.244,20.1.712,7.51,1.392,15.56,2.112,24.082.492,5.826.988,11.7,1.5,17.426.946,10.7,2.221,24.211,3.7,33.814.06.408.125.812.191,1.221l.038.241a286.286,286.286,0,0,0,6.465,28.237c6.019,21.752,13.72,42.515,21.129,56.965C99.046,499.172,99.145,499.367,99.245,499.561Z" style="         fill: #1a1a1a;       "/>
      </g>
      <g>
        <path d="M35.981,132.467l32.19-1.583q3.235,12.6,6.14,25.734l-34.7,7.817C38.417,154.2,37.208,143.567,35.981,132.467Z" style="         fill: #fece2f;       "/>
        <path d="M39.611,165.935a1.5,1.5,0,0,1-1.49-1.326c-1.213-10.4-2.435-21.16-3.63-31.978a1.5,1.5,0,0,1,1.417-1.663L68.1,129.386a1.5,1.5,0,0,1,1.527,1.125c2.109,8.216,4.179,16.891,6.152,25.781a1.5,1.5,0,0,1-1.135,1.789L39.94,165.9A1.469,1.469,0,0,1,39.611,165.935Zm-1.963-32.049c1.075,9.705,2.17,19.35,3.26,28.719l31.614-7.122c-1.772-7.923-3.62-15.661-5.5-23.04Z" style="         fill: #1a1a1a;       "/>
      </g>
      <g>
        <path d="M25.877,34.478c-.219-2.253,4.053-3.261,5.247-1.256A231.417,231.417,0,0,1,42.632,55.394L28.153,57.572l14.479-2.178Q45.65,62,48.479,69.055L29.473,70.8C28.3,59.188,27.1,47.108,25.877,34.478Z" style="         fill: #feffff;       "/>
        <path d="M29.471,72.3a1.5,1.5,0,0,1-1.491-1.348c-1.163-11.491-2.373-23.712-3.6-36.324h0a3.632,3.632,0,0,1,2.8-3.707c1.735-.568,4.113-.333,5.226,1.539A233.5,233.5,0,0,1,44,54.771l0,0c2,4.383,3.979,9,5.873,13.724a1.5,1.5,0,0,1-1.255,2.052L29.609,72.29C29.563,72.293,29.516,72.3,29.471,72.3Zm.309-13.45q.522,5.244,1.035,10.321l15.516-1.42c-1.5-3.664-3.036-7.251-4.6-10.7ZM27.37,34.333c.711,7.329,1.417,14.525,2.112,21.523l10.951-1.648a227.173,227.173,0,0,0-10.6-20.218c-.208-.348-1.008-.451-1.714-.222-.467.153-.766.416-.751.565Z" style="         fill: #1a1a1a;       "/>
      </g>
      <g>
        <path d="M49.248,241.264l40.04-2.935q1.835,12.053,3.5,24.072l-40.655-.177,40.655.177c2.146,15.437,4.1,30.751,5.895,45.72l-38.8,7.574C56.219,291.21,52.723,267.07,49.248,241.264Z" style="         fill: #feffff;       "/>
        <path d="M59.885,317.2a1.5,1.5,0,0,1-1.484-1.279c-4.166-27.828-7.547-51.486-10.639-74.452a1.5,1.5,0,0,1,1.376-1.7l40.04-2.935a1.5,1.5,0,0,1,1.593,1.27c1.183,7.774,2.362,15.88,3.5,24.09v0c1.995,14.351,3.924,29.315,5.9,45.747a1.5,1.5,0,0,1-1.2,1.651l-38.8,7.574A1.477,1.477,0,0,1,59.885,317.2ZM53.85,263.732c2.187,15.615,4.569,32.017,7.286,50.19l35.892-7.006c-1.855-15.382-3.673-29.485-5.546-43.021Zm-.42-3,37.635.163c-1-7.13-2.023-14.169-3.052-20.967l-37.065,2.718C51.752,248.6,52.577,254.609,53.43,260.73Z" style="         fill: #1a1a1a;       "/>
      </g>
      <g>
        <path d="M86.076,218.066l-39.165,5.555c-1.052-8.039-2.631-20.855-3.936-31.461-.674-5.43-1.262-10.27-1.683-13.617-.358-2.926-.569-4.693-.569-4.693-.378-3.115-.736-6.25-1.115-9.407l34.7-7.829c1.221,5.451,2.379,10.965,3.515,16.541.568,2.737,1.115,5.494,1.641,8.25C81.845,193.465,84.034,205.733,86.076,218.066Z" style="         fill: #feffff;       "/>
        <path d="M46.911,225.122a1.5,1.5,0,0,1-1.487-1.306c-1.07-8.173-2.727-21.64-3.937-31.473l-.865-7c-.314-2.545-.59-4.8-.818-6.608-.36-2.933-.57-4.7-.57-4.7q-.31-2.559-.611-5.143-.249-2.124-.5-4.262a1.5,1.5,0,0,1,1.159-1.642l34.7-7.83a1.5,1.5,0,0,1,1.794,1.135c1.1,4.907,2.217,10.172,3.521,16.57.547,2.636,1.1,5.42,1.645,8.268,2.264,11.483,4.428,23.49,6.614,36.7a1.5,1.5,0,0,1-1.269,1.73l-39.165,5.556A1.473,1.473,0,0,1,46.911,225.122Zm-5.653-59.513q.174,1.465.345,2.927.3,2.575.609,5.133s.211,1.771.569,4.692c.228,1.809.505,4.063.818,6.61l.865,7c1.138,9.248,2.672,21.709,3.738,29.948L84.344,216.8c-2.1-12.583-4.175-24.08-6.349-35.1-.542-2.841-1.092-5.609-1.638-8.235-1.171-5.75-2.192-10.578-3.183-15.052Z" style="         fill: #1a1a1a;       "/>
      </g>
      <g>
        <path d="M46.909,223.62l39.161-5.559q1.674,10.114,3.218,20.268l-40.04,2.935Q48.078,232.578,46.909,223.62Z" style="         fill: #fece2f;       "/>
        <path d="M49.247,242.764a1.5,1.5,0,0,1-1.485-1.3q-1.171-8.69-2.34-17.651a1.5,1.5,0,0,1,1.276-1.679l39.161-5.558a1.5,1.5,0,0,1,1.691,1.24c1.08,6.526,2.164,13.351,3.221,20.287a1.5,1.5,0,0,1-1.373,1.722l-40.04,2.935C49.321,242.763,49.284,242.764,49.247,242.764ZM48.588,224.9q.979,7.49,1.959,14.769l37.013-2.713c-.9-5.863-1.816-11.634-2.731-17.2Z" style="         fill: #1a1a1a;       "/>
      </g>
    </g>
    <g>
      <g>
        <path d="M175.494,82.88l-25.412-5.161c-1.813,9.645-3.449,19.612-4.926,29.836l29.987-1.414Q175.332,94.834,175.494,82.88Z" style="         fill: #feffff;       "/>
        <path d="M145.156,109.055a1.5,1.5,0,0,1-1.484-1.715c1.507-10.437,3.168-20.5,4.936-29.9a1.5,1.5,0,0,1,1.773-1.192l25.411,5.161a1.5,1.5,0,0,1,1.2,1.49q-.159,11.96-.35,23.265a1.5,1.5,0,0,1-1.429,1.473l-29.987,1.414Zm6.121-29.562c-1.555,8.382-3.024,17.275-4.374,26.478l26.763-1.262q.168-10.048.311-20.606Z" style="         fill: #1a1a1a;       "/>
      </g>
      <g>
        <path d="M175.943,41.624H158.168c-3.03,11.356-5.708,23.448-8.086,36.095l25.412,5.161C175.67,69.776,175.82,56.056,175.943,41.624Z" style="         fill: #fece2f;       "/>
        <path d="M175.493,84.38a1.435,1.435,0,0,1-.3-.03l-25.411-5.161a1.5,1.5,0,0,1-1.176-1.747c2.454-13.051,5.183-25.233,8.111-36.2a1.5,1.5,0,0,1,1.449-1.113h17.775a1.5,1.5,0,0,1,1.5,1.512c-.121,14.248-.272,28.131-.45,41.265a1.5,1.5,0,0,1-1.5,1.479Zm-23.662-7.837,22.187,4.507c.16-12.124.3-24.866.412-37.926H159.322C156.634,53.322,154.117,64.553,151.831,76.543Z" style="         fill: #1a1a1a;       "/>
      </g>
      <g>
        <path d="M168.531,298.261c-.4,7.76-.81,15.54-1.23,23.42q-.24,4.47-.48,8.98c-.72,13.37-1.47,27.07-2.24,41.36-.11,2.07-.27,4.39-.47,6.94-.14,1.89-.31,3.91-.5,6.03-.89,9.87-2.26,22.04-4.04,34.99-.18,1.29-.36,2.58-.55,3.88-1.13,7.93-2.41,16.09-3.82,24.14-.18.99-.35,1.99-.53,2.98-3.29,18.22-7.26,35.64-11.76,48.29-.21.61-.43,1.21-.65,1.79h-16.64c1.44-30.78,4.4-95.63,4.59-107.93.4-25.48.71-54.67,1.39-85.64v-.02q.135-6.645.31-13.38l13.63,1.55,16.77,1.91Z" style="         fill: #fece2f;       "/>
        <path d="M142.261,502.561h-16.64a1.5,1.5,0,0,1-1.5-1.57c.447-9.545,4.369-93.662,4.588-107.884.117-7.437.226-15.19.339-23.21.28-19.913.57-40.5,1.051-62.439q.13-6.423.3-12.894l.012-.511a1.5,1.5,0,0,1,1.669-1.453l36.621,4.171a1.5,1.5,0,0,1,1.328,1.567c-.4,7.761-.81,15.542-1.23,23.423l-2.72,50.341c-.107,2.005-.261,4.287-.472,6.976-.141,1.891-.311,3.919-.5,6.047-.962,10.667-2.362,22.791-4.048,35.06l-.028.2c-.172,1.226-.343,2.452-.523,3.688-1.186,8.316-2.474,16.454-3.827,24.181l-.532,2.99c-3.72,20.6-7.7,36.93-11.823,48.525-.21.61-.435,1.226-.661,1.819A1.5,1.5,0,0,1,142.261,502.561Zm-15.068-3h14.025c.093-.257.185-.518.275-.778,4.075-11.456,8.01-27.624,11.7-48.069l.53-2.981c1.347-7.688,2.629-15.793,3.811-24.084.181-1.234.351-2.454.521-3.674l.029-.2c1.679-12.221,3.073-24.3,4.031-34.918.189-2.111.359-4.123.5-6.007.21-2.669.363-4.927.468-6.908l2.72-50.34c.4-7.4.781-14.717,1.157-22.01l-33.59-3.825q-.144,5.9-.27,11.735c-.481,21.947-.77,42.532-1.05,62.438-.113,8.022-.222,15.777-.339,23.215C131.5,406.827,127.887,484.7,127.193,499.561Z" style="         fill: #1a1a1a;       "/>
      </g>
      <g>
        <path d="M175.143,106.141l-29.987,1.414q-1.93,13.362-3.509,27.247l32.845,4.807C174.73,128.891,174.948,117.759,175.143,106.141Z" style="         fill: #fece2f;       "/>
        <path d="M174.492,141.109a1.454,1.454,0,0,1-.218-.016l-32.844-4.807a1.5,1.5,0,0,1-1.273-1.655c1.073-9.39,2.255-18.572,3.515-27.291a1.5,1.5,0,0,1,1.413-1.283l29.987-1.414a1.471,1.471,0,0,1,1.115.422,1.5,1.5,0,0,1,.456,1.1c-.189,11.261-.408,22.525-.652,33.476a1.5,1.5,0,0,1-1.5,1.467ZM143.3,133.528l29.727,4.35c.216-9.89.414-20.021.586-30.164L146.465,109C145.34,116.869,144.278,125.107,143.3,133.528Z" style="         fill: #1a1a1a;       "/>
      </g>
      <g>
        <path d="M176.193,3.652c.012-2.355-4.035-2.994-4.972-.8-3.182,7.443-6.1,15.5-8.79,24.065l13.612.884-13.612-.884q-2.238,7.126-4.263,14.71h17.775C176.046,29.485,176.13,16.855,176.193,3.652Z" style="         fill: #feffff;       "/>
        <path d="M175.943,43.124H158.168a1.5,1.5,0,0,1-1.449-1.887c1.352-5.062,2.792-10.032,4.28-14.772h0c2.753-8.776,5.728-16.92,8.842-24.2A4.039,4.039,0,0,1,174.518.105a3.7,3.7,0,0,1,3.175,3.554h0c-.063,13.081-.147,25.858-.25,37.977A1.5,1.5,0,0,1,175.943,43.124Zm-15.816-3h14.328q.045-5.381.085-10.921l-11.028-.716C162.345,32.25,161.21,36.153,160.127,40.124Zm4.313-14.583,10.121.657c.052-7.366.1-14.908.132-22.553,0-.435-.751-.6-.784-.6-.5-.1-1.138,0-1.309.4C169.742,10.126,167,17.553,164.44,25.541ZM176.193,3.652h0Z" style="         fill: #1a1a1a;       "/>
      </g>
      <g>
        <path d="M172.078,220.129l-37.382.757q-.678,12.663-1.2,25.274l37.689-4.04-37.689,4.04c-.679,16.2-1.188,32.251-1.585,47.931l36.626,4.167C169.854,272.541,171.046,247.2,172.078,220.129Z" style="         fill: #feffff;       "/>
        <path d="M168.534,299.758a1.613,1.613,0,0,1-.17-.009l-36.625-4.167a1.5,1.5,0,0,1-1.33-1.529c.436-17.215.954-32.9,1.585-47.955h0c.36-8.59.766-17.1,1.2-25.291a1.5,1.5,0,0,1,1.468-1.42l37.382-.758a1.5,1.5,0,0,1,1.529,1.558c-.919,24.123-2.046,48.955-3.545,78.149a1.5,1.5,0,0,1-1.5,1.423Zm-35.091-7,33.674,3.831c.978-19.111,1.8-36.361,2.5-52.791l-34.679,3.718C134.348,261.756,133.858,276.584,133.443,292.756Zm2.677-70.4c-.38,7.195-.734,14.623-1.055,22.126l34.681-3.719c.274-6.464.53-12.812.772-19.1Z" style="         fill: #1a1a1a;       "/>
      </g>
      <g>
        <path d="M174.265,149.459l-34.083-1.032,34.083,1.032q.116-4.871.227-9.85L141.647,134.8c-2.409,21.051-4.257,42.835-5.688,64.779l36.79,2.044C173.314,185.148,173.821,167.9,174.265,149.459Z" style="         fill: #feffff;       "/>
        <path d="M172.749,203.125l-.083,0-36.79-2.044a1.5,1.5,0,0,1-1.414-1.6c1.519-23.284,3.435-45.105,5.7-64.853a1.491,1.491,0,0,1,.575-1.017,1.51,1.51,0,0,1,1.132-.3l32.845,4.808a1.5,1.5,0,0,1,1.282,1.517q-.111,4.986-.227,9.853h0c-.433,17.984-.929,35.052-1.516,52.18a1.5,1.5,0,0,1-1.5,1.449Zm-35.194-4.959,33.747,1.875c.548-16.13,1.016-32.234,1.427-49.127l-31.2-.946C140.007,165.086,138.675,181.233,137.555,198.166Zm4.277-51.19,30.969.939q.081-3.48.161-7.014l-30-4.391Q142.382,141.652,141.832,146.976Z" style="         fill: #1a1a1a;       "/>
      </g>
      <g>
        <path d="M172.749,201.625l-36.79-2.044q-.693,10.638-1.263,21.305l37.382-.757Q172.426,211.017,172.749,201.625Z" style="         fill: #fece2f;       "/>
        <path d="M134.7,222.386a1.5,1.5,0,0,1-1.5-1.58c.391-7.273.816-14.447,1.264-21.323a1.522,1.522,0,0,1,1.58-1.4l36.79,2.043a1.5,1.5,0,0,1,1.416,1.55q-.322,9.411-.671,18.51a1.5,1.5,0,0,1-1.469,1.442l-37.382.758Zm2.664-21.225c-.38,5.9-.742,12-1.079,18.193l34.352-.7q.291-7.708.566-15.617Z" style="         fill: #1a1a1a;       "/>
      </g>
    </g>
    <g>
      <g>
        <path d="M142.053,446.86c12.883,6.123,28.66,6.71,46.161,4,1.805-8.756,3.765-18.442,5.889-29.15l-49.64-2.483C143.562,428.754,142.761,438.029,142.053,446.86Z" style="         fill: #fece2f;       "/>
        <path d="M169.763,453.9c-11,0-20.362-1.889-28.354-5.688a1.5,1.5,0,0,1-.852-1.474c.749-9.341,1.561-18.645,2.413-27.652a1.52,1.52,0,0,1,1.568-1.356l49.64,2.483a1.5,1.5,0,0,1,1.4,1.79c-2.011,10.135-3.993,19.947-5.892,29.161a1.5,1.5,0,0,1-1.239,1.179A122.62,122.62,0,0,1,169.763,453.9Zm-26.131-7.965c11.265,5.062,25.46,6.24,43.324,3.6,1.726-8.389,3.519-17.26,5.338-26.411L145.822,420.8C145.052,429.01,144.316,437.454,143.632,445.937Z" style="         fill: #1a1a1a;       "/>
      </g>
      <g>
        <path d="M144.463,419.23c10.694,7.086,29.513,5.486,49.64,2.483q2.4-12.081,5.068-25.9c1.166-6.046,2.438-11.926,3.79-17.683l-54.223,1.162C147.11,392.757,145.693,406.224,144.463,419.23Z" style="         fill: #feffff;       "/>
        <path d="M166.763,425.758c-9.6,0-17.388-1.474-23.128-5.278a1.5,1.5,0,0,1-.665-1.392c1.319-13.951,2.759-27.4,4.279-39.975a1.5,1.5,0,0,1,1.457-1.321l54.223-1.163a1.6,1.6,0,0,1,1.2.556,1.5,1.5,0,0,1,.295,1.287c-1.426,6.067-2.661,11.831-3.778,17.625-1.679,8.7-3.385,17.416-5.069,25.908a1.5,1.5,0,0,1-1.25,1.192A193.122,193.122,0,0,1,166.763,425.758Zm-20.719-7.3c10.732,6.444,29.624,4.461,46.794,1.93,1.616-8.159,3.25-16.514,4.861-24.855,1.007-5.23,2.112-10.437,3.363-15.859l-50.99,1.094C148.645,392.664,147.291,405.332,146.044,418.454Z" style="         fill: #1a1a1a;       "/>
      </g>
      <g>
        <path d="M188.211,450.861c-4.64,22.54-8.23,38.86-10.84,50.2H138.4c.38-7.03.88-15.52,1.52-25.06.59-8.89,1.29-18.71,2.13-29.14l1.53.13L155.2,448Z" style="         fill: #feffff;       "/>
        <path d="M177.371,502.561H138.4a1.5,1.5,0,0,1-1.5-1.581c.444-8.211.956-16.649,1.522-25.08.682-10.288,1.38-19.827,2.131-29.159a1.5,1.5,0,0,1,.525-1.025,1.483,1.483,0,0,1,1.1-.349l13.153,1.139,33.01,2.861a1.5,1.5,0,0,1,1.339,1.8c-4.016,19.509-7.666,36.411-10.847,50.233A1.5,1.5,0,0,1,177.371,502.561Zm-37.386-3h36.192c3.022-13.185,6.459-29.1,10.225-47.352l-42.976-3.726c-.7,8.841-1.363,17.892-2.008,27.617C140.889,483.979,140.408,491.863,139.985,499.561Z" style="         fill: #1a1a1a;       "/>
      </g>
      <g>
        <path d="M152.936,348.062c-1.533,10.252-2.929,20.738-4.2,31.23,13.183,9.578,32.438,6.784,54.223-1.162,3.347-14.253,7.185-27.756,11.116-41.172L157.9,318.614C156.1,328.07,154.449,337.935,152.936,348.062Z" style="         fill: #fece2f;       "/>
        <path d="M169.54,386.86c-8.726,0-15.855-2.119-21.684-6.354a1.5,1.5,0,0,1-.607-1.393c1.328-10.983,2.743-21.5,4.2-31.274h0c1.545-10.334,3.218-20.26,4.974-29.506a1.5,1.5,0,0,1,1.939-1.145l56.178,18.345a1.5,1.5,0,0,1,.974,1.847c-4.367,14.9-7.925,27.59-11.095,41.092a1.5,1.5,0,0,1-.947,1.067C190.091,384.421,178.9,386.86,169.54,386.86Zm-19.2-8.278c11.075,7.531,27.446,7.02,51.352-1.586,3.039-12.85,6.432-25,10.542-39.063L159.057,320.57c-1.633,8.726-3.191,18.04-4.638,27.713h0C153,357.759,151.629,367.95,150.335,378.582Zm2.6-30.521h0Z" style="         fill: #1a1a1a;       "/>
      </g>
      <g>
        <path d="M186.58,208.4c-5.011,17.995-9.922,35.72-14.391,52,12.958,8.666,35.547,7.234,61.481,2.291a419.326,419.326,0,0,0,7.6-62.047Z" style="         fill: #fece2f;       "/>
        <path d="M198.913,268.155c-12.138,0-21.05-2.159-27.558-6.512a1.5,1.5,0,0,1-.613-1.644c4.136-15.061,8.978-32.556,14.394-52a1.5,1.5,0,0,1,1.233-1.083l54.692-7.761a1.5,1.5,0,0,1,1.709,1.557,421.459,421.459,0,0,1-7.629,62.267,1.5,1.5,0,0,1-1.19,1.182C220.01,266.818,208.463,268.155,198.913,268.155Zm-24.985-8.427c10.911,6.68,29.061,7.191,58.466,1.674a417.979,417.979,0,0,0,7.288-59.022l-51.92,7.369C182.581,228.356,177.93,245.16,173.928,259.728Z" style="         fill: #1a1a1a;       "/>
      </g>
      <g>
        <path d="M165.29,285.684c-1.727,6.355-3.347,13.153-4.862,20.308l-.042.211c-.864,4.027-1.685,8.191-2.487,12.411,9.318,20.262,29.977,23.47,56.178,18.344,6.977-23.8,14.245-47.329,19.593-74.271-24.919,5.242-47.318,7.062-61.481-2.291C169.737,269.326,167.418,277.825,165.29,285.684Z" style="         fill: #feffff;       "/>
        <path d="M194.394,340.58c-18.83,0-31.291-7.061-37.858-21.339a1.5,1.5,0,0,1-.11-.907c.926-4.878,1.718-8.834,2.493-12.446l.038-.189c1.543-7.289,3.185-14.149,4.885-20.408h0c2.129-7.86,4.448-16.36,6.9-25.292a1.5,1.5,0,0,1,2.273-.855c15.035,9.927,40.147,6.323,60.346,2.075a1.5,1.5,0,0,1,1.78,1.76c-4.759,23.978-11.115,45.531-17.262,66.375q-1.183,4.014-2.362,8.026a1.5,1.5,0,0,1-1.151,1.05A104.72,104.72,0,0,1,194.394,340.58Zm-34.931-22.162c8.107,17.111,25.114,22.6,53.433,17.241q1.05-3.579,2.105-7.153c5.938-20.133,12.071-40.931,16.751-63.891-35.331,7.141-50.142,3.1-58.649-1.882-2.255,8.221-4.392,16.057-6.366,23.344h0c-1.685,6.2-3.314,13.007-4.842,20.224l-.038.194C161.108,309.988,160.347,313.781,159.463,318.418Zm5.826-32.734h0Z" style="         fill: #1a1a1a;       "/>
      </g>
      <g>
        <path d="M241.443,158.142l-39.434-4.888c-5,17.8-10.267,36.615-15.429,55.147,15.5,5.8,33.412,9.469,54.05-.521C241.27,194.716,242.012,173.383,241.443,158.142Z" style="         fill: #feffff;       "/>
        <path d="M214.245,215.591c-10.7,0-20.221-2.8-28.19-5.786a1.5,1.5,0,0,1-.919-1.806c5.161-18.534,10.429-37.346,15.429-55.15a1.5,1.5,0,0,1,1.629-1.083l39.434,4.888a1.5,1.5,0,0,1,1.314,1.432c.631,16.9-.359,40.5-.814,49.867a1.5,1.5,0,0,1-.844,1.278A61.221,61.221,0,0,1,214.245,215.591ZM188.4,207.472c14.035,5.11,30.943,8.732,50.779-.56.456-9.607,1.329-31.285.813-47.439L203.105,154.9C198.329,171.909,193.319,189.8,188.4,207.472Z" style="         fill: #1a1a1a;       "/>
      </g>
      <g>
        <path d="M237.142,105l-21.379-.585c-4.075,14.432-8.78,31.129-13.754,48.837,9.3,10.219,23.206,10.142,39.434,4.888C240.835,141.843,239.452,124.212,237.142,105Z" style="         fill: #fece2f;       "/>
        <path d="M222.4,163.117c-9.016,0-16.124-2.944-21.5-8.853a1.5,1.5,0,0,1-.335-1.415c4.974-17.71,9.679-34.407,13.754-48.84a1.454,1.454,0,0,1,1.485-1.092l21.379.586a1.5,1.5,0,0,1,1.448,1.321c2.236,18.587,3.686,36.507,4.311,53.262a1.5,1.5,0,0,1-1.037,1.483A64.178,64.178,0,0,1,222.4,163.117Zm-18.719-10.272c7.851,8.106,19.407,9.446,36.219,4.213-.63-15.958-2.007-32.967-4.095-50.592l-18.917-.518C212.951,119.9,208.443,135.9,203.682,152.845Z" style="         fill: #1a1a1a;       "/>
      </g>
      <g>
        <path d="M230.192,58.313c-.168-.99-.337-2-.526-3.01,0,0-5.655,19.9-13.9,49.114,7.132,6.165,14.258,4.949,21.379.585C235.386,90.394,233.1,74.885,230.192,58.313Z" style="         fill: #feffff;       "/>
        <path d="M226.105,110.144a17.014,17.014,0,0,1-11.323-4.593,1.5,1.5,0,0,1-.463-1.542c8.249-29.213,13.9-49.116,13.9-49.116a1.52,1.52,0,0,1,1.511-1.088,1.5,1.5,0,0,1,1.406,1.222c.164.87.311,1.74.457,2.6l.073.432c2.819,16.055,5.16,31.789,6.961,46.767a1.5,1.5,0,0,1-.705,1.458C233.724,108.856,229.8,110.143,226.105,110.144Zm-8.633-6.26c5.4,4.278,11.038,4.377,18.063.328-1.647-13.554-3.736-27.722-6.22-42.18C227.06,69.982,222.827,84.918,217.472,103.884Z" style="         fill: #1a1a1a;       "/>
      </g>
    </g>
    <g>
      <path d="M145.761,299.781l-1.85,125.41-.33,21.8v.56l-.45,30.11-.22,21.61-.01,1.79h-23.17c-.79-6.45-1.53-12.5-2.04-16.09-8.04-56.02-13.83-58.22-18.06-106.63-.29-3.2-1.27-32.12-2.3-69.96q-.2-7.035-.39-14.44c-1.65-62.79-3.27-142.66-2.4-173.75.2-7.23.91-19.89,1.7-32.86,1.32-21.44,2.9-43.73,2.9-43.73a2.1,2.1,0,0,1,4.17.12s7.81,25.93,16.79,67.56c5.33,24.62,11.07,54.74,15.86,88.23a.17.17,0,0,1,.01.07q1.5,10.41,2.84,21.23,1.515,12.015,2.79,24.48c1.68,16.35,3.04,33.2,3.94,50.35C145.621,297.021,145.691,298.4,145.761,299.781Z" style="         fill: #fece2f;       "/>
      <path d="M142.9,502.561h-23.17a1.5,1.5,0,0,1-1.489-1.317l-.025-.207c-.776-6.334-1.509-12.318-2.011-15.855-3.612-25.171-6.759-39.405-9.536-51.964a360.5,360.5,0,0,1-8.533-54.747c-.319-3.521-1.332-34.293-2.305-70.05q-.2-7.033-.39-14.441c-1.058-40.254-3.409-137.773-2.4-173.831.169-6.116.725-16.882,1.7-32.909,1.306-21.2,2.885-43.522,2.9-43.745,0-.042.008-.084.014-.126a3.6,3.6,0,0,1,7.125.043c.595,2,8.207,27.79,16.783,67.552,6.345,29.307,11.687,59.027,15.879,88.335h0c0,.023.007.045.011.068h0c1.017,7.063,1.974,14.216,2.844,21.26,1,7.951,1.942,16.2,2.793,24.511,1.762,17.148,3.09,34.113,3.946,50.424.08,1.376.15,2.76.22,4.143,0,.033,0,.065,0,.1l-1.85,125.41-.78,52.47-.23,23.386A1.5,1.5,0,0,1,142.9,502.561Zm-21.842-3h20.35l0-.3.22-21.618,2.63-177.837c-.069-1.36-.138-2.72-.217-4.08-.854-16.27-2.178-33.185-3.935-50.284-.849-8.29-1.786-16.514-2.786-24.445-.868-7.028-1.822-14.161-2.837-21.2l0-.04,0-.031c-4.181-29.237-9.511-58.887-15.841-88.125-8.862-41.085-16.682-67.185-16.76-67.444a1.5,1.5,0,0,1-.056-.281.541.541,0,0,0-.582-.542.529.529,0,0,0-.6.455C100.527,45.263,99,66.87,97.738,87.422c-.974,15.994-1.529,26.727-1.7,32.81-1.007,35.985,1.343,133.439,2.4,173.67q.195,7.394.39,14.436c1.07,39.33,2.024,66.888,2.294,69.867a353.748,353.748,0,0,0,8.474,54.366c2.788,12.61,5.948,26.9,9.577,52.187C119.653,488.118,120.332,493.629,121.059,499.561Z" style="         fill: #1a1a1a;       "/>
    </g>
    <g>
      <path d="M82.529,201.567,42.975,192.16c-.674-5.43-1.262-10.27-1.683-13.617l36.534-5.388C78.394,175.892,82,198.811,82.529,201.567Z" style="         fill: #fece2f;       "/>
      <path d="M82.53,203.067a1.531,1.531,0,0,1-.348-.041l-39.554-9.407a1.5,1.5,0,0,1-1.141-1.275l-.865-7.006c-.314-2.545-.59-4.8-.818-6.608a1.5,1.5,0,0,1,1.27-1.671l36.533-5.388a1.506,1.506,0,0,1,1.688,1.18c.322,1.553,1.543,9.1,2.724,16.394.9,5.573,1.754,10.837,1.984,12.041a1.5,1.5,0,0,1-1.473,1.781ZM44.336,190.942l36.328,8.64c-.381-2.291-.964-5.89-1.607-9.858-.918-5.672-1.936-11.964-2.444-14.873l-33.65,4.962c.188,1.516.4,3.255.636,5.158Z" style="         fill: #1a1a1a;       "/>
    </g>
    <g>
      <path d="M97.611,499.661c-.07.49-.14.95-.22,1.4h-21.7c-3.8-13.21-9.41-32.6-16.34-56.01-.33-1.1-.66-2.22-.99-3.34-2.43-8.17-5-16.79-7.7-25.79-.15-.49-.3-.99-.45-1.49-3.12-10.29-6.38-21.06-9.81-32.19q-.75-2.46-1.52-4.95c-2.53-8.24-5.14-16.67-7.82-25.23q-1.905-6.12-3.86-12.33-2.535-8.01-5.12-16.11-2.13-6.735-4.31-13.51c-.24-.73-.48-1.52-.7-2.35q-.81-2.82-1.6-6.33v-.01c-2.19-9.63-4.35-23-6.29-38.53-.88-7.02-1.7-14.46-2.46-22.2q-.3-3.06-.59-6.17c-.57-6.15-1.1-12.44-1.57-18.81a.41.41,0,0,0-.01-.11c-.01-.19-.03-.38-.04-.56-.63-8.78-1.18-17.7-1.59-26.58q-.27-5.58-.46-11.11c-.46-12.55-.64-24.85-.49-36.38q.075-6.9.34-13.39c.21-5.53.52-10.8.93-15.75.15-1.84.31-3.63.5-5.37v-.05q.27-2.535.57-4.95c.16-1.33,1.69-1.36,2.8-.63a2.633,2.633,0,0,1,1.05,1.28q4.635,12.81,9.02,25.61.945,2.73,1.86,5.46,4.86,14.205,9.38,28.34,4.455,13.74,8.62,27.36,2.64,8.64,5.18,17.18c.11.46.25.91.38,1.36q2.025,6.825,3.97,13.59c.24.85.49,1.7.73,2.55q1.065,3.735,2.12,7.46c.95,3.35,1.88,6.7,2.79,10.02q1.605,5.79,3.14,11.51,1.3,4.875,2.58,9.7,2.895,10.98,5.58,21.71,1.515,6.015,2.97,11.94,2.13,8.685,4.12,17.17l.12.51q1.98,8.445,3.83,16.66v.01c.4,1.77.79,3.54,1.18,5.29q1.125,5.1,2.18,10.08,1.815,8.43,3.46,16.55c.47,2.3.93,4.57,1.38,6.83.15.74.29,1.49.44,2.22q2.64,13.485,4.84,25.97,1.035,5.9,1.97,11.57v.01q1.935,11.58,3.42,22.07.63,4.47,1.18,8.73C98.2,467.391,99.241,488.281,97.611,499.661Z" style="         fill: #fece2f;       "/>
      <path d="M4.551,215.6a22.148,22.148,0,0,1,.33-2.54c.6,7.46,1.22,14.88,1.83,21.47.74,7.92,1.46,14.63,2.14,18.73.15.9.29,2.11.43,3.51-.78-5.12-1.72-10.64-2.56-16.08-.32-2.08-.63-4.15-.91-6.18C4.811,227.231,4.171,220.491,4.551,215.6Z" style="         fill: #fff;       "/>
      <path d="M10.961,274.841c-.63-3.57-1.12-12.39-1.68-18.07C10.421,264.161,11.231,270.691,10.961,274.841Z" style="         fill: #fff;       "/>
      <path d="M102.921,501.061h-20.7c-2.61-13.16-6.72-33.61-11.71-57.74-1.85-8.98-3.83-18.46-5.9-28.27-2.33-11.05-4.78-22.51-7.31-34.11-2.89-13.32-5.87-26.82-8.88-40.11-2.97-13.11-5.97-26.02-8.93-38.33-6.48-26.96-12.76-51.04-18.18-68.16-5.34-16.94-9.83-27.08-12.81-26.5-1.93.38-3.06,2.28-3.62,5.22-.69-8.58-1.35-17.19-1.96-24.6-.58-6.98-1.1-12.89-1.53-16.71-1.39-11.7.88-27.25-.25-39.14-.61-6.18,1.17-13.73,2.1-20.78.24-1.83.43-3.63.5-5.37v-.05a30.324,30.324,0,0,0-.06-3.71c-.16-1.91,2.26-3.81,3.24-2.19.06.11.13.21.19.32,3.92,6.65,4.69,17.72,8.93,26.16a64.484,64.484,0,0,1,2.74,6.31c3.32,8.8,5.45,18.99,8.33,29.02a125.688,125.688,0,0,0,4.46,13.07q2.775,6.69,5.47,13.49,2.64,8.64,5.18,17.18c.11.46.25.91.38,1.36q2.025,6.825,3.97,13.59c.24.85.49,1.7.73,2.55q1.065,3.735,2.12,7.46c.95,3.35,1.88,6.7,2.79,10.02q1.605,5.79,3.14,11.51,1.3,4.875,2.58,9.7,2.895,10.98,5.58,21.71,1.515,6.015,2.97,11.94,2.13,8.685,4.12,17.17l.12.51q1.98,8.445,3.83,16.66v.01c.4,1.77.79,3.54,1.18,5.29q1.125,5.1,2.18,10.08c.03.2.05.41.08.61a147.169,147.169,0,0,0,3.38,15.94c.75,3.05,1.45,6.07,1.93,8.99a.407.407,0,0,0-.11.06q2.64,13.485,4.84,25.97,1.035,5.9,1.97,11.57v.01q1.935,11.58,3.42,22.07.63,4.47,1.18,8.73C98.361,468.721,102.611,490.171,102.921,501.061Z" style="         fill: #fff;       "/>
      <path d="M1.5,142.677a1.5,1.5,0,0,1-.623-2.865l17.714-8.072a1.5,1.5,0,1,1,1.244,2.73L2.122,142.542A1.49,1.49,0,0,1,1.5,142.677Z" style="         fill: #1a1a1a;       "/>
      <path d="M2.466,178.848a1.5,1.5,0,0,1-.782-2.78l25.952-15.827A1.5,1.5,0,1,1,29.2,162.8L3.245,178.628A1.478,1.478,0,0,1,2.466,178.848Z" style="         fill: #1a1a1a;       "/>
      <path d="M41.24,342.785A68.367,68.367,0,0,1,26.886,341.2a1.5,1.5,0,0,1,.63-2.934,61.256,61.256,0,0,0,20.713,1.079,54.9,54.9,0,0,0,25.377-10.26,1.5,1.5,0,0,1,2.445,1.158,1.518,1.518,0,0,1-.621,1.225,57.013,57.013,0,0,1-34.19,11.319Z" style="         fill: #1a1a1a;       "/>
      <path d="M11.5,236.094q-2.415,0-4.779-.062c-.229,0-.448,0-.668-.013-.083,0-.245,0-.389-.015a1.5,1.5,0,0,1,.292-2.986c.054,0,.113,0,.174,0,.217.01.358.02.507.012a1.081,1.081,0,0,1,.114,0c4.691.129,9.564.062,14.483-.189a222.485,222.485,0,0,0,27.92-3.3,1.5,1.5,0,0,1,.533,2.954,225.461,225.461,0,0,1-28.3,3.341C18.059,236.009,14.749,236.094,11.5,236.094Z" style="         fill: #1a1a1a;       "/>
      <path d="M31.017,304.372a81.31,81.31,0,0,1-15.841-1.47,1.5,1.5,0,0,1,.295-2.976,1.531,1.531,0,0,1,.425.06,85.056,85.056,0,0,0,23.466,1.02,84.585,84.585,0,0,0,26.5-6.473,1.5,1.5,0,0,1,1.231,2.736A87.661,87.661,0,0,1,39.622,304C36.718,304.247,33.837,304.372,31.017,304.372Z" style="         fill: #1a1a1a;       "/>
      <path d="M59.349,446.551a1.5,1.5,0,0,1-.228-2.982l35.249-5.481a1.5,1.5,0,0,1,.462,2.965l-35.251,5.481A1.657,1.657,0,0,1,59.349,446.551Z" style="         fill: #1a1a1a;       "/>
      <path d="M54.038,417.58c-1.247,0-2.42-.056-3.527-.167a1.5,1.5,0,1,1,.3-2.985,51.929,51.929,0,0,0,13.549-.855c7.293-1.255,15.235-3.465,22.241-5.415l2.888-.8a1.475,1.475,0,0,1,.512-.091,1.5,1.5,0,0,1,.4,2.951l-2.994.831c-7.076,1.969-15.095,4.2-22.54,5.482A65.427,65.427,0,0,1,54.038,417.58Z" style="         fill: #1a1a1a;       "/>
      <path d="M44.482,383.942a41.48,41.48,0,0,1-4.234-.209,1.5,1.5,0,1,1,.307-2.984,53.47,53.47,0,0,0,16.431-1.275,95.338,95.338,0,0,0,25.415-9.53,1.9,1.9,0,0,1,.433-.209,1.5,1.5,0,0,1,1.134,2.769l-.045.027a98.482,98.482,0,0,1-26.308,9.877A62.98,62.98,0,0,1,44.482,383.942Z" style="         fill: #1a1a1a;       "/>
      <path d="M102.921,502.561H75.691a1.5,1.5,0,0,1-1.441-1.085c-5.581-19.4-10.925-37.717-16.338-56-.328-1.1-.659-2.221-.99-3.343-2.429-8.165-5-16.784-7.7-25.783L47.938,412.1q-4.311-14.223-8.97-29.422l-1.521-4.951c-2.723-8.866-5.28-17.117-7.817-25.222q-1.9-6.122-3.86-12.329-2.533-8-5.117-16.1-2.131-6.739-4.309-13.506c-.269-.82-.513-1.638-.723-2.427-.528-1.84-1.059-3.938-1.613-6.383-.006-.027-.012-.055-.016-.083-2.148-9.466-4.326-22.811-6.3-38.6-.859-6.852-1.688-14.335-2.465-22.24-.2-2.043-.4-4.106-.59-6.179-.595-6.421-1.125-12.759-1.573-18.837V215.8c0-.039-.009-.078-.011-.117l-.04-.553c-.683-9.525-1.2-18.231-1.59-26.595-.17-3.5-.321-7.146-.461-11.126-.472-12.9-.637-25.16-.491-36.452.048-4.383.163-8.9.341-13.431.212-5.557.526-10.879.934-15.814.172-2.107.33-3.808.5-5.346,0-.04,0-.082.006-.11q.272-2.547.574-4.976a2.656,2.656,0,0,1,1.516-2.15,3.776,3.776,0,0,1,3.6.452,4.092,4.092,0,0,1,1.638,2.028c3.063,8.464,6.1,17.089,9.027,25.63q.945,2.729,1.864,5.47c3.209,9.38,6.368,18.924,9.386,28.359,2.84,8.761,5.743,17.974,8.625,27.377,1.968,6.44,3.663,12.064,5.184,17.193.1.407.2.733.292,1.057l.091.312q2.022,6.818,3.971,13.593l.809,2.829q1.026,3.6,2.043,7.189c.951,3.351,1.881,6.707,2.793,10.03q1.605,5.791,3.142,11.521c.87,3.25,1.731,6.491,2.581,9.7,1.9,7.214,3.781,14.524,5.585,21.729q1.515,6.018,2.972,11.947c1.361,5.551,2.748,11.333,4.123,17.185l.12.509c1.421,6.057,2.675,11.512,3.833,16.676.006.025.011.05.016.076q.405,1.794.8,3.581l.366,1.644c.752,3.407,1.472,6.771,2.183,10.093,1.143,5.308,2.276,10.727,3.463,16.565.47,2.3.931,4.574,1.381,6.836l.205,1.035c.077.395.154.789.233,1.176,1.8,9.193,3.431,17.941,4.849,26.012q1.037,5.9,1.972,11.587c0,.022.007.043.01.065,1.276,7.64,2.425,15.058,3.416,22.047q.63,4.481,1.181,8.747c1.568,12.155,3.2,22.828,4.639,32.243,1.961,12.829,3.51,22.963,3.694,29.4a1.5,1.5,0,0,1-1.5,1.543Zm-26.1-3h24.534c-.355-6.3-1.8-15.761-3.593-27.487-1.442-9.433-3.077-20.123-4.649-32.311q-.553-4.251-1.177-8.714c-.989-6.981-2.138-14.393-3.414-22.031,0-.024-.008-.048-.01-.072q-.925-5.634-1.958-11.5c-1.415-8.053-3.041-16.782-4.835-25.942-.079-.384-.158-.787-.236-1.191l-.2-1.02c-.451-2.262-.91-4.529-1.379-6.828-1.185-5.827-2.316-11.234-3.457-16.534-.71-3.318-1.429-6.675-2.179-10.072L73.9,334.22q-.4-1.813-.813-3.639c-.006-.027-.012-.054-.016-.081-1.153-5.133-2.4-10.557-3.811-16.577l-.12-.508c-1.373-5.843-2.758-11.616-4.117-17.157q-1.453-5.921-2.968-11.931c-1.8-7.195-3.677-14.494-5.575-21.694q-1.274-4.812-2.579-9.694-1.528-5.724-3.136-11.5c-.91-3.319-1.839-6.665-2.788-10.011q-1.011-3.584-2.041-7.181l-.809-2.83q-1.945-6.75-3.965-13.572l-.091-.31c-.109-.372-.219-.746-.309-1.126-1.5-5.044-3.191-10.661-5.156-17.092-2.878-9.387-5.775-18.584-8.613-27.335-3.013-9.421-6.166-18.946-9.372-28.318q-.916-2.736-1.859-5.454c-2.922-8.53-5.954-17.138-9.013-25.59a1.148,1.148,0,0,0-.466-.539,1.42,1.42,0,0,0-.511-.215c-.189,1.523-.365,3.065-.534,4.64,0,.042,0,.086-.007.116-.166,1.525-.324,3.218-.5,5.329-.4,4.892-.716,10.17-.926,15.684-.177,4.5-.292,8.993-.339,13.351-.146,11.245.019,23.46.489,36.308.14,3.969.29,7.6.459,11.092.386,8.342.905,17.024,1.588,26.545l.034.48a1.848,1.848,0,0,1,.02.236c.446,6.044.972,12.348,1.564,18.733q.285,3.1.589,6.162c.774,7.878,1.6,15.334,2.455,22.161,1.967,15.735,4.133,29.007,6.265,38.382.006.029.012.056.016.084.536,2.36,1.047,4.381,1.563,6.176.2.762.43,1.525.683,2.3q2.194,6.78,4.316,13.526,2.593,8.1,5.119,16.111,1.953,6.215,3.862,12.336c2.539,8.108,5.1,16.363,7.822,25.235l1.521,4.953q4.686,15.206,8.973,29.431l1.286,4.247c2.7,9.01,5.273,17.631,7.7,25.8.33,1.122.66,2.239.989,3.338C66.1,462.574,71.35,480.556,76.821,499.561ZM3.1,215.969v0Z" style="         fill: #1a1a1a;       "/>
    </g>
    <g>
      <path d="M145.763,299.783l6.578,202.278c-3.68-1.67-15.11.46-17-2,4.66-24,4.6-77.228-7.4-245.228-7.14-99.94-21.36-146.33-31.7-167.5,1.32-21.44,2.9-43.73,2.9-43.73a2.1,2.1,0,0,1,4.17.12s7.81,25.93,16.79,67.56C130.373,158.763,142.2,226.693,145.763,299.783Z" style="         fill: #fff;       "/>
      <path d="M152.341,503.561a1.491,1.491,0,0,1-.619-.134c-1.367-.621-4.646-.6-7.535-.576-4.589.033-8.547.062-10.035-1.876a1.5,1.5,0,0,1-.284-1.2c4.418-22.748,4.846-73.09-7.421-244.835-7.08-99.087-21.066-145.479-31.552-166.948a1.51,1.51,0,0,1-.149-.75c1.305-21.2,2.885-43.522,2.9-43.745,0-.042.008-.084.014-.126a3.6,3.6,0,0,1,7.125.044c.6,2,8.206,27.792,16.783,67.552,9.714,44.909,22.057,114.111,25.692,188.743v.025l6.578,202.277a1.5,1.5,0,0,1-1.5,1.549Zm-6.469-3.718a33.758,33.758,0,0,1,4.9.259l-6.513-200.259C140.638,225.419,128.326,156.4,118.637,111.6c-8.865-41.1-16.683-67.186-16.76-67.445a1.427,1.427,0,0,1-.056-.281.542.542,0,0,0-.582-.542.527.527,0,0,0-.605.455c-.1,1.467-1.609,22.808-2.87,43.245,10.583,21.861,24.6,68.668,31.675,167.694,12.127,169.773,11.847,221.263,7.552,244.682,1.381.484,5.062.46,7.175.442C144.742,499.847,145.312,499.843,145.872,499.843Z" style="         fill: #1a1a1a;       "/>
    </g>
  </g>
</svg></g><!--ITEM: Illustration component 4--><g transform="translate(1327.5 65.0) rotate(0.0 261.25 308.75) translate(0.0 117.42424242424242) scale(1.73372044794691 1.734263141782682)"><svg width="301.375" height="288.3068825910931" viewBox="0.0 67.70843454790824 301.375 288.3068825910931"><title>lamp_1</title><g id="Layer_2-i4" data-name="Layer 2"><g id="lamp_1-i4"><path d="M3.4,322.286,110.931,171.744s37.3-14.974,70-1.436C201.472,200.473,271.775,314.5,271.775,314.5s-126-20-190.745-9.92S15.569,315.024,3.4,322.286Z" style="fill:#fece2f"/><polygon points="125.872 167.662 70.893 304.269 89.03 302.819 130.481 166.176 125.872 167.662" style="fill:#fff"/><path d="M47.246,307.076l73.223-138.254-9.538,2.922L3.4,322.286C3.436,322.267-1.326,317.637,47.246,307.076Z" style="fill:#fff"/><path d="M298.52,324.228,185,171.379c-.019-.041-.057-.123-.117-.145-.292-.31-7.125-6.853-32.879-7.428a8.933,8.933,0,0,0-1.045-.012,3.32,3.32,0,0,0-.026-1.77l-.007-159.75a3.158,3.158,0,1,0-6.065,1.763l.007,159.749.019.041c-21.228.651-33.869,6.392-34.481,6.674a1.275,1.275,0,0,0-.536.446L1.038,322.434a1.731,1.731,0,0,0-.241.656,6.7,6.7,0,0,0-.8,2.991c-.166,9.925,24.109,16.726,44.472,20.632,28.238,5.416,65.807,8.748,105.835,9.261,40.007.572,77.69-1.741,106.059-6.433,12.143-2,25.7-5,34.718-9.159,6.159-2.846,10.225-6.258,10.289-10.3C301.4,328,300.353,326.053,298.52,324.228ZM256.9,309.453c-28.238-5.416-65.807-8.747-105.835-9.26-40.006-.573-77.69,1.74-106.059,6.432-12.971,2.132-27.464,5.363-36.412,9.992L111.9,172.779c5.544-2.462,20.592-6.741,40.1-6.3,11.953.269,20.062,1.967,25.1,3.651l87.455,140.886C261.976,310.474,259.4,309.932,256.9,309.453Z" style="fill:#1a1a1a"/><path d="M127.865,220.292,138.3,177.213a2.121,2.121,0,0,1,2.5-1.551,2.082,2.082,0,0,1,1.563,2.1l-1.61,44.3a6.55,6.55,0,1,1-13.092-.485A8.96,8.96,0,0,1,127.865,220.292Z" style="fill:#fff"/><path d="M165.023,304.435c-21.922-.316-43.147.235-62.527,1.566a47.631,47.631,0,0,0,2.959,8.333,48.539,48.539,0,0,0,91.218-8.881C186.355,304.973,175.793,304.607,165.023,304.435Z" style="fill:#fff"/></g></g></svg></g><!--ITEM: Illustration component 5--><g transform="translate(2215.0 1440.0) rotate(0.0 203.75 183.75)  scale(2.9812201420743443 2.965192273556133)"><svg width="136.689" height="123.938" viewBox="0.0 0.0 136.689 123.938"><g>
    <g>
      <path d="M127.474,14.041c-.309,2.082-.844,5.522-1.586,9.91a1.032,1.032,0,0,0-.042.269c-4.285,25.136-14.746,79.148-32.3,97.732,0,0-21.371,2.164-39.79,1.03a151.174,151.174,0,0,1-15.324-1.674C19.661,104.063,13.208,51.251,11.518,25.5c-.556-8.427-.68-13.784-.68-13.784l3.482-1.339L125.5,11.734A2.015,2.015,0,0,1,127.474,14.041Z" style="         fill: #fece2f;       "/>
      <path d="M135.654,5.377l-.886,12.8a4.248,4.248,0,0,1-4.224,3.914l-4.141.062a1.026,1.026,0,0,0-.041.268l-84.578.865-3.729.042c-.041,0-9.5.484-9.539.5-3.606,21.634,12.424,73.317,21.8,98.639a92.923,92.923,0,0,1-12.073-1.381c-18.77-17.245-24.518-71.638-26.208-97.392l-6.655.082a4.227,4.227,0,0,1-4.347-4.2L1.876,9.065a4.224,4.224,0,0,1,4.45-4.038l125.186-4A4.2,4.2,0,0,1,135.654,5.377Z" style="         fill: #feffff;       "/>
      <path d="M66.143,123.938c-10.167,0-20.959-.417-28.1-1.843l-.284-.056-.211-.2C12.6,98.912,10.4,13.547,10.323,9.923L10.307,9.2l4.336-1.653.195,0,111.19,1.362a3.042,3.042,0,0,1,2.98,3.493c-2.175,14.559-14.09,88.307-34.955,110.4l-.28.3-.405.024C92.467,123.179,79.876,123.938,66.143,123.938Zm-27.408-3.807c15.722,3.04,49.961,1.2,54.1.96,20.274-22.012,31.99-94.609,34.141-109a.965.965,0,0,0-.224-.781.983.983,0,0,0-.744-.346L15.009,9.607l-2.606,1C12.671,19.064,15.8,98.59,38.735,120.131Z" style="         fill: #1a1a1a;       "/>
      <path d="M134.624,5.3l-.886,12.836a3.215,3.215,0,0,1-3.215,2.925L5.378,22.746a3.457,3.457,0,0,1-2.431-.968,3.013,3.013,0,0,1-.886-2.122l.845-10.57a3.021,3.021,0,0,1,.948-2.121,3.331,3.331,0,0,1,2.369-.908h.124l125.124-4a3.232,3.232,0,0,1,2.349,1.072A2.96,2.96,0,0,1,134.624,5.3Z" style="         fill: #fece2f;       "/>
      <path d="M28.13,23.7s-.515-10.231,3.863-11.718c13.65-4.636,100.656-6.868,102.2-8.842-2.232-2.06-13.649-1.545-13.649-1.545L5.852,5.2S.186,2.967.873,16.016c.172,8.756,3.949,7.555,3.949,7.555Z" style="         fill: #feffff;       "/>
      <path d="M135.345,1.731A5.314,5.314,0,0,0,131.492,0L6.367,4A5.473,5.473,0,0,0,2.432,5.46,5.113,5.113,0,0,0,.846,8.983L0,19.553A5.1,5.1,0,0,0,1.484,23.22a5.426,5.426,0,0,0,3.832,1.587H5.4l125.145-1.69a5.3,5.3,0,0,0,5.254-4.863l.886-12.814A5.079,5.079,0,0,0,135.345,1.731Zm-1.607,16.4a3.215,3.215,0,0,1-3.215,2.925L5.378,22.746a3.457,3.457,0,0,1-2.431-.968,3.013,3.013,0,0,1-.886-2.122l.845-10.57a3.021,3.021,0,0,1,.948-2.121,3.331,3.331,0,0,1,2.369-.908h.124l125.124-4a3.232,3.232,0,0,1,2.349,1.072,2.96,2.96,0,0,1,.8,2.164Z" style="         fill: #1a1a1a;       "/>
    </g>
    <path d="M51.449,23.2s-24.6-.25-8.625,2.25c17.515,2.742,75.867,8.671,78.875,19,2.75-12.25,4.375-22.5,4.375-22.5Z" style="         fill: #1a1a1a;       "/>
  </g>
</svg></g><!--ITEM: Illustration component 6--><g transform="translate(57.5 950.0) rotate(0.0 1016.25 440.0)  scale(2.217264664492129 2.2217733791153305)"><svg width="916.67" height="396.08" viewBox="0.0 0.0 916.67 396.08"><title>waiting_woman__sofa</title><path d="M1.09,167.5c-1-23,6.27-51.72,51.7-58.11,33.73-4.75,98.45,29.38,98.45,29.38l0,196.22-102.63.73C20,275.76,5.17,218.56,1.09,167.5Z" style="fill:#fece2f;"/><path d="M92.62,114.39s-32.55-13.78-67.4,3.83-22.6,60.9-19.15,86.17c0-23.36-3.76-58.48,21.44-75.06C56.62,110.18,92.62,114.39,92.62,114.39Z" style="fill:#fff;"/><path d="M48.58,336.72a1,1,0,0,1-.91-.57C20.49,279.14,4.48,222.43.09,167.58v0c-1.52-34.12,16.17-54,52.56-59.14,33.67-4.74,96.4,28.09,99.06,29.49a1,1,0,0,1,.53.88l0,196.22a1,1,0,0,1-1,1l-102.64.73ZM2.09,167.44c4.35,54.41,20.2,110.69,47.12,167.27l101-.71,0-194.62c-6.28-3.24-65.89-33.42-97.31-29C17.74,115.33.63,134.53,2.09,167.44Z" fill="#000000"/><polygon points="844.41 348.57 72.67 348.57 60.45 320.86 856.66 320.86 844.41 348.57" fill="#000000"/><path d="M22,174.73C25.47,207.39,35.3,272.52,65.94,335c13.88,0,34.72-.51,34.72-.51-20.42-50-36.76-113.23-34.21-162.38C68.26,137.23,14.88,136.84,22,174.73Z" fill="#000000"/><path d="M915.58,167.5c1-23-6.27-51.72-51.71-58.11-33.73-4.75-98.44,29.38-98.44,29.38l0,196.22,102.64.73C896.69,275.76,911.49,218.56,915.58,167.5Z" style="fill:#fece2f;"/><path d="M868.09,336.72h0L765.45,336a1,1,0,0,1-1-1l0-196.22a1,1,0,0,1,.53-.88c2.65-1.4,65.4-34.23,99-29.49,36.4,5.12,54.08,25,52.57,59.14v0c-4.39,54.85-20.4,111.56-47.59,168.57A1,1,0,0,1,868.09,336.72ZM766.45,334l101,.71c26.91-56.58,42.77-112.86,47.12-167.27,1.46-32.91-15.65-52.11-50.85-57.06-31.4-4.42-91,25.76-97.3,29ZM915.58,167.5h0Z" fill="#000000"/><path d="M894.64,174.73c-3.44,32.66-13.27,97.79-43.91,160.26-13.89,0-34.72-.51-34.72-.51C840.58,289,845.94,220.1,849,171.07,851.18,136.23,901.79,136.84,894.64,174.73Z" fill="#000000"/><path d="M771.59,262.36H151.22c-44.84-126-25.45-238.61,20.59-243.46C230.42,7.5,289.5,3.55,348.72,11.55,422.39.67,493.68-.19,562,11.55c73-13.5,139.19-14.86,193.33.72C798.92,20.75,818.85,161.79,771.59,262.36Z" style="fill:#fece2f;"/><path d="M223.22,10.61s-38.3,11.49-51.71,17.61c-8.13,3.72-17.23,14.17-26.42,34.85-13.4,30.16-18,84.64-16.85,99.58-8.05-29.11,0-86.94,13.78-120.64,0,0,9.8-18.64,29.79-23.11S223.22,10.61,223.22,10.61Z" style="fill:#fff;"/><path d="M771.59,263.36H151.22a1,1,0,0,1-.95-.66c-16.15-45.42-24.94-91.74-25.42-133.95-.43-38.57,6.21-70.72,18.68-90.52,7.66-12.16,17.4-19.19,28.18-20.32,63.76-12.41,121.69-14.83,177-7.37C424.8-.69,496.55-.69,562,10.53c77.14-14.26,142.27-14,193.61.78,9.83,1.9,19,10.58,26.31,25.07,24.33,47.92,26.36,150.33-9.39,226.41A1,1,0,0,1,771.59,263.36Zm-619.67-2H771c35.21-75.48,33.2-176.7,9.15-224.07-7.07-13.92-15.71-22.24-25-24C704-1.47,639.06-1.7,562.16,12.53a1.09,1.09,0,0,1-.36,0c-65.29-11.22-136.93-11.22-212.93,0a1.31,1.31,0,0,1-.28,0c-55.14-7.45-112.9-5-176.58,7.35-10.24,1.08-19.47,7.78-26.79,19.4C133,58.78,126.43,90.54,126.85,128.73,127.32,170.51,136,216.36,151.92,261.36Z" fill="#000000"/><path d="M815.09,335.11H100.19C80.24,281.37,61,242.67,90.81,229c12.29-6,119.13-22.7,231.72-9.68,68.9-6.5,165.71-12.51,249.2-.26,122.8-19.4,240,1.8,252.79,9.94C852.17,247.82,839.81,279.07,815.09,335.11Z" style="fill:#fece2f;"/><path d="M308.24,218.56s-90.8,11-119.49,13c-71.62,5-101.87-2.69-78.9-6.9S250.41,207.07,308.24,218.56Z" style="fill:#fff;"/><path d="M808.41,223.93S676.28,198.65,584,217.42c16.09.76,29.87,1.53,41.36,5s51.6,13.71,83.11,6.51C743.68,220.86,779.3,219.71,808.41,223.93Z" style="fill:#fff;"/><path d="M107.81,322.48H807.64c-77.67-7.1-106.13-23.3-211.49-9.1-57.33,7.73-90-10.87-126.89-6s-73.83,9.32-120,2.66-53.83,5.33-92.28,3.11S155.49,313.16,107.81,322.48Z" fill="#000000"/><path d="M815.09,336.11H100.19a1,1,0,0,1-.94-.65c-2.27-6.11-4.53-12-6.71-17.74C75.43,273,63.08,240.6,90.39,228.1c11.63-5.63,118-23,232.16-9.78,102.71-9.68,184.23-9.77,249.17-.26C692.89,199,811.6,219.57,825.06,228.17c28.15,19.15,16.25,50-9.06,107.35A1,1,0,0,1,815.09,336.11Zm-714.21-2H814.43c24.69-56,36.24-86.09,9.53-104.27-13.3-8.5-131.33-28.86-252.08-9.78a.76.76,0,0,1-.3,0c-64.83-9.51-146.26-9.43-249,.27h-.21c-113.8-13.16-219.63,4-231.17,9.59C65.61,241.64,77.69,273.25,94.41,317,96.51,322.52,98.69,328.22,100.88,334.11Z" fill="#000000"/><path d="M309.82,335.5a1,1,0,0,1-.78-.38c-.28-.36-7-9.55-12.24-64.38-1.94-20.32,1.3-35.18,9.65-44.19a25.27,25.27,0,0,1,17.72-8.41,1,1,0,1,1,0,2A23.63,23.63,0,0,0,307.88,228c-7.92,8.57-11,22.9-9.09,42.6,5.14,53.73,11.77,63.26,11.84,63.35a1,1,0,0,1-.2,1.4A1,1,0,0,1,309.82,335.5Z" fill="#000000"/><path d="M585.37,335.51a1,1,0,0,1-.61-.22,1,1,0,0,1-.18-1.4c.06-.08,6.74-9.61,11.91-63.34,1.89-19.64-1.17-34-9.09-42.54A23.91,23.91,0,0,0,571,220.14h0a1,1,0,0,1,0-2,25.5,25.5,0,0,1,17.9,8.48c8.35,9,11.59,23.86,9.64,44.12-5.28,54.83-12,64-12.32,64.38A1,1,0,0,1,585.37,335.51Z" fill="#000000"/><path d="M324.43,228.06c-8.66,1.59-5.37,8.37,7.29,7.73s39.26-1.93,52.35,2.79C371.19,231.5,345.45,224.2,324.43,228.06Z" style="fill:#fff;"/><polygon points="93.93 338.02 74.98 396.08 82.14 396.08 114.57 342.32 93.93 338.02" fill="#000000"/><polygon points="820.31 338.02 839.27 396.08 832.11 396.08 799.67 342.32 820.31 338.02" fill="#000000"/><path d="M319.73,220.08a1,1,0,0,1-.93-.62C296,165.22,303.33,83,303.41,82.13a1,1,0,0,1,2,.19c-.07.82-7.37,82.59,15.25,136.37a1,1,0,0,1-.54,1.31A1,1,0,0,1,319.73,220.08Z" fill="#000000"/><path d="M573.82,220.08a1.09,1.09,0,0,1-.39-.08,1,1,0,0,1-.53-1.31C595.52,164.9,585.39,52.3,585.28,51.17a1,1,0,0,1,.91-1.09,1,1,0,0,1,1.09.9c.1,1.14,10.27,114.24-12.54,168.48A1,1,0,0,1,573.82,220.08Z" fill="#000000"/><path d="M303.26,89.5s-6.51,14.81-10.34,25.92-12.13,14-8.68,30.12,15.32,12.26,13.27,32.68c-1.33,13.34,19.54,35.37,19.54,35.37S299.05,157.67,303.26,89.5Z" fill="#000000"/><path d="M585.51,55.8s1.15,31.4-2.68,42.13-14,20-12.12,32.29,8,27.58,2.55,35.75c-10,14.93,5.36,39.19,3.06,45.7C584,194.82,596.62,106.35,585.51,55.8Z" fill="#000000"/><path d="M743.3,213.59s20.87-2.41,24.51-14.94c3.45-11.87,7.66-7.66,14.94-10.34s2.68-11.11,13.4-21.07C795,187.54,787,219.33,787,219.33S748.66,212.44,743.3,213.59Z" fill="#000000"/><path d="M129.39,176.05s2.29,21.07,10.34,25.28,20.29,2.3,24.89,6.51,16.09,8,16.09,8l-42.9,5Z" fill="#000000"/><path d="M796.92,160.35s3.83-11.87-8.43-37.91-3.44-20.3-1.91-32.56-.1-30-7.76-41.87,0-15.7,0-15.7S804.58,77.24,796.92,160.35Z" fill="#000000"/><path d="M130.92,220.1s-.06-16.07-15.45-14.81c-12.51,1-8.42-16.6-15.32-17.36s-2.81-21.71-13.79-30.39c-10.54-8.34-13.14,49.41-.51,74.3C95.43,223,130.92,220.1,130.92,220.1Z" fill="#000000"/><path d="M593.17,215.12s27.19-6.9,38.3-10,20.3-5.36,25.66-2.68S681.9,192.23,692.36,191c25.92-3.06,21.32,18.38,52.73,22.47C745.09,213.46,677.05,205.54,593.17,215.12Z" fill="#000000"/><path d="M198.32,214.35s21.45-1.53,32.94-9.19,21.06-4.21,27.57,0,14.17,1.15,20.3-2.3S311.3,217.8,311.3,217.8A916.18,916.18,0,0,0,198.32,214.35Z" fill="#000000"/><path d="M52.53,290.31S28,215.24,26.88,172.73c-.77-23.36,16.85-26,26.42-14.55C43,153,31.94,156.48,31.73,171.84,31.22,208.1,52.53,290.31,52.53,290.31Z" style="fill:#fff;"/><path d="M888.45,160c-2.68-7.09-29.87-17.62-32.94,11.1-3.57,33.53-5.74,82-12.63,102.64,13-23,15.7-82.72,17.61-101.49C862.48,152.73,877.73,155.18,888.45,160Z" style="fill:#fff;"/><path d="M385.22,214.35s-39.83,3.45-51.32,4.21,51.49,5,77.36,18.39c23,11.87,31.4,16.47,50.55,15.32,20.41-4,20.73-5.36,36.77-14.56,0,0,19.15-16.08,53.23-14.93s-14.93-7.66-14.93-7.66l-93.45-3.45Z" fill="#000000"/></svg></g></svg>