<?xml version="1.0" encoding="UTF-8"?><svg version="1.1" xmlns="http://www.w3.org/2000/svg" xmlns:xlink="http://www.w3.org/1999/xlink" viewBox="0 0 1600 1200" width="1600" height="1200" x="0px" y="0px">
    
    
    <!-- ITEM 0 -->
    <g>
        <defs>
            <clipPath id="clip-path-id-viewbox-item-0">
                <rect x="0.0" y="0.0" width="649.81" height="614.48"/>
            </clipPath>
        </defs>
        <g transform="translate(223.0 18.0) rotate(0.0 549.0 519.5) scale(1.6897246887551747 1.690860565030595)">
            <g clip-path="url(#clip-path-id-viewbox-item-0)" transform="translate(-0.0 -0.0)">
                <title>abstract_background_22</title><path d="M34.82,117.86C-57.1,269.51,48.32,431.58,172.69,456.79c85,17.24,95.29,58.94,197.62,126.38,101.11,66.64,262,26.43,276.89-116S612.74,195.9,502.44,93.73C362.27-36.1,126.73-33.8,34.82,117.86Z" style="fill:#fece2f;"/>
            </g>
        </g>
    </g>
    
    <!-- ITEM 1 -->
    <g>
        <defs>
            <clipPath id="clip-path-id-viewbox-item-1">
                <rect x="0.0" y="0.0" width="444.65" height="383.84"/>
            </clipPath>
        </defs>
        <g transform="translate(266.0 221.0) rotate(0.0 367.0 317.5) scale(1.650736534352862 1.6543351396415173)">
            <g clip-path="url(#clip-path-id-viewbox-item-1)" transform="translate(-0.0 -0.0)">
                <title>messaging__left_hand</title><path d="M1,340.39s18.31-82.46,27.77-108.92c12.22-34.2,27.63-59.17,79-121.92C138.17,68.8,139.6,34.6,143.42,15.46,148.25-8.69,178.22-2,180.82,31c2.86,36.14-6.79,62.75-16.57,95.89,0,0,140.72-24.45,169.52-99.43C341.38-1.29,380,.34,368.54,40,349.3,106.88,259.33,147.31,259.33,147.31S337,117.7,385.93,62.82c30.26-33.95,49.34-1.76,29.88,24.45-40.75,54.88-127.14,94.54-127.14,94.54,39.67-4.35,90.74-32.06,121.58-57,29.9-24.17,46,4.7,21.32,31.45-38,41.3-120.08,69.55-120.08,69.55s56.83-4.55,89.11-27.17,39.66,4.35,17.93,21.74C346,278.45,208.93,296.73,168.6,307.86c-31.52,8.7-56.51,75-56.51,75" style="fill:#fece2f;"/><path d="M430.66,201.19s-2.89-13.58-27.53,1.09-44.37,15.21-44.37,15.21,31-9.6,40.93-18.11S431.75,182.53,430.66,201.19Z" style="fill:#fff;"/><path d="M443,125.12s-12.86-11.41-29.34,2.54S368,159.17,347.35,163.88c13.77-6.88,47.63-25.54,62.3-38.4S439.36,112.81,443,125.12Z" style="fill:#fff;"/><path d="M366.19,12.47s-18.31-4.52-27,19.2-39.64,55-70.85,59.55c7.79-4,45.33-20.79,64.71-62.09C338.66,12.65,352.79.34,366.19,12.47Z" style="fill:#fff;"/><path d="M419.62,52.5s-13.37-2.21-26.05,11.92S338,117.27,304.43,125.67c31.88-15.94,70.79-50.73,82.22-64.12C397.75,48.56,412.69,44.35,419.62,52.5Z" style="fill:#fff;"/><path d="M145.05,10.3A66.11,66.11,0,0,0,143,20.44l-.25.32s0,.39,0,1.15c-.69,4.89-1.24,10.1-1.51,13.65v.06c-2.93,15-11.4,40.79-35.46,75.27-23.07,30.26-56.41,71.94-72.48,107.87C24.38,238.72.89,340.46.89,340.46s8.88,3.62,19.92,7.61c-7.6-34.77,10.87-96.17,20.11-117.36s21.14-5,25.51-35.7c6.07-12.56,25.79-52.45,38-66.25,14.4-16.3,46.91-66.34,47.84-110.19,3.05-13.89,9-15.67,21.05-9.09C168.42,2.69,154.56-5.46,145.05,10.3Z" style="fill:#fff;"/><path d="M315.3,240.4a1,1,0,0,1-1-.76c-13.08-54.47-70.82-104.93-71.4-105.43a1,1,0,1,1,1.31-1.51c.59.5,58.81,51.37,72,106.47a1,1,0,0,1-.74,1.21Z"/><path d="M398.24,158.9a1,1,0,0,1-.64-.23,29.88,29.88,0,0,1-9-17.46,1,1,0,0,1,2-.3,28.21,28.21,0,0,0,8.35,16.23,1,1,0,0,1,.12,1.41A1,1,0,0,1,398.24,158.9Z"/><path d="M351.7,183.9a1,1,0,0,1-.65-.24,29.79,29.79,0,0,1-9-17.46,1,1,0,1,1,2-.3,28.1,28.1,0,0,0,8.35,16.23,1,1,0,0,1,.11,1.41A1,1,0,0,1,351.7,183.9Z"/><path d="M373.61,101.31a1,1,0,0,1-.64-.24,29.79,29.79,0,0,1-9-17.45,1,1,0,0,1,.84-1.14,1,1,0,0,1,1.14.84,28.26,28.26,0,0,0,8.35,16.23,1,1,0,0,1-.65,1.76Z"/><path d="M335.94,62.55a1,1,0,0,1-.41-.09c-.5-.23-12.1-5.71-11.72-17.47a1,1,0,0,1,2,.07c-.33,10.42,10.45,15.54,10.56,15.59a1,1,0,0,1-.42,1.9Z"/><path d="M291.21,102a1,1,0,0,1-.64-.23c-.41-.34-10.08-8.48-11.57-16.53a1,1,0,0,1,2-.36c1.37,7.35,10.79,15.27,10.89,15.35a1,1,0,0,1-.64,1.77Z"/><path d="M328.52,135a1,1,0,0,1-.65-.24,29.84,29.84,0,0,1-9-17.46,1,1,0,0,1,.85-1.14,1,1,0,0,1,1.13.85,28.23,28.23,0,0,0,8.35,16.22,1,1,0,0,1,.12,1.41A1,1,0,0,1,328.52,135Z"/><path d="M397.34,224.1a1.05,1.05,0,0,1-.65-.23,29.84,29.84,0,0,1-9-17.46,1,1,0,0,1,.84-1.14,1,1,0,0,1,1.14.84A28.33,28.33,0,0,0,398,222.34a1,1,0,0,1-.65,1.76Z"/><path d="M361.35,237.67a1,1,0,0,1-.75-.34,29.82,29.82,0,0,1-6.51-18.55,1,1,0,0,1,1-1h0a1,1,0,0,1,1,1,28.28,28.28,0,0,0,6,17.23,1,1,0,0,1-.74,1.67Z"/><path d="M102.86,254.62S186,241,164.79,126.93" style="fill:#fece2f;"/><path d="M102.85,255.62a1,1,0,0,1-.16-2c.29,0,29-5,47.89-31.95,16.16-23,20.61-54.83,13.23-94.56a1,1,0,0,1,2-.37c7.48,40.3,2.91,72.63-13.59,96.11C132.8,250.45,103.31,255.55,103,255.6Z"/><path d="M144.06,41.19A10.2,10.2,0,0,1,139.39,40a1,1,0,0,1,1-1.73s3.27,1.84,6.05.41c2.36-1.22,3.89-4.57,4.41-9.7,1.55-15.26-4.53-21.39-4.59-21.45a1,1,0,0,1,0-1.42,1,1,0,0,1,1.41,0c.28.26,6.85,6.77,5.19,23.1-.6,5.92-2.45,9.72-5.5,11.27A7.08,7.08,0,0,1,144.06,41.19Z"/><path d="M112.09,383.84a1.07,1.07,0,0,1-.35-.06,1,1,0,0,1-.58-1.29c1-2.73,25.53-66.86,57.17-75.59,8-2.22,19.61-4.66,34.26-7.75,58.84-12.4,157.33-33.16,215.31-79.54,11.07-8.86,14.32-20.4,10.41-25.62-3.21-4.29-12-5.1-27.14,5.48-32.13,22.51-89,27.3-89.6,27.35a1,1,0,0,1-1.06-.8,1,1,0,0,1,.66-1.15c.82-.28,82.24-28.64,119.66-69.27,13.36-14.51,14.27-29.06,8.33-35.39-4.5-4.8-14.3-5.91-28.28,5.39-30.21,24.42-81.3,52.73-122.1,57.2a1,1,0,0,1-1.07-.72,1,1,0,0,1,.55-1.18c.86-.39,86.62-40.19,126.75-94.23,10.19-13.73,9.39-29.17,2.25-35-5.62-4.58-16.61-3.88-30.58,11.81-48.5,54.42-126.21,84.46-127,84.75a1,1,0,0,1-.77-1.84c.9-.41,89.77-41,108.66-106.67,3.48-12.11,2.53-21.7-2.67-27-3.44-3.51-8.45-4.73-13.73-3.34-6,1.59-13.5,7.26-16.44,18.4a.42.42,0,0,1,0,.1c-15,39.07-60.55,64.2-96.12,78.41a420.37,420.37,0,0,1-74.16,21.65,1,1,0,0,1-.91-.32,1,1,0,0,1-.22-.95q1.56-5.3,3.11-10.39c8.56-28.46,16-53,13.43-85.15-1.46-18.37-11.64-28.54-21-29.09-7.16-.41-12.7,4.8-14.47,13.64-.56,2.8-1.08,6-1.63,9.39-3.24,20-8.14,50.17-34.22,85.1C59.26,170.38,42.32,196.53,29.71,231.8,20.38,257.9,2.16,339.78,2,340.6a1,1,0,0,1-1.2.76A1,1,0,0,1,0,340.17c.19-.83,18.44-82.82,27.81-109,12.7-35.53,29.71-61.8,79.14-122.22,25.76-34.5,30.62-64.39,33.83-84.18.55-3.4,1.07-6.62,1.64-9.47C144.42,5.38,150.72-.48,159,0c10.18.6,21.29,11.42,22.83,30.93,2.56,32.48-4.88,57.22-13.51,85.88q-1.31,4.34-2.64,8.81a422.37,422.37,0,0,0,72.2-21.26c35.17-14,80.18-38.84,94.95-77.19,2.65-10,9.49-17.56,17.85-19.77,6-1.58,11.71-.17,15.67,3.88,3.32,3.39,8.14,11.66,3.16,29-10,34.81-39.34,62.32-62.18,79.26-8.22,6.1-16.22,11.3-23.23,15.54,27-13.31,70.06-38.1,101.09-72.92,18.77-21.07,30.27-14.54,33.34-12,7.83,6.37,9.33,22.61-1.9,37.74C382.23,134.17,314.73,170,294.77,180c39.27-6.41,86.38-32.91,114.85-55.92,15.05-12.17,25.88-10.67,31-5.21,6.55,7,5.86,22.72-8.32,38.11-30.9,33.55-91.35,58.75-112.75,67,16.85-2.2,56-8.94,80.48-26.08,20.48-14.35,28.05-7.48,29.88-5,4.46,6,1.61,18.48-10.76,28.38C360.8,267.85,262,288.67,203,301.11c-14.61,3.08-26.16,5.51-34.14,7.72-30.66,8.46-55.58,73.71-55.83,74.36A1,1,0,0,1,112.09,383.84Z"/><path d="M230.54,293.74s-40.93,8.69-55.06,11.95-35.86,22.09-44.92,38.76-19.19,38.75-19.19,38.75l-15.58-6.15s.18-61,12.5-71.9,24.09,13.94,54.15-2.72C192.27,285.9,224,288.66,230.54,293.74Z"/><path d="M426.5,209.7s-15.58,14.13-21.74,16.66-9.05.73-14.12,7.61-20.29,11.95-23.91,11.95S353,257.15,353,257.15s34.72-15.73,53.61-27.89C428,215.5,426.5,209.7,426.5,209.7Z"/><path d="M421.06,76s-10.5,21.37-31.15,27.89c-7.24,2.54-15.21,25.72-38,41.3C387.74,119.15,414.18,97.41,421.06,76Z"/><path d="M437,149.21s-12.68,13-26.8,15.94-26.44,25.35-43.11,28.25-23.18,17-15.57,15.58S424.69,171.31,437,149.21Z"/><path d="M166.42,184.8c-6,29.88-20.1,55.69-62.48,70.36-28.56,9.88-27.35-6.7-17.57-8.51s21.38,2.53,30.61-17C123.24,216.37,154.47,214.68,166.42,184.8Z"/><path d="M180,57.12c-6.25,35-15.63,40-30.7,63-5.43,13.86,15.3,11.68,18.93,38.13,0-12-1.09-23.55-4-31.34C165.7,119.51,180.55,84.83,180,57.12Z"/>
            </g>
        </g>
    </g>
    
    <!-- ITEM 2 -->
    <g>
        <defs>
            <clipPath id="clip-path-id-viewbox-item-2">
                <rect x="0.0" y="0.0" width="174.07" height="333.97"/>
            </clipPath>
        </defs>
        <g transform="translate(564.0 146.0) rotate(0.0 146.5 279.0) scale(1.6832308841270753 1.67080875527742)">
            <g clip-path="url(#clip-path-id-viewbox-item-2)" transform="translate(-0.0 -0.0)">
                <title>messaging__phone</title><rect x="1" y="1" width="172.07" height="331.97" rx="40.6"/><path d="M132.47,334H41.6A41.64,41.64,0,0,1,0,292.38V41.6A41.64,41.64,0,0,1,41.6,0h90.87a41.64,41.64,0,0,1,41.6,41.6V292.38A41.64,41.64,0,0,1,132.47,334ZM41.6,2A39.64,39.64,0,0,0,2,41.6V292.38A39.64,39.64,0,0,0,41.6,332h90.87a39.64,39.64,0,0,0,39.6-39.59V41.6A39.64,39.64,0,0,0,132.47,2Z"/><rect x="11.45" y="31.02" width="151.16" height="253.55" style="fill:#fece2f;"/><polygon points="11.45 284.57 27.3 284.57 143.7 31.02 105.47 31.02 11.45 235.82 11.45 284.57" style="fill:#fff;"/><polygon points="83.09 31.02 70.35 31.02 11.45 159.31 11.45 187.06 83.09 31.02" style="fill:#fff;"/><rect x="64.79" y="14.76" width="44.49" height="5.36" rx="2.68" style="fill:#fece2f;"/><path d="M106.6,21.12H67.47a3.68,3.68,0,1,1,0-7.36H106.6a3.68,3.68,0,1,1,0,7.36ZM67.47,15.76a1.68,1.68,0,1,0,0,3.36H106.6a1.68,1.68,0,1,0,0-3.36Z"/><path d="M46.23,86.16H40.11A12.25,12.25,0,0,1,27.87,73.93V67.8A12.25,12.25,0,0,1,40.11,55.57h6.12A12.25,12.25,0,0,1,58.46,67.8v6.13A12.25,12.25,0,0,1,46.23,86.16ZM40.11,57.57A10.25,10.25,0,0,0,29.87,67.8v6.13A10.25,10.25,0,0,0,40.11,84.16h6.12A10.24,10.24,0,0,0,56.46,73.93V67.8A10.24,10.24,0,0,0,46.23,57.57Z"/><path d="M91.26,86.16H85.14A12.25,12.25,0,0,1,72.9,73.93V67.8A12.25,12.25,0,0,1,85.14,55.57h6.12A12.25,12.25,0,0,1,103.49,67.8v6.13A12.25,12.25,0,0,1,91.26,86.16ZM85.14,57.57A10.24,10.24,0,0,0,74.9,67.8v6.13A10.24,10.24,0,0,0,85.14,84.16h6.12a10.24,10.24,0,0,0,10.23-10.23V67.8A10.24,10.24,0,0,0,91.26,57.57Z"/><path d="M136.28,86.16h-6.12a12.25,12.25,0,0,1-12.23-12.23V67.8a12.25,12.25,0,0,1,12.23-12.23h6.12A12.25,12.25,0,0,1,148.52,67.8v6.13A12.25,12.25,0,0,1,136.28,86.16Zm-6.12-28.59A10.24,10.24,0,0,0,119.93,67.8v6.13a10.24,10.24,0,0,0,10.23,10.23h6.12a10.24,10.24,0,0,0,10.24-10.23V67.8a10.24,10.24,0,0,0-10.24-10.23Z"/><path d="M46.23,128.68H40.11a12.24,12.24,0,0,1-12.24-12.23v-6.12A12.24,12.24,0,0,1,40.11,98.1h6.12a12.24,12.24,0,0,1,12.23,12.23v6.12A12.24,12.24,0,0,1,46.23,128.68ZM40.11,100.1a10.25,10.25,0,0,0-10.24,10.23v6.12a10.25,10.25,0,0,0,10.24,10.23h6.12a10.24,10.24,0,0,0,10.23-10.23v-6.12A10.24,10.24,0,0,0,46.23,100.1Z"/><path d="M91.26,128.68H85.14A12.24,12.24,0,0,1,72.9,116.45v-6.12A12.24,12.24,0,0,1,85.14,98.1h6.12a12.24,12.24,0,0,1,12.23,12.23v6.12A12.24,12.24,0,0,1,91.26,128.68ZM85.14,100.1A10.24,10.24,0,0,0,74.9,110.33v6.12a10.24,10.24,0,0,0,10.24,10.23h6.12a10.24,10.24,0,0,0,10.23-10.23v-6.12A10.24,10.24,0,0,0,91.26,100.1Z"/><path d="M136.28,128.68h-6.12a12.24,12.24,0,0,1-12.23-12.23v-6.12A12.24,12.24,0,0,1,130.16,98.1h6.12a12.24,12.24,0,0,1,12.24,12.23v6.12A12.24,12.24,0,0,1,136.28,128.68Zm-6.12-28.58a10.24,10.24,0,0,0-10.23,10.23v6.12a10.24,10.24,0,0,0,10.23,10.23h6.12a10.24,10.24,0,0,0,10.24-10.23v-6.12a10.24,10.24,0,0,0-10.24-10.23Z"/><path d="M46.23,171.21H40.11A12.25,12.25,0,0,1,27.87,159v-6.12a12.25,12.25,0,0,1,12.24-12.24h6.12a12.25,12.25,0,0,1,12.23,12.24V159A12.25,12.25,0,0,1,46.23,171.21Zm-6.12-28.59a10.25,10.25,0,0,0-10.24,10.24V159a10.25,10.25,0,0,0,10.24,10.23h6.12A10.24,10.24,0,0,0,56.46,159v-6.12a10.24,10.24,0,0,0-10.23-10.24Z"/><path d="M91.26,171.21H85.14A12.25,12.25,0,0,1,72.9,159v-6.12a12.25,12.25,0,0,1,12.24-12.24h6.12a12.25,12.25,0,0,1,12.23,12.24V159A12.25,12.25,0,0,1,91.26,171.21Zm-6.12-28.59A10.25,10.25,0,0,0,74.9,152.86V159a10.24,10.24,0,0,0,10.24,10.23h6.12A10.24,10.24,0,0,0,101.49,159v-6.12a10.24,10.24,0,0,0-10.23-10.24Z"/><path d="M136.28,171.21h-6.12A12.25,12.25,0,0,1,117.93,159v-6.12a12.25,12.25,0,0,1,12.23-12.24h6.12a12.25,12.25,0,0,1,12.24,12.24V159A12.25,12.25,0,0,1,136.28,171.21Zm-6.12-28.59a10.24,10.24,0,0,0-10.23,10.24V159a10.24,10.24,0,0,0,10.23,10.23h6.12A10.24,10.24,0,0,0,146.52,159v-6.12a10.25,10.25,0,0,0-10.24-10.24Z"/><path d="M46.23,212.25H40.11A12.25,12.25,0,0,1,27.87,200v-6.12a12.25,12.25,0,0,1,12.24-12.23h6.12a12.25,12.25,0,0,1,12.23,12.23V200A12.25,12.25,0,0,1,46.23,212.25Zm-6.12-28.59a10.25,10.25,0,0,0-10.24,10.23V200a10.25,10.25,0,0,0,10.24,10.24h6.12A10.24,10.24,0,0,0,56.46,200v-6.12a10.24,10.24,0,0,0-10.23-10.23Z"/><path d="M91.26,212.25H85.14A12.25,12.25,0,0,1,72.9,200v-6.12a12.25,12.25,0,0,1,12.24-12.23h6.12a12.25,12.25,0,0,1,12.23,12.23V200A12.25,12.25,0,0,1,91.26,212.25Zm-6.12-28.59A10.24,10.24,0,0,0,74.9,193.89V200a10.25,10.25,0,0,0,10.24,10.24h6.12A10.24,10.24,0,0,0,101.49,200v-6.12a10.24,10.24,0,0,0-10.23-10.23Z"/><path d="M136.28,212.25h-6.12A12.25,12.25,0,0,1,117.93,200v-6.12a12.25,12.25,0,0,1,12.23-12.23h6.12a12.25,12.25,0,0,1,12.24,12.23V200A12.25,12.25,0,0,1,136.28,212.25Zm-6.12-28.59a10.24,10.24,0,0,0-10.23,10.23V200a10.24,10.24,0,0,0,10.23,10.24h6.12A10.25,10.25,0,0,0,146.52,200v-6.12a10.24,10.24,0,0,0-10.24-10.23Z"/><path d="M87,318.44A11.36,11.36,0,1,1,98.4,307.08,11.37,11.37,0,0,1,87,318.44Zm0-20.72a9.36,9.36,0,1,0,9.36,9.36A9.37,9.37,0,0,0,87,297.72Z" style="fill:#fece2f;"/><path d="M162.62,285.57H11.45a1,1,0,0,1-1-1V31a1,1,0,0,1,1-1H162.62a1,1,0,0,1,1,1V284.57A1,1,0,0,1,162.62,285.57Zm-150.17-2H161.62V32H12.45Z"/>
            </g>
        </g>
    </g>
    
    <!-- ITEM 3 -->
    <g>
        <defs>
            <clipPath id="clip-path-id-viewbox-item-3">
                <rect x="0.0" y="0.0" width="424.3" height="380.29"/>
            </clipPath>
        </defs>
        <g transform="translate(693.0 508.0) rotate(0.0 376.0 337.5) scale(1.772330897949564 1.7749612138105129)">
            <g clip-path="url(#clip-path-id-viewbox-item-3)" transform="translate(-0.0 -0.0)">
                <title>messaging__right_hand</title><path d="M423.3,295.07C335,226,345.4,132.12,282.94,76.65c-38.46-34.15-68.63-35.13-76.43-19.56-10.5-2.53-26.69-4-35.22,10.63-18.44-6.49-35.5.52-41.33,9.33C89.72,35.2,59.27,19.6,32.83,5.55c-30-16-42.79,13.86-20.65,30.72,38.05,28.95,68.35,61.24,96.19,97.56s34.75,51.75,34.75,51.75-20.94-14.16-68.45-27.07-78.43,22.15-33.19,38.24c42,14.93,55.72,33.82,103.29,65.85,35.33,23.79,128.57,54.75,192.14,116.69" style="fill:#fece2f;"/><path d="M158.7,271.16S198,279.91,253,302.37C311.11,326.05,353,364,353,364l-16.08,15.44C327.4,368.87,289.53,337,253,318.16,212.32,297.21,158.7,271.16,158.7,271.16Z" style="fill:#fff;"/><path d="M181.25,72.85S145.12,62,135.61,82.9c-2.17-2.17-5.71-6.52-5.71-6.52S146.2,54.37,181.25,72.85Z" style="fill:#fff;"/><path d="M218.47,62.52s-32.88-8.69-41.57,8.15a57.9,57.9,0,0,1-5.61-3S181.79,45.41,218.47,62.52Z" style="fill:#fff;"/><path d="M308.3,105.63s22.82,49.26,30.42,95.26c1.09,25.72,15.94,17,20.65,34.05,3.63,13.14-2.54,38.58,52.16,71.9,5.07-4.71,12.31-11.59,12.31-11.59-26.69-18.83-45.44-45.72-61.57-73.71C342.34,182.06,327.13,137.87,308.3,105.63Z"/><path d="M252.06,54.65s-38.57-8.15-38,5.7c-2.45-1.36-6.25-3-6.25-3S209.68,38.35,252.06,54.65Z" style="fill:#fff;"/><path d="M141,259.93s-40.5-39.66-55.35-48.36-43.9-22.95-50.28-27.5c-5.07-3.62-16.8-11.07,2-25.19C19.25,164,14,181.13,27,188.78c21,12.31,34.7,14.1,57.79,29.59C89.22,221.34,141,259.93,141,259.93Z" style="fill:#fff;"/><path d="M15.62,1S.83,13.06,12.91,25.47c13,13.4,98,70.47,127,153C109.8,128.81,43.51,57.45,21.06,42.6S.05,20.15,1.13,12.9,11.28,1.31,15.62,1Z" style="fill:#fff;"/><path d="M158.88,104.46a.87.87,0,0,1-.35-.07c-5.82-2.16-8.94-5.19-13.67-9.77l-1-1-14.66-16a1,1,0,1,1,1.47-1.35l14.62,15.91.94.9c4.71,4.56,7.55,7.32,13,9.34a1,1,0,0,1-.35,1.94Z"/><path d="M198.36,88a1,1,0,0,1-.72-.31,88.89,88.89,0,0,0-27.21-19.33,1,1,0,1,1,.81-1.83,90.81,90.81,0,0,1,27.85,19.79,1,1,0,0,1-.73,1.68Z"/><path d="M235.85,76.93a1,1,0,0,1-.72-.32A77.69,77.69,0,0,0,206,57.9a1,1,0,1,1,.67-1.89,79.74,79.74,0,0,1,29.87,19.23,1,1,0,0,1,0,1.41A1,1,0,0,1,235.85,76.93Z"/><path d="M55.55,202.82a1,1,0,0,1-1-1c0-.56-.28-13.79,4.11-20.49.22-.34.8-1.22-.93-2.72-5.25-4.55-24.22-7.84-31.68-1.26a6.36,6.36,0,0,0-1.79,7.71,1,1,0,0,1-1.8.88,8.28,8.28,0,0,1,2.31-10.12c8.37-7.39,28.64-3.6,34.27,1.27,2.75,2.39,1.82,4.53,1.29,5.33-4,6.18-3.78,19.22-3.78,19.35a1,1,0,0,1-1,1Z"/><path d="M151.55,203.43a1,1,0,0,1-.93-.61c-.06-.15-6.27-14.95-11.59-22.92a1,1,0,0,1,1.67-1.11c5.42,8.13,11.51,22.64,11.77,23.26a1,1,0,0,1-.54,1.31A1,1,0,0,1,151.55,203.43Z"/><path d="M336.91,380.29a1,1,0,0,1-.7-.29c-43.36-42.25-101.42-70.46-143.8-91.05-19.84-9.64-37-18-48.2-25.52-15.78-10.63-27.81-19.79-38.43-27.87-21.3-16.22-36.69-27.94-64.64-37.87-17-6-25.23-15.57-22.11-25.52,4.15-13.27,27.6-22.31,55.9-14.62,37.09,10.07,58.25,21,65.69,25.34-3.33-6.15-12.5-21.64-33.05-48.45-30.52-39.82-61-70.76-96-97.38C-.69,27.73-2.21,14.74,2.58,7.25,6.74.75,17.29-3.84,33.3,4.67L35.42,5.8C61.47,19.62,91,35.28,129.84,75.48c6.92-9.11,23.62-14.76,41-9C177.58,55.68,189.4,52.12,206,55.94c2.64-4.72,7.24-7.82,13.38-9,16.28-3.13,40.28,7.7,64.23,29,28.2,25,41.63,57.83,55.84,92.54,17.71,43.24,36,87.95,84.48,125.84a1,1,0,1,1-1.24,1.58c-48.87-38.23-67.28-83.18-85.09-126.66-14.12-34.49-27.46-67.07-55.31-91.8-23.49-20.86-46.86-31.51-62.53-28.5C214,50,209.68,53,207.41,57.54a1,1,0,0,1-1.13.52c-16.4-4-27.87-.53-34.13,10.16a1,1,0,0,1-1.19.44c-17.16-6-34.21-.06-40.17,8.94a1,1,0,0,1-.74.44,1,1,0,0,1-.82-.3c-39-40.62-68.64-56.32-94.75-70.18L32.36,6.44C17.57-1.42,8.15,2.26,4.26,8.33,0,15.06,1.48,26.86,12.79,35.47c35.11,26.72,65.74,57.79,96.37,97.75,27.59,36,34.59,51.31,34.87,51.95a1,1,0,0,1-.27,1.17,1,1,0,0,1-1.2.07c-.21-.14-21.39-14.23-68.16-26.93-26.78-7.28-49.67,1.16-53.47,13.28-2.75,8.8,5.05,17.42,20.88,23,28.24,10,43.74,21.84,65.18,38.17,10.6,8.06,22.61,17.21,38.34,27.8,11.1,7.48,28.18,15.78,47.95,25.38C235.79,307.8,294,336.09,337.61,378.57a1,1,0,0,1,0,1.41A1,1,0,0,1,336.91,380.29Z"/><path d="M16.62,21.23a4.37,4.37,0,0,1-1-.11c-4.65-1.07-10.42-6.42-11.87-11a5.48,5.48,0,0,1,.88-5.59A1,1,0,0,1,6.08,5.87a3.54,3.54,0,0,0-.46,3.65c1.25,4,6.41,8.73,10.41,9.65,4.42,1,15.13-8.86,18.89-12.76A1,1,0,0,1,36.36,7.8C35,9.24,23.22,21.23,16.62,21.23Z"/><path d="M82.36,72.22a1,1,0,0,1-.9-1.44C87,59.38,99.21,55.48,99.72,55.32a1,1,0,0,1,.6,1.91c-.12,0-11.89,3.82-17.06,14.43A1,1,0,0,1,82.36,72.22Z"/><path d="M91.33,74.94a1,1,0,0,1-.9-1.44c4-8.2,12.75-11,13.12-11.12a1,1,0,0,1,.6,1.91c-.09,0-8.31,2.68-11.92,10.08A1,1,0,0,1,91.33,74.94Z"/><path d="M77.47,62.71a1,1,0,0,1-.44-.1,1,1,0,0,1-.46-1.34c4-8.19,12.76-11,13.13-11.11a1,1,0,1,1,.59,1.91c-.08,0-8.31,2.68-11.92,10.08A1,1,0,0,1,77.47,62.71Z"/><path d="M83.25,218.34a1,1,0,0,1-1-.69C77,201,88.67,187.17,89.17,186.59a1,1,0,1,1,1.52,1.3c-.12.13-11.42,13.59-6.49,29.15a1,1,0,0,1-.65,1.26A1,1,0,0,1,83.25,218.34Z"/><path d="M75.33,213.24a1,1,0,0,1-.89-.55c-4.25-8.5.27-17.89.46-18.29a1,1,0,0,1,1.8.89c0,.08-4.27,8.9-.47,16.5a1,1,0,0,1-.45,1.34A1,1,0,0,1,75.33,213.24Z"/><path d="M175.54,162.41a1,1,0,0,1-.89-.55c-4.74-9.47-14.32-17.53-14.42-17.61a1,1,0,0,1,1.28-1.54c.41.34,10,8.4,14.93,18.25a1,1,0,0,1-.9,1.45Z"/><path d="M213.58,140.13a1,1,0,0,1-1-.73c-2.58-9.31-14.15-17.29-14.27-17.37a1,1,0,1,1,1.13-1.65c.5.34,12.29,8.47,15.07,18.49a1,1,0,0,1-.7,1.23Z"/><path d="M244.55,122a1,1,0,0,1-1-.73c-2-7.16-10.92-13.32-11-13.39a1,1,0,0,1,1.13-1.65c.39.27,9.62,6.64,11.81,14.51a1,1,0,0,1-.7,1.23Z"/><path d="M276.06,99.75a1,1,0,0,1-1-.74c-2-7.15-10.92-13.32-11-13.38a1,1,0,0,1-.27-1.39,1,1,0,0,1,1.39-.26c.39.26,9.63,6.63,11.81,14.5a1,1,0,0,1-.69,1.23A1.26,1.26,0,0,1,276.06,99.75Z"/><path d="M199.09,78.64c-4.44-3.17-12-5.88-21.19-8,6,4,13,9.24,17.93,15.22S208.87,86.07,199.09,78.64Z"/><path d="M235.8,67.44c-4.6-2.93-12.24-5.26-21.57-6.87,6.17,3.67,13.49,8.56,18.68,14.27S246,74.36,235.8,67.44Z"/><path d="M142,90.33s10.32,14.76,21.37,14.57c4.8-.09,4.25-5.79.27-7.69S142,90.33,142,90.33Z"/><path d="M108.71,170.1s19,14,27.17,28.94,20.1,11.13,15.21.54-7.74-14.81-7.74-14.81S116.86,171.46,108.71,170.1Z"/>
            </g>
        </g>
    </g>
    
</svg>