<svg xmlns="http://www.w3.org/2000/svg" version="1.1" viewBox="0 0 1688 3000" width="1688" height="3000">
<!--ITEM 1--><g><defs><clipPath id="clip-path-id-crop-item-1"><rect transform="scale(0.208757204610951 0.20882477196351418)" x="0.0" y="130" width="1388.0" height="1860"/></clipPath><clipPath id="clip-path-id-viewbox-item-1"><rect x="0.0" y="0.0" width="289.755" height="434.982"/></clipPath></defs><g clip-path="url(#clip-path-id-crop-item-1)" transform="translate(164.0 411.0) rotate(0.0 694.0 1041.5) scale(4.790253835136581 4.788703900391281)"><g clip-path="url(#clip-path-id-viewbox-item-1)" transform="translate(-0.0 -0.0)"><g>
	<g>
		<path style="fill:#FECE2F;" d="M288.755,418.024H2.425L118.168,4.911c2.137-7.122,61.611-6.054,63.392,0.356L288.755,418.024z"/>
	</g>
	<g>
		<ellipse style="fill:#FFFFFF;" cx="145.448" cy="417.956" rx="142.832" ry="17.026"/>
	</g>
	<g>
		<path style="fill:#fece2f;" d="M70.803,174.48c-0.091,0-0.182-0.012-0.272-0.038c-0.532-0.149-0.841-0.702-0.69-1.233    L104.979,48.8c0.149-0.533,0.706-0.845,1.233-0.69c0.532,0.149,0.841,0.702,0.69,1.233L71.764,173.752    C71.64,174.193,71.239,174.48,70.803,174.48z"/>
	</g>
	<g>
		<path style="fill:#fece2f;" d="M119.402,92.387c-0.053,0-0.106-0.004-0.16-0.013c-0.546-0.088-0.916-0.602-0.828-1.146    l12.092-74.886c0.088-0.545,0.603-0.919,1.146-0.828c0.546,0.088,0.916,0.602,0.828,1.146l-12.092,74.886    C120.309,92.037,119.884,92.387,119.402,92.387z"/>
	</g>
	<g>
		<path style="fill:#fece2f;" d="M179.87,149.435c-0.512,0-0.948-0.391-0.995-0.91L166.886,15.283    c-0.05-0.55,0.356-1.036,0.906-1.086c0.543-0.054,1.036,0.356,1.086,0.906l11.989,133.241c0.05,0.55-0.356,1.036-0.906,1.086    C179.931,149.434,179.901,149.435,179.87,149.435z"/>
	</g>
	<g>
		<path style="fill:#fece2f;" d="M132.498,127.404c-0.028,0-0.058-0.001-0.087-0.004c-0.55-0.047-0.958-0.531-0.91-1.082    l4.722-54.948c0.047-0.55,0.526-0.968,1.082-0.91c0.55,0.047,0.958,0.531,0.91,1.082l-4.722,54.948    C133.449,127.011,133.012,127.404,132.498,127.404z"/>
	</g>
	<g>
		<path style="fill:#fece2f;" d="M203.757,94.231c-0.446,0-0.854-0.301-0.969-0.754l-15.67-61.729    c-0.136-0.535,0.188-1.079,0.724-1.216c0.534-0.133,1.079,0.188,1.216,0.724l15.67,61.729c0.136,0.535-0.188,1.079-0.724,1.216    C203.921,94.222,203.839,94.231,203.757,94.231z"/>
	</g>
	<g>
		<path style="fill:#fece2f;" d="M220.376,159.285c-0.451,0-0.86-0.308-0.971-0.765l-10.446-43.211    c-0.13-0.537,0.2-1.077,0.736-1.207c0.536-0.133,1.077,0.201,1.207,0.736l10.446,43.211c0.13,0.537-0.2,1.077-0.736,1.207    C220.534,159.276,220.454,159.285,220.376,159.285z"/>
	</g>
	<g>
		<path style="fill:#fece2f;" d="M288.754,421.398c-0.443,0-0.849-0.297-0.966-0.746l-39.887-151.949    c-0.141-0.534,0.179-1.081,0.713-1.221c0.534-0.143,1.081,0.178,1.221,0.713l39.887,151.949c0.141,0.534-0.179,1.081-0.713,1.221    C288.924,421.388,288.838,421.398,288.754,421.398z"/>
	</g>
	<g>
		<path style="fill:#fece2f;" d="M212.513,371.961c-0.482,0-0.907-0.35-0.986-0.842l-4.83-30.154    c-0.088-0.545,0.284-1.059,0.829-1.146c0.545-0.092,1.058,0.283,1.146,0.829l4.83,30.154c0.088,0.545-0.284,1.059-0.829,1.146    C212.619,371.957,212.566,371.961,212.513,371.961z"/>
	</g>
	<g>
		<path style="fill:#fece2f;" d="M115.913,410.002c-0.031,0-0.062-0.001-0.094-0.004c-0.55-0.052-0.954-0.539-0.903-1.089    l6.793-73.125c0.052-0.55,0.521-0.955,1.089-0.903c0.55,0.052,0.954,0.539,0.903,1.089l-6.793,73.125    C116.86,409.613,116.424,410.002,115.913,410.002z"/>
	</g>
	<g>
		<path style="fill:#fece2f;" d="M47.061,373.439c-0.06,0-0.121-0.005-0.183-0.017c-0.543-0.101-0.902-0.622-0.802-1.165    l9.021-48.909c0.1-0.542,0.616-0.905,1.165-0.802c0.543,0.101,0.902,0.622,0.802,1.165l-9.021,48.909    C47.954,373.103,47.534,373.439,47.061,373.439z"/>
	</g>
	<g>
		<path style="fill:#fece2f;" d="M1.001,427.571c-0.089,0-0.178-0.012-0.267-0.036c-0.532-0.146-0.845-0.697-0.698-1.229    l24.217-87.846c0.147-0.532,0.703-0.843,1.229-0.698c0.532,0.146,0.845,0.697,0.698,1.229L1.964,426.837    C1.842,427.28,1.44,427.571,1.001,427.571z"/>
	</g>
	<g>
		<circle style="fill:#FFFFFF;" cx="104.15" cy="115.417" r="3.237"/>
	</g>
	<g>
		<circle style="fill:#FFFFFF;" cx="112.683" cy="127.187" r="4.708"/>
	</g>
</g>
</g></g></g><!--ITEM 2--><g><defs><clipPath id="clip-path-id-viewbox-item-2"><rect x="0.0" y="0.0" width="134.667" height="134.667"/></clipPath></defs><g transform="translate(996.0 2090.0) rotate(-15.129533439523588 261.5 261.5) scale(3.8836537533322937 3.8836537533322937)"><g clip-path="url(#clip-path-id-viewbox-item-2)" transform="translate(-0.0 -0.0)"><title>square_1 copy 5</title><g id="Layer_2-i2" data-name="Layer 2"><g id="square_1_copy_5-i2" data-name="square_1 copy 5"><rect width="134.667" height="134.667" fill="#fece2f"/></g></g></g></g></g><!--ITEM 3--><g><defs><clipPath id="clip-path-id-viewbox-item-3"><rect x="0.0" y="0.0" width="652.1" height="342.4"/></clipPath></defs><g transform="translate(103.0 2055.0) rotate(0.0 741.5 366.5) scale(2.2741910749884986 2.1407710280373835)"><g clip-path="url(#clip-path-id-viewbox-item-3)" transform="translate(-0.0 -0.0)"><g>
	<g>
		<path d="M263.5,335.5l-206-99c-3.4-1.6-2.7-10.5,0.8-10.5l351.3,2.6L638,338.2L263.5,335.5z" style="fill:#FECE2F;"/>
		<path d="M651.3,341.3l-388.5-2.9l-0.6-0.3l-206-99c-3.5-1.7-4.5-6.7-3.6-10.6c0.8-3.5,3-5.6,5.7-5.6l352,2.6l0.6,0.3    L651.3,341.3z M264.2,332.5l360.3,2.7L409.1,231.6L58.9,229c-0.2,0.4-0.5,1.4-0.5,2.7c0,1.3,0.4,2,0.6,2.2L264.2,332.5z" style="fill:#000000;"/>
	</g>
	<g>
		<path d="M645.3,231.9c-78.9,1.2-269.3-1.6-380.3-6.5L265,236c-0.1,13.1-0.5,83.6-0.4,96.1c0,0,0,0,0,0l381.7,7.3    c0.6,0,1-0.8,1-1.8l-0.9-103.9C646.3,232.7,645.9,231.9,645.3,231.9z" style="fill:#FECE2F;"/>
		<path d="M646.3,342.4C646.2,342.4,646.2,342.4,646.3,342.4L261.6,335l0-2.9c-0.1-12.5,0.3-83.2,0.4-96.2l0.1-13.7    l3.1,0.1c110.9,4.9,301.7,7.7,380.1,6.5c1,0,1.9,0.4,2.6,1.1c0.9,0.9,1.4,2.2,1.4,3.6l0.9,103.9c0,1.5-0.5,2.9-1.4,3.8    C648.2,342,647.2,342.4,646.3,342.4z M267.6,329.1l376.7,7.2l-0.9-101.4c-79,1.1-264.9-1.6-375.3-6.4L268,236    C267.9,248.1,267.5,311.1,267.6,329.1z M645.4,234.9L645.4,234.9C645.4,234.9,645.4,234.9,645.4,234.9L645.4,234.9z" style="fill:#000000;"/>
	</g>
	<g>
		<polygon points="262.8,309.3 89.3,229.1 91.7,142.3 263.4,220.9   " style="fill:#FFFFFF;"/>
		<path d="M265.7,313.9l-179.5-83l2.6-93.3L266.4,219L265.7,313.9z M92.4,227.2l167.4,77.4l0.6-81.8L94.6,146.9    L92.4,227.2z" style="fill:#000000;"/>
	</g>
	<g>
		<path d="M264.4,226.5l-206-99c-3.4-1.6-2.7-10.5,0.8-10.5l351.3,2.6l228.2,109.6L264.4,226.5z" style="fill:#FECE2F;"/>
		<path d="M652.1,232.4l-388.5-2.9l-0.6-0.3l-206-99c-3.5-1.7-4.5-6.7-3.6-10.6c0.8-3.5,3-5.6,5.7-5.6l352,2.6l0.6,0.3    L652.1,232.4z M265,223.5l360.3,2.7L409.9,122.6l-350.2-2.6c-0.2,0.4-0.5,1.4-0.5,2.7c0,1.3,0.4,2,0.6,2.2L265,223.5z" style="fill:#000000;"/>
	</g>
	<g>
		<g>
			<path d="M389.7,214.2l119.7-67.9c0.9-0.5,0.5-1.9-0.5-1.9l-357.5-21.9l-123.8,49L389.7,214.2z" style="fill:#FECE2F;"/>
			<path d="M390.3,217.3l-1-0.1L15.5,173L151,119.4l0.7,0l357.5,21.9c1.8,0.1,3.3,1.2,3.7,3c0.5,1.8-0.3,3.6-1.9,4.5     L390.3,217.3z M39.8,169.8l349.3,41.3l113-64.1l-350.2-21.5L39.8,169.8z" style="fill:#000000;"/>
		</g>
		<g>
			<g>
				<path d="M7,103.9c77.8,2.4,266.9,17.7,382.7,23.1l-0.1,10.4c-0.1,12.8-0.1,64.4-0.4,77.1      c0,0.1-381.6-22.8-381.6-22.8L7,103.9z" style="fill:#FECE2F;"/>
			</g>
			<g>
				<path d="M388.9,217.4c-0.9,0-2.2-0.1-4.2-0.2l-12.1-0.7c-10.4-0.6-25.3-1.5-43.2-2.6c-35.8-2.1-83.5-5-131.2-7.8      c-95.4-5.7-190.8-11.4-190.8-11.4l-2.8-0.2L4,100.8l3.1,0.1c40.5,1.2,111,6,185.7,11c69.5,4.7,141.4,9.5,197,12.1l2.9,0.1      l-0.1,13.3c0,4.3-0.1,12.9-0.1,22.9c-0.1,20.4-0.1,45.8-0.3,54.2l0,1.3l-0.9,0.9C390.6,217.3,390.4,217.5,388.9,217.4z       M10.5,188.8c32.9,2,341.5,20.5,375.7,22.5c0.1-10.5,0.2-32.7,0.3-51c0-10.1,0.1-18.7,0.1-23l0.1-7.5      c-55.2-2.6-125.9-7.4-194.2-12C119.7,113,50.8,108.4,10,107L10.5,188.8z" style="fill:#000000;"/>
			</g>
		</g>
		<g>
			<g>
				<polygon points="485.1,85.2 484.7,150.2 389.3,202.5 389.7,127     " style="fill:#FFFFFF;"/>
			</g>
			<g>
				<path d="M386.3,207.6l0.4-82.6l101.5-44.4l-0.5,71.4L386.3,207.6z M392.6,128.9l-0.3,68.5l89.4-49l0.4-58.6      L392.6,128.9z" style="fill:#000000;"/>
			</g>
		</g>
		<g>
			<g>
				<path d="M390.4,128.1l114.9-49.4c1-0.4,0.7-1.9-0.3-1.9L171.3,57.9L11.4,103c-1,0.4-0.8,1.9,0.3,1.9L390.4,128.1z" style="fill:#FECE2F;"/>
			</g>
			<g>
				<path d="M390.9,131.1l-0.7,0L11.5,108c-1.9-0.1-3.4-1.5-3.7-3.4c-0.3-1.9,0.8-3.7,2.6-4.3l0.2-0.1L171,54.9l0.5,0      l333.6,18.9c1.9,0.1,3.4,1.5,3.7,3.3c0.3,1.8-0.6,3.6-2.4,4.4L390.9,131.1z M23.7,102.7l366.2,22.4l106.5-45.7L171.7,60.9      L23.7,102.7z" style="fill:#000000;"/>
			</g>
		</g>
	</g>
	<g>
		<g>
			<path d="M20.1,91.8c-20.9-11.2-23.6-48.2-2.5-65l400-2l-8.3,36.7l65,0.7c0,4,0,4,0.2,7L395,103.5L20.1,91.8z" style="fill:#FECE2F;"/>
		</g>
		<g>
			<path d="M395.6,106.6l-0.7,0L19.3,94.7l-0.6-0.3C8.4,88.9,1.5,77.4,0.2,63.5c-1.4-15.4,4.5-30.4,15.5-39.1l0.8-0.6     l1,0l403.8-2.1l-8.3,36.7l64.3,0.7l0,3c0,3.9,0,3.9,0.2,6.7l0.2,2.1L395.6,106.6z M20.9,88.8l373.5,11.7l76.9-33.3     c0-0.7-0.1-1.3-0.1-2.1l-65.7-0.8l8.3-36.6l-395.2,2C9.7,37.3,5,50,6.2,63C7.2,74.5,12.7,84.1,20.9,88.8z" style="fill:#000000;"/>
		</g>
	</g>
	<g>
		<g>
			<path d="M397.6,79.8l-9.5,12.1C264.3,89.5,56.7,80.7,46.9,80.7c-17.5,0.1-24.6-11.2-24.5-21.5     c0.1-10.5,8-21,26.2-21.3c2.2,0,349,3.9,349,3.9c0,0,0,0,0,0.1C397.7,47,397.6,74.7,397.6,79.8z" style="fill:#FFFFFF;"/>
		</g>
		<g>
			<path d="M389.5,95l-1.5,0c-85.7-1.7-210-6.4-284.2-9.2c-31.3-1.2-54-2.1-56.9-2c-8.6,0-15.8-2.5-20.8-7.5     c-4.4-4.4-6.8-10.5-6.8-17c0.1-11.9,9.1-24,29.2-24.3c2.2,0,334.9,3.7,349.1,3.9l2.1,0l0.9,2.5l0,0.5c0.2,5.4,0.1,33.5,0.1,38     l0,1L389.5,95z M47.2,77.7c4.1,0,25.3,0.8,56.9,2c73.8,2.8,197,7.4,282.6,9.1l8-10.1c0-6.4,0.1-25.9,0-34     c-33.5-0.4-342.9-3.9-346-3.8c-17.1,0.2-23.2,10-23.3,18.3c0,4.9,1.8,9.5,5,12.7c3.8,3.8,9.5,5.8,16.5,5.7     C46.9,77.7,47,77.7,47.2,77.7z" style="fill:#000000;"/>
		</g>
	</g>
	<g>
		<g>
			<polygon points="393,103.5 246.9,118.4 53,108 4,100.6 32.1,92.9    " style="fill:#000000;"/>
		</g>
	</g>
	<g>
		<g>
			<polygon points="387.2,215.5 264.4,226.5 222.3,205.3    " style="fill:#000000;"/>
		</g>
		<g>
			<path d="M263.8,229.6l-55.9-28.2l179.5,11.1l0.1,6L263.8,229.6z M236.6,209.2l28.3,14.3l82.6-7.4L236.6,209.2z" style="fill:#000000;"/>
		</g>
	</g>
	<g>
		<g>
			<polygon points="389.4,44.5 452.6,28 453.3,68 390.1,90.5    " style="fill:#FFFFFF;"/>
		</g>
		<g>
			<path d="M387.2,94.7l-0.8-52.5l69.1-18.1l0.8,46L387.2,94.7z M392.5,46.8l0.6,39.5l57.2-20.4l-0.6-34L392.5,46.8z" style="fill:#000000;"/>
		</g>
	</g>
	<g>
		<g>
			<path d="M20.6,23.8L187.7,3l284,5.1c1.2,0,1.4,1.7,0.2,2l-73.4,20.5L31.7,24.2C30.6,24.2,19.4,24,20.6,23.8z" style="fill:#FECE2F;"/>
		</g>
		<g>
			<path d="M398.9,33.6l-0.4,0L31.7,27.2c-0.4,0-1.3,0-2.6-0.1c-1.7,0-3.9-0.1-5.6-0.2c-3.6-0.1-5.8-0.2-6-3l2.1-0.3     L187.6,0l0.2,0l284,5.1c2,0,3.7,1.5,3.9,3.5c0.2,2-1,3.8-3,4.3L398.9,33.6z M61.2,21.7l337,5.8L458,10.9L187.9,6L61.2,21.7z      M471.2,7.2C471.1,7.2,471.1,7.2,471.2,7.2L471.2,7.2z" style="fill:#000000;"/>
		</g>
	</g>
	<g>
		<g>
			<polygon points="398.5,30.6 399.5,41.6 472.6,20.1 473.7,10.1    " style="fill:#FECE2F;"/>
		</g>
		<g>
			<path d="M396.8,45.5l-1.4-17.2l80.4-19.2l-0.3,13.3L396.8,45.5z M401.7,32.8l0.4,4.9l67.7-19.9l0.4-3.6L401.7,32.8z" style="fill:#000000;"/>
		</g>
	</g>
</g>
</g></g></g><!--ITEM 4--><g><defs><clipPath id="clip-path-id-viewbox-item-4"><rect x="0.0" y="0.0" width="273.73" height="527.77"/></clipPath></defs><g transform="translate(1533.0 794.0) rotate(0.0 -536.5 1036.0) scale(-3.919921090125306 3.925952592985581)"><g clip-path="url(#clip-path-id-viewbox-item-4)" transform="translate(-0.0 -0.0)"><title>seating_man</title><path d="M213.84,62.56S225.8,55,227,44.68s-6.93-10.11-6.13-18.22c.73-7.5-2.66-15.25-11.73-18.28C196,3.78,191.78,9,183.31,6s-21.8-10.83-26,2.67c-2.71,8.72,1.37,19.83,13.13,23.95,9.4,3.3,21.53,22.69,27.53,25A139.52,139.52,0,0,0,213.84,62.56Z" fill="#000000"/><path d="M213.84,63.56a.93.93,0,0,1-.23,0,140.63,140.63,0,0,1-16-5c-2.85-1.11-6.66-5.4-11.06-10.37-5.35-6-11.41-12.87-16.44-14.63-12.64-4.43-16.52-16.29-13.76-25.2,1.14-3.67,3-6.16,5.67-7.41,5.18-2.46,11.92.25,17.87,2.65,1.32.53,2.58,1,3.74,1.45,3.6,1.28,6.39,1,9.61.63a33.55,33.55,0,0,1,16.23,1.55c10.22,3.4,13.11,12.21,12.41,19.31-.33,3.39,1.06,5.12,2.66,7.12,2,2.44,4.18,5.2,3.47,11.13-1.28,10.69-13.15,18.29-13.65,18.61A1,1,0,0,1,213.84,63.56ZM166.7,2a8.71,8.71,0,0,0-3.8.78c-2.13,1-3.64,3-4.62,6.19-2.48,8,1.06,18.7,12.51,22.72,5.53,1.94,11.77,9,17.28,15.2,4.05,4.57,7.88,8.9,10.29,9.83a141.66,141.66,0,0,0,15.29,4.78C215.59,60.17,225,53.33,226,44.56c.62-5.09-1.16-7.3-3-9.64-1.72-2.15-3.5-4.37-3.09-8.56.63-6.34-1.95-14.19-11-17.23a31.92,31.92,0,0,0-15.38-1.45c-3.33.36-6.47.69-10.5-.74-1.2-.42-2.47-.94-3.82-1.48C175.06,3.81,170.55,2,166.7,2Z" fill="#000000"/><path d="M238.9,108.11c-5.28-6.16-9.67-9-18.36-12.14l-7.85-44.79c9.08.59,9.46-16.12-3-13.12-2.76.61-2.5,7-2.5,7-.15,6.07-4.81,5.12-6.26-3.61-2.27-13.69-21.64-4.07-29.7-9.11-1.82,18.4-1,30.73,1.74,37.77,3.86,9.93,14.95,11.64,23.18,6.72-.14,5.61-.12,16.78-.09,23-4.73,4.83-12.08,13.53-12.08,13.53C199.79,117.08,218.71,114,238.9,108.11Z" style="fill:#fece2f;"/><path d="M174.81,33.4s-4.08,25.53,2.33,37.19c5.6,10.17,16.56,7.11,16.56,7.11s-10.49,7.46-19.7-5.48c-6.42-11.19-2.45-40.34-2.45-40.34Z" style="fill:#fff;"/><ellipse cx="189.29" cy="46.03" rx="4.77" ry="2.6" style="fill:#fff;"/><path d="M189.29,49.63c-3.29,0-5.77-1.55-5.77-3.6s2.48-3.59,5.77-3.59S195.06,44,195.06,46,192.58,49.63,189.29,49.63Zm0-5.19c-2.26,0-3.77,1-3.77,1.59s1.51,1.6,3.77,1.6,3.77-1,3.77-1.6S191.56,44.44,189.29,44.44Z" fill="#000000"/><circle cx="186.69" cy="46.52" r="1.72" fill="#000000"/><ellipse cx="174.78" cy="46.03" rx="4.48" ry="2.6" style="fill:#fff;"/><path d="M174.78,49.63c-3.07,0-5.48-1.58-5.48-3.6s2.41-3.59,5.48-3.59S180.26,44,180.26,46,177.85,49.63,174.78,49.63Zm0-5.19c-2.12,0-3.48.94-3.48,1.59s1.36,1.6,3.48,1.6,3.48-1,3.48-1.6S176.9,44.44,174.78,44.44Z" fill="#000000"/><circle cx="172.59" cy="46.52" r="1.72" fill="#000000"/><path d="M181.39,60.73h-.13c-.53-.06-3.18-.48-3.94-2.06a2.21,2.21,0,0,1,.2-2.2,32.89,32.89,0,0,0,2.26-5.32,1,1,0,1,1,1.9.61,32.9,32.9,0,0,1-2.45,5.75c-.07.11-.13.24-.1.3a4.13,4.13,0,0,0,2.38.94,1,1,0,0,1-.12,2Z" fill="#000000"/><path d="M183.27,69A7.3,7.3,0,0,1,179,67.62,1,1,0,0,1,180.18,66c3.31,2.29,6.77-.14,6.8-.16a1,1,0,0,1,1.4.23,1,1,0,0,1-.23,1.39A9,9,0,0,1,183.27,69Z" fill="#000000"/><path d="M195.91,77a27.66,27.66,0,0,0,7.93-6.53c-1.52,5.13-4.78,10.72-7.81,12A52.56,52.56,0,0,0,195.91,77Z" fill="#000000"/><path d="M196,83.48a1,1,0,0,1-.57-.19,1,1,0,0,1-.43-.86,51.2,51.2,0,0,0-.12-5.36,1,1,0,0,1,.54-1,27.08,27.08,0,0,0,7.61-6.27,1,1,0,0,1,1.74.91c-1.53,5.17-4.9,11.17-8.38,12.65A1.09,1.09,0,0,1,196,83.48Zm.92-5.91c0,.68.1,1.83.11,3a19.59,19.59,0,0,0,4.14-6A30.14,30.14,0,0,1,197,77.57Z" fill="#000000"/><path d="M198.85,116a65.67,65.67,0,0,1-15.11-1.63,1,1,0,0,1-.72-.65,1,1,0,0,1,.18-1c.08-.09,7.14-8.44,11.84-13.3,0-5.67,0-15.1.06-20.91a18.32,18.32,0,0,1-13.78,1.09A15,15,0,0,1,172,70.48c-2.95-7.6-3.56-20.46-1.81-38.23a1,1,0,0,1,.55-.8,1,1,0,0,1,1,.05c2.84,1.78,7.57,1.54,12.16,1.32,7.71-.38,16.45-.82,18,8.48.79,4.8,2.55,6.74,3.27,6.65.39,0,.95-1,1-2.9,0-.68-.19-7.2,3.28-8,5.4-1.3,8.1,1,9.23,2.41a8.53,8.53,0,0,1,.61,9,6.72,6.72,0,0,1-5.42,3.69l7.54,43.06c8.55,3.14,13,6.16,18.24,12.24a1,1,0,0,1,.2.93,1,1,0,0,1-.68.68C223.24,113.7,210.06,116,198.85,116Zm-13-3.22c13.18,2.66,29.57,1,51.3-5.18-4.68-5.17-8.87-7.78-16.91-10.67a1,1,0,0,1-.65-.77l-7.84-44.79a1,1,0,0,1,.24-.84,1,1,0,0,1,.81-.33,4.8,4.8,0,0,0,4.78-2.65,6.59,6.59,0,0,0-.43-6.82c-1.44-1.85-4-2.45-7.2-1.68-1.33.3-1.82,3.76-1.73,6-.11,4.38-2.22,4.87-2.86,4.91-2.41.17-4.52-3.1-5.39-8.32-1.25-7.53-8.38-7.18-15.92-6.8-4.26.21-8.65.42-11.94-.92-1.54,16.7-.93,28.76,1.83,35.86a13.09,13.09,0,0,0,8.07,8A16.54,16.54,0,0,0,195.62,76a1,1,0,0,1,1,0,1,1,0,0,1,.5.89c-.14,5.59-.12,16.8-.09,23a1,1,0,0,1-.29.7C193.19,104.2,188,110.17,185.81,112.76Z" fill="#000000"/><polygon points="51.61 424.74 45.31 484.89 63.21 487.17 76.4 433.12 51.61 424.74" style="fill:#fece2f;"/><path d="M63.21,488.17h-.12l-17.9-2.28a1,1,0,0,1-.87-1.09l6.3-60.16a1,1,0,0,1,.45-.73,1,1,0,0,1,.86-.11l24.79,8.38a1,1,0,0,1,.65,1.18L64.18,487.41A1,1,0,0,1,63.21,488.17ZM46.41,484l16,2,12.76-52.29-22.74-7.68Z" fill="#000000"/><path d="M227.64,143.68c3.33,38.7-7.49,71.2-17.37,90.34-15.69,30.42-91.84,32.52-105,32.08s-36.26,9.77-39.76,13-7.26,1.53-3.84-4.67c7.46-13.52,26.11-19.11,39.63-21,15.47-2.13,58-9.83,61.9-25.65s9.44-36.13,11.31-79.5" style="fill:#fece2f;"/><path d="M62.13,281.8a2.75,2.75,0,0,1-1.75-.58c-.76-.59-2.24-2.48.38-7.23,8.58-15.55,31.09-20.21,40.37-21.49,9.49-1.31,57-8.66,61.07-24.9l.5-2c3.79-15.13,9-35.85,10.78-77.33a1,1,0,0,1,2,.08c-1.79,41.69-7,62.52-10.84,77.73l-.5,2c-4.26,17-49.09,24.51-62.73,26.39-9,1.24-30.75,5.72-38.9,20.48-1.53,2.76-1.38,4.32-.9,4.69s1.69.16,3.19-1.24c3.6-3.37,26.84-13.77,40.48-13.3,18.23.6,89.36-3,104.1-31.54a169.15,169.15,0,0,0,17.26-89.81,1,1,0,0,1,.91-1.08,1,1,0,0,1,1.08.91,171.21,171.21,0,0,1-17.47,90.89c-6.79,13.17-25,22.64-54.16,28.14a271.43,271.43,0,0,1-51.79,4.48c-12.95-.43-35.69,9.64-39,12.77A6.25,6.25,0,0,1,62.13,281.8Z" fill="#000000"/><path d="M190.1,185.18s-19.35-.24-26.35-2.1c4-13.52,11.31-48.35,11.31-48.35" style="fill:#fff;"/><path d="M190.1,186.18h0c-.8,0-19.56-.26-26.59-2.13a1,1,0,0,1-.71-1.25c3.91-13.33,11.22-47.93,11.29-48.28a1,1,0,0,1,2,.42c-.07.34-7,33.36-11,47.41,7.48,1.6,24.92,1.83,25.1,1.83a1,1,0,0,1,0,2Z" fill="#000000"/><path d="M238.68,267.41s-127-9.73-157.46,1.58c-21.67,8.06-24.48,25.53-24.48,25.53L36.92,433.71l38.47,7.46L102,321.46l124.8,1.76Z" fill="#000000"/><polygon points="143.03 430.27 151.28 494.56 133.66 499.69 114.91 431.3 143.03 430.27" style="fill:#fece2f;"/><path d="M133.66,500.7a1.05,1.05,0,0,1-.49-.13,1,1,0,0,1-.47-.61L114,431.57a1,1,0,0,1,.92-1.27l28.12-1a1,1,0,0,1,1,.87l8.25,64.3a1,1,0,0,1-.71,1.08l-17.62,5.14A1.26,1.26,0,0,1,133.66,500.7Zm-17.45-68.44,18.15,66.19,15.82-4.61-8-62.54Z" fill="#000000"/><path d="M49.61,346.4,37.37,432.78l25.88,4.9s0-2.1-7-16.44-6.3-16.44-3.5-23.08,2.1-9.79-.7-16.79S49.61,346.4,49.61,346.4Z" style="fill:#fece2f;"/><path d="M75.39,442.17H75.2L36.73,434.7a1,1,0,0,1-.8-1.13L55.75,294.38c.12-.75,3.16-18.16,25.12-26.32,30.29-11.27,152.69-2.05,157.88-1.65a1,1,0,0,1,.73.4,1,1,0,0,1,.18.81l-11.87,55.81a1,1,0,0,1-1,.79h0l-124-1.75L76.37,441.39A1,1,0,0,1,75.39,442.17Zm-37.34-9.26L74.63,440,101,321.24a1,1,0,0,1,1-.78h0l124,1.75,11.45-53.89c-12.74-.93-127.54-8.93-155.89,1.61-20.88,7.77-23.82,24.58-23.84,24.75Z" fill="#000000"/><path d="M244.19,331.57S167,334.66,134.4,332c7.91,80.42,11.77,112,11.77,112l-42.57-3.25s-16.72-73-23.31-108.65-6.3-52,28-56.65,164-.69,164-.69C270.86,288.73,275.3,334.44,244.19,331.57Z" fill="#000000"/><path d="M146.17,445h-.07l-42.57-3.25a1,1,0,0,1-.9-.78c-.17-.73-16.81-73.48-23.33-108.69-4.26-23-5.21-36.34,1.41-45.48,4.74-6.54,13.45-10.46,27.42-12.35,34-4.57,162.87-.73,164.17-.69a1,1,0,0,1,.72.34,1.06,1.06,0,0,1,.25.76c-.22,2.12-.3,5-.39,8.35-.37,13.88-.93,34.84-11.79,44.47-4.38,3.89-10.07,5.55-16.93,4.93-2.62.1-76.17,2.95-108.65.5,7.74,78.61,11.62,110.45,11.66,110.77a1.06,1.06,0,0,1-.27.81A1,1,0,0,1,146.17,445Zm-41.76-5.19,40.63,3.1c-.78-6.52-4.65-39.78-11.64-110.8a1,1,0,0,1,.29-.79,1,1,0,0,1,.79-.3c32.12,2.65,108.89-.38,109.67-.41h.13c6.31.59,11.52-.91,15.48-4.42,10.21-9.06,10.76-29.5,11.12-43,.08-2.86.15-5.39.3-7.43-12.46-.36-130.61-3.62-162.78.71-13.39,1.8-21.67,5.46-26.07,11.53-6.16,8.51-5.12,22-1.06,43.95C87.43,365.17,102.66,432.09,104.41,439.77Z" fill="#000000"/><path d="M174.52,140.19a50.09,50.09,0,0,1,11.31-29.25,2.54,2.54,0,0,0,.77.9c4,2.86,22.65,2.38,33.15-2.73,6.1-3,7.52-6.29,8.49-9.74,10.55,5.44,23.87,19.4,28.77,32.65,23.73,64.16,13.54,171.42,13.54,171.42-14.51-26.36-68.35-38-86.8-39.77a175.3,175.3,0,0,1-4.4-60.2C181.56,183,173.64,160.4,174.52,140.19Z" style="fill:#fff;"/><path d="M271.22,208.73s1.86,20.51-4.9,31-7.46,16.32-2.79,17.26,4.19,5.59-.7,10.72-5.6,15.62-1.17,16.32,11.42-11,11.42-11S274.25,217.12,271.22,208.73Z" fill="#000000"/><path d="M270.55,304.45a1,1,0,0,1-.88-.52c-15-27.22-71.66-37.89-86-39.26a1,1,0,0,1-.86-.72,177.81,177.81,0,0,1-4.43-60.59c.84-7.76.63-15.82.41-24.36-.06-2.35-.12-4.72-.16-7.09-.06-3.42.06-10.29.35-21a1,1,0,0,1,1-1,1,1,0,0,1,1,1c-.29,10.71-.41,17.56-.35,20.94,0,2.37.1,4.73.16,7.08.22,8.61.43,16.73-.42,24.62a176.9,176.9,0,0,0,4.18,59.18c15.12,1.6,68.1,11.94,85.28,37.56,1.41-17.92,7.42-110.74-13.73-167.94-4.84-13.08-17.42-26-27.25-31.55-1.4,3.8-4.35,6.76-9,9-10.49,5.1-26.55,6.48-33.69,2.9l-.32-.2a47.66,47.66,0,0,0-9.18,19.51c-.26,1.24-.5,2.32-.78,3.52-.43,1.92-.93,4.1-1.66,7.67A1,1,0,0,1,173,144a1,1,0,0,1-.77-1.19c.74-3.58,1.24-5.77,1.67-7.7.27-1.19.52-2.27.78-3.49a49.68,49.68,0,0,1,10.36-21.33,1,1,0,0,1,1.66.18,1.24,1.24,0,0,0,.33.46c6.68,3.36,21.89,2,31.91-2.91,6.08-3,7.66-6.51,8.32-8.93a1,1,0,0,1,.56-.65,1,1,0,0,1,.86,0C239,103.8,252.77,117.67,258,131.67c23.54,63.64,13.69,170.79,13.59,171.87a1,1,0,0,1-.79.88Z" fill="#000000"/><path d="M260.51,157c3.34,38.7-4.92,69.1-14.8,88.25-15.69,30.41-104,34.15-117.13,33.71s-23.06,3.87-27.8,5.16c-6.21,1.69-4.64-3.61-4.64-3.61-2.54,1.22-8.33,1.45-6.88-2.16-2.3,1.1-5.1,1.67-6.47-.06-.87-1.11.57-3.27,6.94-6.35q13-6.29,31.82-7.05c15.6-.65,79.34-14.37,83.29-30.19s4.61-33.41,2.28-75.84" style="fill:#fece2f;"/><path d="M110.29,266.31s14.52.82,21.33,2.28c7.35,1.57,50.54-10.5,62.78-23.43-8.22,3.84-47.57,17.48-60.86,18.53S110.29,266.31,110.29,266.31Z" style="fill:#fff;"/><path d="M98.64,285.42A3.33,3.33,0,0,1,95,282c-2.12.54-4.81.53-6.12-.7a2.47,2.47,0,0,1-.76-1.37c-2.69.89-4.85.55-6.07-1a2.11,2.11,0,0,1-.39-1.81c.41-1.78,2.92-3.77,7.67-6.06,8.71-4.21,19.55-6.61,32.21-7.15,15.85-.66,78.6-14.36,82.37-29.43,4-16.09,4.55-33.74,2.25-75.54a1,1,0,0,1,.95-1.06,1,1,0,0,1,1.05.95c2.31,42,1.77,59.82-2.31,76.13-4.16,16.64-69.27,30.32-84.22,31-12.39.53-23,2.86-31.43,6.95-5.89,2.85-6.52,4.43-6.59,4.71,0,.09,0,.1,0,.12,1,1.22,3.35.69,5.25-.22a1,1,0,0,1,1.36,1.28c-.32.78-.08,1,0,1.09.81.75,3.74.64,5.51-.21a1,1,0,0,1,1.39,1.18c-.12.41-.33,1.7.24,2.27s1.61.52,3.18.1c.87-.24,1.93-.59,3.16-1,5.26-1.71,14-4.59,24.93-4.21,12.8.42,100.93-3.54,116.21-33.17,7.12-13.8,18.5-43.55,14.7-87.71a1,1,0,1,1,2-.17c3.85,44.66-7.69,74.8-14.91,88.79-15.8,30.62-102.73,34.76-118.06,34.26-10.53-.35-18.78,2.33-24.24,4.11-1.26.41-2.34.77-3.26,1A9.32,9.32,0,0,1,98.64,285.42Z" fill="#000000"/><path d="M262.14,147.87s3.27,12.59,7.23,37.31c-15.62,6.06-49.19,8.62-67.38,2.8.47-11,.23-37.31.23-37.31" style="fill:#fff;"/><path d="M228.45,192.25c-9.95,0-19.54-1-26.76-3.32a1,1,0,0,1-.7-1c.46-10.8.24-37,.23-37.25a1,1,0,0,1,1-1h0a1,1,0,0,1,1,1c0,.26.22,25.31-.2,36.59,17.92,5.4,49.7,3,65.23-2.72-3.85-23.85-7-36.28-7.07-36.41a1,1,0,0,1,1.93-.5c0,.13,3.32,12.92,7.25,37.4a1,1,0,0,1-.63,1.09C260.16,189.82,243.88,192.25,228.45,192.25Z" fill="#000000"/><path d="M78.79,270.58a4.18,4.18,0,0,1-3.86-2.27,3.36,3.36,0,0,1,1.21-4.2c2.63-1.95,9.84-4.14,10.15-4.23a1,1,0,0,1,1.24.66,1,1,0,0,1-.66,1.25c-.08,0-7.19,2.19-9.54,3.93a1.37,1.37,0,0,0-.58,1.75,2.4,2.4,0,0,0,2.85,1c3.57-.82,12.34-1.73,12.71-1.77a1,1,0,0,1,1.1.89,1,1,0,0,1-.9,1.1c-.09,0-9,.93-12.46,1.73A5.65,5.65,0,0,1,78.79,270.58Z" fill="#000000"/><path d="M108.73,275.29a30.3,30.3,0,0,0-12.24,5" style="fill:#fece2f;"/><path d="M96.49,281.3a1,1,0,0,1-.56-1.82,30.86,30.86,0,0,1,12.68-5.18,1,1,0,0,1,.24,2,29.62,29.62,0,0,0-11.79,4.85A1,1,0,0,1,96.49,281.3Z" fill="#000000"/><path d="M104,271.91s-8.39,2-14.69,6.29" style="fill:#fece2f;"/><path d="M89.26,279.2a1,1,0,0,1-.56-1.82c6.37-4.37,14.67-6.36,15-6.44a1,1,0,0,1,.46,1.94c-.08,0-8.29,2-14.35,6.15A1,1,0,0,1,89.26,279.2Z" fill="#000000"/><path d="M87.73,294.76s-8.39,7-5.13,29.37,7.93,51.3,7.93,51.3-4.66-33.58-.93-43.37-4.67-12.12-.94-19.58S87.73,294.76,87.73,294.76Z" style="fill:#fece2f;"/><path d="M140.19,396.41l-5.95-58.75c-.7-11.54-14.55-14.22-12.59.35.78,5.76,8.76,6.58,7.7,14-.7,4.89-2.45,5.59,1.75,10.14s-2.8,9.44,2.44,16.78S140.19,396.41,140.19,396.41Z" style="fill:#fece2f;"/><path d="M71.88,449.1s-4.43,12.13-9.1,14.46S55.56,474.28,60,479.64s7-6.52,7-6.52Z" fill="#000000"/><path d="M145.09,450.73s-4.43,17-3.27,22.15,4,14-.93,22.15,11,2.1,11,2.1Z" fill="#000000"/><path d="M156.86,488.71c-.76-7.06-5.44-11.08-8.15.22-2.44,10.13-14.34,5.32-16.3,3.37,4.24-5.22-7.17-12.06-7.17-12.06s-13,25.42-31.95,30.31-7.38,14.24,1.09,15.11c30,3.07,56.28-.87,68-4,9.21-2.48-1.31-11.09-1.31-11.09Z" style="fill:#fff;"/><path d="M116.59,527.77a218.22,218.22,0,0,1-22.31-1.12c-5.49-.56-11.88-4.37-12.2-8.62-.19-2.51,1.56-6,11-8.45,18.25-4.71,31.18-29.55,31.31-29.8a1,1,0,0,1,.61-.5,1,1,0,0,1,.79.1c.32.19,7.68,4.65,8.52,9.46a4.82,4.82,0,0,1-.51,3.24c1.77,1.13,6,2.77,9.5,1.79,2.3-.65,3.81-2.39,4.48-5.17,1.6-6.66,3.87-7.93,5.46-7.83,2.65.17,4.24,4,4.65,7.69L162,510c1.3,1.12,5.85,5.34,5.08,8.92-.37,1.75-1.86,3-4.43,3.67C152.61,525.3,135.94,527.77,116.59,527.77Zm9-46.11c-2.64,4.81-14.84,25.41-32.07,29.86-6.29,1.63-9.65,3.89-9.46,6.36.24,3.19,5.89,6.32,10.4,6.78,28.2,2.89,54.07-.34,67.66-4,1.78-.48,2.79-1.2,3-2.16.5-2.32-3.31-6.06-4.68-7.18a1.06,1.06,0,0,1-.35-.59l-4.23-21.84s0,0,0-.08c-.41-3.79-1.88-5.9-2.79-6h0c-.71,0-2.16,1.32-3.36,6.3-1.06,4.41-3.78,6-5.87,6.63-4.8,1.35-10.66-1.34-12.11-2.78a1,1,0,0,1-.07-1.34,2.94,2.94,0,0,0,.67-2.48C131.8,486.36,127.88,483.19,125.61,481.66Z" fill="#000000"/><path d="M73.93,472.87c-.76-7.08-5.44-11.1-8.17.22-2.44,10.15-13.88,5.44-15.84,3.48,2.88-7.09-.67-8.86-3.86-10.49-1.26-.64-2.65-.83-3.26.45a45.23,45.23,0,0,1-4.92,7.94c-4.9,6.45-13.42,14.64-27.74,20.94-17.91,7.88-5.43,15.84,3.1,16.07,33.69.88,51.07-2.83,62.83-6,9.23-2.48-.34-13.63-.34-13.63Z" style="fill:#fff;"/><path d="M23.11,512.61c-3.14,0-6.43,0-9.89-.13C7.58,512.33,1,509.22.09,504.84c-.5-2.56.77-6.44,9.65-10.35,14.49-6.37,22.87-14.73,27.35-20.62a45.24,45.24,0,0,0,4.81-7.77,2.57,2.57,0,0,1,1.49-1.37,4.08,4.08,0,0,1,3.12.46c3.11,1.59,7.29,3.72,4.6,11.07,1.62,1.09,5.83,2.8,9.22,1.85,2.28-.65,3.78-2.41,4.46-5.25,1.61-6.67,3.87-8,5.48-7.85,2.66.18,4.25,4,4.66,7.76h0l1.77,18.68c1,1.28,5.44,7,4.15,11.23-.58,1.85-2.1,3.12-4.52,3.77C64.82,509.55,49.55,512.61,23.11,512.61Zm21.2-46a1,1,0,0,0-.27,0c-.1,0-.22.1-.34.34a46.7,46.7,0,0,1-5,8.12c-4.62,6.08-13.25,14.7-28.14,21.24-6,2.64-9,5.53-8.48,8.13.64,3.25,6.55,5.9,11.21,6,32.41.86,49.8-2.53,62.54-6,1.74-.47,2.76-1.27,3.12-2.43.93-3-2.54-7.94-4-9.58a1,1,0,0,1-.24-.56l-1.8-19c-.41-3.8-1.89-5.9-2.8-6-.68-.06-2.18,1.24-3.4,6.31-1.08,4.48-3.79,6.12-5.87,6.71-4.5,1.27-10.06-1.15-11.66-2.75A1,1,0,0,1,49,476.2c2.53-6.21-.19-7.6-3.34-9.21A3.29,3.29,0,0,0,44.31,466.58Z" fill="#000000"/><path d="M219.69,191s31.25.46,40.8-3c-.46,13.05-7,40.33-9.32,44.53,0,0-7.23-11.43-2.1-19.35s6.06-9.8,2.8-13.29S219.69,191,219.69,191Z" fill="#000000"/><path d="M178,218.75s-1.4,23.55-8.39,27.28-10,11.89-10,11.89L181,250.69Z" fill="#000000"/><path d="M198.55,123.23c-11.47,0-17.74-3.84-18.09-4.06a1,1,0,1,1,1.06-1.69c.14.08,11.31,6.82,31,2,16.33-4.05,20.61-9.63,22.8-15.06a1,1,0,1,1,1.85.74c-3.22,8-10.45,12.86-24.17,16.26A60.32,60.32,0,0,1,198.55,123.23Z" fill="#000000"/><path d="M117.63,507.45A24.56,24.56,0,0,1,129,521.79c4.37-.88,14.34-2.63,14.34-2.63s-7.11-15.38-15.39-21.68C123.93,501.85,117.63,507.45,117.63,507.45Z" style="fill:#fece2f;"/><path d="M34.4,490.89a24.6,24.6,0,0,1,11.36,14.34c4.38-.87,13.88-3.79,13.88-3.79S53,487.22,44.72,480.93C40.69,485.3,34.4,490.89,34.4,490.89Z" style="fill:#fece2f;"/><path d="M109.49,512a18,18,0,0,1-9.41-3.21,1,1,0,0,1,1.18-1.62c.07,0,7,4.94,12.55,1.7,7.27-4.23,17.72-17.06,17.82-17.19a1,1,0,0,1,1.56,1.26c-.44.54-10.79,13.24-18.38,17.65A10.34,10.34,0,0,1,109.49,512Z" fill="#000000"/><path d="M97.47,526.11a43.72,43.72,0,0,1-6.4-.36,1,1,0,1,1,.32-2c10.54,1.7,59.43-3.07,68.67-13.83a1,1,0,0,1,1.52,1.31C153.07,521.15,114.82,526.11,97.47,526.11Z" fill="#000000"/><path d="M10.82,511.15a28.83,28.83,0,0,1-4.38-.27,1,1,0,0,1,.31-2c10.86,1.75,58.66-6,68-16.8a1,1,0,0,1,1.52,1.3C67.32,503.8,27,511.15,10.82,511.15Z" fill="#000000"/><path d="M25.44,497c-3.64,0-7-2.3-8.72-4.05a1,1,0,0,1,1.43-1.4c.25.26,6.1,6.11,11.26,2,6.17-4.9,18.23-15.42,19.68-17.54a1,1,0,0,1,1.4-.26,1,1,0,0,1,.25,1.39c-1.73,2.52-14.41,13.46-20.09,18A8.25,8.25,0,0,1,25.44,497Z" fill="#000000"/><path d="M26.82,491.66a1,1,0,0,1-.8-.41,6.32,6.32,0,0,0-4.52-2.74,1,1,0,0,1-1-1,1,1,0,0,1,1-1,8.34,8.34,0,0,1,6.09,3.56,1,1,0,0,1-.22,1.4A1,1,0,0,1,26.82,491.66Z" fill="#000000"/><path d="M109.74,507.22a1,1,0,0,1-.73-.32,6.32,6.32,0,0,0-4.8-2.24,1,1,0,0,1-1.07-.92,1,1,0,0,1,.9-1.07,8.25,8.25,0,0,1,6.44,2.87,1,1,0,0,1-.74,1.68Z" fill="#000000"/><path d="M114.7,502.32A1,1,0,0,1,114,502a6.31,6.31,0,0,0-4.79-2.24,1,1,0,0,1-.17-2,8.32,8.32,0,0,1,6.43,2.88,1,1,0,0,1-.06,1.41A1,1,0,0,1,114.7,502.32Z" fill="#000000"/><path d="M119.65,497.43a1,1,0,0,1-.74-.33,6.22,6.22,0,0,0-4.79-2.23,1,1,0,0,1-1.07-.92,1,1,0,0,1,.9-1.08,8.32,8.32,0,0,1,6.44,2.88,1,1,0,0,1-.74,1.68Z" fill="#000000"/><path d="M124.55,491.25a1,1,0,0,1-.74-.33,6.32,6.32,0,0,0-4.79-2.23,1,1,0,0,1-1.08-.92,1,1,0,0,1,.91-1.07,8.26,8.26,0,0,1,6.44,2.87,1,1,0,0,1-.74,1.68Z" fill="#000000"/><path d="M32.07,487a1,1,0,0,1-.81-.41,6.31,6.31,0,0,0-4.52-2.74,1,1,0,0,1-1-1,1,1,0,0,1,1-1h0a8.27,8.27,0,0,1,6.09,3.56,1,1,0,0,1-.21,1.39A1,1,0,0,1,32.07,487Z" fill="#000000"/><path d="M37.78,481.52a1,1,0,0,1-.81-.41,6.29,6.29,0,0,0-4.51-2.74,1,1,0,0,1,0-2h0a8.27,8.27,0,0,1,6.09,3.56,1,1,0,0,1-.21,1.39A1,1,0,0,1,37.78,481.52Z" fill="#000000"/><path d="M27,476.47a6,6,0,0,1-3.75-1A4.39,4.39,0,0,1,21.68,472a4.14,4.14,0,0,1,1.66-3.78c4-2.9,14,.74,15.08,1.16a16.22,16.22,0,0,1,5.67,3.39,1,1,0,0,1,.16,1.17,1,1,0,0,1-1.07.51c-2.38-.47-5.78.26-9.08,1A36.75,36.75,0,0,1,27,476.47Zm.67-7.38a5.57,5.57,0,0,0-3.18.74,2.17,2.17,0,0,0-.83,2.08,2.46,2.46,0,0,0,.81,2c1.56,1.2,5.44.38,9.2-.42a51.06,51.06,0,0,1,6.48-1.1,15.58,15.58,0,0,0-2.42-1.08A33.75,33.75,0,0,0,27.69,469.09Z" fill="#000000"/><path d="M215.5,266.31s11.29-8.91,14-15.15c4.43-10.26,15.62-10.73,14-3.5S221.56,265.38,215.5,266.31Z" fill="#000000"/><path d="M43.38,474.47a1,1,0,0,1-.81-.41c-2-2.68-5.87-3.86-11.15-4.8-4.85-.86-5.17-2.9-5.09-3.73.21-2,3-3.25,6.87-3.15l.14,0c5.21.89,8.67,3,11,10.78a1,1,0,0,1-.95,1.29ZM32.75,464.38c-3,0-4.39.95-4.43,1.35,0,.15.52,1,3.46,1.56,3.76.68,6.91,1.48,9.3,2.87-1.88-3.94-4.35-5.14-8-5.78Z" fill="#000000"/><path d="M107.2,499.68a4.57,4.57,0,0,1-1.32-.19c-1-.34-2.74-1.4-2.35-4.75.67-5.93,11.21-7.81,14.74-8.28a1.09,1.09,0,0,1,.36-.46c.86-.64,1.7.24,2.61,1.17a1,1,0,0,1,.15,1.18C117.5,495.33,111.17,499.68,107.2,499.68Zm11.86-11.3c-4,.46-13.07,2.39-13.55,6.59-.17,1.47.16,2.35,1,2.61C108.91,498.36,115.06,494.85,119.06,488.38Z" fill="#000000"/><path d="M108.17,490.61a3.93,3.93,0,0,1-3-1.23,4.09,4.09,0,0,1-.49-4.46,5.53,5.53,0,0,1,5.43-3c4.2-.28,10.15,2.61,12.8,6.17a1,1,0,0,1-1.41,1.39c-1.82-1.41-5.22-1.17-11,.77A7.1,7.1,0,0,1,108.17,490.61Zm1.76-6.73a3.6,3.6,0,0,0-3.46,1.88,2.14,2.14,0,0,0,.17,2.28c.58.65,1.73.75,3.16.27a26.53,26.53,0,0,1,8.54-1.76c-2.53-1.71-5.75-2.85-8.16-2.67h-.25Z" fill="#000000"/></g></g></g><!--ITEM 5--><g><defs><clipPath id="clip-path-id-viewbox-item-5"><rect x="0.0" y="0.0" width="176.7" height="74.7"/></clipPath></defs><g transform="translate(941.0 1668.0) rotate(0.0 171.0 71.5) scale(1.935483870967742 1.9143239625167334)"><g clip-path="url(#clip-path-id-viewbox-item-5)" transform="translate(-0.0 -0.0)"><ellipse cx="88.3" cy="37.3" rx="88.3" ry="37.3" style="fill:#FECE2F;"/>
</g></g></g><!--ITEM 6--><g><defs><clipPath id="clip-path-id-viewbox-item-6"><rect x="0.0" y="0.0" width="301.375" height="356.059"/></clipPath></defs><g transform="translate(613.0 -55.0) rotate(0.0 268.0 317.5) scale(1.7785151389464953 1.7834122996469686)"><g clip-path="url(#clip-path-id-viewbox-item-6)" transform="translate(-0.0 -0.0)"><title>lamp_1</title><g id="Layer_2-i6" data-name="Layer 2"><g id="lamp_1-i6"><path d="M3.4,322.286,110.931,171.744s37.3-14.974,70-1.436C201.472,200.473,271.775,314.5,271.775,314.5s-126-20-190.745-9.92S15.569,315.024,3.4,322.286Z" style="fill:#fece2f"/><polygon points="125.872 167.662 70.893 304.269 89.03 302.819 130.481 166.176 125.872 167.662" style="fill:#fff"/><path d="M47.246,307.076l73.223-138.254-9.538,2.922L3.4,322.286C3.436,322.267-1.326,317.637,47.246,307.076Z" style="fill:#fff"/><path d="M298.52,324.228,185,171.379c-.019-.041-.057-.123-.117-.145-.292-.31-7.125-6.853-32.879-7.428a8.933,8.933,0,0,0-1.045-.012,3.32,3.32,0,0,0-.026-1.77l-.007-159.75a3.158,3.158,0,1,0-6.065,1.763l.007,159.749.019.041c-21.228.651-33.869,6.392-34.481,6.674a1.275,1.275,0,0,0-.536.446L1.038,322.434a1.731,1.731,0,0,0-.241.656,6.7,6.7,0,0,0-.8,2.991c-.166,9.925,24.109,16.726,44.472,20.632,28.238,5.416,65.807,8.748,105.835,9.261,40.007.572,77.69-1.741,106.059-6.433,12.143-2,25.7-5,34.718-9.159,6.159-2.846,10.225-6.258,10.289-10.3C301.4,328,300.353,326.053,298.52,324.228ZM256.9,309.453c-28.238-5.416-65.807-8.747-105.835-9.26-40.006-.573-77.69,1.74-106.059,6.432-12.971,2.132-27.464,5.363-36.412,9.992L111.9,172.779c5.544-2.462,20.592-6.741,40.1-6.3,11.953.269,20.062,1.967,25.1,3.651l87.455,140.886C261.976,310.474,259.4,309.932,256.9,309.453Z" style="fill:#000000"/><path d="M127.865,220.292,138.3,177.213a2.121,2.121,0,0,1,2.5-1.551,2.082,2.082,0,0,1,1.563,2.1l-1.61,44.3a6.55,6.55,0,1,1-13.092-.485A8.96,8.96,0,0,1,127.865,220.292Z" style="fill:#fff"/><path d="M165.023,304.435c-21.922-.316-43.147.235-62.527,1.566a47.631,47.631,0,0,0,2.959,8.333,48.539,48.539,0,0,0,91.218-8.881C186.355,304.973,175.793,304.607,165.023,304.435Z" style="fill:#fff"/></g></g></g></g></g><!--ITEM 7--><g><defs><clipPath id="clip-path-id-crop-item-7"><rect transform="scale(0.34019292604501605 0.3389830508474576)" x="0.0" y="11" width="247.0" height="343.0"/></clipPath><clipPath id="clip-path-id-viewbox-item-7"><rect x="0.0" y="0.0" width="105.8" height="120.0"/></clipPath></defs><g clip-path="url(#clip-path-id-crop-item-7)" transform="translate(913.0 1490.0) rotate(16.832685868995117 155.5 177.0) scale(2.939508506616257 2.95)"><g clip-path="url(#clip-path-id-viewbox-item-7)" transform="translate(-0.0 -0.0)"><g>
	<path d="M20.5,119l56.2-72.9c0,0,9.9-2.8,9.8-3.6c0,0-0.7,5.6,0.8,5.6c1.5,0.1,7.4-10.1,7.4-10.1s5.2-2.3,2.3-7.6   c0,0,2.9-2.5,2-4.8s-0.7-3.4-0.7-3.4s4.9-1.3,4.4-7.5c0,0,2.1-1.3,1.8-1.1S96.3,1,96.3,1S82.9,2.8,80.9,3.6   c-2,0.8-78.3,81.7-78.3,81.7s-5.2,11.5,2.8,22.8S20.5,119,20.5,119z" style="fill:#fece2f;"/>
	<path d="M1,87.8c-0.2,0-0.5-0.1-0.7-0.3c-0.4-0.4-0.4-1,0-1.4C13.1,72.4,77.5,4,80.5,2.7C83.5,1.3,95.7,0.1,96.2,0   c0.4,0,0.7,0.1,0.9,0.4l8.5,12.9c0.2,0.2,0.2,0.6,0.1,0.8s-0.3,0.5-0.6,0.6c-0.1,0-7.3,3.1-11.3-4.2l-10.2,6.1   c-0.5,0.3-1.1,0.1-1.4-0.3c-0.3-0.5-0.1-1.1,0.3-1.4l11.1-6.7c0.2-0.1,0.5-0.2,0.8-0.1c0.3,0.1,0.5,0.3,0.6,0.5c2.2,5,6.1,5,8,4.6   L95.8,2.1C92,2.5,83.5,3.6,81.3,4.5C78.6,6.2,32.2,55,1.7,87.5C1.5,87.7,1.3,87.8,1,87.8z" style="fill:#1A1A1A;"/>
	<path d="M83.4,27.6c-0.8,0-1.5-0.1-2-0.3c-0.9-0.4-1.2-1-1.3-1.4c-0.7-3.1,9-7.7,14.8-10.2c0.5-0.2,1.1,0,1.3,0.5   c0.2,0.5,0,1.1-0.5,1.3c-7.1,3-13.2,6.5-13.6,7.8c1.5,1,12.4-1.7,17-4.7c2.1-1.4,2.5-4.2,2.5-6.3c0-0.6,0.4-1,1-1c0,0,0,0,0,0   c0.5,0,1,0.4,1,1c0.1,2.6-0.5,6.2-3.4,8.1C97,24.5,88.1,27.6,83.4,27.6z" style="fill:#1A1A1A;"/>
	<path d="M81.2,36.2c-0.9,0-1.6-0.1-2-0.3c-0.9-0.4-1.1-1-1.2-1.4c-0.4-2.6,6.8-7.3,11.1-9.8c0.5-0.3,1.1-0.1,1.4,0.3   c0.3,0.5,0.1,1.1-0.3,1.4c-5,3-9.5,6.4-10.1,7.7c2.1,0.7,12.9-1.7,16.3-4.4c3.1-2.4,1-5.5,0.8-5.8c-0.3-0.4-0.2-1.1,0.2-1.4   c0.4-0.3,1.1-0.2,1.4,0.2c1.2,1.7,2.5,5.6-1.2,8.6C94.5,33.7,85.7,36.2,81.2,36.2z" style="fill:#1A1A1A;"/>
	<path d="M82.7,43c-0.6,0-1.1-0.1-1.5-0.2c-0.7-0.3-1-0.7-1.2-1c-0.3-0.7-0.8-1.8,9.1-8.6c0.5-0.3,1.1-0.2,1.4,0.3   c0.3,0.5,0.2,1.1-0.3,1.4c-3.2,2.2-6.8,4.9-8,6.2c1.1,0.1,3.9-0.2,9.2-2.7c4.5-2.2,5.3-4,5.5-4.8c0.1-1-0.5-1.6-0.6-1.6   c-0.4-0.4-0.4-1-0.1-1.4c0.4-0.4,1-0.4,1.4-0.1c0.6,0.5,1.4,1.7,1.2,3.4c-0.3,2.3-2.5,4.4-6.6,6.4C88.4,42,85,43,82.7,43z" style="fill:#1A1A1A;"/>
	<path d="M87.3,49.2c-0.2,0-0.3,0-0.4-0.1c-0.8-0.3-1.3-0.8-1.6-1.6c-0.8-2.3,1.3-6.2,1.8-6.9c0.3-0.5,0.9-0.6,1.4-0.3   c0.5,0.3,0.6,0.9,0.3,1.4c-0.9,1.5-2,4.1-1.6,5.2c0,0,0,0.1,0,0.1c1.2-1.3,4.4-6,7.2-10.3c0.3-0.5,0.9-0.6,1.4-0.3   c0.5,0.3,0.6,0.9,0.3,1.4C89.8,47.8,88.2,49.2,87.3,49.2z" style="fill:#1A1A1A;"/>
	<path d="M75.1,47c-1,0-2.1-0.1-3.1-0.3c-0.5-0.1-0.9-0.6-0.8-1.2c0.1-0.5,0.6-0.9,1.2-0.8c7,1.4,13.4-3.4,13.5-3.5   c0.4-0.3,1.1-0.3,1.4,0.2c0.3,0.4,0.3,1.1-0.2,1.4C86.8,43,81.6,47,75.1,47z" style="fill:#1A1A1A;"/>
	<path d="M20.5,120c-0.2,0-0.4-0.1-0.6-0.2c-0.4-0.3-0.5-1-0.2-1.4l56.2-72.9c0.3-0.4,1-0.5,1.4-0.2   c0.4,0.3,0.5,1,0.2,1.4l-56.2,72.9C21.1,119.9,20.8,120,20.5,120z" style="fill:#1A1A1A;"/>
</g>
</g></g></g><!--ITEM 8--><g><defs><clipPath id="clip-path-id-viewbox-item-8"><rect x="0.0" y="0.0" width="203.951" height="165.001"/></clipPath></defs><g transform="translate(1274.0 1397.0) rotate(3.7136114529674757 -143.0 116.5) scale(-1.4022976107006095 1.4121126538627038)"><g clip-path="url(#clip-path-id-viewbox-item-8)" transform="translate(-0.0 -0.0)"><title>book_notebook</title><g id="eec5bac8-03a0-470b-90c0-25f1363fe053-i8" data-name="Layer 2"><g id="ac53d6a6-b019-468b-8459-327df11d97b6-i8" data-name="book_notebook"><path d="M202.45,141.5c-23,10-17,22-17,22h-126s-7-13,17-22" fill="#fff"/><path d="M185.45,165h-126a1.5,1.5,0,0,1-1.321-.789,12.482,12.482,0,0,1-.272-9.807c2.184-5.818,8.262-10.632,18.066-14.309a1.5,1.5,0,0,1,1.054,2.809c-8.788,3.3-14.418,7.612-16.285,12.484A9.841,9.841,0,0,0,60.454,162H183.445a12.719,12.719,0,0,1,.619-6.7c2.132-5.866,8.117-10.973,17.788-15.178a1.5,1.5,0,0,1,1.2,2.752c-8.7,3.783-14.279,8.4-16.129,13.355a8.882,8.882,0,0,0-.122,6.61A1.506,1.506,0,0,1,185.45,165Z" fill="#1a1a1a"/><path d="M59.45,163.5l-57-140s-7-13,17-22" fill="#ffce31"/><path d="M59.451,165a1.5,1.5,0,0,1-1.39-.935L1.084,24.125a12.564,12.564,0,0,1-.227-9.72C3.041,8.587,9.119,3.773,18.923.1a1.5,1.5,0,0,1,1.054,2.809C11.189,6.2,5.559,10.517,3.692,15.389a9.484,9.484,0,0,0,.083,7.41,1.3,1.3,0,0,1,.064.136l57,140a1.5,1.5,0,0,1-.823,1.955A1.484,1.484,0,0,1,59.451,165Z" fill="#1a1a1a"/><polygon points="76.45 141.501 19.45 1.501 145.45 1.501 202.45 141.501 76.45 141.501" fill="#ffce31"/><path d="M202.45,143h-126a1.5,1.5,0,0,1-1.389-.935l-57-140A1.5,1.5,0,0,1,19.45,0h126a1.5,1.5,0,0,1,1.389.934l57,140A1.5,1.5,0,0,1,202.45,143ZM77.459,140H200.22L144.441,3H21.681Z" fill="#1a1a1a"/><path d="M19.45,1.5l57,140s-22,8-17,22" fill="#ffce31"/><path d="M59.45,165a1.5,1.5,0,0,1-1.412-1c-4.7-13.167,11.391-21.183,16.454-23.336L18.061,2.066A1.5,1.5,0,1,1,20.839.935l57,140a1.5,1.5,0,0,1-.876,1.975c-.2.075-20.539,7.657-16.1,20.086a1.5,1.5,0,0,1-.908,1.918A1.537,1.537,0,0,1,59.45,165Z" fill="#1a1a1a"/><polygon points="79.36 64.501 66.95 37.84 127.54 37.84 139.95 64.501 79.36 64.501" fill="#fff"/><path d="M139.95,66H79.36A1.5,1.5,0,0,1,78,65.134L65.59,38.472a1.5,1.5,0,0,1,1.36-2.132h60.59a1.5,1.5,0,0,1,1.36.867l12.41,26.661A1.5,1.5,0,0,1,139.95,66ZM80.317,63H137.6L126.584,39.34H69.3Z" fill="#1a1a1a"/><path d="M6.959,8.478S4.95,17,7.95,24s49,120,49,120,3,4,.908,15.588C55.043,151.412,2.069,22.573,2.069,22.573S-.033,12.956,6.959,8.478Z" fill="#1a1a1a"/><path d="M59.78,162.6s4.615-19.563,136.75-19.563c.209,0-119.25-1.534-119.25-1.534S55.155,149.66,59.78,162.6Z" fill="#1a1a1a"/><path d="M196.53,143.035c-132.135,0-124,15.75-136.75,19.563-.636-14.938,17.5-21.1,17.5-21.1Z" fill="#1a1a1a"/></g></g></g></g></g><!--ITEM 9--><g><defs><clipPath id="clip-path-id-viewbox-item-9"><rect x="0.0" y="0.0" width="68.5" height="25.4"/></clipPath></defs><g transform="translate(1111.0 1602.0) rotate(-63.00942559999354 96.5 -35.0) scale(2.8175182481751824 -2.7559055118110236)"><g clip-path="url(#clip-path-id-viewbox-item-9)" transform="translate(-0.0 -0.0)"><g>
	<path d="M37.8,4.1c-1.8-1.3-4.4-1.4-6.4-0.4c-0.4,0.2-0.7,0.4-1.1,0.4c-0.5,0-0.9-0.4-1.4-0.7C27,2,23.9,2.9,22.8,5   c-0.7-2.1-3.4-3.3-5.4-2.4c-1.6,0.7-2.5,2.3-3.4,3.7c-2.5,4.3-5,8.8-5.1,13.7c0,0.2,0,0.5,0.2,0.6c0.2,0.2,0.5,0.1,0.7,0   c2.2-0.7,4.2-2,5.8-3.6c-0.3,1.6-0.5,3.2-0.4,4.8c0,0.9,0.3,2.1,1.2,2.4c0.7,0.2,1.5-0.3,2.1-0.8c3-2.5,5.8-5.3,8.2-8.5   c-0.1,1.7,0,3.4,0.2,5.1c0.1,1.2,0.6,2.7,1.7,3c1.4,0.4,2.6-1.1,3.3-2.4c1.6-2.9,3.7-8.9,6.5-10.2c1.4-0.6,2.2-0.4,2.1-2.3   C40.4,6.7,39.1,4.9,37.8,4.1z" style="fill:#fece2f;"/>
	<path d="M42.7,10.8l24-9.8c0,0,1.9,3.2-0.4,5.9c-2.4,2.7-5.2,3.8-5.2,3.8L42.7,10.8z" style="fill:#fece2f;"/>
	<path d="M9.4,22.1c-0.6,0-1-0.1-1.4-0.4C7.2,21.2,6,20.2,11.8,8c2.9-5.8,5.4-7.7,8.6-6.7c2.5,0.8,3.3,3,3.3,3.1   C24,5,23.7,5.5,23.2,5.7c-0.5,0.2-1.1-0.1-1.3-0.6c0-0.1-0.6-1.4-2.1-1.9c-1.1-0.4-2.9-1-6.2,5.7c-4,8.3-4.3,10.7-4.3,11.3   c0,0,0,0,0,0c0.8,0,3.9-0.8,7-6.1c0.3-0.5,0.9-0.6,1.4-0.4c0.5,0.3,0.6,0.9,0.4,1.4c-3.2,5.6-6.6,6.7-7.9,7   C9.9,22.1,9.6,22.1,9.4,22.1z" style="fill:#1A1A1A;"/>
	<path d="M16.3,25.4c-0.1,0-0.3,0-0.4,0c-0.7-0.2-1.2-0.6-1.5-1.2c-1.3-2.6,1.5-8.9,2.8-11.5c2.1-4.3,5.2-9.6,8.1-10.7   c2.8-1,5,0.9,5.7,2.1c0.3,0.5,0.2,1.1-0.3,1.4c-0.5,0.3-1.1,0.2-1.4-0.3c-0.1-0.1-1.4-2-3.4-1.3c-1.8,0.6-4.4,4.3-7,9.7   c-2.1,4.4-3.3,8.6-2.8,9.7c0.1,0.1,0.1,0.1,0.2,0.1c1.2,0.2,5.8-4.5,9.9-9.9c0.3-0.4,1-0.5,1.4-0.2c0.4,0.3,0.5,1,0.2,1.4   C25.3,18,19.4,25.4,16.3,25.4z" style="fill:#1A1A1A;"/>
	<path d="M28.8,24.7c-0.3,0-0.6-0.1-0.8-0.2c-4-1.7-0.8-15-0.1-17c0.8-2.5,1.9-4,3.5-4.7c1.6-0.7,3.5-0.6,5.9,0.4   c4.4,1.8,4.5,7,4.5,7.3c0,0.5-0.4,1-0.9,1l-3.4,0.2L37,12.2C34.1,19,31.5,24.7,28.8,24.7z M33.4,4.3c-0.5,0-1,0.1-1.4,0.3   c-1,0.5-1.8,1.6-2.4,3.5c-1.7,5.4-2.3,14-1,14.5c0.6,0.2,2.1-0.9,6.5-11.2l0.5-1.2c0.1-0.4,0.5-0.6,0.9-0.6l3-0.2   C39.3,8.2,38.6,6,36.4,5C35.2,4.6,34.2,4.3,33.4,4.3z" style="fill:#1A1A1A;"/>
	<path d="M42.7,11.8c-0.5,0-0.9-0.3-1-0.8c-0.1-0.5,0.2-0.9,0.6-1.1l24-9.8c0.5-0.2,1,0,1.2,0.4C68.4,1.8,69.3,5,67,7.6   c-2.5,2.8-5.5,4-5.6,4.1c-0.1,0-0.2,0.1-0.4,0.1L42.7,11.8C42.7,11.8,42.7,11.8,42.7,11.8z M66.2,2.3L47.9,9.7l13-0.1   c0.6-0.3,2.8-1.3,4.7-3.4C66.8,4.8,66.5,3.2,66.2,2.3z" style="fill:#1A1A1A;"/>
	<g>
		<path d="M11.6,10.7c0,0-9.2,6.9-10.4,5.1s4-7.9,7-10.2C11.6,3,14.3,5,14.3,5L11.6,10.7z" style="fill:#fece2f;"/>
		<path d="M1.9,17.1c-0.1,0-0.2,0-0.3,0c-0.6-0.1-1-0.4-1.2-0.7c-2-3,5.2-10,7.2-11.6c4-3,7.2-0.8,7.3-0.7    c0.4,0.3,0.5,0.8,0.3,1.2l-2.7,5.8c-0.1,0.1-0.2,0.3-0.3,0.4C10.5,12.9,4.6,17.1,1.9,17.1z M2,15.1C2,15.1,2,15.1,2,15.1    c1.2,0,5.1-2.3,8.9-5.1L13,5.4c-0.9-0.3-2.4-0.4-4.2,1C5.4,9,1.8,13.9,2,15.1z M11.6,10.7L11.6,10.7L11.6,10.7z" style="fill:#1A1A1A;"/>
	</g>
</g>
</g></g></g><!--ITEM 10--><g><defs><clipPath id="clip-path-id-crop-item-10"><rect transform="scale(1.6421666666666668 1.6386475409836065)" x="0.0" y="0.0" width="370.0" height="158.0"/></clipPath><clipPath id="clip-path-id-viewbox-item-10"><rect x="0.0" y="0.0" width="650.298" height="599.745"/></clipPath></defs><g clip-path="url(#clip-path-id-crop-item-10)" transform="translate(1144.0 1577.0) rotate(-89.99999999999996 198.0 183.0) scale(0.6089515883487263 0.6102593602280969)"><g clip-path="url(#clip-path-id-viewbox-item-10)" transform="translate(-0.0 -0.0)"><g>
	<path style="fill:#FECE2F;" d="M183.713,75.819c0,0-32.042,99.666-107.777,158.042S-36.209,381.936,49.721,492.992   s356.828,152.346,508.298,41.29c151.47-111.056,93.212-304.693-8.739-422.868S209.929-49.476,183.713,75.819z"/>
</g>
</g></g></g></svg>