<svg xmlns="http://www.w3.org/2000/svg" version="1.1" viewBox="0 0 3000 3000" width="3000" height="3000">
<defs/><!--ITEM: Illustration component 1--><g transform="translate(540.0 294.0) rotate(0.0 1043.0 825.0)  scale(3.5903614457831323 3.6026200873362444)"><svg width="581.0" height="458.0" viewBox="0.0 0.0 581.0 458.0"><g id="ad676834-6c35-401d-b902-0e27e02ba7a8-i1" data-name="Layer 2"><g id="aef774b5-2a84-4f80-8c69-6e81a6b7bc15-i1" data-name="browser_window"><path d="M570.657,457H10.343A8.3,8.3,0,0,1,2,448.7V10.305A8.3,8.3,0,0,1,10.343,2H570.657A8.3,8.3,0,0,1,579,10.305V448.8A8.283,8.283,0,0,1,570.657,457Z" fill="#fff"/><path d="M578.7,30.45V10.95a8.28,8.28,0,0,0-8.3-8.3H10.5a8.28,8.28,0,0,0-8.3,8.3v19.5Z" fill="#ffce31"/><path d="M566.621,16.5l4.94-4.939a1.5,1.5,0,0,0-2.122-2.122l-4.939,4.94-4.939-4.94a1.5,1.5,0,0,0-2.122,2.122l4.94,4.939-4.94,4.939a1.5,1.5,0,0,0,2.122,2.122l4.939-4.94,4.939,4.94a1.5,1.5,0,0,0,2.122-2.122Z" fill="#1a1a1a"/><path d="M571.072,0H9.928A9.878,9.878,0,0,0,0,9.806V448.194A9.878,9.878,0,0,0,9.928,458H571.072A9.829,9.829,0,0,0,581,448.3V9.806A9.878,9.878,0,0,0,571.072,0ZM9.928,3H571.072A6.875,6.875,0,0,1,578,9.806V30H3V9.806A6.875,6.875,0,0,1,9.928,3ZM578,33V88H3V33Zm-6.928,422H9.928A6.875,6.875,0,0,1,3,448.194V91H578V448.3A6.826,6.826,0,0,1,571.072,455Z" fill="#1a1a1a"/><path d="M544.5,24h-6a4.505,4.505,0,0,1-4.5-4.5v-6A4.505,4.505,0,0,1,538.5,9h6a4.505,4.505,0,0,1,4.5,4.5v6A4.505,4.505,0,0,1,544.5,24Zm-6-12a1.5,1.5,0,0,0-1.5,1.5v6a1.5,1.5,0,0,0,1.5,1.5h6a1.5,1.5,0,0,0,1.5-1.5v-6a1.5,1.5,0,0,0-1.5-1.5Z" fill="#1a1a1a"/><path d="M524.5,24h-12a1.5,1.5,0,0,1,0-3h12a1.5,1.5,0,0,1,0,3Z" fill="#1a1a1a"/><path d="M512.5,76h-366a5.507,5.507,0,0,1-5.5-5.5v-20a5.507,5.507,0,0,1,5.5-5.5h366a5.507,5.507,0,0,1,5.5,5.5v20A5.507,5.507,0,0,1,512.5,76Zm-366-28a2.5,2.5,0,0,0-2.5,2.5v20a2.5,2.5,0,0,0,2.5,2.5h366a2.5,2.5,0,0,0,2.5-2.5v-20a2.5,2.5,0,0,0-2.5-2.5Z" fill="#1a1a1a"/><path d="M57.5,74a1.5,1.5,0,0,1-.978-2.639L69.195,60.5,56.523,49.639a1.5,1.5,0,0,1,1.954-2.278l14,12a1.5,1.5,0,0,1,0,2.278l-14,12A1.5,1.5,0,0,1,57.5,74Z" fill="#1a1a1a"/><path d="M33.5,74a1.494,1.494,0,0,1-.976-.361l-14-12a1.5,1.5,0,0,1,0-2.278l14-12a1.5,1.5,0,1,1,1.954,2.278L21.805,60.5,34.477,71.361A1.5,1.5,0,0,1,33.5,74Z" fill="#1a1a1a"/><path d="M118,59a1.5,1.5,0,0,0-1.5,1.5,10.07,10.07,0,1,1-6.6-9.382l-2.879.959a1.5,1.5,0,0,0,.95,2.846l6-2a1.5,1.5,0,0,0,.867-2.094l-3-6a1.5,1.5,0,0,0-2.684,1.342l.923,1.846A12.992,12.992,0,1,0,119.5,60.5,1.5,1.5,0,0,0,118,59Z" fill="#1a1a1a"/><path d="M564.061,71.939l-8.45-8.449a11.541,11.541,0,1,0-2.121,2.121l8.449,8.45a1.5,1.5,0,0,0,2.122-2.122ZM538,56.5a8.5,8.5,0,1,1,8.5,8.5A8.51,8.51,0,0,1,538,56.5Z" fill="#1a1a1a"/></g></g></svg></g><!--ITEM: Illustration component 2--><g transform="translate(388.0 866.0) rotate(0.0 618.0 923.0)  scale(2.290339437199115 2.287799189231728)"><svg width="539.658" height="806.889" viewBox="0.0 0.0 539.658 806.889"><g id="b29c6eed-8ab2-4e2c-b0d2-3911a1e1c2fa-i2" data-name="Layer 2"><g id="a0f46901-0c8f-417c-ae6a-a9abadedc8d5-i2" data-name="it_developer"><path d="M345.5,311.889a252.17,252.17,0,0,1,36,1s1.5-11.5-7.5-9.5S345.5,311.889,345.5,311.889Z" fill="#fece2f"/><path d="M372,287.389c-42.037-5.733-100-28-132-38s-46-7-46-7c17-4,36-26,72-74,39.477-52.636,13-130-35-130-41.049,0-130,37-177,114-59.186,96.964-49.5,170.5-24.5,240.5,0,0,66-53,183-72,2-3-7.126-15.427-8-17,60,4,94,0,114,1,7.84.392,27.5,11.5,36.5,5.5,8.362-5.575,24-9,25-4,2.386,11.929,4,15,10,15C393,314.389,394,290.389,372,287.389Z" fill="#fece2f"/><path d="M382.4,291.2c13.6,4.188,20.6,8.188,23.6,13.188,2.121,3.535,8.743,19.419,4,21-3,1-7-3-7-3" fill="#fece2f"/><path d="M408.979,327.048c-3.332,0-6.625-3.184-7.04-3.6a1.5,1.5,0,0,1,2.122-2.121c1.094,1.089,3.873,3.178,5.464,2.638.089-.029.274-.091.435-.528,1.261-3.407-3.03-14.585-5.246-18.278-2.809-4.681-9.826-8.545-22.753-12.526a1.5,1.5,0,0,1,.883-2.867c13.871,4.272,21.181,8.415,24.442,13.85,1.443,2.4,7.471,15.5,5.488,20.861a3.658,3.658,0,0,1-2.3,2.334A4.723,4.723,0,0,1,408.979,327.048Z" fill="#1a1a1a"/><path d="M381.013,290.369C398,298.389,404,314.389,403,321.389s-10.9-5.143-11.4-10" fill="#fece2f"/><path d="M401.3,325.012h-.062c-4.2-.083-10.706-9.3-11.134-13.469a1.5,1.5,0,0,1,2.985-.306c.252,2.461,3.678,7.634,6.544,9.884a3.344,3.344,0,0,0,1.668.891,4,4,0,0,0,.211-.834c.881-6.161-4.565-21.625-21.142-29.452a1.5,1.5,0,0,1,1.281-2.713c18.2,8.592,23.849,25.465,22.831,32.589C404.049,324.654,402.16,325.012,401.3,325.012Z" fill="#1a1a1a"/><path d="M135.037,201.306c-4.537,31.583-14.812,88.606,20.326,98.594,0,0-44.53-2.218-39.7-29.615S117.574,247.723,135.037,201.306Z" fill="#fff"/><path d="M223.232,261.525S282,281.389,306,282.389s23.372-2.846,44.686,1.077c-41.372-11.154-115.941-36.875-129.314-38.976C222.628,251.288,224.464,253.661,223.232,261.525Z" fill="#fff"/><path d="M29.994,392.844C64.5,362.889,179.779,320.156,235,319.389c72-1,149,9,171,24,53.194,36.268-57,220-116,268-16-10-61-43-61-43s76-97,91-148c0,0-16-1.324-49.752,10.088S194.546,453.1,112.5,451.889C44.5,450.889,53.5,436.889,29.994,392.844Z" fill="#fff"/><path d="M391.676,54.359c0-21-12.248-56.866-66.489-52.492s-64.74,30.62-63.805,48.04l22.6,78.011s27.248,15.117,57.157.413l0,0c8.953,3.111,13.793,4.762,18.168,1.262s0-7,2.143-15.752l-.017.011C381.9,94.25,391.676,67.122,391.676,54.359Z" fill="#fece2f"/><path d="M151.121,64.389s57.879-16,86.879-4,39,25,45,34c-7-22-7.482-43.538-43.759-55.214C213.5,30.889,151.121,64.389,151.121,64.389Z" fill="#fff"/><path d="M177.349,329.524C197.5,339.889,208.5,348.889,235.5,339.889s46-15,69-8,23,11,37,8,76.577-1.131,75.789,60.934c0,0,11.729-41.318-9.53-56.126s-84-21.237-117.631-24.022S212.2,317.159,177.349,329.524Z" fill="#fece2f"/><path d="M291,710.389c-4.472-4.472-20-24-25-54-1.264-7.582-2.4-13.5-3.392-18.119a30.043,30.043,0,0,1,8.974-28.412l6.743-6.223-33.752-23.923L230,599.389s-24,9-37,27c-7.242,10.027-8,25,0,33s29,14,40,24,38,52,53,48S296,715.389,291,710.389Z" fill="#fece2f"/><path d="M135.083,453.064c-5.883,0-11.31-.071-16.115-.175-4.566-.1-8.8-.128-12.9-.155-39.93-.268-56.458-.379-79.48-64.84C.422,314.63-5.147,246.411,52.72,151.608c26.7-43.735,64.368-71.123,91.271-86.4C174.758,47.74,208.1,36.889,231,36.889c19.1,0,35.985,11.846,46.313,32.5,12.9,25.809,14.782,66.709-10.113,99.9-30.454,40.606-48.809,62.765-64.355,71.22,7.5.292,19.783,1.88,37.6,7.448,7.634,2.386,16.91,5.525,26.733,8.849,32.583,11.025,73.133,24.748,105.023,29.1,7.94,1.083,13.769,4.816,17.325,11.1,4.875,8.611,3.987,20,1.851,24.98a1.5,1.5,0,0,1-1.379.909c-7.485,0-9.168-4.691-11.471-16.206-.04-.2-.342-.434-.809-.627-4.506-1.869-19.716.8-26.888,5.581-6.531,4.354-14.977,1.043-22.426-1.878-3.6-1.414-7.008-2.748-9.481-2.872-6.73-.337-16.674-.216-29.265-.065-24.913.3-59.035.711-98.76-1.936-59.946-4-72-10.96-76.334-25.056-2.123-6.9,1.633-37.369,16.674-73.517,13.135-31.569,38.358-75.614,83.925-106.17a1.5,1.5,0,0,1,1.67,2.492c-44.945,30.14-69.849,73.644-82.825,104.83-14.558,34.988-18.53,65.134-16.576,71.482,3.837,12.475,15.84,19.09,73.666,22.945,39.608,2.641,73.661,2.23,98.524,1.93,12.643-.152,22.627-.273,29.451.069,2.963.147,6.588,1.569,10.427,3.075,6.767,2.652,14.436,5.658,19.666,2.175,7.537-5.024,23.911-8.249,29.7-5.857a3.89,3.89,0,0,1,2.6,2.811c2.243,11.217,3.68,13.475,7.5,13.76,1.435-4.408,2.147-13.955-2.054-21.376-3.071-5.423-8.158-8.655-15.121-9.6-32.173-4.387-72.875-18.161-105.579-29.227-9.805-3.319-19.066-6.452-26.665-8.827-31.108-9.72-45.1-6.993-45.242-6.964a1.5,1.5,0,0,1-.655-2.928c16.587-3.9,36.157-26.791,71.144-73.44,24.126-32.167,22.321-71.775,9.829-96.759-9.8-19.6-25.7-30.841-43.629-30.841-22.413,0-55.186,10.7-85.527,27.93-26.6,15.1-63.831,42.165-90.193,85.351C-1.967,246.959,3.536,314.431,29.413,386.884c22.316,62.485,37.117,62.584,76.674,62.85,4.109.027,8.358.055,12.945.155,31.581.685,90.129-.079,127.481-12.919l5.331-1.838c29.889-10.327,60.793-21,91.387-16.226a1.5,1.5,0,0,1-.462,2.965c-29.858-4.667-60.4,5.889-89.946,16.1l-5.336,1.841C215.411,450.833,168.092,453.064,135.083,453.064Z" fill="#1a1a1a"/><path d="M290,612.889a1.494,1.494,0,0,1-.8-.228c-15.864-9.915-60.642-42.732-61.092-43.062a1.5,1.5,0,0,1-.294-2.135c.758-.968,75.994-97.358,90.742-147.5a1.5,1.5,0,1,1,2.878.846c-14,47.587-81.469,135.845-90.308,147.278,7.22,5.277,43.831,31.97,58.754,41.453C339.5,568.467,421.236,437.558,418.541,373.824c-.58-13.712-5.084-23.535-13.386-29.2-21.039-14.345-95.767-24.784-170.134-23.739-55.62.772-164.326,39.715-204.062,73.1a1.5,1.5,0,0,1-1.93-2.3c19.518-16.4,55.1-34.488,97.634-49.625,41.513-14.777,82.005-23.817,108.316-24.182,74.907-1.047,150.388,9.616,171.866,24.261,9.128,6.223,14.071,16.837,14.693,31.547,2.743,64.851-80.638,198.215-130.592,238.855A1.489,1.489,0,0,1,290,612.889Z" fill="#1a1a1a"/><path d="M283.92,733.154c-11.5,0-26.942-18.952-39.518-34.387-5.032-6.177-9.378-11.511-12.411-14.268-5.51-5.01-13.624-9-21.471-12.855-7.47-3.672-14.526-7.14-18.581-11.2-8.128-8.128-8.2-23.8-.155-34.938,12.323-17.064,33.887-26.034,37.27-27.364l14.313-19.327a1.5,1.5,0,1,1,2.41,1.785l-14.572,19.676a1.489,1.489,0,0,1-.678.512c-.236.089-23.737,9.064-36.311,26.474-7.218,9.995-7.288,23.929-.155,31.061,3.7,3.7,10.542,7.065,17.783,10.623,8.034,3.95,16.342,8.034,22.165,13.328,3.2,2.909,7.611,8.323,12.719,14.593,11.576,14.21,29.077,35.684,38.885,33.068,4.889-1.3,7.793-3.548,8.632-6.669,1.093-4.071-1.466-8.982-4.306-11.822-.195-.195-19.607-19.943-25.418-54.813-1.149-6.891-2.286-12.963-3.379-18.051a31.686,31.686,0,0,1,9.421-29.83l6.745-6.222a1.5,1.5,0,0,1,2.035,2.206L272.6,610.96a28.671,28.671,0,0,0-8.524,26.994c1.1,5.133,2.248,11.253,3.4,18.188,5.656,33.933,24.393,53,24.582,53.186,3.544,3.545,6.491,9.472,5.081,14.721-.782,2.909-3.282,6.8-10.755,8.789A9.543,9.543,0,0,1,283.92,733.154Z" fill="#1a1a1a"/><path d="M313.608,136.2a68.992,68.992,0,0,1-30.349-6.971,1.5,1.5,0,0,1,1.454-2.624c.291.161,29.483,15.9,59.84-1.8,30.378-17.72,45.624-54.713,45.624-70.443,0-7.064-1.515-24.891-15.543-37.833C363.3,6.066,346.706,1.637,325.307,3.363c-58.342,4.705-63.093,34.061-62.427,46.464a1.5,1.5,0,1,1-3,.161,39.125,39.125,0,0,1,11.649-30.053c11.006-11,29.017-17.586,53.533-19.563,22.255-1.793,39.624,2.9,51.6,13.949,14.9,13.746,16.509,32.579,16.509,40.038,0,15.387-14.227,53.851-47.113,73.035A63.655,63.655,0,0,1,313.608,136.2Z" fill="#1a1a1a"/><path d="M300.689,81.23a1.491,1.491,0,0,1-.855-.269c-6.068-4.222-8.21-10.462-5.729-16.694,2.624-6.586,9.657-11.192,15.65-10.3,3.579.542,9.742,3.456,10.8,16.9a1.5,1.5,0,0,1-1.377,1.613,1.518,1.518,0,0,1-1.614-1.377c-.666-8.43-3.6-13.46-8.26-14.165-4.635-.714-10.314,3.165-12.414,8.442-1.152,2.891-2.078,8.439,4.654,13.121a1.5,1.5,0,0,1-.858,2.732Z" fill="#1a1a1a"/><path d="M379.146,81.709c-4.884,0-7-3.944-9.058-7.8-2.316-4.324-4.709-8.8-11.107-10.217-15.131-3.359-39.471,5.746-39.714,5.838a1.5,1.5,0,0,1-1.063-2.8c1.031-.391,25.433-9.519,41.428-5.961,7.741,1.72,10.713,7.269,13.1,11.728,2.879,5.376,4.464,8.333,12.262,4.465a1.5,1.5,0,1,1,1.334,2.688A16.543,16.543,0,0,1,379.146,81.709Z" fill="#1a1a1a"/><path d="M353.182,93.728c-6.576-6.576-10.5-7-12.248-5.249s0,8.748,4.375,14,7,7.874,11.373,7S356.682,97.227,353.182,93.728Z" fill="#fff"/><path d="M295.443,76.856a1.145,1.145,0,0,1-.117,0c-11.817-.909-19.715-9.19-20.045-9.542a1.5,1.5,0,0,1,2.187-2.055h0c.073.078,7.461,7.788,18.089,8.607a1.5,1.5,0,0,1-.114,2.995Z" fill="#1a1a1a"/><path d="M355.063,111.146c-4.148,0-7-3.023-10.907-7.709-4.267-5.121-7.067-13.234-4.282-16.019,1.7-1.7,5.833-3.286,14.369,5.249h0c3.036,3.036,6.791,11.429,5.515,15.645a3.59,3.59,0,0,1-2.782,2.635A9.819,9.819,0,0,1,355.063,111.146ZM343.241,89.1a1.7,1.7,0,0,0-1.246.44c-.741.76.03,6.655,4.466,11.978,4.54,5.448,6.6,7.151,9.927,6.488.155-.031.349-.07.5-.562.832-2.749-2.22-10.109-4.765-12.655h0C348.063,90.729,345,89.1,343.241,89.1Z" fill="#1a1a1a"/><path d="M349.39,106.967s.669-8.687,8.355-4.839C358.244,107.2,358.721,112.332,349.39,106.967Z" fill="#1a1a1a"/><path d="M332.779,133.231a1.507,1.507,0,0,1-.547-.1,7.264,7.264,0,0,1-4.558-4.341c-1.213-3.513.94-7.23,1.033-7.386a1.5,1.5,0,0,1,2.586,1.52c-.036.063-1.54,2.719-.779,4.9a4.374,4.374,0,0,0,2.812,2.516,1.5,1.5,0,0,1-.547,2.9Z" fill="#1a1a1a"/><path d="M353.7,133.064c-3.521,0-7.649-1.435-13.053-3.313a1.5,1.5,0,0,1,.985-2.834c9.236,3.21,13.129,4.4,16.738,1.509,1.665-1.332,1.626-2.4,1.268-5.287a24.656,24.656,0,0,1,.355-9.65,1.5,1.5,0,1,1,2.914.712,21.752,21.752,0,0,0-.292,8.569c.354,2.855.689,5.552-2.37,8A9.982,9.982,0,0,1,353.7,133.064Z" fill="#1a1a1a"/><path d="M369.805,88.479c-1.75-1.75-4.812-3.937-8.311-2.188s4.374,7.874,6.124,7.874S373.742,92.416,369.805,88.479Z" fill="#1a1a1a"/><path d="M381.2,314.889c-.052,0-.1,0-.156-.008-9.513-.98-37.762-.992-38.046-.992a1.5,1.5,0,0,1,0-3c1.167,0,28.688.012,38.354,1.008a1.5,1.5,0,0,1-.152,2.992Z" fill="#1a1a1a"/><path d="M435,340.389l-129.208-21.3a6.039,6.039,0,0,1-5.032-6.484h0a6.039,6.039,0,0,1,7.084-5.418L437,330.389" fill="#fece2f"/><path d="M435,341.889a1.589,1.589,0,0,1-.246-.02l-129.208-21.3a7.54,7.54,0,1,1,2.561-14.86l129.157,23.2a1.5,1.5,0,1,1-.532,2.953l-129.156-23.2a4.541,4.541,0,0,0-5.324,4.074,4.562,4.562,0,0,0,3.782,4.873l129.208,21.3a1.5,1.5,0,0,1-.242,2.981Z" fill="#1a1a1a"/><path d="M444.1,328.837l83.353-101.124a6.04,6.04,0,0,1,8.132-1.116h0a6.039,6.039,0,0,1,1.15,8.844L452,335.389" fill="#fece2f"/><path d="M452,336.889a1.5,1.5,0,0,1-1.144-2.47l84.733-99.948a4.538,4.538,0,0,0-.865-6.646,4.56,4.56,0,0,0-6.112.839L445.255,329.791a1.5,1.5,0,0,1-2.315-1.908l83.354-101.124a7.538,7.538,0,1,1,11.584,9.649l-84.733,99.951A1.5,1.5,0,0,1,452,336.889Z" fill="#1a1a1a"/><circle cx="443" cy="337.389" r="9" fill="#fece2f"/><path d="M443,347.889a10.5,10.5,0,1,1,10.5-10.5A10.512,10.512,0,0,1,443,347.889Zm0-18a7.5,7.5,0,1,0,7.5,7.5A7.508,7.508,0,0,0,443,329.889Z" fill="#1a1a1a"/><path d="M302.343,71.689a1.5,1.5,0,0,1-1.482-1.276,6.105,6.105,0,0,1,3.21-6.473,7.923,7.923,0,0,1,8.962,1.067,1.5,1.5,0,1,1-1.967,2.266,4.9,4.9,0,0,0-5.548-.7,3.144,3.144,0,0,0-1.69,3.395,1.5,1.5,0,0,1-1.259,1.708A1.574,1.574,0,0,1,302.343,71.689Z" fill="#1a1a1a"/><path d="M177.35,303.855a1.5,1.5,0,0,1-.482-2.921c2.28-.773,55.712-19.351,43.669-55.85a1.5,1.5,0,0,1,2.85-.939c10.351,31.374-23.765,52.244-45.556,59.631A1.524,1.524,0,0,1,177.35,303.855Z" fill="#1a1a1a"/><path d="M204,277.889a1.5,1.5,0,0,1-.855-2.733c12.1-8.377,9.008-31.621,8.976-31.855a1.5,1.5,0,0,1,2.971-.414c.143,1.029,3.364,25.317-10.239,34.735A1.488,1.488,0,0,1,204,277.889Z" fill="#1a1a1a"/><polyline points="144 492.389 144 582.389 165 582.389 165 492.389" fill="#fece2f"/><path d="M165,583.889H144a1.5,1.5,0,0,1-1.5-1.5v-90a1.5,1.5,0,0,1,3,0v88.5h18v-88.5a1.5,1.5,0,0,1,3,0v90A1.5,1.5,0,0,1,165,583.889Z" fill="#1a1a1a"/><path d="M159,301.889a1.5,1.5,0,0,1-.292-2.971c.2-.039,19.812-4.043,31.394-12.729a1.5,1.5,0,1,1,1.8,2.4c-12.132,9.1-31.776,13.105-32.606,13.271A1.571,1.571,0,0,1,159,301.889Z" fill="#1a1a1a"/><path d="M94,477.389c24,5,26.863,19,60,19s36-14,60-19" fill="#fece2f"/><path d="M154,497.889c-20.195,0-29.592-5.228-38.679-10.282-6-3.336-12.195-6.785-21.627-8.749a1.5,1.5,0,1,1,.612-2.938c9.879,2.059,16.282,5.62,22.473,9.065,9.157,5.093,17.8,9.9,37.221,9.9s28.064-4.811,37.221-9.9c6.191-3.445,12.594-7.006,22.473-9.065a1.5,1.5,0,0,1,.612,2.938c-9.432,1.964-15.631,5.413-21.627,8.749C183.592,492.661,174.2,497.889,154,497.889Z" fill="#1a1a1a"/><path d="M264.194,647.669a1.475,1.475,0,0,1-.364-.045c-17.9-4.463-22.858-19.67-26.842-31.889-2.233-6.852-4.163-12.77-7.794-15.08a1.5,1.5,0,0,1,1.612-2.532c4.539,2.889,6.622,9.281,9.035,16.682,3.949,12.115,8.427,25.848,24.716,29.909a1.5,1.5,0,0,1-.363,2.955Z" fill="#1a1a1a"/><rect x="28" y="451.389" width="252" height="26" rx="13" fill="#1a1a1a"/><path d="M267,478.889H41a14.5,14.5,0,0,1,0-29H267a14.5,14.5,0,0,1,0,29Zm-226-26a11.5,11.5,0,0,0,0,23H267a11.5,11.5,0,0,0,0-23Z" fill="#1a1a1a"/><path d="M385.661,78.306c-16.514,8.2-10.607-12.574-26.354-16.073s-40.572,5.9-40.572,5.9S315,48.763,301.281,57.685s-3.215,18.546-3.215,18.546-18.468-1.2-25.544-12.851-11.2-14.27-11.2-14.27-1.773-32.511,37.17-42.5,64.424-4.168,77.929,9.544S397.143,50.637,385.661,78.306Z" fill="#1a1a1a"/><path d="M212.194,322.827a1.513,1.513,0,0,1-.221-.016,1.5,1.5,0,0,1-1.264-1.7c1.063-7.2-7.666-15.791-7.755-15.877a1.5,1.5,0,0,1,2.091-2.152c.405.394,9.92,9.747,8.631,18.468A1.5,1.5,0,0,1,212.194,322.827Z" fill="#1a1a1a"/><path d="M343.5,418.889c13.865,1.891,1.761,15.695-19,24-10,4-23.477,21.446-26,26,0,0,21-42,22-50Z" fill="#1a1a1a"/><path d="M216.5,87.889c-14-5-29,9-30,18s-9.5,12.5-17.5,19.5-2,14-8,20c-26.618,26.618-30.5,49.5-38.5,87.5,4-17,28-63,28-63l31-41,35-26C220.5,99.889,230.5,92.889,216.5,87.889Z" fill="#1a1a1a"/><path d="M293.541,131.731s.978-7.1-10.986-46.393a75.572,75.572,0,0,1,1.293,43.128C290.412,130.728,293.541,131.731,293.541,131.731Z" fill="#1a1a1a"/><path d="M232.9,208.762c-19.989,20.127-61.9,22.627-61.9,34.627s20.5-2.5,40.5.5" fill="#1a1a1a"/><path d="M291,710.389c-4.472-4.472-20-24-25-54-1.264-7.582-.508-4.884-1.5-9.5-22-3-26-39-34.5-47.5-11.5,3.5-24,9-37,27-7.242,10.027-8,25,0,33s29,14,40,24,38,52,53,48S296,715.389,291,710.389Z" fill="#1a1a1a"/><path d="M284.672,676.138c-4.08,0-7.311-5.089-10.705-10.438-3.269-5.147-6.973-10.983-11.261-11.84l.588-2.942c5.546,1.11,9.615,7.52,13.205,13.175,3.225,5.078,6.26,9.879,8.987,8.887,6.269-2.287,5.578-7.092,4.61-9.752-3.12-8.567-16.457-17.247-31.083-11.929l-1.026-2.82c16.38-5.948,31.38,3.979,34.928,13.722,2.233,6.131-.22,11.341-6.4,13.6A5.336,5.336,0,0,1,284.672,676.138Z" fill="#1a1a1a"/><path d="M284.566,687.916c-4.669,0-8.078-6.707-12-14.423-3.517-6.92-7.5-14.762-11.859-15.633l.588-2.942c5.781,1.156,9.932,9.321,13.946,17.216,3.128,6.153,6.7,13.114,9.573,12.767.149-.019.4-.05.608-.661,1.279-3.694-2.863-15.529-10.384-23.138-4.006-4.053-10.394-8.351-18.062-5.79l-.95-2.846c7.234-2.414,14.543-.152,21.146,6.527,8.273,8.371,12.829,21.194,11.085,26.23a3.683,3.683,0,0,1-3.069,2.654A4.85,4.85,0,0,1,284.566,687.916Z" fill="#1a1a1a"/><path d="M281.5,567.389a1.5,1.5,0,0,1-1.118-2.5c1.089-1.22,108.8-122.555,99.582-166.909a17.005,17.005,0,0,0-10.092-12.73c-26.5-12.235-71.425-4.748-114.864,2.489-41.145,6.857-80.006,13.334-101.653,3a1.5,1.5,0,1,1,1.292-2.707c20.79,9.921,59.2,3.523,99.868-3.254,43.888-7.313,89.272-14.875,116.615-2.254A20.074,20.074,0,0,1,382.9,397.37c9.523,45.826-95.793,164.489-100.281,169.518A1.5,1.5,0,0,1,281.5,567.389Z" fill="#1a1a1a"/><path d="M237.062,589.854S269,600.389,278,604.389c-13-11-34-24-34-24Z" fill="#1a1a1a"/><path d="M209.5,322.889c-33.854,3.061-148.5,59.5-171.5,88.5l-8-19S99.354,341.828,209.5,322.889Z" fill="#1a1a1a"/><path d="M302.5,805.389h-13a4,4,0,0,1-4-4V774.772a29.471,29.471,0,0,0-11.21-23.208l-96.7-76.743a50.662,50.662,0,0,1-19.077-36.85l20.966-1.164a29.654,29.654,0,0,0,11.165,21.564l96.7,76.743A50.358,50.358,0,0,1,306.5,774.772v26.617A4,4,0,0,1,302.5,805.389Z" fill="#fece2f"/><path d="M5.5,805.389h13a4,4,0,0,0,4-4V774.772a29.471,29.471,0,0,1,11.21-23.208l96.7-76.743a50.662,50.662,0,0,0,19.077-36.85l-20.966-1.164a29.654,29.654,0,0,1-11.165,21.564l-96.7,76.743A50.358,50.358,0,0,0,1.5,774.772v26.617A4,4,0,0,0,5.5,805.389Z" fill="#fece2f"/><path d="M1.5,793.889h21a0,0,0,0,1,0,0v8a4,4,0,0,1-4,4H5.5a4,4,0,0,1-4-4v-8A0,0,0,0,1,1.5,793.889Z" fill="#1a1a1a"/><path d="M302.5,806.889h-13a5.507,5.507,0,0,1-5.5-5.5V774.772a27.979,27.979,0,0,0-10.643-22.033L176.661,676a52.169,52.169,0,0,1-19.642-37.941,1.5,1.5,0,0,1,1.415-1.581l20.966-1.164a1.488,1.488,0,0,1,1.581,1.415,28.159,28.159,0,0,0,10.6,20.473l96.7,76.743A51.847,51.847,0,0,1,308,774.772v26.617A5.507,5.507,0,0,1,302.5,806.889Zm-142.38-167.5a49.168,49.168,0,0,0,18.406,34.262l96.7,76.743A30.965,30.965,0,0,1,287,774.772v26.617a2.5,2.5,0,0,0,2.5,2.5h13a2.5,2.5,0,0,0,2.5-2.5V774.772a48.868,48.868,0,0,0-18.588-38.483l-96.7-76.743a31.155,31.155,0,0,1-11.611-21.16Z" fill="#1a1a1a"/><path d="M18.5,806.889H5.5a5.507,5.507,0,0,1-5.5-5.5V774.772A51.847,51.847,0,0,1,19.723,733.94l96.7-76.743a28.159,28.159,0,0,0,10.6-20.473,1.491,1.491,0,0,1,1.581-1.415l20.966,1.164a1.5,1.5,0,0,1,1.415,1.581A52.169,52.169,0,0,1,131.339,676l-96.7,76.744A27.979,27.979,0,0,0,24,774.772v26.617A5.507,5.507,0,0,1,18.5,806.889Zm111.4-168.5a31.155,31.155,0,0,1-11.611,21.16l-96.7,76.743A48.868,48.868,0,0,0,3,774.772v26.617a2.5,2.5,0,0,0,2.5,2.5h13a2.5,2.5,0,0,0,2.5-2.5V774.772a30.965,30.965,0,0,1,11.777-24.383l96.7-76.743a49.168,49.168,0,0,0,18.406-34.262Z" fill="#1a1a1a"/><path d="M144,616.389v185a4,4,0,0,0,4,4h13a4,4,0,0,0,4-4v-185" fill="#fece2f"/><path d="M195.467,294S277.5,305.889,314.5,303.889c-63,2-120.79.932-141.4-1.534C182.9,301.423,195.467,294,195.467,294Z" fill="#1a1a1a"/><path d="M144,793.889h21a0,0,0,0,1,0,0v8a4,4,0,0,1-4,4H148a4,4,0,0,1-4-4v-8A0,0,0,0,1,144,793.889Z" fill="#1a1a1a"/><path d="M161,806.889H148a5.506,5.506,0,0,1-5.5-5.5v-185a1.5,1.5,0,0,1,3,0v185a2.5,2.5,0,0,0,2.5,2.5h13a2.5,2.5,0,0,0,2.5-2.5v-185a1.5,1.5,0,0,1,3,0v185A5.506,5.506,0,0,1,161,806.889Z" fill="#1a1a1a"/><path d="M268.5,594.889c14,1,10.665,6.691,31-15,15-16,24-13,39-32s35.113-44.5,35.113-44.5-57.113,89.5-84.113,107.5A182.968,182.968,0,0,1,268.5,594.889Z" fill="#1a1a1a"/><rect x="128" y="582.389" width="52" height="66" rx="3" fill="#fece2f"/><path d="M177,649.889H131a4.505,4.505,0,0,1-4.5-4.5v-60a4.5,4.5,0,0,1,4.5-4.5h46a4.5,4.5,0,0,1,4.5,4.5v60A4.505,4.505,0,0,1,177,649.889Zm-46-66a1.5,1.5,0,0,0-1.5,1.5v60a1.5,1.5,0,0,0,1.5,1.5h46a1.5,1.5,0,0,0,1.5-1.5v-60a1.5,1.5,0,0,0-1.5-1.5Z" fill="#1a1a1a"/><path d="M356.837,126.364a3.194,3.194,0,0,1-2.556-1.029c-.818-.941-1.337-2.8.839-6.31a36.908,36.908,0,0,1,14.219-12.344c3.782-1.66,5.548-.885,6.366.057h0c.818.942,1.337,2.8-.839,6.311a36.888,36.888,0,0,1-14.219,12.344A9.693,9.693,0,0,1,356.837,126.364Zm-.272-3.011c.854.249,4.784-.926,10.026-5.476s6.959-8.273,6.83-9.156c-.858-.263-4.783.925-10.025,5.476S356.437,122.47,356.565,123.353Z" fill="#1a1a1a"/><path d="M372.5,115.345a1.5,1.5,0,0,1-1.154-.541c-.3-.356-29.845-35.688-52.846-45.059a1.5,1.5,0,0,1,1.133-2.777c23.7,9.654,52.793,44.442,54.019,45.918a1.5,1.5,0,0,1-1.152,2.459Z" fill="#1a1a1a"/><path d="M144,510.065s13-8.558,21-2.117V495.79s-15,1.624-21,.111Z" fill="#1a1a1a"/><path d="M144,511.566a1.5,1.5,0,0,1-1.5-1.5V495.9a1.5,1.5,0,0,1,1.866-1.455c5.671,1.429,20.325-.132,20.474-.148a1.5,1.5,0,0,1,1.661,1.491v12.157a1.5,1.5,0,0,1-2.44,1.168c-7.069-5.69-19.115,2.124-19.236,2.2A1.5,1.5,0,0,1,144,511.566Zm1.5-13.861v9.767c3.824-2,11.624-5.212,18-2.219v-7.808C159.823,497.782,150.961,498.456,145.5,497.705Z" fill="#1a1a1a"/><path d="M128,593.359s28.5-6.411,52-.941c0-6.059,2.618-9.529-5.441-10.029s-42,0-42,0-6.059-.5-5.059,5.5S128,593.359,128,593.359Z" fill="#fff"/><path d="M177,649.889H131a4.505,4.505,0,0,1-4.5-4.5v-60a4.5,4.5,0,0,1,4.5-4.5h46a4.5,4.5,0,0,1,4.5,4.5v60A4.505,4.505,0,0,1,177,649.889Zm-46-66a1.5,1.5,0,0,0-1.5,1.5v60a1.5,1.5,0,0,0,1.5,1.5h46a1.5,1.5,0,0,0,1.5-1.5v-60a1.5,1.5,0,0,0-1.5-1.5Z" fill="#1a1a1a"/><path d="M46.506,331.892a11,11,0,0,1-10.047-6.511c-18.656-41.7-.981-88.485-.22-90.457a11,11,0,0,1,20.53,7.909h0c-.153.4-15.088,40.348-.228,73.564a11.006,11.006,0,0,1-10.035,15.5Z" fill="#fff"/><path d="M61.5,211.892a11.007,11.007,0,0,1-10.1-15.336c2.533-5.912,8.963-19.386,15.159-28.061a11,11,0,0,1,17.9,12.787c-4.19,5.868-9.743,16.713-12.841,23.94A11,11,0,0,1,61.5,211.892Z" fill="#fff"/><path d="M285.5,793.889h21a0,0,0,0,1,0,0v8a4,4,0,0,1-4,4h-13a4,4,0,0,1-4-4v-8A0,0,0,0,1,285.5,793.889Z" fill="#1a1a1a"/></g></g></svg></g><!--ITEM: Illustration component 3--><g transform="translate(2194.0 618.0) rotate(180.0 214.0 226.0) translate(6.971025571341268 0.0) scale(1.8129754824717463 1.8039735310786325)"><svg width="231.6633644859813" height="247.23200884955753" viewBox="3.845074375654115 0.0 231.6633644859813 247.23200884955753"><g id="aa2ff675-482b-4ec9-ab50-fa2e9097cea8-i3" data-name="Layer 2"><g id="af8c64fc-8486-4c55-b9f1-470561899c68-i3" data-name="puzzle_2"><path d="M201.8,123.355c-9.627.744-18.126,7.15-22.957,16.818l.019-75.922a1.322,1.322,0,0,0-1.266-1.286L107.545,61.11c9.993-5.528,16.471-15.15,16.95-25.737.415-8.635-3.033-16.887-9.71-23.289A39.034,39.034,0,0,0,89.458,1.545C69.326.634,52.31,14.313,51.515,32.014,51,43.209,57.078,53.678,67.293,59.98L2.826,58.255a1.263,1.263,0,0,0-.923.374,1.261,1.261,0,0,0-.4.939L4.229,246.133A1.3,1.3,0,0,0,5.5,247.419l171.986,1.639.129-.01a1.358,1.358,0,0,0,.793-.363,1.343,1.343,0,0,0,.4-.94l.017-70.344c5.826,12.175,16.824,19.67,28.6,18.761,16.461-1.271,28.567-18.635,27.018-38.706S218.265,122.085,201.8,123.355Z" fill="#ffce31"/><path d="M177.47,250.558h0L5.481,248.919a2.738,2.738,0,0,1-1.89-.775,2.851,2.851,0,0,1-.862-1.989L0,59.59a2.777,2.777,0,0,1,.9-2.072,2.8,2.8,0,0,1,2-.76L62.4,58.349c-8.293-6.738-12.856-16.31-12.387-26.4.4-9,4.764-17.278,12.279-23.314A41.581,41.581,0,0,1,115.824,11c6.991,6.7,10.6,15.386,10.169,24.444-.43,9.494-5.4,18.29-13.535,24.294l65.182,1.727a2.826,2.826,0,0,1,2.726,2.762l-.017,70.5c5.3-7.52,12.98-12.228,21.339-12.873,17.265-1.338,32.635,14.584,34.249,35.481a42.171,42.171,0,0,1-7.02,27.377c-5.368,7.694-12.961,12.29-21.377,12.939-10.436.815-20.659-4.8-27.217-14.6l-.015,64.687a2.82,2.82,0,0,1-2.581,2.8C177.684,250.548,177.517,250.558,177.47,250.558Zm.019-2.291.121.782-.114-1.478Zm-.035-.709h.042l0,0A.285.285,0,0,0,177.454,247.558ZM5.727,245.922l171.58,1.634.017-70.156a1.5,1.5,0,0,1,2.854-.647c5.694,11.9,16.091,18.746,27.132,17.914,7.5-.579,14.3-4.723,19.147-11.666a39.173,39.173,0,0,0,6.489-25.43c-1.487-19.248-15.429-33.914-31.027-32.721h0c-8.947.692-17.071,6.67-21.73,16a1.5,1.5,0,0,1-2.841-.671l.018-75.714-69.861-1.851a1.5,1.5,0,0,1-.686-2.811C116.5,54.444,122.545,45.289,123,35.305c.392-8.181-2.893-16.042-9.25-22.138a38.581,38.581,0,0,0-49.572-2.2c-6.833,5.488-10.8,12.986-11.162,21.112-.49,10.548,5.143,20.5,15.067,26.622a1.5,1.5,0,0,1,.65,1.7,1.449,1.449,0,0,1-1.477,1.07L3.007,59.762Zm-.248,0h0ZM2.785,59.755h0Z" fill="#ffce31"/></g></g></svg></g><!--ITEM: Illustration component 4--><g transform="translate(1896.0 618.0) rotate(180.0 202.0 171.0) translate(0.0 0.0) scale(1.8177891364601706 1.8303451966818305)"><svg width="222.24800000000002" height="183.57192982456138" viewBox="0.0 0.0 222.24800000000002 183.57192982456138"><g id="a5805baf-d802-4900-b477-c500bbf3907f-i4" data-name="Layer 2"><g id="ad6444b4-eed1-47b4-98f6-a13bae851602-i4" data-name="puzzle_3"><path d="M194.791,124.59c-11.3.87-21.73-6.45-27.24-17.87l-.74,77.75-165.25.88c.04-.02-.061-71.7-.061-71.7,5.82,12.17,16.82,19.67,28.6,18.76,16.46-1.27,28.56-18.63,27.009-38.71S40.94,58.33,24.48,59.6c-9.629.75-18.129,7.15-22.96,16.82L1.541,1.5,68.78,2.79C57.38,7.44,49.291,17.4,48.73,29.24,47.971,46.3,63.1,60.82,82.541,61.7s35.85-12.19,36.609-29.24C119.69,19.92,111.7,8.78,99.7,3.39l68.8,1.35-.6,64.94c4.56-8.65,12.31-14.61,21.471-15.32,15.77-1.22,29.75,13.53,31.25,32.91S210.561,123.37,194.791,124.59Z" fill="#ffce31"/><path d="M1.561,186.85A1.5,1.5,0,0,1,.1,185.691a1.46,1.46,0,0,1-.037-.424c.028-1.58-.029-47.449-.063-71.616A1.5,1.5,0,0,1,2.854,113c5.691,11.9,16.091,18.758,27.131,17.913,15.619-1.206,27.116-17.849,25.63-37.1S40.228,59.9,24.6,61.1c-8.954.7-17.079,6.677-21.734,16a1.5,1.5,0,0,1-2.841-.67L.04,1.5A1.5,1.5,0,0,1,.489.429,1.624,1.624,0,0,1,1.568,0L68.809,1.289a1.5,1.5,0,0,1,.538,2.889c-11.278,4.6-18.6,14.23-19.118,25.133C49.508,45.5,64.033,59.36,82.607,60.2a36.317,36.317,0,0,0,24.308-7.57,27.359,27.359,0,0,0,10.737-20.237c.5-11.5-6.793-22.348-18.566-27.636a1.5,1.5,0,0,1,.643-2.868l68.8,1.349A1.5,1.5,0,0,1,170,4.753l-.551,59.635c5.027-6.8,12.028-10.921,19.8-11.524,16.569-1.29,31.3,14.1,32.861,34.289s-10.653,37.651-27.209,38.932h0c-9.909.773-19.618-4.554-25.907-13.843l-.687,72.242a1.5,1.5,0,0,1-1.493,1.486l-165.25.88Zm1.447-67.526c.009,6.7.024,18.435.037,30.166.011,8.962.019,17.924.023,24.648v8.126c0,.615,0,1.135,0,1.578l162.259-.864.727-76.273a1.5,1.5,0,0,1,2.85-.637c5.373,11.136,15.5,17.8,25.774,17.027h0c14.908-1.155,25.876-17.174,24.451-35.71S204.41,54.7,189.485,55.854c-8.349.648-15.733,5.942-20.257,14.525a1.5,1.5,0,0,1-2.828-.713l.586-63.456-61.239-1.2c9.66,6.4,15.368,16.679,14.9,27.515a30.315,30.315,0,0,1-11.863,22.452A39.2,39.2,0,0,1,82.472,63.2c-20.226-.915-36.034-16.178-35.24-34.024.482-10.19,6.271-19.352,15.49-25L3.04,3.029l-.019,67.95C8.316,63.464,16,58.756,24.364,58.1c17.287-1.353,32.629,14.585,34.241,35.48s-11.122,38.989-28.389,40.321C19.771,134.725,9.563,129.107,3.008,119.324Z" fill="#ffce31"/></g></g></svg></g><!--ITEM: Illustration component 5--><g transform="translate(2078.0 1416.0) rotate(0.0 233.0 482.0)  scale(1.9165439694669049 1.9143658861587773)"><svg width="243.146" height="503.561" viewBox="0.0 0.0 243.146 503.561"><g>
    <g>
      <g>
        <path d="M33.568,110.238l26.721-7.428c2.784,9.054,5.407,18.434,7.882,28.074l-32.19,1.583Q34.789,121.663,33.568,110.238Z" style="         fill: #feffff;       "/>
        <path d="M35.98,133.966a1.5,1.5,0,0,1-1.489-1.335q-1.2-10.806-2.415-22.233a1.5,1.5,0,0,1,1.09-1.6l26.721-7.428a1.5,1.5,0,0,1,1.835,1c2.716,8.829,5.375,18.3,7.9,28.142a1.5,1.5,0,0,1-1.379,1.871l-32.19,1.582ZM35.2,111.343q1.071,10.021,2.122,19.556l28.942-1.423c-2.245-8.645-4.587-16.983-6.976-24.829Z" style="         fill: #1a1a1a;       "/>
      </g>
      <g>
        <path d="M29.473,70.8l19.006-1.741c4.236,10.572,8.159,21.884,11.81,33.755l-26.721,7.428C32.231,97.713,30.868,84.6,29.473,70.8Z" style="         fill: #fece2f;       "/>
        <path d="M33.568,111.739a1.5,1.5,0,0,1-1.492-1.341c-1.345-12.6-2.723-25.875-4.1-39.451A1.5,1.5,0,0,1,29.336,69.3l19.006-1.74a1.49,1.49,0,0,1,1.529.937c4.1,10.221,8.083,21.617,11.851,33.871a1.5,1.5,0,0,1-1.031,1.886L33.97,111.684A1.493,1.493,0,0,1,33.568,111.739ZM31.117,72.151c1.258,12.417,2.52,24.567,3.755,36.169L58.4,101.779c-3.482-11.2-7.144-21.664-10.9-31.128Z" style="         fill: #1a1a1a;       "/>
      </g>
      <g>
        <path d="M109.181,402.751c1.22,11.18,9.28,67.6,13.69,98.31H98.331c-.24-.46-.48-.93-.72-1.4-8.29-16.17-15.91-37.99-21.24-57.25a285.8,285.8,0,0,1-6.5-28.4c-.08-.5-.16-.99-.23-1.47-1.37-8.9-2.57-21.01-3.71-33.91-1.24-13.91-2.4-28.75-3.61-41.5-.78-8.31-1.59-15.74-2.44-21.44l10.84-2.11,26.61-5.2,1.35-.26C102.811,342.431,106.131,374.911,109.181,402.751Z" style="         fill: #fece2f;       "/>
        <path d="M122.871,502.561H98.331A1.5,1.5,0,0,1,97,501.755c-.242-.463-.484-.937-.725-1.41-7.5-14.624-15.28-35.6-21.351-57.534a289.026,289.026,0,0,1-6.535-28.557l-.039-.245c-.068-.425-.135-.842-.2-1.252-1.49-9.675-2.77-23.251-3.72-34-.51-5.723-1.007-11.607-1.5-17.437-.718-8.515-1.4-16.557-2.109-24.053-.863-9.191-1.658-16.178-2.43-21.359a1.5,1.5,0,0,1,1.2-1.695l38.8-7.57a1.5,1.5,0,0,1,1.773,1.293c3.013,25.031,5.639,49.491,7.955,71.072.876,8.161,1.722,16.037,2.547,23.574h0c.884,8.1,5.616,42.078,13.684,98.261a1.5,1.5,0,0,1-1.485,1.713Zm-23.626-3H121.14c-7.923-55.194-12.572-88.6-13.45-96.647-.826-7.539-1.672-15.417-2.548-23.581-2.266-21.112-4.828-44.98-7.758-69.434L61.571,316.89c.716,5.068,1.452,11.666,2.244,20.1.712,7.51,1.392,15.56,2.112,24.082.492,5.826.988,11.7,1.5,17.426.946,10.7,2.221,24.211,3.7,33.814.06.408.125.812.191,1.221l.038.241a286.286,286.286,0,0,0,6.465,28.237c6.019,21.752,13.72,42.515,21.129,56.965C99.046,499.172,99.145,499.367,99.245,499.561Z" style="         fill: #1a1a1a;       "/>
      </g>
      <g>
        <path d="M35.981,132.467l32.19-1.583q3.235,12.6,6.14,25.734l-34.7,7.817C38.417,154.2,37.208,143.567,35.981,132.467Z" style="         fill: #fece2f;       "/>
        <path d="M39.611,165.935a1.5,1.5,0,0,1-1.49-1.326c-1.213-10.4-2.435-21.16-3.63-31.978a1.5,1.5,0,0,1,1.417-1.663L68.1,129.386a1.5,1.5,0,0,1,1.527,1.125c2.109,8.216,4.179,16.891,6.152,25.781a1.5,1.5,0,0,1-1.135,1.789L39.94,165.9A1.469,1.469,0,0,1,39.611,165.935Zm-1.963-32.049c1.075,9.705,2.17,19.35,3.26,28.719l31.614-7.122c-1.772-7.923-3.62-15.661-5.5-23.04Z" style="         fill: #1a1a1a;       "/>
      </g>
      <g>
        <path d="M25.877,34.478c-.219-2.253,4.053-3.261,5.247-1.256A231.417,231.417,0,0,1,42.632,55.394L28.153,57.572l14.479-2.178Q45.65,62,48.479,69.055L29.473,70.8C28.3,59.188,27.1,47.108,25.877,34.478Z" style="         fill: #feffff;       "/>
        <path d="M29.471,72.3a1.5,1.5,0,0,1-1.491-1.348c-1.163-11.491-2.373-23.712-3.6-36.324h0a3.632,3.632,0,0,1,2.8-3.707c1.735-.568,4.113-.333,5.226,1.539A233.5,233.5,0,0,1,44,54.771l0,0c2,4.383,3.979,9,5.873,13.724a1.5,1.5,0,0,1-1.255,2.052L29.609,72.29C29.563,72.293,29.516,72.3,29.471,72.3Zm.309-13.45q.522,5.244,1.035,10.321l15.516-1.42c-1.5-3.664-3.036-7.251-4.6-10.7ZM27.37,34.333c.711,7.329,1.417,14.525,2.112,21.523l10.951-1.648a227.173,227.173,0,0,0-10.6-20.218c-.208-.348-1.008-.451-1.714-.222-.467.153-.766.416-.751.565Z" style="         fill: #1a1a1a;       "/>
      </g>
      <g>
        <path d="M49.248,241.264l40.04-2.935q1.835,12.053,3.5,24.072l-40.655-.177,40.655.177c2.146,15.437,4.1,30.751,5.895,45.72l-38.8,7.574C56.219,291.21,52.723,267.07,49.248,241.264Z" style="         fill: #feffff;       "/>
        <path d="M59.885,317.2a1.5,1.5,0,0,1-1.484-1.279c-4.166-27.828-7.547-51.486-10.639-74.452a1.5,1.5,0,0,1,1.376-1.7l40.04-2.935a1.5,1.5,0,0,1,1.593,1.27c1.183,7.774,2.362,15.88,3.5,24.09v0c1.995,14.351,3.924,29.315,5.9,45.747a1.5,1.5,0,0,1-1.2,1.651l-38.8,7.574A1.477,1.477,0,0,1,59.885,317.2ZM53.85,263.732c2.187,15.615,4.569,32.017,7.286,50.19l35.892-7.006c-1.855-15.382-3.673-29.485-5.546-43.021Zm-.42-3,37.635.163c-1-7.13-2.023-14.169-3.052-20.967l-37.065,2.718C51.752,248.6,52.577,254.609,53.43,260.73Z" style="         fill: #1a1a1a;       "/>
      </g>
      <g>
        <path d="M86.076,218.066l-39.165,5.555c-1.052-8.039-2.631-20.855-3.936-31.461-.674-5.43-1.262-10.27-1.683-13.617-.358-2.926-.569-4.693-.569-4.693-.378-3.115-.736-6.25-1.115-9.407l34.7-7.829c1.221,5.451,2.379,10.965,3.515,16.541.568,2.737,1.115,5.494,1.641,8.25C81.845,193.465,84.034,205.733,86.076,218.066Z" style="         fill: #feffff;       "/>
        <path d="M46.911,225.122a1.5,1.5,0,0,1-1.487-1.306c-1.07-8.173-2.727-21.64-3.937-31.473l-.865-7c-.314-2.545-.59-4.8-.818-6.608-.36-2.933-.57-4.7-.57-4.7q-.31-2.559-.611-5.143-.249-2.124-.5-4.262a1.5,1.5,0,0,1,1.159-1.642l34.7-7.83a1.5,1.5,0,0,1,1.794,1.135c1.1,4.907,2.217,10.172,3.521,16.57.547,2.636,1.1,5.42,1.645,8.268,2.264,11.483,4.428,23.49,6.614,36.7a1.5,1.5,0,0,1-1.269,1.73l-39.165,5.556A1.473,1.473,0,0,1,46.911,225.122Zm-5.653-59.513q.174,1.465.345,2.927.3,2.575.609,5.133s.211,1.771.569,4.692c.228,1.809.505,4.063.818,6.61l.865,7c1.138,9.248,2.672,21.709,3.738,29.948L84.344,216.8c-2.1-12.583-4.175-24.08-6.349-35.1-.542-2.841-1.092-5.609-1.638-8.235-1.171-5.75-2.192-10.578-3.183-15.052Z" style="         fill: #1a1a1a;       "/>
      </g>
      <g>
        <path d="M46.909,223.62l39.161-5.559q1.674,10.114,3.218,20.268l-40.04,2.935Q48.078,232.578,46.909,223.62Z" style="         fill: #fece2f;       "/>
        <path d="M49.247,242.764a1.5,1.5,0,0,1-1.485-1.3q-1.171-8.69-2.34-17.651a1.5,1.5,0,0,1,1.276-1.679l39.161-5.558a1.5,1.5,0,0,1,1.691,1.24c1.08,6.526,2.164,13.351,3.221,20.287a1.5,1.5,0,0,1-1.373,1.722l-40.04,2.935C49.321,242.763,49.284,242.764,49.247,242.764ZM48.588,224.9q.979,7.49,1.959,14.769l37.013-2.713c-.9-5.863-1.816-11.634-2.731-17.2Z" style="         fill: #1a1a1a;       "/>
      </g>
    </g>
    <g>
      <g>
        <path d="M175.494,82.88l-25.412-5.161c-1.813,9.645-3.449,19.612-4.926,29.836l29.987-1.414Q175.332,94.834,175.494,82.88Z" style="         fill: #feffff;       "/>
        <path d="M145.156,109.055a1.5,1.5,0,0,1-1.484-1.715c1.507-10.437,3.168-20.5,4.936-29.9a1.5,1.5,0,0,1,1.773-1.192l25.411,5.161a1.5,1.5,0,0,1,1.2,1.49q-.159,11.96-.35,23.265a1.5,1.5,0,0,1-1.429,1.473l-29.987,1.414Zm6.121-29.562c-1.555,8.382-3.024,17.275-4.374,26.478l26.763-1.262q.168-10.048.311-20.606Z" style="         fill: #1a1a1a;       "/>
      </g>
      <g>
        <path d="M175.943,41.624H158.168c-3.03,11.356-5.708,23.448-8.086,36.095l25.412,5.161C175.67,69.776,175.82,56.056,175.943,41.624Z" style="         fill: #fece2f;       "/>
        <path d="M175.493,84.38a1.435,1.435,0,0,1-.3-.03l-25.411-5.161a1.5,1.5,0,0,1-1.176-1.747c2.454-13.051,5.183-25.233,8.111-36.2a1.5,1.5,0,0,1,1.449-1.113h17.775a1.5,1.5,0,0,1,1.5,1.512c-.121,14.248-.272,28.131-.45,41.265a1.5,1.5,0,0,1-1.5,1.479Zm-23.662-7.837,22.187,4.507c.16-12.124.3-24.866.412-37.926H159.322C156.634,53.322,154.117,64.553,151.831,76.543Z" style="         fill: #1a1a1a;       "/>
      </g>
      <g>
        <path d="M168.531,298.261c-.4,7.76-.81,15.54-1.23,23.42q-.24,4.47-.48,8.98c-.72,13.37-1.47,27.07-2.24,41.36-.11,2.07-.27,4.39-.47,6.94-.14,1.89-.31,3.91-.5,6.03-.89,9.87-2.26,22.04-4.04,34.99-.18,1.29-.36,2.58-.55,3.88-1.13,7.93-2.41,16.09-3.82,24.14-.18.99-.35,1.99-.53,2.98-3.29,18.22-7.26,35.64-11.76,48.29-.21.61-.43,1.21-.65,1.79h-16.64c1.44-30.78,4.4-95.63,4.59-107.93.4-25.48.71-54.67,1.39-85.64v-.02q.135-6.645.31-13.38l13.63,1.55,16.77,1.91Z" style="         fill: #fece2f;       "/>
        <path d="M142.261,502.561h-16.64a1.5,1.5,0,0,1-1.5-1.57c.447-9.545,4.369-93.662,4.588-107.884.117-7.437.226-15.19.339-23.21.28-19.913.57-40.5,1.051-62.439q.13-6.423.3-12.894l.012-.511a1.5,1.5,0,0,1,1.669-1.453l36.621,4.171a1.5,1.5,0,0,1,1.328,1.567c-.4,7.761-.81,15.542-1.23,23.423l-2.72,50.341c-.107,2.005-.261,4.287-.472,6.976-.141,1.891-.311,3.919-.5,6.047-.962,10.667-2.362,22.791-4.048,35.06l-.028.2c-.172,1.226-.343,2.452-.523,3.688-1.186,8.316-2.474,16.454-3.827,24.181l-.532,2.99c-3.72,20.6-7.7,36.93-11.823,48.525-.21.61-.435,1.226-.661,1.819A1.5,1.5,0,0,1,142.261,502.561Zm-15.068-3h14.025c.093-.257.185-.518.275-.778,4.075-11.456,8.01-27.624,11.7-48.069l.53-2.981c1.347-7.688,2.629-15.793,3.811-24.084.181-1.234.351-2.454.521-3.674l.029-.2c1.679-12.221,3.073-24.3,4.031-34.918.189-2.111.359-4.123.5-6.007.21-2.669.363-4.927.468-6.908l2.72-50.34c.4-7.4.781-14.717,1.157-22.01l-33.59-3.825q-.144,5.9-.27,11.735c-.481,21.947-.77,42.532-1.05,62.438-.113,8.022-.222,15.777-.339,23.215C131.5,406.827,127.887,484.7,127.193,499.561Z" style="         fill: #1a1a1a;       "/>
      </g>
      <g>
        <path d="M175.143,106.141l-29.987,1.414q-1.93,13.362-3.509,27.247l32.845,4.807C174.73,128.891,174.948,117.759,175.143,106.141Z" style="         fill: #fece2f;       "/>
        <path d="M174.492,141.109a1.454,1.454,0,0,1-.218-.016l-32.844-4.807a1.5,1.5,0,0,1-1.273-1.655c1.073-9.39,2.255-18.572,3.515-27.291a1.5,1.5,0,0,1,1.413-1.283l29.987-1.414a1.471,1.471,0,0,1,1.115.422,1.5,1.5,0,0,1,.456,1.1c-.189,11.261-.408,22.525-.652,33.476a1.5,1.5,0,0,1-1.5,1.467ZM143.3,133.528l29.727,4.35c.216-9.89.414-20.021.586-30.164L146.465,109C145.34,116.869,144.278,125.107,143.3,133.528Z" style="         fill: #1a1a1a;       "/>
      </g>
      <g>
        <path d="M176.193,3.652c.012-2.355-4.035-2.994-4.972-.8-3.182,7.443-6.1,15.5-8.79,24.065l13.612.884-13.612-.884q-2.238,7.126-4.263,14.71h17.775C176.046,29.485,176.13,16.855,176.193,3.652Z" style="         fill: #feffff;       "/>
        <path d="M175.943,43.124H158.168a1.5,1.5,0,0,1-1.449-1.887c1.352-5.062,2.792-10.032,4.28-14.772h0c2.753-8.776,5.728-16.92,8.842-24.2A4.039,4.039,0,0,1,174.518.105a3.7,3.7,0,0,1,3.175,3.554h0c-.063,13.081-.147,25.858-.25,37.977A1.5,1.5,0,0,1,175.943,43.124Zm-15.816-3h14.328q.045-5.381.085-10.921l-11.028-.716C162.345,32.25,161.21,36.153,160.127,40.124Zm4.313-14.583,10.121.657c.052-7.366.1-14.908.132-22.553,0-.435-.751-.6-.784-.6-.5-.1-1.138,0-1.309.4C169.742,10.126,167,17.553,164.44,25.541ZM176.193,3.652h0Z" style="         fill: #1a1a1a;       "/>
      </g>
      <g>
        <path d="M172.078,220.129l-37.382.757q-.678,12.663-1.2,25.274l37.689-4.04-37.689,4.04c-.679,16.2-1.188,32.251-1.585,47.931l36.626,4.167C169.854,272.541,171.046,247.2,172.078,220.129Z" style="         fill: #feffff;       "/>
        <path d="M168.534,299.758a1.613,1.613,0,0,1-.17-.009l-36.625-4.167a1.5,1.5,0,0,1-1.33-1.529c.436-17.215.954-32.9,1.585-47.955h0c.36-8.59.766-17.1,1.2-25.291a1.5,1.5,0,0,1,1.468-1.42l37.382-.758a1.5,1.5,0,0,1,1.529,1.558c-.919,24.123-2.046,48.955-3.545,78.149a1.5,1.5,0,0,1-1.5,1.423Zm-35.091-7,33.674,3.831c.978-19.111,1.8-36.361,2.5-52.791l-34.679,3.718C134.348,261.756,133.858,276.584,133.443,292.756Zm2.677-70.4c-.38,7.195-.734,14.623-1.055,22.126l34.681-3.719c.274-6.464.53-12.812.772-19.1Z" style="         fill: #1a1a1a;       "/>
      </g>
      <g>
        <path d="M174.265,149.459l-34.083-1.032,34.083,1.032q.116-4.871.227-9.85L141.647,134.8c-2.409,21.051-4.257,42.835-5.688,64.779l36.79,2.044C173.314,185.148,173.821,167.9,174.265,149.459Z" style="         fill: #feffff;       "/>
        <path d="M172.749,203.125l-.083,0-36.79-2.044a1.5,1.5,0,0,1-1.414-1.6c1.519-23.284,3.435-45.105,5.7-64.853a1.491,1.491,0,0,1,.575-1.017,1.51,1.51,0,0,1,1.132-.3l32.845,4.808a1.5,1.5,0,0,1,1.282,1.517q-.111,4.986-.227,9.853h0c-.433,17.984-.929,35.052-1.516,52.18a1.5,1.5,0,0,1-1.5,1.449Zm-35.194-4.959,33.747,1.875c.548-16.13,1.016-32.234,1.427-49.127l-31.2-.946C140.007,165.086,138.675,181.233,137.555,198.166Zm4.277-51.19,30.969.939q.081-3.48.161-7.014l-30-4.391Q142.382,141.652,141.832,146.976Z" style="         fill: #1a1a1a;       "/>
      </g>
      <g>
        <path d="M172.749,201.625l-36.79-2.044q-.693,10.638-1.263,21.305l37.382-.757Q172.426,211.017,172.749,201.625Z" style="         fill: #fece2f;       "/>
        <path d="M134.7,222.386a1.5,1.5,0,0,1-1.5-1.58c.391-7.273.816-14.447,1.264-21.323a1.522,1.522,0,0,1,1.58-1.4l36.79,2.043a1.5,1.5,0,0,1,1.416,1.55q-.322,9.411-.671,18.51a1.5,1.5,0,0,1-1.469,1.442l-37.382.758Zm2.664-21.225c-.38,5.9-.742,12-1.079,18.193l34.352-.7q.291-7.708.566-15.617Z" style="         fill: #1a1a1a;       "/>
      </g>
    </g>
    <g>
      <g>
        <path d="M142.053,446.86c12.883,6.123,28.66,6.71,46.161,4,1.805-8.756,3.765-18.442,5.889-29.15l-49.64-2.483C143.562,428.754,142.761,438.029,142.053,446.86Z" style="         fill: #fece2f;       "/>
        <path d="M169.763,453.9c-11,0-20.362-1.889-28.354-5.688a1.5,1.5,0,0,1-.852-1.474c.749-9.341,1.561-18.645,2.413-27.652a1.52,1.52,0,0,1,1.568-1.356l49.64,2.483a1.5,1.5,0,0,1,1.4,1.79c-2.011,10.135-3.993,19.947-5.892,29.161a1.5,1.5,0,0,1-1.239,1.179A122.62,122.62,0,0,1,169.763,453.9Zm-26.131-7.965c11.265,5.062,25.46,6.24,43.324,3.6,1.726-8.389,3.519-17.26,5.338-26.411L145.822,420.8C145.052,429.01,144.316,437.454,143.632,445.937Z" style="         fill: #1a1a1a;       "/>
      </g>
      <g>
        <path d="M144.463,419.23c10.694,7.086,29.513,5.486,49.64,2.483q2.4-12.081,5.068-25.9c1.166-6.046,2.438-11.926,3.79-17.683l-54.223,1.162C147.11,392.757,145.693,406.224,144.463,419.23Z" style="         fill: #feffff;       "/>
        <path d="M166.763,425.758c-9.6,0-17.388-1.474-23.128-5.278a1.5,1.5,0,0,1-.665-1.392c1.319-13.951,2.759-27.4,4.279-39.975a1.5,1.5,0,0,1,1.457-1.321l54.223-1.163a1.6,1.6,0,0,1,1.2.556,1.5,1.5,0,0,1,.295,1.287c-1.426,6.067-2.661,11.831-3.778,17.625-1.679,8.7-3.385,17.416-5.069,25.908a1.5,1.5,0,0,1-1.25,1.192A193.122,193.122,0,0,1,166.763,425.758Zm-20.719-7.3c10.732,6.444,29.624,4.461,46.794,1.93,1.616-8.159,3.25-16.514,4.861-24.855,1.007-5.23,2.112-10.437,3.363-15.859l-50.99,1.094C148.645,392.664,147.291,405.332,146.044,418.454Z" style="         fill: #1a1a1a;       "/>
      </g>
      <g>
        <path d="M188.211,450.861c-4.64,22.54-8.23,38.86-10.84,50.2H138.4c.38-7.03.88-15.52,1.52-25.06.59-8.89,1.29-18.71,2.13-29.14l1.53.13L155.2,448Z" style="         fill: #feffff;       "/>
        <path d="M177.371,502.561H138.4a1.5,1.5,0,0,1-1.5-1.581c.444-8.211.956-16.649,1.522-25.08.682-10.288,1.38-19.827,2.131-29.159a1.5,1.5,0,0,1,.525-1.025,1.483,1.483,0,0,1,1.1-.349l13.153,1.139,33.01,2.861a1.5,1.5,0,0,1,1.339,1.8c-4.016,19.509-7.666,36.411-10.847,50.233A1.5,1.5,0,0,1,177.371,502.561Zm-37.386-3h36.192c3.022-13.185,6.459-29.1,10.225-47.352l-42.976-3.726c-.7,8.841-1.363,17.892-2.008,27.617C140.889,483.979,140.408,491.863,139.985,499.561Z" style="         fill: #1a1a1a;       "/>
      </g>
      <g>
        <path d="M152.936,348.062c-1.533,10.252-2.929,20.738-4.2,31.23,13.183,9.578,32.438,6.784,54.223-1.162,3.347-14.253,7.185-27.756,11.116-41.172L157.9,318.614C156.1,328.07,154.449,337.935,152.936,348.062Z" style="         fill: #fece2f;       "/>
        <path d="M169.54,386.86c-8.726,0-15.855-2.119-21.684-6.354a1.5,1.5,0,0,1-.607-1.393c1.328-10.983,2.743-21.5,4.2-31.274h0c1.545-10.334,3.218-20.26,4.974-29.506a1.5,1.5,0,0,1,1.939-1.145l56.178,18.345a1.5,1.5,0,0,1,.974,1.847c-4.367,14.9-7.925,27.59-11.095,41.092a1.5,1.5,0,0,1-.947,1.067C190.091,384.421,178.9,386.86,169.54,386.86Zm-19.2-8.278c11.075,7.531,27.446,7.02,51.352-1.586,3.039-12.85,6.432-25,10.542-39.063L159.057,320.57c-1.633,8.726-3.191,18.04-4.638,27.713h0C153,357.759,151.629,367.95,150.335,378.582Zm2.6-30.521h0Z" style="         fill: #1a1a1a;       "/>
      </g>
      <g>
        <path d="M186.58,208.4c-5.011,17.995-9.922,35.72-14.391,52,12.958,8.666,35.547,7.234,61.481,2.291a419.326,419.326,0,0,0,7.6-62.047Z" style="         fill: #fece2f;       "/>
        <path d="M198.913,268.155c-12.138,0-21.05-2.159-27.558-6.512a1.5,1.5,0,0,1-.613-1.644c4.136-15.061,8.978-32.556,14.394-52a1.5,1.5,0,0,1,1.233-1.083l54.692-7.761a1.5,1.5,0,0,1,1.709,1.557,421.459,421.459,0,0,1-7.629,62.267,1.5,1.5,0,0,1-1.19,1.182C220.01,266.818,208.463,268.155,198.913,268.155Zm-24.985-8.427c10.911,6.68,29.061,7.191,58.466,1.674a417.979,417.979,0,0,0,7.288-59.022l-51.92,7.369C182.581,228.356,177.93,245.16,173.928,259.728Z" style="         fill: #1a1a1a;       "/>
      </g>
      <g>
        <path d="M165.29,285.684c-1.727,6.355-3.347,13.153-4.862,20.308l-.042.211c-.864,4.027-1.685,8.191-2.487,12.411,9.318,20.262,29.977,23.47,56.178,18.344,6.977-23.8,14.245-47.329,19.593-74.271-24.919,5.242-47.318,7.062-61.481-2.291C169.737,269.326,167.418,277.825,165.29,285.684Z" style="         fill: #feffff;       "/>
        <path d="M194.394,340.58c-18.83,0-31.291-7.061-37.858-21.339a1.5,1.5,0,0,1-.11-.907c.926-4.878,1.718-8.834,2.493-12.446l.038-.189c1.543-7.289,3.185-14.149,4.885-20.408h0c2.129-7.86,4.448-16.36,6.9-25.292a1.5,1.5,0,0,1,2.273-.855c15.035,9.927,40.147,6.323,60.346,2.075a1.5,1.5,0,0,1,1.78,1.76c-4.759,23.978-11.115,45.531-17.262,66.375q-1.183,4.014-2.362,8.026a1.5,1.5,0,0,1-1.151,1.05A104.72,104.72,0,0,1,194.394,340.58Zm-34.931-22.162c8.107,17.111,25.114,22.6,53.433,17.241q1.05-3.579,2.105-7.153c5.938-20.133,12.071-40.931,16.751-63.891-35.331,7.141-50.142,3.1-58.649-1.882-2.255,8.221-4.392,16.057-6.366,23.344h0c-1.685,6.2-3.314,13.007-4.842,20.224l-.038.194C161.108,309.988,160.347,313.781,159.463,318.418Zm5.826-32.734h0Z" style="         fill: #1a1a1a;       "/>
      </g>
      <g>
        <path d="M241.443,158.142l-39.434-4.888c-5,17.8-10.267,36.615-15.429,55.147,15.5,5.8,33.412,9.469,54.05-.521C241.27,194.716,242.012,173.383,241.443,158.142Z" style="         fill: #feffff;       "/>
        <path d="M214.245,215.591c-10.7,0-20.221-2.8-28.19-5.786a1.5,1.5,0,0,1-.919-1.806c5.161-18.534,10.429-37.346,15.429-55.15a1.5,1.5,0,0,1,1.629-1.083l39.434,4.888a1.5,1.5,0,0,1,1.314,1.432c.631,16.9-.359,40.5-.814,49.867a1.5,1.5,0,0,1-.844,1.278A61.221,61.221,0,0,1,214.245,215.591ZM188.4,207.472c14.035,5.11,30.943,8.732,50.779-.56.456-9.607,1.329-31.285.813-47.439L203.105,154.9C198.329,171.909,193.319,189.8,188.4,207.472Z" style="         fill: #1a1a1a;       "/>
      </g>
      <g>
        <path d="M237.142,105l-21.379-.585c-4.075,14.432-8.78,31.129-13.754,48.837,9.3,10.219,23.206,10.142,39.434,4.888C240.835,141.843,239.452,124.212,237.142,105Z" style="         fill: #fece2f;       "/>
        <path d="M222.4,163.117c-9.016,0-16.124-2.944-21.5-8.853a1.5,1.5,0,0,1-.335-1.415c4.974-17.71,9.679-34.407,13.754-48.84a1.454,1.454,0,0,1,1.485-1.092l21.379.586a1.5,1.5,0,0,1,1.448,1.321c2.236,18.587,3.686,36.507,4.311,53.262a1.5,1.5,0,0,1-1.037,1.483A64.178,64.178,0,0,1,222.4,163.117Zm-18.719-10.272c7.851,8.106,19.407,9.446,36.219,4.213-.63-15.958-2.007-32.967-4.095-50.592l-18.917-.518C212.951,119.9,208.443,135.9,203.682,152.845Z" style="         fill: #1a1a1a;       "/>
      </g>
      <g>
        <path d="M230.192,58.313c-.168-.99-.337-2-.526-3.01,0,0-5.655,19.9-13.9,49.114,7.132,6.165,14.258,4.949,21.379.585C235.386,90.394,233.1,74.885,230.192,58.313Z" style="         fill: #feffff;       "/>
        <path d="M226.105,110.144a17.014,17.014,0,0,1-11.323-4.593,1.5,1.5,0,0,1-.463-1.542c8.249-29.213,13.9-49.116,13.9-49.116a1.52,1.52,0,0,1,1.511-1.088,1.5,1.5,0,0,1,1.406,1.222c.164.87.311,1.74.457,2.6l.073.432c2.819,16.055,5.16,31.789,6.961,46.767a1.5,1.5,0,0,1-.705,1.458C233.724,108.856,229.8,110.143,226.105,110.144Zm-8.633-6.26c5.4,4.278,11.038,4.377,18.063.328-1.647-13.554-3.736-27.722-6.22-42.18C227.06,69.982,222.827,84.918,217.472,103.884Z" style="         fill: #1a1a1a;       "/>
      </g>
    </g>
    <g>
      <path d="M145.761,299.781l-1.85,125.41-.33,21.8v.56l-.45,30.11-.22,21.61-.01,1.79h-23.17c-.79-6.45-1.53-12.5-2.04-16.09-8.04-56.02-13.83-58.22-18.06-106.63-.29-3.2-1.27-32.12-2.3-69.96q-.2-7.035-.39-14.44c-1.65-62.79-3.27-142.66-2.4-173.75.2-7.23.91-19.89,1.7-32.86,1.32-21.44,2.9-43.73,2.9-43.73a2.1,2.1,0,0,1,4.17.12s7.81,25.93,16.79,67.56c5.33,24.62,11.07,54.74,15.86,88.23a.17.17,0,0,1,.01.07q1.5,10.41,2.84,21.23,1.515,12.015,2.79,24.48c1.68,16.35,3.04,33.2,3.94,50.35C145.621,297.021,145.691,298.4,145.761,299.781Z" style="         fill: #fece2f;       "/>
      <path d="M142.9,502.561h-23.17a1.5,1.5,0,0,1-1.489-1.317l-.025-.207c-.776-6.334-1.509-12.318-2.011-15.855-3.612-25.171-6.759-39.405-9.536-51.964a360.5,360.5,0,0,1-8.533-54.747c-.319-3.521-1.332-34.293-2.305-70.05q-.2-7.033-.39-14.441c-1.058-40.254-3.409-137.773-2.4-173.831.169-6.116.725-16.882,1.7-32.909,1.306-21.2,2.885-43.522,2.9-43.745,0-.042.008-.084.014-.126a3.6,3.6,0,0,1,7.125.043c.595,2,8.207,27.79,16.783,67.552,6.345,29.307,11.687,59.027,15.879,88.335h0c0,.023.007.045.011.068h0c1.017,7.063,1.974,14.216,2.844,21.26,1,7.951,1.942,16.2,2.793,24.511,1.762,17.148,3.09,34.113,3.946,50.424.08,1.376.15,2.76.22,4.143,0,.033,0,.065,0,.1l-1.85,125.41-.78,52.47-.23,23.386A1.5,1.5,0,0,1,142.9,502.561Zm-21.842-3h20.35l0-.3.22-21.618,2.63-177.837c-.069-1.36-.138-2.72-.217-4.08-.854-16.27-2.178-33.185-3.935-50.284-.849-8.29-1.786-16.514-2.786-24.445-.868-7.028-1.822-14.161-2.837-21.2l0-.04,0-.031c-4.181-29.237-9.511-58.887-15.841-88.125-8.862-41.085-16.682-67.185-16.76-67.444a1.5,1.5,0,0,1-.056-.281.541.541,0,0,0-.582-.542.529.529,0,0,0-.6.455C100.527,45.263,99,66.87,97.738,87.422c-.974,15.994-1.529,26.727-1.7,32.81-1.007,35.985,1.343,133.439,2.4,173.67q.195,7.394.39,14.436c1.07,39.33,2.024,66.888,2.294,69.867a353.748,353.748,0,0,0,8.474,54.366c2.788,12.61,5.948,26.9,9.577,52.187C119.653,488.118,120.332,493.629,121.059,499.561Z" style="         fill: #1a1a1a;       "/>
    </g>
    <g>
      <path d="M82.529,201.567,42.975,192.16c-.674-5.43-1.262-10.27-1.683-13.617l36.534-5.388C78.394,175.892,82,198.811,82.529,201.567Z" style="         fill: #fece2f;       "/>
      <path d="M82.53,203.067a1.531,1.531,0,0,1-.348-.041l-39.554-9.407a1.5,1.5,0,0,1-1.141-1.275l-.865-7.006c-.314-2.545-.59-4.8-.818-6.608a1.5,1.5,0,0,1,1.27-1.671l36.533-5.388a1.506,1.506,0,0,1,1.688,1.18c.322,1.553,1.543,9.1,2.724,16.394.9,5.573,1.754,10.837,1.984,12.041a1.5,1.5,0,0,1-1.473,1.781ZM44.336,190.942l36.328,8.64c-.381-2.291-.964-5.89-1.607-9.858-.918-5.672-1.936-11.964-2.444-14.873l-33.65,4.962c.188,1.516.4,3.255.636,5.158Z" style="         fill: #1a1a1a;       "/>
    </g>
    <g>
      <path d="M97.611,499.661c-.07.49-.14.95-.22,1.4h-21.7c-3.8-13.21-9.41-32.6-16.34-56.01-.33-1.1-.66-2.22-.99-3.34-2.43-8.17-5-16.79-7.7-25.79-.15-.49-.3-.99-.45-1.49-3.12-10.29-6.38-21.06-9.81-32.19q-.75-2.46-1.52-4.95c-2.53-8.24-5.14-16.67-7.82-25.23q-1.905-6.12-3.86-12.33-2.535-8.01-5.12-16.11-2.13-6.735-4.31-13.51c-.24-.73-.48-1.52-.7-2.35q-.81-2.82-1.6-6.33v-.01c-2.19-9.63-4.35-23-6.29-38.53-.88-7.02-1.7-14.46-2.46-22.2q-.3-3.06-.59-6.17c-.57-6.15-1.1-12.44-1.57-18.81a.41.41,0,0,0-.01-.11c-.01-.19-.03-.38-.04-.56-.63-8.78-1.18-17.7-1.59-26.58q-.27-5.58-.46-11.11c-.46-12.55-.64-24.85-.49-36.38q.075-6.9.34-13.39c.21-5.53.52-10.8.93-15.75.15-1.84.31-3.63.5-5.37v-.05q.27-2.535.57-4.95c.16-1.33,1.69-1.36,2.8-.63a2.633,2.633,0,0,1,1.05,1.28q4.635,12.81,9.02,25.61.945,2.73,1.86,5.46,4.86,14.205,9.38,28.34,4.455,13.74,8.62,27.36,2.64,8.64,5.18,17.18c.11.46.25.91.38,1.36q2.025,6.825,3.97,13.59c.24.85.49,1.7.73,2.55q1.065,3.735,2.12,7.46c.95,3.35,1.88,6.7,2.79,10.02q1.605,5.79,3.14,11.51,1.3,4.875,2.58,9.7,2.895,10.98,5.58,21.71,1.515,6.015,2.97,11.94,2.13,8.685,4.12,17.17l.12.51q1.98,8.445,3.83,16.66v.01c.4,1.77.79,3.54,1.18,5.29q1.125,5.1,2.18,10.08,1.815,8.43,3.46,16.55c.47,2.3.93,4.57,1.38,6.83.15.74.29,1.49.44,2.22q2.64,13.485,4.84,25.97,1.035,5.9,1.97,11.57v.01q1.935,11.58,3.42,22.07.63,4.47,1.18,8.73C98.2,467.391,99.241,488.281,97.611,499.661Z" style="         fill: #fece2f;       "/>
      <path d="M4.551,215.6a22.148,22.148,0,0,1,.33-2.54c.6,7.46,1.22,14.88,1.83,21.47.74,7.92,1.46,14.63,2.14,18.73.15.9.29,2.11.43,3.51-.78-5.12-1.72-10.64-2.56-16.08-.32-2.08-.63-4.15-.91-6.18C4.811,227.231,4.171,220.491,4.551,215.6Z" style="         fill: #fff;       "/>
      <path d="M10.961,274.841c-.63-3.57-1.12-12.39-1.68-18.07C10.421,264.161,11.231,270.691,10.961,274.841Z" style="         fill: #fff;       "/>
      <path d="M102.921,501.061h-20.7c-2.61-13.16-6.72-33.61-11.71-57.74-1.85-8.98-3.83-18.46-5.9-28.27-2.33-11.05-4.78-22.51-7.31-34.11-2.89-13.32-5.87-26.82-8.88-40.11-2.97-13.11-5.97-26.02-8.93-38.33-6.48-26.96-12.76-51.04-18.18-68.16-5.34-16.94-9.83-27.08-12.81-26.5-1.93.38-3.06,2.28-3.62,5.22-.69-8.58-1.35-17.19-1.96-24.6-.58-6.98-1.1-12.89-1.53-16.71-1.39-11.7.88-27.25-.25-39.14-.61-6.18,1.17-13.73,2.1-20.78.24-1.83.43-3.63.5-5.37v-.05a30.324,30.324,0,0,0-.06-3.71c-.16-1.91,2.26-3.81,3.24-2.19.06.11.13.21.19.32,3.92,6.65,4.69,17.72,8.93,26.16a64.484,64.484,0,0,1,2.74,6.31c3.32,8.8,5.45,18.99,8.33,29.02a125.688,125.688,0,0,0,4.46,13.07q2.775,6.69,5.47,13.49,2.64,8.64,5.18,17.18c.11.46.25.91.38,1.36q2.025,6.825,3.97,13.59c.24.85.49,1.7.73,2.55q1.065,3.735,2.12,7.46c.95,3.35,1.88,6.7,2.79,10.02q1.605,5.79,3.14,11.51,1.3,4.875,2.58,9.7,2.895,10.98,5.58,21.71,1.515,6.015,2.97,11.94,2.13,8.685,4.12,17.17l.12.51q1.98,8.445,3.83,16.66v.01c.4,1.77.79,3.54,1.18,5.29q1.125,5.1,2.18,10.08c.03.2.05.41.08.61a147.169,147.169,0,0,0,3.38,15.94c.75,3.05,1.45,6.07,1.93,8.99a.407.407,0,0,0-.11.06q2.64,13.485,4.84,25.97,1.035,5.9,1.97,11.57v.01q1.935,11.58,3.42,22.07.63,4.47,1.18,8.73C98.361,468.721,102.611,490.171,102.921,501.061Z" style="         fill: #fff;       "/>
      <path d="M1.5,142.677a1.5,1.5,0,0,1-.623-2.865l17.714-8.072a1.5,1.5,0,1,1,1.244,2.73L2.122,142.542A1.49,1.49,0,0,1,1.5,142.677Z" style="         fill: #1a1a1a;       "/>
      <path d="M2.466,178.848a1.5,1.5,0,0,1-.782-2.78l25.952-15.827A1.5,1.5,0,1,1,29.2,162.8L3.245,178.628A1.478,1.478,0,0,1,2.466,178.848Z" style="         fill: #1a1a1a;       "/>
      <path d="M41.24,342.785A68.367,68.367,0,0,1,26.886,341.2a1.5,1.5,0,0,1,.63-2.934,61.256,61.256,0,0,0,20.713,1.079,54.9,54.9,0,0,0,25.377-10.26,1.5,1.5,0,0,1,2.445,1.158,1.518,1.518,0,0,1-.621,1.225,57.013,57.013,0,0,1-34.19,11.319Z" style="         fill: #1a1a1a;       "/>
      <path d="M11.5,236.094q-2.415,0-4.779-.062c-.229,0-.448,0-.668-.013-.083,0-.245,0-.389-.015a1.5,1.5,0,0,1,.292-2.986c.054,0,.113,0,.174,0,.217.01.358.02.507.012a1.081,1.081,0,0,1,.114,0c4.691.129,9.564.062,14.483-.189a222.485,222.485,0,0,0,27.92-3.3,1.5,1.5,0,0,1,.533,2.954,225.461,225.461,0,0,1-28.3,3.341C18.059,236.009,14.749,236.094,11.5,236.094Z" style="         fill: #1a1a1a;       "/>
      <path d="M31.017,304.372a81.31,81.31,0,0,1-15.841-1.47,1.5,1.5,0,0,1,.295-2.976,1.531,1.531,0,0,1,.425.06,85.056,85.056,0,0,0,23.466,1.02,84.585,84.585,0,0,0,26.5-6.473,1.5,1.5,0,0,1,1.231,2.736A87.661,87.661,0,0,1,39.622,304C36.718,304.247,33.837,304.372,31.017,304.372Z" style="         fill: #1a1a1a;       "/>
      <path d="M59.349,446.551a1.5,1.5,0,0,1-.228-2.982l35.249-5.481a1.5,1.5,0,0,1,.462,2.965l-35.251,5.481A1.657,1.657,0,0,1,59.349,446.551Z" style="         fill: #1a1a1a;       "/>
      <path d="M54.038,417.58c-1.247,0-2.42-.056-3.527-.167a1.5,1.5,0,1,1,.3-2.985,51.929,51.929,0,0,0,13.549-.855c7.293-1.255,15.235-3.465,22.241-5.415l2.888-.8a1.475,1.475,0,0,1,.512-.091,1.5,1.5,0,0,1,.4,2.951l-2.994.831c-7.076,1.969-15.095,4.2-22.54,5.482A65.427,65.427,0,0,1,54.038,417.58Z" style="         fill: #1a1a1a;       "/>
      <path d="M44.482,383.942a41.48,41.48,0,0,1-4.234-.209,1.5,1.5,0,1,1,.307-2.984,53.47,53.47,0,0,0,16.431-1.275,95.338,95.338,0,0,0,25.415-9.53,1.9,1.9,0,0,1,.433-.209,1.5,1.5,0,0,1,1.134,2.769l-.045.027a98.482,98.482,0,0,1-26.308,9.877A62.98,62.98,0,0,1,44.482,383.942Z" style="         fill: #1a1a1a;       "/>
      <path d="M102.921,502.561H75.691a1.5,1.5,0,0,1-1.441-1.085c-5.581-19.4-10.925-37.717-16.338-56-.328-1.1-.659-2.221-.99-3.343-2.429-8.165-5-16.784-7.7-25.783L47.938,412.1q-4.311-14.223-8.97-29.422l-1.521-4.951c-2.723-8.866-5.28-17.117-7.817-25.222q-1.9-6.122-3.86-12.329-2.533-8-5.117-16.1-2.131-6.739-4.309-13.506c-.269-.82-.513-1.638-.723-2.427-.528-1.84-1.059-3.938-1.613-6.383-.006-.027-.012-.055-.016-.083-2.148-9.466-4.326-22.811-6.3-38.6-.859-6.852-1.688-14.335-2.465-22.24-.2-2.043-.4-4.106-.59-6.179-.595-6.421-1.125-12.759-1.573-18.837V215.8c0-.039-.009-.078-.011-.117l-.04-.553c-.683-9.525-1.2-18.231-1.59-26.595-.17-3.5-.321-7.146-.461-11.126-.472-12.9-.637-25.16-.491-36.452.048-4.383.163-8.9.341-13.431.212-5.557.526-10.879.934-15.814.172-2.107.33-3.808.5-5.346,0-.04,0-.082.006-.11q.272-2.547.574-4.976a2.656,2.656,0,0,1,1.516-2.15,3.776,3.776,0,0,1,3.6.452,4.092,4.092,0,0,1,1.638,2.028c3.063,8.464,6.1,17.089,9.027,25.63q.945,2.729,1.864,5.47c3.209,9.38,6.368,18.924,9.386,28.359,2.84,8.761,5.743,17.974,8.625,27.377,1.968,6.44,3.663,12.064,5.184,17.193.1.407.2.733.292,1.057l.091.312q2.022,6.818,3.971,13.593l.809,2.829q1.026,3.6,2.043,7.189c.951,3.351,1.881,6.707,2.793,10.03q1.605,5.791,3.142,11.521c.87,3.25,1.731,6.491,2.581,9.7,1.9,7.214,3.781,14.524,5.585,21.729q1.515,6.018,2.972,11.947c1.361,5.551,2.748,11.333,4.123,17.185l.12.509c1.421,6.057,2.675,11.512,3.833,16.676.006.025.011.05.016.076q.405,1.794.8,3.581l.366,1.644c.752,3.407,1.472,6.771,2.183,10.093,1.143,5.308,2.276,10.727,3.463,16.565.47,2.3.931,4.574,1.381,6.836l.205,1.035c.077.395.154.789.233,1.176,1.8,9.193,3.431,17.941,4.849,26.012q1.037,5.9,1.972,11.587c0,.022.007.043.01.065,1.276,7.64,2.425,15.058,3.416,22.047q.63,4.481,1.181,8.747c1.568,12.155,3.2,22.828,4.639,32.243,1.961,12.829,3.51,22.963,3.694,29.4a1.5,1.5,0,0,1-1.5,1.543Zm-26.1-3h24.534c-.355-6.3-1.8-15.761-3.593-27.487-1.442-9.433-3.077-20.123-4.649-32.311q-.553-4.251-1.177-8.714c-.989-6.981-2.138-14.393-3.414-22.031,0-.024-.008-.048-.01-.072q-.925-5.634-1.958-11.5c-1.415-8.053-3.041-16.782-4.835-25.942-.079-.384-.158-.787-.236-1.191l-.2-1.02c-.451-2.262-.91-4.529-1.379-6.828-1.185-5.827-2.316-11.234-3.457-16.534-.71-3.318-1.429-6.675-2.179-10.072L73.9,334.22q-.4-1.813-.813-3.639c-.006-.027-.012-.054-.016-.081-1.153-5.133-2.4-10.557-3.811-16.577l-.12-.508c-1.373-5.843-2.758-11.616-4.117-17.157q-1.453-5.921-2.968-11.931c-1.8-7.195-3.677-14.494-5.575-21.694q-1.274-4.812-2.579-9.694-1.528-5.724-3.136-11.5c-.91-3.319-1.839-6.665-2.788-10.011q-1.011-3.584-2.041-7.181l-.809-2.83q-1.945-6.75-3.965-13.572l-.091-.31c-.109-.372-.219-.746-.309-1.126-1.5-5.044-3.191-10.661-5.156-17.092-2.878-9.387-5.775-18.584-8.613-27.335-3.013-9.421-6.166-18.946-9.372-28.318q-.916-2.736-1.859-5.454c-2.922-8.53-5.954-17.138-9.013-25.59a1.148,1.148,0,0,0-.466-.539,1.42,1.42,0,0,0-.511-.215c-.189,1.523-.365,3.065-.534,4.64,0,.042,0,.086-.007.116-.166,1.525-.324,3.218-.5,5.329-.4,4.892-.716,10.17-.926,15.684-.177,4.5-.292,8.993-.339,13.351-.146,11.245.019,23.46.489,36.308.14,3.969.29,7.6.459,11.092.386,8.342.905,17.024,1.588,26.545l.034.48a1.848,1.848,0,0,1,.02.236c.446,6.044.972,12.348,1.564,18.733q.285,3.1.589,6.162c.774,7.878,1.6,15.334,2.455,22.161,1.967,15.735,4.133,29.007,6.265,38.382.006.029.012.056.016.084.536,2.36,1.047,4.381,1.563,6.176.2.762.43,1.525.683,2.3q2.194,6.78,4.316,13.526,2.593,8.1,5.119,16.111,1.953,6.215,3.862,12.336c2.539,8.108,5.1,16.363,7.822,25.235l1.521,4.953q4.686,15.206,8.973,29.431l1.286,4.247c2.7,9.01,5.273,17.631,7.7,25.8.33,1.122.66,2.239.989,3.338C66.1,462.574,71.35,480.556,76.821,499.561ZM3.1,215.969v0Z" style="         fill: #1a1a1a;       "/>
    </g>
    <g>
      <path d="M145.763,299.783l6.578,202.278c-3.68-1.67-15.11.46-17-2,4.66-24,4.6-77.228-7.4-245.228-7.14-99.94-21.36-146.33-31.7-167.5,1.32-21.44,2.9-43.73,2.9-43.73a2.1,2.1,0,0,1,4.17.12s7.81,25.93,16.79,67.56C130.373,158.763,142.2,226.693,145.763,299.783Z" style="         fill: #fff;       "/>
      <path d="M152.341,503.561a1.491,1.491,0,0,1-.619-.134c-1.367-.621-4.646-.6-7.535-.576-4.589.033-8.547.062-10.035-1.876a1.5,1.5,0,0,1-.284-1.2c4.418-22.748,4.846-73.09-7.421-244.835-7.08-99.087-21.066-145.479-31.552-166.948a1.51,1.51,0,0,1-.149-.75c1.305-21.2,2.885-43.522,2.9-43.745,0-.042.008-.084.014-.126a3.6,3.6,0,0,1,7.125.044c.6,2,8.206,27.792,16.783,67.552,9.714,44.909,22.057,114.111,25.692,188.743v.025l6.578,202.277a1.5,1.5,0,0,1-1.5,1.549Zm-6.469-3.718a33.758,33.758,0,0,1,4.9.259l-6.513-200.259C140.638,225.419,128.326,156.4,118.637,111.6c-8.865-41.1-16.683-67.186-16.76-67.445a1.427,1.427,0,0,1-.056-.281.542.542,0,0,0-.582-.542.527.527,0,0,0-.605.455c-.1,1.467-1.609,22.808-2.87,43.245,10.583,21.861,24.6,68.668,31.675,167.694,12.127,169.773,11.847,221.263,7.552,244.682,1.381.484,5.062.46,7.175.442C144.742,499.847,145.312,499.843,145.872,499.843Z" style="         fill: #1a1a1a;       "/>
    </g>
  </g>
</svg></g><!--ITEM: Illustration component 6--><g transform="translate(2130.0 2364.0) rotate(0.0 185.0 173.0)  scale(2.242424242424242 2.2336991607488703)"><svg width="165.0" height="154.9" viewBox="0.0 0.0 165.0 154.9"><g>
    <path d="M6.288,4.579S8.893,120.845,41.708,151c22.172,4.434,72.5,1.33,72.5,1.33C141.479,123.457,157.143,26.05,159.892,7.668a2.653,2.653,0,0,0-2.6-3.043L10.861,2.833Z" style="         fill: #fece2f;       "/>
    <path d="M14.5,84.5s11.333,46.666,16.666,41.666S31.5,107.833,24.5,74.833s9-47,19-50.333,54-8,54-8L8.166,16.166Z" style="         fill: #fff;       "/>
    <path d="M78.442,154.9c-13.4,0-27.62-.548-37.028-2.43L41,152.388l-.309-.284C26.823,139.358,16.566,110.623,10.208,66.7A582.94,582.94,0,0,1,4.788,4.612L4.765,3.555,10.594,1.33l.286,0L157.311,3.125a4.152,4.152,0,0,1,4.065,4.765C158.507,27.072,142.8,124.24,115.3,153.359l-.407.431-.591.036C113.118,153.9,96.531,154.9,78.442,154.9Zm-36.026-5.291c20.629,3.974,65.413,1.583,71.107,1.258,11.2-12.186,21.715-37.471,31.27-75.171,7.719-30.458,12.373-59.94,13.616-68.25a1.133,1.133,0,0,0-.261-.913,1.155,1.155,0,0,0-.875-.408L11.129,4.336,7.818,5.6C8.191,17.252,12.373,121.317,42.416,149.609Z" style="         fill: #1a1a1a;       "/>
    <path d="M157.752,20.1S121.277,150.422,53.94,148.874c-13.157-.483-15.77-.483-15.77-.483L41.708,151s65.244,4.108,72.5,1.33C126.7,134.459,151.753,87.632,157.752,20.1Z" style="         fill: #1a1a1a;       "/>
    <g>
      <rect x="1.5" y="1.5" width="162" height="13.333" rx="5" style="         fill: #fece2f;       "/>
      <path d="M158.5,16.333H6.5A6.508,6.508,0,0,1,0,9.833V6.5A6.508,6.508,0,0,1,6.5,0h152A6.508,6.508,0,0,1,165,6.5V9.833A6.508,6.508,0,0,1,158.5,16.333ZM6.5,3A3.5,3.5,0,0,0,3,6.5V9.833a3.5,3.5,0,0,0,3.5,3.5h152a3.5,3.5,0,0,0,3.5-3.5V6.5A3.5,3.5,0,0,0,158.5,3Z" style="         fill: #1a1a1a;       "/>
    </g>
  </g>
</svg></g></svg>