<?xml version="1.0" encoding="UTF-8"?>
<svg xmlns="http://www.w3.org/2000/svg" xmlns:xlink="http://www.w3.org/1999/xlink" width="100pt" height="100pt" viewBox="0 0 100 100" version="1.1">
<g id="surface34497">
<path style=" stroke:none;fill-rule:nonzero;fill:rgb(56.078431%,61.960784%,71.372549%);fill-opacity:1;" d="M 81.714844 28.304688 L 71.09375 38.925781 C 69.667969 40.347656 67.363281 40.347656 65.941406 38.925781 L 61.082031 34.070312 C 59.660156 32.644531 59.660156 30.339844 61.082031 28.917969 L 71.707031 18.292969 C 69.195312 17.28125 66.402344 16.824219 63.476562 17.0625 C 54.933594 17.765625 47.960938 24.640625 47.09375 33.171875 C 46.78125 36.210938 47.257812 39.097656 48.300781 41.699219 L 19.089844 70.90625 C 16.324219 73.671875 16.324219 78.152344 19.089844 80.917969 C 21.855469 83.679688 26.335938 83.679688 29.097656 80.917969 L 58.316406 51.703125 C 60.914062 52.746094 63.804688 53.21875 66.84375 52.90625 C 75.367188 52.03125 82.234375 45.0625 82.9375 36.523438 C 83.175781 33.605469 82.71875 30.816406 81.714844 28.304688 Z M 81.714844 28.304688 "/>
<path style=" stroke:none;fill-rule:nonzero;fill:rgb(99.607843%,99.215686%,93.72549%);fill-opacity:1;" d="M 24 73.5 C 22.621094 73.5 21.5 74.621094 21.5 76 C 21.5 77.378906 22.621094 78.5 24 78.5 C 25.378906 78.5 26.5 77.378906 26.5 76 C 26.5 74.621094 25.378906 73.5 24 73.5 Z M 24 73.5 "/>
<path style=" stroke:none;fill-rule:nonzero;fill:rgb(12.156863%,12.941176%,16.862745%);fill-opacity:1;" d="M 66.488281 49.921875 C 66.234375 49.921875 66.019531 49.730469 65.992188 49.472656 C 65.964844 49.195312 66.164062 48.949219 66.4375 48.921875 C 69.472656 48.613281 72.390625 47.246094 74.652344 45.078125 C 74.851562 44.886719 75.171875 44.894531 75.359375 45.09375 C 75.550781 45.292969 75.546875 45.609375 75.34375 45.800781 C 72.921875 48.121094 69.792969 49.585938 66.539062 49.917969 C 66.523438 49.917969 66.507812 49.921875 66.488281 49.921875 Z M 76.703125 44 C 76.597656 44 76.496094 43.96875 76.40625 43.902344 C 76.183594 43.738281 76.136719 43.425781 76.300781 43.203125 C 76.75 42.589844 77.152344 41.9375 77.492188 41.273438 C 77.621094 41.023438 77.925781 40.929688 78.167969 41.054688 C 78.414062 41.179688 78.511719 41.480469 78.386719 41.726562 C 78.019531 42.441406 77.589844 43.136719 77.105469 43.796875 C 77.007812 43.929688 76.855469 44 76.703125 44 Z M 78.78125 40 C 78.726562 40 78.675781 39.992188 78.621094 39.972656 C 78.359375 39.886719 78.21875 39.601562 78.308594 39.339844 C 78.410156 39.023438 78.507812 38.703125 78.589844 38.378906 C 78.65625 38.109375 78.925781 37.949219 79.195312 38.015625 C 79.464844 38.082031 79.625 38.355469 79.558594 38.621094 C 79.46875 38.972656 79.367188 39.320312 79.253906 39.660156 C 79.183594 39.867188 78.988281 40 78.78125 40 Z M 49.5 45.949219 C 49.371094 45.949219 49.242188 45.898438 49.144531 45.804688 C 48.949219 45.609375 48.949219 45.289062 49.144531 45.097656 L 50.144531 44.097656 C 50.339844 43.902344 50.65625 43.902344 50.851562 44.097656 C 51.046875 44.289062 51.046875 44.609375 50.851562 44.804688 L 49.851562 45.804688 C 49.757812 45.898438 49.628906 45.949219 49.5 45.949219 Z M 46.5 48.949219 C 46.371094 48.949219 46.242188 48.898438 46.144531 48.800781 C 45.949219 48.605469 45.949219 48.289062 46.144531 48.09375 L 47.644531 46.59375 C 47.839844 46.398438 48.15625 46.398438 48.351562 46.59375 C 48.546875 46.789062 48.546875 47.105469 48.351562 47.300781 L 46.851562 48.800781 C 46.757812 48.898438 46.628906 48.949219 46.5 48.949219 Z M 29.5 65.941406 C 29.371094 65.941406 29.242188 65.894531 29.144531 65.796875 C 28.949219 65.601562 28.949219 65.285156 29.144531 65.089844 L 44.644531 49.59375 C 44.839844 49.398438 45.15625 49.398438 45.351562 49.59375 C 45.546875 49.789062 45.546875 50.105469 45.351562 50.300781 L 29.851562 65.796875 C 29.757812 65.894531 29.628906 65.941406 29.5 65.941406 Z M 29.5 65.941406 "/>
<path style=" stroke:none;fill-rule:nonzero;fill:rgb(12.156863%,12.941176%,16.862745%);fill-opacity:1;" d="M 24.09375 83.984375 C 22.027344 83.984375 19.957031 83.199219 18.382812 81.625 C 15.234375 78.476562 15.234375 73.351562 18.382812 70.199219 L 47.136719 41.449219 C 46.15625 38.75 45.808594 35.933594 46.097656 33.066406 C 47.007812 24.109375 54.445312 16.800781 63.398438 16.066406 C 66.398438 15.820312 69.324219 16.253906 72.082031 17.363281 C 72.339844 17.46875 72.546875 17.675781 72.644531 17.9375 C 72.742188 18.195312 72.730469 18.488281 72.605469 18.738281 C 72.554688 18.835938 72.492188 18.925781 72.414062 19 L 61.789062 29.625 C 60.761719 30.652344 60.761719 32.332031 61.789062 33.363281 L 66.648438 38.21875 C 67.644531 39.214844 69.386719 39.214844 70.382812 38.21875 L 81.003906 27.597656 C 81.242188 27.359375 81.589844 27.257812 81.914062 27.324219 C 82.242188 27.394531 82.515625 27.621094 82.640625 27.933594 C 83.746094 30.6875 84.179688 33.605469 83.933594 36.605469 C 83.199219 45.546875 75.894531 52.984375 66.945312 53.898438 C 64.082031 54.195312 61.265625 53.847656 58.5625 52.867188 L 29.808594 81.625 C 28.230469 83.199219 26.164062 83.984375 24.09375 83.984375 Z M 65.015625 18 C 64.535156 18 64.050781 18.019531 63.5625 18.058594 C 55.554688 18.714844 48.902344 25.257812 48.089844 33.269531 C 47.808594 36.03125 48.191406 38.742188 49.230469 41.324219 C 49.378906 41.699219 49.292969 42.121094 49.007812 42.40625 L 19.796875 71.617188 C 17.429688 73.984375 17.429688 77.84375 19.796875 80.210938 C 22.167969 82.582031 26.023438 82.578125 28.394531 80.210938 L 57.609375 50.996094 C 57.890625 50.714844 58.316406 50.625 58.6875 50.777344 C 61.273438 51.8125 63.980469 52.195312 66.742188 51.910156 C 74.75 51.089844 81.285156 44.441406 81.941406 36.441406 C 82.121094 34.28125 81.902344 32.164062 81.296875 30.136719 L 71.800781 39.632812 C 70.921875 40.511719 69.757812 40.992188 68.515625 40.992188 C 67.277344 40.992188 66.109375 40.511719 65.234375 39.632812 L 60.378906 34.777344 C 58.566406 32.964844 58.566406 30.019531 60.378906 28.210938 L 69.878906 18.710938 C 68.304688 18.234375 66.675781 18 65.015625 18 Z M 65.015625 18 "/>
<path style=" stroke:none;fill-rule:nonzero;fill:rgb(12.156863%,12.941176%,16.862745%);fill-opacity:1;" d="M 24 79 C 22.347656 79 21 77.652344 21 76 C 21 74.347656 22.347656 73 24 73 C 25.652344 73 27 74.347656 27 76 C 27 77.652344 25.652344 79 24 79 Z M 24 74 C 22.898438 74 22 74.898438 22 76 C 22 77.101562 22.898438 78 24 78 C 25.101562 78 26 77.101562 26 76 C 26 74.898438 25.101562 74 24 74 Z M 24 74 "/>
</g>
</svg>
