<?xml version="1.0" encoding="UTF-8"?>
<svg xmlns="http://www.w3.org/2000/svg" xmlns:xlink="http://www.w3.org/1999/xlink" width="100pt" height="100pt" viewBox="0 0 100 100" version="1.1">
<g id="surface21165">
<path style=" stroke:none;fill-rule:nonzero;fill:rgb(99.607843%,99.215686%,93.72549%);fill-opacity:1;" d="M 75 82 L 25 82 C 21.148438 82 18 78.851562 18 75 L 18 25 C 18 21.148438 21.148438 18 25 18 L 75 18 C 78.851562 18 82 21.148438 82 25 L 82 75 C 82 78.851562 78.851562 82 75 82 Z M 75 82 "/>
<path style=" stroke:none;fill-rule:nonzero;fill:rgb(80.784314%,80%,74.509804%);fill-opacity:1;" d="M 82 29 L 82 25 C 82 21.148438 78.851562 18 75 18 L 25 18 C 21.148438 18 18 21.148438 18 25 L 18 29 Z M 82 29 "/>
<path style=" stroke:none;fill-rule:nonzero;fill:rgb(80.784314%,80%,74.509804%);fill-opacity:1;" d="M 18 74 L 18 75 C 18 78.851562 21.148438 82 25 82 L 75 82 C 78.851562 82 82 78.851562 82 75 L 82 74 Z M 18 74 "/>
<path style=" stroke:none;fill-rule:nonzero;fill:rgb(12.156863%,12.941176%,16.862745%);fill-opacity:1;" d="M 75 17 L 25 17 C 20.589844 17 17 20.589844 17 25 L 17 75 C 17 79.410156 20.589844 83 25 83 L 75 83 C 79.410156 83 83 79.410156 83 75 L 83 25 C 83 20.589844 79.410156 17 75 17 Z M 75 81 L 25 81 C 21.691406 81 19 78.308594 19 75 L 27.5 75 C 27.777344 75 28 74.777344 28 74.5 C 28 74.222656 27.777344 74 27.5 74 L 19 74 L 19 29 L 59.5 29 C 59.777344 29 60 28.777344 60 28.5 C 60 28.222656 59.777344 28 59.5 28 L 19 28 L 19 25 C 19 21.691406 21.691406 19 25 19 L 75 19 C 78.308594 19 81 21.691406 81 25 L 81 28 L 73.5 28 C 73.222656 28 73 28.222656 73 28.5 C 73 28.777344 73.222656 29 73.5 29 L 81 29 L 81 75 C 81 78.308594 78.308594 81 75 81 Z M 75 81 "/>
<path style=" stroke:none;fill-rule:nonzero;fill:rgb(12.156863%,12.941176%,16.862745%);fill-opacity:1;" d="M 62.5 29 L 68.5 29 C 68.777344 29 69 28.777344 69 28.5 C 69 28.222656 68.777344 28 68.5 28 L 62.5 28 C 62.222656 28 62 28.222656 62 28.5 C 62 28.777344 62.222656 29 62.5 29 Z M 62.5 29 "/>
<path style=" stroke:none;fill-rule:nonzero;fill:rgb(12.156863%,12.941176%,16.862745%);fill-opacity:1;" d="M 30.5 74 C 30.222656 74 30 74.222656 30 74.5 C 30 74.777344 30.222656 75 30.5 75 L 82 75 L 82 74 Z M 30.5 74 "/>
<path style=" stroke:none;fill-rule:nonzero;fill:rgb(12.156863%,12.941176%,16.862745%);fill-opacity:1;" d="M 34 58.742188 C 34 58.363281 34.144531 58.078125 34.4375 57.890625 L 43.867188 51.519531 L 34.4375 45.109375 C 34.144531 44.921875 34 44.636719 34 44.257812 C 34 43.933594 34.132812 43.640625 34.398438 43.386719 C 34.660156 43.128906 34.9375 43 35.230469 43 C 35.414062 43 35.570312 43.054688 35.703125 43.160156 L 46.367188 50.382812 C 46.789062 50.683594 47 51.058594 47 51.519531 C 47 51.980469 46.789062 52.347656 46.367188 52.617188 L 35.703125 59.835938 C 35.570312 59.945312 35.414062 60 35.230469 60 C 34.9375 60 34.660156 59.871094 34.398438 59.613281 C 34.132812 59.359375 34 59.066406 34 58.742188 Z M 34 58.742188 "/>
<path style=" stroke:none;fill-rule:nonzero;fill:rgb(12.156863%,12.941176%,16.862745%);fill-opacity:1;" d="M 51 58.882812 C 51 58.535156 51.09375 58.253906 51.28125 58.027344 C 51.472656 57.800781 51.714844 57.6875 52.015625 57.6875 L 64.984375 57.6875 C 65.257812 57.6875 65.492188 57.800781 65.695312 58.027344 C 65.898438 58.253906 66 58.539062 66 58.882812 C 66 59.203125 65.898438 59.46875 65.695312 59.679688 C 65.492188 59.894531 65.257812 60 64.984375 60 L 52.015625 60 C 51.339844 60 51 59.628906 51 58.882812 Z M 51 58.882812 "/>
</g>
</svg>
