<?xml version="1.0" encoding="UTF-8"?>
<svg xmlns="http://www.w3.org/2000/svg" xmlns:xlink="http://www.w3.org/1999/xlink" width="24pt" height="24pt" viewBox="0 0 24 24" version="1.1">
<g id="surface50850">
<path style=" stroke:none;fill-rule:nonzero;fill:rgb(100%,100%,100%);fill-opacity:1;" d="M 9 3 L 5 3 C 3.898438 3 3 3.898438 3 5 L 3 9 C 3 10.101562 3.898438 11 5 11 L 9 11 C 10.101562 11 11 10.101562 11 9 L 11 5 C 11 3.898438 10.101562 3 9 3 Z M 8 8 L 6 8 L 6 6 L 8 6 Z M 9 13 L 5 13 C 3.898438 13 3 13.898438 3 15 L 3 19 C 3 20.101562 3.898438 21 5 21 L 9 21 C 10.101562 21 11 20.101562 11 19 L 11 15 C 11 13.898438 10.101562 13 9 13 Z M 7 18 C 6.449219 18 6 17.550781 6 17 C 6 16.449219 6.449219 16 7 16 C 7.550781 16 8 16.449219 8 17 C 8 17.550781 7.550781 18 7 18 Z M 15 21 L 19 21 C 20.101562 21 21 20.101562 21 19 L 21 15 C 21 13.898438 20.101562 13 19 13 L 15 13 C 13.898438 13 13 13.898438 13 15 L 13 19 C 13 20.101562 13.898438 21 15 21 Z M 16 16 L 18 16 L 18 18 L 16 18 Z M 15 11 L 19 11 C 20.101562 11 21 10.101562 21 9 L 21 5 C 21 3.898438 20.101562 3 19 3 L 15 3 C 13.898438 3 13 3.898438 13 5 L 13 9 C 13 10.101562 13.898438 11 15 11 Z M 17 6 C 17.550781 6 18 6.449219 18 7 C 18 7.550781 17.550781 8 17 8 C 16.449219 8 16 7.550781 16 7 C 16 6.449219 16.449219 6 17 6 Z M 17 6 "/>
</g>
</svg>
