<?xml version="1.0" encoding="UTF-8"?>
<svg xmlns="http://www.w3.org/2000/svg" xmlns:xlink="http://www.w3.org/1999/xlink" width="100pt" height="100pt" viewBox="0 0 100 100" version="1.1">
<g id="surface382">
<path style=" stroke:none;fill-rule:nonzero;fill:rgb(81.960784%,81.176471%,76.078431%);fill-opacity:1;" d="M 82.9375 48 C 81.902344 30.152344 67.105469 16 49 16 C 30.894531 16 16.097656 30.152344 15.0625 48 Z M 82.9375 48 "/>
<path style=" stroke:none;fill-rule:nonzero;fill:rgb(87.843137%,87.058824%,81.176471%);fill-opacity:1;" d="M 65.90625 20.5 C 60.925781 17.640625 55.15625 16 49 16 C 42.84375 16 37.074219 17.640625 32.09375 20.5 Z M 65.90625 20.5 "/>
<path style=" stroke:none;fill-rule:nonzero;fill:rgb(81.960784%,81.176471%,76.078431%);fill-opacity:1;" d="M 15.0625 52 C 16.097656 69.847656 30.894531 84 49 84 C 67.105469 84 81.902344 69.847656 82.9375 52 Z M 15.0625 52 "/>
<path style=" stroke:none;fill-rule:nonzero;fill:rgb(87.843137%,87.058824%,81.176471%);fill-opacity:1;" d="M 32.09375 79.5 C 37.074219 82.359375 42.84375 84 49 84 C 55.15625 84 60.925781 82.359375 65.90625 79.5 Z M 32.09375 79.5 "/>
<path style=" stroke:none;fill-rule:nonzero;fill:rgb(64.313725%,63.529412%,60.392157%);fill-opacity:1;" d="M 80.925781 52 C 80.96875 51.339844 81 50.671875 81 50 C 81 49.328125 80.96875 48.660156 80.925781 48 L 17.074219 48 C 17.03125 48.660156 17 49.328125 17 50 C 17 50.671875 17.03125 51.339844 17.074219 52 Z M 80.925781 52 "/>
<path style=" stroke:none;fill-rule:nonzero;fill:rgb(93.333333%,92.54902%,85.098039%);fill-opacity:1;" d="M 58 34 C 58 38.96875 53.96875 43 49 43 C 44.03125 43 40 38.96875 40 34 C 40 29.03125 44.03125 25 49 25 C 53.96875 25 58 29.03125 58 34 Z M 58 34 "/>
<path style=" stroke:none;fill-rule:nonzero;fill:rgb(64.313725%,63.529412%,60.392157%);fill-opacity:1;" d="M 51.5 34 C 51.5 35.378906 50.378906 36.5 49 36.5 C 47.621094 36.5 46.5 35.378906 46.5 34 C 46.5 32.621094 47.621094 31.5 49 31.5 C 50.378906 31.5 51.5 32.621094 51.5 34 Z M 51.5 34 "/>
<path style=" stroke:none;fill-rule:nonzero;fill:rgb(12.156863%,12.941176%,16.862745%);fill-opacity:1;" d="M 82.9375 49 L 15.0625 49 C 14.789062 49 14.523438 48.886719 14.335938 48.6875 C 14.148438 48.488281 14.046875 48.21875 14.0625 47.941406 C 15.136719 29.46875 30.480469 15 49 15 C 67.519531 15 82.863281 29.46875 83.933594 47.941406 C 83.953125 48.21875 83.851562 48.484375 83.664062 48.6875 C 83.476562 48.886719 83.210938 49 82.9375 49 Z M 16.140625 47 L 81.859375 47 C 80.339844 30.09375 66.105469 17 49 17 C 31.894531 17 17.660156 30.09375 16.140625 47 Z M 16.140625 47 "/>
<path style=" stroke:none;fill-rule:nonzero;fill:rgb(12.156863%,12.941176%,16.862745%);fill-opacity:1;" d="M 49 85 C 30.480469 85 15.136719 70.53125 14.066406 52.058594 C 14.046875 51.78125 14.148438 51.515625 14.335938 51.3125 C 14.523438 51.113281 14.789062 51 15.0625 51 L 82.9375 51 C 83.210938 51 83.476562 51.113281 83.664062 51.3125 C 83.851562 51.511719 83.953125 51.78125 83.9375 52.058594 C 82.863281 70.53125 67.519531 85 49 85 Z M 16.140625 53 C 17.660156 69.90625 31.894531 83 49 83 C 66.105469 83 80.339844 69.90625 81.859375 53 Z M 16.140625 53 "/>
<path style=" stroke:none;fill-rule:nonzero;fill:rgb(12.156863%,12.941176%,16.862745%);fill-opacity:1;" d="M 80.925781 53 L 17.074219 53 C 16.546875 53 16.109375 52.589844 16.074219 52.066406 C 16.023438 51.273438 16 50.617188 16 50 C 16 49.382812 16.023438 48.726562 16.074219 47.933594 C 16.109375 47.410156 16.546875 47 17.074219 47 L 80.925781 47 C 81.453125 47 81.890625 47.410156 81.925781 47.933594 C 81.976562 48.726562 82 49.382812 82 50 C 82 50.617188 81.976562 51.273438 81.925781 52.066406 C 81.890625 52.589844 81.453125 53 80.925781 53 Z M 18.019531 51 L 79.976562 51 C 79.992188 50.667969 80 50.335938 80 50 C 80 49.664062 79.992188 49.332031 79.980469 49 L 18.019531 49 C 18.007812 49.332031 18 49.664062 18 50 C 18 50.335938 18.007812 50.667969 18.019531 51 Z M 18.019531 51 "/>
<path style=" stroke:none;fill-rule:nonzero;fill:rgb(12.156863%,12.941176%,16.862745%);fill-opacity:1;" d="M 49 44 C 43.484375 44 39 39.515625 39 34 C 39 28.484375 43.484375 24 49 24 C 54.515625 24 59 28.484375 59 34 C 59 39.515625 54.515625 44 49 44 Z M 49 26 C 44.589844 26 41 29.589844 41 34 C 41 38.410156 44.589844 42 49 42 C 53.410156 42 57 38.410156 57 34 C 57 29.589844 53.410156 26 49 26 Z M 49 26 "/>
<path style=" stroke:none;fill-rule:nonzero;fill:rgb(12.156863%,12.941176%,16.862745%);fill-opacity:1;" d="M 49 37 C 47.347656 37 46 35.652344 46 34 C 46 32.347656 47.347656 31 49 31 C 50.652344 31 52 32.347656 52 34 C 52 35.652344 50.652344 37 49 37 Z M 49 32 C 47.898438 32 47 32.898438 47 34 C 47 35.101562 47.898438 36 49 36 C 50.101562 36 51 35.101562 51 34 C 51 32.898438 50.101562 32 49 32 Z M 49 32 "/>
<path style=" stroke:none;fill-rule:nonzero;fill:rgb(12.156863%,12.941176%,16.862745%);fill-opacity:1;" d="M 65.5 21 L 32.5 21 C 32.222656 21 32 20.777344 32 20.5 C 32 20.222656 32.222656 20 32.5 20 L 65.5 20 C 65.777344 20 66 20.222656 66 20.5 C 66 20.777344 65.777344 21 65.5 21 Z M 65.5 21 "/>
<path style=" stroke:none;fill-rule:nonzero;fill:rgb(12.156863%,12.941176%,16.862745%);fill-opacity:1;" d="M 40.5 38 L 17.5 38 C 17.222656 38 17 37.777344 17 37.5 C 17 37.222656 17.222656 37 17.5 37 L 40.5 37 C 40.777344 37 41 37.222656 41 37.5 C 41 37.777344 40.777344 38 40.5 38 Z M 40.5 38 "/>
<path style=" stroke:none;fill-rule:nonzero;fill:rgb(12.156863%,12.941176%,16.862745%);fill-opacity:1;" d="M 80.5 38 L 57.5 38 C 57.222656 38 57 37.777344 57 37.5 C 57 37.222656 57.222656 37 57.5 37 L 80.5 37 C 80.777344 37 81 37.222656 81 37.5 C 81 37.777344 80.777344 38 80.5 38 Z M 80.5 38 "/>
<path style=" stroke:none;fill-rule:nonzero;fill:rgb(12.156863%,12.941176%,16.862745%);fill-opacity:1;" d="M 42.5 28 L 23.5 28 C 23.222656 28 23 27.777344 23 27.5 C 23 27.222656 23.222656 27 23.5 27 L 42.5 27 C 42.777344 27 43 27.222656 43 27.5 C 43 27.777344 42.777344 28 42.5 28 Z M 42.5 28 "/>
<path style=" stroke:none;fill-rule:nonzero;fill:rgb(12.156863%,12.941176%,16.862745%);fill-opacity:1;" d="M 74.5 28 L 55.5 28 C 55.222656 28 55 27.777344 55 27.5 C 55 27.222656 55.222656 27 55.5 27 L 74.5 27 C 74.777344 27 75 27.222656 75 27.5 C 75 27.777344 74.777344 28 74.5 28 Z M 74.5 28 "/>
<path style=" stroke:none;fill-rule:nonzero;fill:rgb(12.156863%,12.941176%,16.862745%);fill-opacity:1;" d="M 65.5 80 L 32.5 80 C 32.222656 80 32 79.777344 32 79.5 C 32 79.222656 32.222656 79 32.5 79 L 65.5 79 C 65.777344 79 66 79.222656 66 79.5 C 66 79.777344 65.777344 80 65.5 80 Z M 65.5 80 "/>
<path style=" stroke:none;fill-rule:nonzero;fill:rgb(12.156863%,12.941176%,16.862745%);fill-opacity:1;" d="M 80.5 63 L 17.5 63 C 17.222656 63 17 62.777344 17 62.5 C 17 62.222656 17.222656 62 17.5 62 L 80.5 62 C 80.777344 62 81 62.222656 81 62.5 C 81 62.777344 80.777344 63 80.5 63 Z M 80.5 63 "/>
<path style=" stroke:none;fill-rule:nonzero;fill:rgb(12.156863%,12.941176%,16.862745%);fill-opacity:1;" d="M 74.5 73 L 23.5 73 C 23.222656 73 23 72.777344 23 72.5 C 23 72.222656 23.222656 72 23.5 72 L 74.5 72 C 74.777344 72 75 72.222656 75 72.5 C 75 72.777344 74.777344 73 74.5 73 Z M 74.5 73 "/>
<path style=" stroke:none;fill-rule:nonzero;fill:rgb(12.156863%,12.941176%,16.862745%);fill-opacity:1;" d="M 61.085938 79.867188 L 60.40625 79.132812 C 62.382812 77.304688 64.164062 74.988281 65.699219 72.257812 L 66.570312 72.746094 C 64.984375 75.570312 63.140625 77.964844 61.085938 79.867188 Z M 61.085938 79.867188 "/>
<path style=" stroke:none;fill-rule:nonzero;fill:rgb(12.156863%,12.941176%,16.862745%);fill-opacity:1;" d="M 31.429688 72.746094 C 29.71875 69.699219 28.386719 66.292969 27.46875 62.621094 L 28.441406 62.378906 C 29.335938 65.964844 30.636719 69.289062 32.300781 72.253906 Z M 31.429688 72.746094 "/>
<path style=" stroke:none;fill-rule:nonzero;fill:rgb(12.156863%,12.941176%,16.862745%);fill-opacity:1;" d="M 62.570312 27.710938 C 61.316406 24.996094 59.855469 22.679688 58.222656 20.828125 L 58.972656 20.167969 C 60.667969 22.09375 62.183594 24.488281 63.476562 27.289062 Z M 62.570312 27.710938 "/>
<path style=" stroke:none;fill-rule:nonzero;fill:rgb(12.156863%,12.941176%,16.862745%);fill-opacity:1;" d="M 39.035156 79.832031 C 37.339844 77.90625 35.820312 75.511719 34.527344 72.710938 L 35.4375 72.289062 C 36.6875 75.003906 38.152344 77.316406 39.785156 79.171875 Z M 39.035156 79.832031 "/>
<path style=" stroke:none;fill-rule:nonzero;fill:rgb(12.156863%,12.941176%,16.862745%);fill-opacity:1;" d="M 32.246094 37.601562 L 31.269531 37.398438 C 32.042969 33.6875 33.136719 30.289062 34.519531 27.289062 L 35.429688 27.710938 C 34.078125 30.640625 33.007812 33.96875 32.246094 37.601562 Z M 32.246094 37.601562 "/>
<path style=" stroke:none;fill-rule:nonzero;fill:rgb(12.156863%,12.941176%,16.862745%);fill-opacity:1;" d="M 31.269531 62.601562 C 30.605469 59.425781 30.199219 56.03125 30.0625 52.519531 L 31.0625 52.480469 C 31.199219 55.9375 31.597656 59.273438 32.246094 62.398438 Z M 31.269531 62.601562 "/>
<path style=" stroke:none;fill-rule:nonzero;fill:rgb(12.156863%,12.941176%,16.862745%);fill-opacity:1;" d="M 22.890625 62.648438 C 21.890625 59.417969 21.28125 56.015625 21.078125 52.527344 L 22.078125 52.472656 C 22.273438 55.875 22.871094 59.199219 23.847656 62.351562 Z M 22.890625 62.648438 "/>
<path style=" stroke:none;fill-rule:nonzero;fill:rgb(12.156863%,12.941176%,16.862745%);fill-opacity:1;" d="M 75.921875 47.527344 C 75.726562 44.125 75.128906 40.800781 74.152344 37.648438 L 75.109375 37.351562 C 76.109375 40.582031 76.71875 43.984375 76.921875 47.472656 Z M 75.921875 47.527344 "/>
<path style=" stroke:none;fill-rule:nonzero;fill:rgb(12.156863%,12.941176%,16.862745%);fill-opacity:1;" d="M 22.078125 47.527344 L 21.078125 47.472656 C 21.28125 43.984375 21.890625 40.578125 22.890625 37.351562 L 23.847656 37.648438 C 22.871094 40.800781 22.273438 44.125 22.078125 47.527344 Z M 22.078125 47.527344 "/>
<path style=" stroke:none;fill-rule:nonzero;fill:rgb(12.156863%,12.941176%,16.862745%);fill-opacity:1;" d="M 36.046875 47.515625 L 35.046875 47.484375 C 35.144531 43.980469 35.441406 40.59375 35.925781 37.425781 L 36.910156 37.574219 C 36.4375 40.703125 36.144531 44.046875 36.046875 47.515625 Z M 36.046875 47.515625 "/>
<path style=" stroke:none;fill-rule:nonzero;fill:rgb(12.156863%,12.941176%,16.862745%);fill-opacity:1;" d="M 71.386719 62.628906 L 70.417969 62.371094 C 71.246094 59.253906 71.75 55.925781 71.921875 52.476562 L 72.917969 52.523438 C 72.746094 56.042969 72.230469 59.445312 71.386719 62.628906 Z M 71.386719 62.628906 "/>
<path style=" stroke:none;fill-rule:nonzero;fill:rgb(12.156863%,12.941176%,16.862745%);fill-opacity:1;" d="M 70.414062 37.628906 C 69.449219 34 68.089844 30.675781 66.375 27.753906 L 67.238281 27.246094 C 69 30.246094 70.394531 33.65625 71.382812 37.371094 Z M 70.414062 37.628906 "/>
<path style=" stroke:none;fill-rule:nonzero;fill:rgb(12.156863%,12.941176%,16.862745%);fill-opacity:1;" d="M 60.957031 47.511719 C 60.867188 44.042969 60.597656 40.695312 60.15625 37.570312 L 61.144531 37.429688 C 61.589844 40.59375 61.863281 43.976562 61.957031 47.488281 Z M 60.957031 47.511719 "/>
<path style=" stroke:none;fill-rule:nonzero;fill:rgb(12.156863%,12.941176%,16.862745%);fill-opacity:1;" d="M 70.226562 72.78125 L 69.402344 72.21875 C 71.449219 69.238281 73.046875 65.921875 74.152344 62.351562 L 75.109375 62.648438 C 73.972656 66.3125 72.328125 69.722656 70.226562 72.78125 Z M 70.226562 72.78125 "/>
<path style=" stroke:none;fill-rule:nonzero;fill:rgb(12.156863%,12.941176%,16.862745%);fill-opacity:1;" d="M 48.464844 25.085938 L 47.464844 25.039062 C 47.542969 23.3125 47.628906 21.769531 47.722656 20.464844 L 48.722656 20.535156 C 48.628906 21.832031 48.542969 23.371094 48.464844 25.085938 Z M 48.464844 25.085938 "/>
<path style=" stroke:none;fill-rule:nonzero;fill:rgb(12.156863%,12.941176%,16.862745%);fill-opacity:1;" d="M 49.992188 47.5 C 49.988281 45.929688 49.980469 44.378906 49.96875 42.875 L 50.96875 42.863281 C 50.980469 44.371094 50.988281 45.925781 50.992188 47.496094 Z M 49.992188 47.5 "/>
<path style=" stroke:none;fill-rule:nonzero;fill:rgb(12.156863%,12.941176%,16.862745%);fill-opacity:1;" d="M 47.722656 79.535156 C 47.589844 77.648438 47.46875 75.285156 47.363281 72.519531 L 48.363281 72.480469 C 48.46875 75.238281 48.589844 77.585938 48.722656 79.464844 Z M 47.722656 79.535156 "/>
<path style=" stroke:none;fill-rule:nonzero;fill:rgb(12.156863%,12.941176%,16.862745%);fill-opacity:1;" d="M 58.351562 62.554688 L 57.355469 62.445312 C 57.699219 59.25 57.90625 55.902344 57.972656 52.488281 L 58.972656 52.511719 C 58.902344 55.949219 58.695312 59.328125 58.351562 62.554688 Z M 58.351562 62.554688 "/>
<path style=" stroke:none;fill-rule:nonzero;fill:rgb(12.156863%,12.941176%,16.862745%);fill-opacity:1;" d="M 44.308594 62.523438 C 44.144531 59.3125 44.046875 55.941406 44.011719 52.503906 L 45.011719 52.492188 C 45.046875 55.917969 45.144531 59.277344 45.304688 62.472656 Z M 44.308594 62.523438 "/>
<path style=" stroke:none;fill-rule:nonzero;fill:rgb(12.156863%,12.941176%,16.862745%);fill-opacity:1;" d="M 52.902344 72.554688 L 51.90625 72.445312 C 52.246094 69.4375 52.511719 66.082031 52.695312 62.476562 L 53.691406 62.527344 C 53.507812 66.152344 53.242188 69.527344 52.902344 72.554688 Z M 52.902344 72.554688 "/>
<path style=" stroke:none;fill-rule:nonzero;fill:rgb(12.156863%,12.941176%,16.862745%);fill-opacity:1;" d="M 67.042969 43 C 66.792969 43 66.578125 42.8125 66.546875 42.558594 C 66.46875 41.886719 66.375 41.230469 66.273438 40.574219 C 66.234375 40.300781 66.421875 40.046875 66.695312 40.007812 C 66.960938 39.96875 67.222656 40.152344 67.261719 40.425781 C 67.363281 41.089844 67.460938 41.761719 67.542969 42.441406 C 67.574219 42.714844 67.378906 42.964844 67.105469 42.996094 C 67.082031 43 67.0625 43 67.042969 43 Z M 67.042969 43 "/>
<path style=" stroke:none;fill-rule:nonzero;fill:rgb(12.156863%,12.941176%,16.862745%);fill-opacity:1;" d="M 66.355469 39 C 66.109375 39 65.890625 38.8125 65.863281 38.558594 L 65.742188 37.558594 C 65.710938 37.285156 65.90625 37.035156 66.179688 37.003906 C 66.445312 36.972656 66.703125 37.164062 66.734375 37.441406 L 66.855469 38.441406 C 66.886719 38.714844 66.691406 38.964844 66.417969 38.996094 C 66.398438 39 66.378906 39 66.355469 39 Z M 66.355469 39 "/>
<path style=" stroke:none;fill-rule:nonzero;fill:rgb(12.156863%,12.941176%,16.862745%);fill-opacity:1;" d="M 67.4375 48 C 67.167969 48 66.949219 47.789062 66.9375 47.519531 C 66.914062 46.953125 66.875 46.394531 66.832031 45.839844 L 66.808594 45.535156 C 66.789062 45.261719 66.996094 45.023438 67.273438 45.003906 C 67.542969 44.984375 67.789062 45.1875 67.808594 45.464844 L 67.828125 45.765625 C 67.871094 46.335938 67.914062 46.902344 67.9375 47.480469 C 67.949219 47.757812 67.734375 47.988281 67.457031 48 C 67.449219 48 67.441406 48 67.4375 48 Z M 67.4375 48 "/>
<path style=" stroke:none;fill-rule:nonzero;fill:rgb(12.156863%,12.941176%,16.862745%);fill-opacity:1;" d="M 37.175781 64.582031 C 37.054688 63.855469 36.945312 63.222656 36.855469 62.570312 C 36.816406 62.296875 37.007812 62.042969 37.28125 62.003906 C 37.546875 61.964844 37.804688 62.15625 37.84375 62.429688 C 37.9375 63.074219 38.039062 63.699219 38.144531 64.320312 L 37.667969 64.5 Z M 37.175781 64.582031 "/>
<path style=" stroke:none;fill-rule:nonzero;fill:rgb(12.156863%,12.941176%,16.862745%);fill-opacity:1;" d="M 39.539062 73 C 39.324219 73 39.128906 72.863281 39.058594 72.648438 C 38.578125 71.105469 38.136719 69.410156 37.746094 67.605469 C 37.691406 67.335938 37.863281 67.070312 38.132812 67.011719 C 38.398438 66.953125 38.667969 67.125 38.726562 67.394531 C 39.109375 69.171875 39.542969 70.835938 40.015625 72.351562 C 40.097656 72.617188 39.949219 72.894531 39.6875 72.976562 C 39.636719 72.992188 39.585938 73 39.539062 73 Z M 39.539062 73 "/>
<path style=" stroke:none;fill-rule:nonzero;fill:rgb(12.156863%,12.941176%,16.862745%);fill-opacity:1;" d="M 36.269531 23 C 36.144531 23 36.023438 22.953125 35.925781 22.859375 C 35.726562 22.671875 35.71875 22.351562 35.910156 22.152344 C 36.722656 21.308594 37.414062 20.660156 38.09375 20.109375 C 38.3125 19.9375 38.625 19.972656 38.796875 20.1875 C 38.972656 20.402344 38.9375 20.714844 38.722656 20.890625 C 38.078125 21.410156 37.410156 22.035156 36.632812 22.847656 C 36.53125 22.949219 36.402344 23 36.269531 23 Z M 36.269531 23 "/>
<path style=" stroke:none;fill-rule:nonzero;fill:rgb(12.156863%,12.941176%,16.862745%);fill-opacity:1;" d="M 32.4375 28 C 32.347656 28 32.257812 27.976562 32.175781 27.925781 C 31.941406 27.78125 31.867188 27.476562 32.011719 27.238281 C 32.609375 26.253906 33.308594 25.257812 34.144531 24.191406 C 34.316406 23.972656 34.632812 23.9375 34.847656 24.105469 C 35.066406 24.277344 35.101562 24.59375 34.933594 24.808594 C 34.121094 25.84375 33.445312 26.808594 32.863281 27.761719 C 32.769531 27.914062 32.605469 28 32.4375 28 Z M 32.4375 28 "/>
<path style=" stroke:none;fill-rule:nonzero;fill:rgb(12.156863%,12.941176%,16.862745%);fill-opacity:1;" d="M 61.347656 64 C 61.308594 64 61.269531 63.996094 61.230469 63.988281 C 60.960938 63.921875 60.796875 63.652344 60.859375 63.386719 L 61.097656 62.386719 C 61.160156 62.117188 61.425781 61.953125 61.699219 62.011719 C 61.96875 62.078125 62.132812 62.347656 62.070312 62.613281 L 61.832031 63.613281 C 61.777344 63.84375 61.570312 64 61.347656 64 Z M 61.347656 64 "/>
<path style=" stroke:none;fill-rule:nonzero;fill:rgb(12.156863%,12.941176%,16.862745%);fill-opacity:1;" d="M 59.21875 73 C 59.164062 73 59.113281 72.992188 59.058594 72.972656 C 58.796875 72.886719 58.65625 72.601562 58.746094 72.339844 C 59.027344 71.507812 59.308594 70.566406 59.632812 69.371094 C 59.703125 69.105469 59.980469 68.945312 60.246094 69.019531 C 60.511719 69.089844 60.671875 69.363281 60.597656 69.632812 C 60.269531 70.847656 59.980469 71.808594 59.695312 72.660156 C 59.621094 72.867188 59.429688 73 59.21875 73 Z M 59.21875 73 "/>
<path style=" stroke:none;fill-rule:nonzero;fill:rgb(12.156863%,12.941176%,16.862745%);fill-opacity:1;" d="M 60.621094 68 C 60.585938 68 60.546875 67.996094 60.507812 67.988281 C 60.238281 67.925781 60.070312 67.65625 60.136719 67.386719 C 60.285156 66.738281 60.429688 66.078125 60.5625 65.402344 C 60.617188 65.132812 60.882812 64.953125 61.152344 65.007812 C 61.421875 65.0625 61.597656 65.324219 61.542969 65.597656 C 61.40625 66.28125 61.265625 66.953125 61.109375 67.613281 C 61.054688 67.84375 60.851562 68 60.621094 68 Z M 60.621094 68 "/>
</g>
</svg>
