<?xml version="1.0" encoding="UTF-8"?>
<svg xmlns="http://www.w3.org/2000/svg" xmlns:xlink="http://www.w3.org/1999/xlink" width="100pt" height="100pt" viewBox="0 0 100 100" version="1.1">
<g id="surface35511">
<path style=" stroke:none;fill-rule:nonzero;fill:rgb(99.607843%,99.215686%,93.72549%);fill-opacity:1;" d="M 78.921875 29.554688 C 71.046875 21.679688 66.546875 17.183594 58.675781 9.308594 L 26.652344 9.308594 C 21.851562 9.308594 17.921875 13.238281 17.921875 18.039062 L 17.921875 79.574219 C 17.921875 84.378906 21.851562 88.304688 26.652344 88.304688 L 70.1875 88.304688 C 74.992188 88.304688 78.921875 84.375 78.921875 79.574219 Z M 78.921875 29.554688 "/>
<path style=" stroke:none;fill-rule:nonzero;fill:rgb(12.156863%,12.941176%,16.862745%);fill-opacity:1;" d="M 70.1875 89.308594 L 26.652344 89.308594 C 21.289062 89.308594 16.921875 84.941406 16.921875 79.574219 L 16.921875 18.039062 C 16.921875 12.671875 21.289062 8.308594 26.652344 8.308594 L 58.675781 8.308594 C 58.941406 8.308594 59.195312 8.414062 59.382812 8.601562 L 79.628906 28.847656 C 79.816406 29.035156 79.921875 29.289062 79.921875 29.554688 L 79.921875 79.574219 C 79.921875 84.941406 75.554688 89.308594 70.1875 89.308594 Z M 26.652344 10.308594 C 22.390625 10.308594 18.921875 13.777344 18.921875 18.039062 L 18.921875 79.574219 C 18.921875 83.839844 22.390625 87.304688 26.652344 87.304688 L 70.1875 87.304688 C 74.453125 87.304688 77.921875 83.835938 77.921875 79.574219 L 77.921875 29.96875 L 58.261719 10.308594 Z M 26.652344 10.308594 "/>
<path style=" stroke:none;fill-rule:nonzero;fill:rgb(99.607843%,96.470588%,66.666667%);fill-opacity:1;" d="M 58.421875 9.808594 L 58.421875 20.792969 C 58.421875 25.75 62.476562 29.808594 67.433594 29.808594 L 79.421875 29.808594 "/>
<path style=" stroke:none;fill-rule:nonzero;fill:rgb(12.156863%,12.941176%,16.862745%);fill-opacity:1;" d="M 79.421875 30.308594 L 67.4375 30.308594 C 62.191406 30.308594 57.921875 26.039062 57.921875 20.792969 L 57.921875 9.808594 C 57.921875 9.53125 58.144531 9.308594 58.421875 9.308594 C 58.695312 9.308594 58.921875 9.53125 58.921875 9.808594 L 58.921875 20.792969 C 58.921875 25.488281 62.738281 29.308594 67.4375 29.308594 L 79.421875 29.308594 C 79.695312 29.308594 79.921875 29.53125 79.921875 29.808594 C 79.921875 30.082031 79.699219 30.308594 79.421875 30.308594 Z M 73.421875 48.308594 C 73.144531 48.308594 72.921875 48.082031 72.921875 47.808594 L 72.921875 44.808594 C 72.921875 44.53125 73.144531 44.308594 73.421875 44.308594 C 73.695312 44.308594 73.921875 44.53125 73.921875 44.808594 L 73.921875 47.808594 C 73.921875 48.082031 73.699219 48.308594 73.421875 48.308594 Z M 73.421875 56.308594 C 73.144531 56.308594 72.921875 56.082031 72.921875 55.808594 L 72.921875 49.808594 C 72.921875 49.53125 73.144531 49.308594 73.421875 49.308594 C 73.695312 49.308594 73.921875 49.53125 73.921875 49.808594 L 73.921875 55.808594 C 73.921875 56.082031 73.699219 56.308594 73.421875 56.308594 Z M 66.261719 83.308594 L 30.578125 83.308594 C 26.355469 83.308594 22.921875 79.855469 22.921875 75.617188 L 22.921875 22.953125 C 22.921875 20.496094 24.113281 18.164062 26.113281 16.71875 C 27.425781 15.769531 28.96875 15.265625 30.578125 15.265625 C 30.855469 15.265625 31.078125 15.488281 31.078125 15.765625 C 31.078125 16.042969 30.855469 16.265625 30.578125 16.265625 C 29.179688 16.265625 27.839844 16.703125 26.699219 17.527344 C 24.960938 18.789062 23.921875 20.816406 23.921875 22.957031 L 23.921875 75.617188 C 23.921875 79.308594 26.90625 82.308594 30.578125 82.308594 L 66.261719 82.308594 C 69.933594 82.308594 72.921875 79.308594 72.921875 75.617188 L 72.921875 57.808594 C 72.921875 57.53125 73.144531 57.308594 73.421875 57.308594 C 73.695312 57.308594 73.921875 57.53125 73.921875 57.808594 L 73.921875 75.617188 C 73.921875 79.855469 70.484375 83.308594 66.261719 83.308594 Z M 66.261719 83.308594 "/>
<path style=" stroke:none;fill-rule:nonzero;fill:rgb(12.156863%,12.941176%,16.862745%);fill-opacity:1;" d="M 49.421875 52.308594 L 28.421875 52.308594 C 28.144531 52.308594 27.921875 52.082031 27.921875 51.808594 C 27.921875 51.53125 28.144531 51.308594 28.421875 51.308594 L 49.421875 51.308594 C 49.695312 51.308594 49.921875 51.53125 49.921875 51.808594 C 49.921875 52.082031 49.699219 52.308594 49.421875 52.308594 Z M 41.421875 59.308594 L 28.421875 59.308594 C 28.144531 59.308594 27.921875 59.082031 27.921875 58.808594 C 27.921875 58.53125 28.144531 58.308594 28.421875 58.308594 L 41.421875 58.308594 C 41.695312 58.308594 41.921875 58.53125 41.921875 58.808594 C 41.921875 59.082031 41.699219 59.308594 41.421875 59.308594 Z M 68.421875 59.308594 L 44.421875 59.308594 C 44.144531 59.308594 43.921875 59.082031 43.921875 58.808594 C 43.921875 58.53125 44.144531 58.308594 44.421875 58.308594 L 68.421875 58.308594 C 68.695312 58.308594 68.921875 58.53125 68.921875 58.808594 C 68.921875 59.082031 68.699219 59.308594 68.421875 59.308594 Z M 59.421875 66.308594 L 48.421875 66.308594 C 48.144531 66.308594 47.921875 66.082031 47.921875 65.808594 C 47.921875 65.53125 48.144531 65.308594 48.421875 65.308594 L 59.421875 65.308594 C 59.695312 65.308594 59.921875 65.53125 59.921875 65.808594 C 59.921875 66.082031 59.699219 66.308594 59.421875 66.308594 Z M 69.421875 66.308594 L 61.421875 66.308594 C 61.144531 66.308594 60.921875 66.082031 60.921875 65.808594 C 60.921875 65.53125 61.144531 65.308594 61.421875 65.308594 L 69.421875 65.308594 C 69.695312 65.308594 69.921875 65.53125 69.921875 65.808594 C 69.921875 66.082031 69.699219 66.308594 69.421875 66.308594 Z M 45.421875 66.308594 L 28.421875 66.308594 C 28.144531 66.308594 27.921875 66.082031 27.921875 65.808594 C 27.921875 65.53125 28.144531 65.308594 28.421875 65.308594 L 45.421875 65.308594 C 45.695312 65.308594 45.921875 65.53125 45.921875 65.808594 C 45.921875 66.082031 45.699219 66.308594 45.421875 66.308594 Z M 68.421875 73.308594 L 54.421875 73.308594 C 54.144531 73.308594 53.921875 73.082031 53.921875 72.808594 C 53.921875 72.53125 54.144531 72.308594 54.421875 72.308594 L 68.421875 72.308594 C 68.695312 72.308594 68.921875 72.53125 68.921875 72.808594 C 68.921875 73.082031 68.699219 73.308594 68.421875 73.308594 Z M 52.421875 73.308594 L 28.421875 73.308594 C 28.144531 73.308594 27.921875 73.082031 27.921875 72.808594 C 27.921875 72.53125 28.144531 72.308594 28.421875 72.308594 L 52.421875 72.308594 C 52.695312 72.308594 52.921875 72.53125 52.921875 72.808594 C 52.921875 73.082031 52.699219 73.308594 52.421875 73.308594 Z M 49.421875 45.308594 L 28.421875 45.308594 C 28.144531 45.308594 27.921875 45.082031 27.921875 44.808594 C 27.921875 44.53125 28.144531 44.308594 28.421875 44.308594 L 49.421875 44.308594 C 49.695312 44.308594 49.921875 44.53125 49.921875 44.808594 C 49.921875 45.082031 49.699219 45.308594 49.421875 45.308594 Z M 49.421875 45.308594 "/>
<path style=" stroke:none;fill-rule:nonzero;fill:rgb(99.607843%,96.470588%,66.666667%);fill-opacity:1;" d="M 52.421875 51.808594 L 52.421875 37.808594 L 68.421875 37.808594 L 68.421875 53.808594 L 56.421875 53.808594 "/>
<path style=" stroke:none;fill-rule:nonzero;fill:rgb(12.156863%,12.941176%,16.862745%);fill-opacity:1;" d="M 68.421875 54.308594 L 56.421875 54.308594 C 56.144531 54.308594 55.921875 54.082031 55.921875 53.808594 C 55.921875 53.53125 56.144531 53.308594 56.421875 53.308594 L 67.921875 53.308594 L 67.921875 38.308594 L 52.921875 38.308594 L 52.921875 51.808594 C 52.921875 52.082031 52.695312 52.308594 52.421875 52.308594 C 52.144531 52.308594 51.921875 52.082031 51.921875 51.808594 L 51.921875 37.808594 C 51.921875 37.53125 52.144531 37.308594 52.421875 37.308594 L 68.421875 37.308594 C 68.695312 37.308594 68.921875 37.53125 68.921875 37.808594 L 68.921875 53.808594 C 68.921875 54.082031 68.699219 54.308594 68.421875 54.308594 Z M 49.421875 38.308594 L 28.421875 38.308594 C 28.144531 38.308594 27.921875 38.082031 27.921875 37.808594 C 27.921875 37.53125 28.144531 37.308594 28.421875 37.308594 L 49.421875 37.308594 C 49.695312 37.308594 49.921875 37.53125 49.921875 37.808594 C 49.921875 38.082031 49.699219 38.308594 49.421875 38.308594 Z M 49.421875 38.308594 "/>
</g>
</svg>
