<?xml version="1.0" encoding="UTF-8"?>
<svg xmlns="http://www.w3.org/2000/svg" xmlns:xlink="http://www.w3.org/1999/xlink" width="100pt" height="100pt" viewBox="0 0 100 100" version="1.1">
<g id="surface502">
<path style=" stroke:none;fill-rule:nonzero;fill:rgb(22.352941%,76.078431%,84.705882%);fill-opacity:1;" d="M 85 50 C 85 69.328125 69.328125 85 50 85 C 30.671875 85 15 69.328125 15 50 C 15 30.671875 30.671875 15 50 15 C 69.328125 15 85 30.671875 85 50 Z M 85 50 "/>
<path style=" stroke:none;fill-rule:nonzero;fill:rgb(70.196078%,69.803922%,76.470588%);fill-opacity:1;" d="M 48.535156 60.4375 L 43.257812 65.3125 C 43.257812 65.3125 43.03125 65.488281 42.71875 65.496094 C 42.613281 65.507812 42.496094 65.488281 42.382812 65.4375 L 43.867188 56.488281 Z M 48.535156 60.4375 "/>
<path style=" stroke:none;fill-rule:nonzero;fill:rgb(100%,100%,100%);fill-opacity:1;" d="M 59.644531 66.128906 C 59.644531 66.128906 59.398438 67.5 57.726562 67.5 C 56.835938 67.5 56.378906 67.074219 56.378906 67.074219 L 43.875 56.488281 L 37.75 53.351562 L 29.890625 51.21875 C 29.890625 51.21875 28.5 50.808594 28.5 49.628906 C 28.5 48.644531 29.9375 48.179688 29.9375 48.179688 L 62.800781 34.871094 C 62.800781 34.871094 63.644531 34.5 64.375 34.5 C 65 34.5 65.5 34.875 65.5 35.5 C 65.5 35.621094 65.488281 35.753906 65.472656 35.875 C 65.433594 36.144531 59.644531 66.128906 59.644531 66.128906 Z M 59.644531 66.128906 "/>
<path style=" stroke:none;fill-rule:nonzero;fill:rgb(84.313725%,83.921569%,92.156863%);fill-opacity:1;" d="M 59.339844 40.808594 C 59.191406 40.605469 58.964844 40.5 58.734375 40.5 C 58.570312 40.5 58.402344 40.550781 58.261719 40.664062 L 37.75 53.355469 C 37.75 53.355469 41.664062 64.308594 41.742188 64.5 C 42.113281 65.410156 42.382812 65.4375 42.382812 65.4375 L 43.867188 56.488281 L 59.195312 41.910156 C 59.398438 41.757812 59.5 41.523438 59.5 41.285156 C 59.5 41.117188 59.445312 40.949219 59.339844 40.808594 Z M 59.339844 40.808594 "/>
<path style=" stroke:none;fill-rule:nonzero;fill:rgb(12.156863%,12.941176%,16.862745%);fill-opacity:1;" d="M 50 86 C 30.148438 86 14 69.851562 14 50 C 14 30.148438 30.148438 14 50 14 C 69.851562 14 86 30.148438 86 50 C 86 69.851562 69.851562 86 50 86 Z M 50 16 C 31.253906 16 16 31.253906 16 50 C 16 68.746094 31.253906 84 50 84 C 68.746094 84 84 68.746094 84 50 C 84 31.253906 68.746094 16 50 16 Z M 50 16 "/>
<path style=" stroke:none;fill-rule:nonzero;fill:rgb(12.156863%,12.941176%,16.862745%);fill-opacity:1;" d="M 65.5 24.226562 C 65.414062 24.226562 65.324219 24.203125 65.246094 24.15625 C 64.605469 23.78125 63.945312 23.421875 63.277344 23.09375 C 63.03125 22.96875 62.929688 22.671875 63.050781 22.421875 C 63.175781 22.171875 63.476562 22.074219 63.722656 22.195312 C 64.410156 22.535156 65.09375 22.90625 65.753906 23.296875 C 65.992188 23.4375 66.070312 23.742188 65.929688 23.980469 C 65.835938 24.140625 65.671875 24.226562 65.5 24.226562 Z M 65.5 24.226562 "/>
<path style=" stroke:none;fill-rule:nonzero;fill:rgb(12.156863%,12.941176%,16.862745%);fill-opacity:1;" d="M 68.5 26.25 C 68.394531 26.25 68.285156 26.214844 68.195312 26.148438 C 67.875 25.898438 67.546875 25.660156 67.214844 25.425781 C 66.988281 25.269531 66.933594 24.957031 67.089844 24.730469 C 67.25 24.503906 67.5625 24.449219 67.785156 24.609375 C 68.132812 24.847656 68.46875 25.097656 68.804688 25.351562 C 69.023438 25.519531 69.066406 25.835938 68.898438 26.054688 C 68.800781 26.183594 68.648438 26.25 68.5 26.25 Z M 68.5 26.25 "/>
<path style=" stroke:none;fill-rule:nonzero;fill:rgb(12.156863%,12.941176%,16.862745%);fill-opacity:1;" d="M 50 81 C 32.90625 81 19 67.09375 19 50 C 19 32.90625 32.90625 19 50 19 C 53.667969 19 57.257812 19.636719 60.671875 20.886719 C 60.933594 20.980469 61.066406 21.269531 60.96875 21.527344 C 60.875 21.789062 60.585938 21.921875 60.328125 21.824219 C 57.023438 20.613281 53.550781 20 50 20 C 33.457031 20 20 33.457031 20 50 C 20 66.542969 33.457031 80 50 80 C 66.542969 80 80 66.542969 80 50 C 80 41.5625 76.414062 33.464844 70.164062 27.785156 C 69.960938 27.601562 69.945312 27.285156 70.128906 27.078125 C 70.316406 26.875 70.632812 26.859375 70.835938 27.046875 C 77.296875 32.914062 81 41.28125 81 50 C 81 67.09375 67.09375 81 50 81 Z M 50 81 "/>
<path style=" stroke:none;fill-rule:nonzero;fill:rgb(12.156863%,12.941176%,16.862745%);fill-opacity:1;" d="M 57.726562 68 C 56.671875 68 56.101562 67.496094 56.039062 67.4375 L 43.59375 56.910156 L 37.570312 53.816406 L 29.761719 51.699219 C 29.679688 51.675781 28 51.160156 28 49.628906 C 28 48.292969 29.710938 47.726562 29.78125 47.699219 L 62.613281 34.40625 C 62.636719 34.398438 63.550781 34 64.375 34 C 65.316406 34 66 34.632812 66 35.5 C 66 35.644531 65.984375 35.796875 65.964844 35.941406 C 65.929688 36.21875 60.730469 63.132812 60.132812 66.21875 C 60.023438 66.835938 59.378906 68 57.726562 68 Z M 64.375 35 C 63.761719 35 63.007812 35.324219 63 35.328125 L 30.125 48.640625 C 29.808594 48.746094 29 49.125 29 49.628906 C 29 50.410156 30.023438 50.734375 30.035156 50.738281 L 37.882812 52.867188 C 37.914062 52.875 37.945312 52.886719 37.980469 52.902344 L 44.101562 56.046875 C 44.136719 56.0625 44.167969 56.085938 44.199219 56.109375 L 56.703125 66.691406 C 56.726562 66.714844 57.0625 67 57.726562 67 C 58.964844 67 59.144531 66.078125 59.152344 66.039062 C 59.152344 66.039062 59.152344 66.035156 59.152344 66.03125 C 61.136719 55.753906 64.910156 36.207031 64.976562 35.800781 C 64.988281 35.707031 65 35.601562 65 35.5 C 65 35.023438 64.480469 35 64.375 35 Z M 64.375 35 "/>
<path style=" stroke:none;fill-rule:nonzero;fill:rgb(12.156863%,12.941176%,16.862745%);fill-opacity:1;" d="M 42.65625 66 C 42.496094 66 42.328125 65.960938 42.167969 65.886719 C 41.96875 65.789062 41.855469 65.574219 41.890625 65.351562 L 43.371094 56.40625 C 43.402344 56.230469 43.523438 56.082031 43.691406 56.019531 C 43.863281 55.957031 44.050781 55.992188 44.1875 56.105469 L 48.859375 60.054688 C 48.96875 60.144531 49.03125 60.28125 49.035156 60.425781 C 49.039062 60.566406 48.980469 60.703125 48.875 60.800781 L 43.597656 65.679688 C 43.507812 65.753906 43.183594 65.984375 42.730469 65.996094 C 42.707031 66 42.679688 66 42.65625 66 Z M 44.214844 57.4375 L 42.980469 64.890625 L 47.78125 60.453125 Z M 44.214844 57.4375 "/>
<path style=" stroke:none;fill-rule:nonzero;fill:rgb(12.156863%,12.941176%,16.862745%);fill-opacity:1;" d="M 42.382812 65.9375 C 42.367188 65.9375 42.351562 65.933594 42.335938 65.933594 C 41.957031 65.898438 41.601562 65.476562 41.277344 64.6875 C 41.199219 64.496094 37.933594 55.355469 37.277344 53.523438 C 37.199219 53.304688 37.285156 53.054688 37.488281 52.929688 L 57.996094 40.238281 C 58.183594 40.089844 58.433594 39.992188 58.738281 40 C 59.132812 40 59.5 40.1875 59.738281 40.507812 C 59.90625 40.730469 60 41.007812 60 41.285156 C 60 41.691406 59.816406 42.0625 59.503906 42.308594 L 44.332031 56.738281 L 42.875 65.519531 C 42.835938 65.761719 42.625 65.9375 42.382812 65.9375 Z M 38.355469 53.570312 C 39.582031 56.996094 41.628906 62.71875 42.105469 64.042969 L 43.371094 56.40625 C 43.390625 56.300781 43.441406 56.199219 43.519531 56.128906 L 58.851562 41.546875 C 58.960938 41.460938 59 41.378906 59 41.285156 C 59 41.242188 58.988281 41.175781 58.941406 41.109375 C 58.941406 41.109375 58.941406 41.109375 58.9375 41.109375 C 58.886719 41.039062 58.824219 41.027344 58.730469 41 C 58.671875 41 58.613281 41.019531 58.5625 41.058594 Z M 38.355469 53.570312 "/>
</g>
</svg>
