<?xml version="1.0" encoding="UTF-8"?>
<svg xmlns="http://www.w3.org/2000/svg" xmlns:xlink="http://www.w3.org/1999/xlink" width="50pt" height="50pt" viewBox="0 0 50 50" version="1.1">
<g id="surface4810">
<path style="fill:none;stroke-width:2;stroke-linecap:round;stroke-linejoin:miter;stroke:rgb(100%,100%,100%);stroke-opacity:1;stroke-miterlimit:10;" d="M 3 21 L 21 21 " transform="matrix(2.083333,0,0,2.083333,0,0)"/>
<path style=" stroke:none;fill-rule:nonzero;fill:rgb(100%,100%,100%);fill-opacity:1;" d="M 25 31.25 C 23.847656 31.25 22.917969 32.183594 22.917969 33.332031 C 22.917969 34.484375 23.847656 35.417969 25 35.417969 C 26.152344 35.417969 27.082031 34.484375 27.082031 33.332031 C 27.082031 32.183594 26.152344 31.25 25 31.25 Z M 36.457031 22.917969 C 35.882812 22.917969 35.417969 23.382812 35.417969 23.957031 C 35.417969 24.535156 35.882812 25 36.457031 25 C 37.035156 25 37.5 24.535156 37.5 23.957031 C 37.5 23.382812 37.035156 22.917969 36.457031 22.917969 Z M 13.542969 22.917969 C 12.964844 22.917969 12.5 23.382812 12.5 23.957031 C 12.5 24.535156 12.964844 25 13.542969 25 C 14.117188 25 14.582031 24.535156 14.582031 23.957031 C 14.582031 23.382812 14.117188 22.917969 13.542969 22.917969 Z M 13.542969 22.917969 "/>
<path style=" stroke:none;fill-rule:nonzero;fill:rgb(100%,100%,100%);fill-opacity:1;" d="M 29.167969 22.917969 L 29.167969 6.25 C 29.167969 5.101562 28.234375 4.167969 27.082031 4.167969 L 25 4.167969 L 25 33.332031 L 26.425781 34.851562 L 37.195312 24.695312 L 36.457031 22.917969 Z M 20.832031 22.917969 L 20.832031 6.25 C 20.832031 5.101562 21.765625 4.167969 22.917969 4.167969 L 25 4.167969 L 25 33.332031 L 23.574219 34.851562 L 12.804688 24.695312 L 13.542969 22.917969 Z M 20.832031 22.917969 "/>
</g>
</svg>
