<?xml version="1.0" encoding="UTF-8"?>
<svg xmlns="http://www.w3.org/2000/svg" xmlns:xlink="http://www.w3.org/1999/xlink" width="100pt" height="100pt" viewBox="0 0 100 100" version="1.1">
<g id="surface397">
<path style=" stroke:none;fill-rule:nonzero;fill:rgb(63.921569%,63.921569%,80.392157%);fill-opacity:1;" d="M 77.414062 50.261719 C 77.332031 46.183594 79.539062 43.597656 83.238281 42.164062 C 83.011719 39.9375 80.417969 33.671875 79.105469 32.179688 C 75.554688 33.84375 72.191406 33.589844 69.363281 30.796875 C 66.488281 27.957031 66.261719 24.5625 67.933594 20.9375 C 64.8125 19.019531 61.472656 17.632812 57.894531 16.800781 C 56.6875 20.316406 54.34375 22.523438 50.664062 22.792969 C 46.308594 23.113281 43.484375 20.863281 41.988281 16.835938 C 38.414062 17.710938 35.082031 19.09375 31.992188 21.027344 C 33.691406 24.621094 33.472656 27.980469 30.675781 30.820312 C 27.84375 33.699219 24.457031 33.96875 20.820312 32.296875 C 18.925781 35.414062 17.566406 38.75 16.75 42.320312 C 20.382812 43.65625 22.574219 46.148438 22.667969 50.015625 C 22.761719 54.039062 20.59375 56.671875 16.859375 58.121094 C 17.71875 61.667969 19.121094 64.964844 21.054688 68.054688 C 24.582031 66.480469 27.875 66.742188 30.65625 69.445312 C 33.488281 72.199219 33.828125 75.527344 32.265625 79.125 C 35.382812 81.023438 38.703125 82.378906 42.253906 83.199219 C 42.304688 83.09375 42.347656 83.027344 42.371094 82.960938 C 43.65625 79.617188 46.570312 77.476562 49.90625 77.433594 C 53.472656 77.390625 56.425781 79.378906 57.792969 82.773438 C 57.941406 83.144531 58.109375 83.136719 58.429688 83.054688 C 61.640625 82.242188 64.671875 80.992188 67.519531 79.296875 C 67.675781 79.203125 67.820312 79.097656 67.945312 79.015625 C 66.496094 75.753906 66.628906 72.65625 68.941406 69.964844 C 71.722656 66.722656 75.21875 66.246094 79.105469 67.902344 C 81.023438 64.800781 82.40625 61.496094 83.246094 57.960938 C 79.664062 56.585938 77.496094 54.132812 77.414062 50.261719 Z M 49.992188 55.832031 C 46.753906 55.816406 44.144531 53.195312 44.15625 49.964844 C 44.171875 46.730469 46.808594 44.136719 50.074219 44.167969 C 53.332031 44.199219 55.933594 46.898438 55.839844 50.171875 C 55.753906 53.214844 53.28125 55.816406 49.992188 55.832031 Z M 49.992188 55.832031 "/>
<path style=" stroke:none;fill-rule:nonzero;fill:rgb(12.156863%,12.941176%,16.862745%);fill-opacity:1;" d="M 42.214844 84.195312 C 42.152344 84.195312 42.089844 84.1875 42.027344 84.171875 C 38.40625 83.335938 34.945312 81.925781 31.742188 79.980469 C 31.316406 79.71875 31.148438 79.183594 31.347656 78.726562 C 32.832031 75.316406 32.378906 72.515625 29.957031 70.164062 C 27.597656 67.863281 24.816406 67.476562 21.464844 68.96875 C 21.011719 69.167969 20.476562 69.007812 20.210938 68.585938 C 18.21875 65.402344 16.765625 61.960938 15.890625 58.359375 C 15.773438 57.871094 16.03125 57.371094 16.5 57.191406 C 20.058594 55.804688 21.75 53.464844 21.667969 50.039062 C 21.589844 46.746094 19.867188 44.53125 16.40625 43.261719 C 15.933594 43.085938 15.664062 42.589844 15.773438 42.097656 C 16.605469 38.457031 18.019531 34.984375 19.96875 31.777344 C 20.230469 31.34375 20.777344 31.171875 21.238281 31.386719 C 24.703125 32.980469 27.554688 32.570312 29.964844 30.121094 C 32.339844 27.707031 32.703125 24.871094 31.089844 21.457031 C 30.871094 20.996094 31.03125 20.449219 31.460938 20.179688 C 34.589844 18.222656 38.050781 16.773438 41.753906 15.863281 C 42.253906 15.746094 42.753906 16.011719 42.929688 16.488281 C 44.355469 20.335938 46.859375 22.066406 50.59375 21.796875 C 53.675781 21.570312 55.816406 19.78125 56.949219 16.476562 C 57.117188 15.992188 57.621094 15.710938 58.121094 15.828125 C 61.761719 16.675781 65.238281 18.105469 68.457031 20.089844 C 68.886719 20.351562 69.050781 20.898438 68.839844 21.359375 C 67.238281 24.835938 67.640625 27.691406 70.066406 30.085938 C 72.445312 32.4375 75.34375 32.839844 78.679688 31.277344 C 79.078125 31.089844 79.558594 31.1875 79.855469 31.523438 C 81.285156 33.148438 83.988281 39.65625 84.230469 42.066406 C 84.277344 42.515625 84.015625 42.9375 83.597656 43.101562 C 80.039062 44.480469 78.34375 46.816406 78.414062 50.242188 C 78.480469 53.496094 80.179688 55.71875 83.605469 57.027344 C 84.070312 57.207031 84.335938 57.703125 84.21875 58.191406 C 83.363281 61.796875 81.929688 65.238281 79.953125 68.433594 C 79.695312 68.851562 79.164062 69.019531 78.714844 68.824219 C 75.027344 67.257812 72.078125 67.84375 69.699219 70.617188 C 67.753906 72.886719 67.476562 75.503906 68.855469 78.613281 C 69.054688 79.058594 68.902344 79.585938 68.492188 79.855469 L 68.382812 79.929688 C 68.273438 80.003906 68.152344 80.082031 68.03125 80.15625 C 65.117188 81.890625 61.96875 83.191406 58.671875 84.027344 C 57.589844 84.300781 57.085938 83.703125 56.863281 83.148438 C 55.671875 80.191406 53.121094 78.433594 50.019531 78.433594 C 49.984375 78.433594 49.949219 78.433594 49.914062 78.433594 C 46.976562 78.472656 44.441406 80.34375 43.300781 83.320312 C 43.277344 83.394531 43.238281 83.472656 43.183594 83.570312 C 43.007812 83.925781 42.609375 84.195312 42.214844 84.195312 Z M 33.511719 78.699219 C 36.082031 80.175781 38.820312 81.292969 41.675781 82.027344 C 43.222656 78.644531 46.378906 76.476562 49.894531 76.433594 C 53.738281 76.414062 56.953125 78.453125 58.546875 81.992188 C 61.449219 81.21875 64.171875 80.089844 66.703125 78.617188 C 65.421875 75.144531 65.925781 71.945312 68.183594 69.3125 C 70.941406 66.097656 74.554688 65.1875 78.683594 66.664062 C 80.179688 64.105469 81.316406 61.382812 82.066406 58.550781 C 78.394531 56.886719 76.496094 54.109375 76.414062 50.285156 C 76.332031 46.292969 78.300781 43.289062 82.113281 41.554688 C 81.617188 39.382812 79.894531 35.199219 78.765625 33.414062 C 74.953125 34.9375 71.46875 34.28125 68.660156 31.507812 C 65.847656 28.730469 65.167969 25.230469 66.671875 21.347656 C 64.101562 19.855469 61.363281 18.726562 58.515625 17.984375 C 57.03125 21.523438 54.359375 23.523438 50.738281 23.789062 C 46.425781 24.117188 43.203125 22.117188 41.394531 18.023438 C 38.5 18.808594 35.769531 19.953125 33.257812 21.429688 C 34.777344 25.25 34.140625 28.726562 31.390625 31.523438 C 28.605469 34.355469 25.113281 35.050781 21.238281 33.558594 C 19.769531 36.125 18.65625 38.863281 17.925781 41.71875 C 21.597656 43.335938 23.578125 46.179688 23.671875 49.992188 C 23.765625 53.964844 21.824219 56.960938 18.042969 58.707031 C 18.808594 61.535156 19.960938 64.253906 21.46875 66.804688 C 25.214844 65.410156 28.617188 66.070312 31.355469 68.730469 C 34.152344 71.453125 34.890625 74.886719 33.511719 78.699219 Z M 49.992188 56.832031 C 49.988281 56.832031 49.988281 56.832031 49.984375 56.832031 C 46.203125 56.8125 43.140625 53.730469 43.15625 49.960938 C 43.164062 48.132812 43.886719 46.421875 45.183594 45.140625 C 46.492188 43.851562 48.183594 43.136719 50.082031 43.167969 C 51.925781 43.183594 53.648438 43.925781 54.929688 45.257812 C 56.214844 46.589844 56.890625 48.34375 56.839844 50.199219 C 56.734375 53.898438 53.726562 56.8125 49.996094 56.832031 C 49.996094 56.832031 49.992188 56.832031 49.992188 56.832031 Z M 50.015625 45.167969 C 48.71875 45.167969 47.503906 45.660156 46.589844 46.5625 C 45.671875 47.46875 45.164062 48.679688 45.15625 49.972656 C 45.144531 52.636719 47.3125 54.816406 49.988281 54.832031 C 52.636719 54.816406 54.765625 52.757812 54.839844 50.144531 C 54.878906 48.828125 54.398438 47.585938 53.488281 46.644531 C 52.585938 45.703125 51.367188 45.179688 50.0625 45.167969 C 50.046875 45.167969 50.03125 45.167969 50.015625 45.167969 Z M 50.015625 45.167969 "/>
<path style=" stroke:none;fill-rule:nonzero;fill:rgb(46.666667%,46.666667%,67.058824%);fill-opacity:1;" d="M 70.875 44.6875 C 67.941406 33.15625 56.214844 26.191406 44.6875 29.125 C 33.15625 32.058594 26.191406 43.785156 29.125 55.316406 C 32.058594 66.84375 43.785156 73.8125 55.316406 70.875 C 66.84375 67.941406 73.8125 56.214844 70.875 44.6875 Z M 54.242188 66.671875 C 45.035156 69.015625 35.671875 63.449219 33.328125 54.242188 C 30.984375 45.035156 36.550781 35.671875 45.757812 33.328125 C 54.964844 30.984375 64.328125 36.550781 66.671875 45.757812 C 69.015625 54.964844 63.449219 64.328125 54.242188 66.671875 Z M 54.242188 66.671875 "/>
<path style=" stroke:none;fill-rule:nonzero;fill:rgb(12.156863%,12.941176%,16.862745%);fill-opacity:1;" d="M 50.078125 67.914062 C 42.269531 67.914062 35.136719 62.640625 33.125 54.734375 C 30.742188 45.390625 36.414062 35.847656 45.761719 33.46875 C 55.097656 31.089844 64.648438 36.757812 67.027344 46.105469 C 69.40625 55.453125 63.738281 64.992188 54.390625 67.371094 C 52.949219 67.738281 51.503906 67.914062 50.078125 67.914062 Z M 50.074219 33.917969 C 48.730469 33.917969 47.363281 34.085938 46.003906 34.429688 C 37.1875 36.675781 31.839844 45.675781 34.085938 54.492188 C 36.328125 63.308594 45.332031 68.652344 54.148438 66.410156 C 62.964844 64.167969 68.308594 55.167969 66.066406 46.351562 C 64.167969 38.894531 57.4375 33.917969 50.074219 33.917969 Z M 54.269531 66.890625 L 54.277344 66.890625 Z M 29.621094 43.273438 C 29.566406 43.273438 29.511719 43.265625 29.453125 43.246094 C 29.195312 43.152344 29.0625 42.867188 29.15625 42.609375 C 31.652344 35.660156 37.40625 30.425781 44.554688 28.609375 C 44.824219 28.539062 45.089844 28.699219 45.15625 28.964844 C 45.222656 29.230469 45.0625 29.5 44.800781 29.570312 C 37.972656 31.304688 32.472656 36.308594 30.089844 42.945312 C 30.015625 43.148438 29.824219 43.273438 29.621094 43.273438 Z M 29.621094 43.273438 "/>
<path style=" stroke:none;fill-rule:nonzero;fill:rgb(12.156863%,12.941176%,16.862745%);fill-opacity:1;" d="M 50.53125 71.941406 C 48.304688 71.941406 46.03125 71.613281 43.78125 70.945312 C 36.109375 68.664062 30.414062 62.910156 28.542969 55.554688 C 28.476562 55.285156 28.636719 55.019531 28.902344 54.949219 C 29.171875 54.882812 29.4375 55.042969 29.503906 55.308594 C 31.285156 62.324219 36.730469 67.8125 44.066406 69.992188 C 51.457031 72.191406 59.074219 70.542969 64.449219 65.59375 C 64.648438 65.40625 64.964844 65.417969 65.148438 65.621094 C 65.335938 65.820312 65.320312 66.136719 65.121094 66.320312 C 61.128906 70 55.957031 71.941406 50.53125 71.941406 Z M 50.53125 71.941406 "/>
<path style=" stroke:none;fill-rule:nonzero;fill:rgb(63.921569%,63.921569%,80.392157%);fill-opacity:1;" d="M 69.035156 60.476562 C 68.589844 61.296875 68.089844 62.085938 67.542969 62.84375 "/>
<path style=" stroke:none;fill-rule:nonzero;fill:rgb(12.156863%,12.941176%,16.862745%);fill-opacity:1;" d="M 67.542969 63.339844 C 67.441406 63.339844 67.339844 63.308594 67.253906 63.246094 C 67.03125 63.085938 66.980469 62.773438 67.140625 62.550781 C 67.671875 61.820312 68.164062 61.042969 68.601562 60.238281 C 68.734375 60 69.039062 59.914062 69.273438 60.042969 C 69.515625 60.175781 69.601562 60.476562 69.472656 60.714844 C 69.015625 61.554688 68.5 62.367188 67.945312 63.136719 C 67.847656 63.269531 67.695312 63.339844 67.542969 63.339844 Z M 67.542969 63.339844 "/>
<path style=" stroke:none;fill-rule:nonzero;fill:rgb(63.921569%,63.921569%,80.392157%);fill-opacity:1;" d="M 71.152344 54.890625 C 70.855469 56.191406 70.441406 57.464844 69.910156 58.6875 "/>
<path style=" stroke:none;fill-rule:nonzero;fill:rgb(12.156863%,12.941176%,16.862745%);fill-opacity:1;" d="M 69.910156 59.183594 C 69.84375 59.183594 69.777344 59.171875 69.714844 59.144531 C 69.460938 59.035156 69.347656 58.742188 69.453125 58.492188 C 69.972656 57.296875 70.382812 56.050781 70.671875 54.78125 C 70.730469 54.515625 70.996094 54.347656 71.265625 54.410156 C 71.53125 54.46875 71.699219 54.734375 71.636719 55.003906 C 71.335938 56.328125 70.90625 57.636719 70.367188 58.886719 C 70.285156 59.074219 70.101562 59.183594 69.910156 59.183594 Z M 71.019531 45.238281 C 70.796875 45.238281 70.59375 45.089844 70.539062 44.863281 C 68.78125 37.960938 63.710938 32.4375 56.976562 30.085938 C 56.71875 29.996094 56.578125 29.714844 56.671875 29.453125 C 56.761719 29.195312 57.046875 29.058594 57.300781 29.148438 C 64.355469 31.609375 69.660156 37.390625 71.5 44.617188 C 71.566406 44.886719 71.40625 45.152344 71.140625 45.222656 C 71.101562 45.230469 71.058594 45.238281 71.019531 45.238281 Z M 71.019531 45.238281 "/>
<path style=" stroke:none;fill-rule:nonzero;fill:rgb(63.921569%,63.921569%,80.392157%);fill-opacity:1;" d="M 57.726562 34.707031 L 63.484375 33.3125 "/>
<path style=" stroke:none;fill-rule:nonzero;fill:rgb(12.156863%,12.941176%,16.862745%);fill-opacity:1;" d="M 57.726562 35.203125 C 57.5 35.203125 57.296875 35.050781 57.242188 34.820312 C 57.179688 34.554688 57.34375 34.289062 57.609375 34.222656 L 63.367188 32.828125 C 63.636719 32.769531 63.902344 32.929688 63.96875 33.195312 C 64.03125 33.460938 63.867188 33.730469 63.601562 33.792969 L 57.84375 35.1875 C 57.800781 35.195312 57.761719 35.203125 57.726562 35.203125 Z M 57.726562 35.203125 "/>
<path style=" stroke:none;fill-rule:nonzero;fill:rgb(63.921569%,63.921569%,80.392157%);fill-opacity:1;" d="M 62.746094 38.015625 L 67.078125 37.300781 "/>
<path style=" stroke:none;fill-rule:nonzero;fill:rgb(12.156863%,12.941176%,16.862745%);fill-opacity:1;" d="M 62.746094 38.511719 C 62.507812 38.511719 62.296875 38.339844 62.257812 38.097656 C 62.210938 37.824219 62.394531 37.570312 62.664062 37.527344 L 66.996094 36.808594 C 67.257812 36.757812 67.523438 36.945312 67.566406 37.21875 C 67.613281 37.488281 67.429688 37.742188 67.160156 37.789062 L 62.828125 38.503906 C 62.800781 38.507812 62.773438 38.511719 62.746094 38.511719 Z M 62.746094 38.511719 "/>
<path style=" stroke:none;fill-rule:nonzero;fill:rgb(63.921569%,63.921569%,80.392157%);fill-opacity:1;" d="M 65.554688 42.460938 L 69.949219 41.984375 "/>
<path style=" stroke:none;fill-rule:nonzero;fill:rgb(12.156863%,12.941176%,16.862745%);fill-opacity:1;" d="M 65.554688 42.953125 C 65.304688 42.953125 65.089844 42.765625 65.0625 42.511719 C 65.03125 42.242188 65.230469 41.996094 65.5 41.964844 L 69.894531 41.492188 C 70.148438 41.460938 70.410156 41.65625 70.441406 41.933594 C 70.46875 42.203125 70.273438 42.449219 70 42.476562 L 65.605469 42.953125 C 65.589844 42.953125 65.570312 42.953125 65.554688 42.953125 Z M 65.554688 42.953125 "/>
<path style=" stroke:none;fill-rule:nonzero;fill:rgb(63.921569%,63.921569%,80.392157%);fill-opacity:1;" d="M 41.773438 30.320312 L 42.203125 34.34375 "/>
<path style=" stroke:none;fill-rule:nonzero;fill:rgb(12.156863%,12.941176%,16.862745%);fill-opacity:1;" d="M 42.203125 34.839844 C 41.953125 34.839844 41.738281 34.652344 41.714844 34.394531 L 41.277344 30.375 C 41.25 30.105469 41.445312 29.859375 41.71875 29.828125 C 41.972656 29.800781 42.234375 29.996094 42.265625 30.269531 L 42.699219 34.289062 C 42.726562 34.5625 42.53125 34.808594 42.257812 34.835938 C 42.242188 34.839844 42.222656 34.839844 42.203125 34.839844 Z M 42.203125 34.839844 "/>
<path style=" stroke:none;fill-rule:nonzero;fill:rgb(63.921569%,63.921569%,80.392157%);fill-opacity:1;" d="M 37.5 32.574219 L 38.824219 37.019531 "/>
<path style=" stroke:none;fill-rule:nonzero;fill:rgb(12.156863%,12.941176%,16.862745%);fill-opacity:1;" d="M 38.824219 37.515625 C 38.609375 37.515625 38.414062 37.378906 38.347656 37.164062 L 37.023438 32.71875 C 36.945312 32.453125 37.09375 32.179688 37.355469 32.101562 C 37.621094 32.027344 37.894531 32.171875 37.972656 32.433594 L 39.300781 36.878906 C 39.378906 37.144531 39.230469 37.417969 38.964844 37.496094 C 38.921875 37.511719 38.871094 37.515625 38.824219 37.515625 Z M 38.824219 37.515625 "/>
<path style=" stroke:none;fill-rule:nonzero;fill:rgb(63.921569%,63.921569%,80.392157%);fill-opacity:1;" d="M 33.210938 36.503906 L 35.824219 40.375 "/>
<path style=" stroke:none;fill-rule:nonzero;fill:rgb(12.156863%,12.941176%,16.862745%);fill-opacity:1;" d="M 35.824219 40.871094 C 35.664062 40.871094 35.507812 40.792969 35.410156 40.652344 L 32.800781 36.78125 C 32.648438 36.554688 32.707031 36.246094 32.933594 36.09375 C 33.160156 35.9375 33.46875 35.996094 33.621094 36.226562 L 36.234375 40.097656 C 36.386719 40.324219 36.328125 40.632812 36.101562 40.785156 C 36.015625 40.84375 35.917969 40.871094 35.824219 40.871094 Z M 35.824219 40.871094 "/>
<path style=" stroke:none;fill-rule:nonzero;fill:rgb(63.921569%,63.921569%,80.392157%);fill-opacity:1;" d="M 30.089844 58.195312 L 34.546875 57.964844 "/>
<path style=" stroke:none;fill-rule:nonzero;fill:rgb(12.156863%,12.941176%,16.862745%);fill-opacity:1;" d="M 30.089844 58.691406 C 29.828125 58.691406 29.609375 58.484375 29.59375 58.21875 C 29.578125 57.945312 29.789062 57.714844 30.066406 57.699219 L 34.519531 57.46875 C 34.824219 57.453125 35.027344 57.664062 35.039062 57.9375 C 35.054688 58.210938 34.847656 58.445312 34.570312 58.460938 L 30.117188 58.691406 C 30.105469 58.691406 30.097656 58.691406 30.089844 58.691406 Z M 30.089844 58.691406 "/>
<path style=" stroke:none;fill-rule:nonzero;fill:rgb(63.921569%,63.921569%,80.392157%);fill-opacity:1;" d="M 32.773438 63.03125 L 37.097656 61.742188 "/>
<path style=" stroke:none;fill-rule:nonzero;fill:rgb(12.156863%,12.941176%,16.862745%);fill-opacity:1;" d="M 32.773438 63.527344 C 32.558594 63.527344 32.363281 63.390625 32.296875 63.175781 C 32.21875 62.910156 32.367188 62.636719 32.632812 62.558594 L 36.957031 61.265625 C 37.21875 61.191406 37.496094 61.339844 37.574219 61.601562 C 37.652344 61.863281 37.503906 62.140625 37.238281 62.21875 L 32.914062 63.507812 C 32.867188 63.519531 32.820312 63.527344 32.773438 63.527344 Z M 32.773438 63.527344 "/>
<path style=" stroke:none;fill-rule:nonzero;fill:rgb(63.921569%,63.921569%,80.392157%);fill-opacity:1;" d="M 37.425781 67.074219 L 41.074219 65.199219 "/>
<path style=" stroke:none;fill-rule:nonzero;fill:rgb(12.156863%,12.941176%,16.862745%);fill-opacity:1;" d="M 37.425781 67.574219 C 37.242188 67.574219 37.070312 67.472656 36.984375 67.304688 C 36.859375 67.058594 36.953125 66.761719 37.199219 66.636719 L 40.847656 64.761719 C 41.089844 64.636719 41.390625 64.730469 41.515625 64.976562 C 41.640625 65.21875 41.546875 65.519531 41.300781 65.644531 L 37.652344 67.519531 C 37.578125 67.554688 37.503906 67.574219 37.425781 67.574219 Z M 37.425781 67.574219 "/>
<path style=" stroke:none;fill-rule:nonzero;fill:rgb(63.921569%,63.921569%,80.392157%);fill-opacity:1;" d="M 43.378906 69.859375 L 46.074219 67.28125 "/>
<path style=" stroke:none;fill-rule:nonzero;fill:rgb(12.156863%,12.941176%,16.862745%);fill-opacity:1;" d="M 43.378906 70.355469 C 43.246094 70.355469 43.117188 70.304688 43.019531 70.203125 C 42.832031 70.007812 42.839844 69.691406 43.035156 69.503906 L 45.734375 66.925781 C 45.929688 66.734375 46.246094 66.742188 46.433594 66.941406 C 46.625 67.136719 46.617188 67.453125 46.417969 67.640625 L 43.722656 70.21875 C 43.625 70.3125 43.503906 70.355469 43.378906 70.355469 Z M 43.378906 70.355469 "/>
<path style=" stroke:none;fill-rule:nonzero;fill:rgb(63.921569%,63.921569%,80.392157%);fill-opacity:1;" d="M 49.804688 71.421875 L 51.898438 67.519531 "/>
<path style=" stroke:none;fill-rule:nonzero;fill:rgb(12.156863%,12.941176%,16.862745%);fill-opacity:1;" d="M 49.804688 71.917969 C 49.722656 71.917969 49.644531 71.898438 49.570312 71.859375 C 49.328125 71.726562 49.238281 71.425781 49.367188 71.1875 L 51.460938 67.285156 C 51.59375 67.042969 51.894531 66.953125 52.132812 67.082031 C 52.375 67.210938 52.464844 67.511719 52.335938 67.753906 L 50.242188 71.65625 C 50.152344 71.824219 49.980469 71.917969 49.804688 71.917969 Z M 49.804688 71.917969 "/>
<path style=" stroke:none;fill-rule:nonzero;fill:rgb(63.921569%,63.921569%,80.392157%);fill-opacity:1;" d="M 56.738281 70.304688 L 57.066406 66.203125 "/>
<path style=" stroke:none;fill-rule:nonzero;fill:rgb(12.156863%,12.941176%,16.862745%);fill-opacity:1;" d="M 56.738281 70.800781 C 56.722656 70.800781 56.710938 70.800781 56.695312 70.800781 C 56.425781 70.777344 56.21875 70.539062 56.242188 70.265625 L 56.570312 66.164062 C 56.59375 65.890625 56.839844 65.691406 57.105469 65.710938 C 57.378906 65.730469 57.582031 65.96875 57.558594 66.242188 L 57.230469 70.34375 C 57.210938 70.605469 56.992188 70.800781 56.738281 70.800781 Z M 56.738281 70.800781 "/>
<path style=" stroke:none;fill-rule:nonzero;fill:rgb(63.921569%,63.921569%,80.392157%);fill-opacity:1;" d="M 46.886719 28.597656 C 48.207031 28.417969 49.546875 28.359375 50.878906 28.425781 "/>
<path style=" stroke:none;fill-rule:nonzero;fill:rgb(12.156863%,12.941176%,16.862745%);fill-opacity:1;" d="M 46.886719 29.09375 C 46.640625 29.09375 46.429688 28.914062 46.394531 28.664062 C 46.359375 28.394531 46.546875 28.144531 46.820312 28.105469 C 48.164062 27.921875 49.539062 27.859375 50.902344 27.929688 C 51.175781 27.941406 51.386719 28.171875 51.371094 28.449219 C 51.359375 28.71875 51.164062 28.953125 50.851562 28.917969 C 49.554688 28.855469 48.238281 28.914062 46.953125 29.089844 C 46.929688 29.09375 46.910156 29.09375 46.886719 29.09375 Z M 46.886719 29.09375 "/>
</g>
</svg>
