<?xml version="1.0" encoding="UTF-8"?>
<svg xmlns="http://www.w3.org/2000/svg" xmlns:xlink="http://www.w3.org/1999/xlink" width="50pt" height="50pt" viewBox="0 0 50 50" version="1.1">
<g id="surface3188">
<path style="fill:none;stroke-width:3;stroke-linecap:butt;stroke-linejoin:round;stroke:rgb(100%,100%,100%);stroke-opacity:1;stroke-miterlimit:10;" d="M 13.5 34.5 L 8.50125 34.5 C 6.84375 34.5 5.50125 33.1575 5.50125 31.5 L 5.50125 17.50125 C 5.50125 14.7375 7.74 12.49875 10.5 12.49875 L 37.5 12.49875 C 40.26 12.49875 42.49875 14.7375 42.49875 17.50125 L 42.49875 31.5 C 42.49875 33.1575 41.15625 34.5 39.49875 34.5 L 34.5 34.5 " transform="matrix(1.041667,0,0,1.041667,0,0)"/>
<path style="fill:none;stroke-width:3;stroke-linecap:butt;stroke-linejoin:round;stroke:rgb(100%,100%,100%);stroke-opacity:1;stroke-miterlimit:10;" d="M 13.5 12.49875 L 13.5 9.49875 C 13.5 7.84125 14.8425 6.49875 16.5 6.49875 L 31.5 6.49875 C 33.1575 6.49875 34.5 7.84125 34.5 9.49875 L 34.5 12.49875 " transform="matrix(1.041667,0,0,1.041667,0,0)"/>
<path style="fill:none;stroke-width:3;stroke-linecap:butt;stroke-linejoin:round;stroke:rgb(100%,100%,100%);stroke-opacity:1;stroke-miterlimit:10;" d="M 31.5 41.50125 L 16.5 41.50125 C 14.8425 41.50125 13.5 40.15875 13.5 38.50125 L 13.5 29.50125 C 13.5 27.84375 14.8425 26.50125 16.5 26.50125 L 31.5 26.50125 C 33.1575 26.50125 34.5 27.84375 34.5 29.50125 L 34.5 38.50125 C 34.5 40.15875 33.1575 41.50125 31.5 41.50125 Z M 31.5 41.50125 " transform="matrix(1.041667,0,0,1.041667,0,0)"/>
</g>
</svg>
