<?xml version="1.0" encoding="UTF-8"?>
<svg xmlns="http://www.w3.org/2000/svg" xmlns:xlink="http://www.w3.org/1999/xlink" width="100pt" height="100pt" viewBox="0 0 100 100" version="1.1">
<g id="surface427">
<path style=" stroke:none;fill-rule:nonzero;fill:rgb(54.509804%,54.509804%,75.686275%);fill-opacity:1;" d="M 73 30 L 22 30 L 22 35 L 27 40 L 27 76.308594 C 27 83.289062 32.296875 87 38.765625 87 L 61.035156 87 C 67.617188 87 73 83.289062 73 76.308594 L 73 39.917969 L 78 35 L 78 30 Z M 73 30 "/>
<path style=" stroke:none;fill-rule:nonzero;fill:rgb(12.156863%,12.941176%,16.862745%);fill-opacity:1;" d="M 61.035156 88 L 38.765625 88 C 31.128906 88 26 83.300781 26 76.308594 L 26 40.414062 L 21.292969 35.707031 C 21.105469 35.519531 21 35.265625 21 35 L 21 30 C 21 29.449219 21.449219 29 22 29 L 78 29 C 78.550781 29 79 29.449219 79 30 L 79 35 C 79 35.269531 78.890625 35.523438 78.699219 35.714844 L 74 40.335938 L 74 76.308594 C 74 83.300781 68.789062 88 61.035156 88 Z M 23 34.585938 L 27.707031 39.292969 C 27.894531 39.480469 28 39.734375 28 40 L 28 76.308594 C 28 83.460938 33.800781 86 38.765625 86 L 61.035156 86 C 66.09375 86 72 83.460938 72 76.308594 L 72 39.917969 C 72 39.648438 72.109375 39.390625 72.300781 39.203125 L 77 34.582031 L 77 31 L 23 31 Z M 23 34.585938 "/>
<path style=" stroke:none;fill-rule:nonzero;fill:rgb(40.784314%,41.176471%,67.843137%);fill-opacity:1;" d="M 32.5 60.5 L 32.5 40.917969 C 32.5 39.542969 33.625 38.417969 35 38.417969 C 36.375 38.417969 37.5 39.542969 37.5 40.917969 L 37.5 74.917969 C 37.5 76.292969 36.375 77.417969 35 77.417969 C 33.625 77.417969 32.5 76.292969 32.5 74.917969 L 32.5 71.5 "/>
<path style=" stroke:none;fill-rule:nonzero;fill:rgb(12.156863%,12.941176%,16.862745%);fill-opacity:1;" d="M 35 77.917969 C 33.347656 77.917969 32 76.570312 32 74.917969 L 32 71.5 C 32 71.222656 32.222656 71 32.5 71 C 32.777344 71 33 71.222656 33 71.5 L 33 74.917969 C 33 76.019531 33.898438 76.917969 35 76.917969 C 36.101562 76.917969 37 76.019531 37 74.917969 L 37 40.917969 C 37 39.8125 36.101562 38.917969 35 38.917969 C 33.898438 38.917969 33 39.8125 33 40.917969 L 33 60.5 C 33 60.777344 32.777344 61 32.5 61 C 32.222656 61 32 60.777344 32 60.5 L 32 40.917969 C 32 39.261719 33.347656 37.917969 35 37.917969 C 36.652344 37.917969 38 39.261719 38 40.917969 L 38 74.917969 C 38 76.570312 36.652344 77.917969 35 77.917969 Z M 35 77.917969 "/>
<path style=" stroke:none;fill-rule:nonzero;fill:rgb(12.156863%,12.941176%,16.862745%);fill-opacity:1;" d="M 32.5 66 C 32.222656 66 32 65.777344 32 65.5 L 32 62.5 C 32 62.222656 32.222656 62 32.5 62 C 32.777344 62 33 62.222656 33 62.5 L 33 65.5 C 33 65.777344 32.777344 66 32.5 66 Z M 32.5 66 "/>
<path style=" stroke:none;fill-rule:nonzero;fill:rgb(40.784314%,41.176471%,67.843137%);fill-opacity:1;" d="M 45 77.5 C 43.625 77.5 42.5 76.375 42.5 75 L 42.5 41 C 42.5 39.625 43.625 38.5 45 38.5 C 46.375 38.5 47.5 39.625 47.5 41 L 47.5 75 C 47.5 76.375 46.375 77.5 45 77.5 Z M 45 77.5 "/>
<path style=" stroke:none;fill-rule:nonzero;fill:rgb(12.156863%,12.941176%,16.862745%);fill-opacity:1;" d="M 45 78 C 43.347656 78 42 76.652344 42 75 L 42 41 C 42 39.347656 43.347656 38 45 38 C 46.652344 38 48 39.347656 48 41 L 48 75 C 48 76.652344 46.652344 78 45 78 Z M 45 39 C 43.898438 39 43 39.898438 43 41 L 43 75 C 43 76.101562 43.898438 77 45 77 C 46.101562 77 47 76.101562 47 75 L 47 41 C 47 39.898438 46.101562 39 45 39 Z M 45 39 "/>
<path style=" stroke:none;fill-rule:nonzero;fill:rgb(40.784314%,41.176471%,67.843137%);fill-opacity:1;" d="M 55 77.5 C 53.625 77.5 52.5 76.375 52.5 75 L 52.5 41 C 52.5 39.625 53.625 38.5 55 38.5 C 56.375 38.5 57.5 39.625 57.5 41 L 57.5 75 C 57.5 76.375 56.375 77.5 55 77.5 Z M 55 77.5 "/>
<path style=" stroke:none;fill-rule:nonzero;fill:rgb(12.156863%,12.941176%,16.862745%);fill-opacity:1;" d="M 55 78 C 53.347656 78 52 76.652344 52 75 L 52 41 C 52 39.347656 53.347656 38 55 38 C 56.652344 38 58 39.347656 58 41 L 58 75 C 58 76.652344 56.652344 78 55 78 Z M 55 39 C 53.898438 39 53 39.898438 53 41 L 53 75 C 53 76.101562 53.898438 77 55 77 C 56.101562 77 57 76.101562 57 75 L 57 41 C 57 39.898438 56.101562 39 55 39 Z M 55 39 "/>
<path style=" stroke:none;fill-rule:nonzero;fill:rgb(40.784314%,41.176471%,67.843137%);fill-opacity:1;" d="M 65 77.5 C 63.625 77.5 62.5 76.375 62.5 75 L 62.5 41 C 62.5 39.625 63.625 38.5 65 38.5 C 66.375 38.5 67.5 39.625 67.5 41 L 67.5 75 C 67.5 76.375 66.375 77.5 65 77.5 Z M 65 77.5 "/>
<path style=" stroke:none;fill-rule:nonzero;fill:rgb(12.156863%,12.941176%,16.862745%);fill-opacity:1;" d="M 65 78 C 63.347656 78 62 76.652344 62 75 L 62 41 C 62 39.347656 63.347656 38 65 38 C 66.652344 38 68 39.347656 68 41 L 68 75 C 68 76.652344 66.652344 78 65 78 Z M 65 39 C 63.898438 39 63 39.898438 63 41 L 63 75 C 63 76.101562 63.898438 77 65 77 C 66.101562 77 67 76.101562 67 75 L 67 41 C 67 39.898438 66.101562 39 65 39 Z M 65 39 "/>
<path style=" stroke:none;fill-rule:nonzero;fill:rgb(63.921569%,63.921569%,80.392157%);fill-opacity:1;" d="M 78 30 L 78 29.761719 C 78 22.75 75.128906 19 66.726562 19 L 33.273438 19 C 24.871094 19 22 22.75 22 29.761719 L 22 30 Z M 78 30 "/>
<path style=" stroke:none;fill-rule:nonzero;fill:rgb(12.156863%,12.941176%,16.862745%);fill-opacity:1;" d="M 78 31 L 22 31 C 21.449219 31 21 30.550781 21 30 L 21 29.761719 C 21 21.628906 24.785156 18 33.273438 18 L 66.726562 18 C 75.214844 18 79 21.628906 79 29.761719 L 79 30 C 79 30.550781 78.550781 31 78 31 Z M 23.011719 29 L 76.988281 29 C 76.773438 22.621094 73.75 20 66.726562 20 L 33.273438 20 C 26.25 20 23.230469 22.621094 23.011719 29 Z M 78.5 34 L 23.5 34 C 23.222656 34 23 33.777344 23 33.5 C 23 33.222656 23.222656 33 23.5 33 L 78.5 33 C 78.777344 33 79 33.222656 79 33.5 C 79 33.777344 78.777344 34 78.5 34 Z M 71.5 83 L 29.5 83 C 29.222656 83 29 82.777344 29 82.5 C 29 82.222656 29.222656 82 29.5 82 L 71.5 82 C 71.777344 82 72 82.222656 72 82.5 C 72 82.777344 71.777344 83 71.5 83 Z M 71.5 83 "/>
<path style=" stroke:none;fill-rule:nonzero;fill:rgb(12.156863%,12.941176%,16.862745%);fill-opacity:1;" d="M 60 20 L 40 20 C 39.449219 20 39 19.550781 39 19 L 39 16.355469 C 39 13.402344 41.308594 11 44.144531 11 L 55.855469 11 C 58.691406 11 61 13.402344 61 16.355469 L 61 19 C 61 19.550781 60.550781 20 60 20 Z M 41 18 L 59 18 L 59 16.355469 C 59 14.503906 57.589844 13 55.855469 13 L 44.144531 13 C 42.410156 13 41 14.503906 41 16.355469 Z M 68.5 27 L 22.5 27 C 22.222656 27 22 26.777344 22 26.5 C 22 26.222656 22.222656 26 22.5 26 L 68.5 26 C 68.777344 26 69 26.222656 69 26.5 C 69 26.777344 68.777344 27 68.5 27 Z M 73 58.917969 C 72.449219 58.917969 72 58.46875 72 57.917969 L 72 43.917969 C 72 43.363281 72.449219 42.917969 73 42.917969 C 75.757812 42.917969 78 45.160156 78 47.917969 L 78 53.917969 C 78 56.671875 75.757812 58.917969 73 58.917969 Z M 74 45.089844 L 74 56.746094 C 75.164062 56.332031 76 55.21875 76 53.914062 L 76 47.914062 C 76 46.613281 75.164062 45.5 74 45.089844 Z M 27 58.917969 C 24.242188 58.917969 22 56.675781 22 53.917969 L 22 47.917969 C 22 45.160156 24.242188 42.917969 27 42.917969 C 27.550781 42.917969 28 43.363281 28 43.917969 L 28 57.917969 C 28 58.46875 27.550781 58.917969 27 58.917969 Z M 26 45.089844 C 24.835938 45.5 24 46.613281 24 47.917969 L 24 53.917969 C 24 55.222656 24.835938 56.332031 26 56.746094 Z M 74.5 27 L 71.5 27 C 71.222656 27 71 26.777344 71 26.5 C 71 26.222656 71.222656 26 71.5 26 L 74.5 26 C 74.777344 26 75 26.222656 75 26.5 C 75 26.777344 74.777344 27 74.5 27 Z M 74.5 27 "/>
</g>
</svg>
