<?xml version="1.0" encoding="UTF-8"?>
<svg xmlns="http://www.w3.org/2000/svg" xmlns:xlink="http://www.w3.org/1999/xlink" width="100pt" height="100pt" viewBox="0 0 100 100" version="1.1">
<g id="surface452">
<path style=" stroke:none;fill-rule:nonzero;fill:rgb(0%,67.45098%,61.176471%);fill-opacity:1;" d="M 19 33 L 25 19 L 75 19 L 81 33 L 60 33 L 57 38 L 43 38 L 40 33 Z M 19 33 "/>
<path style=" stroke:none;fill-rule:nonzero;fill:rgb(32.156863%,74.901961%,63.137255%);fill-opacity:1;" d="M 81 81 L 19 81 L 19 33 L 40 33 L 43 38 L 57 38 L 60 33 L 81 33 Z M 81 81 "/>
<path style=" stroke:none;fill-rule:nonzero;fill:rgb(99.607843%,99.215686%,93.72549%);fill-opacity:1;" d="M 48.863281 70.976562 L 41.863281 62.976562 C 41.324219 62.34375 41.394531 61.398438 42.023438 60.859375 C 42.652344 60.320312 43.601562 60.394531 44.140625 61.023438 L 48.5 66.019531 L 48.5 49 C 48.5 48.171875 49.171875 47.5 50 47.5 C 50.828125 47.5 51.5 48.171875 51.5 49 L 51.5 66.015625 L 55.859375 61.023438 C 56.398438 60.394531 57.347656 60.320312 57.976562 60.859375 C 58.320312 61.15625 58.5 61.578125 58.5 62 C 58.5 62.347656 58.382812 62.691406 58.136719 62.976562 L 51.136719 70.976562 C 50.855469 71.308594 50.4375 71.5 50 71.5 C 49.5625 71.5 49.148438 71.308594 48.863281 70.976562 Z M 48.863281 70.976562 "/>
<path style=" stroke:none;fill-rule:nonzero;fill:rgb(12.156863%,12.941176%,16.862745%);fill-opacity:1;" d="M 41.019531 41 C 40.742188 41 40.519531 41.222656 40.519531 41.5 C 40.519531 41.777344 40.742188 42 41.019531 42 L 58.980469 42 C 59.15625 42 59.320312 41.90625 59.410156 41.757812 L 62.265625 37 L 63.5 37 C 63.777344 37 64 36.777344 64 36.5 C 64 36.222656 63.777344 36 63.5 36 L 61.980469 36 C 61.804688 36 61.640625 36.09375 61.550781 36.242188 L 58.695312 41 Z M 22.5 66 C 22.777344 66 23 65.777344 23 65.5 L 23 37 L 38.019531 37 C 38.296875 37 38.519531 36.777344 38.519531 36.5 C 38.519531 36.222656 38.296875 36 38.019531 36 L 22.5 36 C 22.222656 36 22 36.222656 22 36.5 L 22 65.5 C 22 65.777344 22.222656 66 22.5 66 Z M 22.5 71 C 22.777344 71 23 70.777344 23 70.5 L 23 68.5 C 23 68.222656 22.777344 68 22.5 68 C 22.222656 68 22 68.222656 22 68.5 L 22 70.5 C 22 70.777344 22.222656 71 22.5 71 Z M 22.5 74 C 22.777344 74 23 73.777344 23 73.5 L 23 72.5 C 23 72.222656 22.777344 72 22.5 72 C 22.222656 72 22 72.222656 22 72.5 L 22 73.5 C 22 73.777344 22.222656 74 22.5 74 Z M 66.5 77 L 22.5 77 C 22.222656 77 22 77.222656 22 77.5 C 22 77.777344 22.222656 78 22.5 78 L 66.5 78 C 66.777344 78 67 77.777344 67 77.5 C 67 77.222656 66.777344 77 66.5 77 Z M 69.5 78 L 71.5 78 C 71.777344 78 72 77.777344 72 77.5 C 72 77.222656 71.777344 77 71.5 77 L 69.5 77 C 69.222656 77 69 77.222656 69 77.5 C 69 77.777344 69.222656 78 69.5 78 Z M 74.5 77 L 73.5 77 C 73.222656 77 73 77.222656 73 77.5 C 73 77.777344 73.222656 78 73.5 78 L 74.5 78 C 74.777344 78 75 77.777344 75 77.5 C 75 77.222656 74.777344 77 74.5 77 Z M 70.5 37 L 77 37 L 77 67.5 C 77 67.777344 77.222656 68 77.5 68 C 77.777344 68 78 67.777344 78 67.5 L 78 36.5 C 78 36.222656 77.777344 36 77.5 36 L 70.5 36 C 70.222656 36 70 36.222656 70 36.5 C 70 36.777344 70.222656 37 70.5 37 Z M 65.5 37 L 67.5 37 C 67.777344 37 68 36.777344 68 36.5 C 68 36.222656 67.777344 36 67.5 36 L 65.5 36 C 65.222656 36 65 36.222656 65 36.5 C 65 36.777344 65.222656 37 65.5 37 Z M 50 47 C 48.898438 47 48 47.894531 48 49 L 48 64.683594 L 44.519531 60.699219 C 44.171875 60.292969 43.6875 60.046875 43.152344 60.007812 C 42.625 59.964844 42.105469 60.136719 41.699219 60.484375 C 40.863281 61.199219 40.765625 62.464844 41.488281 63.304688 L 48.484375 71.304688 C 48.867188 71.746094 49.417969 72 50.003906 72 C 50.585938 72 51.140625 71.746094 51.515625 71.304688 L 58.519531 63.304688 C 58.828125 62.941406 59 62.480469 59 62 C 59 61.414062 58.746094 60.859375 58.300781 60.480469 C 57.894531 60.132812 57.375 59.964844 56.847656 60.003906 C 56.316406 60.046875 55.828125 60.289062 55.484375 60.691406 L 52 64.683594 L 52 49 C 52 47.894531 51.101562 47 50 47 Z M 56.242188 61.347656 C 56.414062 61.144531 56.65625 61.023438 56.921875 61.003906 C 57.1875 60.980469 57.445312 61.066406 57.652344 61.238281 C 57.871094 61.429688 58 61.707031 58 62 C 58 62.242188 57.917969 62.46875 57.761719 62.644531 L 50.757812 70.652344 C 50.382812 71.09375 49.625 71.09375 49.242188 70.648438 C 49.242188 70.648438 49.238281 70.648438 49.238281 70.644531 L 42.242188 62.648438 C 41.886719 62.230469 41.933594 61.597656 42.351562 61.242188 C 42.53125 61.085938 42.761719 61 43 61 C 43.023438 61 43.050781 61 43.078125 61.003906 C 43.34375 61.023438 43.585938 61.144531 43.761719 61.351562 L 48.121094 66.347656 C 48.261719 66.503906 48.480469 66.558594 48.675781 66.484375 C 48.871094 66.410156 49 66.226562 49 66.019531 L 49 49 C 49 48.445312 49.449219 48 50 48 C 50.550781 48 51 48.445312 51 49 L 51 66.015625 C 51 66.226562 51.128906 66.410156 51.324219 66.484375 C 51.519531 66.558594 51.738281 66.503906 51.878906 66.347656 Z M 56.242188 61.347656 "/>
<path style=" stroke:none;fill-rule:nonzero;fill:rgb(12.156863%,12.941176%,16.862745%);fill-opacity:1;" d="M 81.917969 32.605469 L 75.917969 18.605469 C 75.761719 18.238281 75.398438 18 75 18 L 25 18 C 24.601562 18 24.238281 18.238281 24.082031 18.605469 L 18.082031 32.605469 C 18.027344 32.726562 18 32.859375 18 33 L 18 81 C 18 81.554688 18.445312 82 19 82 L 81 82 C 81.554688 82 82 81.554688 82 81 L 82 33 C 82 32.859375 81.972656 32.726562 81.917969 32.605469 Z M 25.660156 20 L 74.339844 20 L 79.484375 32 L 60 32 C 59.648438 32 59.324219 32.183594 59.144531 32.484375 L 56.433594 37 L 43.566406 37 L 40.855469 32.484375 C 40.675781 32.183594 40.351562 32 40 32 L 20.515625 32 Z M 80 80 L 20 80 L 20 34 L 39.433594 34 L 42.144531 38.515625 C 42.324219 38.816406 42.648438 39 43 39 L 57 39 C 57.351562 39 57.675781 38.816406 57.855469 38.515625 L 60.566406 34 L 80 34 Z M 80 80 "/>
</g>
</svg>
