<?xml version="1.0" encoding="UTF-8"?>
<svg xmlns="http://www.w3.org/2000/svg" xmlns:xlink="http://www.w3.org/1999/xlink" width="100pt" height="100pt" viewBox="0 0 100 100" version="1.1">
<g id="surface392">
<path style=" stroke:none;fill-rule:nonzero;fill:rgb(47.058824%,63.137255%,81.960784%);fill-opacity:1;" d="M 89 26 C 89 26 84.226562 27.394531 79.84375 27.492188 C 79.769531 27.300781 79.707031 27.101562 79.625 26.914062 C 85.019531 23.429688 86.5 19 86.5 19 C 86.5 19 81.222656 21.871094 76.308594 21.988281 C 73.3125 18.914062 69.132812 17 64.5 17 C 55.386719 17 48 24.386719 48 33.5 C 48 35.015625 48.222656 36.472656 48.601562 37.863281 C 25.769531 36.375 14.75 22.140625 13.191406 20 C 11.796875 22.421875 11 25.503906 11 28.5 C 11 34.664062 14.660156 40.480469 20 43 C 14 43 11 41 11 41 C 11 49.503906 17.628906 56.484375 26 57 C 24.117188 57.667969 22.109375 58 20 58 C 19.09375 58 17.785156 57.925781 16.914062 57.796875 L 17 58 C 19.667969 64.3125 26.746094 68.796875 34 69 C 28.429688 73.980469 20.558594 77 12.5 77 L 11 77 C 17 81 25.109375 83 33.5 83 C 59.734375 83 81 61.734375 81 35.5 C 81 35.5 80.972656 33.058594 80.964844 32.839844 C 86 30 89 26 89 26 Z M 89 26 "/>
<path style=" stroke:none;fill-rule:nonzero;fill:rgb(12.156863%,12.941176%,16.862745%);fill-opacity:1;" d="M 33.5 84 C 24.597656 84 16.410156 81.808594 10.445312 77.832031 C 10.078125 77.589844 9.914062 77.132812 10.042969 76.710938 C 10.171875 76.289062 10.558594 76 11 76 L 12.5 76 C 19.398438 76 26.1875 73.753906 31.480469 69.773438 C 24.699219 68.730469 18.574219 64.292969 16.078125 58.390625 L 15.992188 58.179688 C 15.855469 57.847656 15.90625 57.464844 16.128906 57.179688 C 16.347656 56.898438 16.707031 56.753906 17.0625 56.808594 C 17.914062 56.933594 19.1875 57 20 57 C 20.363281 57 20.722656 56.988281 21.078125 56.96875 C 14.585938 54.550781 10 48.273438 10 41 C 10 40.632812 10.203125 40.292969 10.527344 40.117188 C 10.851562 39.941406 11.246094 39.960938 11.554688 40.167969 C 11.570312 40.179688 13.109375 41.160156 16.125 41.679688 C 12.355469 38.496094 10 33.597656 10 28.5 C 10 25.347656 10.847656 22.066406 12.328125 19.5 C 12.496094 19.207031 12.800781 19.019531 13.140625 19 C 13.484375 18.980469 13.804688 19.136719 14.003906 19.410156 C 15.898438 22.019531 26.269531 34.886719 47.320312 36.761719 C 47.105469 35.671875 47 34.578125 47 33.5 C 47 23.851562 54.851562 16 64.5 16 C 69.101562 16 73.417969 17.761719 76.707031 20.972656 C 81.195312 20.714844 85.972656 18.148438 86.023438 18.121094 C 86.378906 17.925781 86.824219 17.96875 87.140625 18.234375 C 87.457031 18.496094 87.578125 18.929688 87.449219 19.316406 C 87.390625 19.484375 86.171875 23.019531 82.121094 26.332031 C 85.554688 25.953125 88.683594 25.050781 88.71875 25.039062 C 89.132812 24.921875 89.574219 25.078125 89.824219 25.429688 C 90.066406 25.785156 90.058594 26.257812 89.800781 26.601562 C 89.679688 26.765625 86.820312 30.53125 81.976562 33.410156 C 81.988281 34.210938 82 35.488281 82 35.488281 C 82 62.242188 60.242188 84 33.5 84 Z M 14.605469 77.933594 C 19.859375 80.570312 26.433594 82 33.5 82 C 59.140625 82 80 61.140625 80 35.5 C 80 35.5 79.976562 33.097656 79.964844 32.878906 C 79.949219 32.503906 80.148438 32.148438 80.472656 31.964844 C 82.835938 30.632812 84.746094 29.023438 86.074219 27.730469 C 84.316406 28.085938 82.058594 28.441406 79.867188 28.488281 C 79.859375 28.488281 79.851562 28.488281 79.84375 28.488281 C 79.433594 28.488281 79.0625 28.238281 78.914062 27.855469 L 78.816406 27.59375 C 78.78125 27.5 78.75 27.40625 78.710938 27.3125 C 78.515625 26.863281 78.671875 26.339844 79.082031 26.074219 C 81.601562 24.445312 83.21875 22.59375 84.207031 21.152344 C 82.144531 21.980469 79.203125 22.917969 76.335938 22.988281 C 76.019531 23.011719 75.789062 22.886719 75.59375 22.6875 C 72.644531 19.664062 68.707031 18 64.5 18 C 55.953125 18 49 24.953125 49 33.5 C 49 34.847656 49.191406 36.226562 49.566406 37.601562 C 49.652344 37.914062 49.582031 38.246094 49.378906 38.496094 C 49.171875 38.746094 48.851562 38.878906 48.539062 38.863281 C 28.171875 37.53125 16.996094 26.265625 13.375 21.859375 C 12.492188 23.878906 12 26.222656 12 28.5 C 12 34.253906 15.386719 39.71875 20.425781 42.097656 C 20.851562 42.296875 21.078125 42.761719 20.976562 43.21875 C 20.875 43.675781 20.46875 44 20 44 C 16.273438 44 13.636719 43.257812 12.089844 42.640625 C 12.871094 49.820312 18.726562 55.550781 26.0625 56.003906 C 26.535156 56.03125 26.925781 56.390625 26.988281 56.859375 C 27.054688 57.328125 26.78125 57.78125 26.335938 57.941406 C 24.355469 58.644531 22.226562 59 20 59 C 19.605469 59 19.101562 58.984375 18.574219 58.957031 C 21.449219 64.167969 27.585938 67.820312 34.027344 68 C 34.4375 68.011719 34.800781 68.269531 34.9375 68.65625 C 35.078125 69.039062 34.972656 69.472656 34.667969 69.746094 C 29.300781 74.542969 22.085938 77.46875 14.605469 77.933594 Z M 14.605469 77.933594 "/>
<path style=" stroke:none;fill-rule:nonzero;fill:rgb(12.156863%,12.941176%,16.862745%);fill-opacity:1;" d="M 52.570312 35 C 52.3125 35 52.09375 34.804688 52.070312 34.542969 L 52.050781 34.324219 C 52.023438 34.050781 52 33.773438 52 33.5 C 52 33.222656 52.222656 33 52.5 33 C 52.777344 33 53 33.222656 53 33.5 C 53 33.742188 53.023438 33.984375 53.046875 34.230469 L 53.070312 34.457031 C 53.09375 34.730469 52.890625 34.972656 52.613281 34.996094 C 52.601562 35 52.585938 35 52.570312 35 Z M 52.570312 35 "/>
<path style=" stroke:none;fill-rule:nonzero;fill:rgb(12.156863%,12.941176%,16.862745%);fill-opacity:1;" d="M 52.679688 32 C 52.652344 32 52.625 31.996094 52.597656 31.992188 C 52.324219 31.945312 52.140625 31.6875 52.1875 31.414062 C 52.371094 30.328125 52.695312 29.277344 53.152344 28.289062 C 53.269531 28.039062 53.566406 27.929688 53.816406 28.046875 C 54.066406 28.160156 54.175781 28.457031 54.058594 28.710938 C 53.640625 29.617188 53.34375 30.585938 53.171875 31.582031 C 53.132812 31.828125 52.921875 32 52.679688 32 Z M 52.679688 32 "/>
<path style=" stroke:none;fill-rule:nonzero;fill:rgb(12.156863%,12.941176%,16.862745%);fill-opacity:1;" d="M 55.582031 26 C 55.460938 26 55.34375 25.957031 55.246094 25.871094 C 55.042969 25.6875 55.023438 25.371094 55.210938 25.164062 C 57.585938 22.519531 60.972656 21 64.5 21 C 67.574219 21 70.53125 22.140625 72.835938 24.210938 C 73.039062 24.398438 73.058594 24.714844 72.871094 24.917969 C 72.683594 25.125 72.371094 25.140625 72.164062 24.953125 C 70.046875 23.050781 67.324219 22 64.5 22 C 61.257812 22 58.140625 23.398438 55.953125 25.835938 C 55.855469 25.945312 55.71875 26 55.582031 26 Z M 55.582031 26 "/>
<path style=" stroke:none;fill-rule:nonzero;fill:rgb(12.156863%,12.941176%,16.862745%);fill-opacity:1;" d="M 33.5 79 C 33.296875 79 33.09375 78.992188 32.890625 78.984375 L 32.488281 78.96875 C 32.214844 78.964844 31.996094 78.734375 32 78.460938 C 32.007812 78.183594 32.234375 77.984375 32.511719 77.96875 L 32.929688 77.984375 C 33.117188 77.992188 33.308594 78 33.5 78 C 33.777344 78 34 78.222656 34 78.5 C 34 78.777344 33.777344 79 33.5 79 Z M 33.5 79 "/>
<path style=" stroke:none;fill-rule:nonzero;fill:rgb(12.156863%,12.941176%,16.862745%);fill-opacity:1;" d="M 47.5 76.648438 C 47.292969 76.648438 47.097656 76.515625 47.027344 76.308594 C 46.9375 76.050781 47.074219 75.765625 47.335938 75.675781 C 58.21875 71.914062 67.238281 63.757812 72.082031 53.289062 C 72.199219 53.039062 72.496094 52.929688 72.746094 53.046875 C 72.996094 53.160156 73.105469 53.460938 72.992188 53.710938 C 68.03125 64.421875 58.800781 72.773438 47.664062 76.617188 C 47.609375 76.640625 47.554688 76.648438 47.5 76.648438 Z M 47.5 76.648438 "/>
<path style=" stroke:none;fill-rule:nonzero;fill:rgb(12.156863%,12.941176%,16.862745%);fill-opacity:1;" d="M 36.5 78.882812 C 36.238281 78.882812 36.019531 78.683594 36 78.417969 C 35.980469 78.144531 36.191406 77.902344 36.464844 77.886719 C 38.136719 77.769531 39.796875 77.554688 41.40625 77.25 C 41.679688 77.199219 41.941406 77.378906 41.992188 77.648438 C 42.042969 77.921875 41.863281 78.183594 41.59375 78.234375 C 39.945312 78.546875 38.246094 78.761719 36.535156 78.882812 C 36.523438 78.882812 36.511719 78.882812 36.5 78.882812 Z M 36.5 78.882812 "/>
</g>
</svg>
