<?xml version="1.0" encoding="UTF-8"?>
<svg xmlns="http://www.w3.org/2000/svg" xmlns:xlink="http://www.w3.org/1999/xlink" width="100pt" height="100pt" viewBox="0 0 100 100" version="1.1">
<g id="surface507">
<path style=" stroke:none;fill-rule:nonzero;fill:rgb(99.607843%,96.470588%,66.666667%);fill-opacity:1;" d="M 14 84 C 36 84.199219 55 83.800781 77.199219 83.800781 C 80.699219 81.601562 83 75.699219 83 71.300781 L 83 30.398438 C 83 29 81.898438 27.898438 80.5 27.898438 L 53.5 27.898438 C 52.101562 27.898438 51 26.800781 51 25.398438 L 51 23.101562 C 51 19.699219 48.199219 16.898438 44.699219 16.898438 L 17.300781 16.898438 C 13.898438 16.898438 11 19.800781 11 23.300781 L 11 29.800781 L 11.101562 78 C 11.101562 83 12.300781 84 14 84 Z M 14 84 "/>
<path style=" stroke:none;fill-rule:nonzero;fill:rgb(12.156863%,12.941176%,16.862745%);fill-opacity:1;" d="M 15.5 32 C 15.199219 32 15 31.800781 15 31.5 L 15 26.5 C 15 23.398438 17.398438 21 20.300781 21 L 38.5 21 C 38.800781 21 39 21.199219 39 21.5 C 39 21.800781 38.800781 22 38.5 22 L 20.300781 22 C 18 22 16 24 16 26.5 L 16 31.5 C 16 31.699219 15.800781 32 15.5 32 Z M 46.5 27 C 46.199219 27 46 26.800781 46 26.5 C 46 24 44 22 41.699219 22 C 41.398438 22 41.199219 21.800781 41.199219 21.5 C 41.199219 21.199219 41.398438 21 41.699219 21 C 44.601562 21 47 23.5 47 26.5 C 47 26.800781 46.800781 27 46.5 27 Z M 46.5 27 "/>
<path style=" stroke:none;fill-rule:nonzero;fill:rgb(97.647059%,90.196078%,36.078431%);fill-opacity:1;" d="M 13.800781 84 L 85 84 C 86.699219 84 88.101562 82.601562 88.101562 80.898438 L 88.101562 37 L 16 37 L 16 74.800781 C 16 79.898438 16.300781 84 13.800781 84 Z M 13.800781 84 "/>
<path style=" stroke:none;fill-rule:nonzero;fill:rgb(56.078431%,61.960784%,71.372549%);fill-opacity:1;" d="M 25.5 42.5 L 49.5 42.5 L 49.5 52.5 L 25.5 52.5 Z M 25.5 42.5 "/>
<path style=" stroke:none;fill-rule:nonzero;fill:rgb(12.156863%,12.941176%,16.862745%);fill-opacity:1;" d="M 49.5 53 L 25.5 53 C 25.199219 53 25 52.800781 25 52.5 L 25 42.5 C 25 42.199219 25.199219 42 25.5 42 L 49.5 42 C 49.800781 42 50 42.199219 50 42.5 L 50 52.5 C 50 52.800781 49.800781 53 49.5 53 Z M 26 52 L 49 52 L 49 43 L 26 43 Z M 26 52 "/>
<path style=" stroke:none;fill-rule:nonzero;fill:rgb(12.156863%,12.941176%,16.862745%);fill-opacity:1;" d="M 88 36 L 84 36 L 84 30.398438 C 84 28.5 82.398438 26.898438 80.5 26.898438 L 53.5 26.898438 C 52.699219 26.898438 52 26.199219 52 25.398438 L 52 23.101562 C 52 19.101562 48.699219 15.898438 44.699219 15.898438 L 17.300781 15.898438 C 13.300781 15.898438 10 19.199219 10 23.300781 L 10.101562 78 C 10.101562 81.5 10.5 84.699219 13.601562 85 C 13.601562 85 13.699219 85 13.699219 85 L 14 85 C 14.699219 85 15.300781 85 16 85 L 84.898438 85 C 87.199219 85 89 83.199219 89 80.898438 L 89 37 C 89 36.398438 88.601562 36 88 36 Z M 15 37 L 15 76.101562 C 15 79 15 82.101562 14.199219 82.898438 C 14.101562 82.898438 14 83 13.800781 83 C 13.101562 83 12.101562 82.5 12.101562 78 L 12 29.800781 L 12 23.300781 C 12 20.300781 14.398438 17.898438 17.300781 17.898438 L 44.800781 17.898438 C 47.699219 17.898438 50.101562 20.199219 50.101562 23.101562 L 50.101562 25.398438 C 50.101562 27.300781 51.699219 28.898438 53.601562 28.898438 L 80.699219 28.898438 C 81.5 28.898438 82.199219 29.601562 82.199219 30.398438 L 82.199219 36 L 16 36 C 15.398438 36 15 36.398438 15 37 Z M 87 80.898438 C 87 82 86.101562 83 84.898438 83 L 16.398438 83 C 17 81.398438 17 79 17 76 L 17 38 L 87 38 Z M 87 80.898438 "/>
</g>
</svg>
