<?xml version="1.0" encoding="UTF-8"?>
<svg xmlns="http://www.w3.org/2000/svg" xmlns:xlink="http://www.w3.org/1999/xlink" width="100pt" height="100pt" viewBox="0 0 100 100" version="1.1">
<g id="surface482">
<path style="fill-rule:nonzero;fill:rgb(18.823529%,43.921569%,71.764706%);fill-opacity:1;stroke-width:1;stroke-linecap:butt;stroke-linejoin:miter;stroke:rgb(47.058824%,63.529412%,82.352941%);stroke-opacity:1;stroke-miterlimit:10;" d="M 70.011719 18.988281 L 31.011719 18.988281 C 24.410156 18.988281 19.011719 24.386719 19.011719 30.988281 L 19.011719 69.988281 C 19.011719 76.589844 24.410156 81.988281 31.011719 81.988281 L 70.011719 81.988281 C 76.609375 81.988281 82.011719 76.589844 82.011719 69.988281 L 82.011719 30.988281 C 82.011719 24.386719 76.609375 18.988281 70.011719 18.988281 Z M 70.011719 18.988281 "/>
<path style=" stroke:none;fill-rule:nonzero;fill:rgb(22.745098%,51.372549%,75.686275%);fill-opacity:1;" d="M 70.011719 81.988281 L 31.011719 81.988281 C 24.410156 81.988281 19.011719 76.589844 19.011719 69.988281 L 19.011719 57.488281 C 23.152344 53.46875 28.796875 50.988281 35.023438 50.988281 L 66.023438 50.988281 C 72.238281 50.988281 77.871094 53.457031 82.011719 57.460938 L 82.011719 69.988281 C 82.011719 76.589844 76.609375 81.988281 70.011719 81.988281 Z M 70.011719 81.988281 "/>
<path style=" stroke:none;fill-rule:nonzero;fill:rgb(25.098039%,65.098039%,86.666667%);fill-opacity:1;" d="M 70.011719 81.988281 L 31.011719 81.988281 C 24.410156 81.988281 19.011719 76.589844 19.011719 69.988281 L 19.011719 65.488281 C 23.152344 61.46875 28.796875 58.988281 35.023438 58.988281 L 66.023438 58.988281 C 72.238281 58.988281 77.871094 61.457031 82.011719 65.460938 L 82.011719 69.988281 C 82.011719 76.589844 76.609375 81.988281 70.011719 81.988281 Z M 70.011719 81.988281 "/>
<path style=" stroke:none;fill-rule:nonzero;fill:rgb(19.215686%,76.862745%,95.294118%);fill-opacity:1;" d="M 70.011719 81.988281 L 31.011719 81.988281 C 25.484375 81.988281 20.808594 78.195312 19.433594 73.085938 C 23.53125 69.300781 29.007812 66.988281 35.023438 66.988281 L 66.023438 66.988281 C 72.03125 66.988281 77.496094 69.292969 81.59375 73.0625 C 80.226562 78.183594 75.546875 81.988281 70.011719 81.988281 Z M 70.011719 81.988281 "/>
<path style=" stroke:none;fill-rule:nonzero;fill:rgb(12.156863%,12.941176%,16.862745%);fill-opacity:1;" d="M 70.011719 82.988281 L 31.011719 82.988281 C 23.832031 82.988281 18.011719 77.167969 18.011719 69.988281 L 18.011719 30.988281 C 18.011719 23.808594 23.832031 17.988281 31.011719 17.988281 L 70.011719 17.988281 C 77.191406 17.988281 83.011719 23.808594 83.011719 30.988281 L 83.011719 69.988281 C 83.011719 77.167969 77.191406 82.988281 70.011719 82.988281 Z M 20.011719 30.988281 L 20.011719 69.988281 C 20.011719 76.0625 24.9375 80.988281 31.011719 80.988281 L 70.011719 80.988281 C 76.085938 80.988281 81.011719 76.0625 81.011719 69.988281 L 81.011719 30.988281 C 81.011719 24.914062 76.085938 19.988281 70.011719 19.988281 L 31.011719 19.988281 C 24.933594 19.988281 20.011719 24.914062 20.011719 30.988281 Z M 20.011719 30.988281 "/>
<path style=" stroke:none;fill-rule:nonzero;fill:rgb(12.156863%,12.941176%,16.862745%);fill-opacity:1;" d="M 67.171875 77.988281 L 33.847656 77.988281 C 27.863281 77.988281 23.011719 73.136719 23.011719 67.152344 L 23.011719 33.824219 C 23.011719 27.839844 27.863281 22.988281 33.847656 22.988281 L 67.511719 22.988281 C 67.785156 22.988281 68.011719 23.210938 68.011719 23.488281 C 68.011719 23.765625 67.785156 23.988281 67.511719 23.988281 L 33.847656 23.988281 C 28.414062 23.988281 24.011719 28.390625 24.011719 33.824219 L 24.011719 67.148438 C 24.011719 72.582031 28.414062 76.988281 33.847656 76.988281 L 67.175781 76.988281 C 72.605469 76.988281 77.011719 72.585938 77.011719 67.152344 L 77.011719 48.488281 C 77.011719 48.210938 77.234375 47.988281 77.511719 47.988281 C 77.785156 47.988281 78.011719 48.210938 78.011719 48.488281 L 78.011719 67.148438 C 78.011719 73.136719 73.15625 77.988281 67.171875 77.988281 Z M 77.511719 45.566406 C 77.234375 45.566406 77.011719 45.34375 77.011719 45.066406 L 77.011719 41.066406 C 77.011719 40.789062 77.234375 40.566406 77.511719 40.566406 C 77.785156 40.566406 78.011719 40.789062 78.011719 41.066406 L 78.011719 45.066406 C 78.011719 45.34375 77.785156 45.566406 77.511719 45.566406 Z M 77.511719 39.566406 C 77.234375 39.566406 77.011719 39.34375 77.011719 39.066406 L 77.011719 37.066406 C 77.011719 36.789062 77.234375 36.566406 77.511719 36.566406 C 77.785156 36.566406 78.011719 36.789062 78.011719 37.066406 L 78.011719 39.066406 C 78.011719 39.34375 77.785156 39.566406 77.511719 39.566406 Z M 77.511719 39.566406 "/>
<path style="fill-rule:nonzero;fill:rgb(100%,100%,100%);fill-opacity:1;stroke-width:1;stroke-linecap:round;stroke-linejoin:round;stroke:rgb(12.156863%,12.941176%,16.862745%);stroke-opacity:1;stroke-miterlimit:10;" d="M 67.402344 65.5 L 33.597656 65.5 C 31.335938 65.5 29.5 63.664062 29.5 61.402344 L 29.5 40.597656 C 29.5 38.335938 31.335938 36.5 33.597656 36.5 L 67.402344 36.5 C 69.664062 36.5 71.5 38.335938 71.5 40.597656 L 71.5 61.402344 C 71.5 63.664062 69.664062 65.5 67.402344 65.5 Z M 67.402344 65.5 "/>
<path style="fill:none;stroke-width:1;stroke-linecap:round;stroke-linejoin:round;stroke:rgb(12.156863%,12.941176%,16.862745%);stroke-opacity:1;stroke-miterlimit:10;" d="M 31.070312 37.371094 L 44.894531 53.824219 C 47.84375 57.339844 53.226562 57.398438 56.257812 53.957031 L 70.4375 37.847656 "/>
<path style="fill:none;stroke-width:1;stroke-linecap:round;stroke-linejoin:round;stroke:rgb(12.156863%,12.941176%,16.862745%);stroke-opacity:1;stroke-miterlimit:10;" d="M 58.6875 51.195312 L 70.425781 64.167969 "/>
<path style="fill:none;stroke-width:1;stroke-linecap:round;stroke-linejoin:round;stroke:rgb(12.156863%,12.941176%,16.862745%);stroke-opacity:1;stroke-miterlimit:10;" d="M 31.070312 64.640625 L 42.691406 51.203125 "/>
</g>
</svg>
