<?xml version="1.0" encoding="UTF-8"?>
<svg xmlns="http://www.w3.org/2000/svg" xmlns:xlink="http://www.w3.org/1999/xlink" width="100pt" height="100pt" viewBox="0 0 100 100" version="1.1">
<g id="surface442">
<path style=" stroke:none;fill-rule:nonzero;fill:rgb(40%,57.647059%,75.686275%);fill-opacity:1;" d="M 71 82 L 29 82 C 22.925781 82 18 77.074219 18 71 L 18 29 C 18 22.925781 22.925781 18 29 18 L 71 18 C 77.074219 18 82 22.925781 82 29 L 82 71 C 82 77.074219 77.074219 82 71 82 Z M 71 82 "/>
<path style=" stroke:none;fill-rule:nonzero;fill:rgb(93.333333%,92.54902%,85.098039%);fill-opacity:1;" d="M 69.933594 49.039062 C 69.933594 45.71875 68.628906 42.703125 66.515625 40.464844 C 66.910156 38.261719 66.863281 35.164062 65.976562 32.5 C 61.5 32.5 57.863281 35.945312 57.273438 36.5 L 44.46875 36.5 C 43.882812 35.949219 40.449219 32.5 35.976562 32.5 C 35.175781 34.902344 34.890625 37.734375 35.128906 39.796875 C 32.613281 42.082031 31.023438 45.371094 31.023438 49.039062 C 31.023438 55.949219 36.621094 61.5 43.527344 61.5 L 45.976562 61.5 C 43.972656 62.414062 42.339844 64.253906 41.976562 66.5 C 39.976562 66.5 37.113281 66.316406 35.796875 64.339844 C 33.335938 60.652344 32.203125 60.652344 30.976562 60.652344 C 29.746094 60.652344 29.644531 61.882812 30.875 63.109375 C 32.105469 64.339844 32.105469 64.339844 33.335938 66.800781 C 34.347656 68.828125 36.976562 70.5 41.976562 70.5 L 41.976562 76.5 L 58.976562 76.5 L 58.976562 67.65625 C 58.976562 64.9375 57.296875 62.5625 54.976562 61.5 L 57.425781 61.5 C 64.335938 61.5 69.933594 55.945312 69.933594 49.039062 Z M 69.933594 49.039062 "/>
<path style=" stroke:none;fill-rule:nonzero;fill:rgb(12.156863%,12.941176%,16.862745%);fill-opacity:1;" d="M 58.976562 77 C 58.699219 77 58.476562 76.777344 58.476562 76.5 L 58.476562 67.65625 C 58.476562 65.222656 57.019531 62.988281 54.769531 61.953125 C 54.554688 61.855469 54.4375 61.621094 54.488281 61.394531 C 54.539062 61.164062 54.742188 61 54.976562 61 L 57.425781 61 C 64.046875 61 69.433594 55.632812 69.433594 49.039062 C 69.433594 45.976562 68.265625 43.050781 66.152344 40.808594 C 66.042969 40.695312 65.992188 40.535156 66.023438 40.378906 C 66.355469 38.523438 66.410156 35.652344 65.613281 33.007812 C 61.929688 33.171875 58.816406 35.734375 57.625 36.855469 C 57.53125 36.941406 57.402344 37 57.273438 37 L 44.46875 37 C 44.34375 37 44.21875 36.953125 44.128906 36.863281 L 44.035156 36.777344 C 40.957031 33.851562 38.207031 33.09375 36.339844 33.007812 C 35.675781 35.171875 35.398438 37.769531 35.625 39.738281 C 35.644531 39.898438 35.585938 40.054688 35.464844 40.164062 C 32.960938 42.441406 31.523438 45.675781 31.523438 49.039062 C 31.523438 55.636719 36.910156 61 43.527344 61 L 45.976562 61 C 46.210938 61 46.414062 61.164062 46.464844 61.394531 C 46.515625 61.621094 46.398438 61.855469 46.183594 61.953125 C 44.210938 62.859375 42.785156 64.632812 42.46875 66.578125 C 42.429688 66.820312 42.222656 67 41.976562 67 C 39.644531 67 36.785156 66.730469 35.378906 64.621094 C 33.066406 61.152344 32.097656 61.152344 30.976562 61.152344 C 30.835938 61.152344 30.589844 61.175781 30.527344 61.332031 C 30.441406 61.535156 30.558594 62.085938 31.230469 62.757812 C 32.515625 64.046875 32.539062 64.09375 33.78125 66.578125 C 34.886719 68.785156 37.796875 70 41.976562 70 C 42.253906 70 42.476562 70.222656 42.476562 70.5 L 42.476562 76.5 C 42.476562 76.777344 42.253906 77 41.976562 77 C 41.699219 77 41.476562 76.777344 41.476562 76.5 L 41.476562 70.996094 C 35.679688 70.863281 33.609375 68.46875 32.886719 67.027344 C 31.695312 64.640625 31.695312 64.640625 30.523438 63.464844 C 29.652344 62.597656 29.308594 61.65625 29.601562 60.949219 C 29.8125 60.441406 30.3125 60.152344 30.976562 60.152344 C 32.5625 60.152344 33.785156 60.425781 36.210938 64.066406 C 37.277344 65.667969 39.570312 65.964844 41.566406 65.996094 C 41.929688 64.453125 42.875 63.03125 44.195312 62 L 43.527344 62 C 36.355469 62 30.519531 56.1875 30.519531 49.039062 C 30.519531 45.480469 32.007812 42.054688 34.605469 39.597656 C 34.394531 37.394531 34.734375 34.644531 35.5 32.34375 C 35.570312 32.136719 35.761719 32 35.976562 32 C 38.011719 32 41.167969 32.695312 44.667969 36 L 57.078125 36 C 58.503906 34.6875 61.925781 32 65.976562 32 C 66.191406 32 66.382812 32.136719 66.449219 32.34375 C 67.386719 35.144531 67.378906 38.242188 67.046875 40.308594 C 69.234375 42.710938 70.433594 45.800781 70.433594 49.039062 C 70.433594 56.1875 64.597656 62 57.425781 62 L 56.730469 62 C 58.4375 63.367188 59.476562 65.441406 59.476562 67.65625 L 59.476562 76.5 C 59.476562 76.777344 59.253906 77 58.976562 77 Z M 58.976562 77 "/>
<path style=" stroke:none;fill-rule:nonzero;fill:rgb(12.156863%,12.941176%,16.862745%);fill-opacity:1;" d="M 65.5 77 L 34.5 77 C 28.160156 77 23 71.839844 23 65.5 L 23 34.5 C 23 28.160156 28.160156 23 34.5 23 L 65.5 23 C 65.777344 23 66 23.222656 66 23.5 C 66 23.777344 65.777344 24 65.5 24 L 34.5 24 C 28.710938 24 24 28.710938 24 34.5 L 24 65.5 C 24 71.289062 28.710938 76 34.5 76 L 65.5 76 C 71.289062 76 76 71.289062 76 65.5 L 76 50.5 C 76 50.222656 76.222656 50 76.5 50 C 76.777344 50 77 50.222656 77 50.5 L 77 65.5 C 77 71.839844 71.839844 77 65.5 77 Z M 65.5 77 "/>
<path style=" stroke:none;fill-rule:nonzero;fill:rgb(12.156863%,12.941176%,16.862745%);fill-opacity:1;" d="M 76.5 48.5 C 76.222656 48.5 76 48.277344 76 48 L 76 41.5 C 76 41.222656 76.222656 41 76.5 41 C 76.777344 41 77 41.222656 77 41.5 L 77 48 C 77 48.277344 76.777344 48.5 76.5 48.5 Z M 76.5 48.5 "/>
<path style=" stroke:none;fill-rule:nonzero;fill:rgb(12.156863%,12.941176%,16.862745%);fill-opacity:1;" d="M 76.5 38.5 C 76.222656 38.5 76 38.277344 76 38 L 76 34.5 C 76 34.222656 76.222656 34 76.5 34 C 76.777344 34 77 34.222656 77 34.5 L 77 38 C 77 38.277344 76.777344 38.5 76.5 38.5 Z M 76.5 38.5 "/>
<path style=" stroke:none;fill-rule:nonzero;fill:rgb(12.156863%,12.941176%,16.862745%);fill-opacity:1;" d="M 71 83 L 29 83 C 22.382812 83 17 77.617188 17 71 L 17 29 C 17 22.382812 22.382812 17 29 17 L 71 17 C 77.617188 17 83 22.382812 83 29 L 83 71 C 83 77.617188 77.617188 83 71 83 Z M 29 19 C 23.484375 19 19 23.484375 19 29 L 19 71 C 19 76.515625 23.484375 81 29 81 L 71 81 C 76.515625 81 81 76.515625 81 71 L 81 29 C 81 23.484375 76.515625 19 71 19 Z M 29 19 "/>
</g>
</svg>
