<?xml version="1.0" encoding="UTF-8"?>
<svg xmlns="http://www.w3.org/2000/svg" xmlns:xlink="http://www.w3.org/1999/xlink" width="100pt" height="100pt" viewBox="0 0 100 100" version="1.1">
<g id="surface34667">
<path style=" stroke:none;fill-rule:nonzero;fill:rgb(47.058824%,63.137255%,81.960784%);fill-opacity:1;" d="M 69.308594 81.960938 L 30.308594 81.960938 C 23.707031 81.960938 18.308594 76.5625 18.308594 69.960938 L 18.308594 30.960938 C 18.308594 24.359375 23.707031 18.960938 30.308594 18.960938 L 69.308594 18.960938 C 75.90625 18.960938 81.308594 24.359375 81.308594 30.960938 L 81.308594 69.960938 C 81.308594 76.5625 75.90625 81.960938 69.308594 81.960938 Z M 69.308594 81.960938 "/>
<path style=" stroke:none;fill-rule:nonzero;fill:rgb(12.156863%,12.941176%,16.862745%);fill-opacity:1;" d="M 69.308594 82.960938 L 30.308594 82.960938 C 23.140625 82.960938 17.308594 77.128906 17.308594 69.960938 L 17.308594 30.960938 C 17.308594 23.792969 23.140625 17.960938 30.308594 17.960938 L 69.308594 17.960938 C 76.476562 17.960938 82.308594 23.792969 82.308594 30.960938 L 82.308594 69.960938 C 82.308594 77.128906 76.476562 82.960938 69.308594 82.960938 Z M 30.308594 19.960938 C 24.242188 19.960938 19.308594 24.894531 19.308594 30.960938 L 19.308594 69.960938 C 19.308594 76.027344 24.242188 80.960938 30.308594 80.960938 L 69.308594 80.960938 C 75.371094 80.960938 80.308594 76.027344 80.308594 69.960938 L 80.308594 30.960938 C 80.308594 24.894531 75.371094 19.960938 69.308594 19.960938 Z M 30.308594 19.960938 "/>
<path style=" stroke:none;fill-rule:nonzero;fill:rgb(47.058824%,63.137255%,81.960784%);fill-opacity:1;" d="M 76.808594 48.460938 L 76.808594 67.125 C 76.808594 72.808594 72.15625 77.460938 66.46875 77.460938 L 33.144531 77.460938 C 27.460938 77.460938 22.808594 72.808594 22.808594 67.125 L 22.808594 33.796875 C 22.808594 28.113281 27.460938 23.460938 33.144531 23.460938 L 66.808594 23.460938 "/>
<path style=" stroke:none;fill-rule:nonzero;fill:rgb(12.156863%,12.941176%,16.862745%);fill-opacity:1;" d="M 66.46875 77.960938 L 33.144531 77.960938 C 27.167969 77.960938 22.308594 73.101562 22.308594 67.125 L 22.308594 33.796875 C 22.308594 27.820312 27.167969 22.960938 33.144531 22.960938 L 66.808594 22.960938 C 67.082031 22.960938 67.308594 23.183594 67.308594 23.460938 C 67.308594 23.738281 67.082031 23.960938 66.808594 23.960938 L 33.144531 23.960938 C 27.71875 23.960938 23.308594 28.375 23.308594 33.796875 L 23.308594 67.125 C 23.308594 72.546875 27.71875 76.960938 33.144531 76.960938 L 66.46875 76.960938 C 71.894531 76.960938 76.308594 72.546875 76.308594 67.125 L 76.308594 48.460938 C 76.308594 48.183594 76.53125 47.960938 76.808594 47.960938 C 77.082031 47.960938 77.308594 48.183594 77.308594 48.460938 L 77.308594 67.125 C 77.308594 73.097656 72.445312 77.960938 66.46875 77.960938 Z M 76.808594 45.960938 C 76.53125 45.960938 76.308594 45.738281 76.308594 45.460938 L 76.308594 41.460938 C 76.308594 41.183594 76.53125 40.960938 76.808594 40.960938 C 77.082031 40.960938 77.308594 41.183594 77.308594 41.460938 L 77.308594 45.460938 C 77.308594 45.738281 77.082031 45.960938 76.808594 45.960938 Z M 76.808594 39.960938 C 76.53125 39.960938 76.308594 39.738281 76.308594 39.460938 L 76.308594 37.460938 C 76.308594 37.183594 76.53125 36.960938 76.808594 36.960938 C 77.082031 36.960938 77.308594 37.183594 77.308594 37.460938 L 77.308594 39.460938 C 77.308594 39.738281 77.082031 39.960938 76.808594 39.960938 Z M 76.808594 39.960938 "/>
<path style=" stroke:none;fill-rule:nonzero;fill:rgb(99.215686%,98.823529%,93.333333%);fill-opacity:1;" d="M 53.34375 62.597656 C 53.277344 63.949219 54.699219 64.628906 57.617188 64.628906 L 57.617188 67.199219 L 42.382812 67.199219 L 42.382812 64.628906 C 45.199219 64.628906 46.609375 63.949219 46.609375 62.59375 L 46.609375 48.871094 C 46.609375 47.488281 45.199219 46.796875 42.382812 46.796875 L 42.382812 44.222656 L 53.34375 44.222656 Z M 53.929688 36.636719 C 53.929688 37.691406 53.53125 38.601562 52.726562 39.367188 C 51.925781 40.136719 50.933594 40.519531 49.753906 40.519531 C 49.164062 40.519531 48.613281 40.414062 48.109375 40.203125 C 47.597656 39.992188 47.15625 39.714844 46.78125 39.367188 C 46.402344 39.023438 46.101562 38.617188 45.871094 38.148438 C 45.644531 37.683594 45.527344 37.179688 45.527344 36.636719 C 45.527344 35.554688 45.945312 34.644531 46.78125 33.90625 C 47.617188 33.171875 48.605469 32.800781 49.753906 32.800781 C 50.898438 32.800781 51.882812 33.179688 52.703125 33.929688 C 53.519531 34.679688 53.929688 35.585938 53.929688 36.636719 Z M 53.929688 36.636719 "/>
<path style=" stroke:none;fill-rule:nonzero;fill:rgb(12.156863%,12.941176%,16.862745%);fill-opacity:1;" d="M 57.617188 67.699219 L 42.382812 67.699219 C 42.105469 67.699219 41.882812 67.476562 41.882812 67.199219 L 41.882812 64.628906 C 41.882812 64.351562 42.105469 64.128906 42.382812 64.128906 C 44.855469 64.128906 46.109375 63.613281 46.109375 62.59375 L 46.109375 48.871094 C 46.109375 47.824219 44.855469 47.292969 42.382812 47.292969 C 42.105469 47.292969 41.882812 47.070312 41.882812 46.792969 L 41.882812 44.222656 C 41.882812 43.945312 42.105469 43.722656 42.382812 43.722656 L 53.34375 43.722656 C 53.617188 43.722656 53.84375 43.945312 53.84375 44.222656 L 53.84375 62.597656 C 53.84375 62.605469 53.84375 62.613281 53.84375 62.621094 C 53.828125 62.914062 53.90625 63.140625 54.09375 63.335938 C 54.4375 63.695312 55.328125 64.128906 57.617188 64.128906 C 57.894531 64.128906 58.117188 64.351562 58.117188 64.628906 L 58.117188 67.199219 C 58.117188 67.476562 57.894531 67.699219 57.617188 67.699219 Z M 42.882812 66.699219 L 57.117188 66.699219 L 57.117188 65.121094 C 55.246094 65.066406 54.015625 64.707031 53.367188 64.023438 C 52.992188 63.632812 52.816406 63.148438 52.84375 62.585938 L 52.84375 44.722656 L 42.882812 44.722656 L 42.882812 46.300781 C 45.6875 46.390625 47.109375 47.253906 47.109375 48.871094 L 47.109375 62.597656 C 47.109375 64.183594 45.6875 65.03125 42.882812 65.121094 Z M 53.34375 62.597656 L 53.351562 62.597656 Z M 49.753906 41.019531 C 49.101562 41.019531 48.484375 40.902344 47.917969 40.664062 C 47.359375 40.433594 46.863281 40.121094 46.441406 39.738281 C 46.019531 39.347656 45.675781 38.886719 45.421875 38.367188 C 45.160156 37.835938 45.027344 37.253906 45.027344 36.636719 C 45.027344 35.410156 45.507812 34.363281 46.449219 33.53125 C 47.375 32.714844 48.488281 32.300781 49.753906 32.300781 C 51.023438 32.300781 52.128906 32.722656 53.039062 33.558594 C 53.964844 34.410156 54.433594 35.445312 54.433594 36.636719 C 54.433594 37.828125 53.976562 38.867188 53.074219 39.730469 C 52.175781 40.585938 51.0625 41.019531 49.753906 41.019531 Z M 49.753906 33.300781 C 48.726562 33.300781 47.859375 33.621094 47.113281 34.28125 C 46.382812 34.925781 46.027344 35.695312 46.027344 36.636719 C 46.027344 37.097656 46.128906 37.53125 46.320312 37.929688 C 46.519531 38.335938 46.789062 38.695312 47.117188 39 C 47.453125 39.304688 47.847656 39.554688 48.300781 39.738281 C 48.742188 39.925781 49.234375 40.019531 49.753906 40.019531 C 50.808594 40.019531 51.667969 39.6875 52.382812 39.003906 C 53.089844 38.328125 53.429688 37.554688 53.429688 36.636719 C 53.429688 35.71875 53.082031 34.953125 52.363281 34.292969 C 51.632812 33.625 50.78125 33.300781 49.753906 33.300781 Z M 49.753906 33.300781 "/>
</g>
</svg>
