<svg height="141.369" viewBox="0 0 97.019 141.369" width="97.019" xmlns="http://www.w3.org/2000/svg"><path d="m12.768 140.619-12.018-7.006 58.134-97.74 10.289 5.998z" fill="#d68772"/><path d="m61.158 47.88-6.992-4.075 4.724 7.923-50.788 86.171 4.666 2.72 51.828-90.734z" fill="#d1665f"/><path d="m12.768 141.369a.736.736 0 0 1 -.378-.1l-12.018-7.009a.749.749 0 0 1 -.266-1.031l58.133-97.74a.748.748 0 0 1 1.023-.264l10.289 6a.75.75 0 0 1 .273 1.02l-56.4 98.747a.753.753 0 0 1 -.651.378zm-10.987-8.023 10.71 6.244 55.662-97.445-9-5.25z" fill="#2b232b"/><path d="m67.268 51.442-15.96-9.3s4.963-15.6-3.635-20.613c-6.913-4.03-10.823-1.5-10.823-1.5l-6-3.5 9.198-15.779 6.01 3.5s-.744 5.431 6.169 9.461c6.678 3.892 15.944-.5 15.944-.5 20.513 8.189 34.119 32.025 25.429 53.583l-1.05-.612c.942-7.268 1.385-17.686-6.085-22.041-8.139-4.741-19.197 7.301-19.197 7.301z" fill="#4a474d"/><path d="m94.549 64.162c.942-7.268 2.491-18.287-7.081-23.169-8.4-4.283-18.281 5.867-20.2 10.449 0 0 10.409-12.29 19.2-7.3s6.085 22.041 6.085 22.041l1.05.612z" fill="#483540"/><path d="m46.058 4.253-2.358 4.047c-1.16 1.988-2.133 4.338-3.731 6.005a1.661 1.661 0 0 1 -.9.575 1.543 1.543 0 0 1 -.814-.164c-1.525-.659-2.645-1.993-4.049-2.881a.535.535 0 0 0 -.311-.112c-.689.047-.99 1.137-1.273 1.614a22.06 22.06 0 0 0 -1.252 2.3 1.355 1.355 0 0 0 -.157.589 1.4 1.4 0 0 0 .622.935 22.675 22.675 0 0 0 3.892 2.617c1.3.693 3.362.107 4.771-.031a9.676 9.676 0 0 1 5.112.546c7 3.246 8.193 12.362 6.323 19.035-.18.641-.389 1.276-.516 1.93-.053.272-.057.62.188.749.291.153.605-.155.786-.43 3.283-4.962 5.263-10.68 2.918-16.5-1.63-4.041-4.93-6.9-8.6-9.076a1.171 1.171 0 0 1 -.511-.459 1.025 1.025 0 0 1 -.018-.644c.258-1.19 1.013-2.213 1.385-3.373.786-2.465-2.824-5.015-1.507-7.272z" fill="#483540"/><path d="m93.6 67.544a.751.751 0 0 1 -.377-.1l-1.051-.611a.753.753 0 0 1 -.367-.745c.929-7.169 1.348-17.177-5.719-21.3-7.527-4.392-18.164 7.044-18.27 7.16a.752.752 0 0 1 -.93.141l-15.959-9.3a.751.751 0 0 1 -.337-.876c.048-.15 4.678-15.087-3.3-19.738-6.373-3.716-9.9-1.605-10.042-1.512a.761.761 0 0 1 -.78.014l-6-3.5a.75.75 0 0 1 -.271-1.025l9.203-15.78a.749.749 0 0 1 .457-.348.741.741 0 0 1 .569.076l6.01 3.5a.751.751 0 0 1 .365.749c-.026.2-.552 5 5.805 8.71 6.252 3.647 15.156-.489 15.244-.531a.748.748 0 0 1 .6-.019 46.308 46.308 0 0 1 25.23 24.661 38.751 38.751 0 0 1 .619 29.9.752.752 0 0 1 -.7.47zm-11.345-25.27a8.969 8.969 0 0 1 4.591 1.22c7.442 4.338 7.455 14.136 6.595 21.614a37.4 37.4 0 0 0 -1.141-27.349 45.439 45.439 0 0 0 -24.112-23.732c-1.715.748-10.011 4.023-16.338.334-6.089-3.549-6.585-8.152-6.567-9.69l-4.965-2.9-8.443 14.488 5 2.914c1.251-.578 5.172-1.8 11.18 1.706 8.145 4.751 4.977 17.936 4.145 20.909l14.934 8.712c1.749-1.791 8.505-8.226 15.121-8.226z" fill="#2b232b"/></svg>